%TF.GenerationSoftware,KiCad,Pcbnew,9.0.3*%
%TF.CreationDate,2025-08-03T17:32:48-04:00*%
%TF.ProjectId,Photon,50686f74-6f6e-42e6-9b69-6361645f7063,rev?*%
%TF.SameCoordinates,Original*%
%TF.FileFunction,Copper,L4,Bot*%
%TF.FilePolarity,Positive*%
%FSLAX46Y46*%
G04 Gerber Fmt 4.6, Leading zero omitted, Abs format (unit mm)*
G04 Created by KiCad (PCBNEW 9.0.3) date 2025-08-03 17:32:48*
%MOMM*%
%LPD*%
G01*
G04 APERTURE LIST*
G04 Aperture macros list*
%AMRoundRect*
0 Rectangle with rounded corners*
0 $1 Rounding radius*
0 $2 $3 $4 $5 $6 $7 $8 $9 X,Y pos of 4 corners*
0 Add a 4 corners polygon primitive as box body*
4,1,4,$2,$3,$4,$5,$6,$7,$8,$9,$2,$3,0*
0 Add four circle primitives for the rounded corners*
1,1,$1+$1,$2,$3*
1,1,$1+$1,$4,$5*
1,1,$1+$1,$6,$7*
1,1,$1+$1,$8,$9*
0 Add four rect primitives between the rounded corners*
20,1,$1+$1,$2,$3,$4,$5,0*
20,1,$1+$1,$4,$5,$6,$7,0*
20,1,$1+$1,$6,$7,$8,$9,0*
20,1,$1+$1,$8,$9,$2,$3,0*%
G04 Aperture macros list end*
%TA.AperFunction,SMDPad,CuDef*%
%ADD10RoundRect,0.735000X-2.940000X3.150000X-2.940000X-3.150000X2.940000X-3.150000X2.940000X3.150000X0*%
%TD*%
%TA.AperFunction,ComponentPad*%
%ADD11O,1.100000X1.700000*%
%TD*%
%TA.AperFunction,ViaPad*%
%ADD12C,0.800000*%
%TD*%
%TA.AperFunction,Conductor*%
%ADD13C,0.200000*%
%TD*%
G04 APERTURE END LIST*
D10*
%TO.P,BT1,2,-*%
%TO.N,-BATT*%
X52832000Y-110744000D03*
%TO.P,BT1,1,+*%
%TO.N,+BATT*%
X52832000Y-31496000D03*
%TD*%
D11*
%TO.P,P1,S1,SHIELD*%
%TO.N,GND*%
X57152000Y-26368000D03*
X57152000Y-22568000D03*
X48512000Y-26368000D03*
X48512000Y-22568000D03*
%TD*%
D12*
%TO.N,GND*%
X46736000Y-83820000D03*
X61976000Y-56896000D03*
X58928000Y-103632000D03*
X47244000Y-109220000D03*
X57912000Y-33020000D03*
X57912000Y-30480000D03*
X57912000Y-74676000D03*
X59436000Y-87376000D03*
X51816000Y-65024000D03*
X57107000Y-113792000D03*
X44196000Y-55880000D03*
X46228000Y-55880000D03*
X53848000Y-65024000D03*
%TO.N,/3V6*%
X55880000Y-61976000D03*
X48768000Y-65024000D03*
X57912000Y-61976000D03*
X53848000Y-46228000D03*
X59944000Y-61976000D03*
X48260000Y-69088000D03*
X51562000Y-96774000D03*
X57404000Y-109220000D03*
X48260000Y-80264000D03*
%TO.N,-BATT*%
X55295000Y-106757000D03*
X47377500Y-106305500D03*
X57912000Y-106680000D03*
%TO.N,+BATT*%
X44437000Y-106439000D03*
X50292000Y-65024000D03*
X46228000Y-101092000D03*
X48260000Y-29464000D03*
X48260000Y-28448000D03*
X48260000Y-30480000D03*
%TO.N,VCC*%
X48260000Y-34036000D03*
X58420000Y-29400000D03*
X52832000Y-24384000D03*
%TO.N,/MISO_BTN*%
X52832000Y-105856000D03*
X52832000Y-101600000D03*
%TD*%
D13*
%TO.N,/MISO_BTN*%
X52832000Y-105856000D02*
X52832000Y-101600000D01*
%TD*%
%TA.AperFunction,Conductor*%
%TO.N,-BATT*%
G36*
X60816519Y-20837546D02*
G01*
X60824770Y-20837900D01*
X61077876Y-20859401D01*
X61089508Y-20861090D01*
X61338298Y-20912463D01*
X61349632Y-20915515D01*
X61570757Y-20989411D01*
X61590571Y-20996033D01*
X61601487Y-21000418D01*
X61831161Y-21108938D01*
X61841466Y-21114578D01*
X62056652Y-21249574D01*
X62066228Y-21256406D01*
X62263881Y-21415970D01*
X62272578Y-21423889D01*
X62449909Y-21605766D01*
X62457603Y-21614658D01*
X62512447Y-21686227D01*
X62612117Y-21816293D01*
X62618704Y-21826038D01*
X62748207Y-22044566D01*
X62753590Y-22055020D01*
X62823983Y-22214322D01*
X62856260Y-22287367D01*
X62860367Y-22298389D01*
X62934758Y-22541282D01*
X62937528Y-22552715D01*
X62982581Y-22802700D01*
X62983976Y-22814379D01*
X62999321Y-23072271D01*
X62999496Y-23078238D01*
X62970166Y-56445390D01*
X62951208Y-56503564D01*
X62901676Y-56539484D01*
X62840491Y-56539431D01*
X62791022Y-56503423D01*
X62779701Y-56483186D01*
X62774013Y-56469453D01*
X62675464Y-56321965D01*
X62550035Y-56196536D01*
X62453148Y-56131798D01*
X62402544Y-56097985D01*
X62238666Y-56030106D01*
X62064693Y-55995500D01*
X62064691Y-55995500D01*
X61887309Y-55995500D01*
X61887306Y-55995500D01*
X61713334Y-56030106D01*
X61713332Y-56030106D01*
X61549455Y-56097985D01*
X61549454Y-56097985D01*
X61401965Y-56196535D01*
X61276535Y-56321965D01*
X61177985Y-56469454D01*
X61177985Y-56469455D01*
X61110106Y-56633332D01*
X61110106Y-56633334D01*
X61075500Y-56807306D01*
X61075500Y-56984693D01*
X61110106Y-57158665D01*
X61110106Y-57158667D01*
X61177985Y-57322544D01*
X61177985Y-57322545D01*
X61276535Y-57470034D01*
X61276536Y-57470035D01*
X61401965Y-57595464D01*
X61549453Y-57694013D01*
X61713334Y-57761894D01*
X61887309Y-57796500D01*
X61887310Y-57796500D01*
X62064690Y-57796500D01*
X62064691Y-57796500D01*
X62238666Y-57761894D01*
X62402547Y-57694013D01*
X62550035Y-57595464D01*
X62675464Y-57470035D01*
X62774013Y-57322547D01*
X62778907Y-57310729D01*
X62818640Y-57264205D01*
X62878134Y-57249918D01*
X62934663Y-57273329D01*
X62966635Y-57325497D01*
X62969372Y-57348700D01*
X62926368Y-106274199D01*
X62907410Y-106332373D01*
X62857878Y-106368293D01*
X62796693Y-106368240D01*
X62747224Y-106332232D01*
X62731741Y-106299735D01*
X62720389Y-106257368D01*
X62615019Y-106002983D01*
X62612538Y-105998685D01*
X62477343Y-105764521D01*
X62309722Y-105546072D01*
X62115022Y-105351372D01*
X61896573Y-105183751D01*
X61658115Y-105046077D01*
X61658110Y-105046074D01*
X61403725Y-104940704D01*
X61282615Y-104908253D01*
X61137760Y-104869440D01*
X61137753Y-104869439D01*
X60864769Y-104833500D01*
X60864768Y-104833500D01*
X60589420Y-104833500D01*
X60589418Y-104833500D01*
X60316434Y-104869439D01*
X60316432Y-104869439D01*
X60316428Y-104869440D01*
X60215899Y-104896376D01*
X60050462Y-104940704D01*
X59796077Y-105046074D01*
X59557611Y-105183753D01*
X59339169Y-105351369D01*
X59144463Y-105546075D01*
X58976847Y-105764517D01*
X58839168Y-106002983D01*
X58733798Y-106257368D01*
X58710478Y-106344402D01*
X58662534Y-106523334D01*
X58662533Y-106523338D01*
X58662533Y-106523340D01*
X58626594Y-106796324D01*
X58626594Y-107071675D01*
X58662533Y-107344659D01*
X58662534Y-107344666D01*
X58665239Y-107354760D01*
X58733798Y-107610631D01*
X58839168Y-107865016D01*
X58839171Y-107865021D01*
X58976845Y-108103479D01*
X59144466Y-108321928D01*
X59339166Y-108516628D01*
X59557615Y-108684249D01*
X59796073Y-108821923D01*
X59796074Y-108821923D01*
X59796077Y-108821925D01*
X59912029Y-108869954D01*
X60050462Y-108927295D01*
X60316428Y-108998560D01*
X60589420Y-109034500D01*
X60589421Y-109034500D01*
X60864767Y-109034500D01*
X60864768Y-109034500D01*
X61137760Y-108998560D01*
X61403726Y-108927295D01*
X61658115Y-108821923D01*
X61896573Y-108684249D01*
X62115022Y-108516628D01*
X62309722Y-108321928D01*
X62477343Y-108103479D01*
X62615017Y-107865021D01*
X62720389Y-107610632D01*
X62730577Y-107572608D01*
X62763900Y-107521294D01*
X62821022Y-107499367D01*
X62880122Y-107515202D01*
X62918628Y-107562752D01*
X62925204Y-107598318D01*
X62921429Y-111892422D01*
X62921429Y-111892423D01*
X62921423Y-111899028D01*
X62921367Y-111899240D01*
X62921367Y-111962447D01*
X62921364Y-111962455D01*
X62921211Y-111967910D01*
X62903755Y-112278720D01*
X62902512Y-112289752D01*
X62850834Y-112593912D01*
X62848364Y-112604736D01*
X62762951Y-112901207D01*
X62759284Y-112911686D01*
X62641217Y-113196725D01*
X62636400Y-113206727D01*
X62487164Y-113476749D01*
X62481258Y-113486149D01*
X62302723Y-113737771D01*
X62295801Y-113746451D01*
X62090218Y-113976498D01*
X62082367Y-113984349D01*
X61852319Y-114189932D01*
X61843639Y-114196854D01*
X61592017Y-114375389D01*
X61582617Y-114381295D01*
X61312594Y-114530531D01*
X61302592Y-114535348D01*
X61017554Y-114653415D01*
X61007075Y-114657082D01*
X60710604Y-114742494D01*
X60699780Y-114744964D01*
X60395620Y-114796643D01*
X60384588Y-114797886D01*
X60074308Y-114815311D01*
X60068757Y-114815467D01*
X57486944Y-114815472D01*
X57428753Y-114796565D01*
X57392789Y-114747065D01*
X57392789Y-114685879D01*
X57428753Y-114636379D01*
X57449051Y-114625011D01*
X57533547Y-114590013D01*
X57681035Y-114491464D01*
X57806464Y-114366035D01*
X57905013Y-114218547D01*
X57972894Y-114054666D01*
X58007500Y-113880691D01*
X58007500Y-113703309D01*
X57972894Y-113529334D01*
X57934069Y-113435601D01*
X57905014Y-113365455D01*
X57905014Y-113365454D01*
X57806464Y-113217965D01*
X57681034Y-113092535D01*
X57533544Y-112993985D01*
X57369666Y-112926106D01*
X57195693Y-112891500D01*
X57195691Y-112891500D01*
X57018309Y-112891500D01*
X57018306Y-112891500D01*
X56844334Y-112926106D01*
X56844332Y-112926106D01*
X56680455Y-112993985D01*
X56680454Y-112993985D01*
X56532965Y-113092535D01*
X56407535Y-113217965D01*
X56308985Y-113365454D01*
X56308985Y-113365455D01*
X56241106Y-113529332D01*
X56241106Y-113529334D01*
X56206500Y-113703306D01*
X56206500Y-113880693D01*
X56241106Y-114054665D01*
X56241106Y-114054667D01*
X56308985Y-114218544D01*
X56308985Y-114218545D01*
X56389656Y-114339276D01*
X56407536Y-114366035D01*
X56532965Y-114491464D01*
X56680453Y-114590013D01*
X56680454Y-114590013D01*
X56680455Y-114590014D01*
X56764944Y-114625010D01*
X56811470Y-114664746D01*
X56825754Y-114724241D01*
X56802340Y-114780769D01*
X56750171Y-114812738D01*
X56727059Y-114815474D01*
X52931000Y-114815482D01*
X52872809Y-114796575D01*
X52836845Y-114747075D01*
X52832000Y-114716482D01*
X52832000Y-109131306D01*
X56503500Y-109131306D01*
X56503500Y-109308693D01*
X56523076Y-109407104D01*
X56535944Y-109471799D01*
X56538106Y-109482665D01*
X56538106Y-109482667D01*
X56605985Y-109646544D01*
X56605985Y-109646545D01*
X56704535Y-109794034D01*
X56704536Y-109794035D01*
X56829965Y-109919464D01*
X56977453Y-110018013D01*
X57141334Y-110085894D01*
X57315309Y-110120500D01*
X57315310Y-110120500D01*
X57492690Y-110120500D01*
X57492691Y-110120500D01*
X57666666Y-110085894D01*
X57830547Y-110018013D01*
X57978035Y-109919464D01*
X58103464Y-109794035D01*
X58202013Y-109646547D01*
X58269894Y-109482666D01*
X58304500Y-109308691D01*
X58304500Y-109131309D01*
X58269894Y-108957334D01*
X58202014Y-108793455D01*
X58202014Y-108793454D01*
X58103464Y-108645965D01*
X57978034Y-108520535D01*
X57830544Y-108421985D01*
X57666666Y-108354106D01*
X57492693Y-108319500D01*
X57492691Y-108319500D01*
X57315309Y-108319500D01*
X57315306Y-108319500D01*
X57141334Y-108354106D01*
X57141332Y-108354106D01*
X56977455Y-108421985D01*
X56977454Y-108421985D01*
X56829965Y-108520535D01*
X56704535Y-108645965D01*
X56605985Y-108793454D01*
X56605985Y-108793455D01*
X56538106Y-108957332D01*
X56538106Y-108957334D01*
X56503500Y-109131306D01*
X52832000Y-109131306D01*
X52832000Y-106854963D01*
X52850907Y-106796772D01*
X52900407Y-106760808D01*
X52915943Y-106757561D01*
X52915921Y-106757449D01*
X52939473Y-106752763D01*
X53094666Y-106721894D01*
X53258547Y-106654013D01*
X53406035Y-106555464D01*
X53531464Y-106430035D01*
X53630013Y-106282547D01*
X53697894Y-106118666D01*
X53732500Y-105944691D01*
X53732500Y-105767309D01*
X53697894Y-105593334D01*
X53630014Y-105429455D01*
X53630014Y-105429454D01*
X53531464Y-105281965D01*
X53461496Y-105211997D01*
X53433719Y-105157480D01*
X53432500Y-105141993D01*
X53432500Y-103543306D01*
X58027500Y-103543306D01*
X58027500Y-103720693D01*
X58062106Y-103894665D01*
X58062106Y-103894667D01*
X58129985Y-104058544D01*
X58129985Y-104058545D01*
X58228535Y-104206034D01*
X58228536Y-104206035D01*
X58353965Y-104331464D01*
X58501453Y-104430013D01*
X58665334Y-104497894D01*
X58839309Y-104532500D01*
X58839310Y-104532500D01*
X59016690Y-104532500D01*
X59016691Y-104532500D01*
X59190666Y-104497894D01*
X59354547Y-104430013D01*
X59502035Y-104331464D01*
X59627464Y-104206035D01*
X59726013Y-104058547D01*
X59793894Y-103894666D01*
X59828500Y-103720691D01*
X59828500Y-103543309D01*
X59793894Y-103369334D01*
X59726014Y-103205455D01*
X59726014Y-103205454D01*
X59627464Y-103057965D01*
X59502034Y-102932535D01*
X59354544Y-102833985D01*
X59190666Y-102766106D01*
X59016693Y-102731500D01*
X59016691Y-102731500D01*
X58839309Y-102731500D01*
X58839306Y-102731500D01*
X58665334Y-102766106D01*
X58665332Y-102766106D01*
X58501455Y-102833985D01*
X58501454Y-102833985D01*
X58353965Y-102932535D01*
X58228535Y-103057965D01*
X58129985Y-103205454D01*
X58129985Y-103205455D01*
X58062106Y-103369332D01*
X58062106Y-103369334D01*
X58027500Y-103543306D01*
X53432500Y-103543306D01*
X53432500Y-102314007D01*
X53451407Y-102255816D01*
X53461496Y-102244003D01*
X53531464Y-102174035D01*
X53630013Y-102026547D01*
X53697894Y-101862666D01*
X53732500Y-101688691D01*
X53732500Y-101511309D01*
X53697894Y-101337334D01*
X53630014Y-101173455D01*
X53630014Y-101173454D01*
X53531462Y-101025962D01*
X53406034Y-100900535D01*
X53353401Y-100865366D01*
X53315522Y-100817315D01*
X53313120Y-100756177D01*
X53313793Y-100753900D01*
X53317024Y-100743452D01*
X53317385Y-100740934D01*
X53337500Y-100601041D01*
X53337500Y-87287306D01*
X58535500Y-87287306D01*
X58535500Y-87464693D01*
X58570106Y-87638665D01*
X58570106Y-87638667D01*
X58637985Y-87802544D01*
X58637985Y-87802545D01*
X58736535Y-87950034D01*
X58736536Y-87950035D01*
X58861965Y-88075464D01*
X59009453Y-88174013D01*
X59173334Y-88241894D01*
X59347309Y-88276500D01*
X59347310Y-88276500D01*
X59524690Y-88276500D01*
X59524691Y-88276500D01*
X59698666Y-88241894D01*
X59862547Y-88174013D01*
X60010035Y-88075464D01*
X60135464Y-87950035D01*
X60234013Y-87802547D01*
X60301894Y-87638666D01*
X60336500Y-87464691D01*
X60336500Y-87287309D01*
X60301894Y-87113334D01*
X60234014Y-86949455D01*
X60234014Y-86949454D01*
X60135464Y-86801965D01*
X60010034Y-86676535D01*
X59862544Y-86577985D01*
X59698666Y-86510106D01*
X59524693Y-86475500D01*
X59524691Y-86475500D01*
X59347309Y-86475500D01*
X59347306Y-86475500D01*
X59173334Y-86510106D01*
X59173332Y-86510106D01*
X59009455Y-86577985D01*
X59009454Y-86577985D01*
X58861965Y-86676535D01*
X58736535Y-86801965D01*
X58637985Y-86949454D01*
X58637985Y-86949455D01*
X58570106Y-87113332D01*
X58570106Y-87113334D01*
X58535500Y-87287306D01*
X53337500Y-87287306D01*
X53337500Y-74587306D01*
X57011500Y-74587306D01*
X57011500Y-74764693D01*
X57046106Y-74938665D01*
X57046106Y-74938667D01*
X57113985Y-75102544D01*
X57113985Y-75102545D01*
X57212535Y-75250034D01*
X57212536Y-75250035D01*
X57337965Y-75375464D01*
X57485453Y-75474013D01*
X57649334Y-75541894D01*
X57823309Y-75576500D01*
X57823310Y-75576500D01*
X58000690Y-75576500D01*
X58000691Y-75576500D01*
X58174666Y-75541894D01*
X58338547Y-75474013D01*
X58486035Y-75375464D01*
X58611464Y-75250035D01*
X58710013Y-75102547D01*
X58777894Y-74938666D01*
X58812500Y-74764691D01*
X58812500Y-74587309D01*
X58777894Y-74413334D01*
X58710014Y-74249455D01*
X58710014Y-74249454D01*
X58611464Y-74101965D01*
X58486034Y-73976535D01*
X58338544Y-73877985D01*
X58174666Y-73810106D01*
X58000693Y-73775500D01*
X58000691Y-73775500D01*
X57823309Y-73775500D01*
X57823306Y-73775500D01*
X57649334Y-73810106D01*
X57649332Y-73810106D01*
X57485455Y-73877985D01*
X57485454Y-73877985D01*
X57337965Y-73976535D01*
X57212535Y-74101965D01*
X57113985Y-74249454D01*
X57113985Y-74249455D01*
X57046106Y-74413332D01*
X57046106Y-74413334D01*
X57011500Y-74587306D01*
X53337500Y-74587306D01*
X53337500Y-65935402D01*
X53356407Y-65877211D01*
X53405907Y-65841247D01*
X53467093Y-65841247D01*
X53474386Y-65843938D01*
X53585334Y-65889894D01*
X53759309Y-65924500D01*
X53759310Y-65924500D01*
X53936690Y-65924500D01*
X53936691Y-65924500D01*
X54110666Y-65889894D01*
X54274547Y-65822013D01*
X54422035Y-65723464D01*
X54547464Y-65598035D01*
X54646013Y-65450547D01*
X54713894Y-65286666D01*
X54748500Y-65112691D01*
X54748500Y-64935309D01*
X54713894Y-64761334D01*
X54646014Y-64597455D01*
X54646014Y-64597454D01*
X54547464Y-64449965D01*
X54422034Y-64324535D01*
X54274544Y-64225985D01*
X54110666Y-64158106D01*
X53936693Y-64123500D01*
X53936691Y-64123500D01*
X53759309Y-64123500D01*
X53759306Y-64123500D01*
X53585337Y-64158105D01*
X53585335Y-64158105D01*
X53585334Y-64158106D01*
X53539983Y-64176891D01*
X53474385Y-64204062D01*
X53413388Y-64208861D01*
X53361219Y-64176891D01*
X53337805Y-64120363D01*
X53337500Y-64112597D01*
X53337500Y-61887306D01*
X54979500Y-61887306D01*
X54979500Y-62064693D01*
X55014106Y-62238665D01*
X55014106Y-62238667D01*
X55081985Y-62402544D01*
X55081985Y-62402545D01*
X55180535Y-62550034D01*
X55180536Y-62550035D01*
X55305965Y-62675464D01*
X55453453Y-62774013D01*
X55617334Y-62841894D01*
X55791309Y-62876500D01*
X55791310Y-62876500D01*
X55968690Y-62876500D01*
X55968691Y-62876500D01*
X56142666Y-62841894D01*
X56306547Y-62774013D01*
X56454035Y-62675464D01*
X56579464Y-62550035D01*
X56678013Y-62402547D01*
X56745894Y-62238666D01*
X56780500Y-62064691D01*
X56780500Y-61887309D01*
X56780499Y-61887306D01*
X57011500Y-61887306D01*
X57011500Y-62064693D01*
X57046106Y-62238665D01*
X57046106Y-62238667D01*
X57113985Y-62402544D01*
X57113985Y-62402545D01*
X57212535Y-62550034D01*
X57212536Y-62550035D01*
X57337965Y-62675464D01*
X57485453Y-62774013D01*
X57649334Y-62841894D01*
X57823309Y-62876500D01*
X57823310Y-62876500D01*
X58000690Y-62876500D01*
X58000691Y-62876500D01*
X58174666Y-62841894D01*
X58338547Y-62774013D01*
X58486035Y-62675464D01*
X58611464Y-62550035D01*
X58710013Y-62402547D01*
X58777894Y-62238666D01*
X58812500Y-62064691D01*
X58812500Y-61887309D01*
X58812499Y-61887306D01*
X59043500Y-61887306D01*
X59043500Y-62064693D01*
X59078106Y-62238665D01*
X59078106Y-62238667D01*
X59145985Y-62402544D01*
X59145985Y-62402545D01*
X59244535Y-62550034D01*
X59244536Y-62550035D01*
X59369965Y-62675464D01*
X59517453Y-62774013D01*
X59681334Y-62841894D01*
X59855309Y-62876500D01*
X59855310Y-62876500D01*
X60032690Y-62876500D01*
X60032691Y-62876500D01*
X60206666Y-62841894D01*
X60370547Y-62774013D01*
X60518035Y-62675464D01*
X60643464Y-62550035D01*
X60742013Y-62402547D01*
X60809894Y-62238666D01*
X60844500Y-62064691D01*
X60844500Y-61887309D01*
X60809894Y-61713334D01*
X60742014Y-61549455D01*
X60742014Y-61549454D01*
X60643464Y-61401965D01*
X60518034Y-61276535D01*
X60370544Y-61177985D01*
X60206666Y-61110106D01*
X60032693Y-61075500D01*
X60032691Y-61075500D01*
X59855309Y-61075500D01*
X59855306Y-61075500D01*
X59681334Y-61110106D01*
X59681332Y-61110106D01*
X59517455Y-61177985D01*
X59517454Y-61177985D01*
X59369965Y-61276535D01*
X59244535Y-61401965D01*
X59145985Y-61549454D01*
X59145985Y-61549455D01*
X59078106Y-61713332D01*
X59078106Y-61713334D01*
X59043500Y-61887306D01*
X58812499Y-61887306D01*
X58777894Y-61713334D01*
X58710014Y-61549455D01*
X58710014Y-61549454D01*
X58611464Y-61401965D01*
X58486034Y-61276535D01*
X58338544Y-61177985D01*
X58174666Y-61110106D01*
X58000693Y-61075500D01*
X58000691Y-61075500D01*
X57823309Y-61075500D01*
X57823306Y-61075500D01*
X57649334Y-61110106D01*
X57649332Y-61110106D01*
X57485455Y-61177985D01*
X57485454Y-61177985D01*
X57337965Y-61276535D01*
X57212535Y-61401965D01*
X57113985Y-61549454D01*
X57113985Y-61549455D01*
X57046106Y-61713332D01*
X57046106Y-61713334D01*
X57011500Y-61887306D01*
X56780499Y-61887306D01*
X56745894Y-61713334D01*
X56678014Y-61549455D01*
X56678014Y-61549454D01*
X56579464Y-61401965D01*
X56454034Y-61276535D01*
X56306544Y-61177985D01*
X56142666Y-61110106D01*
X55968693Y-61075500D01*
X55968691Y-61075500D01*
X55791309Y-61075500D01*
X55791306Y-61075500D01*
X55617334Y-61110106D01*
X55617332Y-61110106D01*
X55453455Y-61177985D01*
X55453454Y-61177985D01*
X55305965Y-61276535D01*
X55180535Y-61401965D01*
X55081985Y-61549454D01*
X55081985Y-61549455D01*
X55014106Y-61713332D01*
X55014106Y-61713334D01*
X54979500Y-61887306D01*
X53337500Y-61887306D01*
X53337500Y-47139402D01*
X53356407Y-47081211D01*
X53405907Y-47045247D01*
X53467093Y-47045247D01*
X53474386Y-47047938D01*
X53585334Y-47093894D01*
X53759309Y-47128500D01*
X53759310Y-47128500D01*
X53936690Y-47128500D01*
X53936691Y-47128500D01*
X54110666Y-47093894D01*
X54274547Y-47026013D01*
X54422035Y-46927464D01*
X54547464Y-46802035D01*
X54646013Y-46654547D01*
X54713894Y-46490666D01*
X54748500Y-46316691D01*
X54748500Y-46139309D01*
X54713894Y-45965334D01*
X54646014Y-45801455D01*
X54646014Y-45801454D01*
X54547464Y-45653965D01*
X54422034Y-45528535D01*
X54274544Y-45429985D01*
X54110666Y-45362106D01*
X53936693Y-45327500D01*
X53936691Y-45327500D01*
X53759309Y-45327500D01*
X53759306Y-45327500D01*
X53585337Y-45362105D01*
X53585335Y-45362105D01*
X53585334Y-45362106D01*
X53539983Y-45380891D01*
X53474385Y-45408062D01*
X53413388Y-45412861D01*
X53361219Y-45380891D01*
X53337805Y-45324363D01*
X53337500Y-45316597D01*
X53337500Y-35980499D01*
X53356407Y-35922308D01*
X53405907Y-35886344D01*
X53436500Y-35881499D01*
X55835446Y-35881499D01*
X55835452Y-35881499D01*
X55966056Y-35871221D01*
X56181709Y-35816882D01*
X56384194Y-35724909D01*
X56567002Y-35598259D01*
X56724259Y-35441002D01*
X56850909Y-35258194D01*
X56942882Y-35055709D01*
X56997221Y-34840056D01*
X57007500Y-34709453D01*
X57007499Y-33613533D01*
X57026406Y-33555345D01*
X57075906Y-33519381D01*
X57137092Y-33519381D01*
X57186592Y-33555345D01*
X57188814Y-33558533D01*
X57212536Y-33594035D01*
X57337965Y-33719464D01*
X57485453Y-33818013D01*
X57649334Y-33885894D01*
X57823309Y-33920500D01*
X57823310Y-33920500D01*
X58000690Y-33920500D01*
X58000691Y-33920500D01*
X58174666Y-33885894D01*
X58338547Y-33818013D01*
X58486035Y-33719464D01*
X58611464Y-33594035D01*
X58710013Y-33446547D01*
X58777894Y-33282666D01*
X58812500Y-33108691D01*
X58812500Y-32931309D01*
X58777894Y-32757334D01*
X58710014Y-32593455D01*
X58710014Y-32593454D01*
X58611464Y-32445965D01*
X58486034Y-32320535D01*
X58338544Y-32221985D01*
X58174666Y-32154106D01*
X58000693Y-32119500D01*
X58000691Y-32119500D01*
X57823309Y-32119500D01*
X57823306Y-32119500D01*
X57649334Y-32154106D01*
X57649332Y-32154106D01*
X57485455Y-32221985D01*
X57485454Y-32221985D01*
X57337965Y-32320535D01*
X57212537Y-32445963D01*
X57188814Y-32481467D01*
X57140763Y-32519345D01*
X57079625Y-32521747D01*
X57028752Y-32487753D01*
X57007575Y-32430349D01*
X57007499Y-32426496D01*
X57007499Y-31073533D01*
X57026406Y-31015344D01*
X57075906Y-30979380D01*
X57137092Y-30979380D01*
X57186592Y-31015344D01*
X57188814Y-31018533D01*
X57212536Y-31054035D01*
X57337965Y-31179464D01*
X57485453Y-31278013D01*
X57649334Y-31345894D01*
X57823309Y-31380500D01*
X57823310Y-31380500D01*
X58000690Y-31380500D01*
X58000691Y-31380500D01*
X58174666Y-31345894D01*
X58338547Y-31278013D01*
X58486035Y-31179464D01*
X58611464Y-31054035D01*
X58710013Y-30906547D01*
X58777894Y-30742666D01*
X58812500Y-30568691D01*
X58812500Y-30391309D01*
X58795342Y-30305050D01*
X58802534Y-30244290D01*
X58842632Y-30200911D01*
X58842502Y-30200716D01*
X58843314Y-30200173D01*
X58844066Y-30199360D01*
X58845782Y-30198421D01*
X58846536Y-30198017D01*
X58846547Y-30198013D01*
X58994035Y-30099464D01*
X59119464Y-29974035D01*
X59218013Y-29826547D01*
X59285894Y-29662666D01*
X59320500Y-29488691D01*
X59320500Y-29311309D01*
X59285894Y-29137334D01*
X59218014Y-28973455D01*
X59218014Y-28973454D01*
X59119464Y-28825965D01*
X58994034Y-28700535D01*
X58846544Y-28601985D01*
X58682666Y-28534106D01*
X58508693Y-28499500D01*
X58508691Y-28499500D01*
X58331309Y-28499500D01*
X58331306Y-28499500D01*
X58157334Y-28534106D01*
X58157332Y-28534106D01*
X57993455Y-28601985D01*
X57993454Y-28601985D01*
X57845965Y-28700535D01*
X57720535Y-28825965D01*
X57621985Y-28973454D01*
X57621985Y-28973455D01*
X57554106Y-29137332D01*
X57554106Y-29137334D01*
X57519500Y-29311306D01*
X57519500Y-29488693D01*
X57536657Y-29574948D01*
X57529465Y-29635710D01*
X57489365Y-29679088D01*
X57489497Y-29679285D01*
X57488677Y-29679832D01*
X57487932Y-29680639D01*
X57486244Y-29681563D01*
X57485461Y-29681981D01*
X57337965Y-29780535D01*
X57212537Y-29905963D01*
X57188814Y-29941467D01*
X57140763Y-29979345D01*
X57079625Y-29981747D01*
X57028752Y-29947753D01*
X57007575Y-29890349D01*
X57007499Y-29886464D01*
X57007499Y-28282554D01*
X57007499Y-28282548D01*
X56997221Y-28151944D01*
X56942882Y-27936291D01*
X56903437Y-27849449D01*
X56896586Y-27788648D01*
X56926782Y-27735433D01*
X56982490Y-27710129D01*
X57012889Y-27711410D01*
X57048524Y-27718498D01*
X57048529Y-27718498D01*
X57048535Y-27718500D01*
X57048536Y-27718500D01*
X57255464Y-27718500D01*
X57255465Y-27718500D01*
X57458420Y-27678130D01*
X57649598Y-27598941D01*
X57821655Y-27483977D01*
X57967977Y-27337655D01*
X58082941Y-27165598D01*
X58162130Y-26974420D01*
X58202500Y-26771465D01*
X58202500Y-25964535D01*
X58162130Y-25761580D01*
X58082941Y-25570402D01*
X57967977Y-25398345D01*
X57821655Y-25252023D01*
X57802473Y-25239206D01*
X57649597Y-25137058D01*
X57458418Y-25057869D01*
X57255467Y-25017500D01*
X57255465Y-25017500D01*
X57048535Y-25017500D01*
X57048532Y-25017500D01*
X56845581Y-25057869D01*
X56654402Y-25137058D01*
X56482348Y-25252020D01*
X56336020Y-25398348D01*
X56221058Y-25570402D01*
X56141869Y-25761581D01*
X56101500Y-25964532D01*
X56101500Y-26771467D01*
X56141869Y-26974418D01*
X56141870Y-26974420D01*
X56154650Y-27005273D01*
X56159451Y-27066269D01*
X56127482Y-27118438D01*
X56070954Y-27141853D01*
X56038997Y-27139157D01*
X55966064Y-27120780D01*
X55966056Y-27120778D01*
X55877340Y-27113796D01*
X55835453Y-27110500D01*
X55835447Y-27110500D01*
X53436500Y-27110500D01*
X53378309Y-27091593D01*
X53342345Y-27042093D01*
X53337500Y-27011500D01*
X53337500Y-25382951D01*
X53334548Y-25328425D01*
X53334547Y-25328424D01*
X53334547Y-25328407D01*
X53332241Y-25307165D01*
X53320123Y-25239206D01*
X53320120Y-25239199D01*
X53320121Y-25239199D01*
X53319130Y-25236772D01*
X53319032Y-25235440D01*
X53318666Y-25234177D01*
X53318933Y-25234099D01*
X53314641Y-25175752D01*
X53346876Y-25123747D01*
X53355770Y-25117049D01*
X53406035Y-25083464D01*
X53531464Y-24958035D01*
X53630013Y-24810547D01*
X53697894Y-24646666D01*
X53732500Y-24472691D01*
X53732500Y-24295309D01*
X53697894Y-24121334D01*
X53630014Y-23957455D01*
X53630014Y-23957454D01*
X53531462Y-23809962D01*
X53406034Y-23684535D01*
X53353401Y-23649366D01*
X53315522Y-23601315D01*
X53313120Y-23540177D01*
X53313793Y-23537900D01*
X53317024Y-23527452D01*
X53317385Y-23524934D01*
X53337500Y-23385041D01*
X53337500Y-22164532D01*
X56101500Y-22164532D01*
X56101500Y-22971467D01*
X56141869Y-23174418D01*
X56221058Y-23365597D01*
X56336020Y-23537651D01*
X56336023Y-23537655D01*
X56482345Y-23683977D01*
X56654402Y-23798941D01*
X56845580Y-23878130D01*
X57048535Y-23918500D01*
X57048536Y-23918500D01*
X57255464Y-23918500D01*
X57255465Y-23918500D01*
X57458420Y-23878130D01*
X57649598Y-23798941D01*
X57821655Y-23683977D01*
X57967977Y-23537655D01*
X58082941Y-23365598D01*
X58162130Y-23174420D01*
X58202500Y-22971465D01*
X58202500Y-22164535D01*
X58162130Y-21961580D01*
X58082941Y-21770402D01*
X57967977Y-21598345D01*
X57821655Y-21452023D01*
X57821651Y-21452020D01*
X57649597Y-21337058D01*
X57458418Y-21257869D01*
X57255467Y-21217500D01*
X57255465Y-21217500D01*
X57048535Y-21217500D01*
X57048532Y-21217500D01*
X56845581Y-21257869D01*
X56654402Y-21337058D01*
X56482348Y-21452020D01*
X56336020Y-21598348D01*
X56221058Y-21770402D01*
X56141869Y-21961581D01*
X56101500Y-22164532D01*
X53337500Y-22164532D01*
X53337500Y-20928484D01*
X53356407Y-20870293D01*
X53405907Y-20834329D01*
X53436605Y-20829484D01*
X60816519Y-20837546D01*
G37*
%TD.AperFunction*%
%TD*%
%TA.AperFunction,Conductor*%
%TO.N,+BATT*%
G36*
X45200358Y-20820487D02*
G01*
X45255098Y-20822976D01*
X45266090Y-20820559D01*
X52733112Y-20828716D01*
X52791278Y-20847686D01*
X52827188Y-20897225D01*
X52832000Y-20927715D01*
X52832000Y-23385036D01*
X52813093Y-23443227D01*
X52763593Y-23479191D01*
X52748056Y-23482439D01*
X52748079Y-23482551D01*
X52569334Y-23518106D01*
X52569332Y-23518106D01*
X52405455Y-23585985D01*
X52405454Y-23585985D01*
X52257965Y-23684535D01*
X52132535Y-23809965D01*
X52033985Y-23957454D01*
X52033985Y-23957455D01*
X51966106Y-24121332D01*
X51966106Y-24121334D01*
X51931500Y-24295306D01*
X51931500Y-24472693D01*
X51966106Y-24646665D01*
X51966106Y-24646667D01*
X52033985Y-24810544D01*
X52033985Y-24810545D01*
X52132535Y-24958034D01*
X52132536Y-24958035D01*
X52257965Y-25083464D01*
X52405453Y-25182013D01*
X52569334Y-25249894D01*
X52714994Y-25278867D01*
X52748079Y-25285449D01*
X52747832Y-25286689D01*
X52798742Y-25308943D01*
X52829694Y-25361721D01*
X52832000Y-25382963D01*
X52832000Y-64626014D01*
X52813093Y-64684205D01*
X52763593Y-64720169D01*
X52702407Y-64720169D01*
X52652907Y-64684205D01*
X52641536Y-64663899D01*
X52614014Y-64597455D01*
X52614014Y-64597454D01*
X52515464Y-64449965D01*
X52390034Y-64324535D01*
X52242544Y-64225985D01*
X52078666Y-64158106D01*
X51904693Y-64123500D01*
X51904691Y-64123500D01*
X51727309Y-64123500D01*
X51727306Y-64123500D01*
X51553334Y-64158106D01*
X51553332Y-64158106D01*
X51389455Y-64225985D01*
X51389454Y-64225985D01*
X51241965Y-64324535D01*
X51116535Y-64449965D01*
X51017985Y-64597454D01*
X51017985Y-64597455D01*
X50950106Y-64761332D01*
X50950106Y-64761334D01*
X50915500Y-64935306D01*
X50915500Y-65112693D01*
X50950106Y-65286665D01*
X50950106Y-65286667D01*
X51017985Y-65450544D01*
X51017985Y-65450545D01*
X51116535Y-65598034D01*
X51116536Y-65598035D01*
X51241965Y-65723464D01*
X51389453Y-65822013D01*
X51553334Y-65889894D01*
X51727309Y-65924500D01*
X51727310Y-65924500D01*
X51904690Y-65924500D01*
X51904691Y-65924500D01*
X52078666Y-65889894D01*
X52242547Y-65822013D01*
X52390035Y-65723464D01*
X52515464Y-65598035D01*
X52614013Y-65450547D01*
X52641536Y-65384100D01*
X52681272Y-65337574D01*
X52740767Y-65323290D01*
X52797295Y-65346704D01*
X52829264Y-65398873D01*
X52832000Y-65421985D01*
X52832000Y-100601036D01*
X52813093Y-100659227D01*
X52763593Y-100695191D01*
X52748056Y-100698439D01*
X52748079Y-100698551D01*
X52569334Y-100734106D01*
X52569332Y-100734106D01*
X52405455Y-100801985D01*
X52405454Y-100801985D01*
X52257965Y-100900535D01*
X52132535Y-101025965D01*
X52033985Y-101173454D01*
X52033985Y-101173455D01*
X51966106Y-101337332D01*
X51966106Y-101337334D01*
X51931500Y-101511306D01*
X51931500Y-101688693D01*
X51966106Y-101862665D01*
X51966106Y-101862667D01*
X52033985Y-102026544D01*
X52033985Y-102026545D01*
X52132535Y-102174034D01*
X52202504Y-102244003D01*
X52230281Y-102298520D01*
X52231500Y-102314007D01*
X52231500Y-105141993D01*
X52212593Y-105200184D01*
X52202504Y-105211997D01*
X52132535Y-105281965D01*
X52033985Y-105429454D01*
X52033985Y-105429455D01*
X51966106Y-105593332D01*
X51966106Y-105593334D01*
X51931500Y-105767306D01*
X51931500Y-105944693D01*
X51966106Y-106118665D01*
X51966106Y-106118667D01*
X52008748Y-106221615D01*
X52013548Y-106282612D01*
X51981579Y-106334781D01*
X51925051Y-106358195D01*
X51917284Y-106358500D01*
X49828554Y-106358500D01*
X49697939Y-106368779D01*
X49482296Y-106423116D01*
X49482287Y-106423119D01*
X49279814Y-106515086D01*
X49279804Y-106515092D01*
X49097001Y-106641738D01*
X48939738Y-106799001D01*
X48813092Y-106981804D01*
X48813086Y-106981814D01*
X48721119Y-107184287D01*
X48721116Y-107184296D01*
X48666780Y-107399936D01*
X48666778Y-107399943D01*
X48656500Y-107530552D01*
X48656500Y-113957445D01*
X48666779Y-114088060D01*
X48721116Y-114303703D01*
X48721119Y-114303712D01*
X48813086Y-114506185D01*
X48813092Y-114506195D01*
X48919726Y-114660113D01*
X48937323Y-114718714D01*
X48917115Y-114776465D01*
X48866820Y-114811309D01*
X48838348Y-114815492D01*
X45595174Y-114815498D01*
X45589639Y-114815343D01*
X45280287Y-114798021D01*
X45269285Y-114796785D01*
X44965942Y-114745393D01*
X44955148Y-114742936D01*
X44659453Y-114658001D01*
X44649000Y-114654355D01*
X44423909Y-114561413D01*
X44364621Y-114536932D01*
X44354648Y-114532145D01*
X44273763Y-114487592D01*
X44085161Y-114383705D01*
X44075778Y-114377830D01*
X43824550Y-114200232D01*
X43815882Y-114193346D01*
X43586059Y-113988814D01*
X43578221Y-113981012D01*
X43372654Y-113752080D01*
X43365737Y-113743451D01*
X43187023Y-113493009D01*
X43181107Y-113483652D01*
X43158734Y-113443458D01*
X43031476Y-113214831D01*
X43026643Y-113204876D01*
X42907957Y-112921018D01*
X42904272Y-112910603D01*
X42818019Y-112615265D01*
X42815518Y-112604499D01*
X42762778Y-112301371D01*
X42761495Y-112290393D01*
X42742814Y-111981380D01*
X42742635Y-111975391D01*
X42744107Y-109131306D01*
X46343500Y-109131306D01*
X46343500Y-109308693D01*
X46378106Y-109482665D01*
X46378106Y-109482667D01*
X46445985Y-109646544D01*
X46445985Y-109646545D01*
X46544535Y-109794034D01*
X46544536Y-109794035D01*
X46669965Y-109919464D01*
X46817453Y-110018013D01*
X46981334Y-110085894D01*
X47155309Y-110120500D01*
X47155310Y-110120500D01*
X47332690Y-110120500D01*
X47332691Y-110120500D01*
X47506666Y-110085894D01*
X47670547Y-110018013D01*
X47818035Y-109919464D01*
X47943464Y-109794035D01*
X48042013Y-109646547D01*
X48109894Y-109482666D01*
X48144500Y-109308691D01*
X48144500Y-109131309D01*
X48109894Y-108957334D01*
X48042014Y-108793455D01*
X48042014Y-108793454D01*
X47943464Y-108645965D01*
X47818034Y-108520535D01*
X47670544Y-108421985D01*
X47506666Y-108354106D01*
X47332693Y-108319500D01*
X47332691Y-108319500D01*
X47155309Y-108319500D01*
X47155306Y-108319500D01*
X46981334Y-108354106D01*
X46981332Y-108354106D01*
X46817455Y-108421985D01*
X46817454Y-108421985D01*
X46669965Y-108520535D01*
X46544535Y-108645965D01*
X46445985Y-108793454D01*
X46445985Y-108793455D01*
X46378106Y-108957332D01*
X46378106Y-108957334D01*
X46343500Y-109131306D01*
X42744107Y-109131306D01*
X42745615Y-106216806D01*
X46477000Y-106216806D01*
X46477000Y-106394193D01*
X46511606Y-106568165D01*
X46511606Y-106568167D01*
X46579485Y-106732044D01*
X46579485Y-106732045D01*
X46678035Y-106879534D01*
X46678036Y-106879535D01*
X46803465Y-107004964D01*
X46950953Y-107103513D01*
X47114834Y-107171394D01*
X47288809Y-107206000D01*
X47288810Y-107206000D01*
X47466190Y-107206000D01*
X47466191Y-107206000D01*
X47640166Y-107171394D01*
X47804047Y-107103513D01*
X47951535Y-107004964D01*
X48076964Y-106879535D01*
X48175513Y-106732047D01*
X48243394Y-106568166D01*
X48278000Y-106394191D01*
X48278000Y-106216809D01*
X48243394Y-106042834D01*
X48175514Y-105878955D01*
X48175514Y-105878954D01*
X48076964Y-105731465D01*
X47951534Y-105606035D01*
X47804044Y-105507485D01*
X47640166Y-105439606D01*
X47466193Y-105405000D01*
X47466191Y-105405000D01*
X47288809Y-105405000D01*
X47288806Y-105405000D01*
X47114834Y-105439606D01*
X47114832Y-105439606D01*
X46950955Y-105507485D01*
X46950954Y-105507485D01*
X46803465Y-105606035D01*
X46678035Y-105731465D01*
X46579485Y-105878954D01*
X46579485Y-105878955D01*
X46511606Y-106042832D01*
X46511606Y-106042834D01*
X46477000Y-106216806D01*
X42745615Y-106216806D01*
X42750547Y-96685306D01*
X50661500Y-96685306D01*
X50661500Y-96862693D01*
X50696106Y-97036665D01*
X50696106Y-97036667D01*
X50763985Y-97200544D01*
X50763985Y-97200545D01*
X50862535Y-97348034D01*
X50862536Y-97348035D01*
X50987965Y-97473464D01*
X51135453Y-97572013D01*
X51299334Y-97639894D01*
X51473309Y-97674500D01*
X51473310Y-97674500D01*
X51650690Y-97674500D01*
X51650691Y-97674500D01*
X51824666Y-97639894D01*
X51988547Y-97572013D01*
X52136035Y-97473464D01*
X52261464Y-97348035D01*
X52360013Y-97200547D01*
X52427894Y-97036666D01*
X52462500Y-96862691D01*
X52462500Y-96685309D01*
X52427894Y-96511334D01*
X52360014Y-96347455D01*
X52360014Y-96347454D01*
X52261464Y-96199965D01*
X52136034Y-96074535D01*
X51988544Y-95975985D01*
X51824666Y-95908106D01*
X51650693Y-95873500D01*
X51650691Y-95873500D01*
X51473309Y-95873500D01*
X51473306Y-95873500D01*
X51299334Y-95908106D01*
X51299332Y-95908106D01*
X51135455Y-95975985D01*
X51135454Y-95975985D01*
X50987965Y-96074535D01*
X50862535Y-96199965D01*
X50763985Y-96347454D01*
X50763985Y-96347455D01*
X50696106Y-96511332D01*
X50696106Y-96511334D01*
X50661500Y-96685306D01*
X42750547Y-96685306D01*
X42756345Y-85478645D01*
X43695500Y-85478645D01*
X43695500Y-85717354D01*
X43732840Y-85953110D01*
X43732842Y-85953115D01*
X43806605Y-86180134D01*
X43914973Y-86392819D01*
X44055279Y-86585933D01*
X44224067Y-86754721D01*
X44417181Y-86895027D01*
X44629866Y-87003395D01*
X44856885Y-87077158D01*
X44856886Y-87077158D01*
X44856889Y-87077159D01*
X45092646Y-87114500D01*
X45092649Y-87114500D01*
X45331354Y-87114500D01*
X45567110Y-87077159D01*
X45567111Y-87077158D01*
X45567115Y-87077158D01*
X45794134Y-87003395D01*
X46006819Y-86895027D01*
X46199933Y-86754721D01*
X46368721Y-86585933D01*
X46509027Y-86392819D01*
X46617395Y-86180134D01*
X46691158Y-85953115D01*
X46697699Y-85911817D01*
X46728500Y-85717354D01*
X46728500Y-85478645D01*
X46691159Y-85242889D01*
X46673658Y-85189026D01*
X46617395Y-85015866D01*
X46539214Y-84862428D01*
X46529644Y-84801997D01*
X46557421Y-84747480D01*
X46611938Y-84719703D01*
X46642437Y-84720303D01*
X46642465Y-84720023D01*
X46646039Y-84720374D01*
X46646750Y-84720388D01*
X46647309Y-84720500D01*
X46647311Y-84720500D01*
X46824690Y-84720500D01*
X46824691Y-84720500D01*
X46998666Y-84685894D01*
X47162547Y-84618013D01*
X47310035Y-84519464D01*
X47435464Y-84394035D01*
X47534013Y-84246547D01*
X47601894Y-84082666D01*
X47636500Y-83908691D01*
X47636500Y-83731309D01*
X47601894Y-83557334D01*
X47534014Y-83393455D01*
X47534014Y-83393454D01*
X47435464Y-83245965D01*
X47310034Y-83120535D01*
X47162544Y-83021985D01*
X46998666Y-82954106D01*
X46824693Y-82919500D01*
X46824691Y-82919500D01*
X46647309Y-82919500D01*
X46647306Y-82919500D01*
X46473334Y-82954106D01*
X46473332Y-82954106D01*
X46309455Y-83021985D01*
X46309454Y-83021985D01*
X46161965Y-83120535D01*
X46036535Y-83245965D01*
X45937985Y-83393454D01*
X45937985Y-83393455D01*
X45870106Y-83557332D01*
X45870106Y-83557334D01*
X45835500Y-83731306D01*
X45835500Y-83908694D01*
X45865781Y-84060926D01*
X45858589Y-84121687D01*
X45817056Y-84166617D01*
X45757047Y-84178554D01*
X45738090Y-84174395D01*
X45567110Y-84118840D01*
X45331354Y-84081500D01*
X45331351Y-84081500D01*
X45092649Y-84081500D01*
X45092646Y-84081500D01*
X44856889Y-84118840D01*
X44629865Y-84192605D01*
X44417183Y-84300971D01*
X44224068Y-84441278D01*
X44055278Y-84610068D01*
X43914971Y-84803183D01*
X43806605Y-85015865D01*
X43732840Y-85242889D01*
X43695500Y-85478645D01*
X42756345Y-85478645D01*
X42759089Y-80175306D01*
X47359500Y-80175306D01*
X47359500Y-80352693D01*
X47394106Y-80526665D01*
X47394106Y-80526667D01*
X47461985Y-80690544D01*
X47461985Y-80690545D01*
X47560535Y-80838034D01*
X47560536Y-80838035D01*
X47685965Y-80963464D01*
X47833453Y-81062013D01*
X47997334Y-81129894D01*
X48171309Y-81164500D01*
X48171310Y-81164500D01*
X48348690Y-81164500D01*
X48348691Y-81164500D01*
X48522666Y-81129894D01*
X48686547Y-81062013D01*
X48834035Y-80963464D01*
X48959464Y-80838035D01*
X49058013Y-80690547D01*
X49125894Y-80526666D01*
X49160500Y-80352691D01*
X49160500Y-80175309D01*
X49125894Y-80001334D01*
X49058014Y-79837455D01*
X49058014Y-79837454D01*
X48959464Y-79689965D01*
X48834034Y-79564535D01*
X48686544Y-79465985D01*
X48522666Y-79398106D01*
X48348693Y-79363500D01*
X48348691Y-79363500D01*
X48171309Y-79363500D01*
X48171306Y-79363500D01*
X47997334Y-79398106D01*
X47997332Y-79398106D01*
X47833455Y-79465985D01*
X47833454Y-79465985D01*
X47685965Y-79564535D01*
X47560535Y-79689965D01*
X47461985Y-79837454D01*
X47461985Y-79837455D01*
X47394106Y-80001332D01*
X47394106Y-80001334D01*
X47359500Y-80175306D01*
X42759089Y-80175306D01*
X42765019Y-68714645D01*
X43695500Y-68714645D01*
X43695500Y-68953354D01*
X43732840Y-69189110D01*
X43806605Y-69416134D01*
X43856747Y-69514545D01*
X43914973Y-69628819D01*
X44055279Y-69821933D01*
X44224067Y-69990721D01*
X44417181Y-70131027D01*
X44629866Y-70239395D01*
X44856885Y-70313158D01*
X44856886Y-70313158D01*
X44856889Y-70313159D01*
X45092646Y-70350500D01*
X45092649Y-70350500D01*
X45331354Y-70350500D01*
X45567110Y-70313159D01*
X45567111Y-70313158D01*
X45567115Y-70313158D01*
X45794134Y-70239395D01*
X46006819Y-70131027D01*
X46199933Y-69990721D01*
X46368721Y-69821933D01*
X46509027Y-69628819D01*
X46617395Y-69416134D01*
X46691158Y-69189115D01*
X46691159Y-69189110D01*
X46721222Y-68999306D01*
X47359500Y-68999306D01*
X47359500Y-69176693D01*
X47394106Y-69350665D01*
X47394106Y-69350667D01*
X47461985Y-69514544D01*
X47461985Y-69514545D01*
X47560535Y-69662034D01*
X47560536Y-69662035D01*
X47685965Y-69787464D01*
X47833453Y-69886013D01*
X47997334Y-69953894D01*
X48171309Y-69988500D01*
X48171310Y-69988500D01*
X48348690Y-69988500D01*
X48348691Y-69988500D01*
X48522666Y-69953894D01*
X48686547Y-69886013D01*
X48834035Y-69787464D01*
X48959464Y-69662035D01*
X49058013Y-69514547D01*
X49125894Y-69350666D01*
X49160500Y-69176691D01*
X49160500Y-68999309D01*
X49125894Y-68825334D01*
X49058014Y-68661455D01*
X49058014Y-68661454D01*
X48959464Y-68513965D01*
X48834034Y-68388535D01*
X48686544Y-68289985D01*
X48522666Y-68222106D01*
X48348693Y-68187500D01*
X48348691Y-68187500D01*
X48171309Y-68187500D01*
X48171306Y-68187500D01*
X47997334Y-68222106D01*
X47997332Y-68222106D01*
X47833455Y-68289985D01*
X47833454Y-68289985D01*
X47685965Y-68388535D01*
X47560535Y-68513965D01*
X47461985Y-68661454D01*
X47461985Y-68661455D01*
X47394106Y-68825332D01*
X47394106Y-68825334D01*
X47359500Y-68999306D01*
X46721222Y-68999306D01*
X46724445Y-68978958D01*
X46724445Y-68978957D01*
X46728500Y-68953355D01*
X46728500Y-68714645D01*
X46691159Y-68478889D01*
X46673658Y-68425026D01*
X46617395Y-68251866D01*
X46509027Y-68039181D01*
X46368721Y-67846067D01*
X46199933Y-67677279D01*
X46006819Y-67536973D01*
X46006818Y-67536972D01*
X46006816Y-67536971D01*
X45794134Y-67428605D01*
X45567110Y-67354840D01*
X45331354Y-67317500D01*
X45331351Y-67317500D01*
X45092649Y-67317500D01*
X45092646Y-67317500D01*
X44856889Y-67354840D01*
X44629865Y-67428605D01*
X44417183Y-67536971D01*
X44224068Y-67677278D01*
X44055278Y-67846068D01*
X43914971Y-68039183D01*
X43806605Y-68251865D01*
X43732840Y-68478889D01*
X43695500Y-68714645D01*
X42765019Y-68714645D01*
X42766975Y-64935306D01*
X47867500Y-64935306D01*
X47867500Y-65112693D01*
X47902106Y-65286665D01*
X47902106Y-65286667D01*
X47969985Y-65450544D01*
X47969985Y-65450545D01*
X48068535Y-65598034D01*
X48068536Y-65598035D01*
X48193965Y-65723464D01*
X48341453Y-65822013D01*
X48505334Y-65889894D01*
X48679309Y-65924500D01*
X48679310Y-65924500D01*
X48856690Y-65924500D01*
X48856691Y-65924500D01*
X49030666Y-65889894D01*
X49194547Y-65822013D01*
X49342035Y-65723464D01*
X49467464Y-65598035D01*
X49566013Y-65450547D01*
X49633894Y-65286666D01*
X49668500Y-65112691D01*
X49668500Y-64935309D01*
X49633894Y-64761334D01*
X49566014Y-64597455D01*
X49566014Y-64597454D01*
X49467464Y-64449965D01*
X49342034Y-64324535D01*
X49194544Y-64225985D01*
X49030666Y-64158106D01*
X48856693Y-64123500D01*
X48856691Y-64123500D01*
X48679309Y-64123500D01*
X48679306Y-64123500D01*
X48505334Y-64158106D01*
X48505332Y-64158106D01*
X48341455Y-64225985D01*
X48341454Y-64225985D01*
X48193965Y-64324535D01*
X48068535Y-64449965D01*
X47969985Y-64597454D01*
X47969985Y-64597455D01*
X47902106Y-64761332D01*
X47902106Y-64761334D01*
X47867500Y-64935306D01*
X42766975Y-64935306D01*
X42771706Y-55791306D01*
X43295500Y-55791306D01*
X43295500Y-55968693D01*
X43330106Y-56142665D01*
X43330106Y-56142667D01*
X43397985Y-56306544D01*
X43397985Y-56306545D01*
X43496535Y-56454034D01*
X43496536Y-56454035D01*
X43621965Y-56579464D01*
X43769453Y-56678013D01*
X43933334Y-56745894D01*
X44107309Y-56780500D01*
X44107310Y-56780500D01*
X44284690Y-56780500D01*
X44284691Y-56780500D01*
X44458666Y-56745894D01*
X44622547Y-56678013D01*
X44770035Y-56579464D01*
X44895464Y-56454035D01*
X44994013Y-56306547D01*
X45061894Y-56142666D01*
X45096500Y-55968691D01*
X45096500Y-55791309D01*
X45096499Y-55791306D01*
X45327500Y-55791306D01*
X45327500Y-55968693D01*
X45362106Y-56142665D01*
X45362106Y-56142667D01*
X45429985Y-56306544D01*
X45429985Y-56306545D01*
X45528535Y-56454034D01*
X45528536Y-56454035D01*
X45653965Y-56579464D01*
X45801453Y-56678013D01*
X45965334Y-56745894D01*
X46139309Y-56780500D01*
X46139310Y-56780500D01*
X46316690Y-56780500D01*
X46316691Y-56780500D01*
X46490666Y-56745894D01*
X46654547Y-56678013D01*
X46802035Y-56579464D01*
X46927464Y-56454035D01*
X47026013Y-56306547D01*
X47093894Y-56142666D01*
X47128500Y-55968691D01*
X47128500Y-55791309D01*
X47093894Y-55617334D01*
X47026014Y-55453455D01*
X47026014Y-55453454D01*
X46927464Y-55305965D01*
X46802034Y-55180535D01*
X46654544Y-55081985D01*
X46490666Y-55014106D01*
X46316693Y-54979500D01*
X46316691Y-54979500D01*
X46139309Y-54979500D01*
X46139306Y-54979500D01*
X45965334Y-55014106D01*
X45965332Y-55014106D01*
X45801455Y-55081985D01*
X45801454Y-55081985D01*
X45653965Y-55180535D01*
X45528535Y-55305965D01*
X45429985Y-55453454D01*
X45429985Y-55453455D01*
X45362106Y-55617332D01*
X45362106Y-55617334D01*
X45327500Y-55791306D01*
X45096499Y-55791306D01*
X45061894Y-55617334D01*
X44994014Y-55453455D01*
X44994014Y-55453454D01*
X44895464Y-55305965D01*
X44770034Y-55180535D01*
X44622544Y-55081985D01*
X44458666Y-55014106D01*
X44284693Y-54979500D01*
X44284691Y-54979500D01*
X44107309Y-54979500D01*
X44107306Y-54979500D01*
X43933334Y-55014106D01*
X43933332Y-55014106D01*
X43769455Y-55081985D01*
X43769454Y-55081985D01*
X43621965Y-55180535D01*
X43496535Y-55305965D01*
X43397985Y-55453454D01*
X43397985Y-55453455D01*
X43330106Y-55617332D01*
X43330106Y-55617334D01*
X43295500Y-55791306D01*
X42771706Y-55791306D01*
X42783009Y-33947306D01*
X47359500Y-33947306D01*
X47359500Y-34124693D01*
X47394106Y-34298665D01*
X47394106Y-34298667D01*
X47461985Y-34462544D01*
X47461985Y-34462545D01*
X47560535Y-34610034D01*
X47560536Y-34610035D01*
X47685965Y-34735464D01*
X47833453Y-34834013D01*
X47997334Y-34901894D01*
X48171309Y-34936500D01*
X48171310Y-34936500D01*
X48348690Y-34936500D01*
X48348691Y-34936500D01*
X48522666Y-34901894D01*
X48686547Y-34834013D01*
X48834035Y-34735464D01*
X48959464Y-34610035D01*
X49058013Y-34462547D01*
X49125894Y-34298666D01*
X49160500Y-34124691D01*
X49160500Y-33947309D01*
X49125894Y-33773334D01*
X49058014Y-33609455D01*
X49058014Y-33609454D01*
X48959464Y-33461965D01*
X48834034Y-33336535D01*
X48686544Y-33237985D01*
X48522666Y-33170106D01*
X48348693Y-33135500D01*
X48348691Y-33135500D01*
X48171309Y-33135500D01*
X48171306Y-33135500D01*
X47997334Y-33170106D01*
X47997332Y-33170106D01*
X47833455Y-33237985D01*
X47833454Y-33237985D01*
X47685965Y-33336535D01*
X47560535Y-33461965D01*
X47461985Y-33609454D01*
X47461985Y-33609455D01*
X47394106Y-33773332D01*
X47394106Y-33773334D01*
X47359500Y-33947306D01*
X42783009Y-33947306D01*
X42787139Y-25964532D01*
X47461500Y-25964532D01*
X47461500Y-26771467D01*
X47501869Y-26974418D01*
X47581058Y-27165597D01*
X47581059Y-27165598D01*
X47696023Y-27337655D01*
X47842345Y-27483977D01*
X48014402Y-27598941D01*
X48205580Y-27678130D01*
X48408535Y-27718500D01*
X48408536Y-27718500D01*
X48615464Y-27718500D01*
X48615465Y-27718500D01*
X48818420Y-27678130D01*
X49009598Y-27598941D01*
X49181655Y-27483977D01*
X49327977Y-27337655D01*
X49442941Y-27165598D01*
X49522130Y-26974420D01*
X49562500Y-26771465D01*
X49562500Y-25964535D01*
X49522130Y-25761580D01*
X49442941Y-25570402D01*
X49327977Y-25398345D01*
X49181655Y-25252023D01*
X49178469Y-25249894D01*
X49009597Y-25137058D01*
X48818418Y-25057869D01*
X48615467Y-25017500D01*
X48615465Y-25017500D01*
X48408535Y-25017500D01*
X48408532Y-25017500D01*
X48205581Y-25057869D01*
X48014402Y-25137058D01*
X47842348Y-25252020D01*
X47696020Y-25398348D01*
X47581058Y-25570402D01*
X47501869Y-25761581D01*
X47461500Y-25964532D01*
X42787139Y-25964532D01*
X42788580Y-23180019D01*
X42788615Y-23179892D01*
X42788615Y-23117026D01*
X42788616Y-23117020D01*
X42788806Y-23110931D01*
X42797486Y-22971467D01*
X42805957Y-22835374D01*
X42807480Y-22823186D01*
X42858097Y-22554921D01*
X42861118Y-22543019D01*
X42944614Y-22283085D01*
X42949096Y-22271635D01*
X42998883Y-22164532D01*
X47461500Y-22164532D01*
X47461500Y-22971467D01*
X47501869Y-23174418D01*
X47581058Y-23365597D01*
X47656959Y-23479191D01*
X47696023Y-23537655D01*
X47842345Y-23683977D01*
X48014402Y-23798941D01*
X48205580Y-23878130D01*
X48408535Y-23918500D01*
X48408536Y-23918500D01*
X48615464Y-23918500D01*
X48615465Y-23918500D01*
X48818420Y-23878130D01*
X49009598Y-23798941D01*
X49181655Y-23683977D01*
X49327977Y-23537655D01*
X49442941Y-23365598D01*
X49522130Y-23174420D01*
X49562500Y-22971465D01*
X49562500Y-22164535D01*
X49522130Y-21961580D01*
X49442941Y-21770402D01*
X49327977Y-21598345D01*
X49181655Y-21452023D01*
X49062815Y-21372617D01*
X49009597Y-21337058D01*
X48818418Y-21257869D01*
X48615467Y-21217500D01*
X48615465Y-21217500D01*
X48408535Y-21217500D01*
X48408532Y-21217500D01*
X48205581Y-21257869D01*
X48014402Y-21337058D01*
X47842348Y-21452020D01*
X47696020Y-21598348D01*
X47581058Y-21770402D01*
X47501869Y-21961581D01*
X47461500Y-22164532D01*
X42998883Y-22164532D01*
X43064172Y-22024081D01*
X43070025Y-22013297D01*
X43214924Y-21781902D01*
X43222077Y-21771917D01*
X43394545Y-21560285D01*
X43402878Y-21551266D01*
X43600264Y-21362650D01*
X43609647Y-21354739D01*
X43828891Y-21192059D01*
X43839190Y-21185367D01*
X44076923Y-21051125D01*
X44087963Y-21045766D01*
X44340506Y-20942042D01*
X44352133Y-20938092D01*
X44615574Y-20866489D01*
X44627615Y-20864007D01*
X44897915Y-20825622D01*
X44910152Y-20824656D01*
X45160908Y-20820458D01*
X45162460Y-20820445D01*
X45200358Y-20820487D01*
G37*
%TD.AperFunction*%
%TD*%
M02*
