%TF.GenerationSoftware,KiCad,Pcbnew,9.0.3*%
%TF.CreationDate,2025-08-03T17:32:48-04:00*%
%TF.ProjectId,Photon,50686f74-6f6e-42e6-9b69-6361645f7063,rev?*%
%TF.SameCoordinates,Original*%
%TF.FileFunction,Copper,L1,Top*%
%TF.FilePolarity,Positive*%
%FSLAX46Y46*%
G04 Gerber Fmt 4.6, Leading zero omitted, Abs format (unit mm)*
G04 Created by KiCad (PCBNEW 9.0.3) date 2025-08-03 17:32:48*
%MOMM*%
%LPD*%
G01*
G04 APERTURE LIST*
G04 Aperture macros list*
%AMRoundRect*
0 Rectangle with rounded corners*
0 $1 Rounding radius*
0 $2 $3 $4 $5 $6 $7 $8 $9 X,Y pos of 4 corners*
0 Add a 4 corners polygon primitive as box body*
4,1,4,$2,$3,$4,$5,$6,$7,$8,$9,$2,$3,0*
0 Add four circle primitives for the rounded corners*
1,1,$1+$1,$2,$3*
1,1,$1+$1,$4,$5*
1,1,$1+$1,$6,$7*
1,1,$1+$1,$8,$9*
0 Add four rect primitives between the rounded corners*
20,1,$1+$1,$2,$3,$4,$5,0*
20,1,$1+$1,$4,$5,$6,$7,0*
20,1,$1+$1,$6,$7,$8,$9,0*
20,1,$1+$1,$8,$9,$2,$3,0*%
G04 Aperture macros list end*
%TA.AperFunction,SMDPad,CuDef*%
%ADD10RoundRect,0.162500X0.650000X0.162500X-0.650000X0.162500X-0.650000X-0.162500X0.650000X-0.162500X0*%
%TD*%
%TA.AperFunction,SMDPad,CuDef*%
%ADD11RoundRect,0.225000X0.225000X0.250000X-0.225000X0.250000X-0.225000X-0.250000X0.225000X-0.250000X0*%
%TD*%
%TA.AperFunction,SMDPad,CuDef*%
%ADD12RoundRect,0.150000X0.512500X0.150000X-0.512500X0.150000X-0.512500X-0.150000X0.512500X-0.150000X0*%
%TD*%
%TA.AperFunction,SMDPad,CuDef*%
%ADD13C,1.000000*%
%TD*%
%TA.AperFunction,SMDPad,CuDef*%
%ADD14RoundRect,0.225000X0.250000X-0.225000X0.250000X0.225000X-0.250000X0.225000X-0.250000X-0.225000X0*%
%TD*%
%TA.AperFunction,SMDPad,CuDef*%
%ADD15RoundRect,0.218750X-0.256250X0.218750X-0.256250X-0.218750X0.256250X-0.218750X0.256250X0.218750X0*%
%TD*%
%TA.AperFunction,SMDPad,CuDef*%
%ADD16RoundRect,0.200000X-0.200000X-0.275000X0.200000X-0.275000X0.200000X0.275000X-0.200000X0.275000X0*%
%TD*%
%TA.AperFunction,SMDPad,CuDef*%
%ADD17RoundRect,0.225000X-0.225000X-0.250000X0.225000X-0.250000X0.225000X0.250000X-0.225000X0.250000X0*%
%TD*%
%TA.AperFunction,SMDPad,CuDef*%
%ADD18RoundRect,0.200000X-0.275000X0.200000X-0.275000X-0.200000X0.275000X-0.200000X0.275000X0.200000X0*%
%TD*%
%TA.AperFunction,SMDPad,CuDef*%
%ADD19RoundRect,0.105000X-0.420000X-0.895000X0.420000X-0.895000X0.420000X0.895000X-0.420000X0.895000X0*%
%TD*%
%TA.AperFunction,SMDPad,CuDef*%
%ADD20RoundRect,0.225000X-0.250000X0.225000X-0.250000X-0.225000X0.250000X-0.225000X0.250000X0.225000X0*%
%TD*%
%TA.AperFunction,SMDPad,CuDef*%
%ADD21RoundRect,0.150000X-0.512500X-0.150000X0.512500X-0.150000X0.512500X0.150000X-0.512500X0.150000X0*%
%TD*%
%TA.AperFunction,SMDPad,CuDef*%
%ADD22RoundRect,0.200000X0.200000X0.275000X-0.200000X0.275000X-0.200000X-0.275000X0.200000X-0.275000X0*%
%TD*%
%TA.AperFunction,SMDPad,CuDef*%
%ADD23RoundRect,0.218750X0.256250X-0.218750X0.256250X0.218750X-0.256250X0.218750X-0.256250X-0.218750X0*%
%TD*%
%TA.AperFunction,SMDPad,CuDef*%
%ADD24RoundRect,0.200000X0.275000X-0.200000X0.275000X0.200000X-0.275000X0.200000X-0.275000X-0.200000X0*%
%TD*%
%TA.AperFunction,SMDPad,CuDef*%
%ADD25RoundRect,0.175000X0.175000X0.425000X-0.175000X0.425000X-0.175000X-0.425000X0.175000X-0.425000X0*%
%TD*%
%TA.AperFunction,SMDPad,CuDef*%
%ADD26RoundRect,0.190000X-0.190000X-0.410000X0.190000X-0.410000X0.190000X0.410000X-0.190000X0.410000X0*%
%TD*%
%TA.AperFunction,SMDPad,CuDef*%
%ADD27RoundRect,0.200000X-0.200000X-0.400000X0.200000X-0.400000X0.200000X0.400000X-0.200000X0.400000X0*%
%TD*%
%TA.AperFunction,SMDPad,CuDef*%
%ADD28RoundRect,0.175000X-0.175000X-0.425000X0.175000X-0.425000X0.175000X0.425000X-0.175000X0.425000X0*%
%TD*%
%TA.AperFunction,SMDPad,CuDef*%
%ADD29RoundRect,0.190000X0.190000X0.410000X-0.190000X0.410000X-0.190000X-0.410000X0.190000X-0.410000X0*%
%TD*%
%TA.AperFunction,SMDPad,CuDef*%
%ADD30RoundRect,0.200000X0.200000X0.400000X-0.200000X0.400000X-0.200000X-0.400000X0.200000X-0.400000X0*%
%TD*%
%TA.AperFunction,ComponentPad*%
%ADD31O,1.100000X1.700000*%
%TD*%
%TA.AperFunction,SMDPad,CuDef*%
%ADD32RoundRect,0.255000X0.595000X-0.945000X0.595000X0.945000X-0.595000X0.945000X-0.595000X-0.945000X0*%
%TD*%
%TA.AperFunction,SMDPad,CuDef*%
%ADD33C,6.400000*%
%TD*%
%TA.AperFunction,SMDPad,CuDef*%
%ADD34RoundRect,0.240000X1.510000X-0.560000X1.510000X0.560000X-1.510000X0.560000X-1.510000X-0.560000X0*%
%TD*%
%TA.AperFunction,SMDPad,CuDef*%
%ADD35RoundRect,0.150000X0.825000X0.150000X-0.825000X0.150000X-0.825000X-0.150000X0.825000X-0.150000X0*%
%TD*%
%TA.AperFunction,HeatsinkPad*%
%ADD36R,2.410000X3.300000*%
%TD*%
%TA.AperFunction,SMDPad,CuDef*%
%ADD37RoundRect,0.255000X-0.595000X0.945000X-0.595000X-0.945000X0.595000X-0.945000X0.595000X0.945000X0*%
%TD*%
%TA.AperFunction,ViaPad*%
%ADD38C,0.800000*%
%TD*%
%TA.AperFunction,Conductor*%
%ADD39C,0.200000*%
%TD*%
%TA.AperFunction,Conductor*%
%ADD40C,0.300000*%
%TD*%
%TA.AperFunction,Conductor*%
%ADD41C,0.600000*%
%TD*%
%TA.AperFunction,Conductor*%
%ADD42C,0.500000*%
%TD*%
G04 APERTURE END LIST*
D10*
%TO.P,U2,1,~{RESET}/PB5*%
%TO.N,/RESET*%
X55911500Y-78486000D03*
%TO.P,U2,2,PB3*%
%TO.N,/LED2_EN*%
X55911500Y-77216000D03*
%TO.P,U2,3,PB4*%
%TO.N,/LED1_EN*%
X55911500Y-75946000D03*
%TO.P,U2,4,GND*%
%TO.N,GND*%
X55911500Y-74676000D03*
%TO.P,U2,5,PB0*%
%TO.N,/MOSI*%
X48736500Y-74676000D03*
%TO.P,U2,6,PB1*%
%TO.N,/MISO_BTN*%
X48736500Y-75946000D03*
%TO.P,U2,7,PB2*%
%TO.N,/SCK*%
X48736500Y-77216000D03*
%TO.P,U2,8,VCC*%
%TO.N,/3V6*%
X48736500Y-78486000D03*
%TD*%
D11*
%TO.P,C2,1*%
%TO.N,GND*%
X51575000Y-63500000D03*
%TO.P,C2,2*%
%TO.N,+BATT*%
X50025000Y-63500000D03*
%TD*%
D12*
%TO.P,U5,1,OD*%
%TO.N,Net-(U4-G1)*%
X50921500Y-105598000D03*
%TO.P,U5,2,Isense*%
%TO.N,Net-(U5-Isense)*%
X50921500Y-104648000D03*
%TO.P,U5,3,OC*%
%TO.N,Net-(U4-G2)*%
X50921500Y-103698000D03*
%TO.P,U5,4,TD*%
%TO.N,unconnected-(U5-TD-Pad4)*%
X48646500Y-103698000D03*
%TO.P,U5,5,VCC*%
%TO.N,Net-(U5-VCC)*%
X48646500Y-104648000D03*
%TO.P,U5,6,GND*%
%TO.N,-BATT*%
X48646500Y-105598000D03*
%TD*%
D13*
%TO.P,TP5,1,1*%
%TO.N,/MOSI*%
X45212000Y-74168000D03*
%TD*%
%TO.P,3V3,1,1*%
%TO.N,/3V6*%
X43688000Y-80264000D03*
%TD*%
D14*
%TO.P,C4,1*%
%TO.N,/FB*%
X48768000Y-67831000D03*
%TO.P,C4,2*%
%TO.N,/3V6*%
X48768000Y-66281000D03*
%TD*%
D15*
%TO.P,D1,1,K*%
%TO.N,/USB_PRST*%
X44196000Y-29184500D03*
%TO.P,D1,2,A*%
%TO.N,Net-(D1-A)*%
X44196000Y-30759500D03*
%TD*%
D16*
%TO.P,R5,1*%
%TO.N,/FB*%
X51499000Y-70104000D03*
%TO.P,R5,2*%
%TO.N,GND*%
X53149000Y-70104000D03*
%TD*%
D17*
%TO.P,C5,1*%
%TO.N,GND*%
X53581000Y-63500000D03*
%TO.P,C5,2*%
%TO.N,/3V6*%
X55131000Y-63500000D03*
%TD*%
D13*
%TO.P,TP2,1,1*%
%TO.N,/LED2_EN*%
X57404000Y-80772000D03*
%TD*%
D11*
%TO.P,C3,1*%
%TO.N,-BATT*%
X45987000Y-107696000D03*
%TO.P,C3,2*%
%TO.N,+BATT*%
X44437000Y-107696000D03*
%TD*%
D13*
%TO.P,TP3,1,1*%
%TO.N,/MISO_BTN*%
X43688000Y-76200000D03*
%TD*%
%TO.P,GND,1,1*%
%TO.N,GND*%
X45212000Y-82296000D03*
%TD*%
%TO.P,TP4,1,1*%
%TO.N,/LED1_EN*%
X48768000Y-60960000D03*
%TD*%
D12*
%TO.P,U6,1,EN*%
%TO.N,/LED1_EN*%
X48889500Y-58862000D03*
%TO.P,U6,2,OUT*%
%TO.N,/OUT_LED1*%
X48889500Y-57912000D03*
%TO.P,U6,3,OUT*%
X48889500Y-56962000D03*
%TO.P,U6,4,GND*%
%TO.N,GND*%
X46614500Y-56962000D03*
%TO.P,U6,5,OUT*%
%TO.N,/OUT_LED1*%
X46614500Y-57912000D03*
%TO.P,U6,6,Rext*%
%TO.N,/Rext1*%
X46614500Y-58862000D03*
%TD*%
D13*
%TO.P,TP1,1,1*%
%TO.N,/SCK*%
X45212000Y-78232000D03*
%TD*%
D16*
%TO.P,R7,1*%
%TO.N,GND*%
X47943000Y-107696000D03*
%TO.P,R7,2*%
%TO.N,Net-(U5-Isense)*%
X49593000Y-107696000D03*
%TD*%
D12*
%TO.P,U4,1,S1*%
%TO.N,-BATT*%
X57017500Y-105598000D03*
%TO.P,U4,2,D1/D2*%
%TO.N,unconnected-(U4-D1{slash}D2-Pad2)*%
X57017500Y-104648000D03*
%TO.P,U4,3,S2*%
%TO.N,GND*%
X57017500Y-103698000D03*
%TO.P,U4,4,G2*%
%TO.N,Net-(U4-G2)*%
X54742500Y-103698000D03*
%TO.P,U4,5,D1/D2*%
%TO.N,unconnected-(U4-D1{slash}D2-Pad5)*%
X54742500Y-104648000D03*
%TO.P,U4,6,G1*%
%TO.N,Net-(U4-G1)*%
X54742500Y-105598000D03*
%TD*%
D18*
%TO.P,R10,1*%
%TO.N,/Rext2*%
X61468000Y-84494430D03*
%TO.P,R10,2*%
%TO.N,GND*%
X61468000Y-86144430D03*
%TD*%
D19*
%TO.P,SW1,1,1*%
%TO.N,/MISO_BTN*%
X50546000Y-112268000D03*
%TO.P,SW1,2,2*%
%TO.N,GND*%
X54991000Y-112268000D03*
%TD*%
D20*
%TO.P,C1,1*%
%TO.N,GND*%
X59944000Y-26657000D03*
%TO.P,C1,2*%
%TO.N,VCC*%
X59944000Y-28207000D03*
%TD*%
D21*
%TO.P,U7,1,EN*%
%TO.N,/LED2_EN*%
X56774500Y-84394000D03*
%TO.P,U7,2,OUT*%
%TO.N,/OUT_LED2*%
X56774500Y-85344000D03*
%TO.P,U7,3,OUT*%
X56774500Y-86294000D03*
%TO.P,U7,4,GND*%
%TO.N,GND*%
X59049500Y-86294000D03*
%TO.P,U7,5,OUT*%
%TO.N,/OUT_LED2*%
X59049500Y-85344000D03*
%TO.P,U7,6,Rext*%
%TO.N,/Rext2*%
X59049500Y-84394000D03*
%TD*%
D22*
%TO.P,R1,1*%
%TO.N,VCC*%
X48069000Y-32512000D03*
%TO.P,R1,2*%
%TO.N,Net-(D1-A)*%
X46419000Y-32512000D03*
%TD*%
D18*
%TO.P,R2,1*%
%TO.N,Net-(U1-PROG)*%
X59944000Y-31179000D03*
%TO.P,R2,2*%
%TO.N,GND*%
X59944000Y-32829000D03*
%TD*%
D22*
%TO.P,R6,1*%
%TO.N,/3V6*%
X53657000Y-109220000D03*
%TO.P,R6,2*%
%TO.N,/MISO_BTN*%
X52007000Y-109220000D03*
%TD*%
D18*
%TO.P,R3,1*%
%TO.N,+BATT*%
X46228000Y-102299000D03*
%TO.P,R3,2*%
%TO.N,Net-(U5-VCC)*%
X46228000Y-103949000D03*
%TD*%
D15*
%TO.P,D3,1,K*%
%TO.N,GND*%
X61976000Y-58457500D03*
%TO.P,D3,2,A*%
%TO.N,Net-(D3-A)*%
X61976000Y-60032500D03*
%TD*%
D12*
%TO.P,U3,1,EN*%
%TO.N,+BATT*%
X53461500Y-68006000D03*
%TO.P,U3,2,GND*%
%TO.N,GND*%
X53461500Y-67056000D03*
%TO.P,U3,3,LX*%
%TO.N,/LX*%
X53461500Y-66106000D03*
%TO.P,U3,4,Vin*%
%TO.N,+BATT*%
X51186500Y-66106000D03*
%TO.P,U3,5,FB*%
%TO.N,/FB*%
X51186500Y-68006000D03*
%TD*%
D13*
%TO.P,TP6,1,1*%
%TO.N,/RESET*%
X43688000Y-72136000D03*
%TD*%
D23*
%TO.P,D2,1,K*%
%TO.N,/CHRG*%
X44196000Y-34315500D03*
%TO.P,D2,2,A*%
%TO.N,Net-(D1-A)*%
X44196000Y-32740500D03*
%TD*%
D24*
%TO.P,R8,1*%
%TO.N,/3V6*%
X61976000Y-63118000D03*
%TO.P,R8,2*%
%TO.N,Net-(D3-A)*%
X61976000Y-61468000D03*
%TD*%
D25*
%TO.P,P1,A5,CC1*%
%TO.N,unconnected-(P1-CC1-PadA5)*%
X53332000Y-26448000D03*
D26*
%TO.P,P1,A9,VBUS*%
%TO.N,VCC*%
X51312000Y-26448000D03*
D27*
%TO.P,P1,A12,GND*%
%TO.N,GND*%
X50082000Y-26448000D03*
D28*
%TO.P,P1,B5,CC2*%
%TO.N,unconnected-(P1-CC2-PadB5)*%
X52332000Y-26448000D03*
D29*
%TO.P,P1,B9,VBUS*%
%TO.N,VCC*%
X54352000Y-26448000D03*
D30*
%TO.P,P1,B12,GND*%
%TO.N,GND*%
X55582000Y-26448000D03*
D31*
%TO.P,P1,S1,SHIELD*%
X57152000Y-26368000D03*
X57152000Y-22568000D03*
X48512000Y-26368000D03*
X48512000Y-22568000D03*
%TD*%
D32*
%TO.P,D4,1,K*%
%TO.N,/OUT_LED1*%
X53569757Y-57695500D03*
%TO.P,D4,2,A*%
%TO.N,/3V6*%
X52045757Y-46011500D03*
D33*
%TO.P,D4,3*%
%TO.N,N/C*%
X52807757Y-51853500D03*
%TD*%
D34*
%TO.P,L1,1,1*%
%TO.N,/LX*%
X58420000Y-66167000D03*
%TO.P,L1,2,2*%
%TO.N,/3V6*%
X58420000Y-63779400D03*
%TD*%
D16*
%TO.P,R4,1*%
%TO.N,/3V6*%
X47943000Y-70104000D03*
%TO.P,R4,2*%
%TO.N,/FB*%
X49593000Y-70104000D03*
%TD*%
D24*
%TO.P,R9,1*%
%TO.N,/Rext1*%
X44196000Y-58737000D03*
%TO.P,R9,2*%
%TO.N,GND*%
X44196000Y-57087000D03*
%TD*%
D35*
%TO.P,U1,1,TEMP*%
%TO.N,GND*%
X55399000Y-33210000D03*
%TO.P,U1,2,PROG*%
%TO.N,Net-(U1-PROG)*%
X55399000Y-31940000D03*
%TO.P,U1,3,GND*%
%TO.N,GND*%
X55399000Y-30670000D03*
%TO.P,U1,4,V_{CC}*%
%TO.N,VCC*%
X55399000Y-29400000D03*
%TO.P,U1,5,BAT*%
%TO.N,+BATT*%
X50449000Y-29400000D03*
%TO.P,U1,6,~{STDBY}*%
%TO.N,/USB_PRST*%
X50449000Y-30670000D03*
%TO.P,U1,7,~{CHRG}*%
%TO.N,/CHRG*%
X50449000Y-31940000D03*
%TO.P,U1,8,CE*%
%TO.N,VCC*%
X50449000Y-33210000D03*
D36*
%TO.P,U1,9*%
%TO.N,N/C*%
X52924000Y-31305000D03*
%TD*%
D37*
%TO.P,D5,1,K*%
%TO.N,/OUT_LED2*%
X52070000Y-85090000D03*
%TO.P,D5,2,A*%
%TO.N,/3V6*%
X53594000Y-96774000D03*
D33*
%TO.P,D5,3*%
%TO.N,N/C*%
X52832000Y-90932000D03*
%TD*%
D38*
%TO.N,GND*%
X46736000Y-83820000D03*
X61976000Y-56896000D03*
X58928000Y-103632000D03*
X47244000Y-109220000D03*
X57912000Y-33020000D03*
X57912000Y-30480000D03*
X57912000Y-74676000D03*
X59436000Y-87376000D03*
X51816000Y-65024000D03*
X57107000Y-113792000D03*
X44196000Y-55880000D03*
X46228000Y-55880000D03*
X53848000Y-65024000D03*
%TO.N,/3V6*%
X55880000Y-61976000D03*
X48768000Y-65024000D03*
X57912000Y-61976000D03*
X53848000Y-46228000D03*
X59944000Y-61976000D03*
X48260000Y-69088000D03*
X51562000Y-96774000D03*
X57404000Y-109220000D03*
X48260000Y-80264000D03*
%TO.N,-BATT*%
X55295000Y-106757000D03*
X47377500Y-106305500D03*
X57912000Y-106680000D03*
%TO.N,+BATT*%
X44437000Y-106439000D03*
X50292000Y-65024000D03*
X46228000Y-101092000D03*
X48260000Y-29464000D03*
X48260000Y-28448000D03*
X48260000Y-30480000D03*
%TO.N,VCC*%
X48260000Y-34036000D03*
X58420000Y-29400000D03*
X52832000Y-24384000D03*
%TO.N,/MISO_BTN*%
X52832000Y-105856000D03*
X52832000Y-101600000D03*
%TD*%
D39*
%TO.N,/LED1_EN*%
X46893844Y-71785844D02*
X46893844Y-61818156D01*
X46893844Y-61818156D02*
X47752000Y-60960000D01*
X47859000Y-72751000D02*
X46893844Y-71785844D01*
X49950100Y-72751000D02*
X47859000Y-72751000D01*
X47752000Y-60960000D02*
X48768000Y-60960000D01*
X53145100Y-75946000D02*
X49950100Y-72751000D01*
X55911500Y-75946000D02*
X53145100Y-75946000D01*
%TO.N,/3V6*%
X47943000Y-69279000D02*
X47943000Y-70104000D01*
X48134000Y-69088000D02*
X47943000Y-69279000D01*
X48260000Y-69088000D02*
X48134000Y-69088000D01*
D40*
%TO.N,GND*%
X46736000Y-83820000D02*
X45212000Y-82296000D01*
D41*
X57722000Y-33210000D02*
X57912000Y-33020000D01*
D40*
X46489500Y-57087000D02*
X46614500Y-56962000D01*
D39*
X57107000Y-113792000D02*
X55583000Y-112268000D01*
D41*
X46614500Y-56266500D02*
X46228000Y-55880000D01*
D40*
X57912000Y-74676000D02*
X55911500Y-74676000D01*
X44196000Y-57087000D02*
X44196000Y-55880000D01*
D41*
X55399000Y-33210000D02*
X57722000Y-33210000D01*
D39*
X47943000Y-108521000D02*
X47244000Y-109220000D01*
D41*
X57441000Y-26657000D02*
X57152000Y-26368000D01*
X57152000Y-26368000D02*
X55662000Y-26368000D01*
X59436000Y-87376000D02*
X59436000Y-86680500D01*
X57722000Y-30670000D02*
X57912000Y-30480000D01*
X46614500Y-56962000D02*
X46614500Y-56266500D01*
D39*
X55583000Y-112268000D02*
X54991000Y-112268000D01*
D41*
X55399000Y-30670000D02*
X57722000Y-30670000D01*
D39*
X58103000Y-32829000D02*
X57912000Y-33020000D01*
D40*
X59199070Y-86144430D02*
X59049500Y-86294000D01*
D39*
X59944000Y-32829000D02*
X58103000Y-32829000D01*
D41*
X59944000Y-26657000D02*
X57441000Y-26657000D01*
D39*
X47943000Y-107696000D02*
X47943000Y-108521000D01*
D40*
X44196000Y-57087000D02*
X46489500Y-57087000D01*
D41*
X58862000Y-103698000D02*
X58928000Y-103632000D01*
D40*
X61468000Y-86144430D02*
X59199070Y-86144430D01*
D41*
X48512000Y-26368000D02*
X50002000Y-26368000D01*
X57017500Y-103698000D02*
X58862000Y-103698000D01*
X59436000Y-86680500D02*
X59049500Y-86294000D01*
D40*
X61976000Y-56896000D02*
X61976000Y-58457500D01*
D41*
X55662000Y-26368000D02*
X55582000Y-26448000D01*
X50002000Y-26368000D02*
X50082000Y-26448000D01*
%TO.N,/3V6*%
X48768000Y-66281000D02*
X48768000Y-65024000D01*
D40*
X48260000Y-80264000D02*
X48260000Y-78962500D01*
X48260000Y-78962500D02*
X48736500Y-78486000D01*
X48260000Y-80264000D02*
X43688000Y-80264000D01*
D41*
X52262257Y-46228000D02*
X52045757Y-46011500D01*
X51562000Y-96774000D02*
X53594000Y-96774000D01*
D39*
X53657000Y-109220000D02*
X57404000Y-109220000D01*
D41*
X53848000Y-46228000D02*
X52262257Y-46228000D01*
D39*
%TO.N,/FB*%
X51499000Y-70104000D02*
X49593000Y-70104000D01*
X51186500Y-68006000D02*
X48943000Y-68006000D01*
X49593000Y-68656000D02*
X48768000Y-67831000D01*
X48943000Y-68006000D02*
X48768000Y-67831000D01*
X49593000Y-70104000D02*
X49593000Y-68656000D01*
D40*
%TO.N,Net-(D1-A)*%
X45948500Y-32512000D02*
X44196000Y-30759500D01*
X44424500Y-32512000D02*
X44196000Y-32740500D01*
X46419000Y-32512000D02*
X44424500Y-32512000D01*
X46419000Y-32512000D02*
X45948500Y-32512000D01*
D41*
%TO.N,/OUT_LED1*%
X48889500Y-57912000D02*
X53353257Y-57912000D01*
X53353257Y-57912000D02*
X53569757Y-57695500D01*
X48889500Y-56962000D02*
X48889500Y-57912000D01*
X46614500Y-57912000D02*
X48889500Y-57912000D01*
%TO.N,/OUT_LED2*%
X52324000Y-85344000D02*
X52070000Y-85090000D01*
X59049500Y-85344000D02*
X56774500Y-85344000D01*
X56774500Y-86294000D02*
X56774500Y-85344000D01*
X56774500Y-85344000D02*
X52324000Y-85344000D01*
%TO.N,/LX*%
X53522500Y-66167000D02*
X59029600Y-66167000D01*
X53461500Y-66106000D02*
X53522500Y-66167000D01*
D39*
%TO.N,/SCK*%
X46929726Y-77216000D02*
X45913726Y-78232000D01*
X48736500Y-77216000D02*
X46929726Y-77216000D01*
X45913726Y-78232000D02*
X45212000Y-78232000D01*
%TO.N,/LED2_EN*%
X56388000Y-77216000D02*
X57404000Y-78232000D01*
X55911500Y-77216000D02*
X56388000Y-77216000D01*
X57404000Y-78232000D02*
X57404000Y-83764500D01*
X57404000Y-83764500D02*
X56774500Y-84394000D01*
%TO.N,/LED1_EN*%
X48768000Y-58983500D02*
X48889500Y-58862000D01*
X48768000Y-60960000D02*
X48768000Y-58983500D01*
%TO.N,/MOSI*%
X48736500Y-74676000D02*
X45720000Y-74676000D01*
X45720000Y-74676000D02*
X45212000Y-74168000D01*
D40*
%TO.N,/Rext1*%
X46614500Y-58862000D02*
X44321000Y-58862000D01*
X44321000Y-58862000D02*
X44196000Y-58737000D01*
%TO.N,/Rext2*%
X61367570Y-84394000D02*
X61468000Y-84494430D01*
X59049500Y-84394000D02*
X61367570Y-84394000D01*
D41*
%TO.N,-BATT*%
X48646500Y-105598000D02*
X48085000Y-105598000D01*
X47377500Y-106305500D02*
X45987000Y-107696000D01*
X48085000Y-105598000D02*
X47377500Y-106305500D01*
X57017500Y-105785500D02*
X57017500Y-105598000D01*
X57912000Y-106680000D02*
X57017500Y-105785500D01*
%TO.N,+BATT*%
X51186500Y-66106000D02*
X51186500Y-65918500D01*
X50449000Y-29400000D02*
X48324000Y-29400000D01*
X51186500Y-65918500D02*
X50292000Y-65024000D01*
D39*
X53461500Y-68006000D02*
X52672250Y-68006000D01*
X52672250Y-68006000D02*
X51186500Y-66520250D01*
D41*
X46228000Y-101092000D02*
X46228000Y-102299000D01*
X48324000Y-29400000D02*
X48260000Y-29464000D01*
X50025000Y-64757000D02*
X50292000Y-65024000D01*
D39*
X51186500Y-66520250D02*
X51186500Y-66106000D01*
D41*
X44437000Y-106439000D02*
X44437000Y-107696000D01*
X50025000Y-63500000D02*
X50025000Y-64757000D01*
X48260000Y-28448000D02*
X48260000Y-30480000D01*
%TO.N,VCC*%
X55399000Y-29400000D02*
X54352000Y-28353000D01*
X48767000Y-33210000D02*
X48069000Y-32512000D01*
X51312000Y-26448000D02*
X51312000Y-25907142D01*
X50449000Y-33210000D02*
X48767000Y-33210000D01*
X58751000Y-29400000D02*
X59944000Y-28207000D01*
X51312000Y-25907142D02*
X52833571Y-24385571D01*
X52833571Y-24385571D02*
X54352000Y-25904000D01*
X54352000Y-25904000D02*
X54352000Y-26448000D01*
X48069000Y-33845000D02*
X48260000Y-34036000D01*
X54352000Y-28353000D02*
X54352000Y-26448000D01*
X58420000Y-29400000D02*
X55399000Y-29400000D01*
X48069000Y-32512000D02*
X48069000Y-33845000D01*
X58420000Y-29400000D02*
X58751000Y-29400000D01*
D39*
%TO.N,/USB_PRST*%
X49938000Y-31181000D02*
X46192500Y-31181000D01*
X46192500Y-31181000D02*
X44196000Y-29184500D01*
X50449000Y-30670000D02*
X49938000Y-31181000D01*
%TO.N,/CHRG*%
X50449000Y-31940000D02*
X50245000Y-31736000D01*
X46456500Y-34315500D02*
X44196000Y-34315500D01*
X47244000Y-31899936D02*
X47244000Y-33528000D01*
X47407936Y-31736000D02*
X47244000Y-31899936D01*
X47244000Y-33528000D02*
X46456500Y-34315500D01*
X50245000Y-31736000D02*
X47407936Y-31736000D01*
D42*
%TO.N,Net-(D3-A)*%
X61976000Y-61468000D02*
X61976000Y-60032500D01*
D39*
%TO.N,Net-(U1-PROG)*%
X59183000Y-31940000D02*
X59944000Y-31179000D01*
X55399000Y-31940000D02*
X59183000Y-31940000D01*
D41*
%TO.N,Net-(U5-VCC)*%
X48646500Y-104648000D02*
X46927000Y-104648000D01*
X46927000Y-104648000D02*
X46228000Y-103949000D01*
D39*
%TO.N,Net-(U5-Isense)*%
X49958000Y-107331000D02*
X49958000Y-104949001D01*
X49593000Y-107696000D02*
X49958000Y-107331000D01*
X49958000Y-104949001D02*
X50259001Y-104648000D01*
X50259001Y-104648000D02*
X50921500Y-104648000D01*
%TO.N,Net-(U4-G1)*%
X53782000Y-105598000D02*
X53340000Y-105156000D01*
X52324000Y-105156000D02*
X51882000Y-105598000D01*
X51882000Y-105598000D02*
X50921500Y-105598000D01*
X54742500Y-105598000D02*
X53782000Y-105598000D01*
X53340000Y-105156000D02*
X52324000Y-105156000D01*
%TO.N,Net-(U4-G2)*%
X54742500Y-103698000D02*
X50921500Y-103698000D01*
%TO.N,/MISO_BTN*%
X48260000Y-97028000D02*
X48260000Y-82804000D01*
X50800000Y-80264000D02*
X50800000Y-77197001D01*
X49548999Y-75946000D02*
X48736500Y-75946000D01*
X48260000Y-82804000D02*
X50800000Y-80264000D01*
X46228000Y-76200000D02*
X43688000Y-76200000D01*
X52832000Y-108395000D02*
X52007000Y-109220000D01*
X50800000Y-77197001D02*
X49548999Y-75946000D01*
X52832000Y-105856000D02*
X52832000Y-108395000D01*
X50546000Y-112268000D02*
X50546000Y-110681000D01*
X50546000Y-110681000D02*
X52007000Y-109220000D01*
X46482000Y-75946000D02*
X46228000Y-76200000D01*
X52832000Y-101600000D02*
X48260000Y-97028000D01*
X48736500Y-75946000D02*
X46482000Y-75946000D01*
%TO.N,/RESET*%
X49276000Y-73152000D02*
X47692900Y-73152000D01*
X54610000Y-78486000D02*
X49276000Y-73152000D01*
X46676900Y-72136000D02*
X43688000Y-72136000D01*
X47692900Y-73152000D02*
X46676900Y-72136000D01*
X55911500Y-78486000D02*
X54610000Y-78486000D01*
%TD*%
%TA.AperFunction,Conductor*%
%TO.N,GND*%
G36*
X52909316Y-63010907D02*
G01*
X52945280Y-63060407D01*
X52945282Y-63108907D01*
X52947981Y-63109335D01*
X52931000Y-63216546D01*
X52931000Y-63249999D01*
X52931001Y-63250000D01*
X53482000Y-63250000D01*
X53540191Y-63268907D01*
X53576155Y-63318407D01*
X53581000Y-63349000D01*
X53581000Y-63499999D01*
X53581001Y-63500000D01*
X53732000Y-63500000D01*
X53790191Y-63518907D01*
X53826155Y-63568407D01*
X53831000Y-63599000D01*
X53831000Y-64174998D01*
X53831001Y-64174999D01*
X53839453Y-64174999D01*
X53938965Y-64159239D01*
X53938969Y-64159237D01*
X54058921Y-64098118D01*
X54154117Y-64002922D01*
X54168790Y-63974126D01*
X54212055Y-63930861D01*
X54272487Y-63921290D01*
X54327004Y-63949068D01*
X54354781Y-64003584D01*
X54356000Y-64019071D01*
X54356000Y-65222248D01*
X54354098Y-65241563D01*
X54337005Y-65327492D01*
X54322223Y-65363178D01*
X54279073Y-65427758D01*
X54251758Y-65455073D01*
X54187178Y-65498223D01*
X54151492Y-65513005D01*
X54086801Y-65525873D01*
X54065561Y-65530098D01*
X54046248Y-65532000D01*
X52832000Y-65532000D01*
X52832000Y-65532001D01*
X52832000Y-65561256D01*
X52813093Y-65619447D01*
X52776482Y-65650196D01*
X52742520Y-65666799D01*
X52742520Y-65666800D01*
X52742518Y-65666801D01*
X52742517Y-65666802D01*
X52659802Y-65749517D01*
X52659801Y-65749518D01*
X52608427Y-65854604D01*
X52608427Y-65854607D01*
X52598500Y-65922740D01*
X52598500Y-66289260D01*
X52605118Y-66334682D01*
X52608427Y-66357395D01*
X52659801Y-66462481D01*
X52659802Y-66462483D01*
X52708670Y-66511351D01*
X52736446Y-66565866D01*
X52726875Y-66626298D01*
X52708669Y-66651357D01*
X52660213Y-66699812D01*
X52608911Y-66804753D01*
X52608729Y-66805999D01*
X52608730Y-66806000D01*
X54314270Y-66806000D01*
X54314270Y-66805999D01*
X54314088Y-66804751D01*
X54311819Y-66797407D01*
X54314739Y-66796504D01*
X54308072Y-66749406D01*
X54336743Y-66695354D01*
X54391709Y-66668477D01*
X54405585Y-66667500D01*
X55760352Y-66667500D01*
X55777060Y-66672928D01*
X55794614Y-66673618D01*
X55805435Y-66682148D01*
X55818543Y-66686407D01*
X55842663Y-66711493D01*
X55846221Y-66716818D01*
X55861005Y-66752506D01*
X55869936Y-66797407D01*
X55878098Y-66838437D01*
X55880000Y-66857751D01*
X55880000Y-70810248D01*
X55878098Y-70829563D01*
X55861005Y-70915492D01*
X55846223Y-70951178D01*
X55803073Y-71015758D01*
X55775758Y-71043073D01*
X55711178Y-71086223D01*
X55675492Y-71101005D01*
X55610801Y-71113873D01*
X55589561Y-71118098D01*
X55570248Y-71120000D01*
X51617752Y-71120000D01*
X51598438Y-71118098D01*
X51512508Y-71101005D01*
X51476821Y-71086223D01*
X51464246Y-71077821D01*
X51412238Y-71043070D01*
X51384929Y-71015761D01*
X51341775Y-70951177D01*
X51326994Y-70915489D01*
X51323478Y-70897811D01*
X51330671Y-70837050D01*
X51372204Y-70792121D01*
X51420573Y-70779499D01*
X51730518Y-70779499D01*
X51730521Y-70779499D01*
X51730522Y-70779498D01*
X51777411Y-70772072D01*
X51824299Y-70764647D01*
X51824299Y-70764646D01*
X51824304Y-70764646D01*
X51937342Y-70707050D01*
X52027050Y-70617342D01*
X52084646Y-70504304D01*
X52099500Y-70410519D01*
X52099500Y-70354001D01*
X52549001Y-70354001D01*
X52549001Y-70410485D01*
X52563833Y-70504141D01*
X52563836Y-70504151D01*
X52621358Y-70617043D01*
X52710955Y-70706640D01*
X52823854Y-70764165D01*
X52823857Y-70764166D01*
X52898999Y-70776066D01*
X52899000Y-70776065D01*
X52899000Y-70354001D01*
X53399000Y-70354001D01*
X53399000Y-70776066D01*
X53474142Y-70764166D01*
X53474145Y-70764165D01*
X53587044Y-70706640D01*
X53676641Y-70617043D01*
X53734163Y-70504151D01*
X53734164Y-70504147D01*
X53749000Y-70410484D01*
X53749000Y-70354001D01*
X53748999Y-70354000D01*
X53399001Y-70354000D01*
X53399000Y-70354001D01*
X52899000Y-70354001D01*
X52898999Y-70354000D01*
X52549002Y-70354000D01*
X52549001Y-70354001D01*
X52099500Y-70354001D01*
X52099499Y-70064438D01*
X52099499Y-69797515D01*
X52549000Y-69797515D01*
X52549000Y-69853999D01*
X52549001Y-69854000D01*
X52898999Y-69854000D01*
X52899000Y-69853999D01*
X53399000Y-69853999D01*
X53399001Y-69854000D01*
X53748998Y-69854000D01*
X53748999Y-69853999D01*
X53748999Y-69797516D01*
X53748998Y-69797514D01*
X53734166Y-69703858D01*
X53734163Y-69703848D01*
X53676641Y-69590956D01*
X53587043Y-69501358D01*
X53474151Y-69443836D01*
X53474147Y-69443835D01*
X53399000Y-69431932D01*
X53399000Y-69853999D01*
X52899000Y-69853999D01*
X52899000Y-69431932D01*
X52823852Y-69443835D01*
X52823848Y-69443836D01*
X52710956Y-69501358D01*
X52621358Y-69590956D01*
X52563836Y-69703848D01*
X52563835Y-69703852D01*
X52549000Y-69797515D01*
X52099499Y-69797515D01*
X52099499Y-69797479D01*
X52099498Y-69797476D01*
X52084647Y-69703700D01*
X52084646Y-69703698D01*
X52084646Y-69703696D01*
X52027050Y-69590658D01*
X51937342Y-69500950D01*
X51824304Y-69443354D01*
X51824305Y-69443354D01*
X51730522Y-69428500D01*
X51407000Y-69428500D01*
X51348809Y-69409593D01*
X51312845Y-69360093D01*
X51308000Y-69329500D01*
X51308000Y-68605500D01*
X51326907Y-68547309D01*
X51376407Y-68511345D01*
X51407000Y-68506500D01*
X51732257Y-68506500D01*
X51732260Y-68506500D01*
X51800393Y-68496573D01*
X51905483Y-68445198D01*
X51988198Y-68362483D01*
X52039573Y-68257393D01*
X52049500Y-68189260D01*
X52049500Y-68047229D01*
X52068407Y-67989038D01*
X52117907Y-67953074D01*
X52179093Y-67953074D01*
X52218504Y-67977225D01*
X52431790Y-68190511D01*
X52431789Y-68190511D01*
X52487736Y-68246457D01*
X52487739Y-68246460D01*
X52556261Y-68286021D01*
X52588868Y-68294758D01*
X52640182Y-68328080D01*
X52652185Y-68346903D01*
X52659802Y-68362483D01*
X52742517Y-68445198D01*
X52796285Y-68471483D01*
X52847604Y-68496572D01*
X52847605Y-68496572D01*
X52847607Y-68496573D01*
X52915740Y-68506500D01*
X52915743Y-68506500D01*
X54007257Y-68506500D01*
X54007260Y-68506500D01*
X54075393Y-68496573D01*
X54180483Y-68445198D01*
X54263198Y-68362483D01*
X54314573Y-68257393D01*
X54324500Y-68189260D01*
X54324500Y-67822740D01*
X54314573Y-67754607D01*
X54263198Y-67649517D01*
X54214329Y-67600648D01*
X54186554Y-67546134D01*
X54196125Y-67485702D01*
X54214331Y-67460643D01*
X54262786Y-67412187D01*
X54314088Y-67307246D01*
X54314270Y-67306000D01*
X52608730Y-67306000D01*
X52580264Y-67338914D01*
X52527898Y-67370560D01*
X52466932Y-67365382D01*
X52435379Y-67344158D01*
X51822812Y-66731591D01*
X51795035Y-66677074D01*
X51804606Y-66616642D01*
X51847871Y-66573377D01*
X51849296Y-66572665D01*
X51905483Y-66545198D01*
X51988198Y-66462483D01*
X52039573Y-66357393D01*
X52049500Y-66289260D01*
X52049500Y-65922740D01*
X52039573Y-65854607D01*
X51988198Y-65749517D01*
X51905483Y-65666802D01*
X51871515Y-65650196D01*
X51800395Y-65615427D01*
X51773139Y-65611456D01*
X51732260Y-65605500D01*
X51732257Y-65605500D01*
X51622322Y-65605500D01*
X51564131Y-65586593D01*
X51552318Y-65576504D01*
X51336996Y-65361182D01*
X51309219Y-65306665D01*
X51308000Y-65291178D01*
X51308000Y-64233004D01*
X51325000Y-64180682D01*
X51325000Y-63750001D01*
X51825000Y-63750001D01*
X51825000Y-64174998D01*
X51825001Y-64174999D01*
X51833453Y-64174999D01*
X51932965Y-64159239D01*
X51932969Y-64159237D01*
X52052921Y-64098118D01*
X52148118Y-64002921D01*
X52209237Y-63882969D01*
X52225000Y-63783453D01*
X52931000Y-63783453D01*
X52946760Y-63882965D01*
X52946762Y-63882969D01*
X53007881Y-64002921D01*
X53103078Y-64098118D01*
X53223030Y-64159237D01*
X53223029Y-64159237D01*
X53322540Y-64174998D01*
X53322551Y-64174999D01*
X53331000Y-64174998D01*
X53331000Y-63750001D01*
X53330999Y-63750000D01*
X52931002Y-63750000D01*
X52931001Y-63750001D01*
X52931001Y-63783453D01*
X52931000Y-63783453D01*
X52225000Y-63783453D01*
X52225000Y-63750001D01*
X52224999Y-63750000D01*
X51825001Y-63750000D01*
X51825000Y-63750001D01*
X51325000Y-63750001D01*
X51325000Y-63599000D01*
X51343907Y-63540809D01*
X51393407Y-63504845D01*
X51424000Y-63500000D01*
X51574999Y-63500000D01*
X51575000Y-63499999D01*
X51575000Y-63349000D01*
X51593907Y-63290809D01*
X51643407Y-63254845D01*
X51674000Y-63250000D01*
X52224998Y-63250000D01*
X52224999Y-63249999D01*
X52224999Y-63216546D01*
X52208020Y-63109335D01*
X52210721Y-63108907D01*
X52210717Y-63060416D01*
X52246677Y-63010913D01*
X52304865Y-62992000D01*
X52851125Y-62992000D01*
X52909316Y-63010907D01*
G37*
%TD.AperFunction*%
%TD*%
%TA.AperFunction,Conductor*%
%TO.N,/3V6*%
G36*
X61259692Y-61486907D02*
G01*
X61295656Y-61536407D01*
X61300501Y-61567000D01*
X61300501Y-61699523D01*
X61315352Y-61793299D01*
X61315354Y-61793304D01*
X61372950Y-61906342D01*
X61462658Y-61996050D01*
X61575696Y-62053646D01*
X61669481Y-62068500D01*
X62282518Y-62068499D01*
X62282520Y-62068499D01*
X62282520Y-62068498D01*
X62321068Y-62062393D01*
X62369514Y-62054722D01*
X62429946Y-62064294D01*
X62473210Y-62107559D01*
X62484000Y-62152503D01*
X62484000Y-62434003D01*
X62465093Y-62492194D01*
X62415593Y-62528158D01*
X62369513Y-62531784D01*
X62282484Y-62518000D01*
X62226001Y-62518000D01*
X62226000Y-62518001D01*
X62226000Y-63717998D01*
X62226001Y-63717999D01*
X62282483Y-63717999D01*
X62369514Y-63704216D01*
X62429946Y-63713788D01*
X62473210Y-63757053D01*
X62484000Y-63801997D01*
X62484000Y-64714248D01*
X62482098Y-64733563D01*
X62465005Y-64819492D01*
X62450223Y-64855178D01*
X62407073Y-64919758D01*
X62379758Y-64947073D01*
X62315178Y-64990223D01*
X62279492Y-65005005D01*
X62214801Y-65017873D01*
X62193561Y-65022098D01*
X62174248Y-65024000D01*
X54665753Y-65024000D01*
X54646419Y-65022094D01*
X54641166Y-65021048D01*
X54587788Y-64991140D01*
X54562184Y-64935570D01*
X54561500Y-64923954D01*
X54561500Y-64213010D01*
X54580407Y-64154819D01*
X54629907Y-64118855D01*
X54691093Y-64118855D01*
X54705446Y-64124801D01*
X54773030Y-64159237D01*
X54773029Y-64159237D01*
X54872540Y-64174998D01*
X54872551Y-64174999D01*
X54881000Y-64174998D01*
X54881000Y-63750001D01*
X55381000Y-63750001D01*
X55381000Y-64174998D01*
X55381001Y-64174999D01*
X55389453Y-64174999D01*
X55488965Y-64159239D01*
X55488969Y-64159237D01*
X55608921Y-64098118D01*
X55704118Y-64002921D01*
X55765237Y-63882969D01*
X55781000Y-63783453D01*
X55781000Y-63750001D01*
X55780999Y-63750000D01*
X55381001Y-63750000D01*
X55381000Y-63750001D01*
X54881000Y-63750001D01*
X54881000Y-62825001D01*
X55381000Y-62825001D01*
X55381000Y-63249999D01*
X55381001Y-63250000D01*
X55780998Y-63250000D01*
X55780999Y-63249999D01*
X55780999Y-63216546D01*
X55780998Y-63216544D01*
X55775143Y-63179568D01*
X55773057Y-63166399D01*
X56470000Y-63166399D01*
X56470000Y-64392403D01*
X56472786Y-64422121D01*
X56472787Y-64422126D01*
X56516594Y-64547320D01*
X56595358Y-64654039D01*
X56595360Y-64654041D01*
X56702079Y-64732805D01*
X56827272Y-64776612D01*
X56856999Y-64779399D01*
X57209998Y-64779399D01*
X57773553Y-64779399D01*
X59066446Y-64779399D01*
X58419999Y-64132952D01*
X57773553Y-64779399D01*
X57209998Y-64779399D01*
X57208227Y-64777628D01*
X57180450Y-64723111D01*
X57190021Y-64662679D01*
X57208227Y-64637620D01*
X58066447Y-63779399D01*
X58773552Y-63779399D01*
X59631772Y-64637620D01*
X59659549Y-64692137D01*
X59649978Y-64752569D01*
X59631772Y-64777628D01*
X59630001Y-64779399D01*
X59983004Y-64779399D01*
X60012721Y-64776613D01*
X60012726Y-64776612D01*
X60137920Y-64732805D01*
X60244639Y-64654041D01*
X60244641Y-64654039D01*
X60323405Y-64547320D01*
X60367212Y-64422127D01*
X60369999Y-64392400D01*
X60369999Y-63368000D01*
X61303934Y-63368000D01*
X61315833Y-63443142D01*
X61315834Y-63443145D01*
X61373359Y-63556044D01*
X61462956Y-63645641D01*
X61575848Y-63703163D01*
X61575852Y-63703164D01*
X61669516Y-63717999D01*
X61725999Y-63717998D01*
X61726000Y-63717998D01*
X61726000Y-63368001D01*
X61725999Y-63368000D01*
X61303934Y-63368000D01*
X60369999Y-63368000D01*
X60369999Y-63166396D01*
X60367213Y-63136678D01*
X60367212Y-63136673D01*
X60323405Y-63011479D01*
X60282739Y-62956380D01*
X60244641Y-62904760D01*
X60244639Y-62904758D01*
X60194835Y-62868000D01*
X61303933Y-62868000D01*
X61725999Y-62868000D01*
X61726000Y-62867999D01*
X61726000Y-62517999D01*
X61669518Y-62518000D01*
X61669513Y-62518001D01*
X61575858Y-62532833D01*
X61575848Y-62532836D01*
X61462956Y-62590358D01*
X61373358Y-62679956D01*
X61315836Y-62792848D01*
X61315835Y-62792852D01*
X61303933Y-62868000D01*
X60194835Y-62868000D01*
X60137920Y-62825994D01*
X60012727Y-62782187D01*
X59983000Y-62779400D01*
X59630001Y-62779400D01*
X59631772Y-62781171D01*
X59659549Y-62835688D01*
X59649978Y-62896120D01*
X59631772Y-62921178D01*
X58773552Y-63779399D01*
X58066447Y-63779399D01*
X57208227Y-62921179D01*
X57201108Y-62907207D01*
X57190021Y-62896120D01*
X57187568Y-62880632D01*
X57180450Y-62866662D01*
X57182902Y-62851175D01*
X57180450Y-62835688D01*
X57187568Y-62821717D01*
X57190021Y-62806230D01*
X57208227Y-62781171D01*
X57209997Y-62779400D01*
X57773553Y-62779400D01*
X58419999Y-63425846D01*
X59066446Y-62779400D01*
X57773553Y-62779400D01*
X57209997Y-62779400D01*
X56856996Y-62779400D01*
X56827278Y-62782186D01*
X56827273Y-62782187D01*
X56702079Y-62825994D01*
X56595360Y-62904758D01*
X56595358Y-62904760D01*
X56516594Y-63011479D01*
X56472787Y-63136672D01*
X56470000Y-63166399D01*
X55773057Y-63166399D01*
X55765239Y-63117034D01*
X55765237Y-63117030D01*
X55704118Y-62997078D01*
X55608921Y-62901881D01*
X55488969Y-62840762D01*
X55488970Y-62840762D01*
X55389454Y-62825000D01*
X55381001Y-62825000D01*
X55381000Y-62825001D01*
X54881000Y-62825001D01*
X54881000Y-62824999D01*
X54872558Y-62825000D01*
X54872544Y-62825001D01*
X54773035Y-62840760D01*
X54773030Y-62840762D01*
X54653078Y-62901881D01*
X54557881Y-62997078D01*
X54543209Y-63025874D01*
X54499944Y-63069138D01*
X54439512Y-63078709D01*
X54384996Y-63050931D01*
X54357219Y-62996414D01*
X54356000Y-62980928D01*
X54356000Y-61777751D01*
X54357902Y-61758437D01*
X54374994Y-61672506D01*
X54389774Y-61636824D01*
X54432931Y-61572235D01*
X54460235Y-61544931D01*
X54524824Y-61501774D01*
X54560507Y-61486994D01*
X54605341Y-61478076D01*
X54646439Y-61469902D01*
X54665752Y-61468000D01*
X61201501Y-61468000D01*
X61259692Y-61486907D01*
G37*
%TD.AperFunction*%
%TD*%
M02*
