%TF.GenerationSoftware,KiCad,Pcbnew,9.0.3*%
%TF.CreationDate,2025-09-25T22:47:40-04:00*%
%TF.ProjectId,Photon,50686f74-6f6e-42e6-9b69-6361645f7063,1.3*%
%TF.SameCoordinates,Original*%
%TF.FileFunction,Copper,L3,Inr*%
%TF.FilePolarity,Positive*%
%FSLAX46Y46*%
G04 Gerber Fmt 4.6, Leading zero omitted, Abs format (unit mm)*
G04 Created by KiCad (PCBNEW 9.0.3) date 2025-09-25 22:47:40*
%MOMM*%
%LPD*%
G01*
G04 APERTURE LIST*
%TA.AperFunction,HeatsinkPad*%
%ADD10O,1.000000X1.700000*%
%TD*%
%TA.AperFunction,ViaPad*%
%ADD11C,0.700000*%
%TD*%
G04 APERTURE END LIST*
D10*
%TO.N,GND*%
%TO.C,J1*%
X57198800Y-25860000D03*
X57198800Y-22060000D03*
X48558800Y-25860000D03*
X48558800Y-22060000D03*
%TD*%
D11*
%TO.N,GND*%
X46736000Y-81534000D03*
X55626000Y-24526000D03*
X52324000Y-67056000D03*
X61976000Y-56642000D03*
X43434000Y-23114000D03*
X59182000Y-29464000D03*
X56896000Y-74676000D03*
X57658000Y-32004000D03*
X50128800Y-24526000D03*
X43434000Y-24892000D03*
X54864000Y-70104000D03*
X59436000Y-87376000D03*
X52578000Y-64770000D03*
X55372000Y-42863000D03*
X60960000Y-81026000D03*
X57057000Y-112268000D03*
X44196000Y-55880000D03*
X50292000Y-81534000D03*
X46228000Y-55880000D03*
X59944000Y-103886000D03*
X59182000Y-32004000D03*
X43942000Y-64770000D03*
X45466000Y-28956000D03*
%TO.N,PACK+*%
X48006000Y-28702000D03*
X45212000Y-99568000D03*
X57658000Y-35306000D03*
X48768000Y-63500000D03*
%TO.N,+3V3*%
X55880000Y-61976000D03*
X48768000Y-65024000D03*
X57912000Y-61976000D03*
X53848000Y-46482000D03*
X59944000Y-61976000D03*
X48260000Y-69088000D03*
X45149000Y-113475000D03*
X51816000Y-96266000D03*
X51816000Y-98552000D03*
X53848000Y-44450000D03*
X48768000Y-81534000D03*
%TO.N,5V*%
X48768000Y-35814000D03*
X51358800Y-24526000D03*
X54356000Y-24384000D03*
X57404000Y-29464000D03*
X51816000Y-41085000D03*
%TO.N,/Bat_Neg*%
X48514000Y-109728000D03*
%TD*%
%TA.AperFunction,Conductor*%
%TO.N,5V*%
G36*
X61093527Y-20566657D02*
G01*
X61370408Y-20582210D01*
X61381439Y-20583453D01*
X61652120Y-20629446D01*
X61662928Y-20631912D01*
X61926786Y-20707932D01*
X61937235Y-20711588D01*
X62190905Y-20816665D01*
X62200899Y-20821478D01*
X62441146Y-20954260D01*
X62441206Y-20954293D01*
X62450603Y-20960198D01*
X62674524Y-21119081D01*
X62683195Y-21125996D01*
X62887928Y-21308959D01*
X62895762Y-21316793D01*
X62950632Y-21378193D01*
X63078719Y-21521525D01*
X63085641Y-21530205D01*
X63244520Y-21754126D01*
X63250426Y-21763526D01*
X63383233Y-22003824D01*
X63388050Y-22013827D01*
X63493115Y-22267480D01*
X63496782Y-22277958D01*
X63572792Y-22541793D01*
X63575262Y-22552617D01*
X63621250Y-22823291D01*
X63622493Y-22834323D01*
X63638039Y-23111148D01*
X63638195Y-23116843D01*
X63609464Y-42827144D01*
X63590472Y-42885307D01*
X63540919Y-42921199D01*
X63510464Y-42926000D01*
X56021500Y-42926000D01*
X55963309Y-42907093D01*
X55927345Y-42857593D01*
X55922500Y-42827000D01*
X55922500Y-42790525D01*
X55884984Y-42650515D01*
X55884982Y-42650512D01*
X55884982Y-42650510D01*
X55812512Y-42524989D01*
X55812510Y-42524987D01*
X55812509Y-42524985D01*
X55710015Y-42422491D01*
X55710012Y-42422489D01*
X55710010Y-42422487D01*
X55584488Y-42350017D01*
X55584489Y-42350017D01*
X55554896Y-42342087D01*
X55444475Y-42312500D01*
X55299525Y-42312500D01*
X55237790Y-42329041D01*
X55159510Y-42350017D01*
X55033989Y-42422487D01*
X54931487Y-42524989D01*
X54859017Y-42650510D01*
X54821500Y-42790525D01*
X54821500Y-42827000D01*
X54802593Y-42885191D01*
X54753093Y-42921155D01*
X54722500Y-42926000D01*
X42407506Y-42926000D01*
X42349315Y-42907093D01*
X42313351Y-42857593D01*
X42308506Y-42827144D01*
X42297433Y-35233525D01*
X57107500Y-35233525D01*
X57107500Y-35378474D01*
X57145017Y-35518489D01*
X57217487Y-35644010D01*
X57217489Y-35644012D01*
X57217491Y-35644015D01*
X57319985Y-35746509D01*
X57319987Y-35746510D01*
X57319989Y-35746512D01*
X57445511Y-35818982D01*
X57445512Y-35818982D01*
X57445515Y-35818984D01*
X57585525Y-35856500D01*
X57585526Y-35856500D01*
X57730474Y-35856500D01*
X57730475Y-35856500D01*
X57870485Y-35818984D01*
X57870487Y-35818982D01*
X57870489Y-35818982D01*
X57996010Y-35746512D01*
X57996010Y-35746511D01*
X57996015Y-35746509D01*
X58098509Y-35644015D01*
X58170984Y-35518485D01*
X58208500Y-35378475D01*
X58208500Y-35233525D01*
X58170984Y-35093515D01*
X58170982Y-35093512D01*
X58170982Y-35093510D01*
X58098512Y-34967989D01*
X58098510Y-34967987D01*
X58098509Y-34967985D01*
X57996015Y-34865491D01*
X57996012Y-34865489D01*
X57996010Y-34865487D01*
X57870488Y-34793017D01*
X57870489Y-34793017D01*
X57840896Y-34785087D01*
X57730475Y-34755500D01*
X57585525Y-34755500D01*
X57523790Y-34772041D01*
X57445510Y-34793017D01*
X57319989Y-34865487D01*
X57217487Y-34967989D01*
X57145017Y-35093510D01*
X57107500Y-35233525D01*
X42297433Y-35233525D01*
X42297424Y-35227180D01*
X42292618Y-31931525D01*
X57107500Y-31931525D01*
X57107500Y-32076474D01*
X57145017Y-32216489D01*
X57217487Y-32342010D01*
X57217489Y-32342012D01*
X57217491Y-32342015D01*
X57319985Y-32444509D01*
X57319987Y-32444510D01*
X57319989Y-32444512D01*
X57445511Y-32516982D01*
X57445512Y-32516982D01*
X57445515Y-32516984D01*
X57585525Y-32554500D01*
X57585526Y-32554500D01*
X57730474Y-32554500D01*
X57730475Y-32554500D01*
X57870485Y-32516984D01*
X57870487Y-32516982D01*
X57870489Y-32516982D01*
X57996010Y-32444512D01*
X57996010Y-32444511D01*
X57996015Y-32444509D01*
X58098509Y-32342015D01*
X58170984Y-32216485D01*
X58208500Y-32076475D01*
X58208500Y-31931525D01*
X58631500Y-31931525D01*
X58631500Y-32076474D01*
X58669017Y-32216489D01*
X58741487Y-32342010D01*
X58741489Y-32342012D01*
X58741491Y-32342015D01*
X58843985Y-32444509D01*
X58843987Y-32444510D01*
X58843989Y-32444512D01*
X58969511Y-32516982D01*
X58969512Y-32516982D01*
X58969515Y-32516984D01*
X59109525Y-32554500D01*
X59109526Y-32554500D01*
X59254474Y-32554500D01*
X59254475Y-32554500D01*
X59394485Y-32516984D01*
X59394487Y-32516982D01*
X59394489Y-32516982D01*
X59520010Y-32444512D01*
X59520010Y-32444511D01*
X59520015Y-32444509D01*
X59622509Y-32342015D01*
X59694984Y-32216485D01*
X59732500Y-32076475D01*
X59732500Y-31931525D01*
X59694984Y-31791515D01*
X59694982Y-31791512D01*
X59694982Y-31791510D01*
X59622512Y-31665989D01*
X59622510Y-31665987D01*
X59622509Y-31665985D01*
X59520015Y-31563491D01*
X59520012Y-31563489D01*
X59520010Y-31563487D01*
X59394488Y-31491017D01*
X59394489Y-31491017D01*
X59364896Y-31483087D01*
X59254475Y-31453500D01*
X59109525Y-31453500D01*
X59047790Y-31470041D01*
X58969510Y-31491017D01*
X58843989Y-31563487D01*
X58741487Y-31665989D01*
X58669017Y-31791510D01*
X58631500Y-31931525D01*
X58208500Y-31931525D01*
X58170984Y-31791515D01*
X58170982Y-31791512D01*
X58170982Y-31791510D01*
X58098512Y-31665989D01*
X58098510Y-31665987D01*
X58098509Y-31665985D01*
X57996015Y-31563491D01*
X57996012Y-31563489D01*
X57996010Y-31563487D01*
X57870488Y-31491017D01*
X57870489Y-31491017D01*
X57840896Y-31483087D01*
X57730475Y-31453500D01*
X57585525Y-31453500D01*
X57523790Y-31470041D01*
X57445510Y-31491017D01*
X57319989Y-31563487D01*
X57217487Y-31665989D01*
X57145017Y-31791510D01*
X57107500Y-31931525D01*
X42292618Y-31931525D01*
X42292609Y-31925180D01*
X42288174Y-28883525D01*
X44915500Y-28883525D01*
X44915500Y-29028474D01*
X44953017Y-29168489D01*
X45025487Y-29294010D01*
X45025489Y-29294012D01*
X45025491Y-29294015D01*
X45127985Y-29396509D01*
X45127987Y-29396510D01*
X45127989Y-29396512D01*
X45253511Y-29468982D01*
X45253512Y-29468982D01*
X45253515Y-29468984D01*
X45393525Y-29506500D01*
X45393526Y-29506500D01*
X45538474Y-29506500D01*
X45538475Y-29506500D01*
X45678485Y-29468984D01*
X45678487Y-29468982D01*
X45678489Y-29468982D01*
X45804010Y-29396512D01*
X45804010Y-29396511D01*
X45804015Y-29396509D01*
X45808999Y-29391525D01*
X58631500Y-29391525D01*
X58631500Y-29536474D01*
X58669017Y-29676489D01*
X58741487Y-29802010D01*
X58741489Y-29802012D01*
X58741491Y-29802015D01*
X58843985Y-29904509D01*
X58843987Y-29904510D01*
X58843989Y-29904512D01*
X58969511Y-29976982D01*
X58969512Y-29976982D01*
X58969515Y-29976984D01*
X59109525Y-30014500D01*
X59109526Y-30014500D01*
X59254474Y-30014500D01*
X59254475Y-30014500D01*
X59394485Y-29976984D01*
X59394487Y-29976982D01*
X59394489Y-29976982D01*
X59520010Y-29904512D01*
X59520010Y-29904511D01*
X59520015Y-29904509D01*
X59622509Y-29802015D01*
X59694984Y-29676485D01*
X59732500Y-29536475D01*
X59732500Y-29391525D01*
X59694984Y-29251515D01*
X59694982Y-29251512D01*
X59694982Y-29251510D01*
X59622512Y-29125989D01*
X59622510Y-29125987D01*
X59622509Y-29125985D01*
X59520015Y-29023491D01*
X59520012Y-29023489D01*
X59520010Y-29023487D01*
X59394488Y-28951017D01*
X59394489Y-28951017D01*
X59364896Y-28943087D01*
X59254475Y-28913500D01*
X59109525Y-28913500D01*
X59047790Y-28930041D01*
X58969510Y-28951017D01*
X58843989Y-29023487D01*
X58741487Y-29125989D01*
X58669017Y-29251510D01*
X58631500Y-29391525D01*
X45808999Y-29391525D01*
X45906509Y-29294015D01*
X45930478Y-29252500D01*
X45978982Y-29168489D01*
X45978982Y-29168487D01*
X45978984Y-29168485D01*
X46016500Y-29028475D01*
X46016500Y-28883525D01*
X45978984Y-28743515D01*
X45978982Y-28743512D01*
X45978982Y-28743510D01*
X45938005Y-28672536D01*
X45913172Y-28629525D01*
X47455500Y-28629525D01*
X47455500Y-28774474D01*
X47493017Y-28914489D01*
X47565487Y-29040010D01*
X47565489Y-29040012D01*
X47565491Y-29040015D01*
X47667985Y-29142509D01*
X47667987Y-29142510D01*
X47667989Y-29142512D01*
X47793511Y-29214982D01*
X47793512Y-29214982D01*
X47793515Y-29214984D01*
X47933525Y-29252500D01*
X47933526Y-29252500D01*
X48078474Y-29252500D01*
X48078475Y-29252500D01*
X48218485Y-29214984D01*
X48218487Y-29214982D01*
X48218489Y-29214982D01*
X48344010Y-29142512D01*
X48344010Y-29142511D01*
X48344015Y-29142509D01*
X48446509Y-29040015D01*
X48456049Y-29023491D01*
X48518982Y-28914489D01*
X48518982Y-28914487D01*
X48518984Y-28914485D01*
X48556500Y-28774475D01*
X48556500Y-28629525D01*
X48518984Y-28489515D01*
X48518982Y-28489512D01*
X48518982Y-28489510D01*
X48446512Y-28363989D01*
X48446510Y-28363987D01*
X48446509Y-28363985D01*
X48344015Y-28261491D01*
X48344012Y-28261489D01*
X48344010Y-28261487D01*
X48218488Y-28189017D01*
X48218489Y-28189017D01*
X48188896Y-28181087D01*
X48078475Y-28151500D01*
X47933525Y-28151500D01*
X47871790Y-28168041D01*
X47793510Y-28189017D01*
X47667989Y-28261487D01*
X47565487Y-28363989D01*
X47493017Y-28489510D01*
X47455500Y-28629525D01*
X45913172Y-28629525D01*
X45906512Y-28617989D01*
X45906510Y-28617987D01*
X45906509Y-28617985D01*
X45804015Y-28515491D01*
X45804012Y-28515489D01*
X45804010Y-28515487D01*
X45678488Y-28443017D01*
X45678489Y-28443017D01*
X45648896Y-28435087D01*
X45538475Y-28405500D01*
X45393525Y-28405500D01*
X45331790Y-28422041D01*
X45253510Y-28443017D01*
X45127989Y-28515487D01*
X45025487Y-28617989D01*
X44953017Y-28743510D01*
X44915500Y-28883525D01*
X42288174Y-28883525D01*
X42288165Y-28877180D01*
X42282248Y-24819525D01*
X42883500Y-24819525D01*
X42883500Y-24964474D01*
X42921017Y-25104489D01*
X42993487Y-25230010D01*
X42993489Y-25230012D01*
X42993491Y-25230015D01*
X43095985Y-25332509D01*
X43095987Y-25332510D01*
X43095989Y-25332512D01*
X43221511Y-25404982D01*
X43221512Y-25404982D01*
X43221515Y-25404984D01*
X43361525Y-25442500D01*
X43361526Y-25442500D01*
X43506474Y-25442500D01*
X43506475Y-25442500D01*
X43512058Y-25441004D01*
X47858300Y-25441004D01*
X47858300Y-26278995D01*
X47885220Y-26414327D01*
X47885220Y-26414329D01*
X47938022Y-26541806D01*
X47938028Y-26541817D01*
X48014685Y-26656541D01*
X48112258Y-26754114D01*
X48226982Y-26830771D01*
X48226993Y-26830777D01*
X48274083Y-26850282D01*
X48354472Y-26883580D01*
X48489807Y-26910500D01*
X48489808Y-26910500D01*
X48627792Y-26910500D01*
X48627793Y-26910500D01*
X48763128Y-26883580D01*
X48890611Y-26830775D01*
X49005342Y-26754114D01*
X49102914Y-26656542D01*
X49179575Y-26541811D01*
X49232380Y-26414328D01*
X49259300Y-26278993D01*
X49259300Y-25441007D01*
X49259299Y-25441004D01*
X56498300Y-25441004D01*
X56498300Y-26278995D01*
X56525220Y-26414327D01*
X56525220Y-26414329D01*
X56578022Y-26541806D01*
X56578028Y-26541817D01*
X56654685Y-26656541D01*
X56752258Y-26754114D01*
X56866982Y-26830771D01*
X56866993Y-26830777D01*
X56914083Y-26850282D01*
X56994472Y-26883580D01*
X57129807Y-26910500D01*
X57129808Y-26910500D01*
X57267792Y-26910500D01*
X57267793Y-26910500D01*
X57403128Y-26883580D01*
X57530611Y-26830775D01*
X57645342Y-26754114D01*
X57742914Y-26656542D01*
X57819575Y-26541811D01*
X57872380Y-26414328D01*
X57899300Y-26278993D01*
X57899300Y-25441007D01*
X57872380Y-25305672D01*
X57819575Y-25178189D01*
X57819574Y-25178187D01*
X57819571Y-25178182D01*
X57742914Y-25063458D01*
X57645341Y-24965885D01*
X57530617Y-24889228D01*
X57530606Y-24889222D01*
X57403128Y-24836420D01*
X57267795Y-24809500D01*
X57267793Y-24809500D01*
X57129807Y-24809500D01*
X57129804Y-24809500D01*
X56994472Y-24836420D01*
X56994470Y-24836420D01*
X56866993Y-24889222D01*
X56866982Y-24889228D01*
X56752258Y-24965885D01*
X56654685Y-25063458D01*
X56578028Y-25178182D01*
X56578022Y-25178193D01*
X56525220Y-25305670D01*
X56525220Y-25305672D01*
X56498300Y-25441004D01*
X49259299Y-25441004D01*
X49232380Y-25305672D01*
X49179575Y-25178189D01*
X49179574Y-25178187D01*
X49179571Y-25178182D01*
X49102914Y-25063458D01*
X49005341Y-24965885D01*
X48890617Y-24889228D01*
X48890606Y-24889222D01*
X48763128Y-24836420D01*
X48627795Y-24809500D01*
X48627793Y-24809500D01*
X48489807Y-24809500D01*
X48489804Y-24809500D01*
X48354472Y-24836420D01*
X48354470Y-24836420D01*
X48226993Y-24889222D01*
X48226982Y-24889228D01*
X48112258Y-24965885D01*
X48014685Y-25063458D01*
X47938028Y-25178182D01*
X47938022Y-25178193D01*
X47885220Y-25305670D01*
X47885220Y-25305672D01*
X47858300Y-25441004D01*
X43512058Y-25441004D01*
X43646485Y-25404984D01*
X43646487Y-25404982D01*
X43646489Y-25404982D01*
X43741002Y-25350415D01*
X43741010Y-25350409D01*
X43772015Y-25332509D01*
X43874509Y-25230015D01*
X43946984Y-25104485D01*
X43984500Y-24964475D01*
X43984500Y-24819525D01*
X43946984Y-24679515D01*
X43946982Y-24679512D01*
X43946982Y-24679510D01*
X43874512Y-24553989D01*
X43874510Y-24553987D01*
X43874509Y-24553985D01*
X43774049Y-24453525D01*
X49578300Y-24453525D01*
X49578300Y-24598474D01*
X49615817Y-24738489D01*
X49688287Y-24864010D01*
X49688289Y-24864012D01*
X49688291Y-24864015D01*
X49790785Y-24966509D01*
X49790787Y-24966510D01*
X49790789Y-24966512D01*
X49916311Y-25038982D01*
X49916312Y-25038982D01*
X49916315Y-25038984D01*
X50056325Y-25076500D01*
X50056326Y-25076500D01*
X50201274Y-25076500D01*
X50201275Y-25076500D01*
X50341285Y-25038984D01*
X50341287Y-25038982D01*
X50341289Y-25038982D01*
X50466810Y-24966512D01*
X50466810Y-24966511D01*
X50466815Y-24966509D01*
X50569309Y-24864015D01*
X50585241Y-24836420D01*
X50641782Y-24738489D01*
X50641782Y-24738487D01*
X50641784Y-24738485D01*
X50679300Y-24598475D01*
X50679300Y-24453525D01*
X55075500Y-24453525D01*
X55075500Y-24598474D01*
X55113017Y-24738489D01*
X55185487Y-24864010D01*
X55185489Y-24864012D01*
X55185491Y-24864015D01*
X55287985Y-24966509D01*
X55287987Y-24966510D01*
X55287989Y-24966512D01*
X55413511Y-25038982D01*
X55413512Y-25038982D01*
X55413515Y-25038984D01*
X55553525Y-25076500D01*
X55553526Y-25076500D01*
X55698474Y-25076500D01*
X55698475Y-25076500D01*
X55838485Y-25038984D01*
X55838487Y-25038982D01*
X55838489Y-25038982D01*
X55964010Y-24966512D01*
X55964010Y-24966511D01*
X55964015Y-24966509D01*
X56066509Y-24864015D01*
X56082441Y-24836420D01*
X56138982Y-24738489D01*
X56138982Y-24738487D01*
X56138984Y-24738485D01*
X56176500Y-24598475D01*
X56176500Y-24453525D01*
X56138984Y-24313515D01*
X56138982Y-24313512D01*
X56138982Y-24313510D01*
X56066512Y-24187989D01*
X56066510Y-24187987D01*
X56066509Y-24187985D01*
X55964015Y-24085491D01*
X55964012Y-24085489D01*
X55964010Y-24085487D01*
X55838488Y-24013017D01*
X55838489Y-24013017D01*
X55808896Y-24005087D01*
X55698475Y-23975500D01*
X55553525Y-23975500D01*
X55491790Y-23992041D01*
X55413510Y-24013017D01*
X55287989Y-24085487D01*
X55185487Y-24187989D01*
X55113017Y-24313510D01*
X55075500Y-24453525D01*
X50679300Y-24453525D01*
X50641784Y-24313515D01*
X50641782Y-24313512D01*
X50641782Y-24313510D01*
X50569312Y-24187989D01*
X50569310Y-24187987D01*
X50569309Y-24187985D01*
X50466815Y-24085491D01*
X50466812Y-24085489D01*
X50466810Y-24085487D01*
X50341288Y-24013017D01*
X50341289Y-24013017D01*
X50311696Y-24005087D01*
X50201275Y-23975500D01*
X50056325Y-23975500D01*
X49994590Y-23992041D01*
X49916310Y-24013017D01*
X49790789Y-24085487D01*
X49688287Y-24187989D01*
X49615817Y-24313510D01*
X49578300Y-24453525D01*
X43774049Y-24453525D01*
X43772015Y-24451491D01*
X43772012Y-24451489D01*
X43772010Y-24451487D01*
X43646488Y-24379017D01*
X43646489Y-24379017D01*
X43616896Y-24371087D01*
X43506475Y-24341500D01*
X43361525Y-24341500D01*
X43299790Y-24358041D01*
X43221510Y-24379017D01*
X43095989Y-24451487D01*
X42993487Y-24553989D01*
X42921017Y-24679510D01*
X42883500Y-24819525D01*
X42282248Y-24819525D01*
X42282239Y-24813180D01*
X42279858Y-23180394D01*
X42279765Y-23116834D01*
X42279921Y-23111145D01*
X42283831Y-23041525D01*
X42883500Y-23041525D01*
X42883500Y-23186474D01*
X42921017Y-23326489D01*
X42993487Y-23452010D01*
X42993489Y-23452012D01*
X42993491Y-23452015D01*
X43095985Y-23554509D01*
X43095987Y-23554510D01*
X43095989Y-23554512D01*
X43221511Y-23626982D01*
X43221512Y-23626982D01*
X43221515Y-23626984D01*
X43361525Y-23664500D01*
X43361526Y-23664500D01*
X43506474Y-23664500D01*
X43506475Y-23664500D01*
X43646485Y-23626984D01*
X43646487Y-23626982D01*
X43646489Y-23626982D01*
X43772010Y-23554512D01*
X43772010Y-23554511D01*
X43772015Y-23554509D01*
X43874509Y-23452015D01*
X43946984Y-23326485D01*
X43984500Y-23186475D01*
X43984500Y-23041525D01*
X43946984Y-22901515D01*
X43946982Y-22901512D01*
X43946982Y-22901510D01*
X43874512Y-22775989D01*
X43874510Y-22775987D01*
X43874509Y-22775985D01*
X43772015Y-22673491D01*
X43772012Y-22673489D01*
X43772010Y-22673487D01*
X43646488Y-22601017D01*
X43646489Y-22601017D01*
X43615438Y-22592697D01*
X43506475Y-22563500D01*
X43361525Y-22563500D01*
X43299790Y-22580041D01*
X43221510Y-22601017D01*
X43095989Y-22673487D01*
X42993487Y-22775989D01*
X42921017Y-22901510D01*
X42883500Y-23041525D01*
X42283831Y-23041525D01*
X42284435Y-23030777D01*
X42295467Y-22834312D01*
X42296709Y-22823293D01*
X42342701Y-22552600D01*
X42345170Y-22541784D01*
X42363260Y-22478993D01*
X42421182Y-22277939D01*
X42424842Y-22267480D01*
X42529922Y-22013793D01*
X42534726Y-22003817D01*
X42667549Y-21763488D01*
X42673435Y-21754119D01*
X42753694Y-21641004D01*
X47858300Y-21641004D01*
X47858300Y-21641007D01*
X47858300Y-22478993D01*
X47880918Y-22592703D01*
X47885220Y-22614327D01*
X47885220Y-22614329D01*
X47938022Y-22741806D01*
X47938028Y-22741817D01*
X48014685Y-22856541D01*
X48112258Y-22954114D01*
X48226982Y-23030771D01*
X48226993Y-23030777D01*
X48269730Y-23048479D01*
X48354472Y-23083580D01*
X48489807Y-23110500D01*
X48489808Y-23110500D01*
X48627792Y-23110500D01*
X48627793Y-23110500D01*
X48763128Y-23083580D01*
X48890611Y-23030775D01*
X49005342Y-22954114D01*
X49102914Y-22856542D01*
X49179575Y-22741811D01*
X49232380Y-22614328D01*
X49259300Y-22478993D01*
X49259300Y-21641007D01*
X49259299Y-21641004D01*
X56498300Y-21641004D01*
X56498300Y-21641007D01*
X56498300Y-22478993D01*
X56520918Y-22592703D01*
X56525220Y-22614327D01*
X56525220Y-22614329D01*
X56578022Y-22741806D01*
X56578028Y-22741817D01*
X56654685Y-22856541D01*
X56752258Y-22954114D01*
X56866982Y-23030771D01*
X56866993Y-23030777D01*
X56909730Y-23048479D01*
X56994472Y-23083580D01*
X57129807Y-23110500D01*
X57129808Y-23110500D01*
X57267792Y-23110500D01*
X57267793Y-23110500D01*
X57403128Y-23083580D01*
X57530611Y-23030775D01*
X57645342Y-22954114D01*
X57742914Y-22856542D01*
X57819575Y-22741811D01*
X57872380Y-22614328D01*
X57899300Y-22478993D01*
X57899300Y-21641007D01*
X57872380Y-21505672D01*
X57819575Y-21378189D01*
X57819574Y-21378187D01*
X57819571Y-21378182D01*
X57742914Y-21263458D01*
X57645341Y-21165885D01*
X57530617Y-21089228D01*
X57530606Y-21089222D01*
X57403128Y-21036420D01*
X57267795Y-21009500D01*
X57267793Y-21009500D01*
X57129807Y-21009500D01*
X57129804Y-21009500D01*
X56994472Y-21036420D01*
X56994470Y-21036420D01*
X56866993Y-21089222D01*
X56866982Y-21089228D01*
X56752258Y-21165885D01*
X56654685Y-21263458D01*
X56578028Y-21378182D01*
X56578022Y-21378193D01*
X56525220Y-21505670D01*
X56525220Y-21505672D01*
X56498300Y-21641004D01*
X49259299Y-21641004D01*
X49232380Y-21505672D01*
X49179575Y-21378189D01*
X49179574Y-21378187D01*
X49179571Y-21378182D01*
X49102914Y-21263458D01*
X49005341Y-21165885D01*
X48890617Y-21089228D01*
X48890606Y-21089222D01*
X48763128Y-21036420D01*
X48627795Y-21009500D01*
X48627793Y-21009500D01*
X48489807Y-21009500D01*
X48489804Y-21009500D01*
X48354472Y-21036420D01*
X48354470Y-21036420D01*
X48226993Y-21089222D01*
X48226982Y-21089228D01*
X48112258Y-21165885D01*
X48014685Y-21263458D01*
X47938028Y-21378182D01*
X47938022Y-21378193D01*
X47885220Y-21505670D01*
X47885220Y-21505672D01*
X47858300Y-21641004D01*
X42753694Y-21641004D01*
X42832336Y-21530168D01*
X42839240Y-21521510D01*
X43022217Y-21316756D01*
X43030043Y-21308931D01*
X43234743Y-21125999D01*
X43234777Y-21125969D01*
X43243456Y-21119047D01*
X43467383Y-20960159D01*
X43476761Y-20954266D01*
X43717096Y-20821435D01*
X43727063Y-20816635D01*
X43980756Y-20711549D01*
X43991195Y-20707896D01*
X44255066Y-20631873D01*
X44265866Y-20629408D01*
X44536560Y-20583413D01*
X44547582Y-20582171D01*
X44823760Y-20566657D01*
X44829313Y-20566501D01*
X61087975Y-20566501D01*
X61093527Y-20566657D01*
G37*
%TD.AperFunction*%
%TD*%
%TA.AperFunction,Conductor*%
%TO.N,+3V3*%
G36*
X55950420Y-43118981D02*
G01*
X55957998Y-43121443D01*
X56021496Y-43131500D01*
X63509875Y-43131500D01*
X63568066Y-43150407D01*
X63604030Y-43199907D01*
X63608875Y-43230644D01*
X63507604Y-112703004D01*
X63507604Y-112703006D01*
X63507594Y-112709754D01*
X63507500Y-112710108D01*
X63507500Y-112773355D01*
X63507495Y-112773368D01*
X63507344Y-112778760D01*
X63491793Y-113055679D01*
X63490550Y-113066711D01*
X63444561Y-113337386D01*
X63442091Y-113348210D01*
X63366081Y-113612045D01*
X63362414Y-113622524D01*
X63257344Y-113876184D01*
X63252527Y-113886186D01*
X63119719Y-114126485D01*
X63113812Y-114135886D01*
X62954933Y-114359804D01*
X62948012Y-114368483D01*
X62765060Y-114573209D01*
X62757209Y-114581060D01*
X62552483Y-114764012D01*
X62543804Y-114770933D01*
X62319886Y-114929812D01*
X62310485Y-114935719D01*
X62070186Y-115068527D01*
X62060184Y-115073344D01*
X61806524Y-115178414D01*
X61796045Y-115182081D01*
X61532210Y-115258091D01*
X61521386Y-115260561D01*
X61250711Y-115306550D01*
X61239679Y-115307793D01*
X60962778Y-115323344D01*
X60957227Y-115323500D01*
X44960773Y-115323500D01*
X44955222Y-115323344D01*
X44678320Y-115307793D01*
X44667288Y-115306550D01*
X44396613Y-115260561D01*
X44385789Y-115258091D01*
X44121954Y-115182081D01*
X44111475Y-115178414D01*
X43857815Y-115073344D01*
X43847813Y-115068527D01*
X43607514Y-114935719D01*
X43598113Y-114929812D01*
X43374195Y-114770933D01*
X43365516Y-114764012D01*
X43270270Y-114678896D01*
X43160782Y-114581052D01*
X43152947Y-114573217D01*
X43042381Y-114449493D01*
X42969987Y-114368483D01*
X42963066Y-114359804D01*
X42804187Y-114135886D01*
X42798280Y-114126485D01*
X42665472Y-113886186D01*
X42660655Y-113876184D01*
X42555585Y-113622524D01*
X42551918Y-113612045D01*
X42475904Y-113348195D01*
X42473441Y-113337401D01*
X42427448Y-113066706D01*
X42426206Y-113055679D01*
X42410656Y-112778778D01*
X42410500Y-112773376D01*
X42410500Y-112773355D01*
X42410500Y-112710108D01*
X42410404Y-112709751D01*
X42409654Y-112195525D01*
X56506500Y-112195525D01*
X56506500Y-112340474D01*
X56544017Y-112480489D01*
X56616487Y-112606010D01*
X56616489Y-112606012D01*
X56616491Y-112606015D01*
X56718985Y-112708509D01*
X56718987Y-112708510D01*
X56718989Y-112708512D01*
X56844511Y-112780982D01*
X56844512Y-112780982D01*
X56844515Y-112780984D01*
X56984525Y-112818500D01*
X56984526Y-112818500D01*
X57129474Y-112818500D01*
X57129475Y-112818500D01*
X57269485Y-112780984D01*
X57269487Y-112780982D01*
X57269489Y-112780982D01*
X57395010Y-112708512D01*
X57395010Y-112708511D01*
X57395015Y-112708509D01*
X57497509Y-112606015D01*
X57569984Y-112480485D01*
X57607500Y-112340475D01*
X57607500Y-112195525D01*
X57569984Y-112055515D01*
X57569982Y-112055512D01*
X57569982Y-112055510D01*
X57497512Y-111929989D01*
X57497510Y-111929987D01*
X57497509Y-111929985D01*
X57395015Y-111827491D01*
X57395012Y-111827489D01*
X57395010Y-111827487D01*
X57269488Y-111755017D01*
X57269489Y-111755017D01*
X57239896Y-111747087D01*
X57129475Y-111717500D01*
X56984525Y-111717500D01*
X56922790Y-111734041D01*
X56844510Y-111755017D01*
X56718989Y-111827487D01*
X56616487Y-111929989D01*
X56544017Y-112055510D01*
X56506500Y-112195525D01*
X42409654Y-112195525D01*
X42405951Y-109655525D01*
X47963500Y-109655525D01*
X47963500Y-109800474D01*
X48001017Y-109940489D01*
X48073487Y-110066010D01*
X48073489Y-110066012D01*
X48073491Y-110066015D01*
X48175985Y-110168509D01*
X48175987Y-110168510D01*
X48175989Y-110168512D01*
X48301511Y-110240982D01*
X48301512Y-110240982D01*
X48301515Y-110240984D01*
X48441525Y-110278500D01*
X48441526Y-110278500D01*
X48586474Y-110278500D01*
X48586475Y-110278500D01*
X48726485Y-110240984D01*
X48726487Y-110240982D01*
X48726489Y-110240982D01*
X48852010Y-110168512D01*
X48852010Y-110168511D01*
X48852015Y-110168509D01*
X48954509Y-110066015D01*
X49026984Y-109940485D01*
X49064500Y-109800475D01*
X49064500Y-109655525D01*
X49026984Y-109515515D01*
X49026982Y-109515512D01*
X49026982Y-109515510D01*
X48954512Y-109389989D01*
X48954510Y-109389987D01*
X48954509Y-109389985D01*
X48852015Y-109287491D01*
X48852012Y-109287489D01*
X48852010Y-109287487D01*
X48726488Y-109215017D01*
X48726489Y-109215017D01*
X48696896Y-109207087D01*
X48586475Y-109177500D01*
X48441525Y-109177500D01*
X48379790Y-109194041D01*
X48301510Y-109215017D01*
X48175989Y-109287487D01*
X48073487Y-109389989D01*
X48001017Y-109515510D01*
X47963500Y-109655525D01*
X42405951Y-109655525D01*
X42402548Y-107322212D01*
X59437995Y-107322212D01*
X59437995Y-107561787D01*
X59475470Y-107798399D01*
X59475472Y-107798404D01*
X59549503Y-108026247D01*
X59658265Y-108239704D01*
X59799080Y-108433519D01*
X59968481Y-108602920D01*
X60162296Y-108743735D01*
X60375753Y-108852497D01*
X60603596Y-108926528D01*
X60603597Y-108926528D01*
X60603600Y-108926529D01*
X60840213Y-108964005D01*
X60840216Y-108964005D01*
X61079787Y-108964005D01*
X61316399Y-108926529D01*
X61316400Y-108926528D01*
X61316404Y-108926528D01*
X61544247Y-108852497D01*
X61757704Y-108743735D01*
X61951519Y-108602920D01*
X62120920Y-108433519D01*
X62261735Y-108239704D01*
X62370497Y-108026247D01*
X62444528Y-107798404D01*
X62444529Y-107798399D01*
X62482005Y-107561787D01*
X62482005Y-107322212D01*
X62444529Y-107085600D01*
X62426028Y-107028659D01*
X62370497Y-106857753D01*
X62261735Y-106644296D01*
X62120920Y-106450481D01*
X61951519Y-106281080D01*
X61757704Y-106140265D01*
X61757703Y-106140264D01*
X61757701Y-106140263D01*
X61544247Y-106031503D01*
X61316399Y-105957470D01*
X61079787Y-105919995D01*
X61079784Y-105919995D01*
X60840216Y-105919995D01*
X60840213Y-105919995D01*
X60603600Y-105957470D01*
X60375752Y-106031503D01*
X60162298Y-106140263D01*
X59968482Y-106281079D01*
X59799079Y-106450482D01*
X59658263Y-106644298D01*
X59549503Y-106857752D01*
X59475470Y-107085600D01*
X59437995Y-107322212D01*
X42402548Y-107322212D01*
X42397432Y-103813525D01*
X59393500Y-103813525D01*
X59393500Y-103958474D01*
X59431017Y-104098489D01*
X59503487Y-104224010D01*
X59503489Y-104224012D01*
X59503491Y-104224015D01*
X59605985Y-104326509D01*
X59605987Y-104326510D01*
X59605989Y-104326512D01*
X59731511Y-104398982D01*
X59731512Y-104398982D01*
X59731515Y-104398984D01*
X59871525Y-104436500D01*
X59871526Y-104436500D01*
X60016474Y-104436500D01*
X60016475Y-104436500D01*
X60156485Y-104398984D01*
X60156487Y-104398982D01*
X60156489Y-104398982D01*
X60282010Y-104326512D01*
X60282010Y-104326511D01*
X60282015Y-104326509D01*
X60384509Y-104224015D01*
X60456984Y-104098485D01*
X60494500Y-103958475D01*
X60494500Y-103813525D01*
X60456984Y-103673515D01*
X60456982Y-103673512D01*
X60456982Y-103673510D01*
X60384512Y-103547989D01*
X60384510Y-103547987D01*
X60384509Y-103547985D01*
X60282015Y-103445491D01*
X60282012Y-103445489D01*
X60282010Y-103445487D01*
X60156488Y-103373017D01*
X60156489Y-103373017D01*
X60126896Y-103365087D01*
X60016475Y-103335500D01*
X59871525Y-103335500D01*
X59809790Y-103352041D01*
X59731510Y-103373017D01*
X59605989Y-103445487D01*
X59503487Y-103547989D01*
X59431017Y-103673510D01*
X59393500Y-103813525D01*
X42397432Y-103813525D01*
X42391136Y-99495525D01*
X44661500Y-99495525D01*
X44661500Y-99640474D01*
X44699017Y-99780489D01*
X44771487Y-99906010D01*
X44771489Y-99906012D01*
X44771491Y-99906015D01*
X44873985Y-100008509D01*
X44873987Y-100008510D01*
X44873989Y-100008512D01*
X44999511Y-100080982D01*
X44999512Y-100080982D01*
X44999515Y-100080984D01*
X45139525Y-100118500D01*
X45139526Y-100118500D01*
X45284474Y-100118500D01*
X45284475Y-100118500D01*
X45424485Y-100080984D01*
X45424487Y-100080982D01*
X45424489Y-100080982D01*
X45550010Y-100008512D01*
X45550010Y-100008511D01*
X45550015Y-100008509D01*
X45652509Y-99906015D01*
X45724984Y-99780485D01*
X45762500Y-99640475D01*
X45762500Y-99495525D01*
X45724984Y-99355515D01*
X45724982Y-99355512D01*
X45724982Y-99355510D01*
X45652512Y-99229989D01*
X45652510Y-99229987D01*
X45652509Y-99229985D01*
X45550015Y-99127491D01*
X45550012Y-99127489D01*
X45550010Y-99127487D01*
X45424488Y-99055017D01*
X45424489Y-99055017D01*
X45394896Y-99047087D01*
X45284475Y-99017500D01*
X45139525Y-99017500D01*
X45077790Y-99034041D01*
X44999510Y-99055017D01*
X44873989Y-99127487D01*
X44771487Y-99229989D01*
X44699017Y-99355510D01*
X44661500Y-99495525D01*
X42391136Y-99495525D01*
X42373358Y-87303525D01*
X58885500Y-87303525D01*
X58885500Y-87448474D01*
X58923017Y-87588489D01*
X58995487Y-87714010D01*
X58995489Y-87714012D01*
X58995491Y-87714015D01*
X59097985Y-87816509D01*
X59097987Y-87816510D01*
X59097989Y-87816512D01*
X59223511Y-87888982D01*
X59223512Y-87888982D01*
X59223515Y-87888984D01*
X59363525Y-87926500D01*
X59363526Y-87926500D01*
X59508474Y-87926500D01*
X59508475Y-87926500D01*
X59648485Y-87888984D01*
X59648487Y-87888982D01*
X59648489Y-87888982D01*
X59774010Y-87816512D01*
X59774010Y-87816511D01*
X59774015Y-87816509D01*
X59876509Y-87714015D01*
X59948984Y-87588485D01*
X59986500Y-87448475D01*
X59986500Y-87303525D01*
X59948984Y-87163515D01*
X59948982Y-87163512D01*
X59948982Y-87163510D01*
X59876512Y-87037989D01*
X59876510Y-87037987D01*
X59876509Y-87037985D01*
X59774015Y-86935491D01*
X59774012Y-86935489D01*
X59774010Y-86935487D01*
X59648488Y-86863017D01*
X59648489Y-86863017D01*
X59618896Y-86855087D01*
X59508475Y-86825500D01*
X59363525Y-86825500D01*
X59301790Y-86842041D01*
X59223510Y-86863017D01*
X59097989Y-86935487D01*
X58995487Y-87037989D01*
X58923017Y-87163510D01*
X58885500Y-87303525D01*
X42373358Y-87303525D01*
X42370697Y-85478645D01*
X43695500Y-85478645D01*
X43695500Y-85717354D01*
X43732840Y-85953110D01*
X43732842Y-85953115D01*
X43806605Y-86180134D01*
X43914973Y-86392819D01*
X44055279Y-86585933D01*
X44224067Y-86754721D01*
X44417181Y-86895027D01*
X44629866Y-87003395D01*
X44856885Y-87077158D01*
X44856886Y-87077158D01*
X44856889Y-87077159D01*
X45092646Y-87114500D01*
X45092649Y-87114500D01*
X45331354Y-87114500D01*
X45567110Y-87077159D01*
X45567111Y-87077158D01*
X45567115Y-87077158D01*
X45794134Y-87003395D01*
X46006819Y-86895027D01*
X46199933Y-86754721D01*
X46368721Y-86585933D01*
X46509027Y-86392819D01*
X46617395Y-86180134D01*
X46691158Y-85953115D01*
X46697699Y-85911817D01*
X46728500Y-85717354D01*
X46728500Y-85478645D01*
X46691159Y-85242889D01*
X46673658Y-85189026D01*
X46617395Y-85015866D01*
X46509027Y-84803181D01*
X46368721Y-84610067D01*
X46199933Y-84441279D01*
X46006819Y-84300973D01*
X46006818Y-84300972D01*
X46006816Y-84300971D01*
X45794134Y-84192605D01*
X45567110Y-84118840D01*
X45331354Y-84081500D01*
X45331351Y-84081500D01*
X45092649Y-84081500D01*
X45092646Y-84081500D01*
X44856889Y-84118840D01*
X44629865Y-84192605D01*
X44417183Y-84300971D01*
X44224068Y-84441278D01*
X44055278Y-84610068D01*
X43914971Y-84803183D01*
X43806605Y-85015865D01*
X43732840Y-85242889D01*
X43695500Y-85478645D01*
X42370697Y-85478645D01*
X42364840Y-81461525D01*
X46185500Y-81461525D01*
X46185500Y-81606474D01*
X46223017Y-81746489D01*
X46295487Y-81872010D01*
X46295489Y-81872012D01*
X46295491Y-81872015D01*
X46397985Y-81974509D01*
X46397987Y-81974510D01*
X46397989Y-81974512D01*
X46523511Y-82046982D01*
X46523512Y-82046982D01*
X46523515Y-82046984D01*
X46663525Y-82084500D01*
X46663526Y-82084500D01*
X46808474Y-82084500D01*
X46808475Y-82084500D01*
X46948485Y-82046984D01*
X46948487Y-82046982D01*
X46948489Y-82046982D01*
X47074010Y-81974512D01*
X47074010Y-81974511D01*
X47074015Y-81974509D01*
X47176509Y-81872015D01*
X47248984Y-81746485D01*
X47286500Y-81606475D01*
X47286500Y-81461525D01*
X49741500Y-81461525D01*
X49741500Y-81606474D01*
X49779017Y-81746489D01*
X49851487Y-81872010D01*
X49851489Y-81872012D01*
X49851491Y-81872015D01*
X49953985Y-81974509D01*
X49953987Y-81974510D01*
X49953989Y-81974512D01*
X50079511Y-82046982D01*
X50079512Y-82046982D01*
X50079515Y-82046984D01*
X50219525Y-82084500D01*
X50219526Y-82084500D01*
X50364474Y-82084500D01*
X50364475Y-82084500D01*
X50504485Y-82046984D01*
X50504487Y-82046982D01*
X50504489Y-82046982D01*
X50630010Y-81974512D01*
X50630010Y-81974511D01*
X50630015Y-81974509D01*
X50732509Y-81872015D01*
X50804984Y-81746485D01*
X50842500Y-81606475D01*
X50842500Y-81461525D01*
X50804984Y-81321515D01*
X50804982Y-81321512D01*
X50804982Y-81321510D01*
X50732512Y-81195989D01*
X50732510Y-81195987D01*
X50732509Y-81195985D01*
X50630015Y-81093491D01*
X50630012Y-81093489D01*
X50630010Y-81093487D01*
X50524848Y-81032772D01*
X50524847Y-81032772D01*
X50504487Y-81021017D01*
X50504486Y-81021016D01*
X50504485Y-81021016D01*
X50364475Y-80983500D01*
X50219525Y-80983500D01*
X50157790Y-81000041D01*
X50079510Y-81021017D01*
X49953989Y-81093487D01*
X49851487Y-81195989D01*
X49779017Y-81321510D01*
X49741500Y-81461525D01*
X47286500Y-81461525D01*
X47248984Y-81321515D01*
X47248982Y-81321512D01*
X47248982Y-81321510D01*
X47176512Y-81195989D01*
X47176510Y-81195987D01*
X47176509Y-81195985D01*
X47074015Y-81093491D01*
X47074012Y-81093489D01*
X47074010Y-81093487D01*
X46948488Y-81021017D01*
X46948489Y-81021017D01*
X46918896Y-81013087D01*
X46808475Y-80983500D01*
X46663525Y-80983500D01*
X46601790Y-81000041D01*
X46523510Y-81021017D01*
X46397989Y-81093487D01*
X46295487Y-81195989D01*
X46223017Y-81321510D01*
X46185500Y-81461525D01*
X42364840Y-81461525D01*
X42364099Y-80953525D01*
X60409500Y-80953525D01*
X60409500Y-81098474D01*
X60447017Y-81238489D01*
X60519487Y-81364010D01*
X60519489Y-81364012D01*
X60519491Y-81364015D01*
X60621985Y-81466509D01*
X60621987Y-81466510D01*
X60621989Y-81466512D01*
X60747511Y-81538982D01*
X60747512Y-81538982D01*
X60747515Y-81538984D01*
X60887525Y-81576500D01*
X60887526Y-81576500D01*
X61032474Y-81576500D01*
X61032475Y-81576500D01*
X61172485Y-81538984D01*
X61172487Y-81538982D01*
X61172489Y-81538982D01*
X61298010Y-81466512D01*
X61298010Y-81466511D01*
X61298015Y-81466509D01*
X61400509Y-81364015D01*
X61400512Y-81364010D01*
X61472982Y-81238489D01*
X61472982Y-81238487D01*
X61472984Y-81238485D01*
X61510500Y-81098475D01*
X61510500Y-80953525D01*
X61472984Y-80813515D01*
X61472982Y-80813512D01*
X61472982Y-80813510D01*
X61400512Y-80687989D01*
X61400510Y-80687987D01*
X61400509Y-80687985D01*
X61298015Y-80585491D01*
X61298012Y-80585489D01*
X61298010Y-80585487D01*
X61172488Y-80513017D01*
X61172489Y-80513017D01*
X61142896Y-80505087D01*
X61032475Y-80475500D01*
X60887525Y-80475500D01*
X60825790Y-80492041D01*
X60747510Y-80513017D01*
X60621989Y-80585487D01*
X60519487Y-80687989D01*
X60447017Y-80813510D01*
X60409500Y-80953525D01*
X42364099Y-80953525D01*
X42354840Y-74603525D01*
X56345500Y-74603525D01*
X56345500Y-74748474D01*
X56383017Y-74888489D01*
X56455487Y-75014010D01*
X56455489Y-75014012D01*
X56455491Y-75014015D01*
X56557985Y-75116509D01*
X56557987Y-75116510D01*
X56557989Y-75116512D01*
X56683511Y-75188982D01*
X56683512Y-75188982D01*
X56683515Y-75188984D01*
X56823525Y-75226500D01*
X56823526Y-75226500D01*
X56968474Y-75226500D01*
X56968475Y-75226500D01*
X57108485Y-75188984D01*
X57108487Y-75188982D01*
X57108489Y-75188982D01*
X57234010Y-75116512D01*
X57234010Y-75116511D01*
X57234015Y-75116509D01*
X57336509Y-75014015D01*
X57408984Y-74888485D01*
X57446500Y-74748475D01*
X57446500Y-74603525D01*
X57408984Y-74463515D01*
X57408982Y-74463512D01*
X57408982Y-74463510D01*
X57336512Y-74337989D01*
X57336510Y-74337987D01*
X57336509Y-74337985D01*
X57234015Y-74235491D01*
X57234012Y-74235489D01*
X57234010Y-74235487D01*
X57108488Y-74163017D01*
X57108489Y-74163017D01*
X57078896Y-74155087D01*
X56968475Y-74125500D01*
X56823525Y-74125500D01*
X56761790Y-74142041D01*
X56683510Y-74163017D01*
X56557989Y-74235487D01*
X56455487Y-74337989D01*
X56383017Y-74463510D01*
X56345500Y-74603525D01*
X42354840Y-74603525D01*
X42346253Y-68714645D01*
X43695500Y-68714645D01*
X43695500Y-68953354D01*
X43732840Y-69189110D01*
X43732842Y-69189115D01*
X43806605Y-69416134D01*
X43914973Y-69628819D01*
X44055279Y-69821933D01*
X44224067Y-69990721D01*
X44417181Y-70131027D01*
X44629866Y-70239395D01*
X44856885Y-70313158D01*
X44856886Y-70313158D01*
X44856889Y-70313159D01*
X45092646Y-70350500D01*
X45092649Y-70350500D01*
X45331354Y-70350500D01*
X45567110Y-70313159D01*
X45567111Y-70313158D01*
X45567115Y-70313158D01*
X45794134Y-70239395D01*
X46006819Y-70131027D01*
X46143771Y-70031525D01*
X54313500Y-70031525D01*
X54313500Y-70176474D01*
X54351017Y-70316489D01*
X54423487Y-70442010D01*
X54423489Y-70442012D01*
X54423491Y-70442015D01*
X54525985Y-70544509D01*
X54525987Y-70544510D01*
X54525989Y-70544512D01*
X54651511Y-70616982D01*
X54651512Y-70616982D01*
X54651515Y-70616984D01*
X54791525Y-70654500D01*
X54791526Y-70654500D01*
X54936474Y-70654500D01*
X54936475Y-70654500D01*
X55076485Y-70616984D01*
X55076487Y-70616982D01*
X55076489Y-70616982D01*
X55202010Y-70544512D01*
X55202010Y-70544511D01*
X55202015Y-70544509D01*
X55304509Y-70442015D01*
X55304512Y-70442010D01*
X55376982Y-70316489D01*
X55376982Y-70316487D01*
X55376984Y-70316485D01*
X55414500Y-70176475D01*
X55414500Y-70031525D01*
X55376984Y-69891515D01*
X55376982Y-69891512D01*
X55376982Y-69891510D01*
X55304512Y-69765989D01*
X55304510Y-69765987D01*
X55304509Y-69765985D01*
X55202015Y-69663491D01*
X55202012Y-69663489D01*
X55202010Y-69663487D01*
X55076488Y-69591017D01*
X55076489Y-69591017D01*
X55046896Y-69583087D01*
X54936475Y-69553500D01*
X54791525Y-69553500D01*
X54729790Y-69570041D01*
X54651510Y-69591017D01*
X54525989Y-69663487D01*
X54423487Y-69765989D01*
X54351017Y-69891510D01*
X54313500Y-70031525D01*
X46143771Y-70031525D01*
X46199933Y-69990721D01*
X46368721Y-69821933D01*
X46509027Y-69628819D01*
X46617395Y-69416134D01*
X46691158Y-69189115D01*
X46697699Y-69147817D01*
X46728500Y-68953354D01*
X46728500Y-68714645D01*
X46691159Y-68478889D01*
X46673658Y-68425026D01*
X46617395Y-68251866D01*
X46509027Y-68039181D01*
X46368721Y-67846067D01*
X46199933Y-67677279D01*
X46006819Y-67536973D01*
X46006818Y-67536972D01*
X46006816Y-67536971D01*
X45794134Y-67428605D01*
X45567110Y-67354840D01*
X45331354Y-67317500D01*
X45331351Y-67317500D01*
X45092649Y-67317500D01*
X45092646Y-67317500D01*
X44856889Y-67354840D01*
X44629865Y-67428605D01*
X44417183Y-67536971D01*
X44224068Y-67677278D01*
X44055278Y-67846068D01*
X43914971Y-68039183D01*
X43806605Y-68251865D01*
X43732840Y-68478889D01*
X43695500Y-68714645D01*
X42346253Y-68714645D01*
X42343729Y-66983525D01*
X51773500Y-66983525D01*
X51773500Y-67128474D01*
X51811017Y-67268489D01*
X51883487Y-67394010D01*
X51883489Y-67394012D01*
X51883491Y-67394015D01*
X51985985Y-67496509D01*
X51985987Y-67496510D01*
X51985989Y-67496512D01*
X52111511Y-67568982D01*
X52111512Y-67568982D01*
X52111515Y-67568984D01*
X52251525Y-67606500D01*
X52251526Y-67606500D01*
X52396474Y-67606500D01*
X52396475Y-67606500D01*
X52536485Y-67568984D01*
X52536487Y-67568982D01*
X52536489Y-67568982D01*
X52662010Y-67496512D01*
X52662010Y-67496511D01*
X52662015Y-67496509D01*
X52764509Y-67394015D01*
X52836984Y-67268485D01*
X52874500Y-67128475D01*
X52874500Y-66983525D01*
X52836984Y-66843515D01*
X52836982Y-66843512D01*
X52836982Y-66843510D01*
X52764512Y-66717989D01*
X52764510Y-66717987D01*
X52764509Y-66717985D01*
X52662015Y-66615491D01*
X52662012Y-66615489D01*
X52662010Y-66615487D01*
X52536488Y-66543017D01*
X52536489Y-66543017D01*
X52506896Y-66535087D01*
X52396475Y-66505500D01*
X52251525Y-66505500D01*
X52189790Y-66522041D01*
X52111510Y-66543017D01*
X51985989Y-66615487D01*
X51883487Y-66717989D01*
X51811017Y-66843510D01*
X51773500Y-66983525D01*
X42343729Y-66983525D01*
X42340395Y-64697525D01*
X43391500Y-64697525D01*
X43391500Y-64842474D01*
X43429017Y-64982489D01*
X43501487Y-65108010D01*
X43501489Y-65108012D01*
X43501491Y-65108015D01*
X43603985Y-65210509D01*
X43603987Y-65210510D01*
X43603989Y-65210512D01*
X43729511Y-65282982D01*
X43729512Y-65282982D01*
X43729515Y-65282984D01*
X43869525Y-65320500D01*
X43869526Y-65320500D01*
X44014474Y-65320500D01*
X44014475Y-65320500D01*
X44154485Y-65282984D01*
X44154487Y-65282982D01*
X44154489Y-65282982D01*
X44280010Y-65210512D01*
X44280010Y-65210511D01*
X44280015Y-65210509D01*
X44382509Y-65108015D01*
X44454984Y-64982485D01*
X44492500Y-64842475D01*
X44492500Y-64697525D01*
X52027500Y-64697525D01*
X52027500Y-64842474D01*
X52065017Y-64982489D01*
X52137487Y-65108010D01*
X52137489Y-65108012D01*
X52137491Y-65108015D01*
X52239985Y-65210509D01*
X52239987Y-65210510D01*
X52239989Y-65210512D01*
X52365511Y-65282982D01*
X52365512Y-65282982D01*
X52365515Y-65282984D01*
X52505525Y-65320500D01*
X52505526Y-65320500D01*
X52650474Y-65320500D01*
X52650475Y-65320500D01*
X52790485Y-65282984D01*
X52790487Y-65282982D01*
X52790489Y-65282982D01*
X52916010Y-65210512D01*
X52916010Y-65210511D01*
X52916015Y-65210509D01*
X53018509Y-65108015D01*
X53090984Y-64982485D01*
X53128500Y-64842475D01*
X53128500Y-64697525D01*
X53090984Y-64557515D01*
X53090982Y-64557512D01*
X53090982Y-64557510D01*
X53018512Y-64431989D01*
X53018510Y-64431987D01*
X53018509Y-64431985D01*
X52916015Y-64329491D01*
X52916012Y-64329489D01*
X52916010Y-64329487D01*
X52790488Y-64257017D01*
X52790489Y-64257017D01*
X52760896Y-64249087D01*
X52650475Y-64219500D01*
X52505525Y-64219500D01*
X52443790Y-64236041D01*
X52365510Y-64257017D01*
X52239989Y-64329487D01*
X52137487Y-64431989D01*
X52065017Y-64557510D01*
X52027500Y-64697525D01*
X44492500Y-64697525D01*
X44454984Y-64557515D01*
X44454982Y-64557512D01*
X44454982Y-64557510D01*
X44382512Y-64431989D01*
X44382510Y-64431987D01*
X44382509Y-64431985D01*
X44280015Y-64329491D01*
X44280012Y-64329489D01*
X44280010Y-64329487D01*
X44154488Y-64257017D01*
X44154489Y-64257017D01*
X44124896Y-64249087D01*
X44014475Y-64219500D01*
X43869525Y-64219500D01*
X43807790Y-64236041D01*
X43729510Y-64257017D01*
X43603989Y-64329487D01*
X43501487Y-64431989D01*
X43429017Y-64557510D01*
X43391500Y-64697525D01*
X42340395Y-64697525D01*
X42338543Y-63427525D01*
X48217500Y-63427525D01*
X48217500Y-63572474D01*
X48255017Y-63712489D01*
X48327487Y-63838010D01*
X48327489Y-63838012D01*
X48327491Y-63838015D01*
X48429985Y-63940509D01*
X48429987Y-63940510D01*
X48429989Y-63940512D01*
X48555511Y-64012982D01*
X48555512Y-64012982D01*
X48555515Y-64012984D01*
X48695525Y-64050500D01*
X48695526Y-64050500D01*
X48840474Y-64050500D01*
X48840475Y-64050500D01*
X48980485Y-64012984D01*
X48980487Y-64012982D01*
X48980489Y-64012982D01*
X49106010Y-63940512D01*
X49106010Y-63940511D01*
X49106015Y-63940509D01*
X49208509Y-63838015D01*
X49280984Y-63712485D01*
X49318500Y-63572475D01*
X49318500Y-63427525D01*
X49280984Y-63287515D01*
X49280982Y-63287512D01*
X49280982Y-63287510D01*
X49208512Y-63161989D01*
X49208510Y-63161987D01*
X49208509Y-63161985D01*
X49106015Y-63059491D01*
X49106012Y-63059489D01*
X49106010Y-63059487D01*
X48980488Y-62987017D01*
X48980489Y-62987017D01*
X48950896Y-62979087D01*
X48840475Y-62949500D01*
X48695525Y-62949500D01*
X48633790Y-62966041D01*
X48555510Y-62987017D01*
X48429989Y-63059487D01*
X48327487Y-63161989D01*
X48255017Y-63287510D01*
X48217500Y-63427525D01*
X42338543Y-63427525D01*
X42328543Y-56569525D01*
X61425500Y-56569525D01*
X61425500Y-56714474D01*
X61463017Y-56854489D01*
X61535487Y-56980010D01*
X61535489Y-56980012D01*
X61535491Y-56980015D01*
X61637985Y-57082509D01*
X61637987Y-57082510D01*
X61637989Y-57082512D01*
X61763511Y-57154982D01*
X61763512Y-57154982D01*
X61763515Y-57154984D01*
X61903525Y-57192500D01*
X61903526Y-57192500D01*
X62048474Y-57192500D01*
X62048475Y-57192500D01*
X62188485Y-57154984D01*
X62188487Y-57154982D01*
X62188489Y-57154982D01*
X62314010Y-57082512D01*
X62314010Y-57082511D01*
X62314015Y-57082509D01*
X62416509Y-56980015D01*
X62488984Y-56854485D01*
X62526500Y-56714475D01*
X62526500Y-56569525D01*
X62488984Y-56429515D01*
X62488982Y-56429512D01*
X62488982Y-56429510D01*
X62416512Y-56303989D01*
X62416510Y-56303987D01*
X62416509Y-56303985D01*
X62314015Y-56201491D01*
X62314012Y-56201489D01*
X62314010Y-56201487D01*
X62188488Y-56129017D01*
X62188489Y-56129017D01*
X62158896Y-56121087D01*
X62048475Y-56091500D01*
X61903525Y-56091500D01*
X61841790Y-56108041D01*
X61763510Y-56129017D01*
X61637989Y-56201487D01*
X61535487Y-56303989D01*
X61463017Y-56429510D01*
X61425500Y-56569525D01*
X42328543Y-56569525D01*
X42327432Y-55807525D01*
X43645500Y-55807525D01*
X43645500Y-55952474D01*
X43683017Y-56092489D01*
X43755487Y-56218010D01*
X43755489Y-56218012D01*
X43755491Y-56218015D01*
X43857985Y-56320509D01*
X43857987Y-56320510D01*
X43857989Y-56320512D01*
X43983511Y-56392982D01*
X43983512Y-56392982D01*
X43983515Y-56392984D01*
X44123525Y-56430500D01*
X44123526Y-56430500D01*
X44268474Y-56430500D01*
X44268475Y-56430500D01*
X44408485Y-56392984D01*
X44408487Y-56392982D01*
X44408489Y-56392982D01*
X44534010Y-56320512D01*
X44534010Y-56320511D01*
X44534015Y-56320509D01*
X44636509Y-56218015D01*
X44646049Y-56201491D01*
X44708982Y-56092489D01*
X44708982Y-56092487D01*
X44708984Y-56092485D01*
X44746500Y-55952475D01*
X44746500Y-55807525D01*
X45677500Y-55807525D01*
X45677500Y-55952474D01*
X45715017Y-56092489D01*
X45787487Y-56218010D01*
X45787489Y-56218012D01*
X45787491Y-56218015D01*
X45889985Y-56320509D01*
X45889987Y-56320510D01*
X45889989Y-56320512D01*
X46015511Y-56392982D01*
X46015512Y-56392982D01*
X46015515Y-56392984D01*
X46155525Y-56430500D01*
X46155526Y-56430500D01*
X46300474Y-56430500D01*
X46300475Y-56430500D01*
X46440485Y-56392984D01*
X46440487Y-56392982D01*
X46440489Y-56392982D01*
X46566010Y-56320512D01*
X46566010Y-56320511D01*
X46566015Y-56320509D01*
X46668509Y-56218015D01*
X46678049Y-56201491D01*
X46740982Y-56092489D01*
X46740982Y-56092487D01*
X46740984Y-56092485D01*
X46778500Y-55952475D01*
X46778500Y-55807525D01*
X46740984Y-55667515D01*
X46740982Y-55667512D01*
X46740982Y-55667510D01*
X46668512Y-55541989D01*
X46668510Y-55541987D01*
X46668509Y-55541985D01*
X46566015Y-55439491D01*
X46566012Y-55439489D01*
X46566010Y-55439487D01*
X46440488Y-55367017D01*
X46440489Y-55367017D01*
X46410896Y-55359087D01*
X46300475Y-55329500D01*
X46155525Y-55329500D01*
X46093790Y-55346041D01*
X46015510Y-55367017D01*
X45889989Y-55439487D01*
X45787487Y-55541989D01*
X45715017Y-55667510D01*
X45677500Y-55807525D01*
X44746500Y-55807525D01*
X44708984Y-55667515D01*
X44708982Y-55667512D01*
X44708982Y-55667510D01*
X44636512Y-55541989D01*
X44636510Y-55541987D01*
X44636509Y-55541985D01*
X44534015Y-55439491D01*
X44534012Y-55439489D01*
X44534010Y-55439487D01*
X44408488Y-55367017D01*
X44408489Y-55367017D01*
X44378896Y-55359087D01*
X44268475Y-55329500D01*
X44123525Y-55329500D01*
X44061790Y-55346041D01*
X43983510Y-55367017D01*
X43857989Y-55439487D01*
X43755487Y-55541989D01*
X43683017Y-55667510D01*
X43645500Y-55807525D01*
X42327432Y-55807525D01*
X42313741Y-46417926D01*
X42309094Y-43230644D01*
X42327917Y-43172426D01*
X42377364Y-43136390D01*
X42408094Y-43131500D01*
X54722493Y-43131500D01*
X54722500Y-43131500D01*
X54754644Y-43128970D01*
X54785237Y-43124125D01*
X54785248Y-43124123D01*
X54785293Y-43124116D01*
X54789781Y-43123353D01*
X54789780Y-43123353D01*
X54789787Y-43123352D01*
X54789792Y-43123349D01*
X54795386Y-43121705D01*
X54796010Y-43123826D01*
X54847648Y-43119164D01*
X54900182Y-43150530D01*
X54911381Y-43166183D01*
X54931491Y-43201015D01*
X55033985Y-43303509D01*
X55033987Y-43303510D01*
X55033989Y-43303512D01*
X55159511Y-43375982D01*
X55159512Y-43375982D01*
X55159515Y-43375984D01*
X55299525Y-43413500D01*
X55299526Y-43413500D01*
X55444474Y-43413500D01*
X55444475Y-43413500D01*
X55584485Y-43375984D01*
X55584487Y-43375982D01*
X55584489Y-43375982D01*
X55710010Y-43303512D01*
X55710010Y-43303511D01*
X55710015Y-43303509D01*
X55812509Y-43201015D01*
X55834090Y-43163634D01*
X55879558Y-43122694D01*
X55940408Y-43116298D01*
X55950420Y-43118981D01*
G37*
%TD.AperFunction*%
%TD*%
M02*
