%TF.GenerationSoftware,KiCad,Pcbnew,9.0.6*%
%TF.CreationDate,2025-12-31T13:41:03-05:00*%
%TF.ProjectId,Photon,50686f74-6f6e-42e6-9b69-6361645f7063,1.3*%
%TF.SameCoordinates,Original*%
%TF.FileFunction,Soldermask,Top*%
%TF.FilePolarity,Negative*%
%FSLAX46Y46*%
G04 Gerber Fmt 4.6, Leading zero omitted, Abs format (unit mm)*
G04 Created by KiCad (PCBNEW 9.0.6) date 2025-12-31 13:41:03*
%MOMM*%
%LPD*%
G01*
G04 APERTURE LIST*
G04 APERTURE END LIST*
G36*
X53228968Y-89209445D02*
G01*
X53452825Y-89282181D01*
X53662548Y-89389040D01*
X53852972Y-89527391D01*
X54019409Y-89693828D01*
X54157760Y-89884252D01*
X54264619Y-90093975D01*
X54337355Y-90317832D01*
X54374176Y-90550311D01*
X54374176Y-90785689D01*
X54337355Y-91018168D01*
X54264619Y-91242025D01*
X54157760Y-91451748D01*
X54019409Y-91642172D01*
X53852972Y-91808609D01*
X53662548Y-91946960D01*
X53452825Y-92053819D01*
X53228968Y-92126555D01*
X52996489Y-92163376D01*
X52761111Y-92163376D01*
X52528632Y-92126555D01*
X52304775Y-92053819D01*
X52095052Y-91946960D01*
X51904628Y-91808609D01*
X51738191Y-91642172D01*
X51599840Y-91451748D01*
X51492981Y-91242025D01*
X51420245Y-91018168D01*
X51383424Y-90785689D01*
X51383424Y-90550311D01*
X51420245Y-90317832D01*
X51492981Y-90093975D01*
X51599840Y-89884252D01*
X51738191Y-89693828D01*
X51904628Y-89527391D01*
X52095052Y-89389040D01*
X52304775Y-89282181D01*
X52528632Y-89209445D01*
X52761111Y-89172624D01*
X52996489Y-89172624D01*
X53228968Y-89209445D01*
G37*
G36*
X44413714Y-89706295D02*
G01*
X44549548Y-89762559D01*
X44671795Y-89844242D01*
X44775758Y-89948205D01*
X44857441Y-90070452D01*
X44913705Y-90206286D01*
X44942389Y-90350487D01*
X44942389Y-90497513D01*
X44913705Y-90641714D01*
X44857441Y-90777548D01*
X44775758Y-90899795D01*
X44671795Y-91003758D01*
X44549548Y-91085441D01*
X44413714Y-91141705D01*
X44269513Y-91170389D01*
X44122487Y-91170389D01*
X43978286Y-91141705D01*
X43842452Y-91085441D01*
X43720205Y-91003758D01*
X43616242Y-90899795D01*
X43534559Y-90777548D01*
X43478295Y-90641714D01*
X43449611Y-90497513D01*
X43449611Y-90350487D01*
X43478295Y-90206286D01*
X43534559Y-90070452D01*
X43616242Y-89948205D01*
X43720205Y-89844242D01*
X43842452Y-89762559D01*
X43978286Y-89706295D01*
X44122487Y-89677611D01*
X44269513Y-89677611D01*
X44413714Y-89706295D01*
G37*
G36*
X47224504Y-87806927D02*
G01*
X47297499Y-87855701D01*
X47346273Y-87928696D01*
X47363400Y-88014800D01*
X47363400Y-88464800D01*
X47346273Y-88550904D01*
X47297499Y-88623899D01*
X47224504Y-88672673D01*
X47138400Y-88689800D01*
X46638400Y-88689800D01*
X46552296Y-88672673D01*
X46479301Y-88623899D01*
X46430527Y-88550904D01*
X46413400Y-88464800D01*
X46413400Y-88014800D01*
X46430527Y-87928696D01*
X46479301Y-87855701D01*
X46552296Y-87806927D01*
X46638400Y-87789800D01*
X47138400Y-87789800D01*
X47224504Y-87806927D01*
G37*
G36*
X59279537Y-87905024D02*
G01*
X59344421Y-87948379D01*
X59387776Y-88013263D01*
X59403000Y-88089800D01*
X59403000Y-88489800D01*
X59387776Y-88566337D01*
X59344421Y-88631221D01*
X59279537Y-88674576D01*
X59203000Y-88689800D01*
X58653000Y-88689800D01*
X58576463Y-88674576D01*
X58511579Y-88631221D01*
X58468224Y-88566337D01*
X58453000Y-88489800D01*
X58453000Y-88089800D01*
X58468224Y-88013263D01*
X58511579Y-87948379D01*
X58576463Y-87905024D01*
X58653000Y-87889800D01*
X59203000Y-87889800D01*
X59279537Y-87905024D01*
G37*
G36*
X49724403Y-88075418D02*
G01*
X49773066Y-88107934D01*
X49805582Y-88156597D01*
X49817000Y-88214000D01*
X49817000Y-88514000D01*
X49805582Y-88571403D01*
X49773066Y-88620066D01*
X49724403Y-88652582D01*
X49667000Y-88664000D01*
X48642000Y-88664000D01*
X48584597Y-88652582D01*
X48535934Y-88620066D01*
X48503418Y-88571403D01*
X48492000Y-88514000D01*
X48492000Y-88214000D01*
X48503418Y-88156597D01*
X48535934Y-88107934D01*
X48584597Y-88075418D01*
X48642000Y-88064000D01*
X49667000Y-88064000D01*
X49724403Y-88075418D01*
G37*
G36*
X51999403Y-88075418D02*
G01*
X52048066Y-88107934D01*
X52080582Y-88156597D01*
X52092000Y-88214000D01*
X52092000Y-88514000D01*
X52080582Y-88571403D01*
X52048066Y-88620066D01*
X51999403Y-88652582D01*
X51942000Y-88664000D01*
X50917000Y-88664000D01*
X50859597Y-88652582D01*
X50810934Y-88620066D01*
X50778418Y-88571403D01*
X50767000Y-88514000D01*
X50767000Y-88214000D01*
X50778418Y-88156597D01*
X50810934Y-88107934D01*
X50859597Y-88075418D01*
X50917000Y-88064000D01*
X51942000Y-88064000D01*
X51999403Y-88075418D01*
G37*
G36*
X55058403Y-88075418D02*
G01*
X55107066Y-88107934D01*
X55139582Y-88156597D01*
X55151000Y-88214000D01*
X55151000Y-88514000D01*
X55139582Y-88571403D01*
X55107066Y-88620066D01*
X55058403Y-88652582D01*
X55001000Y-88664000D01*
X53976000Y-88664000D01*
X53918597Y-88652582D01*
X53869934Y-88620066D01*
X53837418Y-88571403D01*
X53826000Y-88514000D01*
X53826000Y-88214000D01*
X53837418Y-88156597D01*
X53869934Y-88107934D01*
X53918597Y-88075418D01*
X53976000Y-88064000D01*
X55001000Y-88064000D01*
X55058403Y-88075418D01*
G37*
G36*
X57333403Y-88075418D02*
G01*
X57382066Y-88107934D01*
X57414582Y-88156597D01*
X57426000Y-88214000D01*
X57426000Y-88514000D01*
X57414582Y-88571403D01*
X57382066Y-88620066D01*
X57333403Y-88652582D01*
X57276000Y-88664000D01*
X56251000Y-88664000D01*
X56193597Y-88652582D01*
X56144934Y-88620066D01*
X56112418Y-88571403D01*
X56101000Y-88514000D01*
X56101000Y-88214000D01*
X56112418Y-88156597D01*
X56144934Y-88107934D01*
X56193597Y-88075418D01*
X56251000Y-88064000D01*
X57276000Y-88064000D01*
X57333403Y-88075418D01*
G37*
G36*
X49724403Y-87125418D02*
G01*
X49773066Y-87157934D01*
X49805582Y-87206597D01*
X49817000Y-87264000D01*
X49817000Y-87564000D01*
X49805582Y-87621403D01*
X49773066Y-87670066D01*
X49724403Y-87702582D01*
X49667000Y-87714000D01*
X48642000Y-87714000D01*
X48584597Y-87702582D01*
X48535934Y-87670066D01*
X48503418Y-87621403D01*
X48492000Y-87564000D01*
X48492000Y-87264000D01*
X48503418Y-87206597D01*
X48535934Y-87157934D01*
X48584597Y-87125418D01*
X48642000Y-87114000D01*
X49667000Y-87114000D01*
X49724403Y-87125418D01*
G37*
G36*
X51999403Y-87125418D02*
G01*
X52048066Y-87157934D01*
X52080582Y-87206597D01*
X52092000Y-87264000D01*
X52092000Y-87564000D01*
X52080582Y-87621403D01*
X52048066Y-87670066D01*
X51999403Y-87702582D01*
X51942000Y-87714000D01*
X50917000Y-87714000D01*
X50859597Y-87702582D01*
X50810934Y-87670066D01*
X50778418Y-87621403D01*
X50767000Y-87564000D01*
X50767000Y-87264000D01*
X50778418Y-87206597D01*
X50810934Y-87157934D01*
X50859597Y-87125418D01*
X50917000Y-87114000D01*
X51942000Y-87114000D01*
X51999403Y-87125418D01*
G37*
G36*
X55058403Y-87125418D02*
G01*
X55107066Y-87157934D01*
X55139582Y-87206597D01*
X55151000Y-87264000D01*
X55151000Y-87564000D01*
X55139582Y-87621403D01*
X55107066Y-87670066D01*
X55058403Y-87702582D01*
X55001000Y-87714000D01*
X53976000Y-87714000D01*
X53918597Y-87702582D01*
X53869934Y-87670066D01*
X53837418Y-87621403D01*
X53826000Y-87564000D01*
X53826000Y-87264000D01*
X53837418Y-87206597D01*
X53869934Y-87157934D01*
X53918597Y-87125418D01*
X53976000Y-87114000D01*
X55001000Y-87114000D01*
X55058403Y-87125418D01*
G37*
G36*
X57333403Y-87125418D02*
G01*
X57382066Y-87157934D01*
X57414582Y-87206597D01*
X57426000Y-87264000D01*
X57426000Y-87564000D01*
X57414582Y-87621403D01*
X57382066Y-87670066D01*
X57333403Y-87702582D01*
X57276000Y-87714000D01*
X56251000Y-87714000D01*
X56193597Y-87702582D01*
X56144934Y-87670066D01*
X56112418Y-87621403D01*
X56101000Y-87564000D01*
X56101000Y-87264000D01*
X56112418Y-87206597D01*
X56144934Y-87157934D01*
X56193597Y-87125418D01*
X56251000Y-87114000D01*
X57276000Y-87114000D01*
X57333403Y-87125418D01*
G37*
G36*
X47224504Y-86256927D02*
G01*
X47297499Y-86305701D01*
X47346273Y-86378696D01*
X47363400Y-86464800D01*
X47363400Y-86914800D01*
X47346273Y-87000904D01*
X47297499Y-87073899D01*
X47224504Y-87122673D01*
X47138400Y-87139800D01*
X46638400Y-87139800D01*
X46552296Y-87122673D01*
X46479301Y-87073899D01*
X46430527Y-87000904D01*
X46413400Y-86914800D01*
X46413400Y-86464800D01*
X46430527Y-86378696D01*
X46479301Y-86305701D01*
X46552296Y-86256927D01*
X46638400Y-86239800D01*
X47138400Y-86239800D01*
X47224504Y-86256927D01*
G37*
G36*
X59279537Y-86255024D02*
G01*
X59344421Y-86298379D01*
X59387776Y-86363263D01*
X59403000Y-86439800D01*
X59403000Y-86839800D01*
X59387776Y-86916337D01*
X59344421Y-86981221D01*
X59279537Y-87024576D01*
X59203000Y-87039800D01*
X58653000Y-87039800D01*
X58576463Y-87024576D01*
X58511579Y-86981221D01*
X58468224Y-86916337D01*
X58453000Y-86839800D01*
X58453000Y-86439800D01*
X58468224Y-86363263D01*
X58511579Y-86298379D01*
X58576463Y-86255024D01*
X58653000Y-86239800D01*
X59203000Y-86239800D01*
X59279537Y-86255024D01*
G37*
G36*
X49724403Y-86175418D02*
G01*
X49773066Y-86207934D01*
X49805582Y-86256597D01*
X49817000Y-86314000D01*
X49817000Y-86614000D01*
X49805582Y-86671403D01*
X49773066Y-86720066D01*
X49724403Y-86752582D01*
X49667000Y-86764000D01*
X48642000Y-86764000D01*
X48584597Y-86752582D01*
X48535934Y-86720066D01*
X48503418Y-86671403D01*
X48492000Y-86614000D01*
X48492000Y-86314000D01*
X48503418Y-86256597D01*
X48535934Y-86207934D01*
X48584597Y-86175418D01*
X48642000Y-86164000D01*
X49667000Y-86164000D01*
X49724403Y-86175418D01*
G37*
G36*
X51999403Y-86175418D02*
G01*
X52048066Y-86207934D01*
X52080582Y-86256597D01*
X52092000Y-86314000D01*
X52092000Y-86614000D01*
X52080582Y-86671403D01*
X52048066Y-86720066D01*
X51999403Y-86752582D01*
X51942000Y-86764000D01*
X50917000Y-86764000D01*
X50859597Y-86752582D01*
X50810934Y-86720066D01*
X50778418Y-86671403D01*
X50767000Y-86614000D01*
X50767000Y-86314000D01*
X50778418Y-86256597D01*
X50810934Y-86207934D01*
X50859597Y-86175418D01*
X50917000Y-86164000D01*
X51942000Y-86164000D01*
X51999403Y-86175418D01*
G37*
G36*
X55058403Y-86175418D02*
G01*
X55107066Y-86207934D01*
X55139582Y-86256597D01*
X55151000Y-86314000D01*
X55151000Y-86614000D01*
X55139582Y-86671403D01*
X55107066Y-86720066D01*
X55058403Y-86752582D01*
X55001000Y-86764000D01*
X53976000Y-86764000D01*
X53918597Y-86752582D01*
X53869934Y-86720066D01*
X53837418Y-86671403D01*
X53826000Y-86614000D01*
X53826000Y-86314000D01*
X53837418Y-86256597D01*
X53869934Y-86207934D01*
X53918597Y-86175418D01*
X53976000Y-86164000D01*
X55001000Y-86164000D01*
X55058403Y-86175418D01*
G37*
G36*
X57333403Y-86175418D02*
G01*
X57382066Y-86207934D01*
X57414582Y-86256597D01*
X57426000Y-86314000D01*
X57426000Y-86614000D01*
X57414582Y-86671403D01*
X57382066Y-86720066D01*
X57333403Y-86752582D01*
X57276000Y-86764000D01*
X56251000Y-86764000D01*
X56193597Y-86752582D01*
X56144934Y-86720066D01*
X56112418Y-86671403D01*
X56101000Y-86614000D01*
X56101000Y-86314000D01*
X56112418Y-86256597D01*
X56144934Y-86207934D01*
X56193597Y-86175418D01*
X56251000Y-86164000D01*
X57276000Y-86164000D01*
X57333403Y-86175418D01*
G37*
G36*
X47239937Y-84514224D02*
G01*
X47304821Y-84557579D01*
X47348176Y-84622463D01*
X47363400Y-84699000D01*
X47363400Y-85099000D01*
X47348176Y-85175537D01*
X47304821Y-85240421D01*
X47239937Y-85283776D01*
X47163400Y-85299000D01*
X46613400Y-85299000D01*
X46536863Y-85283776D01*
X46471979Y-85240421D01*
X46428624Y-85175537D01*
X46413400Y-85099000D01*
X46413400Y-84699000D01*
X46428624Y-84622463D01*
X46471979Y-84557579D01*
X46536863Y-84514224D01*
X46613400Y-84499000D01*
X47163400Y-84499000D01*
X47239937Y-84514224D01*
G37*
G36*
X53230337Y-84514224D02*
G01*
X53295221Y-84557579D01*
X53338576Y-84622463D01*
X53353800Y-84699000D01*
X53353800Y-85099000D01*
X53338576Y-85175537D01*
X53295221Y-85240421D01*
X53230337Y-85283776D01*
X53153800Y-85299000D01*
X52603800Y-85299000D01*
X52527263Y-85283776D01*
X52462379Y-85240421D01*
X52419024Y-85175537D01*
X52403800Y-85099000D01*
X52403800Y-84699000D01*
X52419024Y-84622463D01*
X52462379Y-84557579D01*
X52527263Y-84514224D01*
X52603800Y-84499000D01*
X53153800Y-84499000D01*
X53230337Y-84514224D01*
G37*
G36*
X50728968Y-81609445D02*
G01*
X50952825Y-81682181D01*
X51162548Y-81789040D01*
X51352972Y-81927391D01*
X51519409Y-82093828D01*
X51657760Y-82284252D01*
X51764619Y-82493975D01*
X51837355Y-82717832D01*
X51874176Y-82950311D01*
X51874176Y-83185689D01*
X51837355Y-83418168D01*
X51764619Y-83642025D01*
X51657760Y-83851748D01*
X51519409Y-84042172D01*
X51352972Y-84208609D01*
X51162548Y-84346960D01*
X50952825Y-84453819D01*
X50728968Y-84526555D01*
X50496489Y-84563376D01*
X50261111Y-84563376D01*
X50028632Y-84526555D01*
X49804775Y-84453819D01*
X49595052Y-84346960D01*
X49404628Y-84208609D01*
X49238191Y-84042172D01*
X49099840Y-83851748D01*
X48992981Y-83642025D01*
X48920245Y-83418168D01*
X48883424Y-83185689D01*
X48883424Y-82950311D01*
X48920245Y-82717832D01*
X48992981Y-82493975D01*
X49099840Y-82284252D01*
X49238191Y-82093828D01*
X49404628Y-81927391D01*
X49595052Y-81789040D01*
X49804775Y-81682181D01*
X50028632Y-81609445D01*
X50261111Y-81572624D01*
X50496489Y-81572624D01*
X50728968Y-81609445D01*
G37*
G36*
X55728968Y-81609445D02*
G01*
X55952825Y-81682181D01*
X56162548Y-81789040D01*
X56352972Y-81927391D01*
X56519409Y-82093828D01*
X56657760Y-82284252D01*
X56764619Y-82493975D01*
X56837355Y-82717832D01*
X56874176Y-82950311D01*
X56874176Y-83185689D01*
X56837355Y-83418168D01*
X56764619Y-83642025D01*
X56657760Y-83851748D01*
X56519409Y-84042172D01*
X56352972Y-84208609D01*
X56162548Y-84346960D01*
X55952825Y-84453819D01*
X55728968Y-84526555D01*
X55496489Y-84563376D01*
X55261111Y-84563376D01*
X55028632Y-84526555D01*
X54804775Y-84453819D01*
X54595052Y-84346960D01*
X54404628Y-84208609D01*
X54238191Y-84042172D01*
X54099840Y-83851748D01*
X53992981Y-83642025D01*
X53920245Y-83418168D01*
X53883424Y-83185689D01*
X53883424Y-82950311D01*
X53920245Y-82717832D01*
X53992981Y-82493975D01*
X54099840Y-82284252D01*
X54238191Y-82093828D01*
X54404628Y-81927391D01*
X54595052Y-81789040D01*
X54804775Y-81682181D01*
X55028632Y-81609445D01*
X55261111Y-81572624D01*
X55496489Y-81572624D01*
X55728968Y-81609445D01*
G37*
G36*
X47239937Y-82864224D02*
G01*
X47304821Y-82907579D01*
X47348176Y-82972463D01*
X47363400Y-83049000D01*
X47363400Y-83449000D01*
X47348176Y-83525537D01*
X47304821Y-83590421D01*
X47239937Y-83633776D01*
X47163400Y-83649000D01*
X46613400Y-83649000D01*
X46536863Y-83633776D01*
X46471979Y-83590421D01*
X46428624Y-83525537D01*
X46413400Y-83449000D01*
X46413400Y-83049000D01*
X46428624Y-82972463D01*
X46471979Y-82907579D01*
X46536863Y-82864224D01*
X46613400Y-82849000D01*
X47163400Y-82849000D01*
X47239937Y-82864224D01*
G37*
G36*
X53230337Y-82864224D02*
G01*
X53295221Y-82907579D01*
X53338576Y-82972463D01*
X53353800Y-83049000D01*
X53353800Y-83449000D01*
X53338576Y-83525537D01*
X53295221Y-83590421D01*
X53230337Y-83633776D01*
X53153800Y-83649000D01*
X52603800Y-83649000D01*
X52527263Y-83633776D01*
X52462379Y-83590421D01*
X52419024Y-83525537D01*
X52403800Y-83449000D01*
X52403800Y-83049000D01*
X52419024Y-82972463D01*
X52462379Y-82907579D01*
X52527263Y-82864224D01*
X52603800Y-82849000D01*
X53153800Y-82849000D01*
X53230337Y-82864224D01*
G37*
G36*
X51006182Y-79017993D02*
G01*
X51040246Y-79040754D01*
X51063007Y-79074818D01*
X51071000Y-79115000D01*
X51071000Y-80905000D01*
X51063007Y-80945182D01*
X51040246Y-80979246D01*
X51006182Y-81002007D01*
X50966000Y-81010000D01*
X50126000Y-81010000D01*
X50085818Y-81002007D01*
X50051754Y-80979246D01*
X50028993Y-80945182D01*
X50021000Y-80905000D01*
X50021000Y-79115000D01*
X50028993Y-79074818D01*
X50051754Y-79040754D01*
X50085818Y-79017993D01*
X50126000Y-79010000D01*
X50966000Y-79010000D01*
X51006182Y-79017993D01*
G37*
G36*
X55451182Y-79017993D02*
G01*
X55485246Y-79040754D01*
X55508007Y-79074818D01*
X55516000Y-79115000D01*
X55516000Y-80905000D01*
X55508007Y-80945182D01*
X55485246Y-80979246D01*
X55451182Y-81002007D01*
X55411000Y-81010000D01*
X54571000Y-81010000D01*
X54530818Y-81002007D01*
X54496754Y-80979246D01*
X54473993Y-80945182D01*
X54466000Y-80905000D01*
X54466000Y-79115000D01*
X54473993Y-79074818D01*
X54496754Y-79040754D01*
X54530818Y-79017993D01*
X54571000Y-79010000D01*
X55411000Y-79010000D01*
X55451182Y-79017993D01*
G37*
G36*
X46187403Y-77858418D02*
G01*
X46236066Y-77890934D01*
X46268582Y-77939597D01*
X46280000Y-77997000D01*
X46280000Y-78297000D01*
X46268582Y-78354403D01*
X46236066Y-78403066D01*
X46187403Y-78435582D01*
X46130000Y-78447000D01*
X45105000Y-78447000D01*
X45047597Y-78435582D01*
X44998934Y-78403066D01*
X44966418Y-78354403D01*
X44955000Y-78297000D01*
X44955000Y-77997000D01*
X44966418Y-77939597D01*
X44998934Y-77890934D01*
X45047597Y-77858418D01*
X45105000Y-77847000D01*
X46130000Y-77847000D01*
X46187403Y-77858418D01*
G37*
G36*
X48462403Y-77858418D02*
G01*
X48511066Y-77890934D01*
X48543582Y-77939597D01*
X48555000Y-77997000D01*
X48555000Y-78297000D01*
X48543582Y-78354403D01*
X48511066Y-78403066D01*
X48462403Y-78435582D01*
X48405000Y-78447000D01*
X47380000Y-78447000D01*
X47322597Y-78435582D01*
X47273934Y-78403066D01*
X47241418Y-78354403D01*
X47230000Y-78297000D01*
X47230000Y-77997000D01*
X47241418Y-77939597D01*
X47273934Y-77890934D01*
X47322597Y-77858418D01*
X47380000Y-77847000D01*
X48405000Y-77847000D01*
X48462403Y-77858418D01*
G37*
G36*
X49997537Y-77264224D02*
G01*
X50062421Y-77307579D01*
X50105776Y-77372463D01*
X50121000Y-77449000D01*
X50121000Y-77999000D01*
X50105776Y-78075537D01*
X50062421Y-78140421D01*
X49997537Y-78183776D01*
X49921000Y-78199000D01*
X49521000Y-78199000D01*
X49444463Y-78183776D01*
X49379579Y-78140421D01*
X49336224Y-78075537D01*
X49321000Y-77999000D01*
X49321000Y-77449000D01*
X49336224Y-77372463D01*
X49379579Y-77307579D01*
X49444463Y-77264224D01*
X49521000Y-77249000D01*
X49921000Y-77249000D01*
X49997537Y-77264224D01*
G37*
G36*
X51647537Y-77264224D02*
G01*
X51712421Y-77307579D01*
X51755776Y-77372463D01*
X51771000Y-77449000D01*
X51771000Y-77999000D01*
X51755776Y-78075537D01*
X51712421Y-78140421D01*
X51647537Y-78183776D01*
X51571000Y-78199000D01*
X51171000Y-78199000D01*
X51094463Y-78183776D01*
X51029579Y-78140421D01*
X50986224Y-78075537D01*
X50971000Y-77999000D01*
X50971000Y-77449000D01*
X50986224Y-77372463D01*
X51029579Y-77307579D01*
X51094463Y-77264224D01*
X51171000Y-77249000D01*
X51571000Y-77249000D01*
X51647537Y-77264224D01*
G37*
G36*
X46187403Y-76908418D02*
G01*
X46236066Y-76940934D01*
X46268582Y-76989597D01*
X46280000Y-77047000D01*
X46280000Y-77347000D01*
X46268582Y-77404403D01*
X46236066Y-77453066D01*
X46187403Y-77485582D01*
X46130000Y-77497000D01*
X45105000Y-77497000D01*
X45047597Y-77485582D01*
X44998934Y-77453066D01*
X44966418Y-77404403D01*
X44955000Y-77347000D01*
X44955000Y-77047000D01*
X44966418Y-76989597D01*
X44998934Y-76940934D01*
X45047597Y-76908418D01*
X45105000Y-76897000D01*
X46130000Y-76897000D01*
X46187403Y-76908418D01*
G37*
G36*
X48462403Y-76908418D02*
G01*
X48511066Y-76940934D01*
X48543582Y-76989597D01*
X48555000Y-77047000D01*
X48555000Y-77347000D01*
X48543582Y-77404403D01*
X48511066Y-77453066D01*
X48462403Y-77485582D01*
X48405000Y-77497000D01*
X47380000Y-77497000D01*
X47322597Y-77485582D01*
X47273934Y-77453066D01*
X47241418Y-77404403D01*
X47230000Y-77347000D01*
X47230000Y-77047000D01*
X47241418Y-76989597D01*
X47273934Y-76940934D01*
X47322597Y-76908418D01*
X47380000Y-76897000D01*
X48405000Y-76897000D01*
X48462403Y-76908418D01*
G37*
G36*
X46187403Y-75958418D02*
G01*
X46236066Y-75990934D01*
X46268582Y-76039597D01*
X46280000Y-76097000D01*
X46280000Y-76397000D01*
X46268582Y-76454403D01*
X46236066Y-76503066D01*
X46187403Y-76535582D01*
X46130000Y-76547000D01*
X45105000Y-76547000D01*
X45047597Y-76535582D01*
X44998934Y-76503066D01*
X44966418Y-76454403D01*
X44955000Y-76397000D01*
X44955000Y-76097000D01*
X44966418Y-76039597D01*
X44998934Y-75990934D01*
X45047597Y-75958418D01*
X45105000Y-75947000D01*
X46130000Y-75947000D01*
X46187403Y-75958418D01*
G37*
G36*
X48462403Y-75958418D02*
G01*
X48511066Y-75990934D01*
X48543582Y-76039597D01*
X48555000Y-76097000D01*
X48555000Y-76397000D01*
X48543582Y-76454403D01*
X48511066Y-76503066D01*
X48462403Y-76535582D01*
X48405000Y-76547000D01*
X47380000Y-76547000D01*
X47322597Y-76535582D01*
X47273934Y-76503066D01*
X47241418Y-76454403D01*
X47230000Y-76397000D01*
X47230000Y-76097000D01*
X47241418Y-76039597D01*
X47273934Y-75990934D01*
X47322597Y-75958418D01*
X47380000Y-75947000D01*
X48405000Y-75947000D01*
X48462403Y-75958418D01*
G37*
G36*
X53399709Y-70428406D02*
G01*
X53685132Y-70504885D01*
X53958130Y-70617964D01*
X54214033Y-70765710D01*
X54448462Y-70945594D01*
X54657406Y-71154538D01*
X54837290Y-71388967D01*
X54985036Y-71644870D01*
X55098115Y-71917868D01*
X55174594Y-72203291D01*
X55213163Y-72496254D01*
X55213163Y-72791746D01*
X55174594Y-73084709D01*
X55098115Y-73370132D01*
X54985036Y-73643130D01*
X54837290Y-73899033D01*
X54657406Y-74133462D01*
X54448462Y-74342406D01*
X54214033Y-74522290D01*
X53958130Y-74670036D01*
X53685132Y-74783115D01*
X53399709Y-74859594D01*
X53106746Y-74898163D01*
X52811254Y-74898163D01*
X52518291Y-74859594D01*
X52232868Y-74783115D01*
X51959870Y-74670036D01*
X51703967Y-74522290D01*
X51469538Y-74342406D01*
X51260594Y-74133462D01*
X51080710Y-73899033D01*
X50932964Y-73643130D01*
X50819885Y-73370132D01*
X50743406Y-73084709D01*
X50704837Y-72791746D01*
X50704837Y-72496254D01*
X50743406Y-72203291D01*
X50819885Y-71917868D01*
X50932964Y-71644870D01*
X51080710Y-71388967D01*
X51260594Y-71154538D01*
X51469538Y-70945594D01*
X51703967Y-70765710D01*
X51959870Y-70617964D01*
X52232868Y-70504885D01*
X52518291Y-70428406D01*
X52811254Y-70389837D01*
X53106746Y-70389837D01*
X53399709Y-70428406D01*
G37*
G36*
X47558046Y-72556804D02*
G01*
X47610553Y-72562896D01*
X47628494Y-72570818D01*
X47651584Y-72575411D01*
X47676304Y-72591928D01*
X47697619Y-72601340D01*
X47712176Y-72615897D01*
X47734312Y-72630688D01*
X47749102Y-72652823D01*
X47763659Y-72667380D01*
X47773069Y-72688693D01*
X47789589Y-72713416D01*
X47794182Y-72736507D01*
X47802103Y-72754446D01*
X47808192Y-72806942D01*
X47809000Y-72811000D01*
X47809000Y-74001000D01*
X47808192Y-74005058D01*
X47802103Y-74057553D01*
X47794182Y-74075490D01*
X47789589Y-74098584D01*
X47773068Y-74123308D01*
X47763659Y-74144619D01*
X47749104Y-74159173D01*
X47734312Y-74181312D01*
X47712173Y-74196104D01*
X47697619Y-74210659D01*
X47676308Y-74220068D01*
X47651584Y-74236589D01*
X47628490Y-74241182D01*
X47610553Y-74249103D01*
X47558058Y-74255192D01*
X47554000Y-74256000D01*
X45664000Y-74256000D01*
X45659942Y-74255192D01*
X45607446Y-74249103D01*
X45589507Y-74241182D01*
X45566416Y-74236589D01*
X45541693Y-74220069D01*
X45520380Y-74210659D01*
X45505823Y-74196102D01*
X45483688Y-74181312D01*
X45468897Y-74159176D01*
X45454340Y-74144619D01*
X45444928Y-74123304D01*
X45428411Y-74098584D01*
X45423818Y-74075494D01*
X45415896Y-74057553D01*
X45409804Y-74005046D01*
X45409000Y-74001000D01*
X45409000Y-72811000D01*
X45409804Y-72806954D01*
X45415896Y-72754446D01*
X45423818Y-72736503D01*
X45428411Y-72713416D01*
X45444927Y-72688697D01*
X45454340Y-72667380D01*
X45468899Y-72652820D01*
X45483688Y-72630688D01*
X45505820Y-72615899D01*
X45520380Y-72601340D01*
X45541697Y-72591927D01*
X45566416Y-72575411D01*
X45589503Y-72570818D01*
X45607446Y-72562896D01*
X45659954Y-72556804D01*
X45664000Y-72556000D01*
X47554000Y-72556000D01*
X47558046Y-72556804D01*
G37*
G36*
X60258046Y-71032804D02*
G01*
X60310553Y-71038896D01*
X60328494Y-71046818D01*
X60351584Y-71051411D01*
X60376304Y-71067928D01*
X60397619Y-71077340D01*
X60412176Y-71091897D01*
X60434312Y-71106688D01*
X60449102Y-71128823D01*
X60463659Y-71143380D01*
X60473069Y-71164693D01*
X60489589Y-71189416D01*
X60494182Y-71212507D01*
X60502103Y-71230446D01*
X60508192Y-71282942D01*
X60509000Y-71287000D01*
X60509000Y-72477000D01*
X60508192Y-72481058D01*
X60502103Y-72533553D01*
X60494182Y-72551490D01*
X60489589Y-72574584D01*
X60473068Y-72599308D01*
X60463659Y-72620619D01*
X60449104Y-72635173D01*
X60434312Y-72657312D01*
X60412173Y-72672104D01*
X60397619Y-72686659D01*
X60376308Y-72696068D01*
X60351584Y-72712589D01*
X60328490Y-72717182D01*
X60310553Y-72725103D01*
X60258058Y-72731192D01*
X60254000Y-72732000D01*
X58364000Y-72732000D01*
X58359942Y-72731192D01*
X58307446Y-72725103D01*
X58289507Y-72717182D01*
X58266416Y-72712589D01*
X58241693Y-72696069D01*
X58220380Y-72686659D01*
X58205823Y-72672102D01*
X58183688Y-72657312D01*
X58168897Y-72635176D01*
X58154340Y-72620619D01*
X58144928Y-72599304D01*
X58128411Y-72574584D01*
X58123818Y-72551494D01*
X58115896Y-72533553D01*
X58109804Y-72481046D01*
X58109000Y-72477000D01*
X58109000Y-71287000D01*
X58109804Y-71282954D01*
X58115896Y-71230446D01*
X58123818Y-71212503D01*
X58128411Y-71189416D01*
X58144927Y-71164697D01*
X58154340Y-71143380D01*
X58168899Y-71128820D01*
X58183688Y-71106688D01*
X58205820Y-71091899D01*
X58220380Y-71077340D01*
X58241697Y-71067927D01*
X58266416Y-71051411D01*
X58289503Y-71046818D01*
X58307446Y-71038896D01*
X58359954Y-71032804D01*
X58364000Y-71032000D01*
X60254000Y-71032000D01*
X60258046Y-71032804D01*
G37*
G36*
X45300000Y-69938000D02*
G01*
X43600000Y-69938000D01*
X43600000Y-68238000D01*
X45300000Y-68238000D01*
X45300000Y-69938000D01*
G37*
G36*
X44896742Y-65734601D02*
G01*
X45050687Y-65798367D01*
X45189234Y-65890941D01*
X45307059Y-66008766D01*
X45399633Y-66147313D01*
X45463399Y-66301258D01*
X45495907Y-66464685D01*
X45495907Y-66631315D01*
X45463399Y-66794742D01*
X45399633Y-66948687D01*
X45307059Y-67087234D01*
X45189234Y-67205059D01*
X45050687Y-67297633D01*
X44896742Y-67361399D01*
X44733315Y-67393907D01*
X44566685Y-67393907D01*
X44403258Y-67361399D01*
X44249313Y-67297633D01*
X44110766Y-67205059D01*
X43992941Y-67087234D01*
X43900367Y-66948687D01*
X43836601Y-66794742D01*
X43804093Y-66631315D01*
X43804093Y-66464685D01*
X43836601Y-66301258D01*
X43900367Y-66147313D01*
X43992941Y-66008766D01*
X44110766Y-65890941D01*
X44249313Y-65798367D01*
X44403258Y-65734601D01*
X44566685Y-65702093D01*
X44733315Y-65702093D01*
X44896742Y-65734601D01*
G37*
G36*
X56978104Y-64604127D02*
G01*
X57051099Y-64652901D01*
X57099873Y-64725896D01*
X57117000Y-64812000D01*
X57117000Y-65262000D01*
X57099873Y-65348104D01*
X57051099Y-65421099D01*
X56978104Y-65469873D01*
X56892000Y-65487000D01*
X56392000Y-65487000D01*
X56305896Y-65469873D01*
X56232901Y-65421099D01*
X56184127Y-65348104D01*
X56167000Y-65262000D01*
X56167000Y-64812000D01*
X56184127Y-64725896D01*
X56232901Y-64652901D01*
X56305896Y-64604127D01*
X56392000Y-64587000D01*
X56892000Y-64587000D01*
X56978104Y-64604127D01*
G37*
G36*
X49669403Y-64608418D02*
G01*
X49718066Y-64640934D01*
X49750582Y-64689597D01*
X49762000Y-64747000D01*
X49762000Y-65047000D01*
X49750582Y-65104403D01*
X49718066Y-65153066D01*
X49669403Y-65185582D01*
X49612000Y-65197000D01*
X48262000Y-65197000D01*
X48204597Y-65185582D01*
X48155934Y-65153066D01*
X48123418Y-65104403D01*
X48112000Y-65047000D01*
X48112000Y-64747000D01*
X48123418Y-64689597D01*
X48155934Y-64640934D01*
X48204597Y-64608418D01*
X48262000Y-64597000D01*
X49612000Y-64597000D01*
X49669403Y-64608418D01*
G37*
G36*
X54919403Y-64608418D02*
G01*
X54968066Y-64640934D01*
X55000582Y-64689597D01*
X55012000Y-64747000D01*
X55012000Y-65047000D01*
X55000582Y-65104403D01*
X54968066Y-65153066D01*
X54919403Y-65185582D01*
X54862000Y-65197000D01*
X53512000Y-65197000D01*
X53454597Y-65185582D01*
X53405934Y-65153066D01*
X53373418Y-65104403D01*
X53362000Y-65047000D01*
X53362000Y-64747000D01*
X53373418Y-64689597D01*
X53405934Y-64640934D01*
X53454597Y-64608418D01*
X53512000Y-64597000D01*
X54862000Y-64597000D01*
X54919403Y-64608418D01*
G37*
G36*
X44696742Y-63194601D02*
G01*
X44850687Y-63258367D01*
X44989234Y-63350941D01*
X45107059Y-63468766D01*
X45199633Y-63607313D01*
X45263399Y-63761258D01*
X45295907Y-63924685D01*
X45295907Y-64091315D01*
X45263399Y-64254742D01*
X45199633Y-64408687D01*
X45107059Y-64547234D01*
X44989234Y-64665059D01*
X44850687Y-64757633D01*
X44696742Y-64821399D01*
X44533315Y-64853907D01*
X44366685Y-64853907D01*
X44203258Y-64821399D01*
X44049313Y-64757633D01*
X43910766Y-64665059D01*
X43792941Y-64547234D01*
X43700367Y-64408687D01*
X43636601Y-64254742D01*
X43604093Y-64091315D01*
X43604093Y-63924685D01*
X43636601Y-63761258D01*
X43700367Y-63607313D01*
X43792941Y-63468766D01*
X43910766Y-63350941D01*
X44049313Y-63258367D01*
X44203258Y-63194601D01*
X44366685Y-63162093D01*
X44533315Y-63162093D01*
X44696742Y-63194601D01*
G37*
G36*
X56978104Y-63054127D02*
G01*
X57051099Y-63102901D01*
X57099873Y-63175896D01*
X57117000Y-63262000D01*
X57117000Y-63712000D01*
X57099873Y-63798104D01*
X57051099Y-63871099D01*
X56978104Y-63919873D01*
X56892000Y-63937000D01*
X56392000Y-63937000D01*
X56305896Y-63919873D01*
X56232901Y-63871099D01*
X56184127Y-63798104D01*
X56167000Y-63712000D01*
X56167000Y-63262000D01*
X56184127Y-63175896D01*
X56232901Y-63102901D01*
X56305896Y-63054127D01*
X56392000Y-63037000D01*
X56892000Y-63037000D01*
X56978104Y-63054127D01*
G37*
G36*
X49669403Y-63338418D02*
G01*
X49718066Y-63370934D01*
X49750582Y-63419597D01*
X49762000Y-63477000D01*
X49762000Y-63777000D01*
X49750582Y-63834403D01*
X49718066Y-63883066D01*
X49669403Y-63915582D01*
X49612000Y-63927000D01*
X48262000Y-63927000D01*
X48204597Y-63915582D01*
X48155934Y-63883066D01*
X48123418Y-63834403D01*
X48112000Y-63777000D01*
X48112000Y-63477000D01*
X48123418Y-63419597D01*
X48155934Y-63370934D01*
X48204597Y-63338418D01*
X48262000Y-63327000D01*
X49612000Y-63327000D01*
X49669403Y-63338418D01*
G37*
G36*
X54919403Y-63338418D02*
G01*
X54968066Y-63370934D01*
X55000582Y-63419597D01*
X55012000Y-63477000D01*
X55012000Y-63777000D01*
X55000582Y-63834403D01*
X54968066Y-63883066D01*
X54919403Y-63915582D01*
X54862000Y-63927000D01*
X53512000Y-63927000D01*
X53454597Y-63915582D01*
X53405934Y-63883066D01*
X53373418Y-63834403D01*
X53362000Y-63777000D01*
X53362000Y-63477000D01*
X53373418Y-63419597D01*
X53405934Y-63370934D01*
X53454597Y-63338418D01*
X53512000Y-63327000D01*
X54862000Y-63327000D01*
X54919403Y-63338418D01*
G37*
G36*
X49669403Y-62068418D02*
G01*
X49718066Y-62100934D01*
X49750582Y-62149597D01*
X49762000Y-62207000D01*
X49762000Y-62507000D01*
X49750582Y-62564403D01*
X49718066Y-62613066D01*
X49669403Y-62645582D01*
X49612000Y-62657000D01*
X48262000Y-62657000D01*
X48204597Y-62645582D01*
X48155934Y-62613066D01*
X48123418Y-62564403D01*
X48112000Y-62507000D01*
X48112000Y-62207000D01*
X48123418Y-62149597D01*
X48155934Y-62100934D01*
X48204597Y-62068418D01*
X48262000Y-62057000D01*
X49612000Y-62057000D01*
X49669403Y-62068418D01*
G37*
G36*
X54919403Y-62068418D02*
G01*
X54968066Y-62100934D01*
X55000582Y-62149597D01*
X55012000Y-62207000D01*
X55012000Y-62507000D01*
X55000582Y-62564403D01*
X54968066Y-62613066D01*
X54919403Y-62645582D01*
X54862000Y-62657000D01*
X53512000Y-62657000D01*
X53454597Y-62645582D01*
X53405934Y-62613066D01*
X53373418Y-62564403D01*
X53362000Y-62507000D01*
X53362000Y-62207000D01*
X53373418Y-62149597D01*
X53405934Y-62100934D01*
X53454597Y-62068418D01*
X53512000Y-62057000D01*
X54862000Y-62057000D01*
X54919403Y-62068418D01*
G37*
G36*
X44896742Y-60654601D02*
G01*
X45050687Y-60718367D01*
X45189234Y-60810941D01*
X45307059Y-60928766D01*
X45399633Y-61067313D01*
X45463399Y-61221258D01*
X45495907Y-61384685D01*
X45495907Y-61551315D01*
X45463399Y-61714742D01*
X45399633Y-61868687D01*
X45307059Y-62007234D01*
X45189234Y-62125059D01*
X45050687Y-62217633D01*
X44896742Y-62281399D01*
X44733315Y-62313907D01*
X44566685Y-62313907D01*
X44403258Y-62281399D01*
X44249313Y-62217633D01*
X44110766Y-62125059D01*
X43992941Y-62007234D01*
X43900367Y-61868687D01*
X43836601Y-61714742D01*
X43804093Y-61551315D01*
X43804093Y-61384685D01*
X43836601Y-61221258D01*
X43900367Y-61067313D01*
X43992941Y-60928766D01*
X44110766Y-60810941D01*
X44249313Y-60718367D01*
X44403258Y-60654601D01*
X44566685Y-60622093D01*
X44733315Y-60622093D01*
X44896742Y-60654601D01*
G37*
G36*
X49669403Y-60798418D02*
G01*
X49718066Y-60830934D01*
X49750582Y-60879597D01*
X49762000Y-60937000D01*
X49762000Y-61237000D01*
X49750582Y-61294403D01*
X49718066Y-61343066D01*
X49669403Y-61375582D01*
X49612000Y-61387000D01*
X48262000Y-61387000D01*
X48204597Y-61375582D01*
X48155934Y-61343066D01*
X48123418Y-61294403D01*
X48112000Y-61237000D01*
X48112000Y-60937000D01*
X48123418Y-60879597D01*
X48155934Y-60830934D01*
X48204597Y-60798418D01*
X48262000Y-60787000D01*
X49612000Y-60787000D01*
X49669403Y-60798418D01*
G37*
G36*
X54919403Y-60798418D02*
G01*
X54968066Y-60830934D01*
X55000582Y-60879597D01*
X55012000Y-60937000D01*
X55012000Y-61237000D01*
X55000582Y-61294403D01*
X54968066Y-61343066D01*
X54919403Y-61375582D01*
X54862000Y-61387000D01*
X53512000Y-61387000D01*
X53454597Y-61375582D01*
X53405934Y-61343066D01*
X53373418Y-61294403D01*
X53362000Y-61237000D01*
X53362000Y-60937000D01*
X53373418Y-60879597D01*
X53405934Y-60830934D01*
X53454597Y-60798418D01*
X53512000Y-60787000D01*
X54862000Y-60787000D01*
X54919403Y-60798418D01*
G37*
G36*
X44696742Y-58114601D02*
G01*
X44850687Y-58178367D01*
X44989234Y-58270941D01*
X45107059Y-58388766D01*
X45199633Y-58527313D01*
X45263399Y-58681258D01*
X45295907Y-58844685D01*
X45295907Y-59011315D01*
X45263399Y-59174742D01*
X45199633Y-59328687D01*
X45107059Y-59467234D01*
X44989234Y-59585059D01*
X44850687Y-59677633D01*
X44696742Y-59741399D01*
X44533315Y-59773907D01*
X44366685Y-59773907D01*
X44203258Y-59741399D01*
X44049313Y-59677633D01*
X43910766Y-59585059D01*
X43792941Y-59467234D01*
X43700367Y-59328687D01*
X43636601Y-59174742D01*
X43604093Y-59011315D01*
X43604093Y-58844685D01*
X43636601Y-58681258D01*
X43700367Y-58527313D01*
X43792941Y-58388766D01*
X43910766Y-58270941D01*
X44049313Y-58178367D01*
X44203258Y-58114601D01*
X44366685Y-58082093D01*
X44533315Y-58082093D01*
X44696742Y-58114601D01*
G37*
G36*
X47978537Y-58468224D02*
G01*
X48043421Y-58511579D01*
X48086776Y-58576463D01*
X48102000Y-58653000D01*
X48102000Y-59203000D01*
X48086776Y-59279537D01*
X48043421Y-59344421D01*
X47978537Y-59387776D01*
X47902000Y-59403000D01*
X47502000Y-59403000D01*
X47425463Y-59387776D01*
X47360579Y-59344421D01*
X47317224Y-59279537D01*
X47302000Y-59203000D01*
X47302000Y-58653000D01*
X47317224Y-58576463D01*
X47360579Y-58511579D01*
X47425463Y-58468224D01*
X47502000Y-58453000D01*
X47902000Y-58453000D01*
X47978537Y-58468224D01*
G37*
G36*
X49628537Y-58468224D02*
G01*
X49693421Y-58511579D01*
X49736776Y-58576463D01*
X49752000Y-58653000D01*
X49752000Y-59203000D01*
X49736776Y-59279537D01*
X49693421Y-59344421D01*
X49628537Y-59387776D01*
X49552000Y-59403000D01*
X49152000Y-59403000D01*
X49075463Y-59387776D01*
X49010579Y-59344421D01*
X48967224Y-59279537D01*
X48952000Y-59203000D01*
X48952000Y-58653000D01*
X48967224Y-58576463D01*
X49010579Y-58511579D01*
X49075463Y-58468224D01*
X49152000Y-58453000D01*
X49552000Y-58453000D01*
X49628537Y-58468224D01*
G37*
G36*
X51280537Y-58468224D02*
G01*
X51345421Y-58511579D01*
X51388776Y-58576463D01*
X51404000Y-58653000D01*
X51404000Y-59203000D01*
X51388776Y-59279537D01*
X51345421Y-59344421D01*
X51280537Y-59387776D01*
X51204000Y-59403000D01*
X50804000Y-59403000D01*
X50727463Y-59387776D01*
X50662579Y-59344421D01*
X50619224Y-59279537D01*
X50604000Y-59203000D01*
X50604000Y-58653000D01*
X50619224Y-58576463D01*
X50662579Y-58511579D01*
X50727463Y-58468224D01*
X50804000Y-58453000D01*
X51204000Y-58453000D01*
X51280537Y-58468224D01*
G37*
G36*
X52930537Y-58468224D02*
G01*
X52995421Y-58511579D01*
X53038776Y-58576463D01*
X53054000Y-58653000D01*
X53054000Y-59203000D01*
X53038776Y-59279537D01*
X52995421Y-59344421D01*
X52930537Y-59387776D01*
X52854000Y-59403000D01*
X52454000Y-59403000D01*
X52377463Y-59387776D01*
X52312579Y-59344421D01*
X52269224Y-59279537D01*
X52254000Y-59203000D01*
X52254000Y-58653000D01*
X52269224Y-58576463D01*
X52312579Y-58511579D01*
X52377463Y-58468224D01*
X52454000Y-58453000D01*
X52854000Y-58453000D01*
X52930537Y-58468224D01*
G37*
G36*
X56231537Y-58289224D02*
G01*
X56296421Y-58332579D01*
X56339776Y-58397463D01*
X56355000Y-58474000D01*
X56355000Y-58874000D01*
X56339776Y-58950537D01*
X56296421Y-59015421D01*
X56231537Y-59058776D01*
X56155000Y-59074000D01*
X55605000Y-59074000D01*
X55528463Y-59058776D01*
X55463579Y-59015421D01*
X55420224Y-58950537D01*
X55405000Y-58874000D01*
X55405000Y-58474000D01*
X55420224Y-58397463D01*
X55463579Y-58332579D01*
X55528463Y-58289224D01*
X55605000Y-58274000D01*
X56155000Y-58274000D01*
X56231537Y-58289224D01*
G37*
G36*
X48063104Y-56692127D02*
G01*
X48136099Y-56740901D01*
X48184873Y-56813896D01*
X48202000Y-56900000D01*
X48202000Y-57400000D01*
X48184873Y-57486104D01*
X48136099Y-57559099D01*
X48063104Y-57607873D01*
X47977000Y-57625000D01*
X47527000Y-57625000D01*
X47440896Y-57607873D01*
X47367901Y-57559099D01*
X47319127Y-57486104D01*
X47302000Y-57400000D01*
X47302000Y-56900000D01*
X47319127Y-56813896D01*
X47367901Y-56740901D01*
X47440896Y-56692127D01*
X47527000Y-56675000D01*
X47977000Y-56675000D01*
X48063104Y-56692127D01*
G37*
G36*
X49613104Y-56692127D02*
G01*
X49686099Y-56740901D01*
X49734873Y-56813896D01*
X49752000Y-56900000D01*
X49752000Y-57400000D01*
X49734873Y-57486104D01*
X49686099Y-57559099D01*
X49613104Y-57607873D01*
X49527000Y-57625000D01*
X49077000Y-57625000D01*
X48990896Y-57607873D01*
X48917901Y-57559099D01*
X48869127Y-57486104D01*
X48852000Y-57400000D01*
X48852000Y-56900000D01*
X48869127Y-56813896D01*
X48917901Y-56740901D01*
X48990896Y-56692127D01*
X49077000Y-56675000D01*
X49527000Y-56675000D01*
X49613104Y-56692127D01*
G37*
G36*
X56231537Y-56639224D02*
G01*
X56296421Y-56682579D01*
X56339776Y-56747463D01*
X56355000Y-56824000D01*
X56355000Y-57224000D01*
X56339776Y-57300537D01*
X56296421Y-57365421D01*
X56231537Y-57408776D01*
X56155000Y-57424000D01*
X55605000Y-57424000D01*
X55528463Y-57408776D01*
X55463579Y-57365421D01*
X55420224Y-57300537D01*
X55405000Y-57224000D01*
X55405000Y-56824000D01*
X55420224Y-56747463D01*
X55463579Y-56682579D01*
X55528463Y-56639224D01*
X55605000Y-56624000D01*
X56155000Y-56624000D01*
X56231537Y-56639224D01*
G37*
G36*
X52184403Y-56602418D02*
G01*
X52233066Y-56634934D01*
X52265582Y-56683597D01*
X52277000Y-56741000D01*
X52277000Y-57041000D01*
X52265582Y-57098403D01*
X52233066Y-57147066D01*
X52184403Y-57179582D01*
X52127000Y-57191000D01*
X51102000Y-57191000D01*
X51044597Y-57179582D01*
X50995934Y-57147066D01*
X50963418Y-57098403D01*
X50952000Y-57041000D01*
X50952000Y-56741000D01*
X50963418Y-56683597D01*
X50995934Y-56634934D01*
X51044597Y-56602418D01*
X51102000Y-56591000D01*
X52127000Y-56591000D01*
X52184403Y-56602418D01*
G37*
G36*
X54459403Y-56602418D02*
G01*
X54508066Y-56634934D01*
X54540582Y-56683597D01*
X54552000Y-56741000D01*
X54552000Y-57041000D01*
X54540582Y-57098403D01*
X54508066Y-57147066D01*
X54459403Y-57179582D01*
X54402000Y-57191000D01*
X53377000Y-57191000D01*
X53319597Y-57179582D01*
X53270934Y-57147066D01*
X53238418Y-57098403D01*
X53227000Y-57041000D01*
X53227000Y-56741000D01*
X53238418Y-56683597D01*
X53270934Y-56634934D01*
X53319597Y-56602418D01*
X53377000Y-56591000D01*
X54402000Y-56591000D01*
X54459403Y-56602418D01*
G37*
G36*
X54459403Y-55652418D02*
G01*
X54508066Y-55684934D01*
X54540582Y-55733597D01*
X54552000Y-55791000D01*
X54552000Y-56091000D01*
X54540582Y-56148403D01*
X54508066Y-56197066D01*
X54459403Y-56229582D01*
X54402000Y-56241000D01*
X53377000Y-56241000D01*
X53319597Y-56229582D01*
X53270934Y-56197066D01*
X53238418Y-56148403D01*
X53227000Y-56091000D01*
X53227000Y-55791000D01*
X53238418Y-55733597D01*
X53270934Y-55684934D01*
X53319597Y-55652418D01*
X53377000Y-55641000D01*
X54402000Y-55641000D01*
X54459403Y-55652418D01*
G37*
G36*
X58314308Y-54752534D02*
G01*
X58353239Y-54778547D01*
X58379252Y-54817478D01*
X58388386Y-54863400D01*
X58388386Y-55423400D01*
X58379252Y-55469322D01*
X58353239Y-55508253D01*
X58314308Y-55534266D01*
X58268386Y-55543400D01*
X55808386Y-55543400D01*
X55762464Y-55534266D01*
X55723533Y-55508253D01*
X55697520Y-55469322D01*
X55688386Y-55423400D01*
X55688386Y-54863400D01*
X55697520Y-54817478D01*
X55723533Y-54778547D01*
X55762464Y-54752534D01*
X55808386Y-54743400D01*
X58268386Y-54743400D01*
X58314308Y-54752534D01*
G37*
G36*
X52184403Y-54702418D02*
G01*
X52233066Y-54734934D01*
X52265582Y-54783597D01*
X52277000Y-54841000D01*
X52277000Y-55141000D01*
X52265582Y-55198403D01*
X52233066Y-55247066D01*
X52184403Y-55279582D01*
X52127000Y-55291000D01*
X51102000Y-55291000D01*
X51044597Y-55279582D01*
X50995934Y-55247066D01*
X50963418Y-55198403D01*
X50952000Y-55141000D01*
X50952000Y-54841000D01*
X50963418Y-54783597D01*
X50995934Y-54734934D01*
X51044597Y-54702418D01*
X51102000Y-54691000D01*
X52127000Y-54691000D01*
X52184403Y-54702418D01*
G37*
G36*
X54459403Y-54702418D02*
G01*
X54508066Y-54734934D01*
X54540582Y-54783597D01*
X54552000Y-54841000D01*
X54552000Y-55141000D01*
X54540582Y-55198403D01*
X54508066Y-55247066D01*
X54459403Y-55279582D01*
X54402000Y-55291000D01*
X53377000Y-55291000D01*
X53319597Y-55279582D01*
X53270934Y-55247066D01*
X53238418Y-55198403D01*
X53227000Y-55141000D01*
X53227000Y-54841000D01*
X53238418Y-54783597D01*
X53270934Y-54734934D01*
X53319597Y-54702418D01*
X53377000Y-54691000D01*
X54402000Y-54691000D01*
X54459403Y-54702418D01*
G37*
G36*
X49841104Y-52501127D02*
G01*
X49914099Y-52549901D01*
X49962873Y-52622896D01*
X49980000Y-52709000D01*
X49980000Y-53209000D01*
X49962873Y-53295104D01*
X49914099Y-53368099D01*
X49841104Y-53416873D01*
X49755000Y-53434000D01*
X49305000Y-53434000D01*
X49218896Y-53416873D01*
X49145901Y-53368099D01*
X49097127Y-53295104D01*
X49080000Y-53209000D01*
X49080000Y-52709000D01*
X49097127Y-52622896D01*
X49145901Y-52549901D01*
X49218896Y-52501127D01*
X49305000Y-52484000D01*
X49755000Y-52484000D01*
X49841104Y-52501127D01*
G37*
G36*
X51391104Y-52501127D02*
G01*
X51464099Y-52549901D01*
X51512873Y-52622896D01*
X51530000Y-52709000D01*
X51530000Y-53209000D01*
X51512873Y-53295104D01*
X51464099Y-53368099D01*
X51391104Y-53416873D01*
X51305000Y-53434000D01*
X50855000Y-53434000D01*
X50768896Y-53416873D01*
X50695901Y-53368099D01*
X50647127Y-53295104D01*
X50630000Y-53209000D01*
X50630000Y-52709000D01*
X50647127Y-52622896D01*
X50695901Y-52549901D01*
X50768896Y-52501127D01*
X50855000Y-52484000D01*
X51305000Y-52484000D01*
X51391104Y-52501127D01*
G37*
G36*
X53143104Y-52501127D02*
G01*
X53216099Y-52549901D01*
X53264873Y-52622896D01*
X53282000Y-52709000D01*
X53282000Y-53209000D01*
X53264873Y-53295104D01*
X53216099Y-53368099D01*
X53143104Y-53416873D01*
X53057000Y-53434000D01*
X52607000Y-53434000D01*
X52520896Y-53416873D01*
X52447901Y-53368099D01*
X52399127Y-53295104D01*
X52382000Y-53209000D01*
X52382000Y-52709000D01*
X52399127Y-52622896D01*
X52447901Y-52549901D01*
X52520896Y-52501127D01*
X52607000Y-52484000D01*
X53057000Y-52484000D01*
X53143104Y-52501127D01*
G37*
G36*
X54693104Y-52501127D02*
G01*
X54766099Y-52549901D01*
X54814873Y-52622896D01*
X54832000Y-52709000D01*
X54832000Y-53209000D01*
X54814873Y-53295104D01*
X54766099Y-53368099D01*
X54693104Y-53416873D01*
X54607000Y-53434000D01*
X54157000Y-53434000D01*
X54070896Y-53416873D01*
X53997901Y-53368099D01*
X53949127Y-53295104D01*
X53932000Y-53209000D01*
X53932000Y-52709000D01*
X53949127Y-52622896D01*
X53997901Y-52549901D01*
X54070896Y-52501127D01*
X54157000Y-52484000D01*
X54607000Y-52484000D01*
X54693104Y-52501127D01*
G37*
G36*
X58314308Y-52441134D02*
G01*
X58353239Y-52467147D01*
X58379252Y-52506078D01*
X58388386Y-52552000D01*
X58388386Y-53112000D01*
X58379252Y-53157922D01*
X58353239Y-53196853D01*
X58314308Y-53222866D01*
X58268386Y-53232000D01*
X55808386Y-53232000D01*
X55762464Y-53222866D01*
X55723533Y-53196853D01*
X55697520Y-53157922D01*
X55688386Y-53112000D01*
X55688386Y-52552000D01*
X55697520Y-52506078D01*
X55723533Y-52467147D01*
X55762464Y-52441134D01*
X55808386Y-52432000D01*
X58268386Y-52432000D01*
X58314308Y-52441134D01*
G37*
G36*
X53399709Y-44801406D02*
G01*
X53685132Y-44877885D01*
X53958130Y-44990964D01*
X54214033Y-45138710D01*
X54448462Y-45318594D01*
X54657406Y-45527538D01*
X54837290Y-45761967D01*
X54985036Y-46017870D01*
X55098115Y-46290868D01*
X55174594Y-46576291D01*
X55213163Y-46869254D01*
X55213163Y-47164746D01*
X55174594Y-47457709D01*
X55098115Y-47743132D01*
X54985036Y-48016130D01*
X54837290Y-48272033D01*
X54657406Y-48506462D01*
X54448462Y-48715406D01*
X54214033Y-48895290D01*
X53958130Y-49043036D01*
X53685132Y-49156115D01*
X53399709Y-49232594D01*
X53106746Y-49271163D01*
X52811254Y-49271163D01*
X52518291Y-49232594D01*
X52232868Y-49156115D01*
X51959870Y-49043036D01*
X51703967Y-48895290D01*
X51469538Y-48715406D01*
X51260594Y-48506462D01*
X51080710Y-48272033D01*
X50932964Y-48016130D01*
X50819885Y-47743132D01*
X50743406Y-47457709D01*
X50704837Y-47164746D01*
X50704837Y-46869254D01*
X50743406Y-46576291D01*
X50819885Y-46290868D01*
X50932964Y-46017870D01*
X51080710Y-45761967D01*
X51260594Y-45527538D01*
X51469538Y-45318594D01*
X51703967Y-45138710D01*
X51959870Y-44990964D01*
X52232868Y-44877885D01*
X52518291Y-44801406D01*
X52811254Y-44762837D01*
X53106746Y-44762837D01*
X53399709Y-44801406D01*
G37*
G36*
X47558046Y-46929804D02*
G01*
X47610553Y-46935896D01*
X47628494Y-46943818D01*
X47651584Y-46948411D01*
X47676304Y-46964928D01*
X47697619Y-46974340D01*
X47712176Y-46988897D01*
X47734312Y-47003688D01*
X47749102Y-47025823D01*
X47763659Y-47040380D01*
X47773069Y-47061693D01*
X47789589Y-47086416D01*
X47794182Y-47109507D01*
X47802103Y-47127446D01*
X47808192Y-47179942D01*
X47809000Y-47184000D01*
X47809000Y-48374000D01*
X47808192Y-48378058D01*
X47802103Y-48430553D01*
X47794182Y-48448490D01*
X47789589Y-48471584D01*
X47773068Y-48496308D01*
X47763659Y-48517619D01*
X47749104Y-48532173D01*
X47734312Y-48554312D01*
X47712173Y-48569104D01*
X47697619Y-48583659D01*
X47676308Y-48593068D01*
X47651584Y-48609589D01*
X47628490Y-48614182D01*
X47610553Y-48622103D01*
X47558058Y-48628192D01*
X47554000Y-48629000D01*
X45664000Y-48629000D01*
X45659942Y-48628192D01*
X45607446Y-48622103D01*
X45589507Y-48614182D01*
X45566416Y-48609589D01*
X45541693Y-48593069D01*
X45520380Y-48583659D01*
X45505823Y-48569102D01*
X45483688Y-48554312D01*
X45468897Y-48532176D01*
X45454340Y-48517619D01*
X45444928Y-48496304D01*
X45428411Y-48471584D01*
X45423818Y-48448494D01*
X45415896Y-48430553D01*
X45409804Y-48378046D01*
X45409000Y-48374000D01*
X45409000Y-47184000D01*
X45409804Y-47179954D01*
X45415896Y-47127446D01*
X45423818Y-47109503D01*
X45428411Y-47086416D01*
X45444927Y-47061697D01*
X45454340Y-47040380D01*
X45468899Y-47025820D01*
X45483688Y-47003688D01*
X45505820Y-46988899D01*
X45520380Y-46974340D01*
X45541697Y-46964927D01*
X45566416Y-46948411D01*
X45589503Y-46943818D01*
X45607446Y-46935896D01*
X45659954Y-46929804D01*
X45664000Y-46929000D01*
X47554000Y-46929000D01*
X47558046Y-46929804D01*
G37*
G36*
X60258046Y-45405804D02*
G01*
X60310553Y-45411896D01*
X60328494Y-45419818D01*
X60351584Y-45424411D01*
X60376304Y-45440928D01*
X60397619Y-45450340D01*
X60412176Y-45464897D01*
X60434312Y-45479688D01*
X60449102Y-45501823D01*
X60463659Y-45516380D01*
X60473069Y-45537693D01*
X60489589Y-45562416D01*
X60494182Y-45585507D01*
X60502103Y-45603446D01*
X60508192Y-45655942D01*
X60509000Y-45660000D01*
X60509000Y-46850000D01*
X60508192Y-46854058D01*
X60502103Y-46906553D01*
X60494182Y-46924490D01*
X60489589Y-46947584D01*
X60473068Y-46972308D01*
X60463659Y-46993619D01*
X60449104Y-47008173D01*
X60434312Y-47030312D01*
X60412173Y-47045104D01*
X60397619Y-47059659D01*
X60376308Y-47069068D01*
X60351584Y-47085589D01*
X60328490Y-47090182D01*
X60310553Y-47098103D01*
X60258058Y-47104192D01*
X60254000Y-47105000D01*
X58364000Y-47105000D01*
X58359942Y-47104192D01*
X58307446Y-47098103D01*
X58289507Y-47090182D01*
X58266416Y-47085589D01*
X58241693Y-47069069D01*
X58220380Y-47059659D01*
X58205823Y-47045102D01*
X58183688Y-47030312D01*
X58168897Y-47008176D01*
X58154340Y-46993619D01*
X58144928Y-46972304D01*
X58128411Y-46947584D01*
X58123818Y-46924494D01*
X58115896Y-46906553D01*
X58109804Y-46854046D01*
X58109000Y-46850000D01*
X58109000Y-45660000D01*
X58109804Y-45655954D01*
X58115896Y-45603446D01*
X58123818Y-45585503D01*
X58128411Y-45562416D01*
X58144927Y-45537697D01*
X58154340Y-45516380D01*
X58168899Y-45501820D01*
X58183688Y-45479688D01*
X58205820Y-45464899D01*
X58220380Y-45450340D01*
X58241697Y-45440927D01*
X58266416Y-45424411D01*
X58289503Y-45419818D01*
X58307446Y-45411896D01*
X58359954Y-45405804D01*
X58364000Y-45405000D01*
X60254000Y-45405000D01*
X60258046Y-45405804D01*
G37*
G36*
X45357331Y-44794142D02*
G01*
X45405994Y-44826658D01*
X45438510Y-44875321D01*
X45449928Y-44932724D01*
X45449928Y-45232724D01*
X45438510Y-45290127D01*
X45405994Y-45338790D01*
X45357331Y-45371306D01*
X45299928Y-45382724D01*
X44274928Y-45382724D01*
X44217525Y-45371306D01*
X44168862Y-45338790D01*
X44136346Y-45290127D01*
X44124928Y-45232724D01*
X44124928Y-44932724D01*
X44136346Y-44875321D01*
X44168862Y-44826658D01*
X44217525Y-44794142D01*
X44274928Y-44782724D01*
X45299928Y-44782724D01*
X45357331Y-44794142D01*
G37*
G36*
X47632331Y-44794142D02*
G01*
X47680994Y-44826658D01*
X47713510Y-44875321D01*
X47724928Y-44932724D01*
X47724928Y-45232724D01*
X47713510Y-45290127D01*
X47680994Y-45338790D01*
X47632331Y-45371306D01*
X47574928Y-45382724D01*
X46549928Y-45382724D01*
X46492525Y-45371306D01*
X46443862Y-45338790D01*
X46411346Y-45290127D01*
X46399928Y-45232724D01*
X46399928Y-44932724D01*
X46411346Y-44875321D01*
X46443862Y-44826658D01*
X46492525Y-44794142D01*
X46549928Y-44782724D01*
X47574928Y-44782724D01*
X47632331Y-44794142D01*
G37*
G36*
X45357331Y-43844142D02*
G01*
X45405994Y-43876658D01*
X45438510Y-43925321D01*
X45449928Y-43982724D01*
X45449928Y-44282724D01*
X45438510Y-44340127D01*
X45405994Y-44388790D01*
X45357331Y-44421306D01*
X45299928Y-44432724D01*
X44274928Y-44432724D01*
X44217525Y-44421306D01*
X44168862Y-44388790D01*
X44136346Y-44340127D01*
X44124928Y-44282724D01*
X44124928Y-43982724D01*
X44136346Y-43925321D01*
X44168862Y-43876658D01*
X44217525Y-43844142D01*
X44274928Y-43832724D01*
X45299928Y-43832724D01*
X45357331Y-43844142D01*
G37*
G36*
X47632331Y-43844142D02*
G01*
X47680994Y-43876658D01*
X47713510Y-43925321D01*
X47724928Y-43982724D01*
X47724928Y-44282724D01*
X47713510Y-44340127D01*
X47680994Y-44388790D01*
X47632331Y-44421306D01*
X47574928Y-44432724D01*
X46549928Y-44432724D01*
X46492525Y-44421306D01*
X46443862Y-44388790D01*
X46411346Y-44340127D01*
X46399928Y-44282724D01*
X46399928Y-43982724D01*
X46411346Y-43925321D01*
X46443862Y-43876658D01*
X46492525Y-43844142D01*
X46549928Y-43832724D01*
X47574928Y-43832724D01*
X47632331Y-43844142D01*
G37*
G36*
X45357331Y-42894142D02*
G01*
X45405994Y-42926658D01*
X45438510Y-42975321D01*
X45449928Y-43032724D01*
X45449928Y-43332724D01*
X45438510Y-43390127D01*
X45405994Y-43438790D01*
X45357331Y-43471306D01*
X45299928Y-43482724D01*
X44274928Y-43482724D01*
X44217525Y-43471306D01*
X44168862Y-43438790D01*
X44136346Y-43390127D01*
X44124928Y-43332724D01*
X44124928Y-43032724D01*
X44136346Y-42975321D01*
X44168862Y-42926658D01*
X44217525Y-42894142D01*
X44274928Y-42882724D01*
X45299928Y-42882724D01*
X45357331Y-42894142D01*
G37*
G36*
X47632331Y-42894142D02*
G01*
X47680994Y-42926658D01*
X47713510Y-42975321D01*
X47724928Y-43032724D01*
X47724928Y-43332724D01*
X47713510Y-43390127D01*
X47680994Y-43438790D01*
X47632331Y-43471306D01*
X47574928Y-43482724D01*
X46549928Y-43482724D01*
X46492525Y-43471306D01*
X46443862Y-43438790D01*
X46411346Y-43390127D01*
X46399928Y-43332724D01*
X46399928Y-43032724D01*
X46411346Y-42975321D01*
X46443862Y-42926658D01*
X46492525Y-42894142D01*
X46549928Y-42882724D01*
X47574928Y-42882724D01*
X47632331Y-42894142D01*
G37*
G36*
X49295403Y-40978418D02*
G01*
X49344066Y-41010934D01*
X49376582Y-41059597D01*
X49388000Y-41117000D01*
X49388000Y-42292000D01*
X49376582Y-42349403D01*
X49344066Y-42398066D01*
X49295403Y-42430582D01*
X49238000Y-42442000D01*
X48938000Y-42442000D01*
X48880597Y-42430582D01*
X48831934Y-42398066D01*
X48799418Y-42349403D01*
X48788000Y-42292000D01*
X48788000Y-41117000D01*
X48799418Y-41059597D01*
X48831934Y-41010934D01*
X48880597Y-40978418D01*
X48938000Y-40967000D01*
X49238000Y-40967000D01*
X49295403Y-40978418D01*
G37*
G36*
X51195403Y-40978418D02*
G01*
X51244066Y-41010934D01*
X51276582Y-41059597D01*
X51288000Y-41117000D01*
X51288000Y-42292000D01*
X51276582Y-42349403D01*
X51244066Y-42398066D01*
X51195403Y-42430582D01*
X51138000Y-42442000D01*
X50838000Y-42442000D01*
X50780597Y-42430582D01*
X50731934Y-42398066D01*
X50699418Y-42349403D01*
X50688000Y-42292000D01*
X50688000Y-41117000D01*
X50699418Y-41059597D01*
X50731934Y-41010934D01*
X50780597Y-40978418D01*
X50838000Y-40967000D01*
X51138000Y-40967000D01*
X51195403Y-40978418D01*
G37*
G36*
X54868203Y-40978418D02*
G01*
X54916866Y-41010934D01*
X54949382Y-41059597D01*
X54960800Y-41117000D01*
X54960800Y-42292000D01*
X54949382Y-42349403D01*
X54916866Y-42398066D01*
X54868203Y-42430582D01*
X54810800Y-42442000D01*
X54510800Y-42442000D01*
X54453397Y-42430582D01*
X54404734Y-42398066D01*
X54372218Y-42349403D01*
X54360800Y-42292000D01*
X54360800Y-41117000D01*
X54372218Y-41059597D01*
X54404734Y-41010934D01*
X54453397Y-40978418D01*
X54510800Y-40967000D01*
X54810800Y-40967000D01*
X54868203Y-40978418D01*
G37*
G36*
X47595537Y-41080224D02*
G01*
X47660421Y-41123579D01*
X47703776Y-41188463D01*
X47719000Y-41265000D01*
X47719000Y-41665000D01*
X47703776Y-41741537D01*
X47660421Y-41806421D01*
X47595537Y-41849776D01*
X47519000Y-41865000D01*
X46969000Y-41865000D01*
X46892463Y-41849776D01*
X46827579Y-41806421D01*
X46784224Y-41741537D01*
X46769000Y-41665000D01*
X46769000Y-41265000D01*
X46784224Y-41188463D01*
X46827579Y-41123579D01*
X46892463Y-41080224D01*
X46969000Y-41065000D01*
X47519000Y-41065000D01*
X47595537Y-41080224D01*
G37*
G36*
X50245403Y-39103418D02*
G01*
X50294066Y-39135934D01*
X50326582Y-39184597D01*
X50338000Y-39242000D01*
X50338000Y-40417000D01*
X50326582Y-40474403D01*
X50294066Y-40523066D01*
X50245403Y-40555582D01*
X50188000Y-40567000D01*
X49888000Y-40567000D01*
X49830597Y-40555582D01*
X49781934Y-40523066D01*
X49749418Y-40474403D01*
X49738000Y-40417000D01*
X49738000Y-39242000D01*
X49749418Y-39184597D01*
X49781934Y-39135934D01*
X49830597Y-39103418D01*
X49888000Y-39092000D01*
X50188000Y-39092000D01*
X50245403Y-39103418D01*
G37*
G36*
X53918203Y-39103418D02*
G01*
X53966866Y-39135934D01*
X53999382Y-39184597D01*
X54010800Y-39242000D01*
X54010800Y-40417000D01*
X53999382Y-40474403D01*
X53966866Y-40523066D01*
X53918203Y-40555582D01*
X53860800Y-40567000D01*
X53560800Y-40567000D01*
X53503397Y-40555582D01*
X53454734Y-40523066D01*
X53422218Y-40474403D01*
X53410800Y-40417000D01*
X53410800Y-39242000D01*
X53422218Y-39184597D01*
X53454734Y-39135934D01*
X53503397Y-39103418D01*
X53560800Y-39092000D01*
X53860800Y-39092000D01*
X53918203Y-39103418D01*
G37*
G36*
X55818203Y-39103418D02*
G01*
X55866866Y-39135934D01*
X55899382Y-39184597D01*
X55910800Y-39242000D01*
X55910800Y-40417000D01*
X55899382Y-40474403D01*
X55866866Y-40523066D01*
X55818203Y-40555582D01*
X55760800Y-40567000D01*
X55460800Y-40567000D01*
X55403397Y-40555582D01*
X55354734Y-40523066D01*
X55322218Y-40474403D01*
X55310800Y-40417000D01*
X55310800Y-39242000D01*
X55322218Y-39184597D01*
X55354734Y-39135934D01*
X55403397Y-39103418D01*
X55460800Y-39092000D01*
X55760800Y-39092000D01*
X55818203Y-39103418D01*
G37*
G36*
X47595537Y-39430224D02*
G01*
X47660421Y-39473579D01*
X47703776Y-39538463D01*
X47719000Y-39615000D01*
X47719000Y-40015000D01*
X47703776Y-40091537D01*
X47660421Y-40156421D01*
X47595537Y-40199776D01*
X47519000Y-40215000D01*
X46969000Y-40215000D01*
X46892463Y-40199776D01*
X46827579Y-40156421D01*
X46784224Y-40091537D01*
X46769000Y-40015000D01*
X46769000Y-39615000D01*
X46784224Y-39538463D01*
X46827579Y-39473579D01*
X46892463Y-39430224D01*
X46969000Y-39415000D01*
X47519000Y-39415000D01*
X47595537Y-39430224D01*
G37*
G36*
X50728968Y-35609445D02*
G01*
X50952825Y-35682181D01*
X51162548Y-35789040D01*
X51352972Y-35927391D01*
X51519409Y-36093828D01*
X51657760Y-36284252D01*
X51764619Y-36493975D01*
X51837355Y-36717832D01*
X51874176Y-36950311D01*
X51874176Y-37185689D01*
X51837355Y-37418168D01*
X51764619Y-37642025D01*
X51657760Y-37851748D01*
X51519409Y-38042172D01*
X51352972Y-38208609D01*
X51162548Y-38346960D01*
X50952825Y-38453819D01*
X50728968Y-38526555D01*
X50496489Y-38563376D01*
X50261111Y-38563376D01*
X50028632Y-38526555D01*
X49804775Y-38453819D01*
X49595052Y-38346960D01*
X49404628Y-38208609D01*
X49238191Y-38042172D01*
X49099840Y-37851748D01*
X48992981Y-37642025D01*
X48920245Y-37418168D01*
X48883424Y-37185689D01*
X48883424Y-36950311D01*
X48920245Y-36717832D01*
X48992981Y-36493975D01*
X49099840Y-36284252D01*
X49238191Y-36093828D01*
X49404628Y-35927391D01*
X49595052Y-35789040D01*
X49804775Y-35682181D01*
X50028632Y-35609445D01*
X50261111Y-35572624D01*
X50496489Y-35572624D01*
X50728968Y-35609445D01*
G37*
G36*
X55728968Y-35609445D02*
G01*
X55952825Y-35682181D01*
X56162548Y-35789040D01*
X56352972Y-35927391D01*
X56519409Y-36093828D01*
X56657760Y-36284252D01*
X56764619Y-36493975D01*
X56837355Y-36717832D01*
X56874176Y-36950311D01*
X56874176Y-37185689D01*
X56837355Y-37418168D01*
X56764619Y-37642025D01*
X56657760Y-37851748D01*
X56519409Y-38042172D01*
X56352972Y-38208609D01*
X56162548Y-38346960D01*
X55952825Y-38453819D01*
X55728968Y-38526555D01*
X55496489Y-38563376D01*
X55261111Y-38563376D01*
X55028632Y-38526555D01*
X54804775Y-38453819D01*
X54595052Y-38346960D01*
X54404628Y-38208609D01*
X54238191Y-38042172D01*
X54099840Y-37851748D01*
X53992981Y-37642025D01*
X53920245Y-37418168D01*
X53883424Y-37185689D01*
X53883424Y-36950311D01*
X53920245Y-36717832D01*
X53992981Y-36493975D01*
X54099840Y-36284252D01*
X54238191Y-36093828D01*
X54404628Y-35927391D01*
X54595052Y-35789040D01*
X54804775Y-35682181D01*
X55028632Y-35609445D01*
X55261111Y-35572624D01*
X55496489Y-35572624D01*
X55728968Y-35609445D01*
G37*
G36*
X51286203Y-34530818D02*
G01*
X51334866Y-34563334D01*
X51367382Y-34611997D01*
X51378800Y-34669400D01*
X51378800Y-34969400D01*
X51367382Y-35026803D01*
X51334866Y-35075466D01*
X51286203Y-35107982D01*
X51228800Y-35119400D01*
X49578800Y-35119400D01*
X49521397Y-35107982D01*
X49472734Y-35075466D01*
X49440218Y-35026803D01*
X49428800Y-34969400D01*
X49428800Y-34669400D01*
X49440218Y-34611997D01*
X49472734Y-34563334D01*
X49521397Y-34530818D01*
X49578800Y-34519400D01*
X51228800Y-34519400D01*
X51286203Y-34530818D01*
G37*
G36*
X56236203Y-34530818D02*
G01*
X56284866Y-34563334D01*
X56317382Y-34611997D01*
X56328800Y-34669400D01*
X56328800Y-34969400D01*
X56317382Y-35026803D01*
X56284866Y-35075466D01*
X56236203Y-35107982D01*
X56178800Y-35119400D01*
X54528800Y-35119400D01*
X54471397Y-35107982D01*
X54422734Y-35075466D01*
X54390218Y-35026803D01*
X54378800Y-34969400D01*
X54378800Y-34669400D01*
X54390218Y-34611997D01*
X54422734Y-34563334D01*
X54471397Y-34530818D01*
X54528800Y-34519400D01*
X56178800Y-34519400D01*
X56236203Y-34530818D01*
G37*
G36*
X58362504Y-34171727D02*
G01*
X58435499Y-34220501D01*
X58484273Y-34293496D01*
X58501400Y-34379600D01*
X58501400Y-34879600D01*
X58484273Y-34965704D01*
X58435499Y-35038699D01*
X58362504Y-35087473D01*
X58276400Y-35104600D01*
X57826400Y-35104600D01*
X57740296Y-35087473D01*
X57667301Y-35038699D01*
X57618527Y-34965704D01*
X57601400Y-34879600D01*
X57601400Y-34379600D01*
X57618527Y-34293496D01*
X57667301Y-34220501D01*
X57740296Y-34171727D01*
X57826400Y-34154600D01*
X58276400Y-34154600D01*
X58362504Y-34171727D01*
G37*
G36*
X59912504Y-34171727D02*
G01*
X59985499Y-34220501D01*
X60034273Y-34293496D01*
X60051400Y-34379600D01*
X60051400Y-34879600D01*
X60034273Y-34965704D01*
X59985499Y-35038699D01*
X59912504Y-35087473D01*
X59826400Y-35104600D01*
X59376400Y-35104600D01*
X59290296Y-35087473D01*
X59217301Y-35038699D01*
X59168527Y-34965704D01*
X59151400Y-34879600D01*
X59151400Y-34379600D01*
X59168527Y-34293496D01*
X59217301Y-34220501D01*
X59290296Y-34171727D01*
X59376400Y-34154600D01*
X59826400Y-34154600D01*
X59912504Y-34171727D01*
G37*
G36*
X44854537Y-33830224D02*
G01*
X44919421Y-33873579D01*
X44962776Y-33938463D01*
X44978000Y-34015000D01*
X44978000Y-34565000D01*
X44962776Y-34641537D01*
X44919421Y-34706421D01*
X44854537Y-34749776D01*
X44778000Y-34765000D01*
X44378000Y-34765000D01*
X44301463Y-34749776D01*
X44236579Y-34706421D01*
X44193224Y-34641537D01*
X44178000Y-34565000D01*
X44178000Y-34015000D01*
X44193224Y-33938463D01*
X44236579Y-33873579D01*
X44301463Y-33830224D01*
X44378000Y-33815000D01*
X44778000Y-33815000D01*
X44854537Y-33830224D01*
G37*
G36*
X46504537Y-33830224D02*
G01*
X46569421Y-33873579D01*
X46612776Y-33938463D01*
X46628000Y-34015000D01*
X46628000Y-34565000D01*
X46612776Y-34641537D01*
X46569421Y-34706421D01*
X46504537Y-34749776D01*
X46428000Y-34765000D01*
X46028000Y-34765000D01*
X45951463Y-34749776D01*
X45886579Y-34706421D01*
X45843224Y-34641537D01*
X45828000Y-34565000D01*
X45828000Y-34015000D01*
X45843224Y-33938463D01*
X45886579Y-33873579D01*
X45951463Y-33830224D01*
X46028000Y-33815000D01*
X46428000Y-33815000D01*
X46504537Y-33830224D01*
G37*
G36*
X54023800Y-34414400D02*
G01*
X51733800Y-34414400D01*
X51733800Y-31414400D01*
X54023800Y-31414400D01*
X54023800Y-34414400D01*
G37*
G36*
X51286203Y-33260818D02*
G01*
X51334866Y-33293334D01*
X51367382Y-33341997D01*
X51378800Y-33399400D01*
X51378800Y-33699400D01*
X51367382Y-33756803D01*
X51334866Y-33805466D01*
X51286203Y-33837982D01*
X51228800Y-33849400D01*
X49578800Y-33849400D01*
X49521397Y-33837982D01*
X49472734Y-33805466D01*
X49440218Y-33756803D01*
X49428800Y-33699400D01*
X49428800Y-33399400D01*
X49440218Y-33341997D01*
X49472734Y-33293334D01*
X49521397Y-33260818D01*
X49578800Y-33249400D01*
X51228800Y-33249400D01*
X51286203Y-33260818D01*
G37*
G36*
X56236203Y-33260818D02*
G01*
X56284866Y-33293334D01*
X56317382Y-33341997D01*
X56328800Y-33399400D01*
X56328800Y-33699400D01*
X56317382Y-33756803D01*
X56284866Y-33805466D01*
X56236203Y-33837982D01*
X56178800Y-33849400D01*
X54528800Y-33849400D01*
X54471397Y-33837982D01*
X54422734Y-33805466D01*
X54390218Y-33756803D01*
X54378800Y-33699400D01*
X54378800Y-33399400D01*
X54390218Y-33341997D01*
X54422734Y-33293334D01*
X54471397Y-33260818D01*
X54528800Y-33249400D01*
X56178800Y-33249400D01*
X56236203Y-33260818D01*
G37*
G36*
X62361676Y-32390199D02*
G01*
X62390225Y-32409275D01*
X62409301Y-32437824D01*
X62416000Y-32471500D01*
X62416000Y-33295500D01*
X62409301Y-33329176D01*
X62390225Y-33357725D01*
X62361676Y-33376801D01*
X62328000Y-33383500D01*
X61624000Y-33383500D01*
X61590324Y-33376801D01*
X61561775Y-33357725D01*
X61542699Y-33329176D01*
X61536000Y-33295500D01*
X61536000Y-32471500D01*
X61542699Y-32437824D01*
X61561775Y-32409275D01*
X61590324Y-32390199D01*
X61624000Y-32383500D01*
X62328000Y-32383500D01*
X62361676Y-32390199D01*
G37*
G36*
X44854537Y-32306224D02*
G01*
X44919421Y-32349579D01*
X44962776Y-32414463D01*
X44978000Y-32491000D01*
X44978000Y-33041000D01*
X44962776Y-33117537D01*
X44919421Y-33182421D01*
X44854537Y-33225776D01*
X44778000Y-33241000D01*
X44378000Y-33241000D01*
X44301463Y-33225776D01*
X44236579Y-33182421D01*
X44193224Y-33117537D01*
X44178000Y-33041000D01*
X44178000Y-32491000D01*
X44193224Y-32414463D01*
X44236579Y-32349579D01*
X44301463Y-32306224D01*
X44378000Y-32291000D01*
X44778000Y-32291000D01*
X44854537Y-32306224D01*
G37*
G36*
X46504537Y-32306224D02*
G01*
X46569421Y-32349579D01*
X46612776Y-32414463D01*
X46628000Y-32491000D01*
X46628000Y-33041000D01*
X46612776Y-33117537D01*
X46569421Y-33182421D01*
X46504537Y-33225776D01*
X46428000Y-33241000D01*
X46028000Y-33241000D01*
X45951463Y-33225776D01*
X45886579Y-33182421D01*
X45843224Y-33117537D01*
X45828000Y-33041000D01*
X45828000Y-32491000D01*
X45843224Y-32414463D01*
X45886579Y-32349579D01*
X45951463Y-32306224D01*
X46028000Y-32291000D01*
X46428000Y-32291000D01*
X46504537Y-32306224D01*
G37*
G36*
X48357537Y-32428224D02*
G01*
X48422421Y-32471579D01*
X48465776Y-32536463D01*
X48481000Y-32613000D01*
X48481000Y-33013000D01*
X48465776Y-33089537D01*
X48422421Y-33154421D01*
X48357537Y-33197776D01*
X48281000Y-33213000D01*
X47731000Y-33213000D01*
X47654463Y-33197776D01*
X47589579Y-33154421D01*
X47546224Y-33089537D01*
X47531000Y-33013000D01*
X47531000Y-32613000D01*
X47546224Y-32536463D01*
X47589579Y-32471579D01*
X47654463Y-32428224D01*
X47731000Y-32413000D01*
X48281000Y-32413000D01*
X48357537Y-32428224D01*
G37*
G36*
X51286203Y-31990818D02*
G01*
X51334866Y-32023334D01*
X51367382Y-32071997D01*
X51378800Y-32129400D01*
X51378800Y-32429400D01*
X51367382Y-32486803D01*
X51334866Y-32535466D01*
X51286203Y-32567982D01*
X51228800Y-32579400D01*
X49578800Y-32579400D01*
X49521397Y-32567982D01*
X49472734Y-32535466D01*
X49440218Y-32486803D01*
X49428800Y-32429400D01*
X49428800Y-32129400D01*
X49440218Y-32071997D01*
X49472734Y-32023334D01*
X49521397Y-31990818D01*
X49578800Y-31979400D01*
X51228800Y-31979400D01*
X51286203Y-31990818D01*
G37*
G36*
X56236203Y-31990818D02*
G01*
X56284866Y-32023334D01*
X56317382Y-32071997D01*
X56328800Y-32129400D01*
X56328800Y-32429400D01*
X56317382Y-32486803D01*
X56284866Y-32535466D01*
X56236203Y-32567982D01*
X56178800Y-32579400D01*
X54528800Y-32579400D01*
X54471397Y-32567982D01*
X54422734Y-32535466D01*
X54390218Y-32486803D01*
X54378800Y-32429400D01*
X54378800Y-32129400D01*
X54390218Y-32071997D01*
X54422734Y-32023334D01*
X54471397Y-31990818D01*
X54528800Y-31979400D01*
X56178800Y-31979400D01*
X56236203Y-31990818D01*
G37*
G36*
X62168838Y-31566849D02*
G01*
X62183113Y-31576387D01*
X62192651Y-31590662D01*
X62196000Y-31607500D01*
X62196000Y-32049500D01*
X62192651Y-32066338D01*
X62183113Y-32080613D01*
X62168838Y-32090151D01*
X62152000Y-32093500D01*
X61800000Y-32093500D01*
X61783162Y-32090151D01*
X61768887Y-32080613D01*
X61759349Y-32066338D01*
X61756000Y-32049500D01*
X61756000Y-31607500D01*
X61759349Y-31590662D01*
X61768887Y-31576387D01*
X61783162Y-31566849D01*
X61800000Y-31563500D01*
X62152000Y-31563500D01*
X62168838Y-31566849D01*
G37*
G36*
X44939104Y-30768127D02*
G01*
X45012099Y-30816901D01*
X45060873Y-30889896D01*
X45078000Y-30976000D01*
X45078000Y-31476000D01*
X45060873Y-31562104D01*
X45012099Y-31635099D01*
X44939104Y-31683873D01*
X44853000Y-31701000D01*
X44403000Y-31701000D01*
X44316896Y-31683873D01*
X44243901Y-31635099D01*
X44195127Y-31562104D01*
X44178000Y-31476000D01*
X44178000Y-30976000D01*
X44195127Y-30889896D01*
X44243901Y-30816901D01*
X44316896Y-30768127D01*
X44403000Y-30751000D01*
X44853000Y-30751000D01*
X44939104Y-30768127D01*
G37*
G36*
X46489104Y-30768127D02*
G01*
X46562099Y-30816901D01*
X46610873Y-30889896D01*
X46628000Y-30976000D01*
X46628000Y-31476000D01*
X46610873Y-31562104D01*
X46562099Y-31635099D01*
X46489104Y-31683873D01*
X46403000Y-31701000D01*
X45953000Y-31701000D01*
X45866896Y-31683873D01*
X45793901Y-31635099D01*
X45745127Y-31562104D01*
X45728000Y-31476000D01*
X45728000Y-30976000D01*
X45745127Y-30889896D01*
X45793901Y-30816901D01*
X45866896Y-30768127D01*
X45953000Y-30751000D01*
X46403000Y-30751000D01*
X46489104Y-30768127D01*
G37*
G36*
X48357537Y-30778224D02*
G01*
X48422421Y-30821579D01*
X48465776Y-30886463D01*
X48481000Y-30963000D01*
X48481000Y-31363000D01*
X48465776Y-31439537D01*
X48422421Y-31504421D01*
X48357537Y-31547776D01*
X48281000Y-31563000D01*
X47731000Y-31563000D01*
X47654463Y-31547776D01*
X47589579Y-31504421D01*
X47546224Y-31439537D01*
X47531000Y-31363000D01*
X47531000Y-30963000D01*
X47546224Y-30886463D01*
X47589579Y-30821579D01*
X47654463Y-30778224D01*
X47731000Y-30763000D01*
X48281000Y-30763000D01*
X48357537Y-30778224D01*
G37*
G36*
X62168838Y-30786849D02*
G01*
X62183113Y-30796387D01*
X62192651Y-30810662D01*
X62196000Y-30827500D01*
X62196000Y-31269500D01*
X62192651Y-31286338D01*
X62183113Y-31300613D01*
X62168838Y-31310151D01*
X62152000Y-31313500D01*
X61800000Y-31313500D01*
X61783162Y-31310151D01*
X61768887Y-31300613D01*
X61759349Y-31286338D01*
X61756000Y-31269500D01*
X61756000Y-30827500D01*
X61759349Y-30810662D01*
X61768887Y-30796387D01*
X61783162Y-30786849D01*
X61800000Y-30783500D01*
X62152000Y-30783500D01*
X62168838Y-30786849D01*
G37*
G36*
X51286203Y-30720818D02*
G01*
X51334866Y-30753334D01*
X51367382Y-30801997D01*
X51378800Y-30859400D01*
X51378800Y-31159400D01*
X51367382Y-31216803D01*
X51334866Y-31265466D01*
X51286203Y-31297982D01*
X51228800Y-31309400D01*
X49578800Y-31309400D01*
X49521397Y-31297982D01*
X49472734Y-31265466D01*
X49440218Y-31216803D01*
X49428800Y-31159400D01*
X49428800Y-30859400D01*
X49440218Y-30801997D01*
X49472734Y-30753334D01*
X49521397Y-30720818D01*
X49578800Y-30709400D01*
X51228800Y-30709400D01*
X51286203Y-30720818D01*
G37*
G36*
X56236203Y-30720818D02*
G01*
X56284866Y-30753334D01*
X56317382Y-30801997D01*
X56328800Y-30859400D01*
X56328800Y-31159400D01*
X56317382Y-31216803D01*
X56284866Y-31265466D01*
X56236203Y-31297982D01*
X56178800Y-31309400D01*
X54528800Y-31309400D01*
X54471397Y-31297982D01*
X54422734Y-31265466D01*
X54390218Y-31216803D01*
X54378800Y-31159400D01*
X54378800Y-30859400D01*
X54390218Y-30801997D01*
X54422734Y-30753334D01*
X54471397Y-30720818D01*
X54528800Y-30709400D01*
X56178800Y-30709400D01*
X56236203Y-30720818D01*
G37*
G36*
X53228968Y-28009445D02*
G01*
X53452825Y-28082181D01*
X53662548Y-28189040D01*
X53852972Y-28327391D01*
X54019409Y-28493828D01*
X54157760Y-28684252D01*
X54264619Y-28893975D01*
X54337355Y-29117832D01*
X54374176Y-29350311D01*
X54374176Y-29585689D01*
X54337355Y-29818168D01*
X54264619Y-30042025D01*
X54157760Y-30251748D01*
X54019409Y-30442172D01*
X53852972Y-30608609D01*
X53662548Y-30746960D01*
X53452825Y-30853819D01*
X53228968Y-30926555D01*
X52996489Y-30963376D01*
X52761111Y-30963376D01*
X52528632Y-30926555D01*
X52304775Y-30853819D01*
X52095052Y-30746960D01*
X51904628Y-30608609D01*
X51738191Y-30442172D01*
X51599840Y-30251748D01*
X51492981Y-30042025D01*
X51420245Y-29818168D01*
X51383424Y-29585689D01*
X51383424Y-29350311D01*
X51420245Y-29117832D01*
X51492981Y-28893975D01*
X51599840Y-28684252D01*
X51738191Y-28493828D01*
X51904628Y-28327391D01*
X52095052Y-28189040D01*
X52304775Y-28082181D01*
X52528632Y-28009445D01*
X52761111Y-27972624D01*
X52996489Y-27972624D01*
X53228968Y-28009445D01*
G37*
G36*
X62361676Y-29490199D02*
G01*
X62390225Y-29509275D01*
X62409301Y-29537824D01*
X62416000Y-29571500D01*
X62416000Y-30395500D01*
X62409301Y-30429176D01*
X62390225Y-30457725D01*
X62361676Y-30476801D01*
X62328000Y-30483500D01*
X61624000Y-30483500D01*
X61590324Y-30476801D01*
X61561775Y-30457725D01*
X61542699Y-30429176D01*
X61536000Y-30395500D01*
X61536000Y-29571500D01*
X61542699Y-29537824D01*
X61561775Y-29509275D01*
X61590324Y-29490199D01*
X61624000Y-29483500D01*
X62328000Y-29483500D01*
X62361676Y-29490199D01*
G37*
G36*
X58257937Y-28496224D02*
G01*
X58322821Y-28539579D01*
X58366176Y-28604463D01*
X58381400Y-28681000D01*
X58381400Y-29231000D01*
X58366176Y-29307537D01*
X58322821Y-29372421D01*
X58257937Y-29415776D01*
X58181400Y-29431000D01*
X57781400Y-29431000D01*
X57704863Y-29415776D01*
X57639979Y-29372421D01*
X57596624Y-29307537D01*
X57581400Y-29231000D01*
X57581400Y-28681000D01*
X57596624Y-28604463D01*
X57639979Y-28539579D01*
X57704863Y-28496224D01*
X57781400Y-28481000D01*
X58181400Y-28481000D01*
X58257937Y-28496224D01*
G37*
G36*
X59907937Y-28496224D02*
G01*
X59972821Y-28539579D01*
X60016176Y-28604463D01*
X60031400Y-28681000D01*
X60031400Y-29231000D01*
X60016176Y-29307537D01*
X59972821Y-29372421D01*
X59907937Y-29415776D01*
X59831400Y-29431000D01*
X59431400Y-29431000D01*
X59354863Y-29415776D01*
X59289979Y-29372421D01*
X59246624Y-29307537D01*
X59231400Y-29231000D01*
X59231400Y-28681000D01*
X59246624Y-28604463D01*
X59289979Y-28539579D01*
X59354863Y-28496224D01*
X59431400Y-28481000D01*
X59831400Y-28481000D01*
X59907937Y-28496224D01*
G37*
G36*
X44413714Y-26460295D02*
G01*
X44549548Y-26516559D01*
X44671795Y-26598242D01*
X44775758Y-26702205D01*
X44857441Y-26824452D01*
X44913705Y-26960286D01*
X44942389Y-27104487D01*
X44942389Y-27251513D01*
X44913705Y-27395714D01*
X44857441Y-27531548D01*
X44775758Y-27653795D01*
X44671795Y-27757758D01*
X44549548Y-27839441D01*
X44413714Y-27895705D01*
X44269513Y-27924389D01*
X44122487Y-27924389D01*
X43978286Y-27895705D01*
X43842452Y-27839441D01*
X43720205Y-27757758D01*
X43616242Y-27653795D01*
X43534559Y-27531548D01*
X43478295Y-27395714D01*
X43449611Y-27251513D01*
X43449611Y-27104487D01*
X43478295Y-26960286D01*
X43534559Y-26824452D01*
X43616242Y-26702205D01*
X43720205Y-26598242D01*
X43842452Y-26516559D01*
X43978286Y-26460295D01*
X44122487Y-26431611D01*
X44269513Y-26431611D01*
X44413714Y-26460295D01*
G37*
G36*
X61685714Y-26460295D02*
G01*
X61821548Y-26516559D01*
X61943795Y-26598242D01*
X62047758Y-26702205D01*
X62129441Y-26824452D01*
X62185705Y-26960286D01*
X62214389Y-27104487D01*
X62214389Y-27251513D01*
X62185705Y-27395714D01*
X62129441Y-27531548D01*
X62047758Y-27653795D01*
X61943795Y-27757758D01*
X61821548Y-27839441D01*
X61685714Y-27895705D01*
X61541513Y-27924389D01*
X61394487Y-27924389D01*
X61250286Y-27895705D01*
X61114452Y-27839441D01*
X60992205Y-27757758D01*
X60888242Y-27653795D01*
X60806559Y-27531548D01*
X60750295Y-27395714D01*
X60721611Y-27251513D01*
X60721611Y-27104487D01*
X60750295Y-26960286D01*
X60806559Y-26824452D01*
X60888242Y-26702205D01*
X60992205Y-26598242D01*
X61114452Y-26516559D01*
X61250286Y-26460295D01*
X61394487Y-26431611D01*
X61541513Y-26431611D01*
X61685714Y-26460295D01*
G37*
G36*
X50439904Y-25003127D02*
G01*
X50512899Y-25051901D01*
X50561673Y-25124896D01*
X50578800Y-25211000D01*
X50578800Y-26361000D01*
X50561673Y-26447104D01*
X50512899Y-26520099D01*
X50439904Y-26568873D01*
X50353800Y-26586000D01*
X49903800Y-26586000D01*
X49817696Y-26568873D01*
X49744701Y-26520099D01*
X49695927Y-26447104D01*
X49678800Y-26361000D01*
X49678800Y-25211000D01*
X49695927Y-25124896D01*
X49744701Y-25051901D01*
X49817696Y-25003127D01*
X49903800Y-24986000D01*
X50353800Y-24986000D01*
X50439904Y-25003127D01*
G37*
G36*
X51635337Y-25001224D02*
G01*
X51700221Y-25044579D01*
X51743576Y-25109463D01*
X51758800Y-25186000D01*
X51758800Y-26386000D01*
X51743576Y-26462537D01*
X51700221Y-26527421D01*
X51635337Y-26570776D01*
X51558800Y-26586000D01*
X51158800Y-26586000D01*
X51082263Y-26570776D01*
X51017379Y-26527421D01*
X50974024Y-26462537D01*
X50958800Y-26386000D01*
X50958800Y-25186000D01*
X50974024Y-25109463D01*
X51017379Y-25044579D01*
X51082263Y-25001224D01*
X51158800Y-24986000D01*
X51558800Y-24986000D01*
X51635337Y-25001224D01*
G37*
G36*
X52620770Y-24999321D02*
G01*
X52677544Y-25037256D01*
X52715479Y-25094030D01*
X52728800Y-25161000D01*
X52728800Y-26411000D01*
X52715479Y-26477970D01*
X52677544Y-26534744D01*
X52620770Y-26572679D01*
X52553800Y-26586000D01*
X52203800Y-26586000D01*
X52136830Y-26572679D01*
X52080056Y-26534744D01*
X52042121Y-26477970D01*
X52028800Y-26411000D01*
X52028800Y-25161000D01*
X52042121Y-25094030D01*
X52080056Y-25037256D01*
X52136830Y-24999321D01*
X52203800Y-24986000D01*
X52553800Y-24986000D01*
X52620770Y-24999321D01*
G37*
G36*
X53620770Y-24999321D02*
G01*
X53677544Y-25037256D01*
X53715479Y-25094030D01*
X53728800Y-25161000D01*
X53728800Y-26411000D01*
X53715479Y-26477970D01*
X53677544Y-26534744D01*
X53620770Y-26572679D01*
X53553800Y-26586000D01*
X53203800Y-26586000D01*
X53136830Y-26572679D01*
X53080056Y-26534744D01*
X53042121Y-26477970D01*
X53028800Y-26411000D01*
X53028800Y-25161000D01*
X53042121Y-25094030D01*
X53080056Y-25037256D01*
X53136830Y-24999321D01*
X53203800Y-24986000D01*
X53553800Y-24986000D01*
X53620770Y-24999321D01*
G37*
G36*
X54675337Y-25001224D02*
G01*
X54740221Y-25044579D01*
X54783576Y-25109463D01*
X54798800Y-25186000D01*
X54798800Y-26386000D01*
X54783576Y-26462537D01*
X54740221Y-26527421D01*
X54675337Y-26570776D01*
X54598800Y-26586000D01*
X54198800Y-26586000D01*
X54122263Y-26570776D01*
X54057379Y-26527421D01*
X54014024Y-26462537D01*
X53998800Y-26386000D01*
X53998800Y-25186000D01*
X54014024Y-25109463D01*
X54057379Y-25044579D01*
X54122263Y-25001224D01*
X54198800Y-24986000D01*
X54598800Y-24986000D01*
X54675337Y-25001224D01*
G37*
G36*
X55939904Y-25003127D02*
G01*
X56012899Y-25051901D01*
X56061673Y-25124896D01*
X56078800Y-25211000D01*
X56078800Y-26361000D01*
X56061673Y-26447104D01*
X56012899Y-26520099D01*
X55939904Y-26568873D01*
X55853800Y-26586000D01*
X55403800Y-26586000D01*
X55317696Y-26568873D01*
X55244701Y-26520099D01*
X55195927Y-26447104D01*
X55178800Y-26361000D01*
X55178800Y-25211000D01*
X55195927Y-25124896D01*
X55244701Y-25051901D01*
X55317696Y-25003127D01*
X55403800Y-24986000D01*
X55853800Y-24986000D01*
X55939904Y-25003127D01*
G37*
G36*
X48750142Y-24794060D02*
G01*
X48863181Y-24859323D01*
X48955477Y-24951619D01*
X49020740Y-25064658D01*
X49054522Y-25190737D01*
X49058800Y-25256000D01*
X49058800Y-25956000D01*
X49054522Y-26021263D01*
X49020740Y-26147342D01*
X48955477Y-26260381D01*
X48863181Y-26352677D01*
X48750142Y-26417940D01*
X48624063Y-26451722D01*
X48493537Y-26451722D01*
X48367458Y-26417940D01*
X48254419Y-26352677D01*
X48162123Y-26260381D01*
X48096860Y-26147342D01*
X48063078Y-26021263D01*
X48058800Y-25956000D01*
X48058800Y-25256000D01*
X48063078Y-25190737D01*
X48096860Y-25064658D01*
X48162123Y-24951619D01*
X48254419Y-24859323D01*
X48367458Y-24794060D01*
X48493537Y-24760278D01*
X48624063Y-24760278D01*
X48750142Y-24794060D01*
G37*
G36*
X57390142Y-24794060D02*
G01*
X57503181Y-24859323D01*
X57595477Y-24951619D01*
X57660740Y-25064658D01*
X57694522Y-25190737D01*
X57698800Y-25256000D01*
X57698800Y-25956000D01*
X57694522Y-26021263D01*
X57660740Y-26147342D01*
X57595477Y-26260381D01*
X57503181Y-26352677D01*
X57390142Y-26417940D01*
X57264063Y-26451722D01*
X57133537Y-26451722D01*
X57007458Y-26417940D01*
X56894419Y-26352677D01*
X56802123Y-26260381D01*
X56736860Y-26147342D01*
X56703078Y-26021263D01*
X56698800Y-25956000D01*
X56698800Y-25256000D01*
X56703078Y-25190737D01*
X56736860Y-25064658D01*
X56802123Y-24951619D01*
X56894419Y-24859323D01*
X57007458Y-24794060D01*
X57133537Y-24760278D01*
X57264063Y-24760278D01*
X57390142Y-24794060D01*
G37*
G36*
X44917537Y-24178224D02*
G01*
X44982421Y-24221579D01*
X45025776Y-24286463D01*
X45041000Y-24363000D01*
X45041000Y-24913000D01*
X45025776Y-24989537D01*
X44982421Y-25054421D01*
X44917537Y-25097776D01*
X44841000Y-25113000D01*
X44441000Y-25113000D01*
X44364463Y-25097776D01*
X44299579Y-25054421D01*
X44256224Y-24989537D01*
X44241000Y-24913000D01*
X44241000Y-24363000D01*
X44256224Y-24286463D01*
X44299579Y-24221579D01*
X44364463Y-24178224D01*
X44441000Y-24163000D01*
X44841000Y-24163000D01*
X44917537Y-24178224D01*
G37*
G36*
X46567537Y-24178224D02*
G01*
X46632421Y-24221579D01*
X46675776Y-24286463D01*
X46691000Y-24363000D01*
X46691000Y-24913000D01*
X46675776Y-24989537D01*
X46632421Y-25054421D01*
X46567537Y-25097776D01*
X46491000Y-25113000D01*
X46091000Y-25113000D01*
X46014463Y-25097776D01*
X45949579Y-25054421D01*
X45906224Y-24989537D01*
X45891000Y-24913000D01*
X45891000Y-24363000D01*
X45906224Y-24286463D01*
X45949579Y-24221579D01*
X46014463Y-24178224D01*
X46091000Y-24163000D01*
X46491000Y-24163000D01*
X46567537Y-24178224D01*
G37*
G36*
X44917537Y-22654224D02*
G01*
X44982421Y-22697579D01*
X45025776Y-22762463D01*
X45041000Y-22839000D01*
X45041000Y-23389000D01*
X45025776Y-23465537D01*
X44982421Y-23530421D01*
X44917537Y-23573776D01*
X44841000Y-23589000D01*
X44441000Y-23589000D01*
X44364463Y-23573776D01*
X44299579Y-23530421D01*
X44256224Y-23465537D01*
X44241000Y-23389000D01*
X44241000Y-22839000D01*
X44256224Y-22762463D01*
X44299579Y-22697579D01*
X44364463Y-22654224D01*
X44441000Y-22639000D01*
X44841000Y-22639000D01*
X44917537Y-22654224D01*
G37*
G36*
X46567537Y-22654224D02*
G01*
X46632421Y-22697579D01*
X46675776Y-22762463D01*
X46691000Y-22839000D01*
X46691000Y-23389000D01*
X46675776Y-23465537D01*
X46632421Y-23530421D01*
X46567537Y-23573776D01*
X46491000Y-23589000D01*
X46091000Y-23589000D01*
X46014463Y-23573776D01*
X45949579Y-23530421D01*
X45906224Y-23465537D01*
X45891000Y-23389000D01*
X45891000Y-22839000D01*
X45906224Y-22762463D01*
X45949579Y-22697579D01*
X46014463Y-22654224D01*
X46091000Y-22639000D01*
X46491000Y-22639000D01*
X46567537Y-22654224D01*
G37*
G36*
X48750142Y-20994060D02*
G01*
X48863181Y-21059323D01*
X48955477Y-21151619D01*
X49020740Y-21264658D01*
X49054522Y-21390737D01*
X49058800Y-21456000D01*
X49058800Y-22156000D01*
X49054522Y-22221263D01*
X49020740Y-22347342D01*
X48955477Y-22460381D01*
X48863181Y-22552677D01*
X48750142Y-22617940D01*
X48624063Y-22651722D01*
X48493537Y-22651722D01*
X48367458Y-22617940D01*
X48254419Y-22552677D01*
X48162123Y-22460381D01*
X48096860Y-22347342D01*
X48063078Y-22221263D01*
X48058800Y-22156000D01*
X48058800Y-21456000D01*
X48063078Y-21390737D01*
X48096860Y-21264658D01*
X48162123Y-21151619D01*
X48254419Y-21059323D01*
X48367458Y-20994060D01*
X48493537Y-20960278D01*
X48624063Y-20960278D01*
X48750142Y-20994060D01*
G37*
G36*
X57390142Y-20994060D02*
G01*
X57503181Y-21059323D01*
X57595477Y-21151619D01*
X57660740Y-21264658D01*
X57694522Y-21390737D01*
X57698800Y-21456000D01*
X57698800Y-22156000D01*
X57694522Y-22221263D01*
X57660740Y-22347342D01*
X57595477Y-22460381D01*
X57503181Y-22552677D01*
X57390142Y-22617940D01*
X57264063Y-22651722D01*
X57133537Y-22651722D01*
X57007458Y-22617940D01*
X56894419Y-22552677D01*
X56802123Y-22460381D01*
X56736860Y-22347342D01*
X56703078Y-22221263D01*
X56698800Y-22156000D01*
X56698800Y-21456000D01*
X56703078Y-21390737D01*
X56736860Y-21264658D01*
X56802123Y-21151619D01*
X56894419Y-21059323D01*
X57007458Y-20994060D01*
X57133537Y-20960278D01*
X57264063Y-20960278D01*
X57390142Y-20994060D01*
G37*
M02*
