%TF.GenerationSoftware,KiCad,Pcbnew,9.0.3*%
%TF.CreationDate,2025-09-25T22:47:40-04:00*%
%TF.ProjectId,Photon,50686f74-6f6e-42e6-9b69-6361645f7063,1.3*%
%TF.SameCoordinates,Original*%
%TF.FileFunction,Copper,L2,Inr*%
%TF.FilePolarity,Positive*%
%FSLAX46Y46*%
G04 Gerber Fmt 4.6, Leading zero omitted, Abs format (unit mm)*
G04 Created by KiCad (PCBNEW 9.0.3) date 2025-09-25 22:47:40*
%MOMM*%
%LPD*%
G01*
G04 APERTURE LIST*
%TA.AperFunction,HeatsinkPad*%
%ADD10O,1.000000X1.700000*%
%TD*%
%TA.AperFunction,ViaPad*%
%ADD11C,0.700000*%
%TD*%
G04 APERTURE END LIST*
D10*
%TO.N,GND*%
%TO.C,J1*%
X57198800Y-25860000D03*
X57198800Y-22060000D03*
X48558800Y-25860000D03*
X48558800Y-22060000D03*
%TD*%
D11*
%TO.N,GND*%
X46736000Y-81534000D03*
X55626000Y-24526000D03*
X52324000Y-67056000D03*
X61976000Y-56642000D03*
X43434000Y-23114000D03*
X59182000Y-29464000D03*
X56896000Y-74676000D03*
X57658000Y-32004000D03*
X50128800Y-24526000D03*
X43434000Y-24892000D03*
X54864000Y-70104000D03*
X59436000Y-87376000D03*
X52578000Y-64770000D03*
X55372000Y-42863000D03*
X60960000Y-81026000D03*
X57057000Y-112268000D03*
X44196000Y-55880000D03*
X50292000Y-81534000D03*
X46228000Y-55880000D03*
X59944000Y-103886000D03*
X59182000Y-32004000D03*
X43942000Y-64770000D03*
X45466000Y-28956000D03*
%TO.N,PACK+*%
X48006000Y-28702000D03*
X45212000Y-99568000D03*
X57658000Y-35306000D03*
X48768000Y-63500000D03*
%TO.N,+3V3*%
X55880000Y-61976000D03*
X48768000Y-65024000D03*
X57912000Y-61976000D03*
X53848000Y-46482000D03*
X59944000Y-61976000D03*
X48260000Y-69088000D03*
X45149000Y-113475000D03*
X51816000Y-96266000D03*
X51816000Y-98552000D03*
X53848000Y-44450000D03*
X48768000Y-81534000D03*
%TO.N,5V*%
X48768000Y-35814000D03*
X51358800Y-24526000D03*
X54356000Y-24384000D03*
X57404000Y-29464000D03*
X51816000Y-41085000D03*
%TO.N,/Bat_Neg*%
X48514000Y-109728000D03*
%TD*%
%TA.AperFunction,Conductor*%
%TO.N,GND*%
G36*
X48266809Y-20585408D02*
G01*
X48302773Y-20634908D01*
X48302773Y-20696094D01*
X48266809Y-20745594D01*
X48246503Y-20756965D01*
X48085126Y-20823808D01*
X48085114Y-20823814D01*
X47921337Y-20933249D01*
X47921333Y-20933252D01*
X47782052Y-21072533D01*
X47782049Y-21072537D01*
X47672614Y-21236314D01*
X47672608Y-21236326D01*
X47597229Y-21418309D01*
X47597229Y-21418311D01*
X47558800Y-21611506D01*
X47558800Y-21809999D01*
X47558801Y-21810000D01*
X48308800Y-21810000D01*
X48308800Y-22310001D01*
X48308799Y-22310000D01*
X47558801Y-22310000D01*
X47558800Y-22310001D01*
X47558800Y-22508493D01*
X47597229Y-22701688D01*
X47597229Y-22701690D01*
X47672608Y-22883673D01*
X47672614Y-22883685D01*
X47782049Y-23047462D01*
X47782052Y-23047466D01*
X47921333Y-23186747D01*
X47921337Y-23186750D01*
X48085114Y-23296185D01*
X48085126Y-23296191D01*
X48267104Y-23371568D01*
X48267115Y-23371571D01*
X48308800Y-23379862D01*
X48308800Y-22459728D01*
X48346860Y-22551614D01*
X48417186Y-22621940D01*
X48509072Y-22660000D01*
X48608528Y-22660000D01*
X48700414Y-22621940D01*
X48770740Y-22551614D01*
X48808800Y-22459728D01*
X48808800Y-23379861D01*
X48850484Y-23371571D01*
X48850495Y-23371568D01*
X49032473Y-23296191D01*
X49032485Y-23296185D01*
X49196262Y-23186750D01*
X49196266Y-23186747D01*
X49335547Y-23047466D01*
X49335550Y-23047462D01*
X49444985Y-22883685D01*
X49444991Y-22883673D01*
X49520370Y-22701690D01*
X49520370Y-22701688D01*
X49558799Y-22508493D01*
X49558800Y-22508490D01*
X49558800Y-22310001D01*
X49558799Y-22310000D01*
X48808801Y-22310000D01*
X48808800Y-22310001D01*
X48808800Y-21810000D01*
X49558799Y-21810000D01*
X49558800Y-21809999D01*
X49558800Y-21611509D01*
X49558799Y-21611506D01*
X49520370Y-21418311D01*
X49520370Y-21418309D01*
X49444991Y-21236326D01*
X49444985Y-21236314D01*
X49335550Y-21072537D01*
X49335547Y-21072533D01*
X49196266Y-20933252D01*
X49196262Y-20933249D01*
X49032485Y-20823814D01*
X49032473Y-20823808D01*
X48871097Y-20756965D01*
X48824571Y-20717229D01*
X48810287Y-20657734D01*
X48833702Y-20601206D01*
X48885871Y-20569236D01*
X48908982Y-20566501D01*
X56848618Y-20566501D01*
X56906809Y-20585408D01*
X56942773Y-20634908D01*
X56942773Y-20696094D01*
X56906809Y-20745594D01*
X56886503Y-20756965D01*
X56725126Y-20823808D01*
X56725114Y-20823814D01*
X56561337Y-20933249D01*
X56561333Y-20933252D01*
X56422052Y-21072533D01*
X56422049Y-21072537D01*
X56312614Y-21236314D01*
X56312608Y-21236326D01*
X56237229Y-21418309D01*
X56237229Y-21418311D01*
X56198800Y-21611506D01*
X56198800Y-21809999D01*
X56198801Y-21810000D01*
X56948800Y-21810000D01*
X56948800Y-22310001D01*
X56948799Y-22310000D01*
X56198801Y-22310000D01*
X56198800Y-22310001D01*
X56198800Y-22508493D01*
X56237229Y-22701688D01*
X56237229Y-22701690D01*
X56312608Y-22883673D01*
X56312614Y-22883685D01*
X56422049Y-23047462D01*
X56422052Y-23047466D01*
X56561333Y-23186747D01*
X56561337Y-23186750D01*
X56725114Y-23296185D01*
X56725126Y-23296191D01*
X56907104Y-23371568D01*
X56907115Y-23371571D01*
X56948800Y-23379862D01*
X56948800Y-22459728D01*
X56986860Y-22551614D01*
X57057186Y-22621940D01*
X57149072Y-22660000D01*
X57248528Y-22660000D01*
X57340414Y-22621940D01*
X57410740Y-22551614D01*
X57448800Y-22459728D01*
X57448800Y-23379861D01*
X57490484Y-23371571D01*
X57490495Y-23371568D01*
X57672473Y-23296191D01*
X57672485Y-23296185D01*
X57836262Y-23186750D01*
X57836266Y-23186747D01*
X57975547Y-23047466D01*
X57975550Y-23047462D01*
X58084985Y-22883685D01*
X58084991Y-22883673D01*
X58160370Y-22701690D01*
X58160370Y-22701688D01*
X58198799Y-22508493D01*
X58198800Y-22508490D01*
X58198800Y-22310001D01*
X58198799Y-22310000D01*
X57448801Y-22310000D01*
X57448800Y-22310001D01*
X57448800Y-21810000D01*
X58198799Y-21810000D01*
X58198800Y-21809999D01*
X58198800Y-21611509D01*
X58198799Y-21611506D01*
X58160370Y-21418311D01*
X58160370Y-21418309D01*
X58084991Y-21236326D01*
X58084985Y-21236314D01*
X57975550Y-21072537D01*
X57975547Y-21072533D01*
X57836266Y-20933252D01*
X57836262Y-20933249D01*
X57672485Y-20823814D01*
X57672473Y-20823808D01*
X57511097Y-20756965D01*
X57464571Y-20717229D01*
X57450287Y-20657734D01*
X57473702Y-20601206D01*
X57525871Y-20569236D01*
X57548982Y-20566501D01*
X61087975Y-20566501D01*
X61093527Y-20566657D01*
X61370408Y-20582210D01*
X61381439Y-20583453D01*
X61652120Y-20629446D01*
X61662928Y-20631912D01*
X61926786Y-20707932D01*
X61937235Y-20711588D01*
X62190905Y-20816665D01*
X62200899Y-20821478D01*
X62441146Y-20954260D01*
X62441206Y-20954293D01*
X62450603Y-20960198D01*
X62674524Y-21119081D01*
X62683195Y-21125996D01*
X62887928Y-21308959D01*
X62895762Y-21316793D01*
X62986481Y-21418309D01*
X63078719Y-21521525D01*
X63085641Y-21530205D01*
X63244520Y-21754126D01*
X63250426Y-21763526D01*
X63383233Y-22003824D01*
X63388050Y-22013827D01*
X63493115Y-22267480D01*
X63496782Y-22277958D01*
X63549149Y-22459728D01*
X63563197Y-22508490D01*
X63572792Y-22541793D01*
X63575262Y-22552617D01*
X63621250Y-22823291D01*
X63622493Y-22834323D01*
X63638039Y-23111148D01*
X63638195Y-23116843D01*
X63507604Y-112703004D01*
X63507604Y-112703006D01*
X63507594Y-112709754D01*
X63507500Y-112710108D01*
X63507500Y-112773355D01*
X63507495Y-112773368D01*
X63507344Y-112778760D01*
X63491793Y-113055679D01*
X63490550Y-113066711D01*
X63444561Y-113337386D01*
X63442091Y-113348210D01*
X63366081Y-113612045D01*
X63362414Y-113622524D01*
X63257344Y-113876184D01*
X63252527Y-113886186D01*
X63119719Y-114126485D01*
X63113812Y-114135886D01*
X62954933Y-114359804D01*
X62948012Y-114368483D01*
X62765060Y-114573209D01*
X62757209Y-114581060D01*
X62552483Y-114764012D01*
X62543804Y-114770933D01*
X62319886Y-114929812D01*
X62310485Y-114935719D01*
X62070186Y-115068527D01*
X62060184Y-115073344D01*
X61806524Y-115178414D01*
X61796045Y-115182081D01*
X61532210Y-115258091D01*
X61521386Y-115260561D01*
X61250711Y-115306550D01*
X61239679Y-115307793D01*
X60962778Y-115323344D01*
X60957227Y-115323500D01*
X44960773Y-115323500D01*
X44955222Y-115323344D01*
X44678320Y-115307793D01*
X44667288Y-115306550D01*
X44396613Y-115260561D01*
X44385789Y-115258091D01*
X44121954Y-115182081D01*
X44111475Y-115178414D01*
X43857815Y-115073344D01*
X43847813Y-115068527D01*
X43607514Y-114935719D01*
X43598113Y-114929812D01*
X43374195Y-114770933D01*
X43365516Y-114764012D01*
X43270270Y-114678896D01*
X43160782Y-114581052D01*
X43152947Y-114573217D01*
X43042381Y-114449493D01*
X42969987Y-114368483D01*
X42963066Y-114359804D01*
X42804187Y-114135886D01*
X42798280Y-114126485D01*
X42665472Y-113886186D01*
X42660655Y-113876184D01*
X42555585Y-113622524D01*
X42551918Y-113612045D01*
X42491556Y-113402525D01*
X44598500Y-113402525D01*
X44598500Y-113547474D01*
X44636017Y-113687489D01*
X44708487Y-113813010D01*
X44708489Y-113813012D01*
X44708491Y-113813015D01*
X44810985Y-113915509D01*
X44810987Y-113915510D01*
X44810989Y-113915512D01*
X44936511Y-113987982D01*
X44936512Y-113987982D01*
X44936515Y-113987984D01*
X45076525Y-114025500D01*
X45076526Y-114025500D01*
X45221474Y-114025500D01*
X45221475Y-114025500D01*
X45361485Y-113987984D01*
X45361487Y-113987982D01*
X45361489Y-113987982D01*
X45487010Y-113915512D01*
X45487010Y-113915511D01*
X45487015Y-113915509D01*
X45589509Y-113813015D01*
X45661984Y-113687485D01*
X45699500Y-113547475D01*
X45699500Y-113402525D01*
X45661984Y-113262515D01*
X45661982Y-113262512D01*
X45661982Y-113262510D01*
X45589512Y-113136989D01*
X45589510Y-113136987D01*
X45589509Y-113136985D01*
X45487015Y-113034491D01*
X45487012Y-113034489D01*
X45487010Y-113034487D01*
X45361488Y-112962017D01*
X45361489Y-112962017D01*
X45331896Y-112954087D01*
X45221475Y-112924500D01*
X45076525Y-112924500D01*
X45014790Y-112941041D01*
X44936510Y-112962017D01*
X44810989Y-113034487D01*
X44708487Y-113136989D01*
X44636017Y-113262510D01*
X44598500Y-113402525D01*
X42491556Y-113402525D01*
X42475905Y-113348199D01*
X42473441Y-113337401D01*
X42427448Y-113066706D01*
X42426206Y-113055679D01*
X42410656Y-112778778D01*
X42410500Y-112773376D01*
X42410500Y-112773355D01*
X42410500Y-112710108D01*
X42410404Y-112709751D01*
X42405951Y-109655525D01*
X47963500Y-109655525D01*
X47963500Y-109800474D01*
X48001017Y-109940489D01*
X48073487Y-110066010D01*
X48073489Y-110066012D01*
X48073491Y-110066015D01*
X48175985Y-110168509D01*
X48175987Y-110168510D01*
X48175989Y-110168512D01*
X48301511Y-110240982D01*
X48301512Y-110240982D01*
X48301515Y-110240984D01*
X48441525Y-110278500D01*
X48441526Y-110278500D01*
X48586474Y-110278500D01*
X48586475Y-110278500D01*
X48726485Y-110240984D01*
X48726487Y-110240982D01*
X48726489Y-110240982D01*
X48852010Y-110168512D01*
X48852010Y-110168511D01*
X48852015Y-110168509D01*
X48954509Y-110066015D01*
X49026984Y-109940485D01*
X49064500Y-109800475D01*
X49064500Y-109655525D01*
X49026984Y-109515515D01*
X49026982Y-109515512D01*
X49026982Y-109515510D01*
X48954512Y-109389989D01*
X48954510Y-109389987D01*
X48954509Y-109389985D01*
X48852015Y-109287491D01*
X48852012Y-109287489D01*
X48852010Y-109287487D01*
X48726488Y-109215017D01*
X48726489Y-109215017D01*
X48696896Y-109207087D01*
X48586475Y-109177500D01*
X48441525Y-109177500D01*
X48379790Y-109194041D01*
X48301510Y-109215017D01*
X48175989Y-109287487D01*
X48073487Y-109389989D01*
X48001017Y-109515510D01*
X47963500Y-109655525D01*
X42405951Y-109655525D01*
X42402549Y-107322212D01*
X59437995Y-107322212D01*
X59437995Y-107561787D01*
X59475470Y-107798399D01*
X59475472Y-107798404D01*
X59549503Y-108026247D01*
X59658265Y-108239704D01*
X59799080Y-108433519D01*
X59968481Y-108602920D01*
X60162296Y-108743735D01*
X60375753Y-108852497D01*
X60603596Y-108926528D01*
X60603597Y-108926528D01*
X60603600Y-108926529D01*
X60840213Y-108964005D01*
X60840216Y-108964005D01*
X61079787Y-108964005D01*
X61316399Y-108926529D01*
X61316400Y-108926528D01*
X61316404Y-108926528D01*
X61544247Y-108852497D01*
X61757704Y-108743735D01*
X61951519Y-108602920D01*
X62120920Y-108433519D01*
X62261735Y-108239704D01*
X62370497Y-108026247D01*
X62444528Y-107798404D01*
X62444529Y-107798399D01*
X62482005Y-107561787D01*
X62482005Y-107322212D01*
X62444529Y-107085600D01*
X62426028Y-107028659D01*
X62370497Y-106857753D01*
X62261735Y-106644296D01*
X62120920Y-106450481D01*
X61951519Y-106281080D01*
X61757704Y-106140265D01*
X61757703Y-106140264D01*
X61757701Y-106140263D01*
X61544247Y-106031503D01*
X61316399Y-105957470D01*
X61079787Y-105919995D01*
X61079784Y-105919995D01*
X60840216Y-105919995D01*
X60840213Y-105919995D01*
X60603600Y-105957470D01*
X60375752Y-106031503D01*
X60162298Y-106140263D01*
X59968482Y-106281079D01*
X59799079Y-106450482D01*
X59658263Y-106644298D01*
X59549503Y-106857752D01*
X59475470Y-107085600D01*
X59437995Y-107322212D01*
X42402549Y-107322212D01*
X42391136Y-99495525D01*
X44661500Y-99495525D01*
X44661500Y-99640474D01*
X44699017Y-99780489D01*
X44771487Y-99906010D01*
X44771489Y-99906012D01*
X44771491Y-99906015D01*
X44873985Y-100008509D01*
X44873987Y-100008510D01*
X44873989Y-100008512D01*
X44999511Y-100080982D01*
X44999512Y-100080982D01*
X44999515Y-100080984D01*
X45139525Y-100118500D01*
X45139526Y-100118500D01*
X45284474Y-100118500D01*
X45284475Y-100118500D01*
X45424485Y-100080984D01*
X45424487Y-100080982D01*
X45424489Y-100080982D01*
X45550010Y-100008512D01*
X45550010Y-100008511D01*
X45550015Y-100008509D01*
X45652509Y-99906015D01*
X45724984Y-99780485D01*
X45762500Y-99640475D01*
X45762500Y-99495525D01*
X45724984Y-99355515D01*
X45724982Y-99355512D01*
X45724982Y-99355510D01*
X45652512Y-99229989D01*
X45652510Y-99229987D01*
X45652509Y-99229985D01*
X45550015Y-99127491D01*
X45550012Y-99127489D01*
X45550010Y-99127487D01*
X45424488Y-99055017D01*
X45424489Y-99055017D01*
X45394896Y-99047087D01*
X45284475Y-99017500D01*
X45139525Y-99017500D01*
X45077790Y-99034041D01*
X44999510Y-99055017D01*
X44873989Y-99127487D01*
X44771487Y-99229989D01*
X44699017Y-99355510D01*
X44661500Y-99495525D01*
X42391136Y-99495525D01*
X42389654Y-98479525D01*
X51265500Y-98479525D01*
X51265500Y-98624474D01*
X51303017Y-98764489D01*
X51375487Y-98890010D01*
X51375489Y-98890012D01*
X51375491Y-98890015D01*
X51477985Y-98992509D01*
X51477987Y-98992510D01*
X51477989Y-98992512D01*
X51603511Y-99064982D01*
X51603512Y-99064982D01*
X51603515Y-99064984D01*
X51743525Y-99102500D01*
X51743526Y-99102500D01*
X51888474Y-99102500D01*
X51888475Y-99102500D01*
X52028485Y-99064984D01*
X52028487Y-99064982D01*
X52028489Y-99064982D01*
X52154010Y-98992512D01*
X52154010Y-98992511D01*
X52154015Y-98992509D01*
X52256509Y-98890015D01*
X52328984Y-98764485D01*
X52366500Y-98624475D01*
X52366500Y-98479525D01*
X52328984Y-98339515D01*
X52328982Y-98339512D01*
X52328982Y-98339510D01*
X52256512Y-98213989D01*
X52256510Y-98213987D01*
X52256509Y-98213985D01*
X52154015Y-98111491D01*
X52154012Y-98111489D01*
X52154010Y-98111487D01*
X52028488Y-98039017D01*
X52028489Y-98039017D01*
X51998896Y-98031087D01*
X51888475Y-98001500D01*
X51743525Y-98001500D01*
X51681790Y-98018041D01*
X51603510Y-98039017D01*
X51477989Y-98111487D01*
X51375487Y-98213989D01*
X51303017Y-98339510D01*
X51265500Y-98479525D01*
X42389654Y-98479525D01*
X42386321Y-96193525D01*
X51265500Y-96193525D01*
X51265500Y-96338474D01*
X51303017Y-96478489D01*
X51375487Y-96604010D01*
X51375489Y-96604012D01*
X51375491Y-96604015D01*
X51477985Y-96706509D01*
X51477987Y-96706510D01*
X51477989Y-96706512D01*
X51603511Y-96778982D01*
X51603512Y-96778982D01*
X51603515Y-96778984D01*
X51743525Y-96816500D01*
X51743526Y-96816500D01*
X51888474Y-96816500D01*
X51888475Y-96816500D01*
X52028485Y-96778984D01*
X52028487Y-96778982D01*
X52028489Y-96778982D01*
X52154010Y-96706512D01*
X52154010Y-96706511D01*
X52154015Y-96706509D01*
X52256509Y-96604015D01*
X52328984Y-96478485D01*
X52366500Y-96338475D01*
X52366500Y-96193525D01*
X52328984Y-96053515D01*
X52328982Y-96053512D01*
X52328982Y-96053510D01*
X52256512Y-95927989D01*
X52256510Y-95927987D01*
X52256509Y-95927985D01*
X52154015Y-95825491D01*
X52154012Y-95825489D01*
X52154010Y-95825487D01*
X52028488Y-95753017D01*
X52028489Y-95753017D01*
X51998896Y-95745087D01*
X51888475Y-95715500D01*
X51743525Y-95715500D01*
X51681790Y-95732041D01*
X51603510Y-95753017D01*
X51477989Y-95825487D01*
X51375487Y-95927989D01*
X51303017Y-96053510D01*
X51265500Y-96193525D01*
X42386321Y-96193525D01*
X42370697Y-85478645D01*
X43695500Y-85478645D01*
X43695500Y-85717354D01*
X43732840Y-85953110D01*
X43732842Y-85953115D01*
X43806605Y-86180134D01*
X43914973Y-86392819D01*
X44055279Y-86585933D01*
X44224067Y-86754721D01*
X44417181Y-86895027D01*
X44629866Y-87003395D01*
X44856885Y-87077158D01*
X44856886Y-87077158D01*
X44856889Y-87077159D01*
X45092646Y-87114500D01*
X45092649Y-87114500D01*
X45331354Y-87114500D01*
X45567110Y-87077159D01*
X45567111Y-87077158D01*
X45567115Y-87077158D01*
X45794134Y-87003395D01*
X46006819Y-86895027D01*
X46199933Y-86754721D01*
X46368721Y-86585933D01*
X46509027Y-86392819D01*
X46617395Y-86180134D01*
X46691158Y-85953115D01*
X46697699Y-85911817D01*
X46728500Y-85717354D01*
X46728500Y-85478645D01*
X46691159Y-85242889D01*
X46673658Y-85189026D01*
X46617395Y-85015866D01*
X46509027Y-84803181D01*
X46368721Y-84610067D01*
X46199933Y-84441279D01*
X46006819Y-84300973D01*
X46006818Y-84300972D01*
X46006816Y-84300971D01*
X45794134Y-84192605D01*
X45567110Y-84118840D01*
X45331354Y-84081500D01*
X45331351Y-84081500D01*
X45092649Y-84081500D01*
X45092646Y-84081500D01*
X44856889Y-84118840D01*
X44629865Y-84192605D01*
X44417183Y-84300971D01*
X44224068Y-84441278D01*
X44055278Y-84610068D01*
X43914971Y-84803183D01*
X43806605Y-85015865D01*
X43732840Y-85242889D01*
X43695500Y-85478645D01*
X42370697Y-85478645D01*
X42364839Y-81461525D01*
X48217500Y-81461525D01*
X48217500Y-81606474D01*
X48255017Y-81746489D01*
X48327487Y-81872010D01*
X48327489Y-81872012D01*
X48327491Y-81872015D01*
X48429985Y-81974509D01*
X48429987Y-81974510D01*
X48429989Y-81974512D01*
X48555511Y-82046982D01*
X48555512Y-82046982D01*
X48555515Y-82046984D01*
X48695525Y-82084500D01*
X48695526Y-82084500D01*
X48840474Y-82084500D01*
X48840475Y-82084500D01*
X48980485Y-82046984D01*
X48980487Y-82046982D01*
X48980489Y-82046982D01*
X49106010Y-81974512D01*
X49106010Y-81974511D01*
X49106015Y-81974509D01*
X49208509Y-81872015D01*
X49280984Y-81746485D01*
X49318500Y-81606475D01*
X49318500Y-81461525D01*
X49280984Y-81321515D01*
X49280982Y-81321512D01*
X49280982Y-81321510D01*
X49208512Y-81195989D01*
X49208510Y-81195987D01*
X49208509Y-81195985D01*
X49106015Y-81093491D01*
X49106012Y-81093489D01*
X49106010Y-81093487D01*
X48980488Y-81021017D01*
X48980489Y-81021017D01*
X48950896Y-81013087D01*
X48840475Y-80983500D01*
X48695525Y-80983500D01*
X48633790Y-81000041D01*
X48555510Y-81021017D01*
X48429989Y-81093487D01*
X48327487Y-81195989D01*
X48255017Y-81321510D01*
X48217500Y-81461525D01*
X42364839Y-81461525D01*
X42346252Y-68714645D01*
X43695500Y-68714645D01*
X43695500Y-68953354D01*
X43732840Y-69189110D01*
X43806605Y-69416134D01*
X43863862Y-69528509D01*
X43914973Y-69628819D01*
X44055279Y-69821933D01*
X44224067Y-69990721D01*
X44417181Y-70131027D01*
X44629866Y-70239395D01*
X44856885Y-70313158D01*
X44856886Y-70313158D01*
X44856889Y-70313159D01*
X45092646Y-70350500D01*
X45092649Y-70350500D01*
X45331354Y-70350500D01*
X45567110Y-70313159D01*
X45567111Y-70313158D01*
X45567115Y-70313158D01*
X45794134Y-70239395D01*
X46006819Y-70131027D01*
X46199933Y-69990721D01*
X46368721Y-69821933D01*
X46509027Y-69628819D01*
X46617395Y-69416134D01*
X46691158Y-69189115D01*
X46691159Y-69189110D01*
X46718653Y-69015525D01*
X47709500Y-69015525D01*
X47709500Y-69160474D01*
X47747017Y-69300489D01*
X47819487Y-69426010D01*
X47819489Y-69426012D01*
X47819491Y-69426015D01*
X47921985Y-69528509D01*
X47921987Y-69528510D01*
X47921989Y-69528512D01*
X48047511Y-69600982D01*
X48047512Y-69600982D01*
X48047515Y-69600984D01*
X48187525Y-69638500D01*
X48187526Y-69638500D01*
X48332474Y-69638500D01*
X48332475Y-69638500D01*
X48472485Y-69600984D01*
X48472487Y-69600982D01*
X48472489Y-69600982D01*
X48598010Y-69528512D01*
X48598010Y-69528511D01*
X48598015Y-69528509D01*
X48700509Y-69426015D01*
X48747231Y-69345090D01*
X48772982Y-69300489D01*
X48772982Y-69300487D01*
X48772984Y-69300485D01*
X48810500Y-69160475D01*
X48810500Y-69015525D01*
X48772984Y-68875515D01*
X48772982Y-68875512D01*
X48772982Y-68875510D01*
X48700512Y-68749989D01*
X48700510Y-68749987D01*
X48700509Y-68749985D01*
X48598015Y-68647491D01*
X48598012Y-68647489D01*
X48598010Y-68647487D01*
X48472488Y-68575017D01*
X48472489Y-68575017D01*
X48442896Y-68567087D01*
X48332475Y-68537500D01*
X48187525Y-68537500D01*
X48125790Y-68554041D01*
X48047510Y-68575017D01*
X47921989Y-68647487D01*
X47819487Y-68749989D01*
X47747017Y-68875510D01*
X47709500Y-69015525D01*
X46718653Y-69015525D01*
X46722134Y-68993549D01*
X46722134Y-68993548D01*
X46728500Y-68953355D01*
X46728500Y-68714645D01*
X46691159Y-68478889D01*
X46673658Y-68425026D01*
X46617395Y-68251866D01*
X46509027Y-68039181D01*
X46368721Y-67846067D01*
X46199933Y-67677279D01*
X46006819Y-67536973D01*
X46006818Y-67536972D01*
X46006816Y-67536971D01*
X45794134Y-67428605D01*
X45567110Y-67354840D01*
X45331354Y-67317500D01*
X45331351Y-67317500D01*
X45092649Y-67317500D01*
X45092646Y-67317500D01*
X44856889Y-67354840D01*
X44629865Y-67428605D01*
X44417183Y-67536971D01*
X44224068Y-67677278D01*
X44055278Y-67846068D01*
X43914971Y-68039183D01*
X43806605Y-68251865D01*
X43732840Y-68478889D01*
X43695500Y-68714645D01*
X42346252Y-68714645D01*
X42340765Y-64951525D01*
X48217500Y-64951525D01*
X48217500Y-65096474D01*
X48255017Y-65236489D01*
X48327487Y-65362010D01*
X48327489Y-65362012D01*
X48327491Y-65362015D01*
X48429985Y-65464509D01*
X48429987Y-65464510D01*
X48429989Y-65464512D01*
X48555511Y-65536982D01*
X48555512Y-65536982D01*
X48555515Y-65536984D01*
X48695525Y-65574500D01*
X48695526Y-65574500D01*
X48840474Y-65574500D01*
X48840475Y-65574500D01*
X48980485Y-65536984D01*
X48980487Y-65536982D01*
X48980489Y-65536982D01*
X49106010Y-65464512D01*
X49106010Y-65464511D01*
X49106015Y-65464509D01*
X49208509Y-65362015D01*
X49280984Y-65236485D01*
X49318500Y-65096475D01*
X49318500Y-64951525D01*
X49280984Y-64811515D01*
X49280982Y-64811512D01*
X49280982Y-64811510D01*
X49208512Y-64685989D01*
X49208510Y-64685987D01*
X49208509Y-64685985D01*
X49106015Y-64583491D01*
X49106012Y-64583489D01*
X49106010Y-64583487D01*
X48980488Y-64511017D01*
X48980489Y-64511017D01*
X48950896Y-64503087D01*
X48840475Y-64473500D01*
X48695525Y-64473500D01*
X48633790Y-64490041D01*
X48555510Y-64511017D01*
X48429989Y-64583487D01*
X48327487Y-64685989D01*
X48255017Y-64811510D01*
X48217500Y-64951525D01*
X42340765Y-64951525D01*
X42338543Y-63427525D01*
X48217500Y-63427525D01*
X48217500Y-63572474D01*
X48255017Y-63712489D01*
X48327487Y-63838010D01*
X48327489Y-63838012D01*
X48327491Y-63838015D01*
X48429985Y-63940509D01*
X48429987Y-63940510D01*
X48429989Y-63940512D01*
X48555511Y-64012982D01*
X48555512Y-64012982D01*
X48555515Y-64012984D01*
X48695525Y-64050500D01*
X48695526Y-64050500D01*
X48840474Y-64050500D01*
X48840475Y-64050500D01*
X48980485Y-64012984D01*
X48980487Y-64012982D01*
X48980489Y-64012982D01*
X49106010Y-63940512D01*
X49106010Y-63940511D01*
X49106015Y-63940509D01*
X49208509Y-63838015D01*
X49280984Y-63712485D01*
X49318500Y-63572475D01*
X49318500Y-63427525D01*
X49280984Y-63287515D01*
X49280982Y-63287512D01*
X49280982Y-63287510D01*
X49208512Y-63161989D01*
X49208510Y-63161987D01*
X49208509Y-63161985D01*
X49106015Y-63059491D01*
X49106012Y-63059489D01*
X49106010Y-63059487D01*
X48980488Y-62987017D01*
X48980489Y-62987017D01*
X48950896Y-62979087D01*
X48840475Y-62949500D01*
X48695525Y-62949500D01*
X48633790Y-62966041D01*
X48555510Y-62987017D01*
X48429989Y-63059487D01*
X48327487Y-63161989D01*
X48255017Y-63287510D01*
X48217500Y-63427525D01*
X42338543Y-63427525D01*
X42336321Y-61903525D01*
X55329500Y-61903525D01*
X55329500Y-62048474D01*
X55367017Y-62188489D01*
X55439487Y-62314010D01*
X55439489Y-62314012D01*
X55439491Y-62314015D01*
X55541985Y-62416509D01*
X55541987Y-62416510D01*
X55541989Y-62416512D01*
X55667511Y-62488982D01*
X55667512Y-62488982D01*
X55667515Y-62488984D01*
X55807525Y-62526500D01*
X55807526Y-62526500D01*
X55952474Y-62526500D01*
X55952475Y-62526500D01*
X56092485Y-62488984D01*
X56092487Y-62488982D01*
X56092489Y-62488982D01*
X56218010Y-62416512D01*
X56218010Y-62416511D01*
X56218015Y-62416509D01*
X56320509Y-62314015D01*
X56392984Y-62188485D01*
X56430500Y-62048475D01*
X56430500Y-61903525D01*
X57361500Y-61903525D01*
X57361500Y-62048474D01*
X57399017Y-62188489D01*
X57471487Y-62314010D01*
X57471489Y-62314012D01*
X57471491Y-62314015D01*
X57573985Y-62416509D01*
X57573987Y-62416510D01*
X57573989Y-62416512D01*
X57699511Y-62488982D01*
X57699512Y-62488982D01*
X57699515Y-62488984D01*
X57839525Y-62526500D01*
X57839526Y-62526500D01*
X57984474Y-62526500D01*
X57984475Y-62526500D01*
X58124485Y-62488984D01*
X58124487Y-62488982D01*
X58124489Y-62488982D01*
X58250010Y-62416512D01*
X58250010Y-62416511D01*
X58250015Y-62416509D01*
X58352509Y-62314015D01*
X58424984Y-62188485D01*
X58462500Y-62048475D01*
X58462500Y-61903525D01*
X59393500Y-61903525D01*
X59393500Y-62048474D01*
X59431017Y-62188489D01*
X59503487Y-62314010D01*
X59503489Y-62314012D01*
X59503491Y-62314015D01*
X59605985Y-62416509D01*
X59605987Y-62416510D01*
X59605989Y-62416512D01*
X59731511Y-62488982D01*
X59731512Y-62488982D01*
X59731515Y-62488984D01*
X59871525Y-62526500D01*
X59871526Y-62526500D01*
X60016474Y-62526500D01*
X60016475Y-62526500D01*
X60156485Y-62488984D01*
X60156487Y-62488982D01*
X60156489Y-62488982D01*
X60282010Y-62416512D01*
X60282010Y-62416511D01*
X60282015Y-62416509D01*
X60384509Y-62314015D01*
X60456984Y-62188485D01*
X60494500Y-62048475D01*
X60494500Y-61903525D01*
X60456984Y-61763515D01*
X60456982Y-61763512D01*
X60456982Y-61763510D01*
X60384512Y-61637989D01*
X60384510Y-61637987D01*
X60384509Y-61637985D01*
X60282015Y-61535491D01*
X60282012Y-61535489D01*
X60282010Y-61535487D01*
X60156488Y-61463017D01*
X60156489Y-61463017D01*
X60126896Y-61455087D01*
X60016475Y-61425500D01*
X59871525Y-61425500D01*
X59809790Y-61442041D01*
X59731510Y-61463017D01*
X59605989Y-61535487D01*
X59503487Y-61637989D01*
X59431017Y-61763510D01*
X59393500Y-61903525D01*
X58462500Y-61903525D01*
X58424984Y-61763515D01*
X58424982Y-61763512D01*
X58424982Y-61763510D01*
X58352512Y-61637989D01*
X58352510Y-61637987D01*
X58352509Y-61637985D01*
X58250015Y-61535491D01*
X58250012Y-61535489D01*
X58250010Y-61535487D01*
X58124488Y-61463017D01*
X58124489Y-61463017D01*
X58094896Y-61455087D01*
X57984475Y-61425500D01*
X57839525Y-61425500D01*
X57777790Y-61442041D01*
X57699510Y-61463017D01*
X57573989Y-61535487D01*
X57471487Y-61637989D01*
X57399017Y-61763510D01*
X57361500Y-61903525D01*
X56430500Y-61903525D01*
X56392984Y-61763515D01*
X56392982Y-61763512D01*
X56392982Y-61763510D01*
X56320512Y-61637989D01*
X56320510Y-61637987D01*
X56320509Y-61637985D01*
X56218015Y-61535491D01*
X56218012Y-61535489D01*
X56218010Y-61535487D01*
X56092488Y-61463017D01*
X56092489Y-61463017D01*
X56062896Y-61455087D01*
X55952475Y-61425500D01*
X55807525Y-61425500D01*
X55745790Y-61442041D01*
X55667510Y-61463017D01*
X55541989Y-61535487D01*
X55439487Y-61637989D01*
X55367017Y-61763510D01*
X55329500Y-61903525D01*
X42336321Y-61903525D01*
X42322327Y-52306546D01*
X42313729Y-46409525D01*
X53297500Y-46409525D01*
X53297500Y-46554474D01*
X53335017Y-46694489D01*
X53407487Y-46820010D01*
X53407489Y-46820012D01*
X53407491Y-46820015D01*
X53509985Y-46922509D01*
X53509987Y-46922510D01*
X53509989Y-46922512D01*
X53635511Y-46994982D01*
X53635512Y-46994982D01*
X53635515Y-46994984D01*
X53775525Y-47032500D01*
X53775526Y-47032500D01*
X53920474Y-47032500D01*
X53920475Y-47032500D01*
X54060485Y-46994984D01*
X54060487Y-46994982D01*
X54060489Y-46994982D01*
X54186010Y-46922512D01*
X54186010Y-46922511D01*
X54186015Y-46922509D01*
X54288509Y-46820015D01*
X54360984Y-46694485D01*
X54398500Y-46554475D01*
X54398500Y-46409525D01*
X54360984Y-46269515D01*
X54360982Y-46269512D01*
X54360982Y-46269510D01*
X54288512Y-46143989D01*
X54288510Y-46143987D01*
X54288509Y-46143985D01*
X54186015Y-46041491D01*
X54186012Y-46041489D01*
X54186010Y-46041487D01*
X54060488Y-45969017D01*
X54060489Y-45969017D01*
X54030896Y-45961087D01*
X53920475Y-45931500D01*
X53775525Y-45931500D01*
X53713790Y-45948041D01*
X53635510Y-45969017D01*
X53509989Y-46041487D01*
X53407487Y-46143989D01*
X53335017Y-46269510D01*
X53297500Y-46409525D01*
X42313729Y-46409525D01*
X42313720Y-46403180D01*
X42310766Y-44377525D01*
X53297500Y-44377525D01*
X53297500Y-44522474D01*
X53335017Y-44662489D01*
X53407487Y-44788010D01*
X53407489Y-44788012D01*
X53407491Y-44788015D01*
X53509985Y-44890509D01*
X53509987Y-44890510D01*
X53509989Y-44890512D01*
X53635511Y-44962982D01*
X53635512Y-44962982D01*
X53635515Y-44962984D01*
X53775525Y-45000500D01*
X53775526Y-45000500D01*
X53920474Y-45000500D01*
X53920475Y-45000500D01*
X54060485Y-44962984D01*
X54060487Y-44962982D01*
X54060489Y-44962982D01*
X54186010Y-44890512D01*
X54186010Y-44890511D01*
X54186015Y-44890509D01*
X54288509Y-44788015D01*
X54360984Y-44662485D01*
X54398500Y-44522475D01*
X54398500Y-44377525D01*
X54360984Y-44237515D01*
X54360982Y-44237512D01*
X54360982Y-44237510D01*
X54288512Y-44111989D01*
X54288510Y-44111987D01*
X54288509Y-44111985D01*
X54186015Y-44009491D01*
X54186012Y-44009489D01*
X54186010Y-44009487D01*
X54060488Y-43937017D01*
X54060489Y-43937017D01*
X54030896Y-43929087D01*
X53920475Y-43899500D01*
X53775525Y-43899500D01*
X53713790Y-43916041D01*
X53635510Y-43937017D01*
X53509989Y-44009487D01*
X53407487Y-44111989D01*
X53335017Y-44237510D01*
X53297500Y-44377525D01*
X42310766Y-44377525D01*
X42310757Y-44371180D01*
X42306713Y-41597982D01*
X42305859Y-41012525D01*
X51265500Y-41012525D01*
X51265500Y-41157474D01*
X51303017Y-41297489D01*
X51375487Y-41423010D01*
X51375489Y-41423012D01*
X51375491Y-41423015D01*
X51477985Y-41525509D01*
X51477987Y-41525510D01*
X51477989Y-41525512D01*
X51603511Y-41597982D01*
X51603512Y-41597982D01*
X51603515Y-41597984D01*
X51743525Y-41635500D01*
X51743526Y-41635500D01*
X51888474Y-41635500D01*
X51888475Y-41635500D01*
X52028485Y-41597984D01*
X52028487Y-41597982D01*
X52028489Y-41597982D01*
X52154010Y-41525512D01*
X52154010Y-41525511D01*
X52154015Y-41525509D01*
X52256509Y-41423015D01*
X52328984Y-41297485D01*
X52366500Y-41157475D01*
X52366500Y-41012525D01*
X52328984Y-40872515D01*
X52328982Y-40872512D01*
X52328982Y-40872510D01*
X52256512Y-40746989D01*
X52256510Y-40746987D01*
X52256509Y-40746985D01*
X52154015Y-40644491D01*
X52154012Y-40644489D01*
X52154010Y-40644487D01*
X52028488Y-40572017D01*
X52028489Y-40572017D01*
X51998896Y-40564087D01*
X51888475Y-40534500D01*
X51743525Y-40534500D01*
X51681790Y-40551041D01*
X51603510Y-40572017D01*
X51477989Y-40644487D01*
X51375487Y-40746989D01*
X51303017Y-40872510D01*
X51265500Y-41012525D01*
X42305859Y-41012525D01*
X42298173Y-35741525D01*
X48217500Y-35741525D01*
X48217500Y-35886474D01*
X48255017Y-36026489D01*
X48327487Y-36152010D01*
X48327489Y-36152012D01*
X48327491Y-36152015D01*
X48429985Y-36254509D01*
X48429987Y-36254510D01*
X48429989Y-36254512D01*
X48555511Y-36326982D01*
X48555512Y-36326982D01*
X48555515Y-36326984D01*
X48695525Y-36364500D01*
X48695526Y-36364500D01*
X48840474Y-36364500D01*
X48840475Y-36364500D01*
X48980485Y-36326984D01*
X48980487Y-36326982D01*
X48980489Y-36326982D01*
X49106010Y-36254512D01*
X49106010Y-36254511D01*
X49106015Y-36254509D01*
X49208509Y-36152015D01*
X49280984Y-36026485D01*
X49318500Y-35886475D01*
X49318500Y-35741525D01*
X49280984Y-35601515D01*
X49280982Y-35601512D01*
X49280982Y-35601510D01*
X49208512Y-35475989D01*
X49208510Y-35475987D01*
X49208509Y-35475985D01*
X49106015Y-35373491D01*
X49106012Y-35373489D01*
X49106010Y-35373487D01*
X49000848Y-35312772D01*
X49000847Y-35312772D01*
X48980487Y-35301017D01*
X48980486Y-35301016D01*
X48980485Y-35301016D01*
X48840475Y-35263500D01*
X48695525Y-35263500D01*
X48633790Y-35280041D01*
X48555510Y-35301017D01*
X48429989Y-35373487D01*
X48327487Y-35475989D01*
X48255017Y-35601510D01*
X48217500Y-35741525D01*
X42298173Y-35741525D01*
X42297432Y-35233525D01*
X57107500Y-35233525D01*
X57107500Y-35378474D01*
X57145017Y-35518489D01*
X57217487Y-35644010D01*
X57217489Y-35644012D01*
X57217491Y-35644015D01*
X57319985Y-35746509D01*
X57319987Y-35746510D01*
X57319989Y-35746512D01*
X57445511Y-35818982D01*
X57445512Y-35818982D01*
X57445515Y-35818984D01*
X57585525Y-35856500D01*
X57585526Y-35856500D01*
X57730474Y-35856500D01*
X57730475Y-35856500D01*
X57870485Y-35818984D01*
X57870487Y-35818982D01*
X57870489Y-35818982D01*
X57996010Y-35746512D01*
X57996010Y-35746511D01*
X57996015Y-35746509D01*
X58098509Y-35644015D01*
X58098512Y-35644010D01*
X58170982Y-35518489D01*
X58170982Y-35518487D01*
X58170984Y-35518485D01*
X58208500Y-35378475D01*
X58208500Y-35233525D01*
X58170984Y-35093515D01*
X58170982Y-35093512D01*
X58170982Y-35093510D01*
X58098512Y-34967989D01*
X58098510Y-34967987D01*
X58098509Y-34967985D01*
X57996015Y-34865491D01*
X57996012Y-34865489D01*
X57996010Y-34865487D01*
X57870488Y-34793017D01*
X57870489Y-34793017D01*
X57840896Y-34785087D01*
X57730475Y-34755500D01*
X57585525Y-34755500D01*
X57523790Y-34772041D01*
X57445510Y-34793017D01*
X57319989Y-34865487D01*
X57217487Y-34967989D01*
X57145017Y-35093510D01*
X57107500Y-35233525D01*
X42297432Y-35233525D01*
X42288914Y-29391525D01*
X56853500Y-29391525D01*
X56853500Y-29536474D01*
X56891017Y-29676489D01*
X56963487Y-29802010D01*
X56963489Y-29802012D01*
X56963491Y-29802015D01*
X57065985Y-29904509D01*
X57065987Y-29904510D01*
X57065989Y-29904512D01*
X57191511Y-29976982D01*
X57191512Y-29976982D01*
X57191515Y-29976984D01*
X57331525Y-30014500D01*
X57331526Y-30014500D01*
X57476474Y-30014500D01*
X57476475Y-30014500D01*
X57616485Y-29976984D01*
X57616487Y-29976982D01*
X57616489Y-29976982D01*
X57742010Y-29904512D01*
X57742010Y-29904511D01*
X57742015Y-29904509D01*
X57844509Y-29802015D01*
X57916984Y-29676485D01*
X57954500Y-29536475D01*
X57954500Y-29391525D01*
X57916984Y-29251515D01*
X57916982Y-29251512D01*
X57916982Y-29251510D01*
X57844512Y-29125989D01*
X57844510Y-29125987D01*
X57844509Y-29125985D01*
X57742015Y-29023491D01*
X57742012Y-29023489D01*
X57742010Y-29023487D01*
X57616488Y-28951017D01*
X57616489Y-28951017D01*
X57586896Y-28943087D01*
X57476475Y-28913500D01*
X57331525Y-28913500D01*
X57269790Y-28930041D01*
X57191510Y-28951017D01*
X57065989Y-29023487D01*
X56963487Y-29125989D01*
X56891017Y-29251510D01*
X56853500Y-29391525D01*
X42288914Y-29391525D01*
X42287803Y-28629525D01*
X47455500Y-28629525D01*
X47455500Y-28774474D01*
X47493017Y-28914489D01*
X47565487Y-29040010D01*
X47565489Y-29040012D01*
X47565491Y-29040015D01*
X47667985Y-29142509D01*
X47667987Y-29142510D01*
X47667989Y-29142512D01*
X47793511Y-29214982D01*
X47793512Y-29214982D01*
X47793515Y-29214984D01*
X47933525Y-29252500D01*
X47933526Y-29252500D01*
X48078474Y-29252500D01*
X48078475Y-29252500D01*
X48218485Y-29214984D01*
X48218487Y-29214982D01*
X48218489Y-29214982D01*
X48344010Y-29142512D01*
X48344010Y-29142511D01*
X48344015Y-29142509D01*
X48446509Y-29040015D01*
X48456049Y-29023491D01*
X48518982Y-28914489D01*
X48518982Y-28914487D01*
X48518984Y-28914485D01*
X48556500Y-28774475D01*
X48556500Y-28629525D01*
X48518984Y-28489515D01*
X48518982Y-28489512D01*
X48518982Y-28489510D01*
X48446512Y-28363989D01*
X48446510Y-28363987D01*
X48446509Y-28363985D01*
X48344015Y-28261491D01*
X48344012Y-28261489D01*
X48344010Y-28261487D01*
X48218488Y-28189017D01*
X48218489Y-28189017D01*
X48188896Y-28181087D01*
X48078475Y-28151500D01*
X47933525Y-28151500D01*
X47871790Y-28168041D01*
X47793510Y-28189017D01*
X47667989Y-28261487D01*
X47565487Y-28363989D01*
X47493017Y-28489510D01*
X47455500Y-28629525D01*
X42287803Y-28629525D01*
X42283111Y-25411506D01*
X47558800Y-25411506D01*
X47558800Y-25609999D01*
X47558801Y-25610000D01*
X48308799Y-25610000D01*
X48308800Y-25609999D01*
X48308800Y-26110001D01*
X48308799Y-26110000D01*
X47558801Y-26110000D01*
X47558800Y-26110001D01*
X47558800Y-26308493D01*
X47597229Y-26501688D01*
X47597229Y-26501690D01*
X47672608Y-26683673D01*
X47672614Y-26683685D01*
X47782049Y-26847462D01*
X47782052Y-26847466D01*
X47921333Y-26986747D01*
X47921337Y-26986750D01*
X48085114Y-27096185D01*
X48085126Y-27096191D01*
X48267104Y-27171568D01*
X48267115Y-27171571D01*
X48308800Y-27179862D01*
X48308800Y-26259728D01*
X48346860Y-26351614D01*
X48417186Y-26421940D01*
X48509072Y-26460000D01*
X48608528Y-26460000D01*
X48700414Y-26421940D01*
X48770740Y-26351614D01*
X48808800Y-26259728D01*
X48808800Y-27179861D01*
X48850484Y-27171571D01*
X48850495Y-27171568D01*
X49032473Y-27096191D01*
X49032485Y-27096185D01*
X49196262Y-26986750D01*
X49196266Y-26986747D01*
X49335547Y-26847466D01*
X49335550Y-26847462D01*
X49444985Y-26683685D01*
X49444991Y-26683673D01*
X49520370Y-26501690D01*
X49520370Y-26501688D01*
X49558799Y-26308493D01*
X49558800Y-26308490D01*
X49558800Y-26110001D01*
X49558799Y-26110000D01*
X48808801Y-26110000D01*
X48808800Y-26110001D01*
X48808800Y-25609999D01*
X48808801Y-25610000D01*
X49558799Y-25610000D01*
X49558800Y-25609999D01*
X49558800Y-25411509D01*
X49558799Y-25411506D01*
X56198800Y-25411506D01*
X56198800Y-25609999D01*
X56198801Y-25610000D01*
X56948799Y-25610000D01*
X56948800Y-25609999D01*
X56948800Y-26110001D01*
X56948799Y-26110000D01*
X56198801Y-26110000D01*
X56198800Y-26110001D01*
X56198800Y-26308493D01*
X56237229Y-26501688D01*
X56237229Y-26501690D01*
X56312608Y-26683673D01*
X56312614Y-26683685D01*
X56422049Y-26847462D01*
X56422052Y-26847466D01*
X56561333Y-26986747D01*
X56561337Y-26986750D01*
X56725114Y-27096185D01*
X56725126Y-27096191D01*
X56907104Y-27171568D01*
X56907115Y-27171571D01*
X56948800Y-27179862D01*
X56948800Y-26259728D01*
X56986860Y-26351614D01*
X57057186Y-26421940D01*
X57149072Y-26460000D01*
X57248528Y-26460000D01*
X57340414Y-26421940D01*
X57410740Y-26351614D01*
X57448800Y-26259728D01*
X57448800Y-27179861D01*
X57490484Y-27171571D01*
X57490495Y-27171568D01*
X57672473Y-27096191D01*
X57672485Y-27096185D01*
X57836262Y-26986750D01*
X57836266Y-26986747D01*
X57975547Y-26847466D01*
X57975550Y-26847462D01*
X58084985Y-26683685D01*
X58084991Y-26683673D01*
X58160370Y-26501690D01*
X58160370Y-26501688D01*
X58198799Y-26308493D01*
X58198800Y-26308490D01*
X58198800Y-26110001D01*
X58198799Y-26110000D01*
X57448801Y-26110000D01*
X57448800Y-26110001D01*
X57448800Y-25609999D01*
X57448801Y-25610000D01*
X58198799Y-25610000D01*
X58198800Y-25609999D01*
X58198800Y-25411509D01*
X58198799Y-25411506D01*
X58160370Y-25218311D01*
X58160370Y-25218309D01*
X58084991Y-25036326D01*
X58084985Y-25036314D01*
X57975550Y-24872537D01*
X57975547Y-24872533D01*
X57836266Y-24733252D01*
X57836262Y-24733249D01*
X57672485Y-24623814D01*
X57672473Y-24623808D01*
X57490491Y-24548429D01*
X57448800Y-24540136D01*
X57448800Y-25460272D01*
X57410740Y-25368386D01*
X57340414Y-25298060D01*
X57248528Y-25260000D01*
X57149072Y-25260000D01*
X57057186Y-25298060D01*
X56986860Y-25368386D01*
X56948800Y-25460272D01*
X56948800Y-24540136D01*
X56907108Y-24548429D01*
X56725126Y-24623808D01*
X56725114Y-24623814D01*
X56561337Y-24733249D01*
X56561333Y-24733252D01*
X56422052Y-24872533D01*
X56422049Y-24872537D01*
X56312614Y-25036314D01*
X56312608Y-25036326D01*
X56237229Y-25218309D01*
X56237229Y-25218311D01*
X56198800Y-25411506D01*
X49558799Y-25411506D01*
X49520370Y-25218311D01*
X49520370Y-25218309D01*
X49444991Y-25036326D01*
X49444985Y-25036314D01*
X49335550Y-24872537D01*
X49335547Y-24872533D01*
X49196266Y-24733252D01*
X49196262Y-24733249D01*
X49032485Y-24623814D01*
X49032473Y-24623808D01*
X48853471Y-24549663D01*
X48808800Y-24564598D01*
X48808800Y-25460272D01*
X48770740Y-25368386D01*
X48700414Y-25298060D01*
X48608528Y-25260000D01*
X48509072Y-25260000D01*
X48417186Y-25298060D01*
X48346860Y-25368386D01*
X48308800Y-25460272D01*
X48308800Y-24540136D01*
X48267108Y-24548429D01*
X48085126Y-24623808D01*
X48085114Y-24623814D01*
X47921337Y-24733249D01*
X47921333Y-24733252D01*
X47782052Y-24872533D01*
X47782049Y-24872537D01*
X47672614Y-25036314D01*
X47672608Y-25036326D01*
X47597229Y-25218309D01*
X47597229Y-25218311D01*
X47558800Y-25411506D01*
X42283111Y-25411506D01*
X42281714Y-24453525D01*
X50808300Y-24453525D01*
X50808300Y-24598474D01*
X50845817Y-24738489D01*
X50918287Y-24864010D01*
X50918289Y-24864012D01*
X50918291Y-24864015D01*
X51020785Y-24966509D01*
X51020787Y-24966510D01*
X51020789Y-24966512D01*
X51146311Y-25038982D01*
X51146312Y-25038982D01*
X51146315Y-25038984D01*
X51286325Y-25076500D01*
X51286326Y-25076500D01*
X51431274Y-25076500D01*
X51431275Y-25076500D01*
X51571285Y-25038984D01*
X51571287Y-25038982D01*
X51571289Y-25038982D01*
X51696810Y-24966512D01*
X51696810Y-24966511D01*
X51696815Y-24966509D01*
X51799309Y-24864015D01*
X51871784Y-24738485D01*
X51909300Y-24598475D01*
X51909300Y-24453525D01*
X51871784Y-24313515D01*
X51870635Y-24311525D01*
X53805500Y-24311525D01*
X53805500Y-24456474D01*
X53843017Y-24596489D01*
X53915487Y-24722010D01*
X53915489Y-24722012D01*
X53915491Y-24722015D01*
X54017985Y-24824509D01*
X54017987Y-24824510D01*
X54017989Y-24824512D01*
X54143511Y-24896982D01*
X54143512Y-24896982D01*
X54143515Y-24896984D01*
X54283525Y-24934500D01*
X54283526Y-24934500D01*
X54428474Y-24934500D01*
X54428475Y-24934500D01*
X54568485Y-24896984D01*
X54568487Y-24896982D01*
X54568489Y-24896982D01*
X54694010Y-24824512D01*
X54694010Y-24824511D01*
X54694015Y-24824509D01*
X54796509Y-24722015D01*
X54868984Y-24596485D01*
X54906500Y-24456475D01*
X54906500Y-24311525D01*
X54868984Y-24171515D01*
X54868982Y-24171512D01*
X54868982Y-24171510D01*
X54796512Y-24045989D01*
X54796510Y-24045987D01*
X54796509Y-24045985D01*
X54694015Y-23943491D01*
X54694012Y-23943489D01*
X54694010Y-23943487D01*
X54568488Y-23871017D01*
X54568489Y-23871017D01*
X54538896Y-23863087D01*
X54428475Y-23833500D01*
X54283525Y-23833500D01*
X54221790Y-23850041D01*
X54143510Y-23871017D01*
X54017989Y-23943487D01*
X53915487Y-24045989D01*
X53843017Y-24171510D01*
X53805500Y-24311525D01*
X51870635Y-24311525D01*
X51799312Y-24187989D01*
X51799310Y-24187987D01*
X51799309Y-24187985D01*
X51696815Y-24085491D01*
X51696812Y-24085489D01*
X51696810Y-24085487D01*
X51571288Y-24013017D01*
X51571289Y-24013017D01*
X51541696Y-24005087D01*
X51431275Y-23975500D01*
X51286325Y-23975500D01*
X51224590Y-23992041D01*
X51146310Y-24013017D01*
X51020789Y-24085487D01*
X50918287Y-24187989D01*
X50845817Y-24313510D01*
X50808300Y-24453525D01*
X42281714Y-24453525D01*
X42279765Y-23116834D01*
X42279921Y-23111145D01*
X42283497Y-23047462D01*
X42295467Y-22834312D01*
X42296709Y-22823293D01*
X42342701Y-22552600D01*
X42345170Y-22541784D01*
X42411945Y-22310001D01*
X42421182Y-22277939D01*
X42424845Y-22267472D01*
X42529922Y-22013793D01*
X42534726Y-22003817D01*
X42667549Y-21763488D01*
X42673435Y-21754119D01*
X42832336Y-21530168D01*
X42839240Y-21521510D01*
X43022217Y-21316756D01*
X43030043Y-21308931D01*
X43234743Y-21125999D01*
X43234777Y-21125969D01*
X43243456Y-21119047D01*
X43467383Y-20960159D01*
X43476761Y-20954266D01*
X43717096Y-20821435D01*
X43727063Y-20816635D01*
X43980756Y-20711549D01*
X43991195Y-20707896D01*
X44255066Y-20631873D01*
X44265866Y-20629408D01*
X44536560Y-20583413D01*
X44547582Y-20582171D01*
X44823760Y-20566657D01*
X44829313Y-20566501D01*
X48208618Y-20566501D01*
X48266809Y-20585408D01*
G37*
%TD.AperFunction*%
%TD*%
M02*
