%TF.GenerationSoftware,KiCad,Pcbnew,9.0.3*%
%TF.CreationDate,2025-08-03T17:32:48-04:00*%
%TF.ProjectId,Photon,50686f74-6f6e-42e6-9b69-6361645f7063,rev?*%
%TF.SameCoordinates,Original*%
%TF.FileFunction,Legend,Bot*%
%TF.FilePolarity,Positive*%
%FSLAX46Y46*%
G04 Gerber Fmt 4.6, Leading zero omitted, Abs format (unit mm)*
G04 Created by KiCad (PCBNEW 9.0.3) date 2025-08-03 17:32:48*
%MOMM*%
%LPD*%
G01*
G04 APERTURE LIST*
%ADD10C,0.200000*%
%ADD11C,1.000000*%
G04 APERTURE END LIST*
D10*
X51752409Y-15978285D02*
X51800028Y-16121142D01*
X51800028Y-16121142D02*
X51847647Y-16168761D01*
X51847647Y-16168761D02*
X51942885Y-16216380D01*
X51942885Y-16216380D02*
X52085742Y-16216380D01*
X52085742Y-16216380D02*
X52180980Y-16168761D01*
X52180980Y-16168761D02*
X52228600Y-16121142D01*
X52228600Y-16121142D02*
X52276219Y-16025904D01*
X52276219Y-16025904D02*
X52276219Y-15644952D01*
X52276219Y-15644952D02*
X51276219Y-15644952D01*
X51276219Y-15644952D02*
X51276219Y-15978285D01*
X51276219Y-15978285D02*
X51323838Y-16073523D01*
X51323838Y-16073523D02*
X51371457Y-16121142D01*
X51371457Y-16121142D02*
X51466695Y-16168761D01*
X51466695Y-16168761D02*
X51561933Y-16168761D01*
X51561933Y-16168761D02*
X51657171Y-16121142D01*
X51657171Y-16121142D02*
X51704790Y-16073523D01*
X51704790Y-16073523D02*
X51752409Y-15978285D01*
X51752409Y-15978285D02*
X51752409Y-15644952D01*
X51276219Y-16502095D02*
X51276219Y-17073523D01*
X52276219Y-16787809D02*
X51276219Y-16787809D01*
X52276219Y-17930666D02*
X52276219Y-17359238D01*
X52276219Y-17644952D02*
X51276219Y-17644952D01*
X51276219Y-17644952D02*
X51419076Y-17549714D01*
X51419076Y-17549714D02*
X51514314Y-17454476D01*
X51514314Y-17454476D02*
X51561933Y-17359238D01*
D11*
%TO.C,BT1*%
X52832000Y-91186000D02*
X52832000Y-98806000D01*
X52832000Y-42418000D02*
X52832000Y-50038000D01*
X49022000Y-94996000D02*
X56642000Y-94996000D01*
%TD*%
M02*
