M48
; DRILL file {KiCad 9.0.3} date 2025-08-03T17:32:50-0400
; FORMAT={-:-/ absolute / inch / decimal}
; #@! TF.CreationDate,2025-08-03T17:32:50-04:00
; #@! TF.GenerationSoftware,Kicad,Pcbnew,9.0.3
; #@! TF.FileFunction,Plated,1,4,PTH
FMAT,2
INCH
; #@! TA.AperFunction,Plated,PTH,ViaDrill
T1C0.0118
; #@! TA.AperFunction,Plated,PTH,ComponentDrill
T2C0.0236
%
G90
G05
T1
X1.74Y-2.2
X1.7495Y-4.1905
X1.82Y-2.2
X1.82Y-3.98
X1.84Y-3.3
X1.86Y-4.3
X1.8653Y-4.1853
X1.9Y-1.12
X1.9Y-1.16
X1.9Y-1.2
X1.9Y-1.34
X1.9Y-2.72
X1.9Y-3.16
X1.92Y-2.56
X1.98Y-2.56
X2.03Y-3.81
X2.04Y-2.56
X2.08Y-0.96
X2.08Y-4.0
X2.08Y-4.1676
X2.12Y-1.82
X2.12Y-2.56
X2.177Y-4.203
X2.2Y-2.44
X2.2483Y-4.48
X2.26Y-4.3
X2.28Y-1.2
X2.28Y-1.3
X2.28Y-2.44
X2.28Y-2.94
X2.28Y-4.2
X2.3Y-1.1575
X2.32Y-4.08
X2.34Y-3.44
X2.36Y-2.44
X2.44Y-2.24
T2
G00X1.9099Y-0.9003
M15
G01X1.9099Y-0.8767
M16
G05
G00X1.9099Y-1.0499
M15
G01X1.9099Y-1.0263
M16
G05
G00X2.2501Y-0.9003
M15
G01X2.2501Y-0.8767
M16
G05
G00X2.2501Y-1.0499
M15
G01X2.2501Y-1.0263
M16
G05
M30
