%TF.GenerationSoftware,KiCad,Pcbnew,9.0.3*%
%TF.CreationDate,2025-11-14T23:11:59-05:00*%
%TF.ProjectId,Photon,50686f74-6f6e-42e6-9b69-6361645f7063,1.3*%
%TF.SameCoordinates,Original*%
%TF.FileFunction,Drillmap*%
%TF.FilePolarity,Positive*%
%FSLAX45Y45*%
G04 Gerber Fmt 4.5, Leading zero omitted, Abs format (unit mm)*
G04 Created by KiCad (PCBNEW 9.0.3) date 2025-11-14 23:11:59*
%MOMM*%
%LPD*%
G01*
G04 APERTURE LIST*
%ADD10C,0.200000*%
G04 APERTURE END LIST*
D10*
X4221200Y-9174200D02*
X4221200Y-2332000D01*
X6045200Y-2032000D02*
G75*
G02*
X6345200Y-2332000I0J-300000D01*
G01*
X6345200Y-9174200D02*
G75*
G02*
X6045200Y-9474200I-300000J0D01*
G01*
X4572000Y-5310402D02*
G75*
G02*
X4368800Y-5310402I-101600J0D01*
G01*
X4368800Y-5310402D02*
G75*
G02*
X4572000Y-5310402I101600J0D01*
G01*
X4572000Y-6986802D02*
G75*
G02*
X4368800Y-6986802I-101600J0D01*
G01*
X4368800Y-6986802D02*
G75*
G02*
X4572000Y-6986802I101600J0D01*
G01*
X4521200Y-2032000D02*
X6045200Y-2032000D01*
X4521200Y-9474200D02*
G75*
G02*
X4221200Y-9174200I0J300000D01*
G01*
X6345200Y-2332000D02*
X6345200Y-9174200D01*
X4221200Y-2332000D02*
G75*
G02*
X4521200Y-2032000I300000J0D01*
G01*
X6045200Y-9474200D02*
X4521200Y-9474200D01*
X4471977Y-9795684D02*
X4471977Y-9595684D01*
X4471977Y-9595684D02*
X4519596Y-9595684D01*
X4519596Y-9595684D02*
X4548167Y-9605208D01*
X4548167Y-9605208D02*
X4567215Y-9624255D01*
X4567215Y-9624255D02*
X4576739Y-9643303D01*
X4576739Y-9643303D02*
X4586263Y-9681398D01*
X4586263Y-9681398D02*
X4586263Y-9709969D01*
X4586263Y-9709969D02*
X4576739Y-9748065D01*
X4576739Y-9748065D02*
X4567215Y-9767112D01*
X4567215Y-9767112D02*
X4548167Y-9786160D01*
X4548167Y-9786160D02*
X4519596Y-9795684D01*
X4519596Y-9795684D02*
X4471977Y-9795684D01*
X4671977Y-9795684D02*
X4671977Y-9662350D01*
X4671977Y-9700446D02*
X4681501Y-9681398D01*
X4681501Y-9681398D02*
X4691024Y-9671874D01*
X4691024Y-9671874D02*
X4710072Y-9662350D01*
X4710072Y-9662350D02*
X4729120Y-9662350D01*
X4795786Y-9795684D02*
X4795786Y-9662350D01*
X4795786Y-9595684D02*
X4786263Y-9605208D01*
X4786263Y-9605208D02*
X4795786Y-9614731D01*
X4795786Y-9614731D02*
X4805310Y-9605208D01*
X4805310Y-9605208D02*
X4795786Y-9595684D01*
X4795786Y-9595684D02*
X4795786Y-9614731D01*
X4919596Y-9795684D02*
X4900548Y-9786160D01*
X4900548Y-9786160D02*
X4891024Y-9767112D01*
X4891024Y-9767112D02*
X4891024Y-9595684D01*
X5024358Y-9795684D02*
X5005310Y-9786160D01*
X5005310Y-9786160D02*
X4995786Y-9767112D01*
X4995786Y-9767112D02*
X4995786Y-9595684D01*
X5252929Y-9795684D02*
X5252929Y-9595684D01*
X5252929Y-9595684D02*
X5319596Y-9738541D01*
X5319596Y-9738541D02*
X5386263Y-9595684D01*
X5386263Y-9595684D02*
X5386263Y-9795684D01*
X5567215Y-9795684D02*
X5567215Y-9690922D01*
X5567215Y-9690922D02*
X5557691Y-9671874D01*
X5557691Y-9671874D02*
X5538644Y-9662350D01*
X5538644Y-9662350D02*
X5500548Y-9662350D01*
X5500548Y-9662350D02*
X5481501Y-9671874D01*
X5567215Y-9786160D02*
X5548167Y-9795684D01*
X5548167Y-9795684D02*
X5500548Y-9795684D01*
X5500548Y-9795684D02*
X5481501Y-9786160D01*
X5481501Y-9786160D02*
X5471977Y-9767112D01*
X5471977Y-9767112D02*
X5471977Y-9748065D01*
X5471977Y-9748065D02*
X5481501Y-9729017D01*
X5481501Y-9729017D02*
X5500548Y-9719493D01*
X5500548Y-9719493D02*
X5548167Y-9719493D01*
X5548167Y-9719493D02*
X5567215Y-9709969D01*
X5662453Y-9662350D02*
X5662453Y-9862350D01*
X5662453Y-9671874D02*
X5681501Y-9662350D01*
X5681501Y-9662350D02*
X5719596Y-9662350D01*
X5719596Y-9662350D02*
X5738643Y-9671874D01*
X5738643Y-9671874D02*
X5748167Y-9681398D01*
X5748167Y-9681398D02*
X5757691Y-9700446D01*
X5757691Y-9700446D02*
X5757691Y-9757588D01*
X5757691Y-9757588D02*
X5748167Y-9776636D01*
X5748167Y-9776636D02*
X5738643Y-9786160D01*
X5738643Y-9786160D02*
X5719596Y-9795684D01*
X5719596Y-9795684D02*
X5681501Y-9795684D01*
X5681501Y-9795684D02*
X5662453Y-9786160D01*
X5843405Y-9776636D02*
X5852929Y-9786160D01*
X5852929Y-9786160D02*
X5843405Y-9795684D01*
X5843405Y-9795684D02*
X5833882Y-9786160D01*
X5833882Y-9786160D02*
X5843405Y-9776636D01*
X5843405Y-9776636D02*
X5843405Y-9795684D01*
X5843405Y-9671874D02*
X5852929Y-9681398D01*
X5852929Y-9681398D02*
X5843405Y-9690922D01*
X5843405Y-9690922D02*
X5833882Y-9681398D01*
X5833882Y-9681398D02*
X5843405Y-9671874D01*
X5843405Y-9671874D02*
X5843405Y-9690922D01*
M02*
