M48
INCH
T1C0.0118
T2C0.0197
T3C0.0709
%
G90
G05
T1
X1.71Y-2.62
X1.7176Y-1.1898
X1.7176Y-1.2588
X1.72Y-0.91
X1.72Y-0.98
X1.74Y-2.4
X1.775Y-1.5296
X1.7846Y-2.34
X1.7846Y-2.4
X1.7846Y-2.5
X1.7846Y-2.56
X1.8046Y-2.955
X1.845Y-1.53
X1.8474Y-2.0224
X1.8529Y-1.804
X1.8554Y-2.4556
X1.8554Y-2.5
X1.8554Y-2.54
X1.8554Y-2.5849
X1.8554Y-2.63
X1.8744Y-2.0957
X1.8756Y-2.955
X1.8756Y-2.3769
X1.8855Y-3.11
X1.888Y-3.2105
X1.89Y-1.2815
X1.93Y-1.9399
X1.9503Y-2.0459
X1.9736Y-0.9656
X1.98Y-2.405
X1.98Y-2.4494
X1.98Y-2.5269
X1.98Y-2.5738
X1.98Y-2.625
X2.02Y-0.9656
X2.0518Y-2.4706
X2.06Y-3.07
X2.0695Y-2.6708
X2.07Y-2.6
X2.075Y-2.2
X2.0818Y-3.24
X2.0818Y-3.387
X2.0818Y-3.45
X2.1146Y-1.492
X2.1146Y-1.5286
X2.1146Y-1.576
X2.1417Y-0.9656
X2.19Y-0.9656
X2.1903Y-1.5166
X2.1903Y-1.5541
X2.21Y-3.18
X2.2108Y-1.148
X2.22Y-2.362
X2.2348Y-3.382
X2.244Y-1.202
X2.244Y-1.3165
X2.26Y-1.596
X2.298Y-2.356
X2.3349Y-2.1949
X2.3752Y-2.1348
X2.385Y-1.324
T3
X1.9834Y-1.42
X1.9834Y-3.3098
X2.0818Y-1.1208
X2.0818Y-3.609
X2.1803Y-1.42
X2.1803Y-3.3098
T2
G00X1.9118Y-0.8723
M15
G01X1.9118Y-0.8447
M16
G05
G00X1.9118Y-1.0219
M15
G01X1.9118Y-0.9943
M16
G05
G00X2.2519Y-0.8723
M15
G01X2.2519Y-0.8447
M16
G05
G00X2.2519Y-1.0219
M15
G01X2.2519Y-0.9943
M16
G05
M30
