%TF.GenerationSoftware,KiCad,Pcbnew,9.0.3*%
%TF.CreationDate,2025-11-14T23:12:01-05:00*%
%TF.ProjectId,Photon,50686f74-6f6e-42e6-9b69-6361645f7063,1.3*%
%TF.SameCoordinates,Original*%
%TF.FileFunction,Copper,L1,Top*%
%TF.FilePolarity,Positive*%
%FSLAX46Y46*%
G04 Gerber Fmt 4.6, Leading zero omitted, Abs format (unit mm)*
G04 Created by KiCad (PCBNEW 9.0.3) date 2025-11-14 23:12:01*
%MOMM*%
%LPD*%
G01*
G04 APERTURE LIST*
G04 Aperture macros list*
%AMRoundRect*
0 Rectangle with rounded corners*
0 $1 Rounding radius*
0 $2 $3 $4 $5 $6 $7 $8 $9 X,Y pos of 4 corners*
0 Add a 4 corners polygon primitive as box body*
4,1,4,$2,$3,$4,$5,$6,$7,$8,$9,$2,$3,0*
0 Add four circle primitives for the rounded corners*
1,1,$1+$1,$2,$3*
1,1,$1+$1,$4,$5*
1,1,$1+$1,$6,$7*
1,1,$1+$1,$8,$9*
0 Add four rect primitives between the rounded corners*
20,1,$1+$1,$2,$3,$4,$5,0*
20,1,$1+$1,$4,$5,$6,$7,0*
20,1,$1+$1,$6,$7,$8,$9,0*
20,1,$1+$1,$8,$9,$2,$3,0*%
G04 Aperture macros list end*
%TA.AperFunction,EtchedComponent*%
%ADD10C,2.259000*%
%TD*%
%TA.AperFunction,SMDPad,CuDef*%
%ADD11C,0.500000*%
%TD*%
%TA.AperFunction,SMDPad,CuDef*%
%ADD12RoundRect,0.218750X-0.218750X-0.256250X0.218750X-0.256250X0.218750X0.256250X-0.218750X0.256250X0*%
%TD*%
%TA.AperFunction,SMDPad,CuDef*%
%ADD13RoundRect,0.200000X-0.200000X-0.275000X0.200000X-0.275000X0.200000X0.275000X-0.200000X0.275000X0*%
%TD*%
%TA.AperFunction,SMDPad,CuDef*%
%ADD14RoundRect,0.150000X0.150000X-0.587500X0.150000X0.587500X-0.150000X0.587500X-0.150000X-0.587500X0*%
%TD*%
%TA.AperFunction,ComponentPad*%
%ADD15C,3.000000*%
%TD*%
%TA.AperFunction,SMDPad,CuDef*%
%ADD16RoundRect,0.150000X-0.725000X-0.150000X0.725000X-0.150000X0.725000X0.150000X-0.725000X0.150000X0*%
%TD*%
%TA.AperFunction,SMDPad,CuDef*%
%ADD17RoundRect,0.225000X0.225000X0.250000X-0.225000X0.250000X-0.225000X-0.250000X0.225000X-0.250000X0*%
%TD*%
%TA.AperFunction,SMDPad,CuDef*%
%ADD18C,1.000000*%
%TD*%
%TA.AperFunction,SMDPad,CuDef*%
%ADD19RoundRect,0.175000X0.175000X0.625000X-0.175000X0.625000X-0.175000X-0.625000X0.175000X-0.625000X0*%
%TD*%
%TA.AperFunction,SMDPad,CuDef*%
%ADD20RoundRect,0.200000X0.200000X0.600000X-0.200000X0.600000X-0.200000X-0.600000X0.200000X-0.600000X0*%
%TD*%
%TA.AperFunction,SMDPad,CuDef*%
%ADD21RoundRect,0.225000X0.225000X0.575000X-0.225000X0.575000X-0.225000X-0.575000X0.225000X-0.575000X0*%
%TD*%
%TA.AperFunction,HeatsinkPad*%
%ADD22O,1.000000X1.700000*%
%TD*%
%TA.AperFunction,SMDPad,CuDef*%
%ADD23RoundRect,0.150000X0.512500X0.150000X-0.512500X0.150000X-0.512500X-0.150000X0.512500X-0.150000X0*%
%TD*%
%TA.AperFunction,SMDPad,CuDef*%
%ADD24RoundRect,0.225000X-0.225000X-0.250000X0.225000X-0.250000X0.225000X0.250000X-0.225000X0.250000X0*%
%TD*%
%TA.AperFunction,SMDPad,CuDef*%
%ADD25RoundRect,0.225000X-0.250000X0.225000X-0.250000X-0.225000X0.250000X-0.225000X0.250000X0.225000X0*%
%TD*%
%TA.AperFunction,SMDPad,CuDef*%
%ADD26RoundRect,0.150000X-0.512500X-0.150000X0.512500X-0.150000X0.512500X0.150000X-0.512500X0.150000X0*%
%TD*%
%TA.AperFunction,SMDPad,CuDef*%
%ADD27RoundRect,0.200000X0.200000X0.275000X-0.200000X0.275000X-0.200000X-0.275000X0.200000X-0.275000X0*%
%TD*%
%TA.AperFunction,SMDPad,CuDef*%
%ADD28RoundRect,0.105000X-0.420000X-0.895000X0.420000X-0.895000X0.420000X0.895000X-0.420000X0.895000X0*%
%TD*%
%TA.AperFunction,SMDPad,CuDef*%
%ADD29RoundRect,0.200000X-0.275000X0.200000X-0.275000X-0.200000X0.275000X-0.200000X0.275000X0.200000X0*%
%TD*%
%TA.AperFunction,SMDPad,CuDef*%
%ADD30RoundRect,0.200000X0.275000X-0.200000X0.275000X0.200000X-0.275000X0.200000X-0.275000X-0.200000X0*%
%TD*%
%TA.AperFunction,SMDPad,CuDef*%
%ADD31RoundRect,0.120000X1.230000X-0.280000X1.230000X0.280000X-1.230000X0.280000X-1.230000X-0.280000X0*%
%TD*%
%TA.AperFunction,SMDPad,CuDef*%
%ADD32RoundRect,0.255000X0.945000X0.595000X-0.945000X0.595000X-0.945000X-0.595000X0.945000X-0.595000X0*%
%TD*%
%TA.AperFunction,SMDPad,CuDef*%
%ADD33RoundRect,0.225000X0.250000X-0.225000X0.250000X0.225000X-0.250000X0.225000X-0.250000X-0.225000X0*%
%TD*%
%TA.AperFunction,SMDPad,CuDef*%
%ADD34RoundRect,0.150000X-0.825000X-0.150000X0.825000X-0.150000X0.825000X0.150000X-0.825000X0.150000X0*%
%TD*%
%TA.AperFunction,HeatsinkPad*%
%ADD35R,2.290000X3.000000*%
%TD*%
%TA.AperFunction,ViaPad*%
%ADD36C,0.700000*%
%TD*%
%TA.AperFunction,Conductor*%
%ADD37C,0.200000*%
%TD*%
%TA.AperFunction,Conductor*%
%ADD38C,0.500000*%
%TD*%
%TA.AperFunction,Conductor*%
%ADD39C,0.600000*%
%TD*%
%TA.AperFunction,Conductor*%
%ADD40C,0.700000*%
%TD*%
%TA.AperFunction,Conductor*%
%ADD41C,0.300000*%
%TD*%
G04 APERTURE END LIST*
%TO.C,D5*%
D10*
X54088500Y-47017000D02*
G75*
G02*
X51829500Y-47017000I-1129500J0D01*
G01*
X51829500Y-47017000D02*
G75*
G02*
X54088500Y-47017000I1129500J0D01*
G01*
%TO.C,D6*%
X54088500Y-72644000D02*
G75*
G02*
X51829500Y-72644000I-1129500J0D01*
G01*
X51829500Y-72644000D02*
G75*
G02*
X54088500Y-72644000I1129500J0D01*
G01*
%TD*%
D11*
%TO.P,FID2,*%
%TO.N,*%
X61264800Y-91694000D03*
%TD*%
D12*
%TO.P,D2,2,A*%
%TO.N,/LED_PWR*%
X59613900Y-30073600D03*
%TO.P,D2,1,K*%
%TO.N,/STAT1*%
X58038900Y-30073600D03*
%TD*%
D13*
%TO.P,R7,2*%
%TO.N,/LED_PWR*%
X59631400Y-28315600D03*
%TO.P,R7,1*%
%TO.N,5V*%
X57981400Y-28315600D03*
%TD*%
D12*
%TO.P,D1,2,A*%
%TO.N,/LED_PWR*%
X59613900Y-31871600D03*
%TO.P,D1,1,K*%
%TO.N,/STAT2*%
X58038900Y-31871600D03*
%TD*%
D14*
%TO.P,Q1,3,D*%
%TO.N,/BUCK_EN*%
X50850800Y-39245300D03*
%TO.P,Q1,2,S*%
%TO.N,PACK_SAFE*%
X51800800Y-41120300D03*
%TO.P,Q1,1,G*%
%TO.N,/DSBL*%
X49900800Y-41120300D03*
%TD*%
D15*
%TO.P,BT1,2,-*%
%TO.N,/Bat-*%
X52878800Y-91668000D03*
X50378800Y-84068000D03*
X55378800Y-84068000D03*
%TO.P,BT1,1,+*%
%TO.N,/Bat+*%
X50378800Y-36068000D03*
X55378800Y-36068000D03*
X52878800Y-28468000D03*
%TD*%
D16*
%TO.P,U1,1,~{RESET}/PB5*%
%TO.N,/RESET*%
X48733000Y-62865000D03*
%TO.P,U1,2,PB3*%
%TO.N,/LED2_EN*%
X48733000Y-64135000D03*
%TO.P,U1,3,PB4*%
%TO.N,/LED1_EN*%
X48733000Y-65405000D03*
%TO.P,U1,4,GND*%
%TO.N,GND*%
X48733000Y-66675000D03*
%TO.P,U1,5,PB0*%
%TO.N,/MOSI*%
X53883000Y-66675000D03*
%TO.P,U1,6,PB1*%
%TO.N,/MISO_BTN*%
X53883000Y-65405000D03*
%TO.P,U1,7,PB2*%
%TO.N,/SCK*%
X53883000Y-64135000D03*
%TO.P,U1,8,VCC*%
%TO.N,+3V3*%
X53883000Y-62865000D03*
%TD*%
D17*
%TO.P,C2,1*%
%TO.N,GND*%
X51080000Y-52959000D03*
%TO.P,C2,2*%
%TO.N,PACK_SAFE*%
X49530000Y-52959000D03*
%TD*%
D18*
%TO.P,TP8,1,1*%
%TO.N,/MISO_BTN*%
X43200210Y-60447400D03*
%TD*%
D19*
%TO.P,J1,A5,CC1*%
%TO.N,/CC1*%
X53378800Y-25786000D03*
D20*
%TO.P,J1,A9,VBUS*%
%TO.N,5V*%
X51358800Y-25786000D03*
D21*
%TO.P,J1,A12,GND*%
%TO.N,GND*%
X50128800Y-25786000D03*
D19*
%TO.P,J1,B5,CC2*%
%TO.N,/CC2*%
X52378800Y-25786000D03*
D20*
%TO.P,J1,B9,VBUS*%
%TO.N,5V*%
X54398800Y-25786000D03*
D21*
%TO.P,J1,B12,GND*%
%TO.N,GND*%
X55628800Y-25786000D03*
D22*
%TO.P,J1,S1,SHIELD*%
X57198800Y-25606000D03*
X57198800Y-21806000D03*
X48558800Y-25606000D03*
X48558800Y-21806000D03*
%TD*%
D23*
%TO.P,U6,1,S1*%
%TO.N,/Bat-*%
X56763500Y-88580000D03*
%TO.P,U6,2,D1/D2*%
%TO.N,unconnected-(U6-D1{slash}D2-Pad2)*%
X56763500Y-87630000D03*
%TO.P,U6,3,S2*%
%TO.N,GND*%
X56763500Y-86680000D03*
%TO.P,U6,4,G2*%
%TO.N,/OC*%
X54488500Y-86680000D03*
%TO.P,U6,5,D1/D2*%
%TO.N,unconnected-(U6-D1{slash}D2-Pad5)*%
X54488500Y-87630000D03*
%TO.P,U6,6,G1*%
%TO.N,/OD*%
X54488500Y-88580000D03*
%TD*%
D17*
%TO.P,C4,1*%
%TO.N,/FB*%
X49302000Y-57150000D03*
%TO.P,C4,2*%
%TO.N,+3V3*%
X47752000Y-57150000D03*
%TD*%
D18*
%TO.P,TP7,1,1*%
%TO.N,/MOSI*%
X44717224Y-58412074D03*
%TD*%
D23*
%TO.P,U5,1,OD*%
%TO.N,/OD*%
X51429500Y-88580000D03*
%TO.P,U5,2,VM*%
%TO.N,/VM*%
X51429500Y-87630000D03*
%TO.P,U5,3,OC*%
%TO.N,/OC*%
X51429500Y-86680000D03*
%TO.P,U5,4,TD*%
%TO.N,unconnected-(U5-TD-Pad4)*%
X49154500Y-86680000D03*
%TO.P,U5,5,VCC*%
%TO.N,/DW01A_VCC*%
X49154500Y-87630000D03*
%TO.P,U5,6,GND*%
%TO.N,/Bat-*%
X49154500Y-88580000D03*
%TD*%
D13*
%TO.P,R9,1*%
%TO.N,/FB*%
X51004000Y-58928000D03*
%TO.P,R9,2*%
%TO.N,GND*%
X52654000Y-58928000D03*
%TD*%
D24*
%TO.P,C5,1*%
%TO.N,GND*%
X52832000Y-52959000D03*
%TO.P,C5,2*%
%TO.N,+3V3*%
X54382000Y-52959000D03*
%TD*%
D11*
%TO.P,FID3,*%
%TO.N,*%
X44145200Y-27127200D03*
%TD*%
D13*
%TO.P,R4,1*%
%TO.N,/DSBL*%
X44578000Y-33776500D03*
%TO.P,R4,2*%
%TO.N,5V*%
X46228000Y-33776500D03*
%TD*%
D25*
%TO.P,C1,1*%
%TO.N,GND*%
X56388000Y-60947000D03*
%TO.P,C1,2*%
%TO.N,+3V3*%
X56388000Y-62497000D03*
%TD*%
D26*
%TO.P,U4,1,EN*%
%TO.N,/LED1_EN*%
X44787428Y-43182724D03*
%TO.P,U4,2,OUT*%
%TO.N,/OUT_LED1*%
X44787428Y-44132724D03*
%TO.P,U4,3,OUT*%
X44787428Y-45082724D03*
%TO.P,U4,4,GND*%
%TO.N,GND*%
X47062428Y-45082724D03*
%TO.P,U4,5,OUT*%
%TO.N,/OUT_LED1*%
X47062428Y-44132724D03*
%TO.P,U4,6,Rext*%
%TO.N,/Rext1*%
X47062428Y-43182724D03*
%TD*%
D27*
%TO.P,R2,1*%
%TO.N,/CC2*%
X46291000Y-24892000D03*
%TO.P,R2,2*%
%TO.N,GND*%
X44641000Y-24892000D03*
%TD*%
%TO.P,R1,1*%
%TO.N,/CC1*%
X46291000Y-23114000D03*
%TO.P,R1,2*%
%TO.N,GND*%
X44641000Y-23114000D03*
%TD*%
D13*
%TO.P,R16,1*%
%TO.N,/Rext2*%
X49721000Y-77978000D03*
%TO.P,R16,2*%
%TO.N,GND*%
X51371000Y-77978000D03*
%TD*%
D28*
%TO.P,SW1,1,1*%
%TO.N,/MISO_BTN*%
X50546000Y-80772000D03*
%TO.P,SW1,2,2*%
%TO.N,GND*%
X54991000Y-80772000D03*
%TD*%
D18*
%TO.P,TP12,1,1*%
%TO.N,/SCK*%
X44742507Y-62482726D03*
%TD*%
D29*
%TO.P,R10,1*%
%TO.N,/Iset*%
X48006000Y-30163000D03*
%TO.P,R10,2*%
%TO.N,GND*%
X48006000Y-31813000D03*
%TD*%
D18*
%TO.P,TP9,1,1*%
%TO.N,+3V3*%
X43187568Y-64492769D03*
%TD*%
D30*
%TO.P,R12,1*%
%TO.N,/LED1_EN*%
X45085000Y-41455000D03*
%TO.P,R12,2*%
%TO.N,GND*%
X45085000Y-39805000D03*
%TD*%
D18*
%TO.P,TP13,1,1*%
%TO.N,/RESET*%
X43143297Y-56388000D03*
%TD*%
D14*
%TO.P,Q2,1,G*%
%TO.N,/BAT_DSBL*%
X53710800Y-41120300D03*
%TO.P,Q2,2,S*%
%TO.N,PACK_SAFE*%
X55610800Y-41120300D03*
%TO.P,Q2,3,D*%
%TO.N,/Bat+*%
X54660800Y-39245300D03*
%TD*%
D26*
%TO.P,U7,1,EN*%
%TO.N,/LED2_EN*%
X45617500Y-76247000D03*
%TO.P,U7,2,OUT*%
%TO.N,/OUT_LED2*%
X45617500Y-77197000D03*
%TO.P,U7,3,OUT*%
X45617500Y-78147000D03*
%TO.P,U7,4,GND*%
%TO.N,GND*%
X47892500Y-78147000D03*
%TO.P,U7,5,OUT*%
%TO.N,/OUT_LED2*%
X47892500Y-77197000D03*
%TO.P,U7,6,Rext*%
%TO.N,/Rext2*%
X47892500Y-76247000D03*
%TD*%
D29*
%TO.P,R14,1*%
%TO.N,/Bat+*%
X46888400Y-83249000D03*
%TO.P,R14,2*%
%TO.N,/DW01A_VCC*%
X46888400Y-84899000D03*
%TD*%
D30*
%TO.P,R18,1*%
%TO.N,+3V3*%
X58369200Y-62547000D03*
%TO.P,R18,2*%
%TO.N,/RESET*%
X58369200Y-60897000D03*
%TD*%
D27*
%TO.P,R5,1*%
%TO.N,5V*%
X46228000Y-31974500D03*
%TO.P,R5,2*%
%TO.N,GND*%
X44578000Y-31974500D03*
%TD*%
D31*
%TO.P,L1,1,1*%
%TO.N,/LX*%
X57038386Y-55143400D03*
%TO.P,L1,2,2*%
%TO.N,+3V3*%
X57038386Y-52832000D03*
%TD*%
D11*
%TO.P,FID1,*%
%TO.N,*%
X61417200Y-27127200D03*
%TD*%
D30*
%TO.P,R19,1*%
%TO.N,/Bat-*%
X58928000Y-88505800D03*
%TO.P,R19,2*%
%TO.N,/BAT_DSBL*%
X58928000Y-86855800D03*
%TD*%
D32*
%TO.P,D5,1,K*%
%TO.N,/OUT_LED1*%
X46609000Y-47779000D03*
%TO.P,D5,2,A*%
%TO.N,+3V3*%
X59309000Y-46255000D03*
%TD*%
D11*
%TO.P,FID2,*%
%TO.N,*%
X43942000Y-91694000D03*
%TD*%
D33*
%TO.P,C7,1*%
%TO.N,/Bat-*%
X46888400Y-88455800D03*
%TO.P,C7,2*%
%TO.N,/DW01A_VCC*%
X46888400Y-86905800D03*
%TD*%
D13*
%TO.P,R8,1*%
%TO.N,+3V3*%
X47702000Y-58928000D03*
%TO.P,R8,2*%
%TO.N,/FB*%
X49352000Y-58928000D03*
%TD*%
D29*
%TO.P,R17,1*%
%TO.N,GND*%
X52878800Y-83249000D03*
%TO.P,R17,2*%
%TO.N,/VM*%
X52878800Y-84899000D03*
%TD*%
D18*
%TO.P,TP1,1,1*%
%TO.N,GND*%
X44714882Y-66548000D03*
%TD*%
D23*
%TO.P,U2,1,EN*%
%TO.N,/BUCK_EN*%
X53889500Y-56891000D03*
%TO.P,U2,2,GND*%
%TO.N,GND*%
X53889500Y-55941000D03*
%TO.P,U2,3,LX*%
%TO.N,/LX*%
X53889500Y-54991000D03*
%TO.P,U2,4,Vin*%
%TO.N,PACK_SAFE*%
X51614500Y-54991000D03*
%TO.P,U2,5,FB*%
%TO.N,/FB*%
X51614500Y-56891000D03*
%TD*%
D30*
%TO.P,R13,1*%
%TO.N,/Rext1*%
X46863000Y-41455000D03*
%TO.P,R13,2*%
%TO.N,GND*%
X46863000Y-39805000D03*
%TD*%
D29*
%TO.P,R15,1*%
%TO.N,/LED2_EN*%
X46888400Y-79896200D03*
%TO.P,R15,2*%
%TO.N,GND*%
X46888400Y-81546200D03*
%TD*%
%TO.P,R6,1*%
%TO.N,/BUCK_EN*%
X58369200Y-57341000D03*
%TO.P,R6,2*%
%TO.N,GND*%
X58369200Y-58991000D03*
%TD*%
D34*
%TO.P,U3,1*%
%TO.N,N/C*%
X50403800Y-30009400D03*
%TO.P,U3,2,ISET*%
%TO.N,/Iset*%
X50403800Y-31279400D03*
%TO.P,U3,3,VSS*%
%TO.N,GND*%
X50403800Y-32549400D03*
%TO.P,U3,4,VIN*%
%TO.N,5V*%
X50403800Y-33819400D03*
%TO.P,U3,5,VBAT*%
%TO.N,/Bat+*%
X55353800Y-33819400D03*
%TO.P,U3,6,STAT2*%
%TO.N,/STAT2*%
X55353800Y-32549400D03*
%TO.P,U3,7,STAT1*%
%TO.N,/STAT1*%
X55353800Y-31279400D03*
%TO.P,U3,8,EN*%
%TO.N,5V*%
X55353800Y-30009400D03*
D35*
%TO.P,U3,9*%
%TO.N,N/C*%
X52878800Y-31914400D03*
%TD*%
D32*
%TO.P,D6,1,K*%
%TO.N,/OUT_LED2*%
X46609000Y-73406000D03*
%TO.P,D6,2,A*%
%TO.N,+3V3*%
X59309000Y-71882000D03*
%TD*%
D17*
%TO.P,C6,1*%
%TO.N,GND*%
X59601400Y-33629600D03*
%TO.P,C6,2*%
%TO.N,/Bat+*%
X58051400Y-33629600D03*
%TD*%
D24*
%TO.P,C3,1*%
%TO.N,GND*%
X44628000Y-30226000D03*
%TO.P,C3,2*%
%TO.N,5V*%
X46178000Y-30226000D03*
%TD*%
D36*
%TO.N,GND*%
X50292000Y-66675000D03*
X43628000Y-31974500D03*
X55626000Y-24526000D03*
X52705000Y-55880000D03*
X56388000Y-59994800D03*
X60579000Y-33629600D03*
X43434000Y-66548000D03*
X47892500Y-78994000D03*
X43688000Y-23114000D03*
X50128800Y-24526000D03*
X48006000Y-32549400D03*
X43688000Y-24892000D03*
X58369200Y-59842400D03*
X46863000Y-38862000D03*
X45085000Y-38852000D03*
X52878800Y-82296000D03*
X43628000Y-30220500D03*
X52324000Y-77978000D03*
X47062428Y-45820724D03*
X47955200Y-81546200D03*
X56134000Y-80772000D03*
X56763500Y-85902800D03*
%TO.N,/SCK*%
X45328000Y-63500000D03*
X47128000Y-63500000D03*
%TO.N,/LED2_EN*%
X47639116Y-75057000D03*
X47128000Y-66802000D03*
X47128000Y-64516000D03*
X45836000Y-75057000D03*
%TO.N,/LED1_EN*%
X47610000Y-53230792D03*
X50292000Y-62215000D03*
X50292000Y-65374000D03*
X46925103Y-51370103D03*
%TO.N,/MOSI*%
X45328000Y-59436000D03*
X52115428Y-62753196D03*
X47640000Y-60373380D03*
X50292000Y-61087000D03*
%TO.N,+3V3*%
X45328000Y-65024000D03*
X47128000Y-65657603D03*
%TO.N,PACK_SAFE*%
X53710800Y-38825589D03*
X55633920Y-39474680D03*
X49537620Y-51965620D03*
X49022000Y-49273206D03*
%TO.N,/RESET*%
X45328000Y-60960000D03*
X47128000Y-62372000D03*
%TO.N,5V*%
X54398800Y-24526000D03*
X51308000Y-24526000D03*
%TO.N,/BUCK_EN*%
X60330460Y-54223541D03*
X55633920Y-38522187D03*
X53710800Y-37896800D03*
X59305800Y-55750334D03*
%TO.N,/VM*%
X52878800Y-86030000D03*
X52878800Y-87630000D03*
%TO.N,/Bat+*%
X56997600Y-30530800D03*
X56997600Y-33439800D03*
X56153800Y-29159400D03*
%TO.N,/MISO_BTN*%
X44196000Y-60960000D03*
X52578000Y-66040000D03*
X52566464Y-67837827D03*
X50292000Y-64184000D03*
%TO.N,/BAT_DSBL*%
X57404000Y-40538400D03*
X53710800Y-40030400D03*
%TD*%
D37*
%TO.N,5V*%
X55829200Y-28315600D02*
X55638600Y-28315600D01*
D38*
X55353800Y-28600400D02*
X55353800Y-30009400D01*
D37*
X55638600Y-28315600D02*
X55353800Y-28600400D01*
X55678600Y-28315600D02*
X55353800Y-27990800D01*
X55829200Y-28315600D02*
X55678600Y-28315600D01*
D38*
X55353800Y-27990800D02*
X55353800Y-28295600D01*
D37*
X55829200Y-28315600D02*
X55373800Y-28315600D01*
X57981400Y-28315600D02*
X55829200Y-28315600D01*
D38*
X55353800Y-27413800D02*
X55353800Y-27990800D01*
D37*
X55373800Y-28315600D02*
X55353800Y-28295600D01*
D38*
X55353800Y-28295600D02*
X55353800Y-28600400D01*
D37*
%TO.N,/STAT1*%
X58038900Y-30655500D02*
X58038900Y-30073600D01*
X57415000Y-31279400D02*
X58038900Y-30655500D01*
X55353800Y-31279400D02*
X57415000Y-31279400D01*
D39*
%TO.N,/Bat+*%
X56997600Y-29753390D02*
X56403610Y-29159400D01*
X56403610Y-29159400D02*
X56153800Y-29159400D01*
X56997600Y-30530800D02*
X56997600Y-29753390D01*
D37*
%TO.N,/STAT2*%
X57361100Y-32549400D02*
X58038900Y-31871600D01*
X55353800Y-32549400D02*
X57361100Y-32549400D01*
%TO.N,/LED_PWR*%
X59613900Y-28333100D02*
X59613900Y-31615100D01*
%TO.N,GND*%
X46888400Y-81546200D02*
X47955200Y-81546200D01*
D38*
X43628000Y-30220500D02*
X44628000Y-30220500D01*
D37*
X56388000Y-59994800D02*
X56388000Y-60947000D01*
X43628000Y-31974500D02*
X44578000Y-31974500D01*
D39*
X59601400Y-33629600D02*
X60579000Y-33629600D01*
D37*
X45085000Y-38852000D02*
X45085000Y-39805000D01*
X46863000Y-39805000D02*
X46863000Y-38862000D01*
X48006000Y-31813000D02*
X48006000Y-32627000D01*
X58369200Y-59842400D02*
X58369200Y-58991000D01*
D40*
X47062428Y-45082724D02*
X47062428Y-45820724D01*
D37*
X52878800Y-82342800D02*
X52878800Y-83249000D01*
X43434000Y-66548000D02*
X44714882Y-66548000D01*
D39*
X47892500Y-78147000D02*
X47892500Y-78994000D01*
D38*
X48006000Y-32627000D02*
X48083600Y-32549400D01*
X48083600Y-32549400D02*
X50326200Y-32549400D01*
D37*
X56134000Y-80772000D02*
X54991000Y-80772000D01*
D41*
X43688000Y-24892000D02*
X44641000Y-24892000D01*
D38*
X55628800Y-24528800D02*
X55628800Y-26040000D01*
D37*
X50292000Y-66675000D02*
X48733000Y-66675000D01*
D38*
X56763500Y-85902800D02*
X56763500Y-86680000D01*
X50128800Y-24526000D02*
X50128800Y-26040000D01*
D41*
X43688000Y-23114000D02*
X44641000Y-23114000D01*
D38*
X55626000Y-24526000D02*
X55628800Y-24528800D01*
D37*
X52324000Y-77978000D02*
X51371000Y-77978000D01*
%TO.N,/FB*%
X49302000Y-57150000D02*
X49302000Y-58878000D01*
X49302000Y-57150000D02*
X49561000Y-56891000D01*
X51397000Y-56891000D02*
X51402000Y-56896000D01*
X49561000Y-56891000D02*
X51397000Y-56891000D01*
X49352000Y-58928000D02*
X51004000Y-58928000D01*
X49302000Y-58878000D02*
X49352000Y-58928000D01*
D39*
%TO.N,/OUT_LED1*%
X44787428Y-45082724D02*
X44787428Y-45910628D01*
X44787428Y-45082724D02*
X44787428Y-44132724D01*
X44787428Y-45910628D02*
X46655800Y-47779000D01*
X44787428Y-44132724D02*
X47078499Y-44132724D01*
D38*
%TO.N,/OUT_LED2*%
X45617500Y-77197000D02*
X46241999Y-77197000D01*
X46736000Y-76702999D02*
X46736000Y-76581000D01*
X46736000Y-76740999D02*
X46736000Y-76581000D01*
X46241999Y-77197000D02*
X46736000Y-76702999D01*
X47892500Y-77197000D02*
X47230001Y-77197000D01*
X46736000Y-73486200D02*
X46655800Y-73406000D01*
X46736000Y-76581000D02*
X46736000Y-73486200D01*
X47230001Y-77197000D02*
X46736000Y-76702999D01*
X47892500Y-77197000D02*
X45617500Y-77197000D01*
X45617500Y-78147000D02*
X45617500Y-77197000D01*
%TO.N,/LX*%
X56885986Y-54991000D02*
X57038386Y-55143400D01*
X53776500Y-54991000D02*
X56885986Y-54991000D01*
X57038386Y-55143400D02*
X57112200Y-55143400D01*
D37*
%TO.N,/SCK*%
X44742507Y-62914507D02*
X44742507Y-62482726D01*
X45328000Y-63500000D02*
X44742507Y-62914507D01*
X51181000Y-64135000D02*
X53883000Y-64135000D01*
X47128000Y-63500000D02*
X50546000Y-63500000D01*
X50546000Y-63500000D02*
X51181000Y-64135000D01*
%TO.N,/LED2_EN*%
X45617500Y-76247000D02*
X45165000Y-76247000D01*
X47128000Y-64516000D02*
X48352000Y-64516000D01*
X44654000Y-78819567D02*
X45730633Y-79896200D01*
X45165000Y-76247000D02*
X44654000Y-76758000D01*
X47133000Y-66807000D02*
X47133000Y-66945000D01*
X45617500Y-76034500D02*
X45405000Y-76247000D01*
X45730633Y-79896200D02*
X46888400Y-79896200D01*
X45836000Y-75454000D02*
X45617500Y-75672500D01*
X48156800Y-67968800D02*
X48156800Y-74539316D01*
X48352000Y-64516000D02*
X48733000Y-64135000D01*
X45836000Y-75057000D02*
X45836000Y-75454000D01*
X48156800Y-74539316D02*
X47639116Y-75057000D01*
X44654000Y-76758000D02*
X44654000Y-78819567D01*
X45617500Y-75672500D02*
X45617500Y-76034500D01*
X47133000Y-66945000D02*
X48156800Y-67968800D01*
X47128000Y-66802000D02*
X47133000Y-66807000D01*
%TO.N,/LED1_EN*%
X48733000Y-65405000D02*
X50397762Y-65405000D01*
X46879000Y-54365400D02*
X46879000Y-60595000D01*
X44124929Y-43182724D02*
X44787428Y-43182724D01*
X50397762Y-65405000D02*
X50428762Y-65374000D01*
X47610000Y-53230792D02*
X47610000Y-53634400D01*
X45085000Y-42885152D02*
X44787428Y-43182724D01*
X45085000Y-41455000D02*
X45085000Y-42885152D01*
X46925103Y-51370103D02*
X43789600Y-48234600D01*
X47610000Y-53634400D02*
X46879000Y-54365400D01*
X46879000Y-60595000D02*
X48499000Y-62215000D01*
X43789600Y-43518053D02*
X44124929Y-43182724D01*
X43789600Y-48234600D02*
X43789600Y-43518053D01*
X48499000Y-62215000D02*
X50292000Y-62215000D01*
%TO.N,/MOSI*%
X48353620Y-61087000D02*
X47640000Y-60373380D01*
X55118000Y-63754000D02*
X55118000Y-66177500D01*
X45328000Y-59436000D02*
X44717224Y-58825224D01*
X54898000Y-63534000D02*
X55118000Y-63754000D01*
X44717224Y-58825224D02*
X44717224Y-58412074D01*
X50292000Y-61087000D02*
X48353620Y-61087000D01*
X52115428Y-62753196D02*
X52896232Y-63534000D01*
X52896232Y-63534000D02*
X54898000Y-63534000D01*
X54620500Y-66675000D02*
X53883000Y-66675000D01*
X55118000Y-66177500D02*
X54620500Y-66675000D01*
%TO.N,/Rext1*%
X47062428Y-43182724D02*
X47244000Y-43001152D01*
X46863000Y-42983296D02*
X47062428Y-43182724D01*
X47274928Y-43182724D02*
X47274928Y-42970224D01*
X46863000Y-41455000D02*
X46863000Y-42983296D01*
%TO.N,/Rext2*%
X49721000Y-77407000D02*
X49721000Y-77978000D01*
X48561000Y-76247000D02*
X49721000Y-77407000D01*
X48105000Y-76247000D02*
X48561000Y-76247000D01*
D40*
%TO.N,+3V3*%
X59355800Y-71882000D02*
X60205800Y-71032000D01*
D37*
X47128000Y-65657603D02*
X47494397Y-66024000D01*
D41*
X53883000Y-62865000D02*
X55245000Y-62865000D01*
D37*
X44796769Y-64492769D02*
X43187568Y-64492769D01*
D40*
X59355800Y-50514586D02*
X59355800Y-46393214D01*
D37*
X51641346Y-66024000D02*
X52893346Y-67276000D01*
X54798968Y-67276000D02*
X55519000Y-66555968D01*
D40*
X57038386Y-52832000D02*
X59355800Y-50514586D01*
D41*
X55626000Y-62865000D02*
X55753000Y-62865000D01*
X55245000Y-62865000D02*
X55626000Y-62865000D01*
D37*
X54382000Y-52565430D02*
X53988430Y-52565430D01*
D41*
X59436000Y-62865000D02*
X60205800Y-62865000D01*
D37*
X47494397Y-66024000D02*
X51641346Y-66024000D01*
X55519000Y-63119000D02*
X55519000Y-63099000D01*
X47752000Y-57150000D02*
X47752000Y-58878000D01*
X48260000Y-56399790D02*
X47752000Y-56907790D01*
X55519000Y-66555968D02*
X55519000Y-63119000D01*
D40*
X57666125Y-52832000D02*
X57038386Y-52832000D01*
D37*
X55519000Y-63119000D02*
X55519000Y-63012000D01*
X52893346Y-67276000D02*
X54798968Y-67276000D01*
X49276000Y-51308000D02*
X48260000Y-52324000D01*
D41*
X59436000Y-62865000D02*
X59570800Y-62865000D01*
D37*
X48260000Y-52324000D02*
X48260000Y-56399790D01*
X55519000Y-63012000D02*
X55372000Y-62865000D01*
D40*
X60205800Y-62357000D02*
X60205800Y-55371675D01*
D37*
X45328000Y-65024000D02*
X44796769Y-64492769D01*
X53988430Y-52565430D02*
X52731000Y-51308000D01*
X47752000Y-58878000D02*
X47702000Y-58928000D01*
D40*
X60205800Y-63500000D02*
X60205800Y-62357000D01*
D41*
X59570800Y-62865000D02*
X60205800Y-63500000D01*
X59436000Y-62865000D02*
X59697800Y-62865000D01*
X59697800Y-62865000D02*
X60205800Y-62357000D01*
D37*
X52731000Y-51308000D02*
X49276000Y-51308000D01*
X47752000Y-56907790D02*
X47752000Y-57150000D01*
D40*
X60205800Y-55371675D02*
X57666125Y-52832000D01*
D37*
X55499000Y-63119000D02*
X55245000Y-62865000D01*
D41*
X55753000Y-62865000D02*
X59436000Y-62865000D01*
D37*
X55519000Y-63099000D02*
X55753000Y-62865000D01*
X55519000Y-63119000D02*
X55499000Y-63119000D01*
D40*
X54382000Y-52832000D02*
X57038386Y-52832000D01*
X60205800Y-71032000D02*
X60205800Y-63500000D01*
D39*
%TO.N,PACK_SAFE*%
X51397000Y-54991000D02*
X51028600Y-54991000D01*
X55610800Y-39497800D02*
X55610800Y-41120300D01*
X49530000Y-52224000D02*
X49530000Y-52959000D01*
X53405917Y-38855764D02*
X51800800Y-40460881D01*
X51028600Y-54991000D02*
X49530000Y-53492400D01*
X53710800Y-38825589D02*
X53680625Y-38855764D01*
X49530000Y-53492400D02*
X49530000Y-52959000D01*
X49537620Y-52216380D02*
X49530000Y-52224000D01*
X55633920Y-39474680D02*
X55610800Y-39497800D01*
X49022000Y-44831000D02*
X51800800Y-42052200D01*
X51800800Y-42052200D02*
X51800800Y-41120300D01*
X53680625Y-38855764D02*
X53405917Y-38855764D01*
X49022000Y-49273206D02*
X49022000Y-44831000D01*
X49537620Y-51965620D02*
X49537620Y-52216380D01*
D37*
%TO.N,/RESET*%
X47621000Y-62865000D02*
X47128000Y-62372000D01*
X57568200Y-61698000D02*
X58369200Y-60897000D01*
X48733000Y-62865000D02*
X51082970Y-62865000D01*
X51082970Y-62865000D02*
X52249970Y-61698000D01*
X43143297Y-58637297D02*
X43143297Y-56388000D01*
X52249970Y-61698000D02*
X57568200Y-61698000D01*
X45212000Y-60706000D02*
X43143297Y-58637297D01*
X48733000Y-62865000D02*
X47621000Y-62865000D01*
X45212000Y-60981400D02*
X45212000Y-60706000D01*
X45328000Y-61097400D02*
X45212000Y-60981400D01*
D38*
%TO.N,5V*%
X54398800Y-24526000D02*
X54398800Y-26458800D01*
X51308000Y-26543000D02*
X51308000Y-24426800D01*
X50403800Y-33819400D02*
X46270900Y-33819400D01*
X54398800Y-26458800D02*
X55353800Y-27413800D01*
X51308000Y-24526000D02*
X51358800Y-24576800D01*
X46228000Y-29015804D02*
X48206804Y-27037000D01*
X46270900Y-33819400D02*
X46228000Y-33776500D01*
X51308000Y-24426800D02*
X51308000Y-24526000D01*
X46228000Y-33776500D02*
X46228000Y-29015804D01*
X51358800Y-25786000D02*
X51308000Y-25836800D01*
X48206804Y-27037000D02*
X50814000Y-27037000D01*
X46348500Y-33897000D02*
X46228000Y-33776500D01*
X50814000Y-27037000D02*
X51308000Y-26543000D01*
D40*
%TO.N,/DW01A_VCC*%
X46888400Y-86905800D02*
X46888400Y-84899000D01*
X48446478Y-87630000D02*
X47722278Y-86905800D01*
X47722278Y-86905800D02*
X46888400Y-86905800D01*
X49154500Y-87630000D02*
X48446478Y-87630000D01*
D37*
%TO.N,/CC1*%
X53378800Y-26040000D02*
X53378800Y-24168800D01*
X52324000Y-23114000D02*
X46291000Y-23114000D01*
X53378800Y-24168800D02*
X52324000Y-23114000D01*
%TO.N,/CC2*%
X52378800Y-24184800D02*
X51816000Y-23622000D01*
X47561000Y-23622000D02*
X46291000Y-24892000D01*
X52378800Y-26040000D02*
X52378800Y-24184800D01*
X51816000Y-23622000D02*
X47561000Y-23622000D01*
%TO.N,/DSBL*%
X44578000Y-34126609D02*
X44578000Y-33776500D01*
X49900800Y-41120300D02*
X49900800Y-39099300D01*
X49900800Y-39099300D02*
X44578000Y-33776500D01*
%TO.N,/BUCK_EN*%
X56549000Y-39437267D02*
X56549000Y-41004200D01*
X55633920Y-38522187D02*
X56549000Y-39437267D01*
X58369200Y-57341000D02*
X54339500Y-57341000D01*
X59305800Y-55750334D02*
X59305800Y-56404400D01*
X61087000Y-45542200D02*
X61087000Y-53467001D01*
X59305800Y-56404400D02*
X58369200Y-57341000D01*
X51280300Y-39245300D02*
X52628800Y-37896800D01*
X56549000Y-41004200D02*
X61087000Y-45542200D01*
X54339500Y-57341000D02*
X53889500Y-56891000D01*
X61087000Y-53467001D02*
X60330460Y-54223541D01*
X52628800Y-37896800D02*
X53710800Y-37896800D01*
X50850800Y-39245300D02*
X51280300Y-39245300D01*
%TO.N,/Iset*%
X48868400Y-31279400D02*
X48006000Y-30417000D01*
X48006000Y-30417000D02*
X48006000Y-30163000D01*
X50326200Y-31279400D02*
X48868400Y-31279400D01*
X48006000Y-30163000D02*
X48006000Y-30290000D01*
%TO.N,/VM*%
X51642000Y-87630000D02*
X52878800Y-87630000D01*
X52878800Y-86030000D02*
X52878800Y-84899000D01*
%TO.N,/OD*%
X51642000Y-88580000D02*
X54276000Y-88580000D01*
%TO.N,/OC*%
X51642000Y-86680000D02*
X54276000Y-86680000D01*
D40*
%TO.N,/Bat+*%
X43688000Y-81534000D02*
X43688000Y-73507600D01*
D39*
X56997600Y-33439800D02*
X55733400Y-33439800D01*
D40*
X52222400Y-43281600D02*
X53594000Y-43281600D01*
X50038000Y-49530000D02*
X50038000Y-45466000D01*
X46228000Y-54078937D02*
X46471000Y-53835937D01*
X46471000Y-53835937D02*
X46471000Y-53097000D01*
X43688000Y-73507600D02*
X46482000Y-70713600D01*
X54660800Y-42214800D02*
X54660800Y-39245300D01*
X46888400Y-83249000D02*
X45403000Y-83249000D01*
X50038000Y-45466000D02*
X52222400Y-43281600D01*
X46228000Y-67462400D02*
X46228000Y-54078937D01*
D39*
X58051400Y-33629600D02*
X57861600Y-33439800D01*
D40*
X54660800Y-36786000D02*
X55378800Y-36068000D01*
X46482000Y-67716400D02*
X46228000Y-67462400D01*
D39*
X53112800Y-28702000D02*
X52878800Y-28468000D01*
D40*
X53594000Y-43281600D02*
X54660800Y-42214800D01*
X45403000Y-83249000D02*
X43688000Y-81534000D01*
D39*
X57861600Y-33439800D02*
X56997600Y-33439800D01*
D40*
X46482000Y-70713600D02*
X46482000Y-67716400D01*
D39*
X55733400Y-33439800D02*
X55353800Y-33819400D01*
D40*
X54660800Y-39245300D02*
X54660800Y-36786000D01*
X55459000Y-36068000D02*
X55459000Y-33987000D01*
X46471000Y-53097000D02*
X50038000Y-49530000D01*
D38*
%TO.N,/Bat-*%
X50378800Y-84068000D02*
X50292000Y-84154800D01*
X52878800Y-91668000D02*
X52878800Y-89488200D01*
X55626000Y-88009999D02*
X56196001Y-88580000D01*
X49104500Y-88530000D02*
X49154500Y-88580000D01*
X56148000Y-89408000D02*
X56976000Y-88580000D01*
X52878800Y-89488200D02*
X52959000Y-89408000D01*
X50292000Y-88104999D02*
X49816999Y-88580000D01*
X50292000Y-84154800D02*
X50292000Y-88104999D01*
D39*
X55378800Y-84068000D02*
X55557000Y-84246200D01*
X56196001Y-88580000D02*
X56976000Y-88580000D01*
D37*
X58853800Y-88580000D02*
X56976000Y-88580000D01*
D38*
X55626000Y-84315200D02*
X55626000Y-88009999D01*
D37*
X58928000Y-88505800D02*
X58853800Y-88580000D01*
D40*
X47012600Y-88580000D02*
X49154500Y-88580000D01*
D38*
X55557000Y-84246200D02*
X55626000Y-84315200D01*
X52959000Y-89408000D02*
X56148000Y-89408000D01*
X49816999Y-88580000D02*
X49154500Y-88580000D01*
X49154500Y-88580000D02*
X49982500Y-89408000D01*
D40*
X46888400Y-88455800D02*
X47012600Y-88580000D01*
D38*
X49982500Y-89408000D02*
X52959000Y-89408000D01*
D37*
%TO.N,/MISO_BTN*%
X44196000Y-60960000D02*
X43683400Y-60447400D01*
X55880000Y-77724000D02*
X52832000Y-80772000D01*
X50292000Y-64184000D02*
X51513000Y-65405000D01*
X50158000Y-64184000D02*
X50292000Y-64184000D01*
X52566464Y-67837827D02*
X55880000Y-71151363D01*
X55880000Y-71151363D02*
X55880000Y-77724000D01*
X52832000Y-80772000D02*
X50546000Y-80772000D01*
X51513000Y-65405000D02*
X53883000Y-65405000D01*
X53213000Y-65405000D02*
X53883000Y-65405000D01*
X43683400Y-60447400D02*
X43200210Y-60447400D01*
X52578000Y-66040000D02*
X53213000Y-65405000D01*
%TO.N,/BAT_DSBL*%
X59510200Y-86855800D02*
X58928000Y-86855800D01*
X61722000Y-44856400D02*
X61722000Y-84644000D01*
X61722000Y-84644000D02*
X59510200Y-86855800D01*
X57404000Y-40538400D02*
X61722000Y-44856400D01*
X53710800Y-41120300D02*
X53710800Y-40030400D01*
%TD*%
%TA.AperFunction,Conductor*%
%TO.N,GND*%
G36*
X53012995Y-52089685D02*
G01*
X53033637Y-52106319D01*
X53557681Y-52630363D01*
X53591166Y-52691686D01*
X53594000Y-52718044D01*
X53594000Y-54316500D01*
X53574315Y-54383539D01*
X53521511Y-54429294D01*
X53470001Y-54440500D01*
X53345482Y-54440500D01*
X53264519Y-54453323D01*
X53251696Y-54455354D01*
X53138658Y-54512950D01*
X53138657Y-54512951D01*
X53138652Y-54512954D01*
X53048954Y-54602652D01*
X53048951Y-54602657D01*
X52991352Y-54715698D01*
X52976500Y-54809475D01*
X52976500Y-55172517D01*
X52987292Y-55240657D01*
X52991354Y-55266304D01*
X53048950Y-55379342D01*
X53048952Y-55379344D01*
X53048954Y-55379347D01*
X53138652Y-55469045D01*
X53138654Y-55469046D01*
X53138658Y-55469050D01*
X53251694Y-55526645D01*
X53251698Y-55526647D01*
X53345475Y-55541499D01*
X53345481Y-55541500D01*
X54433518Y-55541499D01*
X54527304Y-55526646D01*
X54569757Y-55505014D01*
X54626052Y-55491500D01*
X54889726Y-55491500D01*
X54893383Y-55492573D01*
X54897099Y-55491719D01*
X54926653Y-55502343D01*
X54956765Y-55511185D01*
X54960302Y-55514439D01*
X54962850Y-55515355D01*
X54988099Y-55540010D01*
X55028244Y-55592327D01*
X55041074Y-55609047D01*
X55057259Y-55637081D01*
X55094715Y-55727508D01*
X55103093Y-55758775D01*
X55116939Y-55863939D01*
X55118000Y-55880125D01*
X55118000Y-56133874D01*
X55116939Y-56150060D01*
X55103093Y-56255224D01*
X55094715Y-56286491D01*
X55057259Y-56376918D01*
X55041074Y-56404951D01*
X54981491Y-56482601D01*
X54958602Y-56505490D01*
X54913614Y-56540011D01*
X54848445Y-56565206D01*
X54780000Y-56551168D01*
X54737292Y-56509465D01*
X54735790Y-56510557D01*
X54730054Y-56502663D01*
X54730051Y-56502660D01*
X54730050Y-56502658D01*
X54640342Y-56412950D01*
X54569626Y-56376918D01*
X54527301Y-56355352D01*
X54433524Y-56340500D01*
X53345482Y-56340500D01*
X53264519Y-56353323D01*
X53251696Y-56355354D01*
X53138658Y-56412950D01*
X53138657Y-56412951D01*
X53138652Y-56412954D01*
X53048954Y-56502652D01*
X53048951Y-56502657D01*
X53048950Y-56502658D01*
X53029918Y-56540011D01*
X52991352Y-56615698D01*
X52976500Y-56709475D01*
X52976500Y-57072517D01*
X52981837Y-57106212D01*
X52991354Y-57166304D01*
X53048950Y-57279342D01*
X53048952Y-57279344D01*
X53048954Y-57279347D01*
X53138652Y-57369045D01*
X53138654Y-57369046D01*
X53138658Y-57369050D01*
X53251696Y-57426646D01*
X53251704Y-57426647D01*
X53254313Y-57427495D01*
X53257088Y-57429392D01*
X53260392Y-57431076D01*
X53260174Y-57431502D01*
X53311990Y-57466931D01*
X53339191Y-57531288D01*
X53340000Y-57545428D01*
X53340000Y-59181874D01*
X53338939Y-59198059D01*
X53338939Y-59198060D01*
X53325093Y-59303224D01*
X53316715Y-59334491D01*
X53279259Y-59424918D01*
X53263074Y-59452951D01*
X53203491Y-59530601D01*
X53180601Y-59553491D01*
X53102951Y-59613074D01*
X53074918Y-59629259D01*
X52984491Y-59666715D01*
X52953224Y-59675093D01*
X52859398Y-59687446D01*
X52848058Y-59688939D01*
X52831874Y-59690000D01*
X52591126Y-59690000D01*
X52574941Y-59688939D01*
X52561917Y-59687224D01*
X52469775Y-59675093D01*
X52438508Y-59666715D01*
X52348081Y-59629259D01*
X52320048Y-59613074D01*
X52242398Y-59553491D01*
X52219508Y-59530601D01*
X52159925Y-59452951D01*
X52143740Y-59424918D01*
X52106284Y-59334491D01*
X52097906Y-59303223D01*
X52084061Y-59198059D01*
X52083000Y-59181874D01*
X52083000Y-57559366D01*
X52102685Y-57492327D01*
X52155489Y-57446572D01*
X52187599Y-57436893D01*
X52252304Y-57426646D01*
X52365342Y-57369050D01*
X52455050Y-57279342D01*
X52512646Y-57166304D01*
X52512646Y-57166302D01*
X52512647Y-57166301D01*
X52527499Y-57072524D01*
X52527500Y-57072519D01*
X52527499Y-56709482D01*
X52512646Y-56615696D01*
X52455050Y-56502658D01*
X52455046Y-56502654D01*
X52455045Y-56502652D01*
X52365347Y-56412954D01*
X52365344Y-56412952D01*
X52365342Y-56412950D01*
X52288517Y-56373805D01*
X52252301Y-56355352D01*
X52187601Y-56345105D01*
X52124467Y-56315175D01*
X52087536Y-56255863D01*
X52083000Y-56222632D01*
X52083000Y-55659366D01*
X52102685Y-55592327D01*
X52155489Y-55546572D01*
X52187599Y-55536893D01*
X52252304Y-55526646D01*
X52365342Y-55469050D01*
X52455050Y-55379342D01*
X52512646Y-55266304D01*
X52512646Y-55266302D01*
X52512647Y-55266301D01*
X52527499Y-55172524D01*
X52527500Y-55172519D01*
X52527499Y-54809482D01*
X52512646Y-54715696D01*
X52455050Y-54602658D01*
X52455046Y-54602654D01*
X52455045Y-54602652D01*
X52365347Y-54512954D01*
X52365344Y-54512952D01*
X52365342Y-54512950D01*
X52288517Y-54473805D01*
X52252301Y-54455352D01*
X52187601Y-54445105D01*
X52124467Y-54415175D01*
X52095246Y-54368246D01*
X52083000Y-54356000D01*
X51583000Y-54356000D01*
X51223487Y-54356000D01*
X51156448Y-54336315D01*
X51135806Y-54319681D01*
X50588296Y-53772171D01*
X50554811Y-53710848D01*
X50551978Y-53684887D01*
X50548443Y-52579745D01*
X50549456Y-52563524D01*
X50563020Y-52458105D01*
X50571331Y-52426751D01*
X50608646Y-52336050D01*
X50624805Y-52307925D01*
X50684361Y-52230010D01*
X50707258Y-52207039D01*
X50784992Y-52147225D01*
X50813055Y-52130983D01*
X50903643Y-52093376D01*
X50934959Y-52084967D01*
X51022919Y-52073363D01*
X51040342Y-52071065D01*
X51056559Y-52070000D01*
X52945956Y-52070000D01*
X53012995Y-52089685D01*
G37*
%TD.AperFunction*%
%TD*%
M02*
