%TF.GenerationSoftware,KiCad,Pcbnew,9.0.3*%
%TF.CreationDate,2025-10-01T23:26:51-04:00*%
%TF.ProjectId,Photon,50686f74-6f6e-42e6-9b69-6361645f7063,1.3*%
%TF.SameCoordinates,Original*%
%TF.FileFunction,Legend,Bot*%
%TF.FilePolarity,Positive*%
%FSLAX46Y46*%
G04 Gerber Fmt 4.6, Leading zero omitted, Abs format (unit mm)*
G04 Created by KiCad (PCBNEW 9.0.3) date 2025-10-01 23:26:51*
%MOMM*%
%LPD*%
G01*
G04 APERTURE LIST*
G04 Aperture macros list*
%AMRoundRect*
0 Rectangle with rounded corners*
0 $1 Rounding radius*
0 $2 $3 $4 $5 $6 $7 $8 $9 X,Y pos of 4 corners*
0 Add a 4 corners polygon primitive as box body*
4,1,4,$2,$3,$4,$5,$6,$7,$8,$9,$2,$3,0*
0 Add four circle primitives for the rounded corners*
1,1,$1+$1,$2,$3*
1,1,$1+$1,$4,$5*
1,1,$1+$1,$6,$7*
1,1,$1+$1,$8,$9*
0 Add four rect primitives between the rounded corners*
20,1,$1+$1,$2,$3,$4,$5,0*
20,1,$1+$1,$4,$5,$6,$7,0*
20,1,$1+$1,$6,$7,$8,$9,0*
20,1,$1+$1,$8,$9,$2,$3,0*%
G04 Aperture macros list end*
%ADD10C,0.000000*%
%ADD11C,1.000000*%
%ADD12O,1.000000X1.700000*%
%ADD13RoundRect,0.735000X-2.940000X3.150000X-2.940000X-3.150000X2.940000X-3.150000X2.940000X3.150000X0*%
G04 APERTURE END LIST*
D10*
%TO.C,G\u002A\u002A\u002A*%
G36*
X40463239Y-46815276D02*
G01*
X40717295Y-46844611D01*
X41048258Y-46891032D01*
X41334997Y-46933111D01*
X41669272Y-46981539D01*
X41942677Y-47019880D01*
X42170980Y-47049980D01*
X42369949Y-47073684D01*
X42555350Y-47092838D01*
X42742954Y-47109287D01*
X42948526Y-47124877D01*
X43187835Y-47141453D01*
X43371401Y-47154204D01*
X43819063Y-47187744D01*
X44281995Y-47225470D01*
X44747192Y-47266111D01*
X45201652Y-47308397D01*
X45632368Y-47351057D01*
X46026337Y-47392820D01*
X46370553Y-47432416D01*
X46652013Y-47468575D01*
X46857712Y-47500025D01*
X46931280Y-47513197D01*
X47304471Y-47586984D01*
X47697759Y-47674691D01*
X48089539Y-47770823D01*
X48458206Y-47869889D01*
X48782154Y-47966394D01*
X49039778Y-48054846D01*
X49189490Y-48113380D01*
X49963507Y-48468717D01*
X50703969Y-48897057D01*
X51396732Y-49389490D01*
X52027653Y-49937107D01*
X52046004Y-49954715D01*
X52230737Y-50125069D01*
X52371252Y-50232935D01*
X52481854Y-50281475D01*
X52576846Y-50273849D01*
X52670534Y-50213219D01*
X52777220Y-50102746D01*
X52917292Y-49976751D01*
X53174617Y-49833646D01*
X53502306Y-49726142D01*
X53582792Y-49703330D01*
X53770585Y-49635942D01*
X53946140Y-49557925D01*
X54338045Y-49388333D01*
X54810151Y-49260543D01*
X55307167Y-49208366D01*
X55401418Y-49212037D01*
X55843747Y-49229265D01*
X55880567Y-49233128D01*
X56296081Y-49299218D01*
X56662957Y-49399675D01*
X56968647Y-49530267D01*
X57200600Y-49686764D01*
X57309229Y-49794694D01*
X57500266Y-50036333D01*
X57687713Y-50331496D01*
X57859620Y-50658661D01*
X58004039Y-50996306D01*
X58109019Y-51322909D01*
X58112702Y-51337093D01*
X58155354Y-51486879D01*
X58193896Y-51571565D01*
X58232431Y-51603559D01*
X58242005Y-51611508D01*
X58313356Y-51627065D01*
X58434613Y-51660560D01*
X58562304Y-51727152D01*
X58567392Y-51730748D01*
X58661820Y-51788415D01*
X58725565Y-51812226D01*
X58746822Y-51802131D01*
X58832141Y-51746776D01*
X58971390Y-51649687D01*
X59154134Y-51518308D01*
X59369938Y-51360084D01*
X59608365Y-51182458D01*
X59735952Y-51086863D01*
X60073303Y-50836452D01*
X60355848Y-50631309D01*
X60594745Y-50463945D01*
X60801154Y-50326872D01*
X60986235Y-50212603D01*
X61161146Y-50113649D01*
X61337047Y-50022523D01*
X61635624Y-49885104D01*
X62073596Y-49730338D01*
X62520458Y-49631983D01*
X62672177Y-49610171D01*
X62815712Y-49600640D01*
X62824674Y-49600045D01*
X62955030Y-49612348D01*
X63099978Y-49648101D01*
X63335650Y-49751136D01*
X63526352Y-49920503D01*
X63651747Y-50150206D01*
X63692640Y-50328867D01*
X63711417Y-50566748D01*
X63704248Y-50818760D01*
X63670370Y-51048189D01*
X63665725Y-51067470D01*
X63583389Y-51308749D01*
X63446821Y-51602696D01*
X63262579Y-51938581D01*
X63037217Y-52305678D01*
X62777294Y-52693256D01*
X62489364Y-53090588D01*
X62179986Y-53486945D01*
X62074773Y-53617615D01*
X61845245Y-53911555D01*
X61667187Y-54156478D01*
X61533693Y-54363655D01*
X61437857Y-54544353D01*
X61372773Y-54709842D01*
X61331535Y-54871391D01*
X61302714Y-55028080D01*
X61280899Y-55162172D01*
X61271957Y-55238601D01*
X61274780Y-55250714D01*
X61325631Y-55319270D01*
X61427187Y-55417048D01*
X61562377Y-55527090D01*
X61563359Y-55527832D01*
X61819367Y-55753640D01*
X62085141Y-56045084D01*
X62346356Y-56382253D01*
X62588687Y-56745233D01*
X62797809Y-57114115D01*
X62959398Y-57468985D01*
X63013293Y-57611429D01*
X63105040Y-57882410D01*
X63182760Y-58160406D01*
X63251313Y-58465862D01*
X63315554Y-58819227D01*
X63380342Y-59240948D01*
X63386405Y-59283206D01*
X63459894Y-59837291D01*
X63514164Y-60346405D01*
X63550788Y-60837190D01*
X63571334Y-61336289D01*
X63577375Y-61870342D01*
X63570481Y-62465992D01*
X63540983Y-63249933D01*
X63479657Y-64019202D01*
X63387251Y-64709572D01*
X63263250Y-65323547D01*
X63107142Y-65863632D01*
X62918413Y-66332334D01*
X62696551Y-66732156D01*
X62686840Y-66747170D01*
X62600327Y-66891600D01*
X62539093Y-67012669D01*
X62515856Y-67085509D01*
X62522865Y-67113965D01*
X62569829Y-67212226D01*
X62651240Y-67351572D01*
X62755648Y-67511656D01*
X62794875Y-67570379D01*
X62915797Y-67767541D01*
X63022362Y-67963043D01*
X63095184Y-68122035D01*
X63145253Y-68275674D01*
X63210220Y-68638115D01*
X63215911Y-69015954D01*
X63160431Y-69372827D01*
X63153740Y-69398754D01*
X63116572Y-69559665D01*
X63104434Y-69680637D01*
X63116841Y-69801736D01*
X63153311Y-69963028D01*
X63163622Y-70005311D01*
X63261966Y-70500349D01*
X63339666Y-71075383D01*
X63396303Y-71724334D01*
X63431457Y-72441124D01*
X63444709Y-73219675D01*
X63435639Y-74053908D01*
X63422058Y-74537743D01*
X63398427Y-75116581D01*
X63367682Y-75622821D01*
X63328810Y-76065752D01*
X63280798Y-76454662D01*
X63222634Y-76798841D01*
X63153303Y-77107577D01*
X63071794Y-77390160D01*
X63003897Y-77648147D01*
X62967368Y-78013662D01*
X62957107Y-78200558D01*
X62877396Y-78512957D01*
X62724464Y-78782554D01*
X62504863Y-79001762D01*
X62225146Y-79162995D01*
X61891867Y-79258667D01*
X61733537Y-79279135D01*
X61444377Y-79275108D01*
X61162778Y-79207686D01*
X60860101Y-79071678D01*
X60629277Y-78921436D01*
X60363012Y-78658750D01*
X60137582Y-78319336D01*
X60077175Y-78218635D01*
X59973106Y-78074628D01*
X59878208Y-77972811D01*
X59777348Y-77864615D01*
X59655955Y-77643156D01*
X59576728Y-77368839D01*
X59542420Y-77058454D01*
X59546186Y-76965593D01*
X59670154Y-76965593D01*
X59674372Y-77228104D01*
X59702509Y-77462720D01*
X59754233Y-77640451D01*
X59760334Y-77653816D01*
X59826702Y-77784653D01*
X59871566Y-77836434D01*
X59897180Y-77806902D01*
X59905802Y-77693798D01*
X59899685Y-77494865D01*
X59894910Y-77262169D01*
X59913046Y-77049948D01*
X59959397Y-76851952D01*
X59999508Y-76729647D01*
X60036903Y-76636720D01*
X60058710Y-76608554D01*
X60059633Y-76609949D01*
X60060524Y-76667249D01*
X60047190Y-76785968D01*
X60022215Y-76942464D01*
X60018917Y-76961150D01*
X59991336Y-77171537D01*
X59992527Y-77357220D01*
X60022515Y-77572636D01*
X60070314Y-77772065D01*
X60172302Y-78056040D01*
X60304912Y-78330836D01*
X60454936Y-78570010D01*
X60609166Y-78747116D01*
X60717407Y-78836730D01*
X61010392Y-79013383D01*
X61323739Y-79121602D01*
X61643066Y-79160573D01*
X61953988Y-79129480D01*
X62242124Y-79027509D01*
X62493090Y-78853845D01*
X62571426Y-78774844D01*
X62729412Y-78561771D01*
X62833934Y-78336511D01*
X62871723Y-78124620D01*
X62871366Y-78103883D01*
X62852623Y-78000826D01*
X62812329Y-77967521D01*
X62760122Y-78013563D01*
X62743410Y-78031364D01*
X62662842Y-78088820D01*
X62546200Y-78155797D01*
X62497028Y-78178961D01*
X62255949Y-78244277D01*
X61982775Y-78258671D01*
X61710095Y-78222716D01*
X61470497Y-78136980D01*
X61269126Y-78012238D01*
X61071159Y-77821499D01*
X60909205Y-77568093D01*
X60888439Y-77526587D01*
X60845757Y-77419060D01*
X60820297Y-77299761D01*
X60807881Y-77142999D01*
X60804333Y-76923085D01*
X60805717Y-76801586D01*
X60814281Y-76618765D01*
X60828972Y-76478333D01*
X60847839Y-76403565D01*
X60865406Y-76391980D01*
X60881240Y-76442428D01*
X60890819Y-76570449D01*
X60894842Y-76781673D01*
X60897220Y-76901189D01*
X60925237Y-77200739D01*
X60990356Y-77444141D01*
X61099878Y-77652636D01*
X61261100Y-77847463D01*
X61263732Y-77850159D01*
X61466637Y-78001846D01*
X61711808Y-78100197D01*
X61977636Y-78143899D01*
X62242513Y-78131635D01*
X62484832Y-78062093D01*
X62682986Y-77933957D01*
X62706263Y-77910628D01*
X62830040Y-77728198D01*
X62941305Y-77460564D01*
X63039449Y-77110257D01*
X63123861Y-76679805D01*
X63193929Y-76171737D01*
X63249045Y-75588584D01*
X63269925Y-75309273D01*
X63292228Y-74982984D01*
X63308899Y-74688834D01*
X63320297Y-74409530D01*
X63326784Y-74127779D01*
X63328722Y-73826287D01*
X63326472Y-73487762D01*
X63320395Y-73094911D01*
X63310852Y-72630440D01*
X63301740Y-72291752D01*
X63273005Y-71639474D01*
X63231403Y-71074903D01*
X63176888Y-70597811D01*
X63109419Y-70207971D01*
X63028950Y-69905158D01*
X62935439Y-69689144D01*
X62828840Y-69559702D01*
X62709111Y-69516605D01*
X62667418Y-69519833D01*
X62548661Y-69549128D01*
X62426808Y-69598106D01*
X62331766Y-69653444D01*
X62293439Y-69701816D01*
X62310415Y-69764565D01*
X62353668Y-69863560D01*
X62406198Y-69992299D01*
X62475250Y-70246484D01*
X62533774Y-70565889D01*
X62580692Y-70936645D01*
X62614925Y-71344883D01*
X62635394Y-71776733D01*
X62641021Y-72218328D01*
X62630728Y-72655798D01*
X62603435Y-73075274D01*
X62566148Y-73421765D01*
X62501162Y-73866639D01*
X62419832Y-74303042D01*
X62325903Y-74714882D01*
X62223122Y-75086065D01*
X62115234Y-75400500D01*
X62005984Y-75642092D01*
X61981967Y-75635107D01*
X61897665Y-75598113D01*
X61774482Y-75538978D01*
X61682172Y-75499617D01*
X61411761Y-75429983D01*
X61101388Y-75398395D01*
X60779828Y-75404962D01*
X60475861Y-75449795D01*
X60218263Y-75533005D01*
X60194482Y-75547910D01*
X60110271Y-75642597D01*
X60013392Y-75798499D01*
X59913221Y-75997563D01*
X59819134Y-76221735D01*
X59740508Y-76452962D01*
X59734821Y-76472848D01*
X59690192Y-76704178D01*
X59670154Y-76965593D01*
X59546186Y-76965593D01*
X59555788Y-76728790D01*
X59619586Y-76396636D01*
X59637905Y-76330994D01*
X59690090Y-76160937D01*
X59747922Y-76006193D01*
X59820097Y-75848865D01*
X59915313Y-75671055D01*
X60042266Y-75454869D01*
X60209653Y-75182409D01*
X60243712Y-75126739D01*
X60390904Y-74867035D01*
X60532659Y-74588445D01*
X60665058Y-74301857D01*
X60784178Y-74018157D01*
X60886100Y-73748233D01*
X60966903Y-73502972D01*
X61022665Y-73293262D01*
X61049467Y-73129990D01*
X61043388Y-73024042D01*
X61000506Y-72986307D01*
X60973237Y-72989703D01*
X60866631Y-73024729D01*
X60724998Y-73087716D01*
X60571766Y-73166227D01*
X60430365Y-73247824D01*
X60324224Y-73320068D01*
X60276772Y-73370522D01*
X60276566Y-73371232D01*
X60253971Y-73455907D01*
X60218285Y-73596544D01*
X60177138Y-73763077D01*
X60172704Y-73781048D01*
X60026355Y-74248378D01*
X59813413Y-74754313D01*
X59540470Y-75287717D01*
X59214121Y-75837451D01*
X58840959Y-76392378D01*
X58427579Y-76941362D01*
X57980573Y-77473264D01*
X57782828Y-77685596D01*
X57258110Y-78168669D01*
X56682107Y-78598132D01*
X56071653Y-78962199D01*
X55443584Y-79249087D01*
X55385874Y-79270688D01*
X55200548Y-79325657D01*
X55010033Y-79353653D01*
X54772923Y-79361625D01*
X54724473Y-79361549D01*
X54539104Y-79356135D01*
X54404039Y-79337529D01*
X54287473Y-79299154D01*
X54157597Y-79234437D01*
X54058797Y-79175392D01*
X53917328Y-79073926D01*
X53818551Y-78982489D01*
X53807740Y-78970214D01*
X53708843Y-78890649D01*
X53614843Y-78858111D01*
X53602819Y-78857765D01*
X53457463Y-78816939D01*
X53292146Y-78720591D01*
X53132343Y-78586462D01*
X53003525Y-78432296D01*
X52999490Y-78426164D01*
X52856986Y-78129905D01*
X52791508Y-77806080D01*
X52797505Y-77654410D01*
X52913402Y-77654410D01*
X52934010Y-77955843D01*
X53024273Y-78238417D01*
X53186418Y-78486951D01*
X53214131Y-78517101D01*
X53330284Y-78622142D01*
X53449625Y-78704800D01*
X53550185Y-78751502D01*
X53609998Y-78748674D01*
X53620791Y-78722262D01*
X53637275Y-78625899D01*
X53648656Y-78489615D01*
X53651978Y-78441878D01*
X53721757Y-78111663D01*
X53867046Y-77781636D01*
X54078192Y-77469748D01*
X54345539Y-77193949D01*
X54349108Y-77190879D01*
X54465450Y-77095327D01*
X54552812Y-77031894D01*
X54592522Y-77014170D01*
X54590362Y-77024103D01*
X54546753Y-77085613D01*
X54459976Y-77188694D01*
X54342843Y-77317766D01*
X54181352Y-77503900D01*
X53967158Y-77822011D01*
X53839445Y-78131979D01*
X53797117Y-78436046D01*
X53797268Y-78454996D01*
X53837512Y-78719333D01*
X53947349Y-78929978D01*
X54124437Y-79085475D01*
X54366435Y-79184367D01*
X54671000Y-79225198D01*
X55035793Y-79206512D01*
X55420452Y-79122995D01*
X55842187Y-78962698D01*
X56283636Y-78731874D01*
X56735975Y-78435737D01*
X57190384Y-78079504D01*
X57638041Y-77668386D01*
X57689154Y-77616866D01*
X57927177Y-77358089D01*
X58190820Y-77046165D01*
X58465016Y-76700509D01*
X58734698Y-76340538D01*
X58984800Y-75985666D01*
X59200253Y-75655309D01*
X59209535Y-75640276D01*
X59375862Y-75355219D01*
X59546642Y-75036549D01*
X59711410Y-74705988D01*
X59859703Y-74385257D01*
X59981058Y-74096076D01*
X60065011Y-73860168D01*
X60116652Y-73679413D01*
X60151516Y-73512918D01*
X60150849Y-73417259D01*
X60115264Y-73386657D01*
X60106662Y-73387556D01*
X60029295Y-73412144D01*
X59918784Y-73459859D01*
X59817279Y-73525098D01*
X59741303Y-73623600D01*
X59670427Y-73782364D01*
X59623056Y-73897494D01*
X59460770Y-74221353D01*
X59247003Y-74578746D01*
X58993656Y-74952674D01*
X58712632Y-75326138D01*
X58415832Y-75682140D01*
X58115158Y-76003681D01*
X57948220Y-76163677D01*
X57660945Y-76412257D01*
X57367110Y-76637614D01*
X57082684Y-76828546D01*
X56823642Y-76973849D01*
X56605952Y-77062320D01*
X56400367Y-77104582D01*
X56098222Y-77098301D01*
X55816630Y-77009763D01*
X55562636Y-76842752D01*
X55343285Y-76601055D01*
X55165622Y-76288455D01*
X55132609Y-76195962D01*
X55087955Y-75977304D01*
X55066309Y-75726425D01*
X55066373Y-75722034D01*
X55203467Y-75722034D01*
X55204519Y-75898394D01*
X55219782Y-76050802D01*
X55257011Y-76183256D01*
X55323430Y-76332534D01*
X55431636Y-76515249D01*
X55636034Y-76739143D01*
X55879261Y-76894089D01*
X56149736Y-76973445D01*
X56435879Y-76970570D01*
X56512900Y-76953395D01*
X56736801Y-76865721D01*
X56998306Y-76720782D01*
X57284853Y-76527452D01*
X57583878Y-76294609D01*
X57882820Y-76031130D01*
X58169115Y-75745891D01*
X58405707Y-75478970D01*
X58677260Y-75142377D01*
X58944750Y-74783289D01*
X59187701Y-74429274D01*
X59385636Y-74107904D01*
X59413314Y-74059138D01*
X59508706Y-73885476D01*
X59562351Y-73774376D01*
X59578758Y-73715382D01*
X59562437Y-73698041D01*
X59532715Y-73707567D01*
X59434645Y-73744017D01*
X59285710Y-73801401D01*
X59103738Y-73872923D01*
X59002492Y-73911458D01*
X58754188Y-73996347D01*
X58504957Y-74070790D01*
X58295974Y-74122084D01*
X58214911Y-74138218D01*
X58051884Y-74165977D01*
X57935121Y-74173430D01*
X57835547Y-74160916D01*
X57724087Y-74128775D01*
X57518784Y-74061186D01*
X57275496Y-74259367D01*
X57235449Y-74290978D01*
X56965469Y-74469751D01*
X56631011Y-74645719D01*
X56252467Y-74809006D01*
X55850225Y-74949735D01*
X55728275Y-74987541D01*
X55557285Y-75040667D01*
X55428970Y-75080681D01*
X55364488Y-75100994D01*
X55317446Y-75134116D01*
X55257983Y-75254357D01*
X55219492Y-75452251D01*
X55203467Y-75722034D01*
X55066373Y-75722034D01*
X55069917Y-75478720D01*
X55101021Y-75269580D01*
X55137149Y-75128510D01*
X54890299Y-75192971D01*
X54745388Y-75235462D01*
X54530987Y-75306858D01*
X54293280Y-75392235D01*
X54059342Y-75481524D01*
X53856246Y-75564655D01*
X53711067Y-75631559D01*
X53554462Y-75726111D01*
X53318560Y-75941584D01*
X53154082Y-76204743D01*
X53066853Y-76507669D01*
X53056781Y-76620369D01*
X53070331Y-76720413D01*
X53112822Y-76746515D01*
X53180431Y-76692456D01*
X53343706Y-76535344D01*
X53576252Y-76373056D01*
X53850263Y-76223539D01*
X54142053Y-76099668D01*
X54427938Y-76014319D01*
X54486402Y-76002556D01*
X54559925Y-75997304D01*
X54558638Y-76016094D01*
X54487922Y-76052697D01*
X54353159Y-76100882D01*
X54281144Y-76125409D01*
X54005678Y-76245186D01*
X53720984Y-76402461D01*
X53466997Y-76575829D01*
X53247213Y-76788756D01*
X53072232Y-77055686D01*
X52960218Y-77349298D01*
X52913402Y-77654410D01*
X52797505Y-77654410D01*
X52804643Y-77473903D01*
X52897975Y-77152591D01*
X52930631Y-77068273D01*
X52956279Y-76925775D01*
X52938584Y-76759769D01*
X52935895Y-76744920D01*
X52931716Y-76469336D01*
X53008887Y-76198058D01*
X53160534Y-75942833D01*
X53379780Y-75715410D01*
X53659751Y-75527535D01*
X53858394Y-75431759D01*
X54187196Y-75299402D01*
X54579266Y-75164751D01*
X55020410Y-75032965D01*
X55367607Y-74931645D01*
X55880794Y-74763093D01*
X56331321Y-74590427D01*
X56712683Y-74416449D01*
X57018373Y-74243964D01*
X57241886Y-74075774D01*
X57407443Y-73924129D01*
X57269844Y-73666514D01*
X57211888Y-73563630D01*
X57141400Y-73465230D01*
X57053624Y-73382578D01*
X56927902Y-73296955D01*
X56743577Y-73189643D01*
X56589554Y-73097461D01*
X56195439Y-72800247D01*
X55877734Y-72457653D01*
X55636578Y-72069818D01*
X55572109Y-71936346D01*
X55513522Y-71794618D01*
X55481441Y-71667608D01*
X55467978Y-71520768D01*
X55465368Y-71328748D01*
X55552362Y-71328748D01*
X55591275Y-71602520D01*
X55707030Y-71886888D01*
X55901396Y-72195621D01*
X55969036Y-72286662D01*
X56227338Y-72587432D01*
X56494593Y-72831459D01*
X56755261Y-73004029D01*
X56977677Y-73120388D01*
X56990607Y-72709204D01*
X56991868Y-72662747D01*
X56991826Y-72649699D01*
X57196777Y-72649699D01*
X57211214Y-72918493D01*
X57247010Y-73141999D01*
X57249130Y-73150568D01*
X57340688Y-73405431D01*
X57473759Y-73630960D01*
X57633942Y-73807284D01*
X57806836Y-73914529D01*
X57820705Y-73919377D01*
X57993437Y-73941106D01*
X58229891Y-73919814D01*
X58518897Y-73858341D01*
X58849282Y-73759528D01*
X59209876Y-73626215D01*
X59562437Y-73473008D01*
X59589508Y-73461244D01*
X59987149Y-73276503D01*
X60115264Y-73217829D01*
X60344074Y-73113039D01*
X60639410Y-72981268D01*
X60882661Y-72877429D01*
X61083333Y-72797759D01*
X61250931Y-72738496D01*
X61394958Y-72695877D01*
X61524921Y-72666141D01*
X61650324Y-72645525D01*
X61658019Y-72644479D01*
X61778364Y-72633770D01*
X61834661Y-72648068D01*
X61848606Y-72692515D01*
X61841480Y-72730803D01*
X61793001Y-72782872D01*
X61745414Y-72796820D01*
X61630460Y-72830647D01*
X61484444Y-72873694D01*
X61231491Y-72948326D01*
X61160119Y-73267579D01*
X61104602Y-73496991D01*
X60968421Y-73960529D01*
X60806768Y-74408424D01*
X60628890Y-74816243D01*
X60444033Y-75159555D01*
X60391719Y-75246602D01*
X60357792Y-75314998D01*
X60367338Y-75335520D01*
X60417834Y-75324002D01*
X60441488Y-75316822D01*
X60677136Y-75268241D01*
X60953438Y-75242293D01*
X61228918Y-75243116D01*
X61300320Y-75249117D01*
X61615972Y-75319423D01*
X61943029Y-75465803D01*
X61949260Y-75469012D01*
X61960091Y-75468254D01*
X61972695Y-75449112D01*
X61990537Y-75400306D01*
X62017084Y-75310559D01*
X62055800Y-75168590D01*
X62110152Y-74963122D01*
X62183605Y-74682876D01*
X62192684Y-74647616D01*
X62258282Y-74363404D01*
X62324084Y-74034184D01*
X62382901Y-73697990D01*
X62427538Y-73392859D01*
X62453466Y-73157523D01*
X62483495Y-72768386D01*
X62502855Y-72353842D01*
X62511191Y-71936590D01*
X62508150Y-71539331D01*
X62493377Y-71184764D01*
X62466518Y-70895589D01*
X62412556Y-70525397D01*
X62357095Y-70222269D01*
X62302658Y-70004108D01*
X62249580Y-69872239D01*
X62198192Y-69827988D01*
X62163557Y-69836813D01*
X62060854Y-69892190D01*
X61923339Y-69986506D01*
X61770610Y-70105863D01*
X61622264Y-70236367D01*
X61521850Y-70330859D01*
X61180142Y-70651445D01*
X60892533Y-70919005D01*
X60651019Y-71140294D01*
X60447595Y-71322070D01*
X60274256Y-71471087D01*
X60122998Y-71594103D01*
X59985817Y-71697874D01*
X59854707Y-71789157D01*
X59721665Y-71874707D01*
X59578685Y-71961282D01*
X59235953Y-72137731D01*
X58834014Y-72271861D01*
X58425971Y-72327355D01*
X58360690Y-72329218D01*
X58187176Y-72320815D01*
X58095777Y-72293757D01*
X58084244Y-72253936D01*
X58150327Y-72207245D01*
X58291777Y-72159576D01*
X58506345Y-72116821D01*
X58700512Y-72087092D01*
X58680029Y-71840099D01*
X58679685Y-71825932D01*
X58792385Y-71825932D01*
X58803926Y-71974255D01*
X58815462Y-72018842D01*
X58854505Y-72076691D01*
X58927744Y-72073143D01*
X58995197Y-72051031D01*
X59200841Y-71959984D01*
X59444528Y-71826789D01*
X59705690Y-71663202D01*
X59963757Y-71480981D01*
X60098016Y-71376496D01*
X60234697Y-71261126D01*
X60329255Y-71170432D01*
X60366607Y-71118006D01*
X60366788Y-71116067D01*
X60349390Y-71042271D01*
X60299188Y-70918076D01*
X60226539Y-70769270D01*
X60156337Y-70617323D01*
X60075690Y-70396219D01*
X60022665Y-70194844D01*
X59992796Y-70048196D01*
X59967714Y-69967408D01*
X59942436Y-69949295D01*
X59910132Y-69980872D01*
X59853299Y-70040452D01*
X59804252Y-70037612D01*
X59774309Y-69953443D01*
X59762846Y-69785959D01*
X59764264Y-69729884D01*
X59851964Y-69729884D01*
X59856461Y-69794604D01*
X59875073Y-69801508D01*
X59910542Y-69763882D01*
X59955022Y-69700511D01*
X59980304Y-69641553D01*
X59981539Y-69633146D01*
X60024788Y-69605571D01*
X60038702Y-69615897D01*
X60060626Y-69689447D01*
X60069271Y-69810446D01*
X60074456Y-69922439D01*
X60112607Y-70166416D01*
X60180729Y-70417681D01*
X60270340Y-70652193D01*
X60372956Y-70845909D01*
X60480095Y-70974789D01*
X60491761Y-70981080D01*
X60537173Y-70974787D01*
X60611658Y-70931167D01*
X60723691Y-70843841D01*
X60881748Y-70706430D01*
X61094306Y-70512557D01*
X61210740Y-70405677D01*
X61415273Y-70221067D01*
X61606850Y-70051766D01*
X61768179Y-69912979D01*
X61881968Y-69819912D01*
X61989975Y-69732876D01*
X62070626Y-69650051D01*
X62106849Y-69573092D01*
X62115071Y-69477898D01*
X62106590Y-69398811D01*
X62066211Y-69240361D01*
X62003863Y-69078475D01*
X61964723Y-68992963D01*
X61911990Y-68862450D01*
X61900996Y-68791745D01*
X61931759Y-68768073D01*
X62004297Y-68778654D01*
X62082342Y-68786219D01*
X62111924Y-68749914D01*
X62091462Y-68659189D01*
X62021582Y-68504057D01*
X61978525Y-68432883D01*
X61886165Y-68312727D01*
X61773279Y-68186202D01*
X61658480Y-68072591D01*
X61560382Y-67991176D01*
X61497597Y-67961239D01*
X61497060Y-67961325D01*
X61449431Y-67986962D01*
X61339741Y-68053057D01*
X61180035Y-68152140D01*
X60982360Y-68276741D01*
X60758763Y-68419390D01*
X60542026Y-68559674D01*
X60316168Y-68712998D01*
X60149411Y-68841501D01*
X60032064Y-68957235D01*
X59954438Y-69072251D01*
X59906842Y-69198601D01*
X59879588Y-69348336D01*
X59862985Y-69533508D01*
X59858838Y-69594065D01*
X59851964Y-69729884D01*
X59764264Y-69729884D01*
X59769238Y-69533177D01*
X59792716Y-69073177D01*
X59592724Y-69216800D01*
X59525769Y-69268070D01*
X59411589Y-69380616D01*
X59317749Y-69520277D01*
X59232079Y-69707177D01*
X59142410Y-69961438D01*
X59099440Y-70100387D01*
X59017789Y-70402282D01*
X58944509Y-70721168D01*
X58882464Y-71040011D01*
X58834519Y-71341775D01*
X58803537Y-71609427D01*
X58792385Y-71825932D01*
X58679685Y-71825932D01*
X58674183Y-71599472D01*
X58694419Y-71267219D01*
X58739527Y-70903992D01*
X58805191Y-70537528D01*
X58887097Y-70195563D01*
X58980930Y-69905834D01*
X58995307Y-69866605D01*
X59020685Y-69775445D01*
X59017227Y-69739022D01*
X59014381Y-69739368D01*
X58955809Y-69774490D01*
X58850365Y-69858132D01*
X58712630Y-69977346D01*
X58557183Y-70119186D01*
X58398606Y-70270705D01*
X58251478Y-70418957D01*
X58124713Y-70554131D01*
X57925443Y-70777644D01*
X57735618Y-71002595D01*
X57568433Y-71212728D01*
X57437084Y-71391790D01*
X57354768Y-71523523D01*
X57320468Y-71604417D01*
X57265543Y-71812977D01*
X57225548Y-72072803D01*
X57202090Y-72359756D01*
X57196777Y-72649699D01*
X56991826Y-72649699D01*
X56991224Y-72464234D01*
X56979423Y-72334184D01*
X56957244Y-72282590D01*
X56916949Y-72235823D01*
X56922427Y-72124335D01*
X56979679Y-71946923D01*
X57089329Y-71700831D01*
X57279865Y-71349381D01*
X57566552Y-70923579D01*
X57922585Y-70485877D01*
X58355051Y-70026903D01*
X58483292Y-69900671D01*
X58667580Y-69727350D01*
X58857305Y-69560250D01*
X59017227Y-69428901D01*
X59062468Y-69391743D01*
X59293066Y-69214201D01*
X59559099Y-69019997D01*
X59792716Y-68856113D01*
X59870565Y-68801502D01*
X60237465Y-68551090D01*
X60669797Y-68261133D01*
X60899736Y-68106950D01*
X61110903Y-67963711D01*
X61213791Y-67892962D01*
X61676544Y-67892962D01*
X61796863Y-68004170D01*
X61841069Y-68046699D01*
X62044320Y-68296272D01*
X62189571Y-68572483D01*
X62268508Y-68855726D01*
X62272815Y-69126398D01*
X62271590Y-69135363D01*
X62261581Y-69294181D01*
X62291211Y-69379043D01*
X62369661Y-69399312D01*
X62506110Y-69364351D01*
X62675787Y-69324325D01*
X62709111Y-69327741D01*
X62833645Y-69340508D01*
X62845185Y-69343721D01*
X62946265Y-69363021D01*
X63000744Y-69357928D01*
X63007462Y-69336323D01*
X63019035Y-69241095D01*
X63029573Y-69089718D01*
X63037420Y-68902734D01*
X63040371Y-68781119D01*
X63038417Y-68600233D01*
X63022662Y-68460784D01*
X62988546Y-68331749D01*
X62931511Y-68182104D01*
X62927418Y-68172290D01*
X62861126Y-68031221D01*
X62768760Y-67854636D01*
X62663467Y-67665566D01*
X62558396Y-67487040D01*
X62466694Y-67342090D01*
X62401510Y-67253744D01*
X62375198Y-67267763D01*
X62295476Y-67331044D01*
X62176320Y-67434046D01*
X62031559Y-67565128D01*
X61676544Y-67892962D01*
X61213791Y-67892962D01*
X61289346Y-67841008D01*
X61421234Y-67748351D01*
X61492739Y-67695250D01*
X61497597Y-67691271D01*
X61499504Y-67689709D01*
X61595057Y-67612815D01*
X61730779Y-67505029D01*
X61879603Y-67387859D01*
X62055647Y-67243382D01*
X62310079Y-66997745D01*
X62401510Y-66882255D01*
X62513594Y-66740678D01*
X62687609Y-66447253D01*
X62783513Y-66252196D01*
X62924071Y-65914692D01*
X63043098Y-65551530D01*
X63142122Y-65153759D01*
X63222672Y-64712429D01*
X63286278Y-64218592D01*
X63334470Y-63663298D01*
X63368776Y-63037598D01*
X63390725Y-62332542D01*
X63398775Y-61733633D01*
X63393174Y-61118656D01*
X63370324Y-60552978D01*
X63328586Y-60016111D01*
X63266318Y-59487571D01*
X63181879Y-58946870D01*
X63073629Y-58373522D01*
X63073389Y-58372336D01*
X63012984Y-58114503D01*
X62941030Y-57870618D01*
X62863387Y-57655329D01*
X62785918Y-57483279D01*
X62714485Y-57369115D01*
X62654949Y-57327482D01*
X62610978Y-57320140D01*
X62640544Y-57290037D01*
X62652237Y-57280076D01*
X62662146Y-57230865D01*
X62631669Y-57139659D01*
X62556306Y-56990455D01*
X62553897Y-56986009D01*
X62412927Y-56745626D01*
X62255069Y-56508780D01*
X62087806Y-56283219D01*
X61918623Y-56076692D01*
X61755000Y-55896948D01*
X61604422Y-55751734D01*
X61474372Y-55648800D01*
X61372332Y-55595894D01*
X61305785Y-55600764D01*
X61282214Y-55671158D01*
X61278804Y-55792058D01*
X61260929Y-55879042D01*
X61224442Y-55904696D01*
X61196123Y-55892655D01*
X61153450Y-55826850D01*
X61139539Y-55784673D01*
X61103979Y-55682279D01*
X61089277Y-55601502D01*
X61086407Y-55482104D01*
X61087502Y-55450285D01*
X61081545Y-55414251D01*
X61058968Y-55451597D01*
X61014945Y-55568134D01*
X60977287Y-55662810D01*
X60913211Y-55773766D01*
X60856967Y-55808265D01*
X60814026Y-55761053D01*
X60812334Y-55754237D01*
X60816572Y-55672844D01*
X60840769Y-55536232D01*
X60880580Y-55369944D01*
X60887767Y-55342880D01*
X60929928Y-55175804D01*
X60960675Y-55040002D01*
X60973780Y-54962690D01*
X60980382Y-54925954D01*
X61006695Y-54905843D01*
X61011376Y-54906982D01*
X61046151Y-54869977D01*
X61089462Y-54782623D01*
X61129761Y-54675000D01*
X61155499Y-54577186D01*
X61155126Y-54519260D01*
X61153451Y-54503470D01*
X61181355Y-54503470D01*
X61203597Y-54525712D01*
X61225839Y-54503470D01*
X61203597Y-54481228D01*
X61181355Y-54503470D01*
X61153451Y-54503470D01*
X61152624Y-54495668D01*
X61199616Y-54454359D01*
X61203597Y-54452432D01*
X61204120Y-54452179D01*
X61255467Y-54403766D01*
X61327071Y-54314522D01*
X61403857Y-54206581D01*
X61470752Y-54102076D01*
X61512681Y-54023141D01*
X61514569Y-53991911D01*
X61520100Y-53970860D01*
X61570585Y-53910569D01*
X61654666Y-53819230D01*
X61750566Y-53706965D01*
X61821135Y-53615741D01*
X61848606Y-53567482D01*
X61852572Y-53557948D01*
X61899402Y-53499486D01*
X61982056Y-53413627D01*
X62012801Y-53382382D01*
X62086168Y-53295230D01*
X62115506Y-53238986D01*
X62129454Y-53208925D01*
X62193628Y-53130090D01*
X62292300Y-53031221D01*
X62360884Y-52962719D01*
X62428772Y-52877992D01*
X62445366Y-52829252D01*
X62440208Y-52817059D01*
X62467351Y-52790860D01*
X62487883Y-52778386D01*
X62484659Y-52716838D01*
X62475344Y-52669023D01*
X62515856Y-52679652D01*
X62554256Y-52692794D01*
X62547923Y-52644731D01*
X62540152Y-52599631D01*
X62582984Y-52596995D01*
X62631129Y-52590651D01*
X62673700Y-52508982D01*
X62706799Y-52430879D01*
X62764529Y-52372883D01*
X62791579Y-52356624D01*
X62827240Y-52289086D01*
X62850244Y-52224043D01*
X62914286Y-52135920D01*
X62961479Y-52078202D01*
X63052153Y-51949149D01*
X63154348Y-51790131D01*
X63252319Y-51626782D01*
X63330323Y-51484738D01*
X63372616Y-51389634D01*
X63379045Y-51369324D01*
X63417849Y-51257042D01*
X63467372Y-51122734D01*
X63469391Y-51117346D01*
X63509821Y-50959246D01*
X63531053Y-50771599D01*
X63534425Y-50574039D01*
X63521278Y-50386202D01*
X63492949Y-50227722D01*
X63450777Y-50118234D01*
X63396100Y-50077375D01*
X63385497Y-50075797D01*
X63378848Y-50040067D01*
X63361946Y-49996805D01*
X63283783Y-49938415D01*
X63167626Y-49877908D01*
X63037195Y-49827602D01*
X62916206Y-49799814D01*
X62815712Y-49798465D01*
X62648787Y-49813964D01*
X62471373Y-49844332D01*
X62324931Y-49875857D01*
X62201580Y-49902287D01*
X62137748Y-49915804D01*
X62052519Y-49937781D01*
X61913177Y-49984665D01*
X61768128Y-50042117D01*
X61639884Y-50100422D01*
X61550961Y-50149865D01*
X61523872Y-50180729D01*
X61531153Y-50196623D01*
X61506876Y-50197321D01*
X61449415Y-50201159D01*
X61336904Y-50243334D01*
X61192214Y-50314259D01*
X61036824Y-50403354D01*
X60892213Y-50500042D01*
X60880003Y-50508885D01*
X60767948Y-50581322D01*
X60678098Y-50626525D01*
X60636494Y-50652018D01*
X60629367Y-50706701D01*
X60639954Y-50729981D01*
X60614807Y-50729637D01*
X60613191Y-50728813D01*
X60553850Y-50742475D01*
X60448569Y-50799972D01*
X60319034Y-50889577D01*
X60207642Y-50974162D01*
X60044620Y-51099751D01*
X59947084Y-51178197D01*
X59910810Y-51212970D01*
X59931573Y-51207535D01*
X59966448Y-51195686D01*
X59961862Y-51227795D01*
X59944707Y-51247346D01*
X59890012Y-51255365D01*
X59869709Y-51253956D01*
X59792270Y-51286388D01*
X59688479Y-51350882D01*
X59584423Y-51428724D01*
X59506190Y-51501199D01*
X59479867Y-51549593D01*
X59481587Y-51559352D01*
X59457625Y-51579242D01*
X59442346Y-51580373D01*
X59366948Y-51614344D01*
X59252715Y-51681869D01*
X59118789Y-51769653D01*
X58984313Y-51864402D01*
X58868431Y-51952820D01*
X58790285Y-52021614D01*
X58769017Y-52057487D01*
X58777972Y-52071149D01*
X58747546Y-52062414D01*
X58719047Y-52058775D01*
X58626671Y-52085930D01*
X58509060Y-52147930D01*
X58324525Y-52264423D01*
X58342167Y-52541497D01*
X58362861Y-52691382D01*
X58421881Y-52906573D01*
X58506288Y-53112926D01*
X58604732Y-53283871D01*
X58705862Y-53392840D01*
X58707617Y-53394064D01*
X58772043Y-53424825D01*
X58838440Y-53409529D01*
X58938584Y-53341112D01*
X58938820Y-53340931D01*
X59042260Y-53238543D01*
X59061552Y-53154588D01*
X59060925Y-53152615D01*
X59051656Y-53107692D01*
X59081600Y-53141520D01*
X59096380Y-53160224D01*
X59143095Y-53178862D01*
X59218963Y-53137530D01*
X59273029Y-53084219D01*
X59279408Y-53035562D01*
X59275072Y-53019411D01*
X59324175Y-53027035D01*
X59368362Y-53035225D01*
X59402021Y-53011881D01*
X59409538Y-52992073D01*
X59468746Y-52968794D01*
X59499441Y-52963775D01*
X59535471Y-52924310D01*
X59550966Y-52898961D01*
X59621812Y-52879827D01*
X59673179Y-52871739D01*
X59733702Y-52832487D01*
X59739894Y-52828471D01*
X59750717Y-52803611D01*
X59720277Y-52808854D01*
X59719670Y-52809229D01*
X59672804Y-52827922D01*
X59682863Y-52799699D01*
X59744185Y-52740703D01*
X59791921Y-52708413D01*
X59786043Y-52735256D01*
X59778823Y-52747851D01*
X59771152Y-52785709D01*
X59820680Y-52773229D01*
X59934586Y-52709148D01*
X59954286Y-52696594D01*
X60024970Y-52636483D01*
X60037105Y-52595588D01*
X60035450Y-52582829D01*
X60089045Y-52595894D01*
X60142640Y-52608540D01*
X60140983Y-52576513D01*
X60133430Y-52546834D01*
X60185892Y-52554434D01*
X60196731Y-52558421D01*
X60242005Y-52559325D01*
X60230050Y-52498320D01*
X60226831Y-52489745D01*
X60215989Y-52441352D01*
X60250026Y-52464916D01*
X60258883Y-52472034D01*
X60329632Y-52486456D01*
X60414276Y-52468962D01*
X60478542Y-52431125D01*
X60488158Y-52384515D01*
X60486693Y-52368392D01*
X60533661Y-52373393D01*
X60571808Y-52378288D01*
X60626098Y-52337779D01*
X60659673Y-52299418D01*
X60747943Y-52268431D01*
X60812684Y-52253620D01*
X60891354Y-52203447D01*
X60921783Y-52176149D01*
X61020026Y-52113139D01*
X61150287Y-52045228D01*
X61232580Y-52001676D01*
X61315367Y-51941553D01*
X61336034Y-51899555D01*
X61328061Y-51882514D01*
X61344861Y-51862670D01*
X61422666Y-51851379D01*
X61537195Y-51794414D01*
X61648431Y-51707843D01*
X61652554Y-51703799D01*
X61693298Y-51656357D01*
X61674920Y-51656866D01*
X61638309Y-51671665D01*
X61645518Y-51639006D01*
X61681711Y-51608045D01*
X61743609Y-51639448D01*
X61758992Y-51651448D01*
X61805185Y-51661093D01*
X61834787Y-51593365D01*
X61837434Y-51583557D01*
X61864815Y-51527377D01*
X61898579Y-51552687D01*
X61927941Y-51588792D01*
X61936891Y-51553822D01*
X61941842Y-51530939D01*
X61982370Y-51523279D01*
X62009778Y-51527417D01*
X62053854Y-51481421D01*
X62073437Y-51447686D01*
X62133066Y-51411876D01*
X62153803Y-51406652D01*
X62235708Y-51359839D01*
X62339603Y-51280234D01*
X62474096Y-51179640D01*
X62565115Y-51140271D01*
X62604172Y-51158547D01*
X62589027Y-51225530D01*
X62517436Y-51332278D01*
X62387158Y-51469852D01*
X62385999Y-51470937D01*
X62280864Y-51576959D01*
X62213378Y-51659963D01*
X62198103Y-51702063D01*
X62205333Y-51711229D01*
X62182231Y-51716003D01*
X62136680Y-51723894D01*
X62045255Y-51772194D01*
X61937075Y-51846533D01*
X61835508Y-51929136D01*
X61763920Y-52002232D01*
X61745680Y-52048045D01*
X61753035Y-52066603D01*
X61721725Y-52060945D01*
X61708586Y-52056653D01*
X61629776Y-52073817D01*
X61526815Y-52131918D01*
X61520254Y-52136571D01*
X61404044Y-52210612D01*
X61243453Y-52303563D01*
X61071164Y-52396449D01*
X61031625Y-52417384D01*
X60894889Y-52498353D01*
X60801912Y-52567268D01*
X60770986Y-52611052D01*
X60772164Y-52631002D01*
X60740957Y-52637910D01*
X60735722Y-52635171D01*
X60665946Y-52634870D01*
X60580681Y-52667039D01*
X60514039Y-52714420D01*
X60500131Y-52759755D01*
X60507462Y-52777835D01*
X60477414Y-52773435D01*
X60420275Y-52764474D01*
X60302852Y-52815709D01*
X60144365Y-52939406D01*
X59947557Y-53133329D01*
X59715170Y-53395241D01*
X59660746Y-53458532D01*
X59546450Y-53588207D01*
X59426028Y-53721998D01*
X59347300Y-53812270D01*
X59302455Y-53872780D01*
X59308806Y-53881938D01*
X59345005Y-53865973D01*
X59339543Y-53896071D01*
X59324752Y-53914130D01*
X59251244Y-53947428D01*
X59242110Y-53948712D01*
X59172803Y-53998737D01*
X59081465Y-54108122D01*
X58980605Y-54258514D01*
X58882736Y-54431557D01*
X58800369Y-54608898D01*
X58782365Y-54654239D01*
X58686824Y-54967316D01*
X58663614Y-55238512D01*
X58714978Y-55479558D01*
X58843154Y-55702186D01*
X59050384Y-55918129D01*
X59061930Y-55928094D01*
X59266105Y-56075082D01*
X59506540Y-56207117D01*
X59750231Y-56308161D01*
X59964175Y-56362177D01*
X59976740Y-56364358D01*
X60054261Y-56400029D01*
X60106465Y-56454965D01*
X60117755Y-56505373D01*
X60072533Y-56527463D01*
X60052144Y-56529262D01*
X60028248Y-56556125D01*
X60057990Y-56620706D01*
X60145708Y-56730077D01*
X60295739Y-56891308D01*
X60378394Y-56978636D01*
X60737415Y-57403601D01*
X61015079Y-57817480D01*
X61055902Y-57890834D01*
X61211580Y-58221272D01*
X61357265Y-58605246D01*
X61484004Y-59014616D01*
X61582845Y-59421244D01*
X61644837Y-59796990D01*
X61651117Y-59850985D01*
X61674378Y-60047673D01*
X61696253Y-60228784D01*
X61723910Y-60492228D01*
X61754416Y-60925231D01*
X61772536Y-61390088D01*
X61778093Y-61862834D01*
X61770907Y-62319505D01*
X61750799Y-62736134D01*
X61717590Y-63088759D01*
X61686803Y-63304763D01*
X61621029Y-63683125D01*
X61539127Y-64085371D01*
X61446365Y-64489049D01*
X61348010Y-64871705D01*
X61249331Y-65210888D01*
X61155596Y-65484144D01*
X61142703Y-65521347D01*
X61151640Y-65543454D01*
X61217366Y-65508070D01*
X61279709Y-65477213D01*
X61338029Y-65483874D01*
X61342582Y-65554026D01*
X61290613Y-65681155D01*
X61274751Y-65708540D01*
X61173526Y-65844830D01*
X61014881Y-66025201D01*
X60808502Y-66240726D01*
X60564075Y-66482481D01*
X60291285Y-66741539D01*
X59999817Y-67008976D01*
X59699358Y-67275864D01*
X59399593Y-67533279D01*
X59110208Y-67772296D01*
X58840889Y-67983987D01*
X58601320Y-68159428D01*
X58210854Y-68435841D01*
X57656616Y-68845248D01*
X57162847Y-69232029D01*
X56732743Y-69593345D01*
X56369496Y-69926356D01*
X56076303Y-70228222D01*
X55856357Y-70496104D01*
X55712852Y-70727162D01*
X55697992Y-70757911D01*
X55588524Y-71051802D01*
X55552362Y-71328748D01*
X55465368Y-71328748D01*
X55465243Y-71319553D01*
X55465852Y-71211373D01*
X55473466Y-71037472D01*
X55495260Y-70903683D01*
X55538012Y-70777135D01*
X55608504Y-70624957D01*
X55697660Y-70461873D01*
X55872432Y-70206640D01*
X56098788Y-69939164D01*
X56382327Y-69653942D01*
X56728650Y-69345471D01*
X57143360Y-69008248D01*
X57632057Y-68636770D01*
X57768248Y-68529894D01*
X57858339Y-68434172D01*
X57919592Y-68321446D01*
X57957426Y-68211674D01*
X58126746Y-68211674D01*
X58146303Y-68204940D01*
X58225411Y-68158206D01*
X58349965Y-68076642D01*
X58503898Y-67970522D01*
X58607355Y-67896721D01*
X58740922Y-67798052D01*
X58832336Y-67726104D01*
X58866066Y-67692787D01*
X58866054Y-67692552D01*
X58832828Y-67653138D01*
X58755111Y-67590243D01*
X58703630Y-67542928D01*
X58607986Y-67425846D01*
X58516917Y-67286031D01*
X58479665Y-67222012D01*
X58414375Y-67127227D01*
X58371935Y-67113019D01*
X58341752Y-67182034D01*
X58313232Y-67336920D01*
X58285850Y-67482667D01*
X58244102Y-67673318D01*
X58197092Y-67867213D01*
X58188332Y-67901744D01*
X58152186Y-68054362D01*
X58130162Y-68164993D01*
X58126746Y-68211674D01*
X57957426Y-68211674D01*
X57975627Y-68158865D01*
X58078390Y-67797265D01*
X58154417Y-67446275D01*
X58198433Y-67105228D01*
X58212366Y-66750243D01*
X58198144Y-66357438D01*
X58157694Y-65902932D01*
X58096914Y-65336369D01*
X57959888Y-65315335D01*
X57855434Y-65301766D01*
X57691568Y-65283794D01*
X57511478Y-65266396D01*
X57209118Y-65229686D01*
X56898563Y-65175037D01*
X56613897Y-65109072D01*
X56386652Y-65038190D01*
X56195977Y-64965977D01*
X55986302Y-65198966D01*
X55897380Y-65293748D01*
X55782549Y-65391689D01*
X55659021Y-65454997D01*
X55490281Y-65506298D01*
X55203935Y-65580640D01*
X55016949Y-66075204D01*
X54857493Y-66459459D01*
X54695926Y-66768913D01*
X54523949Y-67017428D01*
X54333250Y-67218913D01*
X54187793Y-67334686D01*
X53951501Y-67475315D01*
X53713280Y-67569056D01*
X53500267Y-67603386D01*
X53314029Y-67572127D01*
X53163561Y-67481627D01*
X53069174Y-67347628D01*
X53044675Y-67202944D01*
X53149165Y-67202944D01*
X53154525Y-67282342D01*
X53192566Y-67359261D01*
X53243035Y-67418867D01*
X53383870Y-67492941D01*
X53563270Y-67501205D01*
X53769567Y-67445991D01*
X53991092Y-67329636D01*
X54216179Y-67154473D01*
X54376358Y-66994869D01*
X54565163Y-66756054D01*
X54730220Y-66474774D01*
X54886636Y-66127898D01*
X54913392Y-66061225D01*
X54981864Y-65884017D01*
X55035710Y-65735388D01*
X55065103Y-65642097D01*
X55066604Y-65635928D01*
X55075915Y-65573298D01*
X55052810Y-65537213D01*
X54978578Y-65515969D01*
X54834504Y-65497863D01*
X54723113Y-65484278D01*
X54578228Y-65462710D01*
X54484453Y-65443870D01*
X54451899Y-65440310D01*
X54402989Y-65461789D01*
X54343437Y-65525766D01*
X54262848Y-65644248D01*
X54150828Y-65829243D01*
X54066995Y-65962753D01*
X53904172Y-66196850D01*
X53722203Y-66436468D01*
X53547054Y-66646463D01*
X53391228Y-66825095D01*
X53261310Y-66986800D01*
X53182691Y-67108590D01*
X53149165Y-67202944D01*
X53044675Y-67202944D01*
X53041800Y-67185967D01*
X53092371Y-67012480D01*
X53122691Y-66966758D01*
X53206166Y-66858772D01*
X53323589Y-66716783D01*
X53459826Y-66559450D01*
X53565077Y-66438461D01*
X53748038Y-66217329D01*
X53908664Y-66009721D01*
X54042851Y-65822671D01*
X54146493Y-65663214D01*
X54215487Y-65538383D01*
X54245728Y-65455211D01*
X54233112Y-65420732D01*
X54173534Y-65441980D01*
X54062889Y-65525989D01*
X53894176Y-65641929D01*
X53623937Y-65761747D01*
X53319806Y-65840585D01*
X53010836Y-65868969D01*
X52948223Y-65868815D01*
X52810136Y-65862696D01*
X52717384Y-65838052D01*
X52637358Y-65781972D01*
X52537448Y-65681544D01*
X52456909Y-65604032D01*
X52347568Y-65518904D01*
X52267812Y-65480180D01*
X52238497Y-65474816D01*
X52061372Y-65394699D01*
X51931231Y-65244688D01*
X51852736Y-65032404D01*
X51833871Y-64805446D01*
X51913452Y-64805446D01*
X51928557Y-65022824D01*
X51953470Y-65094646D01*
X52030270Y-65224284D01*
X52128185Y-65322340D01*
X52231572Y-65381486D01*
X52324788Y-65394393D01*
X52392189Y-65353734D01*
X52406134Y-65299146D01*
X52508840Y-65299146D01*
X52518449Y-65474295D01*
X52595482Y-65612383D01*
X52739500Y-65718440D01*
X52867331Y-65757992D01*
X53075176Y-65768729D01*
X53316129Y-65741660D01*
X53566412Y-65681307D01*
X53802247Y-65592189D01*
X53999858Y-65478826D01*
X54053398Y-65438169D01*
X54097820Y-65383914D01*
X54068233Y-65338591D01*
X53960413Y-65281028D01*
X53883399Y-65247148D01*
X53812586Y-65236590D01*
X53736011Y-65265455D01*
X53620094Y-65339515D01*
X53613138Y-65344164D01*
X53495236Y-65415953D01*
X53409524Y-65456707D01*
X53367799Y-65464138D01*
X53381856Y-65435959D01*
X53463492Y-65369883D01*
X53633914Y-65229530D01*
X53807351Y-65056205D01*
X53956549Y-64878661D01*
X54056740Y-64723870D01*
X54093632Y-64640014D01*
X54103253Y-64606473D01*
X56389846Y-64606473D01*
X56394174Y-64610196D01*
X56473555Y-64643252D01*
X56619744Y-64679917D01*
X56815604Y-64717955D01*
X57043998Y-64755128D01*
X57287791Y-64789199D01*
X57529847Y-64817930D01*
X57753029Y-64839084D01*
X57940201Y-64850424D01*
X58074227Y-64849712D01*
X58137971Y-64834712D01*
X58155712Y-64789126D01*
X58188221Y-64673018D01*
X58229984Y-64505297D01*
X58276218Y-64304309D01*
X58329933Y-64063040D01*
X58375956Y-63853124D01*
X58404263Y-63708952D01*
X58414987Y-63619010D01*
X58408262Y-63571788D01*
X58384223Y-63555771D01*
X58343002Y-63559449D01*
X58284733Y-63571308D01*
X58256536Y-63576224D01*
X58121284Y-63597808D01*
X57939059Y-63625117D01*
X57741080Y-63653436D01*
X57721171Y-63656215D01*
X57540200Y-63683149D01*
X57424861Y-63708551D01*
X57354441Y-63741844D01*
X57308227Y-63792450D01*
X57265505Y-63869794D01*
X57242173Y-63911677D01*
X57135317Y-64055847D01*
X57004836Y-64184510D01*
X56873688Y-64277302D01*
X56764834Y-64313859D01*
X56747390Y-64315850D01*
X56659368Y-64350836D01*
X56556362Y-64415526D01*
X56461613Y-64491785D01*
X56398361Y-64561479D01*
X56389846Y-64606473D01*
X54103253Y-64606473D01*
X54150203Y-64442788D01*
X54170587Y-64252524D01*
X54149627Y-64103663D01*
X54076588Y-63991622D01*
X53948626Y-63923682D01*
X53784103Y-63913563D01*
X53595199Y-63956871D01*
X53394096Y-64049210D01*
X53192975Y-64186183D01*
X53004016Y-64363397D01*
X52839399Y-64576455D01*
X52693657Y-64817553D01*
X52567097Y-65081909D01*
X52508840Y-65299146D01*
X52406134Y-65299146D01*
X52418133Y-65252179D01*
X52444558Y-65107407D01*
X52523008Y-64912009D01*
X52640427Y-64694315D01*
X52783626Y-64474466D01*
X52939413Y-64272601D01*
X53094600Y-64108861D01*
X53235994Y-64003387D01*
X53251129Y-63994647D01*
X53330691Y-63914065D01*
X53350784Y-63824122D01*
X53303656Y-63753448D01*
X53294632Y-63749044D01*
X53208335Y-63731597D01*
X53084965Y-63725741D01*
X52938405Y-63741328D01*
X52695362Y-63822131D01*
X52465049Y-63959677D01*
X52259584Y-64140373D01*
X52091084Y-64350628D01*
X51971667Y-64576850D01*
X51913452Y-64805446D01*
X51833871Y-64805446D01*
X51830547Y-64765462D01*
X51837777Y-64484898D01*
X51049233Y-64110424D01*
X50932193Y-64054887D01*
X50648057Y-63920100D01*
X50431263Y-63816108D01*
X50272428Y-63736902D01*
X50162168Y-63676475D01*
X50091098Y-63628818D01*
X50049834Y-63587925D01*
X50028993Y-63547786D01*
X50019190Y-63502393D01*
X50011041Y-63445740D01*
X49952282Y-63286855D01*
X49839206Y-63144335D01*
X49699498Y-63057387D01*
X49670964Y-63032022D01*
X49669938Y-62964823D01*
X49700737Y-62835827D01*
X49711990Y-62789958D01*
X49738992Y-62600216D01*
X49742235Y-62417116D01*
X49726889Y-62201430D01*
X49940974Y-62170187D01*
X50001489Y-62159301D01*
X50154430Y-62116521D01*
X50268584Y-62064559D01*
X50281656Y-62056208D01*
X50349655Y-62023646D01*
X50431439Y-62011178D01*
X50551557Y-62017600D01*
X50734555Y-62041709D01*
X50802918Y-62052741D01*
X51030712Y-62098351D01*
X51283827Y-62158612D01*
X51519029Y-62223506D01*
X51645101Y-62261047D01*
X51811535Y-62308976D01*
X51933003Y-62341909D01*
X51989469Y-62354276D01*
X52009028Y-62319924D01*
X52002581Y-62232454D01*
X51957263Y-61999742D01*
X51926059Y-61782108D01*
X51924550Y-61716290D01*
X52012567Y-61716290D01*
X52041804Y-61949711D01*
X52130564Y-62198342D01*
X52243345Y-62436741D01*
X52732815Y-62553779D01*
X52798667Y-62569005D01*
X53046298Y-62620756D01*
X53084965Y-62628038D01*
X53340532Y-62676171D01*
X53650021Y-62729518D01*
X53784103Y-62750335D01*
X53943414Y-62775068D01*
X54039678Y-62789233D01*
X54451899Y-62858619D01*
X54607108Y-62884744D01*
X55087940Y-62988531D01*
X55483942Y-63101167D01*
X55796882Y-63223222D01*
X56028527Y-63355267D01*
X56180646Y-63497873D01*
X56255748Y-63613829D01*
X56347218Y-63821418D01*
X56398586Y-64032121D01*
X56399441Y-64211964D01*
X56392945Y-64298882D01*
X56419360Y-64356862D01*
X56475683Y-64352730D01*
X56550413Y-64293103D01*
X56632046Y-64184597D01*
X56709081Y-64033831D01*
X56732819Y-63967538D01*
X56770665Y-63730058D01*
X56753308Y-63478799D01*
X56685111Y-63244477D01*
X56570436Y-63057808D01*
X56567814Y-63054928D01*
X56457835Y-62970033D01*
X56301910Y-62887269D01*
X56138603Y-62824336D01*
X56006476Y-62798936D01*
X55985114Y-62798523D01*
X55941070Y-62787974D01*
X55976802Y-62755468D01*
X56019241Y-62737712D01*
X56121373Y-62736905D01*
X56135911Y-62740331D01*
X56188340Y-62717818D01*
X56198846Y-62640451D01*
X56168689Y-62527440D01*
X56099131Y-62397994D01*
X56094597Y-62391387D01*
X55994560Y-62292241D01*
X56168118Y-62292241D01*
X56221460Y-62399267D01*
X56262449Y-62498479D01*
X56286609Y-62631662D01*
X56286773Y-62638603D01*
X56319722Y-62743601D01*
X56422512Y-62822312D01*
X56437168Y-62830190D01*
X56609624Y-62972125D01*
X56748769Y-63174866D01*
X56845041Y-63415104D01*
X56888877Y-63669531D01*
X56870717Y-63914839D01*
X56858619Y-63971710D01*
X56840977Y-64075415D01*
X56839937Y-64122414D01*
X56867692Y-64121652D01*
X56937715Y-64072562D01*
X57026021Y-63985209D01*
X57113013Y-63879618D01*
X57179094Y-63775818D01*
X57240531Y-63601166D01*
X57258429Y-63345068D01*
X57209014Y-63078042D01*
X57096745Y-62820912D01*
X56926084Y-62594501D01*
X56913243Y-62581370D01*
X56734662Y-62422581D01*
X56999919Y-62422581D01*
X57014923Y-62454581D01*
X57068745Y-62542294D01*
X57148218Y-62661484D01*
X57226420Y-62786789D01*
X57300354Y-62945613D01*
X57362322Y-63139408D01*
X57422346Y-63394987D01*
X57424210Y-63403776D01*
X57443973Y-63471805D01*
X57481218Y-63504538D01*
X57559626Y-63510786D01*
X57702877Y-63499360D01*
X57815837Y-63485080D01*
X58029066Y-63446534D01*
X58227573Y-63399013D01*
X58260073Y-63389809D01*
X58384223Y-63350105D01*
X58396601Y-63346146D01*
X58476778Y-63299997D01*
X58525868Y-63230478D01*
X58569137Y-63116708D01*
X58605458Y-63011265D01*
X58667046Y-62833936D01*
X58741247Y-62621280D01*
X58819016Y-62399267D01*
X58886752Y-62197391D01*
X58945221Y-62005070D01*
X58985060Y-61853036D01*
X59000131Y-61762857D01*
X59001670Y-61638007D01*
X58812616Y-61755496D01*
X58668544Y-61840100D01*
X58396790Y-61980373D01*
X58105027Y-62111601D01*
X57812518Y-62226445D01*
X57538525Y-62317564D01*
X57302313Y-62377618D01*
X57123142Y-62399267D01*
X57038407Y-62405693D01*
X56999919Y-62422581D01*
X56734662Y-62422581D01*
X56686781Y-62380007D01*
X56483454Y-62260835D01*
X56299306Y-62221500D01*
X56247171Y-62222468D01*
X56173978Y-62239497D01*
X56168118Y-62292241D01*
X55994560Y-62292241D01*
X55922610Y-62220932D01*
X55676632Y-62094698D01*
X55360297Y-62013629D01*
X54977240Y-61978668D01*
X54531093Y-61990759D01*
X54358944Y-62000801D01*
X53955485Y-61994965D01*
X53619540Y-61941715D01*
X53344998Y-61840275D01*
X53303988Y-61817270D01*
X53177790Y-61736746D01*
X53017895Y-61626550D01*
X52849108Y-61503524D01*
X52839654Y-61496442D01*
X52634004Y-61353055D01*
X52475161Y-61270617D01*
X52348684Y-61246227D01*
X52240130Y-61276980D01*
X52135057Y-61359974D01*
X52132295Y-61362768D01*
X52042761Y-61515001D01*
X52012567Y-61716290D01*
X51924550Y-61716290D01*
X51922308Y-61618508D01*
X51947629Y-61491691D01*
X52003638Y-61384408D01*
X52091954Y-61279410D01*
X52194897Y-61197074D01*
X52348684Y-61153471D01*
X52358614Y-61150656D01*
X52545208Y-61187855D01*
X52758022Y-61308818D01*
X52841009Y-61368376D01*
X53016093Y-61494098D01*
X53172249Y-61606302D01*
X53202316Y-61627723D01*
X53324052Y-61707708D01*
X53440900Y-61767208D01*
X53568498Y-61809253D01*
X53722482Y-61836875D01*
X53918491Y-61853105D01*
X54172163Y-61860974D01*
X54499133Y-61863514D01*
X54534586Y-61863610D01*
X54829532Y-61865862D01*
X55054221Y-61871547D01*
X55225582Y-61882130D01*
X55360543Y-61899078D01*
X55476031Y-61923859D01*
X55588976Y-61957939D01*
X55726206Y-62007094D01*
X55845972Y-62056830D01*
X55907853Y-62091389D01*
X55941019Y-62106723D01*
X56046175Y-62125169D01*
X56187646Y-62132367D01*
X56299306Y-62143046D01*
X56387166Y-62151449D01*
X56598717Y-62220899D01*
X56667805Y-62254544D01*
X56746812Y-62281252D01*
X56833348Y-62287179D01*
X56953955Y-62273299D01*
X57135175Y-62240586D01*
X57299468Y-62206349D01*
X57703994Y-62093625D01*
X58119657Y-61934883D01*
X58571657Y-61721006D01*
X58577001Y-61718272D01*
X58822605Y-61583324D01*
X58983137Y-61473568D01*
X59001670Y-61452788D01*
X59058492Y-61389076D01*
X59069110Y-61357741D01*
X59083739Y-61212766D01*
X59074619Y-60999014D01*
X59043377Y-60728685D01*
X58991639Y-60413977D01*
X58921034Y-60067091D01*
X58833190Y-59700224D01*
X58659737Y-59026124D01*
X58393707Y-58731365D01*
X58165477Y-58459311D01*
X57902045Y-58067017D01*
X57714390Y-57665492D01*
X57595686Y-57239078D01*
X57539101Y-56772121D01*
X57529495Y-56601956D01*
X57668328Y-56601956D01*
X57682638Y-56789611D01*
X57712690Y-57003432D01*
X57756526Y-57227186D01*
X57812193Y-57444636D01*
X57877734Y-57639547D01*
X57934171Y-57765065D01*
X58015440Y-57922367D01*
X58110234Y-58092072D01*
X58207672Y-58255894D01*
X58296875Y-58395549D01*
X58366966Y-58492750D01*
X58407064Y-58529214D01*
X58410539Y-58529228D01*
X58416877Y-58525096D01*
X58416245Y-58503964D01*
X58405530Y-58452019D01*
X58381619Y-58355447D01*
X58341399Y-58200436D01*
X58281758Y-57973172D01*
X58252395Y-57859014D01*
X58202853Y-57640627D01*
X58175413Y-57457664D01*
X58165887Y-57275938D01*
X58170090Y-57061263D01*
X58174615Y-56959100D01*
X58184758Y-56781695D01*
X58195472Y-56646802D01*
X58205077Y-56577627D01*
X58205197Y-56577196D01*
X58175756Y-56533218D01*
X58086975Y-56476782D01*
X57964674Y-56419914D01*
X57834668Y-56374637D01*
X57722774Y-56352977D01*
X57694751Y-56370089D01*
X57671713Y-56456704D01*
X57668328Y-56601956D01*
X57529495Y-56601956D01*
X57511478Y-56282804D01*
X57282581Y-56284454D01*
X57276236Y-56284501D01*
X57180906Y-56287580D01*
X57103823Y-56301831D01*
X57028493Y-56337332D01*
X56938420Y-56404159D01*
X56817108Y-56512391D01*
X56648061Y-56672105D01*
X56321771Y-56962333D01*
X55842535Y-57319957D01*
X55357521Y-57604197D01*
X54874818Y-57810504D01*
X54402515Y-57934334D01*
X54353601Y-57943036D01*
X54194400Y-57973833D01*
X54078303Y-58000111D01*
X54027658Y-58016945D01*
X54026254Y-58041839D01*
X54064017Y-58106622D01*
X54095824Y-58147360D01*
X54101220Y-58183289D01*
X54055174Y-58220543D01*
X53943897Y-58278898D01*
X53779003Y-58333107D01*
X53541885Y-58351199D01*
X53289228Y-58320293D01*
X53052021Y-58241684D01*
X52948945Y-58195944D01*
X52854793Y-58160005D01*
X52818483Y-58154717D01*
X52837357Y-58198425D01*
X52887625Y-58282002D01*
X52924029Y-58369066D01*
X52897946Y-58412779D01*
X52822112Y-58414978D01*
X52709655Y-58378093D01*
X52573700Y-58304556D01*
X52427375Y-58196795D01*
X52387256Y-58164104D01*
X52304864Y-58105471D01*
X52264428Y-58089966D01*
X52252467Y-58110912D01*
X52212777Y-58201074D01*
X52155457Y-58342383D01*
X52088421Y-58514399D01*
X52019580Y-58696683D01*
X51956849Y-58868793D01*
X51908140Y-59010292D01*
X51873022Y-59108937D01*
X51832920Y-59198651D01*
X51808483Y-59224409D01*
X51806314Y-59212947D01*
X51820767Y-59133872D01*
X51858704Y-58996640D01*
X51914407Y-58819029D01*
X51982161Y-58618815D01*
X52056247Y-58413775D01*
X52130950Y-58221685D01*
X52231588Y-57974321D01*
X52217202Y-57949168D01*
X52369574Y-57949168D01*
X52391723Y-58028078D01*
X52451283Y-58096716D01*
X52547238Y-58170254D01*
X52563401Y-58181631D01*
X52651823Y-58238967D01*
X52700573Y-58262314D01*
X52699289Y-58234273D01*
X52669255Y-58145238D01*
X52615860Y-58016387D01*
X52566903Y-57903273D01*
X52523726Y-57797514D01*
X52507100Y-57748046D01*
X52507105Y-57747894D01*
X52540003Y-57761514D01*
X52624808Y-57817549D01*
X52743376Y-57904022D01*
X52863397Y-57987131D01*
X53030389Y-58085187D01*
X53171560Y-58150121D01*
X53255296Y-58173553D01*
X53401222Y-58199044D01*
X53557244Y-58214361D01*
X53698934Y-58218191D01*
X53801862Y-58209222D01*
X53841600Y-58186139D01*
X53840812Y-58181913D01*
X53800907Y-58130063D01*
X53719271Y-58056676D01*
X53702554Y-58042899D01*
X53635543Y-57974976D01*
X53620829Y-57934738D01*
X53640108Y-57927086D01*
X53732218Y-57907684D01*
X53880534Y-57884001D01*
X54064356Y-57859547D01*
X54395827Y-57807958D01*
X54885778Y-57680625D01*
X55331793Y-57494785D01*
X55509250Y-57399520D01*
X55848196Y-57190303D01*
X56188352Y-56949416D01*
X56508775Y-56693063D01*
X56788524Y-56437450D01*
X57006654Y-56198782D01*
X57010286Y-56194265D01*
X57100148Y-56090375D01*
X57151696Y-56047576D01*
X57158215Y-56071508D01*
X57151402Y-56094943D01*
X57149194Y-56138206D01*
X57183295Y-56161283D01*
X57271258Y-56170716D01*
X57430634Y-56173048D01*
X57508120Y-56174893D01*
X57722774Y-56204462D01*
X57827162Y-56218841D01*
X58136790Y-56327054D01*
X58461206Y-56507382D01*
X58495070Y-56529439D01*
X58632698Y-56625824D01*
X58711377Y-56692725D01*
X58727660Y-56724705D01*
X58678102Y-56716326D01*
X58559258Y-56662148D01*
X58496609Y-56632120D01*
X58399733Y-56602849D01*
X58351768Y-56624348D01*
X58342899Y-56656737D01*
X58331369Y-56766645D01*
X58323793Y-56929800D01*
X58321488Y-57124455D01*
X58323518Y-57221515D01*
X58356141Y-57574377D01*
X58430295Y-57969493D01*
X58548313Y-58417632D01*
X58712529Y-58929564D01*
X58770569Y-59102806D01*
X58957998Y-59744376D01*
X59088119Y-60342835D01*
X59159599Y-60891063D01*
X59171109Y-61381937D01*
X59167587Y-61459037D01*
X59150445Y-61681092D01*
X59119527Y-61871999D01*
X59067381Y-62069241D01*
X58986557Y-62310300D01*
X58832765Y-62750517D01*
X58677253Y-63216491D01*
X58551643Y-63624057D01*
X58453109Y-63985977D01*
X58378826Y-64315015D01*
X58325968Y-64623932D01*
X58291711Y-64925491D01*
X58273228Y-65232455D01*
X58267695Y-65557585D01*
X58267703Y-65588281D01*
X58269188Y-65863512D01*
X58274587Y-66070773D01*
X58285854Y-66229205D01*
X58304943Y-66357950D01*
X58333808Y-66476149D01*
X58371935Y-66595235D01*
X58374403Y-66602944D01*
X58503751Y-66943637D01*
X58639019Y-67225826D01*
X58773152Y-67432871D01*
X58903266Y-67560345D01*
X59026474Y-67603820D01*
X59051147Y-67597217D01*
X59145018Y-67541271D01*
X59285250Y-67436586D01*
X59460876Y-67293203D01*
X59660930Y-67121163D01*
X59874445Y-66930507D01*
X60090454Y-66731276D01*
X60297990Y-66533511D01*
X60486088Y-66347254D01*
X60643779Y-66182545D01*
X60760098Y-66049425D01*
X60824078Y-65957936D01*
X60882563Y-65829734D01*
X60979636Y-65572916D01*
X61082301Y-65256995D01*
X61185855Y-64899378D01*
X61285596Y-64517476D01*
X61376822Y-64128697D01*
X61454831Y-63750449D01*
X61514921Y-63400142D01*
X61527750Y-63301276D01*
X61550663Y-63054991D01*
X61570886Y-62750663D01*
X61587754Y-62408587D01*
X61600605Y-62049059D01*
X61608774Y-61692376D01*
X61611598Y-61358832D01*
X61608413Y-61068725D01*
X61598556Y-60842349D01*
X61557526Y-60378610D01*
X61474545Y-59754071D01*
X61364970Y-59187158D01*
X61230762Y-58687503D01*
X61073881Y-58264739D01*
X61024678Y-58155253D01*
X60904949Y-57913361D01*
X60776132Y-57694700D01*
X60624080Y-57478460D01*
X60434644Y-57243829D01*
X60193678Y-56969998D01*
X60117769Y-56886465D01*
X59953659Y-56711995D01*
X59821000Y-56584928D01*
X59701483Y-56490106D01*
X59576799Y-56412369D01*
X59428639Y-56336557D01*
X59235122Y-56233996D01*
X58928745Y-56018646D01*
X58700906Y-55777259D01*
X58555907Y-55513892D01*
X58553186Y-55506631D01*
X58498439Y-55372324D01*
X58441119Y-55275527D01*
X58361984Y-55196902D01*
X58241789Y-55117109D01*
X58061293Y-55016809D01*
X57994776Y-54981432D01*
X57851149Y-54912198D01*
X57764869Y-54888095D01*
X57722761Y-54907283D01*
X57711653Y-54967920D01*
X57703860Y-55019203D01*
X57662404Y-55084699D01*
X57634373Y-55089254D01*
X57637180Y-55031720D01*
X57648507Y-54970948D01*
X57662574Y-54832327D01*
X57672775Y-54661848D01*
X57676404Y-54525501D01*
X57800620Y-54525501D01*
X57801472Y-54597154D01*
X57814768Y-54696619D01*
X57857202Y-54752545D01*
X57945191Y-54795604D01*
X57974140Y-54807883D01*
X58116820Y-54878034D01*
X58260777Y-54959904D01*
X58312673Y-54991124D01*
X58401975Y-55039140D01*
X58441809Y-55051602D01*
X58446102Y-55041882D01*
X58469960Y-54969662D01*
X58504332Y-54854176D01*
X58517519Y-54807472D01*
X58545634Y-54701579D01*
X58556837Y-54648791D01*
X58546909Y-54634897D01*
X58482812Y-54581737D01*
X58378903Y-54508750D01*
X58321613Y-54468566D01*
X58235049Y-54396007D01*
X58200970Y-54348543D01*
X58193234Y-54331073D01*
X58138744Y-54329965D01*
X58108296Y-54336225D01*
X58050839Y-54312293D01*
X58006340Y-54290343D01*
X57912890Y-54292204D01*
X57882445Y-54298988D01*
X57828714Y-54328689D01*
X57805575Y-54395598D01*
X57800620Y-54525501D01*
X57676404Y-54525501D01*
X57677272Y-54492907D01*
X57674225Y-54358899D01*
X57655591Y-54296583D01*
X57602113Y-54258811D01*
X57551273Y-54250084D01*
X57434469Y-54216510D01*
X57289968Y-54166364D01*
X57177157Y-54112514D01*
X58296725Y-54112514D01*
X58297953Y-54179358D01*
X58304139Y-54201715D01*
X58365786Y-54293728D01*
X58467440Y-54382384D01*
X58622702Y-54486771D01*
X58700978Y-54390105D01*
X58722563Y-54362140D01*
X58775747Y-54256232D01*
X58751016Y-54191672D01*
X58648699Y-54169845D01*
X58538322Y-54159538D01*
X58400937Y-54125282D01*
X58337225Y-54103866D01*
X58296725Y-54112514D01*
X57177157Y-54112514D01*
X57127219Y-54088676D01*
X56986766Y-53975402D01*
X56874430Y-53819449D01*
X56783908Y-53609257D01*
X56708897Y-53333265D01*
X56643096Y-52979915D01*
X56639155Y-52955778D01*
X56610307Y-52804582D01*
X56582829Y-52697934D01*
X56562187Y-52657617D01*
X56523558Y-52675375D01*
X56431657Y-52742798D01*
X56308003Y-52846109D01*
X56169324Y-52969886D01*
X56032347Y-53098709D01*
X55913800Y-53217159D01*
X55830409Y-53309815D01*
X55798903Y-53361256D01*
X55800221Y-53378141D01*
X55833751Y-53491833D01*
X55906821Y-53660839D01*
X56011798Y-53869768D01*
X56060541Y-53957806D01*
X56141053Y-54103224D01*
X56286955Y-54345815D01*
X56418594Y-54566601D01*
X56565503Y-54844643D01*
X56678785Y-55098233D01*
X56751699Y-55311917D01*
X56777502Y-55470240D01*
X56763345Y-55587710D01*
X56684656Y-55795887D01*
X56550833Y-55997581D01*
X56377725Y-56165243D01*
X56339192Y-56194119D01*
X56238361Y-56261838D01*
X56150807Y-56294504D01*
X56042636Y-56300484D01*
X55879951Y-56288149D01*
X55741796Y-56279490D01*
X55613148Y-56283743D01*
X55554616Y-56304388D01*
X55553190Y-56306335D01*
X55493993Y-56341597D01*
X55375017Y-56389987D01*
X55220303Y-56441634D01*
X55060700Y-56486508D01*
X54919068Y-56510680D01*
X54777774Y-56509264D01*
X54593250Y-56485294D01*
X54577207Y-56482784D01*
X54418275Y-56455712D01*
X54297196Y-56431269D01*
X54239074Y-56414476D01*
X54182753Y-56408024D01*
X54058805Y-56416910D01*
X53892122Y-56439050D01*
X53705688Y-56470890D01*
X53522490Y-56508880D01*
X53365514Y-56549467D01*
X53236447Y-56594052D01*
X53098870Y-56665315D01*
X52978977Y-56765538D01*
X52864269Y-56908204D01*
X52742247Y-57106796D01*
X52600413Y-57374796D01*
X52537729Y-57499088D01*
X52441563Y-57699844D01*
X52385849Y-57844814D01*
X52369574Y-57949168D01*
X52217202Y-57949168D01*
X52116769Y-57773571D01*
X52073384Y-57698122D01*
X52016544Y-57600801D01*
X51988737Y-57555399D01*
X51984076Y-57552475D01*
X51938246Y-57582720D01*
X51858137Y-57675615D01*
X51751923Y-57819240D01*
X51627776Y-58001678D01*
X51493871Y-58211007D01*
X51358379Y-58435309D01*
X51229476Y-58662664D01*
X51091454Y-58932867D01*
X50939548Y-59260258D01*
X50789585Y-59609005D01*
X50655397Y-59946922D01*
X50550817Y-60241824D01*
X50519926Y-60333176D01*
X50466300Y-60474112D01*
X50421461Y-60572182D01*
X50391186Y-60617340D01*
X50381247Y-60599536D01*
X50397421Y-60508724D01*
X50450146Y-60317122D01*
X50564473Y-59982931D01*
X50714036Y-59607072D01*
X50890205Y-59208766D01*
X51084346Y-58807234D01*
X51287828Y-58421698D01*
X51492018Y-58071379D01*
X51761341Y-57635605D01*
X51705847Y-57437401D01*
X51694703Y-57401107D01*
X52062266Y-57401107D01*
X52077494Y-57468693D01*
X52121550Y-57576848D01*
X52179467Y-57690782D01*
X52236033Y-57780868D01*
X52276039Y-57817480D01*
X52286457Y-57811539D01*
X52332249Y-57748951D01*
X52395985Y-57637092D01*
X52465949Y-57499643D01*
X52530427Y-57360284D01*
X52577704Y-57242695D01*
X52596066Y-57170557D01*
X52613980Y-57113778D01*
X52671742Y-57003646D01*
X52755550Y-56871753D01*
X52827254Y-56762176D01*
X52917471Y-56609546D01*
X52977967Y-56489285D01*
X53002924Y-56427409D01*
X53034539Y-56324464D01*
X53019724Y-56293162D01*
X52954752Y-56332221D01*
X52835895Y-56440355D01*
X52705906Y-56573574D01*
X52560458Y-56734992D01*
X52413890Y-56907367D01*
X52278493Y-57075431D01*
X52166562Y-57223920D01*
X52090389Y-57337568D01*
X52062266Y-57401107D01*
X51694703Y-57401107D01*
X51687020Y-57376086D01*
X51647448Y-57277925D01*
X51628315Y-57253862D01*
X51738547Y-57253862D01*
X51754857Y-57310238D01*
X51791626Y-57346376D01*
X51825340Y-57308138D01*
X51840530Y-57203209D01*
X51850118Y-57111907D01*
X51880178Y-57021978D01*
X51892414Y-57006128D01*
X51922168Y-57012260D01*
X51949757Y-57099824D01*
X51951525Y-57107640D01*
X51982243Y-57200814D01*
X52013335Y-57239197D01*
X52019707Y-57236725D01*
X52073058Y-57188373D01*
X52161419Y-57090948D01*
X52269384Y-56961176D01*
X52305662Y-56916479D01*
X52455164Y-56738457D01*
X52626356Y-56541436D01*
X52788925Y-56360466D01*
X52855679Y-56287041D01*
X52972833Y-56150736D01*
X53806242Y-56150736D01*
X53880225Y-56189878D01*
X54019298Y-56236639D01*
X54199720Y-56284993D01*
X54398052Y-56329216D01*
X54590859Y-56363585D01*
X54754704Y-56382376D01*
X54843998Y-56387705D01*
X55002884Y-56390998D01*
X55122033Y-56376667D01*
X55235533Y-56338596D01*
X55377471Y-56270672D01*
X55433579Y-56241460D01*
X55649582Y-56105652D01*
X55795094Y-55963616D01*
X55884872Y-55801712D01*
X55923241Y-55657459D01*
X55920593Y-55475862D01*
X55854473Y-55335692D01*
X55843639Y-55325453D01*
X55755773Y-55269775D01*
X55607091Y-55193767D01*
X55415360Y-55106099D01*
X55198343Y-55015444D01*
X55198300Y-55015427D01*
X55696208Y-55015427D01*
X55731556Y-55115515D01*
X55821488Y-55148479D01*
X55854687Y-55162365D01*
X55916567Y-55240060D01*
X55974179Y-55362218D01*
X56015697Y-55501420D01*
X56029295Y-55630249D01*
X56023280Y-55680457D01*
X55981485Y-55827442D01*
X55914386Y-55976118D01*
X55805131Y-56171596D01*
X55950065Y-56171596D01*
X55968746Y-56171049D01*
X56142614Y-56125655D01*
X56320530Y-56021889D01*
X56473911Y-55880356D01*
X56574178Y-55721660D01*
X56619494Y-55576954D01*
X56631849Y-55402542D01*
X56593383Y-55209787D01*
X56501627Y-54973198D01*
X56462179Y-54888343D01*
X56370321Y-54709243D01*
X56273223Y-54538915D01*
X56181890Y-54395185D01*
X56107328Y-54295875D01*
X56060541Y-54258811D01*
X56008494Y-54288341D01*
X55931570Y-54380082D01*
X55849340Y-54511658D01*
X55775966Y-54660084D01*
X55725609Y-54802377D01*
X55714946Y-54846417D01*
X55696208Y-55015427D01*
X55198300Y-55015427D01*
X55133383Y-54989523D01*
X54925018Y-54906313D01*
X54748377Y-54835670D01*
X54620433Y-54784388D01*
X54558158Y-54759258D01*
X54529069Y-54753944D01*
X54513039Y-54790724D01*
X54526688Y-54895986D01*
X54530974Y-55111183D01*
X54468669Y-55344700D01*
X54347650Y-55547263D01*
X54233273Y-55683193D01*
X54400849Y-55753211D01*
X54510915Y-55793633D01*
X54682441Y-55847114D01*
X54875244Y-55900807D01*
X55062860Y-55947761D01*
X55218822Y-55981029D01*
X55316667Y-55993663D01*
X55361594Y-56001012D01*
X55398518Y-56038146D01*
X55376075Y-56063022D01*
X55284147Y-56074841D01*
X55136735Y-56064585D01*
X54950614Y-56035063D01*
X54742561Y-55989081D01*
X54529350Y-55929446D01*
X54327756Y-55858966D01*
X54303636Y-55849546D01*
X54171447Y-55804157D01*
X54098985Y-55796147D01*
X54068967Y-55823122D01*
X54062984Y-55836462D01*
X54007840Y-55914153D01*
X53921300Y-56009773D01*
X53891453Y-56040352D01*
X53826051Y-56114823D01*
X53806242Y-56150736D01*
X52972833Y-56150736D01*
X52990437Y-56130254D01*
X53019724Y-56089231D01*
X53065102Y-56025669D01*
X53083462Y-55967305D01*
X53049304Y-55949179D01*
X53032154Y-55955918D01*
X52954667Y-56008800D01*
X52832107Y-56104410D01*
X52678265Y-56230940D01*
X52506933Y-56376579D01*
X52331901Y-56529520D01*
X52166960Y-56677951D01*
X52025901Y-56810066D01*
X51922514Y-56914053D01*
X51869549Y-56972253D01*
X51778423Y-57087230D01*
X51738606Y-57173989D01*
X51738547Y-57253862D01*
X51628315Y-57253862D01*
X51616654Y-57239197D01*
X51609656Y-57242155D01*
X51551883Y-57292033D01*
X51448787Y-57395203D01*
X51310268Y-57540876D01*
X51146226Y-57718265D01*
X50966562Y-57916582D01*
X50781175Y-58125038D01*
X50599966Y-58332844D01*
X50432834Y-58529214D01*
X50386372Y-58584927D01*
X50281199Y-58713572D01*
X50172237Y-58851112D01*
X50051500Y-59008132D01*
X49911005Y-59195216D01*
X49742766Y-59422950D01*
X49538798Y-59701919D01*
X49291116Y-60042707D01*
X49261377Y-60082781D01*
X49233126Y-60114312D01*
X49248087Y-60079936D01*
X49302870Y-59985647D01*
X49394082Y-59837437D01*
X49518331Y-59641298D01*
X49756592Y-59291424D01*
X50058972Y-58886299D01*
X50412783Y-58443235D01*
X50809923Y-57972374D01*
X51242288Y-57483855D01*
X51382481Y-57327879D01*
X51490008Y-57201066D01*
X51557732Y-57104486D01*
X51596314Y-57019555D01*
X51616417Y-56927687D01*
X51620394Y-56889684D01*
X51706067Y-56889684D01*
X51726400Y-56927813D01*
X51767100Y-56901488D01*
X51859808Y-56826042D01*
X51990001Y-56713331D01*
X52143602Y-56575252D01*
X52208648Y-56516156D01*
X52421316Y-56327530D01*
X52626100Y-56152218D01*
X52811458Y-55999578D01*
X52965845Y-55878964D01*
X53049304Y-55819858D01*
X53077719Y-55799735D01*
X53135536Y-55771246D01*
X53153344Y-55778731D01*
X53174350Y-55837971D01*
X53182026Y-55875952D01*
X53228563Y-55903171D01*
X53285558Y-55860212D01*
X53315012Y-55826391D01*
X53372046Y-55832355D01*
X53433156Y-55926937D01*
X53443307Y-55946933D01*
X53531033Y-56025311D01*
X53660690Y-56026256D01*
X53830480Y-55949667D01*
X53861294Y-55930191D01*
X53953067Y-55849366D01*
X53964877Y-55770272D01*
X53901431Y-55674661D01*
X53894759Y-55667255D01*
X53857936Y-55616894D01*
X53882441Y-55596887D01*
X53982075Y-55593312D01*
X54070745Y-55581150D01*
X54223837Y-55499449D01*
X54348968Y-55355328D01*
X54433393Y-55165838D01*
X54464367Y-54948033D01*
X54461214Y-54878877D01*
X54432979Y-54788186D01*
X54376895Y-54781224D01*
X54294715Y-54858913D01*
X54292758Y-54861385D01*
X54216958Y-54938566D01*
X54156749Y-54970545D01*
X54109553Y-54999855D01*
X54055923Y-55081754D01*
X54014548Y-55159849D01*
X53966700Y-55187832D01*
X53894669Y-55154726D01*
X53885714Y-55137188D01*
X53894884Y-55046507D01*
X53938306Y-54890476D01*
X53985933Y-54753379D01*
X54197467Y-54753379D01*
X54200895Y-54768337D01*
X54241951Y-54770370D01*
X54253972Y-54761280D01*
X54286434Y-54698394D01*
X54283007Y-54683437D01*
X54241951Y-54681403D01*
X54229929Y-54690494D01*
X54197467Y-54753379D01*
X53985933Y-54753379D01*
X54011930Y-54678545D01*
X54062358Y-54547953D01*
X54152984Y-54547953D01*
X54175226Y-54570195D01*
X54197467Y-54547953D01*
X54175226Y-54525712D01*
X54152984Y-54547953D01*
X54062358Y-54547953D01*
X54085201Y-54488798D01*
X54191356Y-54488798D01*
X54213684Y-54477521D01*
X54238566Y-54435738D01*
X54241951Y-54429016D01*
X54282863Y-54347778D01*
X54312716Y-54283184D01*
X54312705Y-54281053D01*
X54419884Y-54281053D01*
X54442126Y-54303295D01*
X54464367Y-54281053D01*
X54442126Y-54258811D01*
X54419884Y-54281053D01*
X54312705Y-54281053D01*
X54312636Y-54268232D01*
X54266646Y-54322918D01*
X54228541Y-54382456D01*
X54199443Y-54447961D01*
X54191356Y-54488798D01*
X54085201Y-54488798D01*
X54111702Y-54420169D01*
X54175226Y-54266208D01*
X54233571Y-54124800D01*
X54312636Y-53942324D01*
X54361030Y-53830634D01*
X54464588Y-53830634D01*
X54484447Y-53839508D01*
X54529069Y-53796395D01*
X54548130Y-53777978D01*
X54656330Y-53643034D01*
X54809700Y-53433860D01*
X54958372Y-53221726D01*
X55058338Y-53221726D01*
X55097667Y-53208465D01*
X55190028Y-53155654D01*
X55314442Y-53074784D01*
X55347066Y-53053227D01*
X55485762Y-52969849D01*
X55654271Y-52877214D01*
X55834686Y-52784108D01*
X56009101Y-52699317D01*
X56159609Y-52631629D01*
X56268302Y-52589829D01*
X56317275Y-52582705D01*
X56317460Y-52582914D01*
X56290520Y-52613501D01*
X56204766Y-52674692D01*
X56078411Y-52753467D01*
X55969892Y-52820438D01*
X55873538Y-52895149D01*
X55825352Y-52966142D01*
X55806764Y-53053961D01*
X55792417Y-53202132D01*
X56173751Y-52877426D01*
X56244157Y-52816645D01*
X56418095Y-52654809D01*
X56519993Y-52536979D01*
X56552267Y-52460495D01*
X56539542Y-52378790D01*
X56502317Y-52237571D01*
X56449936Y-52073028D01*
X56391785Y-51912517D01*
X56337256Y-51783394D01*
X56295735Y-51713016D01*
X56264911Y-51690886D01*
X56206495Y-51703242D01*
X56178286Y-51735484D01*
X56026551Y-51914419D01*
X55861267Y-52116848D01*
X55691165Y-52331226D01*
X55524977Y-52546003D01*
X55371434Y-52749633D01*
X55239267Y-52930567D01*
X55137208Y-53077260D01*
X55073988Y-53178161D01*
X55058338Y-53221726D01*
X54958372Y-53221726D01*
X55008893Y-53149640D01*
X55027699Y-53122549D01*
X55186574Y-52901225D01*
X55377170Y-52645540D01*
X55577177Y-52385038D01*
X55764286Y-52149265D01*
X55848774Y-52044165D01*
X55987543Y-51866996D01*
X56098674Y-51719181D01*
X56172466Y-51613778D01*
X56199219Y-51563843D01*
X56194808Y-51537433D01*
X56369059Y-51537433D01*
X56484314Y-51871356D01*
X56496919Y-51908218D01*
X56549212Y-52069353D01*
X56562187Y-52114045D01*
X56586096Y-52196399D01*
X56600250Y-52264532D01*
X56604362Y-52295897D01*
X56640500Y-52386286D01*
X56650725Y-52399349D01*
X56694005Y-52411494D01*
X56769822Y-52378253D01*
X56895598Y-52293272D01*
X57024712Y-52201223D01*
X57140906Y-52122800D01*
X57203579Y-52088423D01*
X57222336Y-52092181D01*
X57220605Y-52095608D01*
X57174768Y-52139876D01*
X57079267Y-52220701D01*
X56951104Y-52323578D01*
X56679872Y-52536669D01*
X56710966Y-52785530D01*
X56713061Y-52801895D01*
X56750743Y-53029731D01*
X56803075Y-53267130D01*
X56863475Y-53489653D01*
X56925359Y-53672860D01*
X56982144Y-53792310D01*
X57024887Y-53849096D01*
X57203254Y-53988620D01*
X57450386Y-54073115D01*
X57765033Y-54102089D01*
X57796823Y-54101995D01*
X57961660Y-54095187D01*
X58006340Y-54089738D01*
X58087927Y-54079788D01*
X58150448Y-54058636D01*
X58158536Y-54035612D01*
X58124072Y-53950057D01*
X58022409Y-53817296D01*
X57913751Y-53671867D01*
X57761894Y-53370569D01*
X57665167Y-53032779D01*
X57629840Y-52684040D01*
X57640516Y-52573751D01*
X57769535Y-52573751D01*
X57770467Y-52864502D01*
X57809338Y-53147261D01*
X57887402Y-53398691D01*
X57920744Y-53470779D01*
X58061781Y-53695939D01*
X58227245Y-53865201D01*
X58337225Y-53932890D01*
X58405682Y-53975023D01*
X58585638Y-54021861D01*
X58755659Y-54002173D01*
X58904290Y-53912416D01*
X59020080Y-53749046D01*
X59060826Y-53651350D01*
X59073259Y-53597333D01*
X59212257Y-53597333D01*
X59227587Y-53636044D01*
X59237814Y-53630860D01*
X59297573Y-53577037D01*
X59393889Y-53477224D01*
X59511558Y-53346902D01*
X59562820Y-53287750D01*
X59660246Y-53169940D01*
X59721034Y-53088296D01*
X59733702Y-53057761D01*
X59694397Y-53072105D01*
X59596883Y-53120678D01*
X59467846Y-53191725D01*
X59390928Y-53237239D01*
X59288808Y-53312004D01*
X59237160Y-53385419D01*
X59215585Y-53480867D01*
X59213392Y-53502060D01*
X59212257Y-53597333D01*
X59073259Y-53597333D01*
X59088378Y-53531648D01*
X59071943Y-53467937D01*
X59015803Y-53469330D01*
X58924238Y-53544945D01*
X58894674Y-53574547D01*
X58825546Y-53607646D01*
X58734852Y-53577693D01*
X58663355Y-53527840D01*
X58542887Y-53404555D01*
X58420706Y-53245187D01*
X58316816Y-53076690D01*
X58251220Y-52926017D01*
X58232474Y-52838667D01*
X58213355Y-52669670D01*
X58203180Y-52472758D01*
X58202545Y-52276969D01*
X58212048Y-52111342D01*
X58232284Y-52004919D01*
X58246084Y-51971443D01*
X58266715Y-51956213D01*
X58287889Y-52023195D01*
X58312178Y-52122955D01*
X58445628Y-52012265D01*
X58484553Y-51979716D01*
X58544063Y-51920283D01*
X58543698Y-51879824D01*
X58490112Y-51831271D01*
X58385676Y-51786361D01*
X58232431Y-51781707D01*
X58080411Y-51822569D01*
X57967590Y-51903685D01*
X57876486Y-52061630D01*
X57805292Y-52298348D01*
X57769535Y-52573751D01*
X57640516Y-52573751D01*
X57662184Y-52349895D01*
X57673276Y-52295913D01*
X57690082Y-52159941D01*
X57674318Y-52047220D01*
X57621642Y-51910715D01*
X57570022Y-51808540D01*
X57466886Y-51637220D01*
X57354379Y-51476777D01*
X57248093Y-51334559D01*
X57192552Y-51246086D01*
X57183675Y-51201651D01*
X57215774Y-51189459D01*
X57220387Y-51190496D01*
X57273104Y-51234506D01*
X57358460Y-51329437D01*
X57461334Y-51456094D01*
X57566607Y-51595282D01*
X57659156Y-51727805D01*
X57723861Y-51834468D01*
X57760972Y-51895855D01*
X57805154Y-51931253D01*
X57828825Y-51898209D01*
X57830621Y-51808216D01*
X57809179Y-51672767D01*
X57763136Y-51503357D01*
X57751309Y-51468330D01*
X57685127Y-51302990D01*
X57599782Y-51121246D01*
X57506032Y-50942768D01*
X57414639Y-50787226D01*
X57336360Y-50674291D01*
X57281955Y-50623635D01*
X57269733Y-50626949D01*
X57203426Y-50676398D01*
X57094430Y-50774778D01*
X56954827Y-50910195D01*
X56796698Y-51070756D01*
X56632127Y-51244569D01*
X56473193Y-51419741D01*
X56369059Y-51537433D01*
X56194808Y-51537433D01*
X56194359Y-51534744D01*
X56130842Y-51453037D01*
X56015525Y-51391620D01*
X55876197Y-51367393D01*
X55866448Y-51367419D01*
X55792218Y-51372946D01*
X55732814Y-51398083D01*
X55673345Y-51457153D01*
X55598921Y-51564478D01*
X55494650Y-51734381D01*
X55392791Y-51909690D01*
X55266550Y-52139065D01*
X55131055Y-52395046D01*
X54992746Y-52664524D01*
X54858067Y-52934388D01*
X54733459Y-53191528D01*
X54625365Y-53422833D01*
X54540227Y-53615193D01*
X54484488Y-53755496D01*
X54464588Y-53830634D01*
X54361030Y-53830634D01*
X54373485Y-53801890D01*
X54442126Y-53649810D01*
X54527393Y-53460893D01*
X54691241Y-53111260D01*
X54860979Y-52762446D01*
X55032553Y-52423902D01*
X55201913Y-52105082D01*
X55266922Y-51985537D01*
X55371903Y-51790454D01*
X55455950Y-51631631D01*
X55511744Y-51522963D01*
X55531968Y-51478347D01*
X55531510Y-51473500D01*
X55514275Y-51460157D01*
X55462957Y-51464146D01*
X55365069Y-51488437D01*
X55208124Y-51536004D01*
X54979634Y-51609819D01*
X54828019Y-51658397D01*
X54627368Y-51719506D01*
X54459881Y-51766961D01*
X54351104Y-51793305D01*
X54219979Y-51840972D01*
X54149772Y-51931884D01*
X54134176Y-51996058D01*
X54118110Y-52157708D01*
X54111781Y-52380753D01*
X54115174Y-52648780D01*
X54128272Y-52945376D01*
X54151059Y-53254131D01*
X54162109Y-53404677D01*
X54167180Y-53711045D01*
X54144872Y-53953880D01*
X54089843Y-54150995D01*
X53980216Y-54400482D01*
X53838536Y-54641716D01*
X53683395Y-54839036D01*
X53678124Y-54844651D01*
X53617120Y-54936532D01*
X53604373Y-55042099D01*
X53641580Y-55180525D01*
X53730436Y-55370980D01*
X53753074Y-55415230D01*
X53783780Y-55496817D01*
X53764574Y-55553347D01*
X53689021Y-55624160D01*
X53664002Y-55644028D01*
X53493639Y-55716582D01*
X53295443Y-55712698D01*
X53084884Y-55632170D01*
X52916580Y-55537578D01*
X52640046Y-55630965D01*
X52325173Y-55777631D01*
X52066172Y-55984973D01*
X51874847Y-56245015D01*
X51827245Y-56349094D01*
X51776344Y-56497512D01*
X51735924Y-56652063D01*
X51710870Y-56790277D01*
X51706067Y-56889684D01*
X51620394Y-56889684D01*
X51628701Y-56810298D01*
X51632671Y-56773866D01*
X51669490Y-56589195D01*
X51730195Y-56387845D01*
X51804907Y-56195881D01*
X51883748Y-56039371D01*
X51956843Y-55944378D01*
X51990924Y-55899876D01*
X52018023Y-55799161D01*
X52012648Y-55775184D01*
X51966552Y-55677347D01*
X51880878Y-55528668D01*
X51791598Y-55386021D01*
X51994290Y-55386021D01*
X52021803Y-55442999D01*
X52081841Y-55536859D01*
X52151142Y-55626247D01*
X52202471Y-55650968D01*
X52260643Y-55622370D01*
X52280929Y-55606775D01*
X52305866Y-55569821D01*
X52273570Y-55529166D01*
X52173411Y-55465719D01*
X52127008Y-55439116D01*
X52036204Y-55392640D01*
X51994610Y-55380209D01*
X51994290Y-55386021D01*
X51791598Y-55386021D01*
X51764842Y-55343271D01*
X51627664Y-55135285D01*
X51586065Y-55074898D01*
X51937951Y-55074898D01*
X51980599Y-55135169D01*
X51994610Y-55147405D01*
X52083250Y-55224816D01*
X52224807Y-55326112D01*
X52387492Y-55406974D01*
X52525788Y-55438386D01*
X52618504Y-55414104D01*
X53085383Y-55414104D01*
X53115462Y-55483762D01*
X53205276Y-55557311D01*
X53323511Y-55606724D01*
X53438115Y-55613849D01*
X53470410Y-55608058D01*
X53558820Y-55596716D01*
X53578388Y-55591774D01*
X53629524Y-55537708D01*
X53632337Y-55523374D01*
X53618180Y-55434710D01*
X53574606Y-55315007D01*
X53515322Y-55193339D01*
X53454039Y-55098780D01*
X53404466Y-55060404D01*
X53377198Y-55065571D01*
X53287890Y-55121902D01*
X53192436Y-55217667D01*
X53116409Y-55324518D01*
X53085383Y-55414104D01*
X52618504Y-55414104D01*
X52620463Y-55413591D01*
X52666010Y-55357408D01*
X52674846Y-55243765D01*
X52606821Y-55092874D01*
X52545505Y-55007107D01*
X52488372Y-54973966D01*
X52440374Y-55015029D01*
X52430511Y-55027315D01*
X52347896Y-55057376D01*
X52230581Y-55042946D01*
X52111806Y-54986874D01*
X52071805Y-54960406D01*
X52009864Y-54939580D01*
X51969139Y-54975753D01*
X51944242Y-55019856D01*
X51937951Y-55074898D01*
X51586065Y-55074898D01*
X51478559Y-54918836D01*
X51326746Y-54708050D01*
X51181443Y-54517053D01*
X51113631Y-54426918D01*
X51013579Y-54280248D01*
X50943807Y-54161186D01*
X50868027Y-54005531D01*
X50779106Y-53815704D01*
X50963225Y-53815704D01*
X50998324Y-53912590D01*
X51073763Y-54052594D01*
X51179945Y-54220778D01*
X51307275Y-54402206D01*
X51446154Y-54581942D01*
X51586988Y-54745048D01*
X51649543Y-54810221D01*
X51756617Y-54902335D01*
X51819378Y-54920455D01*
X51839849Y-54865544D01*
X51842712Y-54847439D01*
X51880079Y-54759066D01*
X51946883Y-54647303D01*
X52009864Y-54554496D01*
X52053918Y-54489579D01*
X51913521Y-54344689D01*
X51912122Y-54343248D01*
X51787677Y-54231067D01*
X51631386Y-54112632D01*
X51460267Y-53998079D01*
X51291340Y-53897546D01*
X51141623Y-53821171D01*
X51028134Y-53779089D01*
X50967894Y-53781438D01*
X50963225Y-53815704D01*
X50779106Y-53815704D01*
X50774930Y-53806790D01*
X50688454Y-53615040D01*
X50616639Y-53448553D01*
X50567524Y-53325596D01*
X50549150Y-53264440D01*
X50547919Y-53236606D01*
X50524800Y-53162432D01*
X50462514Y-53134997D01*
X50347872Y-53152529D01*
X50167686Y-53213260D01*
X50015123Y-53274024D01*
X49772060Y-53384351D01*
X49507797Y-53520871D01*
X49214256Y-53688442D01*
X48883362Y-53891922D01*
X48507039Y-54136171D01*
X48077210Y-54426045D01*
X47585798Y-54766404D01*
X47182741Y-55038529D01*
X46773824Y-55288010D01*
X46397576Y-55484384D01*
X46039594Y-55634364D01*
X45685477Y-55744662D01*
X45320821Y-55821990D01*
X45307889Y-55824108D01*
X45086854Y-55849247D01*
X44797518Y-55867190D01*
X44458857Y-55878068D01*
X44089851Y-55882011D01*
X43709476Y-55879150D01*
X43336712Y-55869615D01*
X42990536Y-55853537D01*
X42689926Y-55831047D01*
X42453860Y-55802274D01*
X42215915Y-55761376D01*
X41580071Y-55624056D01*
X41017739Y-55458267D01*
X40532917Y-55265310D01*
X40129604Y-55046483D01*
X40085975Y-55018085D01*
X39958206Y-54923690D01*
X39892443Y-54846998D01*
X39875836Y-54780160D01*
X40017894Y-54780160D01*
X40031728Y-54829529D01*
X40118840Y-54904679D01*
X40273138Y-54991866D01*
X40483741Y-55087170D01*
X40739768Y-55186670D01*
X41030337Y-55286443D01*
X41344567Y-55382570D01*
X41671577Y-55471129D01*
X42000485Y-55548200D01*
X42320410Y-55609860D01*
X42425342Y-55626942D01*
X43081817Y-55706449D01*
X43741131Y-55741736D01*
X44386909Y-55733481D01*
X45002773Y-55682362D01*
X45572347Y-55589057D01*
X46079254Y-55454243D01*
X46094673Y-55449108D01*
X46214392Y-55405929D01*
X46335643Y-55354754D01*
X46466281Y-55290703D01*
X46614161Y-55208890D01*
X46787139Y-55104433D01*
X46993070Y-54972449D01*
X47239808Y-54808055D01*
X47535209Y-54606367D01*
X47887129Y-54362502D01*
X48303422Y-54071576D01*
X48439231Y-53978467D01*
X48675029Y-53824008D01*
X48927330Y-53665790D01*
X49183141Y-53511312D01*
X49429473Y-53368074D01*
X49653335Y-53243573D01*
X49841737Y-53145309D01*
X49981687Y-53080781D01*
X50060196Y-53057487D01*
X50144165Y-53038073D01*
X50254199Y-52990998D01*
X50259395Y-52988321D01*
X50356705Y-52950239D01*
X50417425Y-52947197D01*
X50458544Y-52943709D01*
X50529961Y-52893343D01*
X50569663Y-52839403D01*
X50563653Y-52802881D01*
X50554810Y-52797423D01*
X50536343Y-52733515D01*
X50544925Y-52628777D01*
X50575265Y-52516852D01*
X50622072Y-52431384D01*
X50651976Y-52382300D01*
X50650016Y-52324164D01*
X50641068Y-52309850D01*
X50674109Y-52320483D01*
X50705611Y-52330645D01*
X50785318Y-52309500D01*
X50789001Y-52306688D01*
X50872937Y-52272582D01*
X50993344Y-52250066D01*
X51040047Y-52247432D01*
X51141708Y-52266423D01*
X51169041Y-52316188D01*
X51121631Y-52382288D01*
X50999067Y-52450284D01*
X50888501Y-52507456D01*
X50802865Y-52574157D01*
X50754928Y-52635001D01*
X50756465Y-52675000D01*
X50819251Y-52679167D01*
X50824043Y-52678349D01*
X50931780Y-52688731D01*
X51060698Y-52734449D01*
X51174433Y-52799173D01*
X51236618Y-52866576D01*
X51241570Y-52888210D01*
X51211475Y-52941882D01*
X51130407Y-52960816D01*
X51025191Y-52936181D01*
X50892015Y-52908884D01*
X50784716Y-52952727D01*
X50716402Y-53056133D01*
X50695887Y-53205537D01*
X50731987Y-53387374D01*
X50734493Y-53394539D01*
X50783431Y-53506855D01*
X50842539Y-53558382D01*
X50939587Y-53574097D01*
X51028134Y-53586071D01*
X51048895Y-53588878D01*
X51293867Y-53673521D01*
X51567219Y-53826603D01*
X51858894Y-54042025D01*
X52158835Y-54313684D01*
X52327584Y-54498534D01*
X52493574Y-54713345D01*
X52637797Y-54931789D01*
X52746004Y-55132235D01*
X52803947Y-55293050D01*
X52813872Y-55329628D01*
X52864573Y-55403762D01*
X52925898Y-55399876D01*
X52977013Y-55315291D01*
X53027063Y-55197783D01*
X53173370Y-55010311D01*
X53371403Y-54878377D01*
X53404466Y-54860034D01*
X53499336Y-54807401D01*
X53618976Y-54699285D01*
X53733065Y-54541669D01*
X53857065Y-54316668D01*
X53972064Y-54089729D01*
X53665988Y-54014722D01*
X53492761Y-53961203D01*
X53268223Y-53870543D01*
X53069940Y-53770264D01*
X52982596Y-53720403D01*
X52858465Y-53658317D01*
X52787350Y-53640649D01*
X52756138Y-53662912D01*
X52748499Y-53680435D01*
X52701806Y-53724593D01*
X52659183Y-53694622D01*
X52640550Y-53601162D01*
X52640324Y-53591855D01*
X52613594Y-53498210D01*
X52535070Y-53384152D01*
X52524515Y-53372903D01*
X52818483Y-53372903D01*
X52839364Y-53421627D01*
X52939106Y-53513193D01*
X53118746Y-53629201D01*
X53408179Y-53779032D01*
X53676868Y-53872348D01*
X53919446Y-53902696D01*
X54064017Y-53902944D01*
X54064017Y-53510008D01*
X54063420Y-53431142D01*
X54057817Y-53264424D01*
X54047580Y-53142448D01*
X54034265Y-53087319D01*
X53995645Y-53085518D01*
X53924063Y-53130372D01*
X53854061Y-53169665D01*
X53706856Y-53179796D01*
X53529265Y-53131178D01*
X53340218Y-53027158D01*
X53162479Y-52903984D01*
X52990481Y-53097802D01*
X52919313Y-53185326D01*
X52846643Y-53296739D01*
X52818483Y-53372903D01*
X52524515Y-53372903D01*
X52394350Y-53234174D01*
X52302998Y-53139387D01*
X52107674Y-52907359D01*
X51925616Y-52654192D01*
X51766745Y-52396704D01*
X51640982Y-52151710D01*
X51558248Y-51936028D01*
X51528466Y-51766475D01*
X51529859Y-51734744D01*
X51555557Y-51652680D01*
X51600119Y-51638025D01*
X51645731Y-51700763D01*
X51662209Y-51731412D01*
X51699939Y-51749514D01*
X51719721Y-51761868D01*
X51734728Y-51833479D01*
X51742186Y-51864941D01*
X51784871Y-51969925D01*
X51854329Y-52114541D01*
X51937943Y-52274970D01*
X52023096Y-52427391D01*
X52097173Y-52547983D01*
X52147556Y-52612927D01*
X52162940Y-52630256D01*
X52219580Y-52705939D01*
X52295936Y-52815504D01*
X52323548Y-52854682D01*
X52445555Y-53008222D01*
X52570066Y-53143084D01*
X52721983Y-53290328D01*
X52798694Y-53141984D01*
X52799680Y-53140097D01*
X52872033Y-53033416D01*
X52986129Y-52897333D01*
X53117717Y-52760818D01*
X53140349Y-52738773D01*
X53162479Y-52715206D01*
X53247486Y-52624678D01*
X53316615Y-52534228D01*
X53333677Y-52485358D01*
X53312576Y-52462092D01*
X53221591Y-52390381D01*
X53078648Y-52292249D01*
X52900861Y-52178498D01*
X52705344Y-52059931D01*
X52509209Y-51947349D01*
X52329570Y-51851555D01*
X52281367Y-51827859D01*
X52100574Y-51749535D01*
X51937509Y-51693484D01*
X51822078Y-51670382D01*
X51781146Y-51667314D01*
X51657408Y-51633235D01*
X51590724Y-51572674D01*
X51597037Y-51497856D01*
X51614350Y-51482985D01*
X51713773Y-51462299D01*
X51886713Y-51465145D01*
X52035915Y-51490747D01*
X52285934Y-51575102D01*
X52569689Y-51707561D01*
X52870981Y-51878705D01*
X53173611Y-52079114D01*
X53461382Y-52299370D01*
X53718094Y-52530054D01*
X53972696Y-52781389D01*
X53970825Y-52386459D01*
X53971003Y-52307893D01*
X53975476Y-52137006D01*
X53984555Y-52008782D01*
X53996869Y-51946361D01*
X53999382Y-51940919D01*
X53969675Y-51911980D01*
X53868560Y-51901193D01*
X53791867Y-51897535D01*
X53611413Y-51848234D01*
X53496002Y-51749133D01*
X53447373Y-51610140D01*
X53467266Y-51441166D01*
X53557423Y-51252120D01*
X53719582Y-51052909D01*
X53803564Y-50965100D01*
X53854467Y-50905264D01*
X53853205Y-50894621D01*
X53846366Y-50897742D01*
X53763995Y-50913084D01*
X53623616Y-50924420D01*
X53451316Y-50929486D01*
X53299047Y-50926369D01*
X53050443Y-50893160D01*
X52850969Y-50818301D01*
X52677972Y-50694920D01*
X52611743Y-50636643D01*
X52483894Y-50526593D01*
X52441963Y-50491120D01*
X52790046Y-50491120D01*
X52848542Y-50597051D01*
X52985792Y-50689882D01*
X53188232Y-50747777D01*
X53446585Y-50770042D01*
X53751576Y-50755984D01*
X54093929Y-50704912D01*
X54464367Y-50616133D01*
X54644791Y-50567230D01*
X55024777Y-50478383D01*
X55373108Y-50416015D01*
X55673024Y-50382851D01*
X55907760Y-50381612D01*
X55980993Y-50390048D01*
X56068269Y-50415354D01*
X56074463Y-50444203D01*
X56003839Y-50467895D01*
X55860662Y-50477726D01*
X55760648Y-50481415D01*
X55496392Y-50512769D01*
X55193758Y-50570432D01*
X54882135Y-50647508D01*
X54590907Y-50737102D01*
X54349461Y-50832319D01*
X54347725Y-50833123D01*
X54103981Y-50962680D01*
X53891852Y-51106931D01*
X53724293Y-51254481D01*
X53614257Y-51393934D01*
X53574700Y-51513894D01*
X53594574Y-51603828D01*
X53686681Y-51686733D01*
X53853878Y-51722647D01*
X54096252Y-51711564D01*
X54413890Y-51653477D01*
X54806878Y-51548380D01*
X55275305Y-51396268D01*
X55514275Y-51313355D01*
X55708134Y-51246094D01*
X56034805Y-50761822D01*
X56170727Y-50560826D01*
X56339453Y-50313673D01*
X56468641Y-50128394D01*
X56563842Y-49997437D01*
X56630604Y-49913247D01*
X56674475Y-49868272D01*
X56701003Y-49854958D01*
X56704493Y-49857383D01*
X56687289Y-49906186D01*
X56629221Y-50004850D01*
X56540017Y-50136371D01*
X56461561Y-50247091D01*
X56308277Y-50467557D01*
X56163697Y-50680454D01*
X56036367Y-50872777D01*
X55934834Y-51031523D01*
X55867647Y-51143688D01*
X55843352Y-51196268D01*
X55845011Y-51201706D01*
X55876197Y-51215232D01*
X55897882Y-51224638D01*
X56001968Y-51233943D01*
X56028824Y-51234459D01*
X56157781Y-51251243D01*
X56257095Y-51285031D01*
X56307192Y-51326718D01*
X56288496Y-51367201D01*
X56266174Y-51388787D01*
X56263297Y-51452078D01*
X56264911Y-51453065D01*
X56268997Y-51455562D01*
X56326419Y-51428650D01*
X56436217Y-51342404D01*
X56592384Y-51201853D01*
X56788912Y-51012027D01*
X57281955Y-50523393D01*
X57283534Y-50521828D01*
X57452102Y-50702601D01*
X57476257Y-50729657D01*
X57610236Y-50914398D01*
X57739916Y-51141830D01*
X57846517Y-51376022D01*
X57911258Y-51581045D01*
X57914777Y-51596369D01*
X57951061Y-51684518D01*
X57993726Y-51711011D01*
X58038885Y-51657965D01*
X58045684Y-51536486D01*
X58011916Y-51357933D01*
X57940226Y-51132283D01*
X57833262Y-50869512D01*
X57693668Y-50579598D01*
X57617771Y-50436997D01*
X57441375Y-50146959D01*
X57263067Y-49923262D01*
X57067639Y-49751435D01*
X56839882Y-49617012D01*
X56564586Y-49505525D01*
X56336810Y-49443371D01*
X56037542Y-49389436D01*
X55714569Y-49352498D01*
X55401418Y-49336319D01*
X55131618Y-49344664D01*
X55056074Y-49353709D01*
X54895453Y-49380794D01*
X54716601Y-49417801D01*
X54540672Y-49459566D01*
X54388818Y-49500927D01*
X54282193Y-49536722D01*
X54241951Y-49561788D01*
X54282167Y-49567890D01*
X54394262Y-49573176D01*
X54560874Y-49576972D01*
X54764630Y-49578714D01*
X54848339Y-49579602D01*
X55239564Y-49599825D01*
X55629185Y-49643674D01*
X55988345Y-49707214D01*
X56288185Y-49786510D01*
X56488360Y-49852472D01*
X56310427Y-49834396D01*
X56308207Y-49834169D01*
X56192953Y-49821371D01*
X56014168Y-49800356D01*
X55795864Y-49773987D01*
X55562054Y-49745128D01*
X55491771Y-49736534D01*
X55212680Y-49707998D01*
X54973274Y-49696362D01*
X54734633Y-49700749D01*
X54457834Y-49720285D01*
X54426741Y-49723047D01*
X53984163Y-49777506D01*
X53603925Y-49853738D01*
X53290375Y-49949731D01*
X53047862Y-50063476D01*
X52880737Y-50192963D01*
X52793349Y-50336181D01*
X52790046Y-50491120D01*
X52441963Y-50491120D01*
X52347257Y-50411001D01*
X52259092Y-50335812D01*
X52095628Y-50191602D01*
X51953968Y-50061430D01*
X51815385Y-49935597D01*
X51658090Y-49802379D01*
X51502804Y-49678581D01*
X51365645Y-49576630D01*
X51262730Y-49508951D01*
X51210175Y-49487971D01*
X51197947Y-49488897D01*
X51172599Y-49449849D01*
X51162091Y-49427847D01*
X51103563Y-49427098D01*
X51069824Y-49434731D01*
X51060356Y-49411798D01*
X51060123Y-49394134D01*
X51001215Y-49329105D01*
X50863696Y-49228002D01*
X50648998Y-49091757D01*
X50358552Y-48921301D01*
X49993790Y-48717568D01*
X49991438Y-48716281D01*
X49841864Y-48640421D01*
X49648438Y-48550520D01*
X49431867Y-48455271D01*
X49212856Y-48363368D01*
X49012113Y-48283503D01*
X48850344Y-48224370D01*
X48748255Y-48194661D01*
X48666019Y-48173548D01*
X48545454Y-48131237D01*
X48536754Y-48127743D01*
X48409095Y-48085046D01*
X48217092Y-48029866D01*
X47981358Y-47967367D01*
X47722508Y-47902713D01*
X47461156Y-47841068D01*
X47217917Y-47787596D01*
X47013404Y-47747460D01*
X46719677Y-47696078D01*
X46438101Y-47649085D01*
X46218600Y-47615181D01*
X46069595Y-47595658D01*
X45999505Y-47591810D01*
X45971849Y-47593178D01*
X45879079Y-47576187D01*
X45862290Y-47571317D01*
X45758579Y-47551688D01*
X45592449Y-47527234D01*
X45383726Y-47500410D01*
X45152238Y-47473669D01*
X44917810Y-47449467D01*
X44700269Y-47430258D01*
X44539129Y-47417515D01*
X44324009Y-47400295D01*
X44144227Y-47385690D01*
X44057153Y-47379161D01*
X43867229Y-47366789D01*
X43640899Y-47353562D01*
X43410252Y-47341415D01*
X43031023Y-47322016D01*
X42706129Y-47303191D01*
X42436589Y-47284012D01*
X42205270Y-47262657D01*
X41995037Y-47237302D01*
X41788759Y-47206125D01*
X41569302Y-47167305D01*
X41319534Y-47119017D01*
X41156741Y-47086800D01*
X40849492Y-47026578D01*
X40614760Y-46982146D01*
X40442378Y-46952269D01*
X40322178Y-46935708D01*
X40243993Y-46931225D01*
X40197654Y-46937583D01*
X40172995Y-46953545D01*
X40159846Y-46977873D01*
X40154523Y-46998678D01*
X40171868Y-47102970D01*
X40249448Y-47253101D01*
X40389678Y-47453118D01*
X40594972Y-47707067D01*
X40840181Y-47982909D01*
X41399899Y-48521453D01*
X42022696Y-49005877D01*
X42713433Y-49439758D01*
X43476977Y-49826674D01*
X43809404Y-49969219D01*
X44179153Y-50105796D01*
X44559943Y-50221427D01*
X44961458Y-50317584D01*
X45393377Y-50395742D01*
X45865383Y-50457374D01*
X46387158Y-50503954D01*
X46968382Y-50536955D01*
X47618737Y-50557851D01*
X48347905Y-50568116D01*
X48479162Y-50569053D01*
X48951964Y-50572710D01*
X49345455Y-50576385D01*
X49667363Y-50580307D01*
X49925413Y-50584704D01*
X50127334Y-50589806D01*
X50280853Y-50595843D01*
X50393696Y-50603043D01*
X50473590Y-50611636D01*
X50528263Y-50621852D01*
X50565442Y-50633919D01*
X50616286Y-50645960D01*
X50683734Y-50610443D01*
X50688679Y-50602854D01*
X50730235Y-50579335D01*
X50793631Y-50626203D01*
X50850787Y-50671685D01*
X50931118Y-50705703D01*
X51003486Y-50713068D01*
X51070752Y-50728242D01*
X51110868Y-50757034D01*
X51121112Y-50769301D01*
X51153844Y-50848412D01*
X51153788Y-50857357D01*
X51119796Y-50884236D01*
X51022217Y-50896310D01*
X50848702Y-50895484D01*
X50679678Y-50896920D01*
X50522923Y-50910503D01*
X50420203Y-50933391D01*
X50324378Y-50966997D01*
X50194768Y-50999143D01*
X50144515Y-51008480D01*
X50073689Y-51031938D01*
X50091459Y-51051160D01*
X50197672Y-51062785D01*
X50207018Y-51063213D01*
X50322021Y-51070291D01*
X50394140Y-51077790D01*
X50545679Y-51108109D01*
X50710281Y-51152248D01*
X50796325Y-51196527D01*
X50810000Y-51244744D01*
X50757494Y-51300694D01*
X50718040Y-51335459D01*
X50702259Y-51371791D01*
X50703175Y-51373120D01*
X50670301Y-51386500D01*
X50579239Y-51394898D01*
X50456314Y-51410071D01*
X50327415Y-51445173D01*
X50245480Y-51476013D01*
X50182378Y-51494612D01*
X50170209Y-51497329D01*
X50095176Y-51527921D01*
X49999648Y-51576857D01*
X49917493Y-51625842D01*
X49882581Y-51656576D01*
X49912348Y-51658861D01*
X49993403Y-51634440D01*
X50080752Y-51613382D01*
X50171337Y-51618058D01*
X50206166Y-51623841D01*
X50238448Y-51591944D01*
X50243253Y-51572467D01*
X50286930Y-51570039D01*
X50287222Y-51570217D01*
X50349656Y-51584468D01*
X50354492Y-51585572D01*
X50482883Y-51597159D01*
X50644854Y-51602483D01*
X50651488Y-51602544D01*
X50807568Y-51609072D01*
X50924390Y-51623162D01*
X50977106Y-51641870D01*
X51003937Y-51674239D01*
X51036891Y-51661427D01*
X51058181Y-51566037D01*
X51068854Y-51385133D01*
X51069607Y-51359118D01*
X51082946Y-51187438D01*
X51113791Y-51074331D01*
X51168942Y-50993177D01*
X51233700Y-50911856D01*
X51261565Y-50851378D01*
X51273235Y-50827418D01*
X51339411Y-50799648D01*
X51429083Y-50788609D01*
X51596348Y-50759927D01*
X51709371Y-50728541D01*
X51750882Y-50698688D01*
X51760264Y-50685808D01*
X51831402Y-50674582D01*
X51951823Y-50681815D01*
X52096804Y-50704176D01*
X52241624Y-50738335D01*
X52361559Y-50780960D01*
X52562075Y-50883110D01*
X52687889Y-50972278D01*
X52729516Y-51044468D01*
X52698775Y-51091877D01*
X52598389Y-51089778D01*
X52427825Y-51033546D01*
X52374095Y-51012017D01*
X52319028Y-50994004D01*
X52318145Y-51008765D01*
X52375707Y-51064899D01*
X52495979Y-51171001D01*
X52565911Y-51233306D01*
X52676516Y-51342641D01*
X52719880Y-51411040D01*
X52699357Y-51446335D01*
X52618308Y-51456360D01*
X52545220Y-51448093D01*
X52507054Y-51422997D01*
X52486884Y-51386091D01*
X52398366Y-51320927D01*
X52257820Y-51247910D01*
X52085487Y-51174725D01*
X51901606Y-51109061D01*
X51726415Y-51058604D01*
X51580153Y-51031041D01*
X51483058Y-51034061D01*
X51370109Y-51105165D01*
X51288427Y-51247041D01*
X51255187Y-51443772D01*
X51272162Y-51683837D01*
X51341126Y-51955716D01*
X51377357Y-52073464D01*
X51402796Y-52182637D01*
X51403511Y-52233737D01*
X51367003Y-52255070D01*
X51316879Y-52231808D01*
X51255303Y-52142916D01*
X51173840Y-51979039D01*
X51166922Y-51964116D01*
X51105099Y-51839556D01*
X51060525Y-51765175D01*
X51042444Y-51756622D01*
X51006891Y-51796090D01*
X50916819Y-51817489D01*
X50794490Y-51822753D01*
X50927940Y-51851289D01*
X51002791Y-51872885D01*
X51061904Y-51918670D01*
X51037979Y-51972428D01*
X50934011Y-52030112D01*
X50752993Y-52087678D01*
X50740945Y-52090795D01*
X50587417Y-52134361D01*
X50472177Y-52173841D01*
X50419368Y-52201033D01*
X50381799Y-52225699D01*
X50289019Y-52246571D01*
X50191245Y-52246562D01*
X50133272Y-52222337D01*
X50129935Y-52208784D01*
X50146814Y-52129937D01*
X50195835Y-52019536D01*
X50283104Y-51856710D01*
X50160689Y-51857766D01*
X50077189Y-51870006D01*
X49931697Y-51910292D01*
X49771373Y-51968768D01*
X49577653Y-52041067D01*
X49441754Y-52070650D01*
X49372601Y-52050486D01*
X49365647Y-51979119D01*
X49416342Y-51855092D01*
X49427007Y-51834468D01*
X50327415Y-51834468D01*
X50349656Y-51856710D01*
X50371898Y-51834468D01*
X50349656Y-51812226D01*
X50327415Y-51834468D01*
X49427007Y-51834468D01*
X49487540Y-51717411D01*
X48984448Y-51744811D01*
X48953857Y-51746557D01*
X48676732Y-51768458D01*
X48380496Y-51801089D01*
X48080539Y-51841810D01*
X47792254Y-51887980D01*
X47531032Y-51936959D01*
X47312263Y-51986105D01*
X47151341Y-52032779D01*
X47063655Y-52074340D01*
X47030113Y-52095594D01*
X46979923Y-52097543D01*
X46972506Y-52094891D01*
X46899804Y-52101052D01*
X46770299Y-52127273D01*
X46605908Y-52169345D01*
X46267840Y-52267396D01*
X45868988Y-52394956D01*
X45471929Y-52536654D01*
X45060992Y-52698725D01*
X44620504Y-52887400D01*
X44134792Y-53108913D01*
X43588185Y-53369497D01*
X43530839Y-53397273D01*
X43268609Y-53523862D01*
X43025764Y-53640445D01*
X42817458Y-53739792D01*
X42658842Y-53814668D01*
X42565068Y-53857843D01*
X42482507Y-53894581D01*
X42312901Y-53970692D01*
X42142476Y-54047766D01*
X42063778Y-54082657D01*
X41761862Y-54205024D01*
X41431723Y-54324758D01*
X41109221Y-54429330D01*
X40830217Y-54506212D01*
X40772813Y-54520097D01*
X40452582Y-54602947D01*
X40219881Y-54673953D01*
X40074917Y-54733048D01*
X40017894Y-54780160D01*
X39875836Y-54780160D01*
X39873825Y-54772065D01*
X39881011Y-54716471D01*
X39910447Y-54666210D01*
X39972768Y-54618418D01*
X40078604Y-54568066D01*
X40238583Y-54510131D01*
X40463336Y-54439586D01*
X40763492Y-54351405D01*
X40877616Y-54318101D01*
X41184017Y-54224429D01*
X41466743Y-54129871D01*
X41742818Y-54027588D01*
X42029267Y-53910744D01*
X42343115Y-53772499D01*
X42701388Y-53606015D01*
X43121110Y-53404454D01*
X43187587Y-53372255D01*
X44028300Y-52977566D01*
X44807799Y-52636710D01*
X45533302Y-52347500D01*
X46212026Y-52107747D01*
X46851188Y-51915262D01*
X47458005Y-51767857D01*
X48039693Y-51663343D01*
X48603471Y-51599532D01*
X49156554Y-51574234D01*
X49325544Y-51571678D01*
X49507469Y-51565335D01*
X49636756Y-51552323D01*
X49734826Y-51528728D01*
X49823103Y-51490631D01*
X49923010Y-51434118D01*
X50021319Y-51372409D01*
X50112903Y-51306101D01*
X50148599Y-51267305D01*
X50148383Y-51265960D01*
X50102317Y-51249778D01*
X49991417Y-51238303D01*
X49838098Y-51233943D01*
X49825682Y-51233913D01*
X49674587Y-51228305D01*
X49567432Y-51214880D01*
X49526714Y-51196354D01*
X49527428Y-51188783D01*
X49577435Y-51116450D01*
X49686376Y-51033768D01*
X49971548Y-51033768D01*
X49993790Y-51056009D01*
X50016031Y-51033768D01*
X49993790Y-51011526D01*
X49971548Y-51033768D01*
X49686376Y-51033768D01*
X49697602Y-51025248D01*
X49875771Y-50924639D01*
X49957380Y-50879768D01*
X49993790Y-50848997D01*
X50028676Y-50819513D01*
X50013617Y-50779989D01*
X49912252Y-50760976D01*
X49854356Y-50759036D01*
X49715968Y-50755635D01*
X49509295Y-50751093D01*
X49245072Y-50745633D01*
X48934034Y-50739476D01*
X48586916Y-50732843D01*
X48214455Y-50725956D01*
X47711787Y-50715392D01*
X47126658Y-50698165D01*
X46613267Y-50676095D01*
X46161884Y-50648144D01*
X45762780Y-50613273D01*
X45406227Y-50570445D01*
X45082497Y-50518622D01*
X44781860Y-50456765D01*
X44494588Y-50383837D01*
X44210952Y-50298800D01*
X43773415Y-50139345D01*
X43293084Y-49928143D01*
X42809194Y-49682784D01*
X42344547Y-49415619D01*
X41921945Y-49138998D01*
X41564192Y-48865270D01*
X41299560Y-48631436D01*
X41030501Y-48372810D01*
X40776503Y-48108692D01*
X40544990Y-47848221D01*
X40343387Y-47600539D01*
X40179118Y-47374787D01*
X40059609Y-47180106D01*
X39992284Y-47025637D01*
X39984568Y-46920521D01*
X40006879Y-46874599D01*
X40057910Y-46832689D01*
X40144007Y-46809025D01*
X40243993Y-46804690D01*
X40275630Y-46803318D01*
X40463239Y-46815276D01*
G37*
G36*
X49215331Y-60197340D02*
G01*
X49193089Y-60219582D01*
X49170847Y-60197340D01*
X49193089Y-60175099D01*
X49215331Y-60197340D01*
G37*
G36*
X63494490Y-50544451D02*
G01*
X63472248Y-50566692D01*
X63450007Y-50544451D01*
X63472248Y-50522209D01*
X63494490Y-50544451D01*
G37*
G36*
X63183107Y-60108374D02*
G01*
X63160865Y-60130615D01*
X63138623Y-60108374D01*
X63160865Y-60086132D01*
X63183107Y-60108374D01*
G37*
G36*
X63138623Y-51567568D02*
G01*
X63116381Y-51589810D01*
X63094140Y-51567568D01*
X63116381Y-51545326D01*
X63138623Y-51567568D01*
G37*
G36*
X62649306Y-51789985D02*
G01*
X62627065Y-51812226D01*
X62604823Y-51789985D01*
X62627065Y-51767743D01*
X62649306Y-51789985D01*
G37*
G36*
X62560339Y-51478601D02*
G01*
X62538098Y-51500843D01*
X62515856Y-51478601D01*
X62538098Y-51456360D01*
X62560339Y-51478601D01*
G37*
G36*
X62515856Y-52145852D02*
G01*
X62493614Y-52168093D01*
X62471373Y-52145852D01*
X62493614Y-52123610D01*
X62515856Y-52145852D01*
G37*
G36*
X62382406Y-49921684D02*
G01*
X62360164Y-49943925D01*
X62337923Y-49921684D01*
X62360164Y-49899442D01*
X62382406Y-49921684D01*
G37*
G36*
X62382406Y-51878951D02*
G01*
X62360164Y-51901193D01*
X62337923Y-51878951D01*
X62360164Y-51856710D01*
X62382406Y-51878951D01*
G37*
G36*
X62293439Y-52145852D02*
G01*
X62271198Y-52168093D01*
X62248956Y-52145852D01*
X62271198Y-52123610D01*
X62293439Y-52145852D01*
G37*
G36*
X62248956Y-52323785D02*
G01*
X62226714Y-52346027D01*
X62204473Y-52323785D01*
X62226714Y-52301543D01*
X62248956Y-52323785D01*
G37*
G36*
X62115506Y-50989284D02*
G01*
X62093264Y-51011526D01*
X62071022Y-50989284D01*
X62093264Y-50967043D01*
X62115506Y-50989284D01*
G37*
G36*
X62115506Y-51967918D02*
G01*
X62093264Y-51990160D01*
X62071022Y-51967918D01*
X62093264Y-51945677D01*
X62115506Y-51967918D01*
G37*
G36*
X62115506Y-52190335D02*
G01*
X62093264Y-52212577D01*
X62071022Y-52190335D01*
X62093264Y-52168093D01*
X62115506Y-52190335D01*
G37*
G36*
X62026539Y-51434118D02*
G01*
X62004297Y-51456360D01*
X61982056Y-51434118D01*
X62004297Y-51411876D01*
X62026539Y-51434118D01*
G37*
G36*
X62026539Y-51923435D02*
G01*
X62004297Y-51945677D01*
X61982056Y-51923435D01*
X62004297Y-51901193D01*
X62026539Y-51923435D01*
G37*
G36*
X61937572Y-50183333D02*
G01*
X61935571Y-50191154D01*
X61893089Y-50233067D01*
X61877340Y-50241353D01*
X61848606Y-50238318D01*
X61850607Y-50230497D01*
X61893089Y-50188584D01*
X61908838Y-50180298D01*
X61937572Y-50183333D01*
G37*
G36*
X61937572Y-50633417D02*
G01*
X61915331Y-50655659D01*
X61893089Y-50633417D01*
X61915331Y-50611176D01*
X61937572Y-50633417D01*
G37*
G36*
X61937572Y-53391386D02*
G01*
X61915331Y-53413627D01*
X61893089Y-53391386D01*
X61915331Y-53369144D01*
X61937572Y-53391386D01*
G37*
G36*
X61893089Y-53302419D02*
G01*
X61870847Y-53324661D01*
X61848606Y-53302419D01*
X61870847Y-53280177D01*
X61893089Y-53302419D01*
G37*
G36*
X61804122Y-51434118D02*
G01*
X61781881Y-51456360D01*
X61759639Y-51434118D01*
X61781881Y-51411876D01*
X61804122Y-51434118D01*
G37*
G36*
X61759639Y-50144100D02*
G01*
X61737397Y-50166342D01*
X61715156Y-50144100D01*
X61737397Y-50121859D01*
X61759639Y-50144100D01*
G37*
G36*
X61759639Y-51523085D02*
G01*
X61737397Y-51545326D01*
X61715156Y-51523085D01*
X61737397Y-51500843D01*
X61759639Y-51523085D01*
G37*
G36*
X61759639Y-59930440D02*
G01*
X61737397Y-59952682D01*
X61715156Y-59930440D01*
X61737397Y-59908198D01*
X61759639Y-59930440D01*
G37*
G36*
X61670672Y-52190335D02*
G01*
X61648431Y-52212577D01*
X61626189Y-52190335D01*
X61648431Y-52168093D01*
X61670672Y-52190335D01*
G37*
G36*
X61626189Y-50722384D02*
G01*
X61603947Y-50744626D01*
X61581705Y-50722384D01*
X61603947Y-50700142D01*
X61626189Y-50722384D01*
G37*
G36*
X61626189Y-52813102D02*
G01*
X61603947Y-52835344D01*
X61581705Y-52813102D01*
X61603947Y-52790860D01*
X61626189Y-52813102D01*
G37*
G36*
X61626189Y-53658286D02*
G01*
X61603947Y-53680528D01*
X61581705Y-53658286D01*
X61603947Y-53636044D01*
X61626189Y-53658286D01*
G37*
G36*
X61581705Y-52412752D02*
G01*
X61559464Y-52434994D01*
X61537222Y-52412752D01*
X61559464Y-52390510D01*
X61581705Y-52412752D01*
G37*
G36*
X61581705Y-53880703D02*
G01*
X61559464Y-53902944D01*
X61537222Y-53880703D01*
X61559464Y-53858461D01*
X61581705Y-53880703D01*
G37*
G36*
X61537222Y-51701018D02*
G01*
X61514980Y-51723260D01*
X61492739Y-51701018D01*
X61514980Y-51678776D01*
X61537222Y-51701018D01*
G37*
G36*
X61537222Y-52190335D02*
G01*
X61514980Y-52212577D01*
X61492739Y-52190335D01*
X61514980Y-52168093D01*
X61537222Y-52190335D01*
G37*
G36*
X61396899Y-55655790D02*
G01*
X61405954Y-55661699D01*
X61446922Y-55705652D01*
X61428639Y-55726762D01*
X61418634Y-55722786D01*
X61377283Y-55675406D01*
X61366459Y-55650547D01*
X61396899Y-55655790D01*
G37*
G36*
X61448255Y-65401894D02*
G01*
X61426014Y-65424135D01*
X61403772Y-65401894D01*
X61426014Y-65379652D01*
X61448255Y-65401894D01*
G37*
G36*
X61314805Y-51567568D02*
G01*
X61292564Y-51589810D01*
X61270322Y-51567568D01*
X61292564Y-51545326D01*
X61314805Y-51567568D01*
G37*
G36*
X61314805Y-52501719D02*
G01*
X61292564Y-52523960D01*
X61270322Y-52501719D01*
X61292564Y-52479477D01*
X61314805Y-52501719D01*
G37*
G36*
X61270322Y-51923435D02*
G01*
X61248080Y-51945677D01*
X61225839Y-51923435D01*
X61248080Y-51901193D01*
X61270322Y-51923435D01*
G37*
G36*
X61129999Y-50451236D02*
G01*
X61149760Y-50464968D01*
X61181355Y-50502593D01*
X61180922Y-50508811D01*
X61155172Y-50518607D01*
X61110382Y-50470852D01*
X61099559Y-50445993D01*
X61129999Y-50451236D01*
G37*
G36*
X61136872Y-52857585D02*
G01*
X61114630Y-52879827D01*
X61092388Y-52857585D01*
X61114630Y-52835344D01*
X61136872Y-52857585D01*
G37*
G36*
X61092388Y-52501719D02*
G01*
X61070147Y-52523960D01*
X61047905Y-52501719D01*
X61070147Y-52479477D01*
X61092388Y-52501719D01*
G37*
G36*
X61092388Y-53435869D02*
G01*
X61070147Y-53458111D01*
X61047905Y-53435869D01*
X61070147Y-53413627D01*
X61092388Y-53435869D01*
G37*
G36*
X61047905Y-52012402D02*
G01*
X61025663Y-52034643D01*
X61003422Y-52012402D01*
X61025663Y-51990160D01*
X61047905Y-52012402D01*
G37*
G36*
X61047905Y-52635169D02*
G01*
X61025663Y-52657410D01*
X61003422Y-52635169D01*
X61025663Y-52612927D01*
X61047905Y-52635169D01*
G37*
G36*
X61003422Y-50855834D02*
G01*
X60981180Y-50878076D01*
X60958938Y-50855834D01*
X60981180Y-50833592D01*
X61003422Y-50855834D01*
G37*
G36*
X60914455Y-52590685D02*
G01*
X60892213Y-52612927D01*
X60869972Y-52590685D01*
X60892213Y-52568444D01*
X60914455Y-52590685D01*
G37*
G36*
X60869972Y-51923435D02*
G01*
X60847730Y-51945677D01*
X60825488Y-51923435D01*
X60847730Y-51901193D01*
X60869972Y-51923435D01*
G37*
G36*
X60869972Y-52145852D02*
G01*
X60847730Y-52168093D01*
X60825488Y-52145852D01*
X60847730Y-52123610D01*
X60869972Y-52145852D01*
G37*
G36*
X60869972Y-54992787D02*
G01*
X60847730Y-55015029D01*
X60825488Y-54992787D01*
X60847730Y-54970545D01*
X60869972Y-54992787D01*
G37*
G36*
X60825488Y-53035519D02*
G01*
X60803247Y-53057761D01*
X60781005Y-53035519D01*
X60803247Y-53013277D01*
X60825488Y-53035519D01*
G37*
G36*
X60825488Y-53435869D02*
G01*
X60803247Y-53458111D01*
X60781005Y-53435869D01*
X60803247Y-53413627D01*
X60825488Y-53435869D01*
G37*
G36*
X60781005Y-52768619D02*
G01*
X60758763Y-52790860D01*
X60736522Y-52768619D01*
X60758763Y-52746377D01*
X60781005Y-52768619D01*
G37*
G36*
X60781005Y-55393137D02*
G01*
X60758763Y-55415379D01*
X60736522Y-55393137D01*
X60758763Y-55370895D01*
X60781005Y-55393137D01*
G37*
G36*
X60736522Y-50677901D02*
G01*
X60714280Y-50700142D01*
X60692038Y-50677901D01*
X60714280Y-50655659D01*
X60736522Y-50677901D01*
G37*
G36*
X60647555Y-51211701D02*
G01*
X60625313Y-51233943D01*
X60603072Y-51211701D01*
X60625313Y-51189459D01*
X60647555Y-51211701D01*
G37*
G36*
X60647555Y-52145852D02*
G01*
X60625313Y-52168093D01*
X60603072Y-52145852D01*
X60625313Y-52123610D01*
X60647555Y-52145852D01*
G37*
G36*
X60603072Y-52768619D02*
G01*
X60580830Y-52790860D01*
X60558588Y-52768619D01*
X60580830Y-52746377D01*
X60603072Y-52768619D01*
G37*
G36*
X60603072Y-52946552D02*
G01*
X60580830Y-52968794D01*
X60558588Y-52946552D01*
X60580830Y-52924310D01*
X60603072Y-52946552D01*
G37*
G36*
X60558588Y-53969670D02*
G01*
X60536346Y-53991911D01*
X60514105Y-53969670D01*
X60536346Y-53947428D01*
X60558588Y-53969670D01*
G37*
G36*
X60514105Y-50855834D02*
G01*
X60491863Y-50878076D01*
X60469621Y-50855834D01*
X60491863Y-50833592D01*
X60514105Y-50855834D01*
G37*
G36*
X60425138Y-50989284D02*
G01*
X60402896Y-51011526D01*
X60380655Y-50989284D01*
X60402896Y-50967043D01*
X60425138Y-50989284D01*
G37*
G36*
X60404204Y-52838554D02*
G01*
X60410310Y-52864999D01*
X60403790Y-52870323D01*
X60350999Y-52864999D01*
X60344040Y-52851620D01*
X60380655Y-52835344D01*
X60404204Y-52838554D01*
G37*
G36*
X60425138Y-52946552D02*
G01*
X60402896Y-52968794D01*
X60380655Y-52946552D01*
X60402896Y-52924310D01*
X60425138Y-52946552D01*
G37*
G36*
X60425138Y-53168969D02*
G01*
X60402896Y-53191211D01*
X60380655Y-53168969D01*
X60402896Y-53146727D01*
X60425138Y-53168969D01*
G37*
G36*
X60336171Y-52279302D02*
G01*
X60313930Y-52301543D01*
X60291688Y-52279302D01*
X60313930Y-52257060D01*
X60336171Y-52279302D01*
G37*
G36*
X60336171Y-52368268D02*
G01*
X60313930Y-52390510D01*
X60291688Y-52368268D01*
X60313930Y-52346027D01*
X60336171Y-52368268D01*
G37*
G36*
X60291688Y-51033768D02*
G01*
X60269446Y-51056009D01*
X60247205Y-51033768D01*
X60269446Y-51011526D01*
X60291688Y-51033768D01*
G37*
G36*
X60291688Y-52145852D02*
G01*
X60269446Y-52168093D01*
X60247205Y-52145852D01*
X60269446Y-52123610D01*
X60291688Y-52145852D01*
G37*
G36*
X60240332Y-52897821D02*
G01*
X60260092Y-52911553D01*
X60291688Y-52949177D01*
X60291255Y-52955396D01*
X60265505Y-52965192D01*
X60220715Y-52917437D01*
X60209892Y-52892578D01*
X60240332Y-52897821D01*
G37*
G36*
X60291688Y-53080002D02*
G01*
X60269446Y-53102244D01*
X60247205Y-53080002D01*
X60269446Y-53057761D01*
X60291688Y-53080002D01*
G37*
G36*
X60247205Y-53836219D02*
G01*
X60224963Y-53858461D01*
X60202721Y-53836219D01*
X60224963Y-53813978D01*
X60247205Y-53836219D01*
G37*
G36*
X60202721Y-51167218D02*
G01*
X60180480Y-51189459D01*
X60158238Y-51167218D01*
X60180480Y-51144976D01*
X60202721Y-51167218D01*
G37*
G36*
X60202721Y-52012402D02*
G01*
X60180480Y-52034643D01*
X60158238Y-52012402D01*
X60180480Y-51990160D01*
X60202721Y-52012402D01*
G37*
G36*
X60158238Y-52234818D02*
G01*
X60135996Y-52257060D01*
X60113755Y-52234818D01*
X60135996Y-52212577D01*
X60158238Y-52234818D01*
G37*
G36*
X60092821Y-51281636D02*
G01*
X60098927Y-51308082D01*
X60092407Y-51313405D01*
X60039616Y-51308082D01*
X60032656Y-51294702D01*
X60069271Y-51278426D01*
X60092821Y-51281636D01*
G37*
G36*
X60066312Y-52410923D02*
G01*
X60095625Y-52431844D01*
X60107790Y-52461726D01*
X60045111Y-52450344D01*
X60012678Y-52433639D01*
X59997668Y-52402802D01*
X60008091Y-52397249D01*
X60066312Y-52410923D01*
G37*
G36*
X60113755Y-53124486D02*
G01*
X60091513Y-53146727D01*
X60069271Y-53124486D01*
X60091513Y-53102244D01*
X60113755Y-53124486D01*
G37*
G36*
X60113755Y-53302419D02*
G01*
X60091513Y-53324661D01*
X60069271Y-53302419D01*
X60091513Y-53280177D01*
X60113755Y-53302419D01*
G37*
G36*
X60069271Y-51878951D02*
G01*
X60047029Y-51901193D01*
X60024788Y-51878951D01*
X60047029Y-51856710D01*
X60069271Y-51878951D01*
G37*
G36*
X60069271Y-52323785D02*
G01*
X60047029Y-52346027D01*
X60024788Y-52323785D01*
X60047029Y-52301543D01*
X60069271Y-52323785D01*
G37*
G36*
X60024788Y-53168969D02*
G01*
X60002546Y-53191211D01*
X59980304Y-53168969D01*
X60002546Y-53146727D01*
X60024788Y-53168969D01*
G37*
G36*
X59973431Y-53342655D02*
G01*
X59982487Y-53348564D01*
X60023455Y-53392517D01*
X60005171Y-53413627D01*
X59995166Y-53409651D01*
X59953815Y-53362271D01*
X59942992Y-53337412D01*
X59973431Y-53342655D01*
G37*
G36*
X59846854Y-51345151D02*
G01*
X59824613Y-51367393D01*
X59802371Y-51345151D01*
X59824613Y-51322909D01*
X59846854Y-51345151D01*
G37*
G36*
X59846854Y-52635169D02*
G01*
X59824613Y-52657410D01*
X59802371Y-52635169D01*
X59824613Y-52612927D01*
X59846854Y-52635169D01*
G37*
G36*
X59846854Y-53524836D02*
G01*
X59824613Y-53547078D01*
X59802371Y-53524836D01*
X59824613Y-53502594D01*
X59846854Y-53524836D01*
G37*
G36*
X59713404Y-53613803D02*
G01*
X59691163Y-53636044D01*
X59668921Y-53613803D01*
X59691163Y-53591561D01*
X59713404Y-53613803D01*
G37*
G36*
X59668921Y-52234818D02*
G01*
X59646679Y-52257060D01*
X59624438Y-52234818D01*
X59646679Y-52212577D01*
X59668921Y-52234818D01*
G37*
G36*
X59668921Y-53524836D02*
G01*
X59646679Y-53547078D01*
X59624438Y-53524836D01*
X59646679Y-53502594D01*
X59668921Y-53524836D01*
G37*
G36*
X59624438Y-52145852D02*
G01*
X59602196Y-52168093D01*
X59579954Y-52145852D01*
X59602196Y-52123610D01*
X59624438Y-52145852D01*
G37*
G36*
X59535471Y-52279302D02*
G01*
X59513229Y-52301543D01*
X59490987Y-52279302D01*
X59513229Y-52257060D01*
X59535471Y-52279302D01*
G37*
G36*
X59470053Y-53817188D02*
G01*
X59476160Y-53843633D01*
X59469640Y-53848957D01*
X59416849Y-53843633D01*
X59409889Y-53830254D01*
X59446504Y-53813978D01*
X59470053Y-53817188D01*
G37*
G36*
X59446504Y-51695767D02*
G01*
X59444502Y-51703589D01*
X59402021Y-51745501D01*
X59386271Y-51753787D01*
X59357537Y-51750752D01*
X59359539Y-51742931D01*
X59402021Y-51701018D01*
X59417770Y-51692732D01*
X59446504Y-51695767D01*
G37*
G36*
X59402021Y-52412752D02*
G01*
X59379779Y-52434994D01*
X59357537Y-52412752D01*
X59379779Y-52390510D01*
X59402021Y-52412752D01*
G37*
G36*
X59402021Y-52679652D02*
G01*
X59379779Y-52701894D01*
X59357537Y-52679652D01*
X59379779Y-52657410D01*
X59402021Y-52679652D01*
G37*
G36*
X59268571Y-52234818D02*
G01*
X59246329Y-52257060D01*
X59224087Y-52234818D01*
X59246329Y-52212577D01*
X59268571Y-52234818D01*
G37*
G36*
X59224087Y-51789985D02*
G01*
X59201846Y-51812226D01*
X59179604Y-51789985D01*
X59201846Y-51767743D01*
X59224087Y-51789985D01*
G37*
G36*
X59090637Y-51923435D02*
G01*
X59068396Y-51945677D01*
X59046154Y-51923435D01*
X59068396Y-51901193D01*
X59090637Y-51923435D01*
G37*
G36*
X58912704Y-54814853D02*
G01*
X58890462Y-54837095D01*
X58868220Y-54814853D01*
X58890462Y-54792612D01*
X58912704Y-54814853D01*
G37*
G36*
X58912704Y-68159862D02*
G01*
X58890462Y-68182104D01*
X58868220Y-68159862D01*
X58890462Y-68137620D01*
X58912704Y-68159862D01*
G37*
G36*
X58868220Y-54681403D02*
G01*
X58845979Y-54703645D01*
X58823737Y-54681403D01*
X58845979Y-54659162D01*
X58868220Y-54681403D01*
G37*
G36*
X58868220Y-55081754D02*
G01*
X58845979Y-55103995D01*
X58823737Y-55081754D01*
X58845979Y-55059512D01*
X58868220Y-55081754D01*
G37*
G36*
X58779254Y-53257936D02*
G01*
X58757012Y-53280177D01*
X58734770Y-53257936D01*
X58757012Y-53235694D01*
X58779254Y-53257936D01*
G37*
G36*
X58734770Y-55170720D02*
G01*
X58712529Y-55192962D01*
X58690287Y-55170720D01*
X58712529Y-55148479D01*
X58734770Y-55170720D01*
G37*
G36*
X58512353Y-52902069D02*
G01*
X58490112Y-52924310D01*
X58467870Y-52902069D01*
X58490112Y-52879827D01*
X58512353Y-52902069D01*
G37*
G36*
X57533719Y-75232717D02*
G01*
X57511478Y-75254958D01*
X57489236Y-75232717D01*
X57511478Y-75210475D01*
X57533719Y-75232717D01*
G37*
G36*
X56110252Y-76789634D02*
G01*
X56088010Y-76811876D01*
X56065769Y-76789634D01*
X56088010Y-76767393D01*
X56110252Y-76789634D01*
G37*
G36*
X56065769Y-54547953D02*
G01*
X56043527Y-54570195D01*
X56021285Y-54547953D01*
X56043527Y-54525712D01*
X56065769Y-54547953D01*
G37*
G36*
X53206259Y-54043997D02*
G01*
X53211335Y-54098864D01*
X53145103Y-54206750D01*
X53007537Y-54367709D01*
X52896758Y-54491861D01*
X52801117Y-54607064D01*
X52745854Y-54683391D01*
X52716961Y-54723765D01*
X52671365Y-54741760D01*
X52649006Y-54690649D01*
X52660889Y-54583387D01*
X52701211Y-54503726D01*
X52785745Y-54390253D01*
X52894584Y-54266246D01*
X53008454Y-54152242D01*
X53108085Y-54068779D01*
X53174202Y-54036395D01*
X53206259Y-54043997D01*
G37*
G36*
X51839849Y-51745501D02*
G01*
X51817607Y-51767743D01*
X51795366Y-51745501D01*
X51817607Y-51723260D01*
X51839849Y-51745501D01*
G37*
G36*
X51617432Y-49877200D02*
G01*
X51595191Y-49899442D01*
X51572949Y-49877200D01*
X51595191Y-49854958D01*
X51617432Y-49877200D01*
G37*
G36*
X51572949Y-51078251D02*
G01*
X51550707Y-51100493D01*
X51528466Y-51078251D01*
X51550707Y-51056009D01*
X51572949Y-51078251D01*
G37*
G36*
X40860764Y-47421313D02*
G01*
X40970914Y-47463261D01*
X41111088Y-47524176D01*
X41283675Y-47597108D01*
X41574847Y-47699180D01*
X41651119Y-47725918D01*
X42082313Y-47850388D01*
X42561127Y-47966740D01*
X43071431Y-48071196D01*
X43597094Y-48159978D01*
X44121986Y-48229309D01*
X44181861Y-48236204D01*
X44364451Y-48258633D01*
X44522336Y-48279734D01*
X44822179Y-48321108D01*
X45234542Y-48374946D01*
X45716262Y-48435213D01*
X46257187Y-48500616D01*
X46366095Y-48513862D01*
X46746814Y-48565925D01*
X47101624Y-48625602D01*
X47467354Y-48699557D01*
X47880830Y-48794456D01*
X47948360Y-48810609D01*
X48119859Y-48851565D01*
X48253785Y-48883458D01*
X48325663Y-48900454D01*
X48411826Y-48922098D01*
X48640075Y-48987818D01*
X48913355Y-49074300D01*
X49206412Y-49172925D01*
X49493990Y-49275071D01*
X49750834Y-49372119D01*
X49951690Y-49455449D01*
X50079681Y-49512657D01*
X50258976Y-49592171D01*
X50377542Y-49643325D01*
X50448531Y-49671516D01*
X50485092Y-49682139D01*
X50500375Y-49680590D01*
X50506068Y-49679040D01*
X50544858Y-49708724D01*
X50576444Y-49736703D01*
X50668688Y-49799630D01*
X50794490Y-49875717D01*
X50871907Y-49921888D01*
X51052288Y-50038279D01*
X51211397Y-50150869D01*
X51293278Y-50207612D01*
X51393857Y-50260916D01*
X51451807Y-50269943D01*
X51469834Y-50262219D01*
X51467888Y-50289845D01*
X51459929Y-50310461D01*
X51483257Y-50366069D01*
X51502715Y-50384847D01*
X51528466Y-50462932D01*
X51527773Y-50475925D01*
X51497580Y-50512081D01*
X51408086Y-50501640D01*
X51348373Y-50488898D01*
X51191833Y-50461716D01*
X50976591Y-50428474D01*
X50720940Y-50391705D01*
X50443177Y-50353936D01*
X50161597Y-50317699D01*
X49894494Y-50285523D01*
X49660164Y-50259937D01*
X49514177Y-50245628D01*
X49272608Y-50223709D01*
X48992016Y-50200248D01*
X48662446Y-50174474D01*
X48273941Y-50145614D01*
X47816546Y-50112899D01*
X47280304Y-50075556D01*
X46970491Y-50050560D01*
X46548876Y-50007407D01*
X46111331Y-49953989D01*
X45678810Y-49893285D01*
X45272268Y-49828278D01*
X44912662Y-49761948D01*
X44620946Y-49697276D01*
X44114550Y-49548211D01*
X43493436Y-49309692D01*
X42881360Y-49017344D01*
X42298115Y-48681732D01*
X41763494Y-48313423D01*
X41297292Y-47922983D01*
X41290705Y-47917034D01*
X41574570Y-47917034D01*
X41599552Y-47952577D01*
X41678256Y-48026062D01*
X41794167Y-48122027D01*
X41893151Y-48198842D01*
X42493509Y-48607272D01*
X43152342Y-48961896D01*
X43875764Y-49265692D01*
X44669890Y-49521634D01*
X44949401Y-49595498D01*
X45256774Y-49665781D01*
X45579986Y-49727455D01*
X45929482Y-49781818D01*
X46315710Y-49830166D01*
X46749116Y-49873797D01*
X47240147Y-49914008D01*
X47799250Y-49952096D01*
X48436872Y-49989358D01*
X48695830Y-50004750D01*
X49034360Y-50027773D01*
X49367184Y-50053202D01*
X49666580Y-50078898D01*
X49904823Y-50102718D01*
X50147777Y-50129824D01*
X50387287Y-50156478D01*
X50593512Y-50179362D01*
X50738886Y-50195413D01*
X50850897Y-50205497D01*
X50954635Y-50208976D01*
X50994665Y-50201697D01*
X50979021Y-50183104D01*
X50896002Y-50129303D01*
X50753798Y-50051566D01*
X50566334Y-49956561D01*
X50347533Y-49850957D01*
X50111321Y-49741424D01*
X49871623Y-49634629D01*
X49642364Y-49537242D01*
X49437468Y-49455932D01*
X49230612Y-49380549D01*
X48874856Y-49263239D01*
X48492212Y-49152542D01*
X48074944Y-49046878D01*
X47615318Y-48944669D01*
X47105601Y-48844336D01*
X46538057Y-48744303D01*
X45904953Y-48642989D01*
X45198555Y-48538817D01*
X44411128Y-48430209D01*
X44306220Y-48416027D01*
X43692109Y-48327948D01*
X43137086Y-48239374D01*
X42648587Y-48151629D01*
X42234051Y-48066033D01*
X41900914Y-47983911D01*
X41884263Y-47979352D01*
X41733963Y-47941389D01*
X41623178Y-47918925D01*
X41574847Y-47916692D01*
X41574570Y-47917034D01*
X41290705Y-47917034D01*
X41154405Y-47793933D01*
X41014481Y-47675188D01*
X40908063Y-47592686D01*
X40874698Y-47568243D01*
X40787828Y-47487018D01*
X40764535Y-47429933D01*
X40810826Y-47408374D01*
X40860764Y-47421313D01*
G37*
G36*
X51439499Y-50188584D02*
G01*
X51417257Y-50210825D01*
X51395015Y-50188584D01*
X51417257Y-50166342D01*
X51439499Y-50188584D01*
G37*
G36*
X51439499Y-51789985D02*
G01*
X51417257Y-51812226D01*
X51395015Y-51789985D01*
X51417257Y-51767743D01*
X51439499Y-51789985D01*
G37*
G36*
X51439499Y-51967918D02*
G01*
X51417257Y-51990160D01*
X51395015Y-51967918D01*
X51417257Y-51945677D01*
X51439499Y-51967918D01*
G37*
G36*
X51217082Y-50544451D02*
G01*
X51194840Y-50566692D01*
X51172599Y-50544451D01*
X51194840Y-50522209D01*
X51217082Y-50544451D01*
G37*
G36*
X51128115Y-50499967D02*
G01*
X51105874Y-50522209D01*
X51083632Y-50499967D01*
X51105874Y-50477726D01*
X51128115Y-50499967D01*
G37*
G36*
X50994665Y-50588934D02*
G01*
X50972424Y-50611176D01*
X50950182Y-50588934D01*
X50972424Y-50566692D01*
X50994665Y-50588934D01*
G37*
G36*
X50594315Y-49120983D02*
G01*
X50572073Y-49143225D01*
X50549832Y-49120983D01*
X50572073Y-49098741D01*
X50594315Y-49120983D01*
G37*
G36*
X50594315Y-49476850D02*
G01*
X50572073Y-49499092D01*
X50549832Y-49476850D01*
X50572073Y-49454608D01*
X50594315Y-49476850D01*
G37*
G36*
X50471836Y-52336007D02*
G01*
X50514613Y-52351858D01*
X50548442Y-52401670D01*
X50503136Y-52468073D01*
X50383256Y-52546227D01*
X50193366Y-52631294D01*
X50025484Y-52701415D01*
X49755371Y-52825455D01*
X49436146Y-52981144D01*
X49083032Y-53160583D01*
X48711254Y-53355876D01*
X48336035Y-53559124D01*
X47972599Y-53762429D01*
X47636171Y-53957894D01*
X47285493Y-54162957D01*
X46780773Y-54442005D01*
X46320929Y-54671252D01*
X45891388Y-54854804D01*
X45477577Y-54996768D01*
X45064923Y-55101251D01*
X44638854Y-55172359D01*
X44184797Y-55214200D01*
X43688178Y-55230880D01*
X43134426Y-55226505D01*
X42786723Y-55215001D01*
X42349424Y-55187335D01*
X41996736Y-55146916D01*
X41729368Y-55093897D01*
X41548030Y-55028432D01*
X41453429Y-54950674D01*
X41448555Y-54889414D01*
X41572785Y-54889414D01*
X41579625Y-54906108D01*
X41608676Y-54924637D01*
X41670358Y-54950423D01*
X41843334Y-54990993D01*
X42083704Y-55023543D01*
X42377788Y-55047874D01*
X42711907Y-55063786D01*
X43072382Y-55071077D01*
X43445534Y-55069548D01*
X43817683Y-55058999D01*
X44175150Y-55039228D01*
X44504255Y-55010037D01*
X44791319Y-54971225D01*
X45003426Y-54934201D01*
X45257631Y-54883429D01*
X45494091Y-54826042D01*
X45723180Y-54757572D01*
X45955276Y-54673549D01*
X46200754Y-54569504D01*
X46469991Y-54440967D01*
X46773361Y-54283469D01*
X47121242Y-54092540D01*
X47524009Y-53863710D01*
X47992038Y-53592511D01*
X48201455Y-53471106D01*
X48509019Y-53294968D01*
X48807837Y-53126152D01*
X49080951Y-52974150D01*
X49311401Y-52848452D01*
X49482231Y-52758548D01*
X49949306Y-52521006D01*
X49513918Y-52547098D01*
X49374553Y-52556794D01*
X48808194Y-52623092D01*
X48215181Y-52735507D01*
X47587284Y-52896337D01*
X46916275Y-53107881D01*
X46193924Y-53372434D01*
X45412003Y-53692295D01*
X45287698Y-53745089D01*
X44478666Y-54069286D01*
X43726447Y-54335049D01*
X43024152Y-54544658D01*
X42364893Y-54700390D01*
X42224825Y-54728778D01*
X41969291Y-54781166D01*
X41786408Y-54820432D01*
X41666088Y-54849568D01*
X41598243Y-54871565D01*
X41572785Y-54889414D01*
X41448555Y-54889414D01*
X41446276Y-54860778D01*
X41479207Y-54813417D01*
X41556477Y-54761145D01*
X41684950Y-54707415D01*
X41873783Y-54649048D01*
X42132132Y-54582864D01*
X42469155Y-54505687D01*
X42558833Y-54485740D01*
X42973663Y-54388534D01*
X43360098Y-54288109D01*
X43733555Y-54179230D01*
X44109453Y-54056659D01*
X44503209Y-53915160D01*
X44930241Y-53749494D01*
X45405967Y-53554424D01*
X45945804Y-53324714D01*
X46110953Y-53254030D01*
X46562898Y-53067633D01*
X46965180Y-52914815D01*
X47339095Y-52788731D01*
X47705940Y-52682534D01*
X48087008Y-52589378D01*
X48503597Y-52502416D01*
X48588746Y-52486686D01*
X48834033Y-52448263D01*
X49110577Y-52412555D01*
X49401333Y-52381002D01*
X49689261Y-52355046D01*
X49949306Y-52336693D01*
X49957318Y-52336128D01*
X50188461Y-52325688D01*
X50365648Y-52325167D01*
X50471836Y-52336007D01*
G37*
G36*
X50409508Y-51474353D02*
G01*
X50418564Y-51480263D01*
X50459532Y-51524216D01*
X50441248Y-51545326D01*
X50431243Y-51541350D01*
X50389892Y-51493970D01*
X50379069Y-51469110D01*
X50409508Y-51474353D01*
G37*
G36*
X50416381Y-50455484D02*
G01*
X50394140Y-50477726D01*
X50371898Y-50455484D01*
X50394140Y-50433242D01*
X50416381Y-50455484D01*
G37*
G36*
X50193965Y-50544451D02*
G01*
X50171723Y-50566692D01*
X50149481Y-50544451D01*
X50171723Y-50522209D01*
X50193965Y-50544451D01*
G37*
G36*
X50128547Y-48879535D02*
G01*
X50134654Y-48905980D01*
X50128134Y-48911304D01*
X50075342Y-48905980D01*
X50068383Y-48892600D01*
X50104998Y-48876325D01*
X50128547Y-48879535D01*
G37*
G36*
X49615681Y-48676149D02*
G01*
X49593439Y-48698391D01*
X49571198Y-48676149D01*
X49593439Y-48653908D01*
X49615681Y-48676149D01*
G37*
G36*
X49126364Y-48409249D02*
G01*
X49104122Y-48431491D01*
X49081881Y-48409249D01*
X49104122Y-48387008D01*
X49126364Y-48409249D01*
G37*
G36*
X48903947Y-48320282D02*
G01*
X48881705Y-48342524D01*
X48859464Y-48320282D01*
X48881705Y-48298041D01*
X48903947Y-48320282D01*
G37*
G36*
X48814980Y-48275799D02*
G01*
X48792739Y-48298041D01*
X48770497Y-48275799D01*
X48792739Y-48253557D01*
X48814980Y-48275799D01*
G37*
G36*
X48281180Y-48231316D02*
G01*
X48258938Y-48253557D01*
X48236697Y-48231316D01*
X48258938Y-48209074D01*
X48281180Y-48231316D01*
G37*
G36*
X47302546Y-48097866D02*
G01*
X47280304Y-48120107D01*
X47258063Y-48097866D01*
X47280304Y-48075624D01*
X47302546Y-48097866D01*
G37*
G36*
X46012529Y-52835344D02*
G01*
X46009318Y-52858893D01*
X45982873Y-52864999D01*
X45977549Y-52858480D01*
X45982873Y-52805688D01*
X45996253Y-52798729D01*
X46012529Y-52835344D01*
G37*
D11*
%TO.C,BT1*%
X49022000Y-46736000D02*
X56642000Y-46736000D01*
X52832000Y-42926000D02*
X52832000Y-50546000D01*
X52832000Y-91694000D02*
X52832000Y-99314000D01*
%TD*%
%LPC*%
D12*
%TO.C,J1*%
X57198800Y-25860000D03*
X57198800Y-22060000D03*
X48558800Y-25860000D03*
X48558800Y-22060000D03*
%TD*%
D13*
%TO.C,BT1*%
X52832000Y-32004000D03*
X52832000Y-111252000D03*
%TD*%
%LPD*%
M02*
