%TF.GenerationSoftware,KiCad,Pcbnew,9.0.3*%
%TF.CreationDate,2025-10-02T21:49:32-04:00*%
%TF.ProjectId,Photon,50686f74-6f6e-42e6-9b69-6361645f7063,1.3*%
%TF.SameCoordinates,Original*%
%TF.FileFunction,Copper,L2,Bot*%
%TF.FilePolarity,Positive*%
%FSLAX46Y46*%
G04 Gerber Fmt 4.6, Leading zero omitted, Abs format (unit mm)*
G04 Created by KiCad (PCBNEW 9.0.3) date 2025-10-02 21:49:32*
%MOMM*%
%LPD*%
G01*
G04 APERTURE LIST*
G04 Aperture macros list*
%AMRoundRect*
0 Rectangle with rounded corners*
0 $1 Rounding radius*
0 $2 $3 $4 $5 $6 $7 $8 $9 X,Y pos of 4 corners*
0 Add a 4 corners polygon primitive as box body*
4,1,4,$2,$3,$4,$5,$6,$7,$8,$9,$2,$3,0*
0 Add four circle primitives for the rounded corners*
1,1,$1+$1,$2,$3*
1,1,$1+$1,$4,$5*
1,1,$1+$1,$6,$7*
1,1,$1+$1,$8,$9*
0 Add four rect primitives between the rounded corners*
20,1,$1+$1,$2,$3,$4,$5,0*
20,1,$1+$1,$4,$5,$6,$7,0*
20,1,$1+$1,$6,$7,$8,$9,0*
20,1,$1+$1,$8,$9,$2,$3,0*%
G04 Aperture macros list end*
%TA.AperFunction,HeatsinkPad*%
%ADD10O,1.000000X1.700000*%
%TD*%
%TA.AperFunction,SMDPad,CuDef*%
%ADD11RoundRect,0.735000X-2.940000X3.150000X-2.940000X-3.150000X2.940000X-3.150000X2.940000X3.150000X0*%
%TD*%
%TA.AperFunction,ViaPad*%
%ADD12C,0.700000*%
%TD*%
%TA.AperFunction,Conductor*%
%ADD13C,0.200000*%
%TD*%
%TA.AperFunction,Conductor*%
%ADD14C,0.700000*%
%TD*%
%TA.AperFunction,Conductor*%
%ADD15C,0.500000*%
%TD*%
%TA.AperFunction,Conductor*%
%ADD16C,1.000000*%
%TD*%
G04 APERTURE END LIST*
D10*
%TO.P,J1,S1,SHIELD*%
%TO.N,GND*%
X57198800Y-25860000D03*
X57198800Y-22060000D03*
X48558800Y-25860000D03*
X48558800Y-22060000D03*
%TD*%
D11*
%TO.P,BT1,1,+*%
%TO.N,/Bat+*%
X52832000Y-32004000D03*
%TO.P,BT1,2,-*%
%TO.N,/Bat-*%
X52832000Y-111252000D03*
%TD*%
D12*
%TO.N,/Bat+*%
X54922000Y-35052000D03*
%TO.N,GND*%
X45369137Y-107950000D03*
X45720000Y-35560000D03*
X54356000Y-41976000D03*
X55628800Y-24892000D03*
X52832000Y-66294000D03*
X59262000Y-99314000D03*
X57150000Y-113792000D03*
X60452000Y-41148000D03*
X60071000Y-33401000D03*
X43688000Y-23114000D03*
X60198000Y-94488000D03*
X60452000Y-57912000D03*
X50128800Y-24892000D03*
X48006000Y-31242000D03*
X43688000Y-24892000D03*
X45847000Y-32131000D03*
X49276000Y-105410000D03*
X58928000Y-45720000D03*
X58928000Y-102870000D03*
X57658000Y-71882000D03*
X58975000Y-74808000D03*
%TO.N,PACK_Safe*%
X50527000Y-64281000D03*
X48543380Y-62297380D03*
%TO.N,/SCK*%
X52015896Y-103820103D03*
X53605238Y-102469999D03*
%TO.N,/LED2_EN*%
X48925036Y-102168275D03*
X48768000Y-99426000D03*
%TO.N,/LED1_EN*%
X60414000Y-67564000D03*
X59132930Y-66244930D03*
X47808000Y-103576000D03*
X47244000Y-99314000D03*
%TO.N,+3V3*%
X60071000Y-64643000D03*
X52837896Y-104642104D03*
X61722000Y-66294000D03*
X54356000Y-101170000D03*
%TO.N,/Bat+*%
X51054000Y-39370000D03*
X48436206Y-39370000D03*
%TO.N,/Bat-*%
X52832000Y-111252000D03*
X57824764Y-78652764D03*
X59239686Y-80067686D03*
%TO.N,/PMOS_EN_OUT*%
X56896000Y-36830000D03*
X51054000Y-36576000D03*
%TD*%
D13*
%TO.N,/LED1_EN*%
X60414000Y-67526000D02*
X59132930Y-66244930D01*
X60414000Y-67564000D02*
X60414000Y-67526000D01*
D14*
%TO.N,PACK_Safe*%
X48543380Y-62297380D02*
X50527000Y-64281000D01*
D13*
%TO.N,/SCK*%
X52255134Y-103820103D02*
X53605238Y-102469999D01*
X52015896Y-103820103D02*
X52255134Y-103820103D01*
%TO.N,/LED2_EN*%
X48925036Y-102168275D02*
X48514000Y-101757239D01*
X48514000Y-101757239D02*
X48514000Y-99680000D01*
X48514000Y-99680000D02*
X48768000Y-99426000D01*
%TO.N,/LED1_EN*%
X47244000Y-103012000D02*
X47244000Y-99314000D01*
X47808000Y-103576000D02*
X47244000Y-103012000D01*
%TO.N,+3V3*%
X52837896Y-104642104D02*
X54356000Y-103124000D01*
X54356000Y-103124000D02*
X54356000Y-101170000D01*
D15*
X61722000Y-66294000D02*
X60071000Y-64643000D01*
D14*
%TO.N,/Bat+*%
X48436206Y-39370000D02*
X51054000Y-39370000D01*
D16*
X52289000Y-32223000D02*
X52324000Y-32258000D01*
D14*
%TO.N,/Bat-*%
X57824764Y-78652764D02*
X59239686Y-80067686D01*
D13*
%TO.N,/PMOS_EN_OUT*%
X56642000Y-36576000D02*
X51054000Y-36576000D01*
X56896000Y-36830000D02*
X56642000Y-36576000D01*
%TD*%
%TA.AperFunction,Conductor*%
%TO.N,GND*%
G36*
X48266809Y-20585408D02*
G01*
X48302773Y-20634908D01*
X48302773Y-20696094D01*
X48266809Y-20745594D01*
X48246503Y-20756965D01*
X48085126Y-20823808D01*
X48085114Y-20823814D01*
X47921337Y-20933249D01*
X47921333Y-20933252D01*
X47782052Y-21072533D01*
X47782049Y-21072537D01*
X47672614Y-21236314D01*
X47672608Y-21236326D01*
X47597229Y-21418309D01*
X47597229Y-21418311D01*
X47558800Y-21611506D01*
X47558800Y-21809999D01*
X47558801Y-21810000D01*
X48308800Y-21810000D01*
X48308800Y-22310001D01*
X48308799Y-22310000D01*
X47558801Y-22310000D01*
X47558800Y-22310001D01*
X47558800Y-22508493D01*
X47597229Y-22701688D01*
X47597229Y-22701690D01*
X47672608Y-22883673D01*
X47672614Y-22883685D01*
X47782049Y-23047462D01*
X47782052Y-23047466D01*
X47921333Y-23186747D01*
X47921337Y-23186750D01*
X48085114Y-23296185D01*
X48085126Y-23296191D01*
X48267104Y-23371568D01*
X48267115Y-23371571D01*
X48308800Y-23379862D01*
X48308800Y-22459728D01*
X48346860Y-22551614D01*
X48417186Y-22621940D01*
X48509072Y-22660000D01*
X48608528Y-22660000D01*
X48700414Y-22621940D01*
X48770740Y-22551614D01*
X48808800Y-22459728D01*
X48808800Y-23379861D01*
X48850484Y-23371571D01*
X48850495Y-23371568D01*
X49032473Y-23296191D01*
X49032485Y-23296185D01*
X49196262Y-23186750D01*
X49196266Y-23186747D01*
X49335547Y-23047466D01*
X49335550Y-23047462D01*
X49444985Y-22883685D01*
X49444991Y-22883673D01*
X49520370Y-22701690D01*
X49520370Y-22701688D01*
X49558799Y-22508493D01*
X49558800Y-22508490D01*
X49558800Y-22310001D01*
X49558799Y-22310000D01*
X48808801Y-22310000D01*
X48808800Y-22310001D01*
X48808800Y-21810000D01*
X49558799Y-21810000D01*
X49558800Y-21809999D01*
X49558800Y-21611509D01*
X49558799Y-21611506D01*
X49520370Y-21418311D01*
X49520370Y-21418309D01*
X49444991Y-21236326D01*
X49444985Y-21236314D01*
X49335550Y-21072537D01*
X49335547Y-21072533D01*
X49196266Y-20933252D01*
X49196262Y-20933249D01*
X49032485Y-20823814D01*
X49032473Y-20823808D01*
X48871097Y-20756965D01*
X48824571Y-20717229D01*
X48810287Y-20657734D01*
X48833702Y-20601206D01*
X48885871Y-20569236D01*
X48908982Y-20566501D01*
X56848618Y-20566501D01*
X56906809Y-20585408D01*
X56942773Y-20634908D01*
X56942773Y-20696094D01*
X56906809Y-20745594D01*
X56886503Y-20756965D01*
X56725126Y-20823808D01*
X56725114Y-20823814D01*
X56561337Y-20933249D01*
X56561333Y-20933252D01*
X56422052Y-21072533D01*
X56422049Y-21072537D01*
X56312614Y-21236314D01*
X56312608Y-21236326D01*
X56237229Y-21418309D01*
X56237229Y-21418311D01*
X56198800Y-21611506D01*
X56198800Y-21809999D01*
X56198801Y-21810000D01*
X56948800Y-21810000D01*
X56948800Y-22310001D01*
X56948799Y-22310000D01*
X56198801Y-22310000D01*
X56198800Y-22310001D01*
X56198800Y-22508493D01*
X56237229Y-22701688D01*
X56237229Y-22701690D01*
X56312608Y-22883673D01*
X56312614Y-22883685D01*
X56422049Y-23047462D01*
X56422052Y-23047466D01*
X56561333Y-23186747D01*
X56561337Y-23186750D01*
X56725114Y-23296185D01*
X56725126Y-23296191D01*
X56907104Y-23371568D01*
X56907115Y-23371571D01*
X56948800Y-23379862D01*
X56948800Y-22459728D01*
X56986860Y-22551614D01*
X57057186Y-22621940D01*
X57149072Y-22660000D01*
X57248528Y-22660000D01*
X57340414Y-22621940D01*
X57410740Y-22551614D01*
X57448800Y-22459728D01*
X57448800Y-23379861D01*
X57490484Y-23371571D01*
X57490495Y-23371568D01*
X57672473Y-23296191D01*
X57672485Y-23296185D01*
X57836262Y-23186750D01*
X57836266Y-23186747D01*
X57975547Y-23047466D01*
X57975550Y-23047462D01*
X58084985Y-22883685D01*
X58084991Y-22883673D01*
X58160370Y-22701690D01*
X58160370Y-22701688D01*
X58198799Y-22508493D01*
X58198800Y-22508490D01*
X58198800Y-22310001D01*
X58198799Y-22310000D01*
X57448801Y-22310000D01*
X57448800Y-22310001D01*
X57448800Y-21810000D01*
X58198799Y-21810000D01*
X58198800Y-21809999D01*
X58198800Y-21611509D01*
X58198799Y-21611506D01*
X58160370Y-21418311D01*
X58160370Y-21418309D01*
X58084991Y-21236326D01*
X58084985Y-21236314D01*
X57975550Y-21072537D01*
X57975547Y-21072533D01*
X57836266Y-20933252D01*
X57836262Y-20933249D01*
X57672485Y-20823814D01*
X57672473Y-20823808D01*
X57511097Y-20756965D01*
X57464571Y-20717229D01*
X57450287Y-20657734D01*
X57473702Y-20601206D01*
X57525871Y-20569236D01*
X57548982Y-20566501D01*
X61087975Y-20566501D01*
X61093527Y-20566657D01*
X61370408Y-20582210D01*
X61381439Y-20583453D01*
X61652120Y-20629446D01*
X61662928Y-20631912D01*
X61926786Y-20707932D01*
X61937235Y-20711588D01*
X62190905Y-20816665D01*
X62200899Y-20821478D01*
X62441146Y-20954260D01*
X62441206Y-20954293D01*
X62450603Y-20960198D01*
X62674524Y-21119081D01*
X62683195Y-21125996D01*
X62887928Y-21308959D01*
X62895762Y-21316793D01*
X62986481Y-21418309D01*
X63078719Y-21521525D01*
X63085641Y-21530205D01*
X63244520Y-21754126D01*
X63250426Y-21763526D01*
X63383233Y-22003824D01*
X63388050Y-22013827D01*
X63493115Y-22267480D01*
X63496782Y-22277958D01*
X63549149Y-22459728D01*
X63563197Y-22508490D01*
X63572792Y-22541793D01*
X63575262Y-22552617D01*
X63621250Y-22823291D01*
X63622493Y-22834323D01*
X63638039Y-23111148D01*
X63638195Y-23116843D01*
X63507604Y-112703004D01*
X63507604Y-112703006D01*
X63507594Y-112709754D01*
X63507500Y-112710108D01*
X63507500Y-112773355D01*
X63507495Y-112773368D01*
X63507344Y-112778760D01*
X63491793Y-113055679D01*
X63490550Y-113066711D01*
X63444561Y-113337386D01*
X63442091Y-113348210D01*
X63366081Y-113612045D01*
X63362414Y-113622524D01*
X63257344Y-113876184D01*
X63252527Y-113886186D01*
X63119719Y-114126485D01*
X63113812Y-114135886D01*
X62954933Y-114359804D01*
X62948012Y-114368483D01*
X62765060Y-114573209D01*
X62757209Y-114581060D01*
X62552483Y-114764012D01*
X62543804Y-114770933D01*
X62319886Y-114929812D01*
X62310485Y-114935719D01*
X62070186Y-115068527D01*
X62060184Y-115073344D01*
X61806524Y-115178414D01*
X61796045Y-115182081D01*
X61532210Y-115258091D01*
X61521386Y-115260561D01*
X61250711Y-115306550D01*
X61239679Y-115307793D01*
X60962778Y-115323344D01*
X60957227Y-115323500D01*
X56400134Y-115323500D01*
X56341943Y-115304593D01*
X56305979Y-115255093D01*
X56305979Y-115193907D01*
X56337831Y-115147563D01*
X56377591Y-115115364D01*
X56437142Y-115067142D01*
X56560898Y-114914316D01*
X56650175Y-114739100D01*
X56701072Y-114549151D01*
X56707500Y-114467475D01*
X56707499Y-108036526D01*
X56701072Y-107954849D01*
X56650175Y-107764900D01*
X56560898Y-107589684D01*
X56560895Y-107589680D01*
X56560894Y-107589678D01*
X56437146Y-107436863D01*
X56437142Y-107436858D01*
X56437136Y-107436853D01*
X56385777Y-107395263D01*
X56295567Y-107322212D01*
X59437995Y-107322212D01*
X59437995Y-107561787D01*
X59475470Y-107798399D01*
X59527506Y-107958548D01*
X59549503Y-108026247D01*
X59658265Y-108239704D01*
X59799080Y-108433519D01*
X59968481Y-108602920D01*
X60162296Y-108743735D01*
X60375753Y-108852497D01*
X60603596Y-108926528D01*
X60603597Y-108926528D01*
X60603600Y-108926529D01*
X60840213Y-108964005D01*
X60840216Y-108964005D01*
X61079787Y-108964005D01*
X61316399Y-108926529D01*
X61316400Y-108926528D01*
X61316404Y-108926528D01*
X61544247Y-108852497D01*
X61757704Y-108743735D01*
X61951519Y-108602920D01*
X62120920Y-108433519D01*
X62261735Y-108239704D01*
X62370497Y-108026247D01*
X62444528Y-107798404D01*
X62449835Y-107764900D01*
X62482005Y-107561787D01*
X62482005Y-107322212D01*
X62444529Y-107085600D01*
X62426028Y-107028659D01*
X62370497Y-106857753D01*
X62261735Y-106644296D01*
X62120920Y-106450481D01*
X61951519Y-106281080D01*
X61757704Y-106140265D01*
X61757703Y-106140264D01*
X61757701Y-106140263D01*
X61544247Y-106031503D01*
X61316399Y-105957470D01*
X61079787Y-105919995D01*
X61079784Y-105919995D01*
X60840216Y-105919995D01*
X60840213Y-105919995D01*
X60603600Y-105957470D01*
X60375752Y-106031503D01*
X60162298Y-106140263D01*
X59968482Y-106281079D01*
X59799079Y-106450482D01*
X59658263Y-106644298D01*
X59549503Y-106857752D01*
X59475470Y-107085600D01*
X59437995Y-107322212D01*
X56295567Y-107322212D01*
X56284321Y-107313105D01*
X56284319Y-107313104D01*
X56284317Y-107313103D01*
X56284316Y-107313102D01*
X56109100Y-107223825D01*
X56109097Y-107223824D01*
X56109098Y-107223824D01*
X56026847Y-107201785D01*
X55919151Y-107172928D01*
X55919147Y-107172927D01*
X55919148Y-107172927D01*
X55871692Y-107169192D01*
X55837475Y-107166500D01*
X55837468Y-107166500D01*
X49826531Y-107166500D01*
X49744853Y-107172927D01*
X49554902Y-107223824D01*
X49379680Y-107313104D01*
X49379678Y-107313105D01*
X49226863Y-107436853D01*
X49226853Y-107436863D01*
X49103105Y-107589678D01*
X49103104Y-107589680D01*
X49013824Y-107764902D01*
X48962927Y-107954853D01*
X48956500Y-108036531D01*
X48956500Y-114467468D01*
X48962927Y-114549146D01*
X48962927Y-114549149D01*
X48962928Y-114549151D01*
X49013825Y-114739100D01*
X49103102Y-114914316D01*
X49103104Y-114914319D01*
X49103105Y-114914321D01*
X49226853Y-115067136D01*
X49226858Y-115067142D01*
X49226863Y-115067146D01*
X49326169Y-115147563D01*
X49359493Y-115198877D01*
X49356290Y-115259979D01*
X49317785Y-115307529D01*
X49263866Y-115323500D01*
X44960773Y-115323500D01*
X44955222Y-115323344D01*
X44678320Y-115307793D01*
X44667288Y-115306550D01*
X44396613Y-115260561D01*
X44385789Y-115258091D01*
X44121954Y-115182081D01*
X44111475Y-115178414D01*
X43857815Y-115073344D01*
X43847813Y-115068527D01*
X43607514Y-114935719D01*
X43598113Y-114929812D01*
X43374195Y-114770933D01*
X43365516Y-114764012D01*
X43270270Y-114678896D01*
X43160782Y-114581052D01*
X43152947Y-114573217D01*
X43042381Y-114449493D01*
X42969987Y-114368483D01*
X42963066Y-114359804D01*
X42804187Y-114135886D01*
X42798280Y-114126485D01*
X42665472Y-113886186D01*
X42660655Y-113876184D01*
X42555585Y-113622524D01*
X42551918Y-113612045D01*
X42475904Y-113348195D01*
X42473441Y-113337401D01*
X42427448Y-113066706D01*
X42426206Y-113055679D01*
X42410656Y-112778778D01*
X42410500Y-112773376D01*
X42410500Y-112773355D01*
X42410500Y-112710108D01*
X42410404Y-112709751D01*
X42409215Y-111894645D01*
X43090637Y-111894645D01*
X43090637Y-112133354D01*
X43127977Y-112369110D01*
X43201742Y-112596134D01*
X43293043Y-112775324D01*
X43310110Y-112808819D01*
X43450416Y-113001933D01*
X43619204Y-113170721D01*
X43812318Y-113311027D01*
X44025003Y-113419395D01*
X44252022Y-113493158D01*
X44252023Y-113493158D01*
X44252026Y-113493159D01*
X44487783Y-113530500D01*
X44487786Y-113530500D01*
X44726491Y-113530500D01*
X44962247Y-113493159D01*
X44962248Y-113493158D01*
X44962252Y-113493158D01*
X45189271Y-113419395D01*
X45401956Y-113311027D01*
X45595070Y-113170721D01*
X45763858Y-113001933D01*
X45904164Y-112808819D01*
X46012532Y-112596134D01*
X46086295Y-112369115D01*
X46092836Y-112327817D01*
X46123637Y-112133354D01*
X46123637Y-111894645D01*
X46086296Y-111658889D01*
X46068795Y-111605026D01*
X46012532Y-111431866D01*
X45904164Y-111219181D01*
X45763858Y-111026067D01*
X45595070Y-110857279D01*
X45401956Y-110716973D01*
X45401955Y-110716972D01*
X45401953Y-110716971D01*
X45189271Y-110608605D01*
X44962247Y-110534840D01*
X44726491Y-110497500D01*
X44726488Y-110497500D01*
X44487786Y-110497500D01*
X44487783Y-110497500D01*
X44252026Y-110534840D01*
X44025002Y-110608605D01*
X43812320Y-110716971D01*
X43619205Y-110857278D01*
X43450415Y-111026068D01*
X43310108Y-111219183D01*
X43201742Y-111431865D01*
X43127977Y-111658889D01*
X43090637Y-111894645D01*
X42409215Y-111894645D01*
X42390765Y-99241525D01*
X46693500Y-99241525D01*
X46693500Y-99386474D01*
X46731017Y-99526489D01*
X46803487Y-99652010D01*
X46803489Y-99652012D01*
X46803491Y-99652015D01*
X46905985Y-99754509D01*
X46905987Y-99754510D01*
X46910574Y-99759097D01*
X46909380Y-99760290D01*
X46939420Y-99803989D01*
X46943500Y-99832116D01*
X46943500Y-103051564D01*
X46963978Y-103127988D01*
X46963980Y-103127992D01*
X47003539Y-103196510D01*
X47229150Y-103422122D01*
X47256927Y-103476638D01*
X47257196Y-103497037D01*
X47257500Y-103497037D01*
X47257500Y-103648474D01*
X47295017Y-103788489D01*
X47367487Y-103914010D01*
X47367489Y-103914012D01*
X47367491Y-103914015D01*
X47469985Y-104016509D01*
X47469987Y-104016510D01*
X47469989Y-104016512D01*
X47595511Y-104088982D01*
X47595512Y-104088982D01*
X47595515Y-104088984D01*
X47735525Y-104126500D01*
X47735526Y-104126500D01*
X47880474Y-104126500D01*
X47880475Y-104126500D01*
X48020485Y-104088984D01*
X48020487Y-104088982D01*
X48020489Y-104088982D01*
X48146010Y-104016512D01*
X48146010Y-104016511D01*
X48146015Y-104016509D01*
X48248509Y-103914015D01*
X48320984Y-103788485D01*
X48331932Y-103747628D01*
X51465396Y-103747628D01*
X51465396Y-103892577D01*
X51502913Y-104032592D01*
X51575383Y-104158113D01*
X51575385Y-104158115D01*
X51575387Y-104158118D01*
X51677881Y-104260612D01*
X51677883Y-104260613D01*
X51677885Y-104260615D01*
X51803407Y-104333085D01*
X51803408Y-104333085D01*
X51803411Y-104333087D01*
X51943421Y-104370603D01*
X51943422Y-104370603D01*
X52088372Y-104370603D01*
X52088372Y-104370602D01*
X52194613Y-104342135D01*
X52255715Y-104345336D01*
X52303265Y-104383841D01*
X52319101Y-104442941D01*
X52315864Y-104463384D01*
X52287396Y-104569629D01*
X52287396Y-104714578D01*
X52324913Y-104854593D01*
X52397383Y-104980114D01*
X52397385Y-104980116D01*
X52397387Y-104980119D01*
X52499881Y-105082613D01*
X52499883Y-105082614D01*
X52499885Y-105082616D01*
X52625407Y-105155086D01*
X52625408Y-105155086D01*
X52625411Y-105155088D01*
X52765421Y-105192604D01*
X52765422Y-105192604D01*
X52910370Y-105192604D01*
X52910371Y-105192604D01*
X53050381Y-105155088D01*
X53050383Y-105155086D01*
X53050385Y-105155086D01*
X53175906Y-105082616D01*
X53175906Y-105082615D01*
X53175911Y-105082613D01*
X53278405Y-104980119D01*
X53350880Y-104854589D01*
X53388396Y-104714579D01*
X53388396Y-104569629D01*
X53388396Y-104563140D01*
X53390082Y-104563140D01*
X53399743Y-104510995D01*
X53416741Y-104488228D01*
X54596460Y-103308511D01*
X54627054Y-103255520D01*
X54636021Y-103239989D01*
X54656500Y-103163562D01*
X54656500Y-101688116D01*
X54675407Y-101629925D01*
X54689642Y-101615313D01*
X54689426Y-101615097D01*
X54694012Y-101610510D01*
X54694015Y-101610509D01*
X54796509Y-101508015D01*
X54868984Y-101382485D01*
X54906500Y-101242475D01*
X54906500Y-101097525D01*
X54868984Y-100957515D01*
X54868982Y-100957512D01*
X54868982Y-100957510D01*
X54796512Y-100831989D01*
X54796510Y-100831987D01*
X54796509Y-100831985D01*
X54694015Y-100729491D01*
X54694012Y-100729489D01*
X54694010Y-100729487D01*
X54568488Y-100657017D01*
X54568489Y-100657017D01*
X54538896Y-100649087D01*
X54428475Y-100619500D01*
X54283525Y-100619500D01*
X54221790Y-100636041D01*
X54143510Y-100657017D01*
X54017989Y-100729487D01*
X53915487Y-100831989D01*
X53843017Y-100957510D01*
X53805500Y-101097525D01*
X53805500Y-101242474D01*
X53843017Y-101382489D01*
X53915487Y-101508010D01*
X53915489Y-101508012D01*
X53915491Y-101508015D01*
X54017985Y-101610509D01*
X54017987Y-101610510D01*
X54022574Y-101615097D01*
X54021380Y-101616290D01*
X54051420Y-101659989D01*
X54055500Y-101688116D01*
X54055500Y-101922822D01*
X54036593Y-101981013D01*
X53987093Y-102016977D01*
X53925907Y-102016977D01*
X53907000Y-102008559D01*
X53817724Y-101957015D01*
X53690114Y-101922822D01*
X53677713Y-101919499D01*
X53532763Y-101919499D01*
X53520362Y-101922822D01*
X53392748Y-101957016D01*
X53267227Y-102029486D01*
X53164725Y-102131988D01*
X53092255Y-102257509D01*
X53054738Y-102397524D01*
X53054738Y-102548963D01*
X53053053Y-102548963D01*
X53043384Y-102601116D01*
X53026388Y-102623876D01*
X52354854Y-103295410D01*
X52300337Y-103323187D01*
X52239905Y-103313616D01*
X52235365Y-103311151D01*
X52228381Y-103307119D01*
X52088371Y-103269603D01*
X51943421Y-103269603D01*
X51881686Y-103286144D01*
X51803406Y-103307120D01*
X51677885Y-103379590D01*
X51575383Y-103482092D01*
X51502913Y-103607613D01*
X51465396Y-103747628D01*
X48331932Y-103747628D01*
X48358500Y-103648475D01*
X48358500Y-103503525D01*
X48320984Y-103363515D01*
X48320982Y-103363512D01*
X48320982Y-103363510D01*
X48248512Y-103237989D01*
X48248510Y-103237987D01*
X48248509Y-103237985D01*
X48146015Y-103135491D01*
X48146012Y-103135489D01*
X48146010Y-103135487D01*
X48020488Y-103063017D01*
X48020489Y-103063017D01*
X47977746Y-103051564D01*
X47880475Y-103025500D01*
X47735525Y-103025500D01*
X47729037Y-103025500D01*
X47729037Y-103023817D01*
X47722867Y-103022673D01*
X47708638Y-103024927D01*
X47693536Y-103017232D01*
X47676874Y-103014142D01*
X47654121Y-102997150D01*
X47573496Y-102916525D01*
X47545719Y-102862008D01*
X47544500Y-102846521D01*
X47544500Y-99832116D01*
X47563407Y-99773925D01*
X47577642Y-99759313D01*
X47577426Y-99759097D01*
X47582012Y-99754510D01*
X47582015Y-99754509D01*
X47684509Y-99652015D01*
X47691193Y-99640438D01*
X48213500Y-99640438D01*
X48213500Y-99645833D01*
X48213500Y-101796803D01*
X48233978Y-101873227D01*
X48233980Y-101873231D01*
X48273539Y-101941749D01*
X48346186Y-102014397D01*
X48373963Y-102068914D01*
X48374232Y-102089312D01*
X48374536Y-102089312D01*
X48374536Y-102240749D01*
X48412053Y-102380764D01*
X48484523Y-102506285D01*
X48484525Y-102506287D01*
X48484527Y-102506290D01*
X48587021Y-102608784D01*
X48587023Y-102608785D01*
X48587025Y-102608787D01*
X48712547Y-102681257D01*
X48712548Y-102681257D01*
X48712551Y-102681259D01*
X48852561Y-102718775D01*
X48852562Y-102718775D01*
X48997510Y-102718775D01*
X48997511Y-102718775D01*
X49137521Y-102681259D01*
X49137523Y-102681257D01*
X49137525Y-102681257D01*
X49263046Y-102608787D01*
X49263046Y-102608786D01*
X49263051Y-102608784D01*
X49365545Y-102506290D01*
X49365548Y-102506285D01*
X49438018Y-102380764D01*
X49438018Y-102380762D01*
X49438020Y-102380760D01*
X49475536Y-102240750D01*
X49475536Y-102095800D01*
X49438020Y-101955790D01*
X49438018Y-101955787D01*
X49438018Y-101955785D01*
X49365548Y-101830264D01*
X49365546Y-101830262D01*
X49365545Y-101830260D01*
X49263051Y-101727766D01*
X49263048Y-101727764D01*
X49263046Y-101727762D01*
X49137524Y-101655292D01*
X49137525Y-101655292D01*
X49107932Y-101647362D01*
X48997511Y-101617775D01*
X48913500Y-101617775D01*
X48855309Y-101598868D01*
X48819345Y-101549368D01*
X48814500Y-101518775D01*
X48814500Y-100059425D01*
X48833407Y-100001234D01*
X48882907Y-99965270D01*
X48887858Y-99963803D01*
X48980485Y-99938984D01*
X48980487Y-99938982D01*
X48980489Y-99938982D01*
X49106010Y-99866512D01*
X49106010Y-99866511D01*
X49106015Y-99866509D01*
X49208509Y-99764015D01*
X49211224Y-99759313D01*
X49280982Y-99638489D01*
X49280982Y-99638487D01*
X49280984Y-99638485D01*
X49318500Y-99498475D01*
X49318500Y-99353525D01*
X49280984Y-99213515D01*
X49280982Y-99213512D01*
X49280982Y-99213510D01*
X49208512Y-99087989D01*
X49208510Y-99087987D01*
X49208509Y-99087985D01*
X49106015Y-98985491D01*
X49106012Y-98985489D01*
X49106010Y-98985487D01*
X48980488Y-98913017D01*
X48980489Y-98913017D01*
X48950896Y-98905087D01*
X48840475Y-98875500D01*
X48695525Y-98875500D01*
X48633790Y-98892041D01*
X48555510Y-98913017D01*
X48429989Y-98985487D01*
X48327487Y-99087989D01*
X48255017Y-99213510D01*
X48217500Y-99353525D01*
X48217500Y-99498474D01*
X48227654Y-99536371D01*
X48227654Y-99577979D01*
X48228215Y-99585422D01*
X48227947Y-99586522D01*
X48213500Y-99640438D01*
X47691193Y-99640438D01*
X47722957Y-99585422D01*
X47723519Y-99584449D01*
X47756982Y-99526489D01*
X47756982Y-99526487D01*
X47756984Y-99526485D01*
X47794500Y-99386475D01*
X47794500Y-99241525D01*
X47756984Y-99101515D01*
X47756982Y-99101512D01*
X47756982Y-99101510D01*
X47684512Y-98975989D01*
X47684510Y-98975987D01*
X47684509Y-98975985D01*
X47582015Y-98873491D01*
X47582012Y-98873489D01*
X47582010Y-98873487D01*
X47456488Y-98801017D01*
X47456489Y-98801017D01*
X47426896Y-98793087D01*
X47316475Y-98763500D01*
X47171525Y-98763500D01*
X47109790Y-98780041D01*
X47031510Y-98801017D01*
X46905989Y-98873487D01*
X46803487Y-98975989D01*
X46731017Y-99101510D01*
X46693500Y-99241525D01*
X42390765Y-99241525D01*
X42385233Y-95447273D01*
X42384771Y-95130645D01*
X43090637Y-95130645D01*
X43090637Y-95369354D01*
X43127977Y-95605110D01*
X43127979Y-95605115D01*
X43201742Y-95832134D01*
X43310110Y-96044819D01*
X43450416Y-96237933D01*
X43619204Y-96406721D01*
X43812318Y-96547027D01*
X44025003Y-96655395D01*
X44252022Y-96729158D01*
X44252023Y-96729158D01*
X44252026Y-96729159D01*
X44487783Y-96766500D01*
X44487786Y-96766500D01*
X44726491Y-96766500D01*
X44962247Y-96729159D01*
X44962248Y-96729158D01*
X44962252Y-96729158D01*
X45189271Y-96655395D01*
X45401956Y-96547027D01*
X45595070Y-96406721D01*
X45763858Y-96237933D01*
X45904164Y-96044819D01*
X46012532Y-95832134D01*
X46086295Y-95605115D01*
X46092836Y-95563817D01*
X46123637Y-95369354D01*
X46123637Y-95130645D01*
X46086296Y-94894889D01*
X46068795Y-94841026D01*
X46012532Y-94667866D01*
X45904164Y-94455181D01*
X45763858Y-94262067D01*
X45595070Y-94093279D01*
X45401956Y-93952973D01*
X45401955Y-93952972D01*
X45401953Y-93952971D01*
X45189271Y-93844605D01*
X44962247Y-93770840D01*
X44726491Y-93733500D01*
X44726488Y-93733500D01*
X44487786Y-93733500D01*
X44487783Y-93733500D01*
X44252026Y-93770840D01*
X44025002Y-93844605D01*
X43812320Y-93952971D01*
X43619205Y-94093278D01*
X43450415Y-94262068D01*
X43310108Y-94455183D01*
X43201742Y-94667865D01*
X43127977Y-94894889D01*
X43090637Y-95130645D01*
X42384771Y-95130645D01*
X42384766Y-95126903D01*
X42363555Y-80580669D01*
X42360638Y-78580290D01*
X57274264Y-78580290D01*
X57274264Y-78725238D01*
X57311780Y-78865249D01*
X57384254Y-78990779D01*
X58901671Y-80508196D01*
X59027201Y-80580670D01*
X59167211Y-80618186D01*
X59167212Y-80618186D01*
X59312160Y-80618186D01*
X59312161Y-80618186D01*
X59452171Y-80580670D01*
X59577701Y-80508196D01*
X59680196Y-80405701D01*
X59752670Y-80280171D01*
X59790186Y-80140160D01*
X59790186Y-79995212D01*
X59752670Y-79855201D01*
X59680196Y-79729671D01*
X58162779Y-78212254D01*
X58037249Y-78139780D01*
X57897239Y-78102264D01*
X57752289Y-78102264D01*
X57612279Y-78139780D01*
X57486749Y-78212254D01*
X57384254Y-78314749D01*
X57311780Y-78440279D01*
X57274264Y-78580290D01*
X42360638Y-78580290D01*
X42342546Y-66172455D01*
X58582430Y-66172455D01*
X58582430Y-66317405D01*
X58595724Y-66367019D01*
X58619947Y-66457419D01*
X58692417Y-66582940D01*
X58692419Y-66582942D01*
X58692421Y-66582945D01*
X58794915Y-66685439D01*
X58794917Y-66685440D01*
X58794919Y-66685442D01*
X58920441Y-66757912D01*
X58920442Y-66757912D01*
X58920445Y-66757914D01*
X59060455Y-66795430D01*
X59060456Y-66795430D01*
X59211894Y-66795430D01*
X59211894Y-66797117D01*
X59264033Y-66806775D01*
X59286808Y-66823779D01*
X59842325Y-67379296D01*
X59870102Y-67433813D01*
X59867949Y-67474919D01*
X59863500Y-67491525D01*
X59863500Y-67636474D01*
X59901017Y-67776489D01*
X59973487Y-67902010D01*
X59973489Y-67902012D01*
X59973491Y-67902015D01*
X60075985Y-68004509D01*
X60075987Y-68004510D01*
X60075989Y-68004512D01*
X60201511Y-68076982D01*
X60201512Y-68076982D01*
X60201515Y-68076984D01*
X60341525Y-68114500D01*
X60341526Y-68114500D01*
X60486474Y-68114500D01*
X60486475Y-68114500D01*
X60626485Y-68076984D01*
X60626487Y-68076982D01*
X60626489Y-68076982D01*
X60752010Y-68004512D01*
X60752010Y-68004511D01*
X60752015Y-68004509D01*
X60854509Y-67902015D01*
X60926984Y-67776485D01*
X60964500Y-67636475D01*
X60964500Y-67491525D01*
X60926984Y-67351515D01*
X60926982Y-67351512D01*
X60926982Y-67351510D01*
X60854512Y-67225989D01*
X60854510Y-67225987D01*
X60854509Y-67225985D01*
X60752015Y-67123491D01*
X60752012Y-67123489D01*
X60752010Y-67123487D01*
X60626488Y-67051017D01*
X60626489Y-67051017D01*
X60596896Y-67043087D01*
X60486475Y-67013500D01*
X60367479Y-67013500D01*
X60309288Y-66994593D01*
X60297475Y-66984504D01*
X59711779Y-66398808D01*
X59684002Y-66344291D01*
X59683736Y-66323894D01*
X59683430Y-66323894D01*
X59683430Y-66172455D01*
X59659061Y-66081510D01*
X59645914Y-66032445D01*
X59645912Y-66032442D01*
X59645912Y-66032440D01*
X59573442Y-65906919D01*
X59573440Y-65906917D01*
X59573439Y-65906915D01*
X59470945Y-65804421D01*
X59470942Y-65804419D01*
X59470940Y-65804417D01*
X59345418Y-65731947D01*
X59345419Y-65731947D01*
X59315826Y-65724017D01*
X59205405Y-65694430D01*
X59060455Y-65694430D01*
X58998720Y-65710971D01*
X58920440Y-65731947D01*
X58794919Y-65804417D01*
X58692417Y-65906919D01*
X58619947Y-66032440D01*
X58584130Y-66166110D01*
X58582430Y-66172455D01*
X42342546Y-66172455D01*
X42337206Y-62509864D01*
X42336790Y-62224906D01*
X47992880Y-62224906D01*
X47992880Y-62369854D01*
X48030396Y-62509865D01*
X48102870Y-62635395D01*
X50188985Y-64721510D01*
X50314515Y-64793984D01*
X50454525Y-64831500D01*
X50454526Y-64831500D01*
X50599474Y-64831500D01*
X50599475Y-64831500D01*
X50739485Y-64793984D01*
X50865015Y-64721510D01*
X50967510Y-64619015D01*
X50995505Y-64570525D01*
X59520500Y-64570525D01*
X59520500Y-64715474D01*
X59558017Y-64855489D01*
X59630487Y-64981010D01*
X59630489Y-64981012D01*
X59630491Y-64981015D01*
X59732985Y-65083509D01*
X59732987Y-65083510D01*
X59732989Y-65083512D01*
X59858511Y-65155982D01*
X59858509Y-65155982D01*
X59858513Y-65155983D01*
X59858515Y-65155984D01*
X59953602Y-65181462D01*
X59997981Y-65207084D01*
X61157915Y-66367019D01*
X61183536Y-66411396D01*
X61209016Y-66506485D01*
X61209017Y-66506487D01*
X61209018Y-66506490D01*
X61281487Y-66632010D01*
X61281489Y-66632012D01*
X61281491Y-66632015D01*
X61383985Y-66734509D01*
X61383987Y-66734510D01*
X61383989Y-66734512D01*
X61509511Y-66806982D01*
X61509512Y-66806982D01*
X61509515Y-66806984D01*
X61649525Y-66844500D01*
X61649526Y-66844500D01*
X61794474Y-66844500D01*
X61794475Y-66844500D01*
X61934485Y-66806984D01*
X61934487Y-66806982D01*
X61934489Y-66806982D01*
X62060010Y-66734512D01*
X62060010Y-66734511D01*
X62060015Y-66734509D01*
X62162509Y-66632015D01*
X62234984Y-66506485D01*
X62272500Y-66366475D01*
X62272500Y-66221525D01*
X62234984Y-66081515D01*
X62234982Y-66081512D01*
X62234982Y-66081510D01*
X62162512Y-65955989D01*
X62162510Y-65955987D01*
X62162509Y-65955985D01*
X62060015Y-65853491D01*
X62060012Y-65853489D01*
X62060010Y-65853487D01*
X61934490Y-65781018D01*
X61934487Y-65781017D01*
X61934485Y-65781016D01*
X61839396Y-65755536D01*
X61795019Y-65729915D01*
X60635084Y-64569981D01*
X60609462Y-64525602D01*
X60583984Y-64430515D01*
X60583982Y-64430512D01*
X60583982Y-64430510D01*
X60511512Y-64304989D01*
X60511510Y-64304987D01*
X60511509Y-64304985D01*
X60409015Y-64202491D01*
X60409012Y-64202489D01*
X60409010Y-64202487D01*
X60283488Y-64130017D01*
X60283489Y-64130017D01*
X60253896Y-64122087D01*
X60143475Y-64092500D01*
X59998525Y-64092500D01*
X59936790Y-64109041D01*
X59858510Y-64130017D01*
X59732989Y-64202487D01*
X59630487Y-64304989D01*
X59558017Y-64430510D01*
X59520500Y-64570525D01*
X50995505Y-64570525D01*
X51039984Y-64493485D01*
X51041343Y-64488413D01*
X51077500Y-64353475D01*
X51077500Y-64208525D01*
X51039984Y-64068515D01*
X50967510Y-63942985D01*
X48881395Y-61856870D01*
X48755865Y-61784396D01*
X48615855Y-61746880D01*
X48470905Y-61746880D01*
X48330895Y-61784396D01*
X48205365Y-61856870D01*
X48102870Y-61959365D01*
X48030396Y-62084895D01*
X47992880Y-62224906D01*
X42336790Y-62224906D01*
X42336781Y-62218561D01*
X42303359Y-39297525D01*
X47885706Y-39297525D01*
X47885706Y-39442474D01*
X47923223Y-39582489D01*
X47995693Y-39708010D01*
X47995695Y-39708012D01*
X47995697Y-39708015D01*
X48098191Y-39810509D01*
X48098193Y-39810510D01*
X48098195Y-39810512D01*
X48223717Y-39882982D01*
X48223718Y-39882982D01*
X48223721Y-39882984D01*
X48363731Y-39920500D01*
X48363732Y-39920500D01*
X51126474Y-39920500D01*
X51126475Y-39920500D01*
X51266485Y-39882984D01*
X51266487Y-39882982D01*
X51266489Y-39882982D01*
X51392010Y-39810512D01*
X51392010Y-39810511D01*
X51392015Y-39810509D01*
X51494509Y-39708015D01*
X51566984Y-39582485D01*
X51604500Y-39442475D01*
X51604500Y-39297525D01*
X51566984Y-39157515D01*
X51566982Y-39157512D01*
X51566982Y-39157510D01*
X51494512Y-39031989D01*
X51494510Y-39031987D01*
X51494509Y-39031985D01*
X51392015Y-38929491D01*
X51392012Y-38929489D01*
X51392010Y-38929487D01*
X51266488Y-38857017D01*
X51266489Y-38857017D01*
X51236896Y-38849087D01*
X51126475Y-38819500D01*
X48363731Y-38819500D01*
X48301996Y-38836041D01*
X48223716Y-38857017D01*
X48098195Y-38929487D01*
X47995693Y-39031989D01*
X47923223Y-39157510D01*
X47885706Y-39297525D01*
X42303359Y-39297525D01*
X42303350Y-39291180D01*
X42288036Y-28788531D01*
X48956500Y-28788531D01*
X48956500Y-35219468D01*
X48962927Y-35301146D01*
X48962927Y-35301149D01*
X48962928Y-35301151D01*
X49013825Y-35491100D01*
X49103102Y-35666316D01*
X49103104Y-35666319D01*
X49103105Y-35666321D01*
X49226853Y-35819136D01*
X49226858Y-35819142D01*
X49226863Y-35819146D01*
X49379678Y-35942894D01*
X49379680Y-35942895D01*
X49379684Y-35942898D01*
X49554900Y-36032175D01*
X49744849Y-36083072D01*
X49826525Y-36089500D01*
X50527746Y-36089499D01*
X50585937Y-36108406D01*
X50621901Y-36157906D01*
X50621901Y-36219092D01*
X50613482Y-36237999D01*
X50541017Y-36363510D01*
X50503500Y-36503525D01*
X50503500Y-36648474D01*
X50541017Y-36788489D01*
X50613487Y-36914010D01*
X50613489Y-36914012D01*
X50613491Y-36914015D01*
X50715985Y-37016509D01*
X50715987Y-37016510D01*
X50715989Y-37016512D01*
X50841511Y-37088982D01*
X50841512Y-37088982D01*
X50841515Y-37088984D01*
X50981525Y-37126500D01*
X50981526Y-37126500D01*
X51126474Y-37126500D01*
X51126475Y-37126500D01*
X51266485Y-37088984D01*
X51266487Y-37088982D01*
X51266489Y-37088982D01*
X51392010Y-37016512D01*
X51392010Y-37016511D01*
X51392015Y-37016509D01*
X51494509Y-36914015D01*
X51494510Y-36914012D01*
X51499097Y-36909426D01*
X51500290Y-36910619D01*
X51543989Y-36880580D01*
X51572116Y-36876500D01*
X56262575Y-36876500D01*
X56320766Y-36895407D01*
X56356730Y-36944907D01*
X56358196Y-36949858D01*
X56380034Y-37031356D01*
X56383017Y-37042489D01*
X56455487Y-37168010D01*
X56455489Y-37168012D01*
X56455491Y-37168015D01*
X56557985Y-37270509D01*
X56557987Y-37270510D01*
X56557989Y-37270512D01*
X56683511Y-37342982D01*
X56683512Y-37342982D01*
X56683515Y-37342984D01*
X56823525Y-37380500D01*
X56823526Y-37380500D01*
X56968474Y-37380500D01*
X56968475Y-37380500D01*
X57108485Y-37342984D01*
X57108487Y-37342982D01*
X57108489Y-37342982D01*
X57234010Y-37270512D01*
X57234010Y-37270511D01*
X57234015Y-37270509D01*
X57336509Y-37168015D01*
X57408984Y-37042485D01*
X57446500Y-36902475D01*
X57446500Y-36757525D01*
X57408984Y-36617515D01*
X57408982Y-36617512D01*
X57408982Y-36617510D01*
X57336512Y-36491989D01*
X57336510Y-36491987D01*
X57336509Y-36491985D01*
X57234015Y-36389491D01*
X57234012Y-36389489D01*
X57234010Y-36389487D01*
X57108488Y-36317017D01*
X57108489Y-36317017D01*
X57032729Y-36296717D01*
X56968475Y-36279500D01*
X56823525Y-36279500D01*
X56806341Y-36284104D01*
X56785626Y-36289654D01*
X56734384Y-36289653D01*
X56681562Y-36275500D01*
X55952978Y-36275500D01*
X55894787Y-36256593D01*
X55858823Y-36207093D01*
X55858823Y-36145907D01*
X55894787Y-36096407D01*
X55927351Y-36080874D01*
X56109100Y-36032175D01*
X56284316Y-35942898D01*
X56437142Y-35819142D01*
X56560898Y-35666316D01*
X56650175Y-35491100D01*
X56701072Y-35301151D01*
X56707500Y-35219475D01*
X56707499Y-28788526D01*
X56701072Y-28706849D01*
X56650175Y-28516900D01*
X56560898Y-28341684D01*
X56560895Y-28341680D01*
X56560894Y-28341678D01*
X56437146Y-28188863D01*
X56437142Y-28188858D01*
X56437136Y-28188853D01*
X56284321Y-28065105D01*
X56284319Y-28065104D01*
X56284317Y-28065103D01*
X56284316Y-28065102D01*
X56109100Y-27975825D01*
X56109097Y-27975824D01*
X56109098Y-27975824D01*
X56026847Y-27953785D01*
X55919151Y-27924928D01*
X55919147Y-27924927D01*
X55919148Y-27924927D01*
X55871692Y-27921192D01*
X55837475Y-27918500D01*
X55837468Y-27918500D01*
X49826531Y-27918500D01*
X49744853Y-27924927D01*
X49554902Y-27975824D01*
X49379680Y-28065104D01*
X49379678Y-28065105D01*
X49226863Y-28188853D01*
X49226853Y-28188863D01*
X49103105Y-28341678D01*
X49103104Y-28341680D01*
X49013824Y-28516902D01*
X48962927Y-28706853D01*
X48956500Y-28788531D01*
X42288036Y-28788531D01*
X42288033Y-28786725D01*
X42284070Y-26069137D01*
X42283111Y-25411506D01*
X47558800Y-25411506D01*
X47558800Y-25609999D01*
X47558801Y-25610000D01*
X48308799Y-25610000D01*
X48308800Y-25609999D01*
X48308800Y-26110001D01*
X48308799Y-26110000D01*
X47558801Y-26110000D01*
X47558800Y-26110001D01*
X47558800Y-26308493D01*
X47597229Y-26501688D01*
X47597229Y-26501690D01*
X47672608Y-26683673D01*
X47672614Y-26683685D01*
X47782049Y-26847462D01*
X47782052Y-26847466D01*
X47921333Y-26986747D01*
X47921337Y-26986750D01*
X48085114Y-27096185D01*
X48085126Y-27096191D01*
X48267104Y-27171568D01*
X48267115Y-27171571D01*
X48308800Y-27179862D01*
X48308800Y-26259728D01*
X48346860Y-26351614D01*
X48417186Y-26421940D01*
X48509072Y-26460000D01*
X48608528Y-26460000D01*
X48700414Y-26421940D01*
X48770740Y-26351614D01*
X48808800Y-26259728D01*
X48808800Y-27179861D01*
X48850484Y-27171571D01*
X48850495Y-27171568D01*
X49032473Y-27096191D01*
X49032485Y-27096185D01*
X49196262Y-26986750D01*
X49196266Y-26986747D01*
X49335547Y-26847466D01*
X49335550Y-26847462D01*
X49444985Y-26683685D01*
X49444991Y-26683673D01*
X49520370Y-26501690D01*
X49520370Y-26501688D01*
X49558799Y-26308493D01*
X49558800Y-26308490D01*
X49558800Y-26110001D01*
X49558799Y-26110000D01*
X48808801Y-26110000D01*
X48808800Y-26110001D01*
X48808800Y-25609999D01*
X48808801Y-25610000D01*
X49558799Y-25610000D01*
X49558800Y-25609999D01*
X49558800Y-25411509D01*
X49558799Y-25411506D01*
X56198800Y-25411506D01*
X56198800Y-25609999D01*
X56198801Y-25610000D01*
X56948799Y-25610000D01*
X56948800Y-25609999D01*
X56948800Y-26110001D01*
X56948799Y-26110000D01*
X56198801Y-26110000D01*
X56198800Y-26110001D01*
X56198800Y-26308493D01*
X56237229Y-26501688D01*
X56237229Y-26501690D01*
X56312608Y-26683673D01*
X56312614Y-26683685D01*
X56422049Y-26847462D01*
X56422052Y-26847466D01*
X56561333Y-26986747D01*
X56561337Y-26986750D01*
X56725114Y-27096185D01*
X56725126Y-27096191D01*
X56907104Y-27171568D01*
X56907115Y-27171571D01*
X56948800Y-27179862D01*
X56948800Y-26259728D01*
X56986860Y-26351614D01*
X57057186Y-26421940D01*
X57149072Y-26460000D01*
X57248528Y-26460000D01*
X57340414Y-26421940D01*
X57410740Y-26351614D01*
X57448800Y-26259728D01*
X57448800Y-27179861D01*
X57490484Y-27171571D01*
X57490495Y-27171568D01*
X57672473Y-27096191D01*
X57672485Y-27096185D01*
X57836262Y-26986750D01*
X57836266Y-26986747D01*
X57975547Y-26847466D01*
X57975550Y-26847462D01*
X58084985Y-26683685D01*
X58084991Y-26683673D01*
X58160370Y-26501690D01*
X58160370Y-26501688D01*
X58198799Y-26308493D01*
X58198800Y-26308490D01*
X58198800Y-26110001D01*
X58198799Y-26110000D01*
X57448801Y-26110000D01*
X57448800Y-26110001D01*
X57448800Y-25609999D01*
X57448801Y-25610000D01*
X58198799Y-25610000D01*
X58198800Y-25609999D01*
X58198800Y-25411509D01*
X58198799Y-25411506D01*
X58160370Y-25218311D01*
X58160370Y-25218309D01*
X58084991Y-25036326D01*
X58084985Y-25036314D01*
X57975550Y-24872537D01*
X57975547Y-24872533D01*
X57836266Y-24733252D01*
X57836262Y-24733249D01*
X57672485Y-24623814D01*
X57672473Y-24623808D01*
X57490491Y-24548429D01*
X57448800Y-24540136D01*
X57448800Y-25460272D01*
X57410740Y-25368386D01*
X57340414Y-25298060D01*
X57248528Y-25260000D01*
X57149072Y-25260000D01*
X57057186Y-25298060D01*
X56986860Y-25368386D01*
X56948800Y-25460272D01*
X56948800Y-24540136D01*
X56907108Y-24548429D01*
X56725126Y-24623808D01*
X56725114Y-24623814D01*
X56561337Y-24733249D01*
X56561333Y-24733252D01*
X56422052Y-24872533D01*
X56422049Y-24872537D01*
X56312614Y-25036314D01*
X56312608Y-25036326D01*
X56237229Y-25218309D01*
X56237229Y-25218311D01*
X56198800Y-25411506D01*
X49558799Y-25411506D01*
X49520370Y-25218311D01*
X49520370Y-25218309D01*
X49444991Y-25036326D01*
X49444985Y-25036314D01*
X49335550Y-24872537D01*
X49335547Y-24872533D01*
X49196266Y-24733252D01*
X49196262Y-24733249D01*
X49032485Y-24623814D01*
X49032473Y-24623808D01*
X48850491Y-24548429D01*
X48808800Y-24540136D01*
X48808800Y-25460272D01*
X48770740Y-25368386D01*
X48700414Y-25298060D01*
X48608528Y-25260000D01*
X48509072Y-25260000D01*
X48417186Y-25298060D01*
X48346860Y-25368386D01*
X48308800Y-25460272D01*
X48308800Y-24540136D01*
X48267108Y-24548429D01*
X48085126Y-24623808D01*
X48085114Y-24623814D01*
X47921337Y-24733249D01*
X47921333Y-24733252D01*
X47782052Y-24872533D01*
X47782049Y-24872537D01*
X47672614Y-25036314D01*
X47672608Y-25036326D01*
X47597229Y-25218309D01*
X47597229Y-25218311D01*
X47558800Y-25411506D01*
X42283111Y-25411506D01*
X42279765Y-23116834D01*
X42279921Y-23111145D01*
X42283497Y-23047462D01*
X42295467Y-22834312D01*
X42296709Y-22823293D01*
X42342701Y-22552600D01*
X42345170Y-22541784D01*
X42411945Y-22310001D01*
X42421182Y-22277939D01*
X42424845Y-22267472D01*
X42529922Y-22013793D01*
X42534726Y-22003817D01*
X42667549Y-21763488D01*
X42673435Y-21754119D01*
X42832336Y-21530168D01*
X42839240Y-21521510D01*
X43022217Y-21316756D01*
X43030043Y-21308931D01*
X43234743Y-21125999D01*
X43234777Y-21125969D01*
X43243456Y-21119047D01*
X43467383Y-20960159D01*
X43476761Y-20954266D01*
X43717096Y-20821435D01*
X43727063Y-20816635D01*
X43980756Y-20711549D01*
X43991195Y-20707896D01*
X44255066Y-20631873D01*
X44265866Y-20629408D01*
X44536560Y-20583413D01*
X44547582Y-20582171D01*
X44823760Y-20566657D01*
X44829313Y-20566501D01*
X48208618Y-20566501D01*
X48266809Y-20585408D01*
G37*
%TD.AperFunction*%
%TD*%
M02*
