%TF.GenerationSoftware,KiCad,Pcbnew,9.0.3*%
%TF.CreationDate,2025-10-02T21:49:33-04:00*%
%TF.ProjectId,Photon,50686f74-6f6e-42e6-9b69-6361645f7063,1.3*%
%TF.SameCoordinates,Original*%
%TF.FileFunction,Drillmap*%
%TF.FilePolarity,Positive*%
%FSLAX45Y45*%
G04 Gerber Fmt 4.5, Leading zero omitted, Abs format (unit mm)*
G04 Created by KiCad (PCBNEW 9.0.3) date 2025-10-02 21:49:33*
%MOMM*%
%LPD*%
G01*
G04 APERTURE LIST*
%ADD10C,0.200000*%
%ADD11C,0.250000*%
G04 APERTURE END LIST*
D10*
X4191000Y-11277600D02*
X4177926Y-2311400D01*
X4562314Y-9525000D02*
G75*
G02*
X4359114Y-9525000I-101600J0D01*
G01*
X4359114Y-9525000D02*
G75*
G02*
X4562314Y-9525000I101600J0D01*
G01*
X6109074Y-2006600D02*
G75*
G02*
X6413870Y-2311400I-4J-304800D01*
G01*
X6413870Y-2311400D02*
X6400800Y-11277600D01*
X6096000Y-11582400D02*
X4495800Y-11582400D01*
X4562314Y-11201400D02*
G75*
G02*
X4359114Y-11201400I-101600J0D01*
G01*
X4359114Y-11201400D02*
G75*
G02*
X4562314Y-11201400I101600J0D01*
G01*
X4177926Y-2311400D02*
G75*
G02*
X4482726Y-2006596I304804J0D01*
G01*
X6400800Y-11277600D02*
G75*
G02*
X6096000Y-11582400I-304800J0D01*
G01*
X4482726Y-2006600D02*
X6109074Y-2006600D01*
X4495800Y-11582400D02*
G75*
G02*
X4191000Y-11277600I0J304800D01*
G01*
D11*
X6198150Y-10744200D02*
G75*
G02*
X5993849Y-10744200I-102151J0D01*
G01*
X5993849Y-10744200D02*
G75*
G02*
X6198150Y-10744200I102151J0D01*
G01*
D10*
X4428703Y-11903884D02*
X4428703Y-11703884D01*
X4428703Y-11703884D02*
X4476322Y-11703884D01*
X4476322Y-11703884D02*
X4504893Y-11713408D01*
X4504893Y-11713408D02*
X4523941Y-11732455D01*
X4523941Y-11732455D02*
X4533465Y-11751503D01*
X4533465Y-11751503D02*
X4542989Y-11789598D01*
X4542989Y-11789598D02*
X4542989Y-11818169D01*
X4542989Y-11818169D02*
X4533465Y-11856265D01*
X4533465Y-11856265D02*
X4523941Y-11875312D01*
X4523941Y-11875312D02*
X4504893Y-11894360D01*
X4504893Y-11894360D02*
X4476322Y-11903884D01*
X4476322Y-11903884D02*
X4428703Y-11903884D01*
X4628703Y-11903884D02*
X4628703Y-11770550D01*
X4628703Y-11808646D02*
X4638227Y-11789598D01*
X4638227Y-11789598D02*
X4647751Y-11780074D01*
X4647751Y-11780074D02*
X4666798Y-11770550D01*
X4666798Y-11770550D02*
X4685846Y-11770550D01*
X4752512Y-11903884D02*
X4752512Y-11770550D01*
X4752512Y-11703884D02*
X4742989Y-11713408D01*
X4742989Y-11713408D02*
X4752512Y-11722931D01*
X4752512Y-11722931D02*
X4762036Y-11713408D01*
X4762036Y-11713408D02*
X4752512Y-11703884D01*
X4752512Y-11703884D02*
X4752512Y-11722931D01*
X4876322Y-11903884D02*
X4857274Y-11894360D01*
X4857274Y-11894360D02*
X4847751Y-11875312D01*
X4847751Y-11875312D02*
X4847751Y-11703884D01*
X4981084Y-11903884D02*
X4962036Y-11894360D01*
X4962036Y-11894360D02*
X4952512Y-11875312D01*
X4952512Y-11875312D02*
X4952512Y-11703884D01*
X5209655Y-11903884D02*
X5209655Y-11703884D01*
X5209655Y-11703884D02*
X5276322Y-11846741D01*
X5276322Y-11846741D02*
X5342989Y-11703884D01*
X5342989Y-11703884D02*
X5342989Y-11903884D01*
X5523941Y-11903884D02*
X5523941Y-11799122D01*
X5523941Y-11799122D02*
X5514417Y-11780074D01*
X5514417Y-11780074D02*
X5495370Y-11770550D01*
X5495370Y-11770550D02*
X5457274Y-11770550D01*
X5457274Y-11770550D02*
X5438227Y-11780074D01*
X5523941Y-11894360D02*
X5504893Y-11903884D01*
X5504893Y-11903884D02*
X5457274Y-11903884D01*
X5457274Y-11903884D02*
X5438227Y-11894360D01*
X5438227Y-11894360D02*
X5428703Y-11875312D01*
X5428703Y-11875312D02*
X5428703Y-11856265D01*
X5428703Y-11856265D02*
X5438227Y-11837217D01*
X5438227Y-11837217D02*
X5457274Y-11827693D01*
X5457274Y-11827693D02*
X5504893Y-11827693D01*
X5504893Y-11827693D02*
X5523941Y-11818169D01*
X5619179Y-11770550D02*
X5619179Y-11970550D01*
X5619179Y-11780074D02*
X5638227Y-11770550D01*
X5638227Y-11770550D02*
X5676322Y-11770550D01*
X5676322Y-11770550D02*
X5695370Y-11780074D01*
X5695370Y-11780074D02*
X5704893Y-11789598D01*
X5704893Y-11789598D02*
X5714417Y-11808646D01*
X5714417Y-11808646D02*
X5714417Y-11865788D01*
X5714417Y-11865788D02*
X5704893Y-11884836D01*
X5704893Y-11884836D02*
X5695370Y-11894360D01*
X5695370Y-11894360D02*
X5676322Y-11903884D01*
X5676322Y-11903884D02*
X5638227Y-11903884D01*
X5638227Y-11903884D02*
X5619179Y-11894360D01*
X5800131Y-11884836D02*
X5809655Y-11894360D01*
X5809655Y-11894360D02*
X5800131Y-11903884D01*
X5800131Y-11903884D02*
X5790608Y-11894360D01*
X5790608Y-11894360D02*
X5800131Y-11884836D01*
X5800131Y-11884836D02*
X5800131Y-11903884D01*
X5800131Y-11780074D02*
X5809655Y-11789598D01*
X5809655Y-11789598D02*
X5800131Y-11799122D01*
X5800131Y-11799122D02*
X5790608Y-11789598D01*
X5790608Y-11789598D02*
X5800131Y-11780074D01*
X5800131Y-11780074D02*
X5800131Y-11799122D01*
M02*
