M48
INCH
T1C0.0118
T2C0.0197
%
G90
G05
T1
X1.72Y-0.91
X1.72Y-0.98
X1.7862Y-4.25
X1.8Y-1.4
X1.805Y-1.265
X1.86Y-3.91
X1.8822Y-4.0778
X1.89Y-1.23
X1.9069Y-1.55
X1.9112Y-2.4527
X1.92Y-3.9144
X1.9262Y-4.0224
X1.94Y-4.15
X1.9736Y-0.98
X1.9893Y-2.5307
X2.01Y-1.44
X2.01Y-1.55
X2.0479Y-4.0874
X2.08Y-2.61
X2.08Y-4.38
X2.0802Y-4.1198
X2.1104Y-4.0343
X2.14Y-1.6526
X2.14Y-3.9831
X2.1623Y-1.38
X2.1901Y-0.98
X2.24Y-1.45
X2.25Y-4.48
X2.27Y-2.83
X2.2766Y-3.0966
X2.32Y-1.8
X2.32Y-4.05
X2.3219Y-2.9452
X2.3281Y-2.6081
X2.3323Y-3.1523
X2.3331Y-3.91
X2.365Y-1.315
X2.365Y-2.545
X2.37Y-3.72
X2.3785Y-2.66
X2.38Y-1.62
X2.38Y-2.28
X2.43Y-2.61
T2
G00X1.9118Y-0.8823
M15
G01X1.9118Y-0.8547
M16
G05
G00X1.9118Y-1.0319
M15
G01X1.9118Y-1.0043
M16
G05
G00X2.2519Y-0.8823
M15
G01X2.2519Y-0.8547
M16
G05
G00X2.2519Y-1.0319
M15
G01X2.2519Y-1.0043
M16
G05
M30
