%TF.GenerationSoftware,KiCad,Pcbnew,9.0.3*%
%TF.CreationDate,2025-10-02T21:49:32-04:00*%
%TF.ProjectId,Photon,50686f74-6f6e-42e6-9b69-6361645f7063,1.3*%
%TF.SameCoordinates,Original*%
%TF.FileFunction,Copper,L1,Top*%
%TF.FilePolarity,Positive*%
%FSLAX46Y46*%
G04 Gerber Fmt 4.6, Leading zero omitted, Abs format (unit mm)*
G04 Created by KiCad (PCBNEW 9.0.3) date 2025-10-02 21:49:32*
%MOMM*%
%LPD*%
G01*
G04 APERTURE LIST*
G04 Aperture macros list*
%AMRoundRect*
0 Rectangle with rounded corners*
0 $1 Rounding radius*
0 $2 $3 $4 $5 $6 $7 $8 $9 X,Y pos of 4 corners*
0 Add a 4 corners polygon primitive as box body*
4,1,4,$2,$3,$4,$5,$6,$7,$8,$9,$2,$3,0*
0 Add four circle primitives for the rounded corners*
1,1,$1+$1,$2,$3*
1,1,$1+$1,$4,$5*
1,1,$1+$1,$6,$7*
1,1,$1+$1,$8,$9*
0 Add four rect primitives between the rounded corners*
20,1,$1+$1,$2,$3,$4,$5,0*
20,1,$1+$1,$4,$5,$6,$7,0*
20,1,$1+$1,$6,$7,$8,$9,0*
20,1,$1+$1,$8,$9,$2,$3,0*%
G04 Aperture macros list end*
%TA.AperFunction,EtchedComponent*%
%ADD10C,2.259000*%
%TD*%
%TA.AperFunction,SMDPad,CuDef*%
%ADD11RoundRect,0.255000X-0.595000X0.945000X-0.595000X-0.945000X0.595000X-0.945000X0.595000X0.945000X0*%
%TD*%
%TA.AperFunction,SMDPad,CuDef*%
%ADD12RoundRect,0.255000X0.595000X-0.945000X0.595000X0.945000X-0.595000X0.945000X-0.595000X-0.945000X0*%
%TD*%
%TA.AperFunction,SMDPad,CuDef*%
%ADD13C,0.500000*%
%TD*%
%TA.AperFunction,SMDPad,CuDef*%
%ADD14RoundRect,0.150000X-0.725000X-0.150000X0.725000X-0.150000X0.725000X0.150000X-0.725000X0.150000X0*%
%TD*%
%TA.AperFunction,SMDPad,CuDef*%
%ADD15RoundRect,0.200000X-0.200000X-0.275000X0.200000X-0.275000X0.200000X0.275000X-0.200000X0.275000X0*%
%TD*%
%TA.AperFunction,SMDPad,CuDef*%
%ADD16RoundRect,0.225000X0.225000X0.250000X-0.225000X0.250000X-0.225000X-0.250000X0.225000X-0.250000X0*%
%TD*%
%TA.AperFunction,SMDPad,CuDef*%
%ADD17C,1.000000*%
%TD*%
%TA.AperFunction,SMDPad,CuDef*%
%ADD18RoundRect,0.175000X0.175000X0.625000X-0.175000X0.625000X-0.175000X-0.625000X0.175000X-0.625000X0*%
%TD*%
%TA.AperFunction,SMDPad,CuDef*%
%ADD19RoundRect,0.200000X0.200000X0.600000X-0.200000X0.600000X-0.200000X-0.600000X0.200000X-0.600000X0*%
%TD*%
%TA.AperFunction,SMDPad,CuDef*%
%ADD20RoundRect,0.225000X0.225000X0.575000X-0.225000X0.575000X-0.225000X-0.575000X0.225000X-0.575000X0*%
%TD*%
%TA.AperFunction,HeatsinkPad*%
%ADD21O,1.000000X1.700000*%
%TD*%
%TA.AperFunction,SMDPad,CuDef*%
%ADD22RoundRect,0.162500X0.617500X0.162500X-0.617500X0.162500X-0.617500X-0.162500X0.617500X-0.162500X0*%
%TD*%
%TA.AperFunction,SMDPad,CuDef*%
%ADD23RoundRect,0.225000X-0.225000X-0.250000X0.225000X-0.250000X0.225000X0.250000X-0.225000X0.250000X0*%
%TD*%
%TA.AperFunction,SMDPad,CuDef*%
%ADD24RoundRect,0.225000X0.250000X-0.225000X0.250000X0.225000X-0.250000X0.225000X-0.250000X-0.225000X0*%
%TD*%
%TA.AperFunction,SMDPad,CuDef*%
%ADD25RoundRect,0.200000X0.200000X0.275000X-0.200000X0.275000X-0.200000X-0.275000X0.200000X-0.275000X0*%
%TD*%
%TA.AperFunction,SMDPad,CuDef*%
%ADD26RoundRect,0.200000X-0.275000X0.200000X-0.275000X-0.200000X0.275000X-0.200000X0.275000X0.200000X0*%
%TD*%
%TA.AperFunction,SMDPad,CuDef*%
%ADD27RoundRect,0.105000X-0.420000X-0.895000X0.420000X-0.895000X0.420000X0.895000X-0.420000X0.895000X0*%
%TD*%
%TA.AperFunction,SMDPad,CuDef*%
%ADD28RoundRect,0.218750X-0.218750X-0.256250X0.218750X-0.256250X0.218750X0.256250X-0.218750X0.256250X0*%
%TD*%
%TA.AperFunction,SMDPad,CuDef*%
%ADD29RoundRect,0.200000X0.275000X-0.200000X0.275000X0.200000X-0.275000X0.200000X-0.275000X-0.200000X0*%
%TD*%
%TA.AperFunction,SMDPad,CuDef*%
%ADD30RoundRect,0.150000X-0.150000X0.587500X-0.150000X-0.587500X0.150000X-0.587500X0.150000X0.587500X0*%
%TD*%
%TA.AperFunction,SMDPad,CuDef*%
%ADD31RoundRect,0.162500X-0.617500X-0.162500X0.617500X-0.162500X0.617500X0.162500X-0.617500X0.162500X0*%
%TD*%
%TA.AperFunction,SMDPad,CuDef*%
%ADD32RoundRect,0.218750X-0.256250X0.218750X-0.256250X-0.218750X0.256250X-0.218750X0.256250X0.218750X0*%
%TD*%
%TA.AperFunction,SMDPad,CuDef*%
%ADD33RoundRect,0.120000X1.230000X-0.280000X1.230000X0.280000X-1.230000X0.280000X-1.230000X-0.280000X0*%
%TD*%
%TA.AperFunction,SMDPad,CuDef*%
%ADD34RoundRect,0.150000X-0.825000X-0.150000X0.825000X-0.150000X0.825000X0.150000X-0.825000X0.150000X0*%
%TD*%
%TA.AperFunction,HeatsinkPad*%
%ADD35R,2.290000X3.000000*%
%TD*%
%TA.AperFunction,ViaPad*%
%ADD36C,0.700000*%
%TD*%
%TA.AperFunction,Conductor*%
%ADD37C,0.200000*%
%TD*%
%TA.AperFunction,Conductor*%
%ADD38C,0.300000*%
%TD*%
%TA.AperFunction,Conductor*%
%ADD39C,0.500000*%
%TD*%
%TA.AperFunction,Conductor*%
%ADD40C,0.700000*%
%TD*%
G04 APERTURE END LIST*
%TO.C,D6*%
D10*
X53983929Y-90932000D02*
G75*
G02*
X51724929Y-90932000I-1129500J0D01*
G01*
X51724929Y-90932000D02*
G75*
G02*
X53983929Y-90932000I1129500J0D01*
G01*
%TO.C,D5*%
X53961500Y-53594000D02*
G75*
G02*
X51702500Y-53594000I-1129500J0D01*
G01*
X51702500Y-53594000D02*
G75*
G02*
X53961500Y-53594000I1129500J0D01*
G01*
%TD*%
D11*
%TO.P,D6,1,K*%
%TO.N,/OUT_LED2*%
X53616429Y-97282000D03*
%TO.P,D6,2,A*%
%TO.N,+3V3*%
X52092429Y-84582000D03*
%TD*%
D12*
%TO.P,D5,1,K*%
%TO.N,/OUT_LED1*%
X52070000Y-47244000D03*
%TO.P,D5,2,A*%
%TO.N,+3V3*%
X53594000Y-59944000D03*
%TD*%
D13*
%TO.P,FID3,*%
%TO.N,*%
X44704000Y-84836000D03*
%TD*%
%TO.P,FID2,*%
%TO.N,*%
X59944000Y-84836000D03*
%TD*%
D14*
%TO.P,U1,1,~{RESET}/PB5*%
%TO.N,/RESET*%
X50511000Y-101219000D03*
%TO.P,U1,2,PB3*%
%TO.N,/LED2_EN*%
X50511000Y-102489000D03*
%TO.P,U1,3,PB4*%
%TO.N,/LED1_EN*%
X50511000Y-103759000D03*
%TO.P,U1,4,GND*%
%TO.N,GND*%
X50511000Y-105029000D03*
%TO.P,U1,5,PB0*%
%TO.N,/MOSI*%
X55661000Y-105029000D03*
%TO.P,U1,6,PB1*%
%TO.N,/MISO_BTN*%
X55661000Y-103759000D03*
%TO.P,U1,7,PB2*%
%TO.N,/SCK*%
X55661000Y-102489000D03*
%TO.P,U1,8,VCC*%
%TO.N,+3V3*%
X55661000Y-101219000D03*
%TD*%
D15*
%TO.P,R6,1*%
%TO.N,/BUCK_EN*%
X56548000Y-67310000D03*
%TO.P,R6,2*%
%TO.N,/PMOS_EN_OUT*%
X58198000Y-67310000D03*
%TD*%
D16*
%TO.P,C2,1*%
%TO.N,GND*%
X51334000Y-63246000D03*
%TO.P,C2,2*%
%TO.N,PACK_Safe*%
X49784000Y-63246000D03*
%TD*%
D17*
%TO.P,TP7,1,1*%
%TO.N,/MISO_BTN*%
X48514000Y-113792000D03*
%TD*%
%TO.P,TP2,1,1*%
%TO.N,/MOSI*%
X44607137Y-100584000D03*
%TD*%
%TO.P,TP8,1,1*%
%TO.N,/BUCK_EN*%
X54864000Y-69342000D03*
%TD*%
D18*
%TO.P,J1,A5,CC1*%
%TO.N,/CC1*%
X53378800Y-26040000D03*
D19*
%TO.P,J1,A9,VBUS*%
%TO.N,5V*%
X51358800Y-26040000D03*
D20*
%TO.P,J1,A12,GND*%
%TO.N,GND*%
X50128800Y-26040000D03*
D18*
%TO.P,J1,B5,CC2*%
%TO.N,/CC2*%
X52378800Y-26040000D03*
D19*
%TO.P,J1,B9,VBUS*%
%TO.N,5V*%
X54398800Y-26040000D03*
D20*
%TO.P,J1,B12,GND*%
%TO.N,GND*%
X55628800Y-26040000D03*
D21*
%TO.P,J1,S1,SHIELD*%
X57198800Y-25860000D03*
X57198800Y-22060000D03*
X48558800Y-25860000D03*
X48558800Y-22060000D03*
%TD*%
D17*
%TO.P,TP6,1,1*%
%TO.N,5V*%
X59436000Y-23622000D03*
%TD*%
D22*
%TO.P,U6,1,S1*%
%TO.N,/Bat-*%
X57611000Y-76708000D03*
%TO.P,U6,2,D1/D2*%
%TO.N,unconnected-(U6-D1{slash}D2-Pad2)*%
X57611000Y-75758000D03*
%TO.P,U6,3,S2*%
%TO.N,GND*%
X57611000Y-74808000D03*
%TO.P,U6,4,G2*%
%TO.N,/OC*%
X54911000Y-74808000D03*
%TO.P,U6,5,D1/D2*%
%TO.N,unconnected-(U6-D1{slash}D2-Pad5)*%
X54911000Y-75758000D03*
%TO.P,U6,6,G1*%
%TO.N,/OD*%
X54911000Y-76708000D03*
%TD*%
D16*
%TO.P,C4,1*%
%TO.N,/FB*%
X49556000Y-67564000D03*
%TO.P,C4,2*%
%TO.N,+3V3*%
X48006000Y-67564000D03*
%TD*%
D22*
%TO.P,U5,1,OD*%
%TO.N,/OD*%
X52277000Y-76708000D03*
%TO.P,U5,2,VM*%
%TO.N,/VM*%
X52277000Y-75758000D03*
%TO.P,U5,3,OC*%
%TO.N,/OC*%
X52277000Y-74808000D03*
%TO.P,U5,4,TD*%
%TO.N,unconnected-(U5-TD-Pad4)*%
X49577000Y-74808000D03*
%TO.P,U5,5,VCC*%
%TO.N,/DW01A_VCC*%
X49577000Y-75758000D03*
%TO.P,U5,6,GND*%
%TO.N,/Bat-*%
X49577000Y-76708000D03*
%TD*%
D15*
%TO.P,R9,1*%
%TO.N,/FB*%
X51258000Y-69342000D03*
%TO.P,R9,2*%
%TO.N,GND*%
X52908000Y-69342000D03*
%TD*%
D23*
%TO.P,C5,1*%
%TO.N,GND*%
X53086000Y-63246000D03*
%TO.P,C5,2*%
%TO.N,+3V3*%
X54636000Y-63246000D03*
%TD*%
D17*
%TO.P,TP11,1,1*%
%TO.N,/LED2_EN*%
X59944000Y-92456000D03*
%TD*%
D15*
%TO.P,R4,1*%
%TO.N,5V*%
X46543000Y-34568000D03*
%TO.P,R4,2*%
%TO.N,/USB_DSBL*%
X48193000Y-34568000D03*
%TD*%
D17*
%TO.P,TP4,1,1*%
%TO.N,/MISO_BTN*%
X43083137Y-102616000D03*
%TD*%
%TO.P,TP1,1,1*%
%TO.N,GND*%
X44607137Y-108712000D03*
%TD*%
D24*
%TO.P,C1,1*%
%TO.N,GND*%
X58013600Y-102883000D03*
%TO.P,C1,2*%
%TO.N,+3V3*%
X58013600Y-101333000D03*
%TD*%
D22*
%TO.P,U4,1,EN*%
%TO.N,/LED1_EN*%
X58246000Y-43876000D03*
%TO.P,U4,2,OUT*%
%TO.N,/OUT_LED1*%
X58246000Y-42926000D03*
%TO.P,U4,3,OUT*%
X58246000Y-41976000D03*
%TO.P,U4,4,GND*%
%TO.N,GND*%
X55546000Y-41976000D03*
%TO.P,U4,5,OUT*%
%TO.N,/OUT_LED1*%
X55546000Y-42926000D03*
%TO.P,U4,6,Rext*%
%TO.N,/Rext1*%
X55546000Y-43876000D03*
%TD*%
D17*
%TO.P,TP5,1,1*%
%TO.N,/SCK*%
X44607137Y-104648000D03*
%TD*%
D25*
%TO.P,R2,1*%
%TO.N,/CC2*%
X46291000Y-24892000D03*
%TO.P,R2,2*%
%TO.N,GND*%
X44641000Y-24892000D03*
%TD*%
%TO.P,R1,1*%
%TO.N,/CC1*%
X46291000Y-23114000D03*
%TO.P,R1,2*%
%TO.N,GND*%
X44641000Y-23114000D03*
%TD*%
D26*
%TO.P,R16,1*%
%TO.N,/Rext2*%
X61214000Y-96648500D03*
%TO.P,R16,2*%
%TO.N,GND*%
X61214000Y-98298500D03*
%TD*%
D27*
%TO.P,SW1,1,1*%
%TO.N,/MISO_BTN*%
X50546000Y-113792000D03*
%TO.P,SW1,2,2*%
%TO.N,GND*%
X54991000Y-113792000D03*
%TD*%
D28*
%TO.P,D2,1,K*%
%TO.N,/STAT1*%
X57756500Y-30484000D03*
%TO.P,D2,2,A*%
%TO.N,/LED_PWR*%
X59331500Y-30484000D03*
%TD*%
D25*
%TO.P,R10,1*%
%TO.N,/Iset*%
X48193000Y-29996000D03*
%TO.P,R10,2*%
%TO.N,GND*%
X46543000Y-29996000D03*
%TD*%
D15*
%TO.P,R7,1*%
%TO.N,5V*%
X57699000Y-28726000D03*
%TO.P,R7,2*%
%TO.N,/LED_PWR*%
X59349000Y-28726000D03*
%TD*%
D29*
%TO.P,R12,1*%
%TO.N,/LED1_EN*%
X60452000Y-43751000D03*
%TO.P,R12,2*%
%TO.N,GND*%
X60452000Y-42101000D03*
%TD*%
D30*
%TO.P,Q2,1,G*%
%TO.N,/BAT_DSBL*%
X55872000Y-36092000D03*
%TO.P,Q2,2,S*%
%TO.N,PACK_Safe*%
X53972000Y-36092000D03*
%TO.P,Q2,3,D*%
%TO.N,/Bat+*%
X54922000Y-37967000D03*
%TD*%
D31*
%TO.P,U7,1,EN*%
%TO.N,/LED2_EN*%
X56562000Y-96332000D03*
%TO.P,U7,2,OUT*%
%TO.N,/OUT_LED2*%
X56562000Y-97282000D03*
%TO.P,U7,3,OUT*%
X56562000Y-98232000D03*
%TO.P,U7,4,GND*%
%TO.N,GND*%
X59262000Y-98232000D03*
%TO.P,U7,5,OUT*%
%TO.N,/OUT_LED2*%
X59262000Y-97282000D03*
%TO.P,U7,6,Rext*%
%TO.N,/Rext2*%
X59262000Y-96332000D03*
%TD*%
D26*
%TO.P,R14,1*%
%TO.N,/Bat+*%
X47371000Y-72581000D03*
%TO.P,R14,2*%
%TO.N,/DW01A_VCC*%
X47371000Y-74231000D03*
%TD*%
%TO.P,R3,1*%
%TO.N,+3V3*%
X59994800Y-101283000D03*
%TO.P,R3,2*%
%TO.N,/MISO_BTN*%
X59994800Y-102933000D03*
%TD*%
%TO.P,R18,1*%
%TO.N,+3V3*%
X61976000Y-101283000D03*
%TO.P,R18,2*%
%TO.N,/RESET*%
X61976000Y-102933000D03*
%TD*%
D32*
%TO.P,D3,1,K*%
%TO.N,GND*%
X60465000Y-58839500D03*
%TO.P,D3,2,A*%
%TO.N,/LED_A*%
X60465000Y-60414500D03*
%TD*%
D17*
%TO.P,TP9,1,1*%
%TO.N,+3V3*%
X43083137Y-106680000D03*
%TD*%
%TO.P,TP3,1,1*%
%TO.N,/RESET*%
X43083137Y-98552000D03*
%TD*%
D25*
%TO.P,R5,1*%
%TO.N,/USB_DSBL*%
X48193000Y-36346000D03*
%TO.P,R5,2*%
%TO.N,GND*%
X46543000Y-36346000D03*
%TD*%
D33*
%TO.P,L1,1,1*%
%TO.N,/LX*%
X57518600Y-65405000D03*
%TO.P,L1,2,2*%
%TO.N,+3V3*%
X57518600Y-63093600D03*
%TD*%
D29*
%TO.P,R11,1*%
%TO.N,+3V3*%
X60465000Y-63817000D03*
%TO.P,R11,2*%
%TO.N,/LED_A*%
X60465000Y-62167000D03*
%TD*%
D13*
%TO.P,FID1,*%
%TO.N,*%
X44450000Y-41148000D03*
%TD*%
D25*
%TO.P,R19,1*%
%TO.N,/Bat-*%
X59349000Y-35759500D03*
%TO.P,R19,2*%
%TO.N,/BAT_DSBL*%
X57699000Y-35759500D03*
%TD*%
D24*
%TO.P,C7,1*%
%TO.N,/Bat-*%
X47371000Y-77308000D03*
%TO.P,C7,2*%
%TO.N,/DW01A_VCC*%
X47371000Y-75758000D03*
%TD*%
D15*
%TO.P,R8,1*%
%TO.N,+3V3*%
X47956000Y-69342000D03*
%TO.P,R8,2*%
%TO.N,/FB*%
X49606000Y-69342000D03*
%TD*%
D25*
%TO.P,R17,1*%
%TO.N,GND*%
X57611000Y-72964000D03*
%TO.P,R17,2*%
%TO.N,/VM*%
X55961000Y-72964000D03*
%TD*%
D17*
%TO.P,TP10,1,1*%
%TO.N,/LED1_EN*%
X60706000Y-48768000D03*
%TD*%
D22*
%TO.P,U2,1,EN*%
%TO.N,/BUCK_EN*%
X54356000Y-67305000D03*
%TO.P,U2,2,GND*%
%TO.N,GND*%
X54356000Y-66355000D03*
%TO.P,U2,3,LX*%
%TO.N,/LX*%
X54356000Y-65405000D03*
%TO.P,U2,4,Vin*%
%TO.N,PACK_Safe*%
X51656000Y-65405000D03*
%TO.P,U2,5,FB*%
%TO.N,/FB*%
X51656000Y-67305000D03*
%TD*%
D15*
%TO.P,R13,1*%
%TO.N,/Rext1*%
X56325000Y-45720000D03*
%TO.P,R13,2*%
%TO.N,GND*%
X57975000Y-45720000D03*
%TD*%
%TO.P,R15,1*%
%TO.N,/LED2_EN*%
X57595000Y-94488000D03*
%TO.P,R15,2*%
%TO.N,GND*%
X59245000Y-94488000D03*
%TD*%
D28*
%TO.P,D1,1,K*%
%TO.N,/STAT2*%
X57756500Y-32282000D03*
%TO.P,D1,2,A*%
%TO.N,/LED_PWR*%
X59331500Y-32282000D03*
%TD*%
D34*
%TO.P,U3,1*%
%TO.N,N/C*%
X50419000Y-29857000D03*
%TO.P,U3,2,ISET*%
%TO.N,/Iset*%
X50419000Y-31127000D03*
%TO.P,U3,3,VSS*%
%TO.N,GND*%
X50419000Y-32397000D03*
%TO.P,U3,4,VIN*%
%TO.N,5V*%
X50419000Y-33667000D03*
%TO.P,U3,5,VBAT*%
%TO.N,/Bat+*%
X55369000Y-33667000D03*
%TO.P,U3,6,STAT2*%
%TO.N,/STAT2*%
X55369000Y-32397000D03*
%TO.P,U3,7,STAT1*%
%TO.N,/STAT1*%
X55369000Y-31127000D03*
%TO.P,U3,8,EN*%
%TO.N,5V*%
X55369000Y-29857000D03*
D35*
%TO.P,U3,9*%
%TO.N,N/C*%
X52894000Y-31762000D03*
%TD*%
D16*
%TO.P,C6,1*%
%TO.N,GND*%
X59299000Y-34036000D03*
%TO.P,C6,2*%
%TO.N,/Bat+*%
X57749000Y-34036000D03*
%TD*%
D30*
%TO.P,Q1,1,G*%
%TO.N,/USB_DSBL*%
X52062000Y-36092000D03*
%TO.P,Q1,2,S*%
%TO.N,/PMOS_EN_OUT*%
X50162000Y-36092000D03*
%TO.P,Q1,3,D*%
%TO.N,PACK_Safe*%
X51112000Y-37967000D03*
%TD*%
D23*
%TO.P,C3,1*%
%TO.N,GND*%
X46593000Y-32790000D03*
%TO.P,C3,2*%
%TO.N,5V*%
X48143000Y-32790000D03*
%TD*%
D36*
%TO.N,/Bat+*%
X54922000Y-35052000D03*
%TO.N,GND*%
X45369137Y-107950000D03*
X45720000Y-35560000D03*
X54356000Y-41976000D03*
X55628800Y-24892000D03*
X52832000Y-66294000D03*
X59262000Y-99314000D03*
X57150000Y-113792000D03*
X60452000Y-41148000D03*
X60071000Y-33401000D03*
X43688000Y-23114000D03*
X60198000Y-94488000D03*
X60452000Y-57912000D03*
X50128800Y-24892000D03*
X48006000Y-31242000D03*
X43688000Y-24892000D03*
X45847000Y-32131000D03*
X49276000Y-105410000D03*
X58928000Y-45720000D03*
X58928000Y-102870000D03*
X57658000Y-71882000D03*
X58975000Y-74808000D03*
%TO.N,PACK_Safe*%
X50527000Y-64281000D03*
X48543380Y-62297380D03*
%TO.N,/SCK*%
X52015896Y-103820103D03*
X53605238Y-102469999D03*
%TO.N,/LED2_EN*%
X48925036Y-102168275D03*
X48768000Y-99426000D03*
%TO.N,/LED1_EN*%
X60414000Y-67564000D03*
X59132930Y-66244930D03*
X47808000Y-103576000D03*
X47244000Y-99314000D03*
%TO.N,+3V3*%
X60071000Y-64643000D03*
X52837896Y-104642104D03*
X61722000Y-66294000D03*
X54356000Y-101170000D03*
%TO.N,/Bat+*%
X51054000Y-39370000D03*
X48436206Y-39370000D03*
%TO.N,/Bat-*%
X52832000Y-111252000D03*
X57824764Y-78652764D03*
X59239686Y-80067686D03*
%TO.N,/PMOS_EN_OUT*%
X56896000Y-36830000D03*
X51054000Y-36576000D03*
%TD*%
D37*
%TO.N,GND*%
X57658000Y-71882000D02*
X57611000Y-71929000D01*
X57611000Y-71929000D02*
X57611000Y-72964000D01*
%TO.N,5V*%
X54398800Y-24341200D02*
X54398800Y-26040000D01*
X55118000Y-23622000D02*
X54398800Y-24341200D01*
X59436000Y-23622000D02*
X55118000Y-23622000D01*
D38*
%TO.N,GND*%
X43688000Y-24892000D02*
X44641000Y-24892000D01*
X43688000Y-23114000D02*
X44641000Y-23114000D01*
D39*
X60071000Y-33401000D02*
X59436000Y-34036000D01*
X59436000Y-34036000D02*
X59299000Y-34036000D01*
D37*
%TO.N,/Bat-*%
X59690000Y-75946000D02*
X58928000Y-76708000D01*
X59690000Y-67229360D02*
X59690000Y-75946000D01*
X62992000Y-63927360D02*
X59690000Y-67229360D01*
X62992000Y-39402500D02*
X62992000Y-63927360D01*
X59349000Y-35759500D02*
X62992000Y-39402500D01*
X58928000Y-76708000D02*
X57611000Y-76708000D01*
%TO.N,/LED1_EN*%
X51308000Y-81026000D02*
X47244000Y-85090000D01*
X47244000Y-85090000D02*
X47244000Y-99314000D01*
X60107220Y-67870780D02*
X60107220Y-77289548D01*
X60107220Y-77289548D02*
X56370768Y-81026000D01*
X60414000Y-67564000D02*
X60107220Y-67870780D01*
X56370768Y-81026000D02*
X51308000Y-81026000D01*
D39*
%TO.N,+3V3*%
X61214000Y-76962000D02*
X54127400Y-84048600D01*
X61722000Y-66294000D02*
X61214000Y-66802000D01*
X61214000Y-66802000D02*
X61214000Y-76962000D01*
D40*
%TO.N,/Bat+*%
X47371000Y-72009000D02*
X47371000Y-72581000D01*
X46482000Y-71120000D02*
X47371000Y-72009000D01*
X48221103Y-39585103D02*
X48219691Y-39585103D01*
X48219691Y-39585103D02*
X46482000Y-41322794D01*
X48436206Y-39370000D02*
X48221103Y-39585103D01*
X46482000Y-41322794D02*
X46482000Y-71120000D01*
%TO.N,/DW01A_VCC*%
X47371000Y-75758000D02*
X47371000Y-74231000D01*
X49577000Y-75758000D02*
X47371000Y-75758000D01*
D37*
%TO.N,/BAT_DSBL*%
X56204500Y-35759500D02*
X55872000Y-36092000D01*
X57699000Y-35759500D02*
X56204500Y-35759500D01*
D40*
%TO.N,/Bat+*%
X53519000Y-39370000D02*
X51054000Y-39370000D01*
X54922000Y-37967000D02*
X53519000Y-39370000D01*
%TO.N,PACK_Safe*%
X52097000Y-37967000D02*
X53972000Y-36092000D01*
X51112000Y-37967000D02*
X52097000Y-37967000D01*
%TO.N,/Bat+*%
X54922000Y-35052000D02*
X54922000Y-34114000D01*
X54922000Y-34114000D02*
X55369000Y-33667000D01*
X54922000Y-35052000D02*
X54922000Y-37967000D01*
D37*
%TO.N,GND*%
X58928000Y-102870000D02*
X58026600Y-102870000D01*
X46543000Y-36346000D02*
X46506000Y-36346000D01*
D39*
X50419000Y-32397000D02*
X49187242Y-32397000D01*
D37*
X46543000Y-29996000D02*
X46760000Y-29996000D01*
X59328500Y-98298500D02*
X59262000Y-98232000D01*
D39*
X46506000Y-32790000D02*
X46593000Y-32790000D01*
D40*
X55800000Y-41976000D02*
X54356000Y-41976000D01*
D38*
X45369137Y-107950000D02*
X44607137Y-108712000D01*
D39*
X58975000Y-74808000D02*
X57611000Y-74808000D01*
D37*
X46506000Y-36346000D02*
X45720000Y-35560000D01*
D39*
X49187242Y-32397000D02*
X48032242Y-31242000D01*
X48032242Y-31242000D02*
X48006000Y-31242000D01*
D37*
X60198000Y-94488000D02*
X59245000Y-94488000D01*
D38*
X44641000Y-23114000D02*
X44641000Y-24892000D01*
X60465000Y-58839500D02*
X60465000Y-57925000D01*
D37*
X50511000Y-105029000D02*
X49657000Y-105029000D01*
D39*
X45847000Y-32131000D02*
X46506000Y-32790000D01*
D38*
X60465000Y-57925000D02*
X60452000Y-57912000D01*
D37*
X58026600Y-102870000D02*
X58013600Y-102883000D01*
X46760000Y-29996000D02*
X48006000Y-31242000D01*
X58928000Y-45720000D02*
X57975000Y-45720000D01*
X49657000Y-105029000D02*
X49276000Y-105410000D01*
X57611000Y-72964000D02*
X57611000Y-74808000D01*
X61214000Y-98298500D02*
X59328500Y-98298500D01*
D39*
X55628800Y-24892000D02*
X55628800Y-26040000D01*
D37*
X57150000Y-113792000D02*
X54991000Y-113792000D01*
D40*
X59262000Y-98232000D02*
X59262000Y-99314000D01*
D39*
X50128800Y-24892000D02*
X50128800Y-26040000D01*
D37*
X60452000Y-41148000D02*
X60452000Y-42101000D01*
D40*
%TO.N,PACK_Safe*%
X48592897Y-40486103D02*
X48594309Y-40486103D01*
X48594309Y-40486103D02*
X49122103Y-39958309D01*
X49122103Y-39958309D02*
X49122103Y-39956897D01*
X50527000Y-64281000D02*
X51651000Y-65405000D01*
X51651000Y-65405000D02*
X51656000Y-65405000D01*
%TO.N,/Bat+*%
X57380000Y-33667000D02*
X55369000Y-33667000D01*
%TO.N,PACK_Safe*%
X47498000Y-61214000D02*
X47498000Y-41581000D01*
X49784000Y-63538000D02*
X50527000Y-64281000D01*
X49122103Y-39956897D02*
X51112000Y-37967000D01*
X48289380Y-62297380D02*
X48289380Y-62259380D01*
X49784000Y-63246000D02*
X49784000Y-63538000D01*
X47498000Y-41581000D02*
X48592897Y-40486103D01*
%TO.N,/Bat+*%
X57749000Y-34036000D02*
X57380000Y-33667000D01*
%TO.N,PACK_Safe*%
X48543380Y-62259380D02*
X47498000Y-61214000D01*
D37*
%TO.N,/FB*%
X49556000Y-67564000D02*
X49556000Y-69292000D01*
X51651000Y-67305000D02*
X51656000Y-67310000D01*
X49815000Y-67305000D02*
X51651000Y-67305000D01*
X49606000Y-69342000D02*
X51258000Y-69342000D01*
X49556000Y-69292000D02*
X49606000Y-69342000D01*
X49556000Y-67564000D02*
X49815000Y-67305000D01*
D40*
%TO.N,/OUT_LED1*%
X52070000Y-47244000D02*
X52070000Y-44704000D01*
X53848000Y-42926000D02*
X55800000Y-42926000D01*
X58246000Y-42926000D02*
X58246000Y-41976000D01*
X52070000Y-44704000D02*
X53848000Y-42926000D01*
X56067000Y-42926000D02*
X58767000Y-42926000D01*
%TO.N,/OUT_LED2*%
X56562000Y-97282000D02*
X53616429Y-97282000D01*
X56562000Y-97282000D02*
X56562000Y-98232000D01*
X56562000Y-97282000D02*
X59262000Y-97282000D01*
D39*
%TO.N,/LX*%
X53969500Y-65344000D02*
X57457600Y-65344000D01*
X57457600Y-65344000D02*
X57518600Y-65405000D01*
D37*
%TO.N,/SCK*%
X55534000Y-102362000D02*
X55661000Y-102489000D01*
X53713237Y-102362000D02*
X55534000Y-102362000D01*
X53605238Y-102469999D02*
X53713237Y-102362000D01*
X51441999Y-104394000D02*
X44861137Y-104394000D01*
X52015896Y-103820103D02*
X51441999Y-104394000D01*
X44861137Y-104394000D02*
X44607137Y-104648000D01*
%TO.N,/LED2_EN*%
X52413000Y-95781000D02*
X48768000Y-99426000D01*
X57595000Y-93789000D02*
X58928000Y-92456000D01*
X57595000Y-95299000D02*
X57595000Y-94488000D01*
X58928000Y-92456000D02*
X59944000Y-92456000D01*
X56562000Y-96332000D02*
X57595000Y-95299000D01*
X48925036Y-102168275D02*
X49245761Y-102489000D01*
X57595000Y-94488000D02*
X57595000Y-93789000D01*
X49245761Y-102489000D02*
X50511000Y-102489000D01*
X56562000Y-96332000D02*
X56011000Y-95781000D01*
X56011000Y-95781000D02*
X52413000Y-95781000D01*
%TO.N,/LED1_EN*%
X60452000Y-43751000D02*
X60261000Y-43751000D01*
X61722000Y-64008000D02*
X61722000Y-49022000D01*
X61722000Y-49022000D02*
X61722000Y-48768000D01*
X61722000Y-45021000D02*
X60452000Y-43751000D01*
X61468000Y-48768000D02*
X61722000Y-48768000D01*
X61468000Y-48768000D02*
X61722000Y-48514000D01*
X61468000Y-48768000D02*
X61722000Y-49022000D01*
X61722000Y-64008000D02*
X59485070Y-66244930D01*
X60706000Y-48768000D02*
X61468000Y-48768000D01*
X60261000Y-43751000D02*
X60136000Y-43876000D01*
X60136000Y-43876000D02*
X58246000Y-43876000D01*
X61722000Y-48514000D02*
X61722000Y-45021000D01*
X47991000Y-103759000D02*
X50511000Y-103759000D01*
X59485070Y-66244930D02*
X59132930Y-66244930D01*
X61722000Y-48768000D02*
X61722000Y-48514000D01*
X47808000Y-103576000D02*
X47991000Y-103759000D01*
%TO.N,/MOSI*%
X52070000Y-101854000D02*
X49530000Y-101854000D01*
X55245000Y-105029000D02*
X52070000Y-101854000D01*
X48768000Y-101092000D02*
X45115137Y-101092000D01*
X49530000Y-101854000D02*
X48768000Y-101092000D01*
X55661000Y-105029000D02*
X55245000Y-105029000D01*
X45115137Y-101092000D02*
X44607137Y-100584000D01*
%TO.N,/Rext1*%
X56325000Y-45720000D02*
X56325000Y-44401000D01*
X56325000Y-44401000D02*
X55800000Y-43876000D01*
%TO.N,/Rext2*%
X60897500Y-96332000D02*
X59262000Y-96332000D01*
X61214000Y-96648500D02*
X60897500Y-96332000D01*
D39*
%TO.N,+3V3*%
X53594000Y-84582000D02*
X54000400Y-84988400D01*
D37*
X54571103Y-61911103D02*
X54636000Y-61976000D01*
D39*
X59436000Y-63881000D02*
X59436000Y-63627000D01*
X61912000Y-101219000D02*
X55661000Y-101219000D01*
D37*
X51308000Y-106172000D02*
X43591137Y-106172000D01*
D39*
X54000400Y-84175600D02*
X54127400Y-84048600D01*
D40*
X59436000Y-63093600D02*
X59741600Y-63093600D01*
D39*
X60071000Y-64643000D02*
X59436000Y-64008000D01*
D40*
X56032400Y-63093600D02*
X57518600Y-63093600D01*
X54636000Y-63246000D02*
X55880000Y-63246000D01*
X54636000Y-60986000D02*
X53594000Y-59944000D01*
D39*
X54000400Y-84988400D02*
X62370069Y-93358069D01*
D37*
X48512603Y-66168397D02*
X48006000Y-66675000D01*
D40*
X54636000Y-61976000D02*
X54636000Y-60986000D01*
D39*
X54000400Y-84988400D02*
X54000400Y-84175600D01*
D37*
X48006000Y-67564000D02*
X48006000Y-69292000D01*
D40*
X57518600Y-63093600D02*
X58928000Y-63093600D01*
X54636000Y-63246000D02*
X54636000Y-61976000D01*
D39*
X59436000Y-63601600D02*
X58928000Y-63093600D01*
X62370069Y-100888931D02*
X61976000Y-101283000D01*
X59436000Y-63627000D02*
X59436000Y-63093600D01*
D37*
X54356000Y-101170000D02*
X55612000Y-101170000D01*
D39*
X61976000Y-101283000D02*
X61912000Y-101219000D01*
D40*
X58928000Y-63093600D02*
X59436000Y-63093600D01*
D39*
X52092429Y-84582000D02*
X53594000Y-84582000D01*
X62370069Y-93358069D02*
X62370069Y-100888931D01*
D40*
X59741600Y-63093600D02*
X59982500Y-63334500D01*
D37*
X48006000Y-66675000D02*
X48006000Y-67564000D01*
X48512603Y-63247397D02*
X48512603Y-66168397D01*
X52837896Y-104642104D02*
X51308000Y-106172000D01*
D39*
X59436000Y-63881000D02*
X59982500Y-63334500D01*
D40*
X55880000Y-63246000D02*
X56032400Y-63093600D01*
X55626000Y-62992000D02*
X55626000Y-62966000D01*
D39*
X59436000Y-64008000D02*
X59436000Y-63881000D01*
D37*
X48006000Y-69292000D02*
X47956000Y-69342000D01*
X48512603Y-63247397D02*
X49848897Y-61911103D01*
D39*
X53594000Y-84582000D02*
X54127400Y-84048600D01*
D40*
X55880000Y-63246000D02*
X55626000Y-62992000D01*
D37*
X49848897Y-61911103D02*
X54571103Y-61911103D01*
D39*
X59436000Y-63627000D02*
X59436000Y-63601600D01*
D37*
X55612000Y-101170000D02*
X55661000Y-101219000D01*
D40*
X59982500Y-63334500D02*
X60465000Y-63817000D01*
X55626000Y-62966000D02*
X54636000Y-61976000D01*
D37*
X43591137Y-106172000D02*
X43083137Y-106680000D01*
%TO.N,/MISO_BTN*%
X56837000Y-105369968D02*
X56837000Y-104060001D01*
X49663032Y-103158000D02*
X52273032Y-103158000D01*
X50546000Y-109829032D02*
X50546000Y-113792000D01*
X43357137Y-102890000D02*
X49395032Y-102890000D01*
X57150000Y-103759000D02*
X56896000Y-103759000D01*
X56837000Y-104060001D02*
X56848999Y-104060001D01*
X59168800Y-103759000D02*
X57150000Y-103759000D01*
X56576968Y-105630000D02*
X56837000Y-105369968D01*
X54745032Y-105630000D02*
X56576968Y-105630000D01*
X56837000Y-103818000D02*
X56896000Y-103759000D01*
X49395032Y-102890000D02*
X49663032Y-103158000D01*
X54745032Y-105630000D02*
X50546000Y-109829032D01*
X56896000Y-103759000D02*
X55661000Y-103759000D01*
X56535999Y-103759000D02*
X55661000Y-103759000D01*
X52273032Y-103158000D02*
X54745032Y-105630000D01*
X43083137Y-102616000D02*
X43357137Y-102890000D01*
X56837000Y-104060001D02*
X56535999Y-103759000D01*
X56848999Y-104060001D02*
X57150000Y-103759000D01*
X59994800Y-102933000D02*
X59168800Y-103759000D01*
X56837000Y-104060001D02*
X56837000Y-103818000D01*
X50546000Y-113792000D02*
X48514000Y-113792000D01*
%TO.N,/RESET*%
X43083137Y-98552000D02*
X44607137Y-98552000D01*
X52603100Y-101820000D02*
X52002100Y-101219000D01*
X49368000Y-100076000D02*
X50511000Y-101219000D01*
X46131137Y-100076000D02*
X49368000Y-100076000D01*
X61175000Y-102132000D02*
X56820968Y-102132000D01*
X56820968Y-102132000D02*
X56508968Y-101820000D01*
X44607137Y-98552000D02*
X46131137Y-100076000D01*
X56508968Y-101820000D02*
X52603100Y-101820000D01*
X61976000Y-102933000D02*
X61175000Y-102132000D01*
X52002100Y-101219000D02*
X50511000Y-101219000D01*
D39*
%TO.N,5V*%
X51809800Y-27291000D02*
X53086000Y-27291000D01*
D37*
X48143000Y-32968000D02*
X48143000Y-32790000D01*
D39*
X48143000Y-32790000D02*
X48030000Y-32790000D01*
X50419000Y-33667000D02*
X49020000Y-33667000D01*
X53735000Y-27940000D02*
X53086000Y-27291000D01*
X46482000Y-31242000D02*
X45720000Y-31242000D01*
X53086000Y-27291000D02*
X53820600Y-27291000D01*
X45212000Y-30734000D02*
X45212000Y-29210000D01*
X53820600Y-27291000D02*
X54398800Y-26712800D01*
X50546000Y-27291000D02*
X50907800Y-27291000D01*
X49020000Y-33667000D02*
X48143000Y-32790000D01*
X54398800Y-26712800D02*
X54398800Y-26040000D01*
X53820600Y-27291000D02*
X53820600Y-27940000D01*
X53820600Y-27940000D02*
X53735000Y-27940000D01*
X50546000Y-27291000D02*
X51809800Y-27291000D01*
X50907800Y-27291000D02*
X51358800Y-26840000D01*
X53820600Y-28308600D02*
X55369000Y-29857000D01*
X45720000Y-31242000D02*
X45212000Y-30734000D01*
X51358800Y-26840000D02*
X51358800Y-26040000D01*
X53820600Y-27940000D02*
X54398800Y-27361800D01*
D37*
X46543000Y-34568000D02*
X48143000Y-32968000D01*
D39*
X47131000Y-27291000D02*
X50546000Y-27291000D01*
X51358800Y-26840000D02*
X51809800Y-27291000D01*
X45212000Y-29210000D02*
X47131000Y-27291000D01*
X54398800Y-27361800D02*
X54398800Y-26040000D01*
X48030000Y-32790000D02*
X46482000Y-31242000D01*
X57699000Y-28726000D02*
X56500000Y-28726000D01*
X53820600Y-27940000D02*
X53820600Y-28308600D01*
X56500000Y-28726000D02*
X55369000Y-29857000D01*
D37*
%TO.N,/CC2*%
X52378800Y-24184800D02*
X52070000Y-23876000D01*
X52378800Y-26040000D02*
X52378800Y-24184800D01*
X47307000Y-23876000D02*
X46291000Y-24892000D01*
X52070000Y-23876000D02*
X47307000Y-23876000D01*
D39*
%TO.N,/LED_PWR*%
X59331500Y-29123500D02*
X59349000Y-29106000D01*
X59331500Y-32282000D02*
X59331500Y-29123500D01*
X59349000Y-29106000D02*
X59349000Y-28726000D01*
D38*
%TO.N,/STAT2*%
X57756500Y-32282000D02*
X57641500Y-32397000D01*
X57641500Y-32397000D02*
X55369000Y-32397000D01*
%TO.N,/STAT1*%
X57113500Y-31127000D02*
X55369000Y-31127000D01*
X57756500Y-30484000D02*
X57113500Y-31127000D01*
%TO.N,/LED_A*%
X60465000Y-62167000D02*
X60465000Y-60414500D01*
D37*
%TO.N,/BUCK_EN*%
X54356000Y-68834000D02*
X54864000Y-69342000D01*
X56548000Y-67310000D02*
X56543000Y-67305000D01*
X54356000Y-67310000D02*
X54356000Y-68834000D01*
X54351000Y-67305000D02*
X54356000Y-67310000D01*
X56543000Y-67305000D02*
X54351000Y-67305000D01*
%TO.N,/Iset*%
X50419000Y-31127000D02*
X49324000Y-31127000D01*
X49324000Y-31127000D02*
X48193000Y-29996000D01*
%TO.N,/VM*%
X51497001Y-75758000D02*
X51196000Y-75456999D01*
X51196000Y-75456999D02*
X51196000Y-74449010D01*
X52681010Y-72964000D02*
X55961000Y-72964000D01*
X51196000Y-74449010D02*
X52681010Y-72964000D01*
X52277000Y-75758000D02*
X51497001Y-75758000D01*
%TO.N,/OD*%
X52277000Y-76708000D02*
X54911000Y-76708000D01*
%TO.N,/OC*%
X52277000Y-74808000D02*
X54911000Y-74808000D01*
D40*
%TO.N,/Bat-*%
X53641000Y-77790000D02*
X50659000Y-77790000D01*
X47971000Y-76708000D02*
X49577000Y-76708000D01*
X60325000Y-111252000D02*
X52832000Y-111252000D01*
X59239686Y-80067686D02*
X63171069Y-83999069D01*
X57824764Y-78652764D02*
X56962000Y-77790000D01*
X47371000Y-77308000D02*
X47971000Y-76708000D01*
X50659000Y-77790000D02*
X49577000Y-76708000D01*
X56529000Y-77790000D02*
X57611000Y-76708000D01*
X63171069Y-103123829D02*
X63163358Y-108413642D01*
X53641000Y-77790000D02*
X56529000Y-77790000D01*
X63171069Y-83999069D02*
X63171069Y-103123829D01*
X63163358Y-108413642D02*
X60325000Y-111252000D01*
X56962000Y-77790000D02*
X56529000Y-77790000D01*
D37*
%TO.N,/PMOS_EN_OUT*%
X58987100Y-67310000D02*
X62484000Y-63813100D01*
X62484000Y-63813100D02*
X62484000Y-40386000D01*
X58198000Y-67310000D02*
X58987100Y-67310000D01*
X50646000Y-36576000D02*
X50162000Y-36092000D01*
X51054000Y-36576000D02*
X50646000Y-36576000D01*
X57150000Y-37084000D02*
X56896000Y-36830000D01*
X59182000Y-37084000D02*
X57150000Y-37084000D01*
X62484000Y-40386000D02*
X59182000Y-37084000D01*
%TO.N,/USB_DSBL*%
X50538000Y-34568000D02*
X52062000Y-36092000D01*
X48193000Y-36346000D02*
X48193000Y-36135000D01*
X48193000Y-34568000D02*
X50538000Y-34568000D01*
X48193000Y-34568000D02*
X48193000Y-36346000D01*
%TO.N,/CC1*%
X46545000Y-23368000D02*
X46291000Y-23114000D01*
X53378800Y-24168800D02*
X52578000Y-23368000D01*
X52578000Y-23368000D02*
X46545000Y-23368000D01*
X53378800Y-26040000D02*
X53378800Y-24168800D01*
%TD*%
%TA.AperFunction,Conductor*%
%TO.N,GND*%
G36*
X53356059Y-62485061D02*
G01*
X53461223Y-62498906D01*
X53492491Y-62507284D01*
X53582918Y-62544740D01*
X53610952Y-62560925D01*
X53688602Y-62620509D01*
X53711490Y-62643397D01*
X53731115Y-62668973D01*
X53771074Y-62721048D01*
X53787259Y-62749081D01*
X53824715Y-62839508D01*
X53833093Y-62870775D01*
X53846939Y-62975939D01*
X53848000Y-62992125D01*
X53848000Y-64705500D01*
X53828315Y-64772539D01*
X53775511Y-64818294D01*
X53724005Y-64829500D01*
X53705995Y-64829500D01*
X53705992Y-64829501D01*
X53609286Y-64844817D01*
X53609285Y-64844817D01*
X53531077Y-64884666D01*
X53492719Y-64904211D01*
X53492718Y-64904212D01*
X53492713Y-64904215D01*
X53400215Y-64996713D01*
X53400210Y-64996720D01*
X53340816Y-65113288D01*
X53325500Y-65209996D01*
X53325500Y-65600007D01*
X53340817Y-65696713D01*
X53340817Y-65696714D01*
X53340818Y-65696715D01*
X53400211Y-65813281D01*
X53400213Y-65813283D01*
X53400215Y-65813286D01*
X53492713Y-65905784D01*
X53492716Y-65905786D01*
X53492719Y-65905789D01*
X53609285Y-65965182D01*
X53609286Y-65965182D01*
X53609288Y-65965183D01*
X53609287Y-65965183D01*
X53652618Y-65972045D01*
X53705997Y-65980500D01*
X55006002Y-65980499D01*
X55006007Y-65980499D01*
X55006007Y-65980498D01*
X55068676Y-65970573D01*
X55102710Y-65965183D01*
X55102711Y-65965182D01*
X55102715Y-65965182D01*
X55117195Y-65957803D01*
X55149167Y-65951798D01*
X55180865Y-65944508D01*
X55183309Y-65945386D01*
X55185863Y-65944907D01*
X55216009Y-65957142D01*
X55246615Y-65968145D01*
X55249101Y-65970573D01*
X55250604Y-65971183D01*
X55271864Y-65992800D01*
X55289020Y-66015158D01*
X55295075Y-66023049D01*
X55311259Y-66051081D01*
X55348715Y-66141508D01*
X55357093Y-66172775D01*
X55370939Y-66277939D01*
X55372000Y-66294125D01*
X55372000Y-66547874D01*
X55370939Y-66564060D01*
X55357093Y-66669224D01*
X55348716Y-66700489D01*
X55342018Y-66716660D01*
X55328914Y-66732920D01*
X55328826Y-66733121D01*
X55328670Y-66733223D01*
X55298177Y-66771064D01*
X55231883Y-66793130D01*
X55171165Y-66779694D01*
X55102715Y-66744818D01*
X55102713Y-66744817D01*
X55102710Y-66744816D01*
X55006003Y-66729500D01*
X53705992Y-66729500D01*
X53705992Y-66729501D01*
X53609286Y-66744817D01*
X53609285Y-66744817D01*
X53531077Y-66784666D01*
X53492719Y-66804211D01*
X53492718Y-66804212D01*
X53492713Y-66804215D01*
X53400215Y-66896713D01*
X53400210Y-66896720D01*
X53340816Y-67013288D01*
X53325500Y-67109996D01*
X53325500Y-67500007D01*
X53340817Y-67596713D01*
X53340817Y-67596714D01*
X53340818Y-67596715D01*
X53400211Y-67713281D01*
X53492719Y-67805789D01*
X53492722Y-67805790D01*
X53492724Y-67805792D01*
X53526293Y-67822896D01*
X53577090Y-67870869D01*
X53594000Y-67933381D01*
X53594000Y-69595874D01*
X53592939Y-69612059D01*
X53592939Y-69612060D01*
X53579093Y-69717224D01*
X53570715Y-69748491D01*
X53533259Y-69838918D01*
X53517074Y-69866951D01*
X53457491Y-69944601D01*
X53434601Y-69967491D01*
X53356951Y-70027074D01*
X53328918Y-70043259D01*
X53238491Y-70080715D01*
X53207224Y-70089093D01*
X53113398Y-70101446D01*
X53102058Y-70102939D01*
X53085874Y-70104000D01*
X52845126Y-70104000D01*
X52828941Y-70102939D01*
X52815917Y-70101224D01*
X52723775Y-70089093D01*
X52692508Y-70080715D01*
X52602081Y-70043259D01*
X52574048Y-70027074D01*
X52496398Y-69967491D01*
X52473508Y-69944601D01*
X52413925Y-69866951D01*
X52397740Y-69838918D01*
X52360284Y-69748491D01*
X52351906Y-69717223D01*
X52338061Y-69612059D01*
X52337000Y-69595874D01*
X52337000Y-67974653D01*
X52356685Y-67907614D01*
X52404705Y-67864168D01*
X52519281Y-67805789D01*
X52611789Y-67713281D01*
X52671182Y-67596715D01*
X52686500Y-67500003D01*
X52686499Y-67109998D01*
X52686499Y-67109996D01*
X52686499Y-67109992D01*
X52671182Y-67013286D01*
X52671182Y-67013285D01*
X52653400Y-66978386D01*
X52611789Y-66896719D01*
X52611785Y-66896715D01*
X52611784Y-66896713D01*
X52519286Y-66804215D01*
X52519283Y-66804213D01*
X52519281Y-66804211D01*
X52404704Y-66745831D01*
X52353909Y-66697857D01*
X52337000Y-66635347D01*
X52337000Y-66074653D01*
X52356685Y-66007614D01*
X52404705Y-65964168D01*
X52418494Y-65957142D01*
X52519281Y-65905789D01*
X52611789Y-65813281D01*
X52671182Y-65696715D01*
X52686500Y-65600003D01*
X52686499Y-65209998D01*
X52686499Y-65209996D01*
X52686499Y-65209992D01*
X52671182Y-65113286D01*
X52671182Y-65113285D01*
X52611789Y-64996719D01*
X52611785Y-64996715D01*
X52611784Y-64996713D01*
X52519286Y-64904215D01*
X52519283Y-64904213D01*
X52519281Y-64904211D01*
X52404704Y-64845831D01*
X52353909Y-64797857D01*
X52349849Y-64782849D01*
X52337000Y-64770000D01*
X51916597Y-64770000D01*
X51849558Y-64750315D01*
X51828916Y-64733681D01*
X51007521Y-63912286D01*
X51007520Y-63912284D01*
X50840885Y-63745649D01*
X50807401Y-63684328D01*
X50804569Y-63658377D01*
X50802443Y-62993743D01*
X50803456Y-62977524D01*
X50817020Y-62872105D01*
X50825331Y-62840751D01*
X50825843Y-62839508D01*
X50862646Y-62750049D01*
X50878805Y-62721925D01*
X50938361Y-62644010D01*
X50961258Y-62621039D01*
X50961948Y-62620508D01*
X51038992Y-62561225D01*
X51067055Y-62544983D01*
X51157643Y-62507376D01*
X51188959Y-62498967D01*
X51276919Y-62487363D01*
X51294342Y-62485065D01*
X51310559Y-62484000D01*
X53339874Y-62484000D01*
X53356059Y-62485061D01*
G37*
%TD.AperFunction*%
%TD*%
M02*
