%TF.GenerationSoftware,KiCad,Pcbnew,9.0.3*%
%TF.CreationDate,2025-10-02T21:49:32-04:00*%
%TF.ProjectId,Photon,50686f74-6f6e-42e6-9b69-6361645f7063,1.3*%
%TF.SameCoordinates,Original*%
%TF.FileFunction,Legend,Top*%
%TF.FilePolarity,Positive*%
%FSLAX46Y46*%
G04 Gerber Fmt 4.6, Leading zero omitted, Abs format (unit mm)*
G04 Created by KiCad (PCBNEW 9.0.3) date 2025-10-02 21:49:32*
%MOMM*%
%LPD*%
G01*
G04 APERTURE LIST*
G04 Aperture macros list*
%AMRoundRect*
0 Rectangle with rounded corners*
0 $1 Rounding radius*
0 $2 $3 $4 $5 $6 $7 $8 $9 X,Y pos of 4 corners*
0 Add a 4 corners polygon primitive as box body*
4,1,4,$2,$3,$4,$5,$6,$7,$8,$9,$2,$3,0*
0 Add four circle primitives for the rounded corners*
1,1,$1+$1,$2,$3*
1,1,$1+$1,$4,$5*
1,1,$1+$1,$6,$7*
1,1,$1+$1,$8,$9*
0 Add four rect primitives between the rounded corners*
20,1,$1+$1,$2,$3,$4,$5,0*
20,1,$1+$1,$4,$5,$6,$7,0*
20,1,$1+$1,$6,$7,$8,$9,0*
20,1,$1+$1,$8,$9,$2,$3,0*%
G04 Aperture macros list end*
%ADD10C,0.200000*%
%ADD11C,0.100000*%
%ADD12C,0.150000*%
%ADD13C,0.120000*%
%ADD14C,2.299000*%
%ADD15RoundRect,0.255000X-0.595000X0.945000X-0.595000X-0.945000X0.595000X-0.945000X0.595000X0.945000X0*%
%ADD16RoundRect,0.255000X0.595000X-0.945000X0.595000X0.945000X-0.595000X0.945000X-0.595000X-0.945000X0*%
%ADD17C,1.500000*%
%ADD18RoundRect,0.150000X-0.725000X-0.150000X0.725000X-0.150000X0.725000X0.150000X-0.725000X0.150000X0*%
%ADD19RoundRect,0.200000X-0.200000X-0.275000X0.200000X-0.275000X0.200000X0.275000X-0.200000X0.275000X0*%
%ADD20RoundRect,0.225000X0.225000X0.250000X-0.225000X0.250000X-0.225000X-0.250000X0.225000X-0.250000X0*%
%ADD21C,1.000000*%
%ADD22RoundRect,0.175000X0.175000X0.625000X-0.175000X0.625000X-0.175000X-0.625000X0.175000X-0.625000X0*%
%ADD23RoundRect,0.200000X0.200000X0.600000X-0.200000X0.600000X-0.200000X-0.600000X0.200000X-0.600000X0*%
%ADD24RoundRect,0.225000X0.225000X0.575000X-0.225000X0.575000X-0.225000X-0.575000X0.225000X-0.575000X0*%
%ADD25O,1.000000X1.700000*%
%ADD26RoundRect,0.162500X0.617500X0.162500X-0.617500X0.162500X-0.617500X-0.162500X0.617500X-0.162500X0*%
%ADD27RoundRect,0.225000X-0.225000X-0.250000X0.225000X-0.250000X0.225000X0.250000X-0.225000X0.250000X0*%
%ADD28RoundRect,0.225000X0.250000X-0.225000X0.250000X0.225000X-0.250000X0.225000X-0.250000X-0.225000X0*%
%ADD29RoundRect,0.200000X0.200000X0.275000X-0.200000X0.275000X-0.200000X-0.275000X0.200000X-0.275000X0*%
%ADD30RoundRect,0.200000X-0.275000X0.200000X-0.275000X-0.200000X0.275000X-0.200000X0.275000X0.200000X0*%
%ADD31RoundRect,0.105000X-0.420000X-0.895000X0.420000X-0.895000X0.420000X0.895000X-0.420000X0.895000X0*%
%ADD32RoundRect,0.218750X-0.218750X-0.256250X0.218750X-0.256250X0.218750X0.256250X-0.218750X0.256250X0*%
%ADD33RoundRect,0.200000X0.275000X-0.200000X0.275000X0.200000X-0.275000X0.200000X-0.275000X-0.200000X0*%
%ADD34RoundRect,0.150000X-0.150000X0.587500X-0.150000X-0.587500X0.150000X-0.587500X0.150000X0.587500X0*%
%ADD35RoundRect,0.162500X-0.617500X-0.162500X0.617500X-0.162500X0.617500X0.162500X-0.617500X0.162500X0*%
%ADD36RoundRect,0.218750X-0.256250X0.218750X-0.256250X-0.218750X0.256250X-0.218750X0.256250X0.218750X0*%
%ADD37RoundRect,0.120000X1.230000X-0.280000X1.230000X0.280000X-1.230000X0.280000X-1.230000X-0.280000X0*%
%ADD38RoundRect,0.150000X-0.825000X-0.150000X0.825000X-0.150000X0.825000X0.150000X-0.825000X0.150000X0*%
%ADD39R,2.290000X3.000000*%
G04 APERTURE END LIST*
D10*
X44317219Y-53224326D02*
X43317219Y-53224326D01*
X43317219Y-53224326D02*
X43317219Y-52843374D01*
X43317219Y-52843374D02*
X43364838Y-52748136D01*
X43364838Y-52748136D02*
X43412457Y-52700517D01*
X43412457Y-52700517D02*
X43507695Y-52652898D01*
X43507695Y-52652898D02*
X43650552Y-52652898D01*
X43650552Y-52652898D02*
X43745790Y-52700517D01*
X43745790Y-52700517D02*
X43793409Y-52748136D01*
X43793409Y-52748136D02*
X43841028Y-52843374D01*
X43841028Y-52843374D02*
X43841028Y-53224326D01*
X44317219Y-52224326D02*
X43317219Y-52224326D01*
X44317219Y-51795755D02*
X43793409Y-51795755D01*
X43793409Y-51795755D02*
X43698171Y-51843374D01*
X43698171Y-51843374D02*
X43650552Y-51938612D01*
X43650552Y-51938612D02*
X43650552Y-52081469D01*
X43650552Y-52081469D02*
X43698171Y-52176707D01*
X43698171Y-52176707D02*
X43745790Y-52224326D01*
X44317219Y-51176707D02*
X44269600Y-51271945D01*
X44269600Y-51271945D02*
X44221980Y-51319564D01*
X44221980Y-51319564D02*
X44126742Y-51367183D01*
X44126742Y-51367183D02*
X43841028Y-51367183D01*
X43841028Y-51367183D02*
X43745790Y-51319564D01*
X43745790Y-51319564D02*
X43698171Y-51271945D01*
X43698171Y-51271945D02*
X43650552Y-51176707D01*
X43650552Y-51176707D02*
X43650552Y-51033850D01*
X43650552Y-51033850D02*
X43698171Y-50938612D01*
X43698171Y-50938612D02*
X43745790Y-50890993D01*
X43745790Y-50890993D02*
X43841028Y-50843374D01*
X43841028Y-50843374D02*
X44126742Y-50843374D01*
X44126742Y-50843374D02*
X44221980Y-50890993D01*
X44221980Y-50890993D02*
X44269600Y-50938612D01*
X44269600Y-50938612D02*
X44317219Y-51033850D01*
X44317219Y-51033850D02*
X44317219Y-51176707D01*
X43650552Y-50557659D02*
X43650552Y-50176707D01*
X43317219Y-50414802D02*
X44174361Y-50414802D01*
X44174361Y-50414802D02*
X44269600Y-50367183D01*
X44269600Y-50367183D02*
X44317219Y-50271945D01*
X44317219Y-50271945D02*
X44317219Y-50176707D01*
X44317219Y-49700516D02*
X44269600Y-49795754D01*
X44269600Y-49795754D02*
X44221980Y-49843373D01*
X44221980Y-49843373D02*
X44126742Y-49890992D01*
X44126742Y-49890992D02*
X43841028Y-49890992D01*
X43841028Y-49890992D02*
X43745790Y-49843373D01*
X43745790Y-49843373D02*
X43698171Y-49795754D01*
X43698171Y-49795754D02*
X43650552Y-49700516D01*
X43650552Y-49700516D02*
X43650552Y-49557659D01*
X43650552Y-49557659D02*
X43698171Y-49462421D01*
X43698171Y-49462421D02*
X43745790Y-49414802D01*
X43745790Y-49414802D02*
X43841028Y-49367183D01*
X43841028Y-49367183D02*
X44126742Y-49367183D01*
X44126742Y-49367183D02*
X44221980Y-49414802D01*
X44221980Y-49414802D02*
X44269600Y-49462421D01*
X44269600Y-49462421D02*
X44317219Y-49557659D01*
X44317219Y-49557659D02*
X44317219Y-49700516D01*
X43650552Y-48938611D02*
X44317219Y-48938611D01*
X43745790Y-48938611D02*
X43698171Y-48890992D01*
X43698171Y-48890992D02*
X43650552Y-48795754D01*
X43650552Y-48795754D02*
X43650552Y-48652897D01*
X43650552Y-48652897D02*
X43698171Y-48557659D01*
X43698171Y-48557659D02*
X43793409Y-48510040D01*
X43793409Y-48510040D02*
X44317219Y-48510040D01*
X43317219Y-47414801D02*
X44317219Y-47081468D01*
X44317219Y-47081468D02*
X43317219Y-46748135D01*
X43317219Y-46510039D02*
X43317219Y-45890992D01*
X43317219Y-45890992D02*
X43698171Y-46224325D01*
X43698171Y-46224325D02*
X43698171Y-46081468D01*
X43698171Y-46081468D02*
X43745790Y-45986230D01*
X43745790Y-45986230D02*
X43793409Y-45938611D01*
X43793409Y-45938611D02*
X43888647Y-45890992D01*
X43888647Y-45890992D02*
X44126742Y-45890992D01*
X44126742Y-45890992D02*
X44221980Y-45938611D01*
X44221980Y-45938611D02*
X44269600Y-45986230D01*
X44269600Y-45986230D02*
X44317219Y-46081468D01*
X44317219Y-46081468D02*
X44317219Y-46367182D01*
X44317219Y-46367182D02*
X44269600Y-46462420D01*
X44269600Y-46462420D02*
X44221980Y-46510039D01*
D11*
X46228000Y-64008000D02*
X48768000Y-64008000D01*
X48768000Y-64008000D02*
X48768000Y-63500000D01*
X45974000Y-64008000D02*
X45974000Y-63500000D01*
X46228000Y-63500000D02*
X46228000Y-64008000D01*
X43434000Y-63500000D02*
X43434000Y-64008000D01*
X43434000Y-64008000D02*
X45974000Y-64008000D01*
D10*
X46385232Y-108719838D02*
X46289994Y-108672219D01*
X46289994Y-108672219D02*
X46147137Y-108672219D01*
X46147137Y-108672219D02*
X46004280Y-108719838D01*
X46004280Y-108719838D02*
X45909042Y-108815076D01*
X45909042Y-108815076D02*
X45861423Y-108910314D01*
X45861423Y-108910314D02*
X45813804Y-109100790D01*
X45813804Y-109100790D02*
X45813804Y-109243647D01*
X45813804Y-109243647D02*
X45861423Y-109434123D01*
X45861423Y-109434123D02*
X45909042Y-109529361D01*
X45909042Y-109529361D02*
X46004280Y-109624600D01*
X46004280Y-109624600D02*
X46147137Y-109672219D01*
X46147137Y-109672219D02*
X46242375Y-109672219D01*
X46242375Y-109672219D02*
X46385232Y-109624600D01*
X46385232Y-109624600D02*
X46432851Y-109576980D01*
X46432851Y-109576980D02*
X46432851Y-109243647D01*
X46432851Y-109243647D02*
X46242375Y-109243647D01*
X46861423Y-109672219D02*
X46861423Y-108672219D01*
X46861423Y-108672219D02*
X47432851Y-109672219D01*
X47432851Y-109672219D02*
X47432851Y-108672219D01*
X47909042Y-109672219D02*
X47909042Y-108672219D01*
X47909042Y-108672219D02*
X48147137Y-108672219D01*
X48147137Y-108672219D02*
X48289994Y-108719838D01*
X48289994Y-108719838D02*
X48385232Y-108815076D01*
X48385232Y-108815076D02*
X48432851Y-108910314D01*
X48432851Y-108910314D02*
X48480470Y-109100790D01*
X48480470Y-109100790D02*
X48480470Y-109243647D01*
X48480470Y-109243647D02*
X48432851Y-109434123D01*
X48432851Y-109434123D02*
X48385232Y-109529361D01*
X48385232Y-109529361D02*
X48289994Y-109624600D01*
X48289994Y-109624600D02*
X48147137Y-109672219D01*
X48147137Y-109672219D02*
X47909042Y-109672219D01*
X44385042Y-106132219D02*
X45004089Y-106132219D01*
X45004089Y-106132219D02*
X44670756Y-106513171D01*
X44670756Y-106513171D02*
X44813613Y-106513171D01*
X44813613Y-106513171D02*
X44908851Y-106560790D01*
X44908851Y-106560790D02*
X44956470Y-106608409D01*
X44956470Y-106608409D02*
X45004089Y-106703647D01*
X45004089Y-106703647D02*
X45004089Y-106941742D01*
X45004089Y-106941742D02*
X44956470Y-107036980D01*
X44956470Y-107036980D02*
X44908851Y-107084600D01*
X44908851Y-107084600D02*
X44813613Y-107132219D01*
X44813613Y-107132219D02*
X44527899Y-107132219D01*
X44527899Y-107132219D02*
X44432661Y-107084600D01*
X44432661Y-107084600D02*
X44385042Y-107036980D01*
X45289804Y-106132219D02*
X45623137Y-107132219D01*
X45623137Y-107132219D02*
X45956470Y-106132219D01*
X46194566Y-106132219D02*
X46813613Y-106132219D01*
X46813613Y-106132219D02*
X46480280Y-106513171D01*
X46480280Y-106513171D02*
X46623137Y-106513171D01*
X46623137Y-106513171D02*
X46718375Y-106560790D01*
X46718375Y-106560790D02*
X46765994Y-106608409D01*
X46765994Y-106608409D02*
X46813613Y-106703647D01*
X46813613Y-106703647D02*
X46813613Y-106941742D01*
X46813613Y-106941742D02*
X46765994Y-107036980D01*
X46765994Y-107036980D02*
X46718375Y-107084600D01*
X46718375Y-107084600D02*
X46623137Y-107132219D01*
X46623137Y-107132219D02*
X46337423Y-107132219D01*
X46337423Y-107132219D02*
X46242185Y-107084600D01*
X46242185Y-107084600D02*
X46194566Y-107036980D01*
X42664095Y-105092696D02*
X42664095Y-104092696D01*
X43235523Y-105092696D02*
X42806952Y-104521267D01*
X43235523Y-104092696D02*
X42664095Y-104664124D01*
X44468810Y-102991219D02*
X44468810Y-101991219D01*
X44468810Y-101991219D02*
X44802143Y-102705504D01*
X44802143Y-102705504D02*
X45135476Y-101991219D01*
X45135476Y-101991219D02*
X45135476Y-102991219D01*
X45802143Y-101991219D02*
X45992619Y-101991219D01*
X45992619Y-101991219D02*
X46087857Y-102038838D01*
X46087857Y-102038838D02*
X46183095Y-102134076D01*
X46183095Y-102134076D02*
X46230714Y-102324552D01*
X46230714Y-102324552D02*
X46230714Y-102657885D01*
X46230714Y-102657885D02*
X46183095Y-102848361D01*
X46183095Y-102848361D02*
X46087857Y-102943600D01*
X46087857Y-102943600D02*
X45992619Y-102991219D01*
X45992619Y-102991219D02*
X45802143Y-102991219D01*
X45802143Y-102991219D02*
X45706905Y-102943600D01*
X45706905Y-102943600D02*
X45611667Y-102848361D01*
X45611667Y-102848361D02*
X45564048Y-102657885D01*
X45564048Y-102657885D02*
X45564048Y-102324552D01*
X45564048Y-102324552D02*
X45611667Y-102134076D01*
X45611667Y-102134076D02*
X45706905Y-102038838D01*
X45706905Y-102038838D02*
X45802143Y-101991219D01*
X42409614Y-101042211D02*
X42409614Y-100042211D01*
X42409614Y-100042211D02*
X42742947Y-100756496D01*
X42742947Y-100756496D02*
X43076280Y-100042211D01*
X43076280Y-100042211D02*
X43076280Y-101042211D01*
X43552471Y-101042211D02*
X43552471Y-100042211D01*
X45040238Y-98927219D02*
X44706905Y-98451028D01*
X44468810Y-98927219D02*
X44468810Y-97927219D01*
X44468810Y-97927219D02*
X44849762Y-97927219D01*
X44849762Y-97927219D02*
X44945000Y-97974838D01*
X44945000Y-97974838D02*
X44992619Y-98022457D01*
X44992619Y-98022457D02*
X45040238Y-98117695D01*
X45040238Y-98117695D02*
X45040238Y-98260552D01*
X45040238Y-98260552D02*
X44992619Y-98355790D01*
X44992619Y-98355790D02*
X44945000Y-98403409D01*
X44945000Y-98403409D02*
X44849762Y-98451028D01*
X44849762Y-98451028D02*
X44468810Y-98451028D01*
X45421191Y-98879600D02*
X45564048Y-98927219D01*
X45564048Y-98927219D02*
X45802143Y-98927219D01*
X45802143Y-98927219D02*
X45897381Y-98879600D01*
X45897381Y-98879600D02*
X45945000Y-98831980D01*
X45945000Y-98831980D02*
X45992619Y-98736742D01*
X45992619Y-98736742D02*
X45992619Y-98641504D01*
X45992619Y-98641504D02*
X45945000Y-98546266D01*
X45945000Y-98546266D02*
X45897381Y-98498647D01*
X45897381Y-98498647D02*
X45802143Y-98451028D01*
X45802143Y-98451028D02*
X45611667Y-98403409D01*
X45611667Y-98403409D02*
X45516429Y-98355790D01*
X45516429Y-98355790D02*
X45468810Y-98308171D01*
X45468810Y-98308171D02*
X45421191Y-98212933D01*
X45421191Y-98212933D02*
X45421191Y-98117695D01*
X45421191Y-98117695D02*
X45468810Y-98022457D01*
X45468810Y-98022457D02*
X45516429Y-97974838D01*
X45516429Y-97974838D02*
X45611667Y-97927219D01*
X45611667Y-97927219D02*
X45849762Y-97927219D01*
X45849762Y-97927219D02*
X45992619Y-97974838D01*
X46278334Y-97927219D02*
X46849762Y-97927219D01*
X46564048Y-98927219D02*
X46564048Y-97927219D01*
X48385505Y-86812219D02*
X48385505Y-85812219D01*
X48385505Y-85812219D02*
X48623600Y-85812219D01*
X48623600Y-85812219D02*
X48766457Y-85859838D01*
X48766457Y-85859838D02*
X48861695Y-85955076D01*
X48861695Y-85955076D02*
X48909314Y-86050314D01*
X48909314Y-86050314D02*
X48956933Y-86240790D01*
X48956933Y-86240790D02*
X48956933Y-86383647D01*
X48956933Y-86383647D02*
X48909314Y-86574123D01*
X48909314Y-86574123D02*
X48861695Y-86669361D01*
X48861695Y-86669361D02*
X48766457Y-86764600D01*
X48766457Y-86764600D02*
X48623600Y-86812219D01*
X48623600Y-86812219D02*
X48385505Y-86812219D01*
X49814076Y-85812219D02*
X49623600Y-85812219D01*
X49623600Y-85812219D02*
X49528362Y-85859838D01*
X49528362Y-85859838D02*
X49480743Y-85907457D01*
X49480743Y-85907457D02*
X49385505Y-86050314D01*
X49385505Y-86050314D02*
X49337886Y-86240790D01*
X49337886Y-86240790D02*
X49337886Y-86621742D01*
X49337886Y-86621742D02*
X49385505Y-86716980D01*
X49385505Y-86716980D02*
X49433124Y-86764600D01*
X49433124Y-86764600D02*
X49528362Y-86812219D01*
X49528362Y-86812219D02*
X49718838Y-86812219D01*
X49718838Y-86812219D02*
X49814076Y-86764600D01*
X49814076Y-86764600D02*
X49861695Y-86716980D01*
X49861695Y-86716980D02*
X49909314Y-86621742D01*
X49909314Y-86621742D02*
X49909314Y-86383647D01*
X49909314Y-86383647D02*
X49861695Y-86288409D01*
X49861695Y-86288409D02*
X49814076Y-86240790D01*
X49814076Y-86240790D02*
X49718838Y-86193171D01*
X49718838Y-86193171D02*
X49528362Y-86193171D01*
X49528362Y-86193171D02*
X49433124Y-86240790D01*
X49433124Y-86240790D02*
X49385505Y-86288409D01*
X49385505Y-86288409D02*
X49337886Y-86383647D01*
D12*
X54000562Y-84156779D02*
X54000562Y-84918684D01*
X53619609Y-84537731D02*
X54381514Y-84537731D01*
D10*
X48537905Y-49169419D02*
X48537905Y-48169419D01*
X48537905Y-48169419D02*
X48776000Y-48169419D01*
X48776000Y-48169419D02*
X48918857Y-48217038D01*
X48918857Y-48217038D02*
X49014095Y-48312276D01*
X49014095Y-48312276D02*
X49061714Y-48407514D01*
X49061714Y-48407514D02*
X49109333Y-48597990D01*
X49109333Y-48597990D02*
X49109333Y-48740847D01*
X49109333Y-48740847D02*
X49061714Y-48931323D01*
X49061714Y-48931323D02*
X49014095Y-49026561D01*
X49014095Y-49026561D02*
X48918857Y-49121800D01*
X48918857Y-49121800D02*
X48776000Y-49169419D01*
X48776000Y-49169419D02*
X48537905Y-49169419D01*
X50014095Y-48169419D02*
X49537905Y-48169419D01*
X49537905Y-48169419D02*
X49490286Y-48645609D01*
X49490286Y-48645609D02*
X49537905Y-48597990D01*
X49537905Y-48597990D02*
X49633143Y-48550371D01*
X49633143Y-48550371D02*
X49871238Y-48550371D01*
X49871238Y-48550371D02*
X49966476Y-48597990D01*
X49966476Y-48597990D02*
X50014095Y-48645609D01*
X50014095Y-48645609D02*
X50061714Y-48740847D01*
X50061714Y-48740847D02*
X50061714Y-48978942D01*
X50061714Y-48978942D02*
X50014095Y-49074180D01*
X50014095Y-49074180D02*
X49966476Y-49121800D01*
X49966476Y-49121800D02*
X49871238Y-49169419D01*
X49871238Y-49169419D02*
X49633143Y-49169419D01*
X49633143Y-49169419D02*
X49537905Y-49121800D01*
X49537905Y-49121800D02*
X49490286Y-49074180D01*
D12*
X51685866Y-60369220D02*
X51685866Y-59607316D01*
X52066819Y-59988268D02*
X51304914Y-59988268D01*
D10*
X52324095Y-106132219D02*
X52324095Y-106941742D01*
X52324095Y-106941742D02*
X52371714Y-107036980D01*
X52371714Y-107036980D02*
X52419333Y-107084600D01*
X52419333Y-107084600D02*
X52514571Y-107132219D01*
X52514571Y-107132219D02*
X52705047Y-107132219D01*
X52705047Y-107132219D02*
X52800285Y-107084600D01*
X52800285Y-107084600D02*
X52847904Y-107036980D01*
X52847904Y-107036980D02*
X52895523Y-106941742D01*
X52895523Y-106941742D02*
X52895523Y-106132219D01*
X53895523Y-107132219D02*
X53324095Y-107132219D01*
X53609809Y-107132219D02*
X53609809Y-106132219D01*
X53609809Y-106132219D02*
X53514571Y-106275076D01*
X53514571Y-106275076D02*
X53419333Y-106370314D01*
X53419333Y-106370314D02*
X53324095Y-106417933D01*
X59790333Y-67762219D02*
X59457000Y-67286028D01*
X59218905Y-67762219D02*
X59218905Y-66762219D01*
X59218905Y-66762219D02*
X59599857Y-66762219D01*
X59599857Y-66762219D02*
X59695095Y-66809838D01*
X59695095Y-66809838D02*
X59742714Y-66857457D01*
X59742714Y-66857457D02*
X59790333Y-66952695D01*
X59790333Y-66952695D02*
X59790333Y-67095552D01*
X59790333Y-67095552D02*
X59742714Y-67190790D01*
X59742714Y-67190790D02*
X59695095Y-67238409D01*
X59695095Y-67238409D02*
X59599857Y-67286028D01*
X59599857Y-67286028D02*
X59218905Y-67286028D01*
X60647476Y-66762219D02*
X60457000Y-66762219D01*
X60457000Y-66762219D02*
X60361762Y-66809838D01*
X60361762Y-66809838D02*
X60314143Y-66857457D01*
X60314143Y-66857457D02*
X60218905Y-67000314D01*
X60218905Y-67000314D02*
X60171286Y-67190790D01*
X60171286Y-67190790D02*
X60171286Y-67571742D01*
X60171286Y-67571742D02*
X60218905Y-67666980D01*
X60218905Y-67666980D02*
X60266524Y-67714600D01*
X60266524Y-67714600D02*
X60361762Y-67762219D01*
X60361762Y-67762219D02*
X60552238Y-67762219D01*
X60552238Y-67762219D02*
X60647476Y-67714600D01*
X60647476Y-67714600D02*
X60695095Y-67666980D01*
X60695095Y-67666980D02*
X60742714Y-67571742D01*
X60742714Y-67571742D02*
X60742714Y-67333647D01*
X60742714Y-67333647D02*
X60695095Y-67238409D01*
X60695095Y-67238409D02*
X60647476Y-67190790D01*
X60647476Y-67190790D02*
X60552238Y-67143171D01*
X60552238Y-67143171D02*
X60361762Y-67143171D01*
X60361762Y-67143171D02*
X60266524Y-67190790D01*
X60266524Y-67190790D02*
X60218905Y-67238409D01*
X60218905Y-67238409D02*
X60171286Y-67333647D01*
X44537333Y-63602980D02*
X44489714Y-63650600D01*
X44489714Y-63650600D02*
X44346857Y-63698219D01*
X44346857Y-63698219D02*
X44251619Y-63698219D01*
X44251619Y-63698219D02*
X44108762Y-63650600D01*
X44108762Y-63650600D02*
X44013524Y-63555361D01*
X44013524Y-63555361D02*
X43965905Y-63460123D01*
X43965905Y-63460123D02*
X43918286Y-63269647D01*
X43918286Y-63269647D02*
X43918286Y-63126790D01*
X43918286Y-63126790D02*
X43965905Y-62936314D01*
X43965905Y-62936314D02*
X44013524Y-62841076D01*
X44013524Y-62841076D02*
X44108762Y-62745838D01*
X44108762Y-62745838D02*
X44251619Y-62698219D01*
X44251619Y-62698219D02*
X44346857Y-62698219D01*
X44346857Y-62698219D02*
X44489714Y-62745838D01*
X44489714Y-62745838D02*
X44537333Y-62793457D01*
X44918286Y-62793457D02*
X44965905Y-62745838D01*
X44965905Y-62745838D02*
X45061143Y-62698219D01*
X45061143Y-62698219D02*
X45299238Y-62698219D01*
X45299238Y-62698219D02*
X45394476Y-62745838D01*
X45394476Y-62745838D02*
X45442095Y-62793457D01*
X45442095Y-62793457D02*
X45489714Y-62888695D01*
X45489714Y-62888695D02*
X45489714Y-62983933D01*
X45489714Y-62983933D02*
X45442095Y-63126790D01*
X45442095Y-63126790D02*
X44870667Y-63698219D01*
X44870667Y-63698219D02*
X45489714Y-63698219D01*
X55888095Y-68794219D02*
X56459523Y-68794219D01*
X56173809Y-69794219D02*
X56173809Y-68794219D01*
X56792857Y-69794219D02*
X56792857Y-68794219D01*
X56792857Y-68794219D02*
X57173809Y-68794219D01*
X57173809Y-68794219D02*
X57269047Y-68841838D01*
X57269047Y-68841838D02*
X57316666Y-68889457D01*
X57316666Y-68889457D02*
X57364285Y-68984695D01*
X57364285Y-68984695D02*
X57364285Y-69127552D01*
X57364285Y-69127552D02*
X57316666Y-69222790D01*
X57316666Y-69222790D02*
X57269047Y-69270409D01*
X57269047Y-69270409D02*
X57173809Y-69318028D01*
X57173809Y-69318028D02*
X56792857Y-69318028D01*
X57935714Y-69222790D02*
X57840476Y-69175171D01*
X57840476Y-69175171D02*
X57792857Y-69127552D01*
X57792857Y-69127552D02*
X57745238Y-69032314D01*
X57745238Y-69032314D02*
X57745238Y-68984695D01*
X57745238Y-68984695D02*
X57792857Y-68889457D01*
X57792857Y-68889457D02*
X57840476Y-68841838D01*
X57840476Y-68841838D02*
X57935714Y-68794219D01*
X57935714Y-68794219D02*
X58126190Y-68794219D01*
X58126190Y-68794219D02*
X58221428Y-68841838D01*
X58221428Y-68841838D02*
X58269047Y-68889457D01*
X58269047Y-68889457D02*
X58316666Y-68984695D01*
X58316666Y-68984695D02*
X58316666Y-69032314D01*
X58316666Y-69032314D02*
X58269047Y-69127552D01*
X58269047Y-69127552D02*
X58221428Y-69175171D01*
X58221428Y-69175171D02*
X58126190Y-69222790D01*
X58126190Y-69222790D02*
X57935714Y-69222790D01*
X57935714Y-69222790D02*
X57840476Y-69270409D01*
X57840476Y-69270409D02*
X57792857Y-69318028D01*
X57792857Y-69318028D02*
X57745238Y-69413266D01*
X57745238Y-69413266D02*
X57745238Y-69603742D01*
X57745238Y-69603742D02*
X57792857Y-69698980D01*
X57792857Y-69698980D02*
X57840476Y-69746600D01*
X57840476Y-69746600D02*
X57935714Y-69794219D01*
X57935714Y-69794219D02*
X58126190Y-69794219D01*
X58126190Y-69794219D02*
X58221428Y-69746600D01*
X58221428Y-69746600D02*
X58269047Y-69698980D01*
X58269047Y-69698980D02*
X58316666Y-69603742D01*
X58316666Y-69603742D02*
X58316666Y-69413266D01*
X58316666Y-69413266D02*
X58269047Y-69318028D01*
X58269047Y-69318028D02*
X58221428Y-69270409D01*
X58221428Y-69270409D02*
X58126190Y-69222790D01*
X52545466Y-21804219D02*
X52545466Y-22518504D01*
X52545466Y-22518504D02*
X52497847Y-22661361D01*
X52497847Y-22661361D02*
X52402609Y-22756600D01*
X52402609Y-22756600D02*
X52259752Y-22804219D01*
X52259752Y-22804219D02*
X52164514Y-22804219D01*
X53545466Y-22804219D02*
X52974038Y-22804219D01*
X53259752Y-22804219D02*
X53259752Y-21804219D01*
X53259752Y-21804219D02*
X53164514Y-21947076D01*
X53164514Y-21947076D02*
X53069276Y-22042314D01*
X53069276Y-22042314D02*
X52974038Y-22089933D01*
X60460095Y-23074219D02*
X61031523Y-23074219D01*
X60745809Y-24074219D02*
X60745809Y-23074219D01*
X61364857Y-24074219D02*
X61364857Y-23074219D01*
X61364857Y-23074219D02*
X61745809Y-23074219D01*
X61745809Y-23074219D02*
X61841047Y-23121838D01*
X61841047Y-23121838D02*
X61888666Y-23169457D01*
X61888666Y-23169457D02*
X61936285Y-23264695D01*
X61936285Y-23264695D02*
X61936285Y-23407552D01*
X61936285Y-23407552D02*
X61888666Y-23502790D01*
X61888666Y-23502790D02*
X61841047Y-23550409D01*
X61841047Y-23550409D02*
X61745809Y-23598028D01*
X61745809Y-23598028D02*
X61364857Y-23598028D01*
X62793428Y-23074219D02*
X62602952Y-23074219D01*
X62602952Y-23074219D02*
X62507714Y-23121838D01*
X62507714Y-23121838D02*
X62460095Y-23169457D01*
X62460095Y-23169457D02*
X62364857Y-23312314D01*
X62364857Y-23312314D02*
X62317238Y-23502790D01*
X62317238Y-23502790D02*
X62317238Y-23883742D01*
X62317238Y-23883742D02*
X62364857Y-23978980D01*
X62364857Y-23978980D02*
X62412476Y-24026600D01*
X62412476Y-24026600D02*
X62507714Y-24074219D01*
X62507714Y-24074219D02*
X62698190Y-24074219D01*
X62698190Y-24074219D02*
X62793428Y-24026600D01*
X62793428Y-24026600D02*
X62841047Y-23978980D01*
X62841047Y-23978980D02*
X62888666Y-23883742D01*
X62888666Y-23883742D02*
X62888666Y-23645647D01*
X62888666Y-23645647D02*
X62841047Y-23550409D01*
X62841047Y-23550409D02*
X62793428Y-23502790D01*
X62793428Y-23502790D02*
X62698190Y-23455171D01*
X62698190Y-23455171D02*
X62507714Y-23455171D01*
X62507714Y-23455171D02*
X62412476Y-23502790D01*
X62412476Y-23502790D02*
X62364857Y-23550409D01*
X62364857Y-23550409D02*
X62317238Y-23645647D01*
X55372095Y-77938219D02*
X55372095Y-78747742D01*
X55372095Y-78747742D02*
X55419714Y-78842980D01*
X55419714Y-78842980D02*
X55467333Y-78890600D01*
X55467333Y-78890600D02*
X55562571Y-78938219D01*
X55562571Y-78938219D02*
X55753047Y-78938219D01*
X55753047Y-78938219D02*
X55848285Y-78890600D01*
X55848285Y-78890600D02*
X55895904Y-78842980D01*
X55895904Y-78842980D02*
X55943523Y-78747742D01*
X55943523Y-78747742D02*
X55943523Y-77938219D01*
X56848285Y-77938219D02*
X56657809Y-77938219D01*
X56657809Y-77938219D02*
X56562571Y-77985838D01*
X56562571Y-77985838D02*
X56514952Y-78033457D01*
X56514952Y-78033457D02*
X56419714Y-78176314D01*
X56419714Y-78176314D02*
X56372095Y-78366790D01*
X56372095Y-78366790D02*
X56372095Y-78747742D01*
X56372095Y-78747742D02*
X56419714Y-78842980D01*
X56419714Y-78842980D02*
X56467333Y-78890600D01*
X56467333Y-78890600D02*
X56562571Y-78938219D01*
X56562571Y-78938219D02*
X56753047Y-78938219D01*
X56753047Y-78938219D02*
X56848285Y-78890600D01*
X56848285Y-78890600D02*
X56895904Y-78842980D01*
X56895904Y-78842980D02*
X56943523Y-78747742D01*
X56943523Y-78747742D02*
X56943523Y-78509647D01*
X56943523Y-78509647D02*
X56895904Y-78414409D01*
X56895904Y-78414409D02*
X56848285Y-78366790D01*
X56848285Y-78366790D02*
X56753047Y-78319171D01*
X56753047Y-78319171D02*
X56562571Y-78319171D01*
X56562571Y-78319171D02*
X56467333Y-78366790D01*
X56467333Y-78366790D02*
X56419714Y-78414409D01*
X56419714Y-78414409D02*
X56372095Y-78509647D01*
X46061333Y-67920980D02*
X46013714Y-67968600D01*
X46013714Y-67968600D02*
X45870857Y-68016219D01*
X45870857Y-68016219D02*
X45775619Y-68016219D01*
X45775619Y-68016219D02*
X45632762Y-67968600D01*
X45632762Y-67968600D02*
X45537524Y-67873361D01*
X45537524Y-67873361D02*
X45489905Y-67778123D01*
X45489905Y-67778123D02*
X45442286Y-67587647D01*
X45442286Y-67587647D02*
X45442286Y-67444790D01*
X45442286Y-67444790D02*
X45489905Y-67254314D01*
X45489905Y-67254314D02*
X45537524Y-67159076D01*
X45537524Y-67159076D02*
X45632762Y-67063838D01*
X45632762Y-67063838D02*
X45775619Y-67016219D01*
X45775619Y-67016219D02*
X45870857Y-67016219D01*
X45870857Y-67016219D02*
X46013714Y-67063838D01*
X46013714Y-67063838D02*
X46061333Y-67111457D01*
X46918476Y-67349552D02*
X46918476Y-68016219D01*
X46680381Y-66968600D02*
X46442286Y-67682885D01*
X46442286Y-67682885D02*
X47061333Y-67682885D01*
X50038095Y-77938219D02*
X50038095Y-78747742D01*
X50038095Y-78747742D02*
X50085714Y-78842980D01*
X50085714Y-78842980D02*
X50133333Y-78890600D01*
X50133333Y-78890600D02*
X50228571Y-78938219D01*
X50228571Y-78938219D02*
X50419047Y-78938219D01*
X50419047Y-78938219D02*
X50514285Y-78890600D01*
X50514285Y-78890600D02*
X50561904Y-78842980D01*
X50561904Y-78842980D02*
X50609523Y-78747742D01*
X50609523Y-78747742D02*
X50609523Y-77938219D01*
X51561904Y-77938219D02*
X51085714Y-77938219D01*
X51085714Y-77938219D02*
X51038095Y-78414409D01*
X51038095Y-78414409D02*
X51085714Y-78366790D01*
X51085714Y-78366790D02*
X51180952Y-78319171D01*
X51180952Y-78319171D02*
X51419047Y-78319171D01*
X51419047Y-78319171D02*
X51514285Y-78366790D01*
X51514285Y-78366790D02*
X51561904Y-78414409D01*
X51561904Y-78414409D02*
X51609523Y-78509647D01*
X51609523Y-78509647D02*
X51609523Y-78747742D01*
X51609523Y-78747742D02*
X51561904Y-78842980D01*
X51561904Y-78842980D02*
X51514285Y-78890600D01*
X51514285Y-78890600D02*
X51419047Y-78938219D01*
X51419047Y-78938219D02*
X51180952Y-78938219D01*
X51180952Y-78938219D02*
X51085714Y-78890600D01*
X51085714Y-78890600D02*
X51038095Y-78842980D01*
X51929333Y-71318219D02*
X51596000Y-70842028D01*
X51357905Y-71318219D02*
X51357905Y-70318219D01*
X51357905Y-70318219D02*
X51738857Y-70318219D01*
X51738857Y-70318219D02*
X51834095Y-70365838D01*
X51834095Y-70365838D02*
X51881714Y-70413457D01*
X51881714Y-70413457D02*
X51929333Y-70508695D01*
X51929333Y-70508695D02*
X51929333Y-70651552D01*
X51929333Y-70651552D02*
X51881714Y-70746790D01*
X51881714Y-70746790D02*
X51834095Y-70794409D01*
X51834095Y-70794409D02*
X51738857Y-70842028D01*
X51738857Y-70842028D02*
X51357905Y-70842028D01*
X52405524Y-71318219D02*
X52596000Y-71318219D01*
X52596000Y-71318219D02*
X52691238Y-71270600D01*
X52691238Y-71270600D02*
X52738857Y-71222980D01*
X52738857Y-71222980D02*
X52834095Y-71080123D01*
X52834095Y-71080123D02*
X52881714Y-70889647D01*
X52881714Y-70889647D02*
X52881714Y-70508695D01*
X52881714Y-70508695D02*
X52834095Y-70413457D01*
X52834095Y-70413457D02*
X52786476Y-70365838D01*
X52786476Y-70365838D02*
X52691238Y-70318219D01*
X52691238Y-70318219D02*
X52500762Y-70318219D01*
X52500762Y-70318219D02*
X52405524Y-70365838D01*
X52405524Y-70365838D02*
X52357905Y-70413457D01*
X52357905Y-70413457D02*
X52310286Y-70508695D01*
X52310286Y-70508695D02*
X52310286Y-70746790D01*
X52310286Y-70746790D02*
X52357905Y-70842028D01*
X52357905Y-70842028D02*
X52405524Y-70889647D01*
X52405524Y-70889647D02*
X52500762Y-70937266D01*
X52500762Y-70937266D02*
X52691238Y-70937266D01*
X52691238Y-70937266D02*
X52786476Y-70889647D01*
X52786476Y-70889647D02*
X52834095Y-70842028D01*
X52834095Y-70842028D02*
X52881714Y-70746790D01*
X47331333Y-63602980D02*
X47283714Y-63650600D01*
X47283714Y-63650600D02*
X47140857Y-63698219D01*
X47140857Y-63698219D02*
X47045619Y-63698219D01*
X47045619Y-63698219D02*
X46902762Y-63650600D01*
X46902762Y-63650600D02*
X46807524Y-63555361D01*
X46807524Y-63555361D02*
X46759905Y-63460123D01*
X46759905Y-63460123D02*
X46712286Y-63269647D01*
X46712286Y-63269647D02*
X46712286Y-63126790D01*
X46712286Y-63126790D02*
X46759905Y-62936314D01*
X46759905Y-62936314D02*
X46807524Y-62841076D01*
X46807524Y-62841076D02*
X46902762Y-62745838D01*
X46902762Y-62745838D02*
X47045619Y-62698219D01*
X47045619Y-62698219D02*
X47140857Y-62698219D01*
X47140857Y-62698219D02*
X47283714Y-62745838D01*
X47283714Y-62745838D02*
X47331333Y-62793457D01*
X48236095Y-62698219D02*
X47759905Y-62698219D01*
X47759905Y-62698219D02*
X47712286Y-63174409D01*
X47712286Y-63174409D02*
X47759905Y-63126790D01*
X47759905Y-63126790D02*
X47855143Y-63079171D01*
X47855143Y-63079171D02*
X48093238Y-63079171D01*
X48093238Y-63079171D02*
X48188476Y-63126790D01*
X48188476Y-63126790D02*
X48236095Y-63174409D01*
X48236095Y-63174409D02*
X48283714Y-63269647D01*
X48283714Y-63269647D02*
X48283714Y-63507742D01*
X48283714Y-63507742D02*
X48236095Y-63602980D01*
X48236095Y-63602980D02*
X48188476Y-63650600D01*
X48188476Y-63650600D02*
X48093238Y-63698219D01*
X48093238Y-63698219D02*
X47855143Y-63698219D01*
X47855143Y-63698219D02*
X47759905Y-63650600D01*
X47759905Y-63650600D02*
X47712286Y-63602980D01*
X58205905Y-90130219D02*
X58777333Y-90130219D01*
X58491619Y-91130219D02*
X58491619Y-90130219D01*
X59110667Y-91130219D02*
X59110667Y-90130219D01*
X59110667Y-90130219D02*
X59491619Y-90130219D01*
X59491619Y-90130219D02*
X59586857Y-90177838D01*
X59586857Y-90177838D02*
X59634476Y-90225457D01*
X59634476Y-90225457D02*
X59682095Y-90320695D01*
X59682095Y-90320695D02*
X59682095Y-90463552D01*
X59682095Y-90463552D02*
X59634476Y-90558790D01*
X59634476Y-90558790D02*
X59586857Y-90606409D01*
X59586857Y-90606409D02*
X59491619Y-90654028D01*
X59491619Y-90654028D02*
X59110667Y-90654028D01*
X60634476Y-91130219D02*
X60063048Y-91130219D01*
X60348762Y-91130219D02*
X60348762Y-90130219D01*
X60348762Y-90130219D02*
X60253524Y-90273076D01*
X60253524Y-90273076D02*
X60158286Y-90368314D01*
X60158286Y-90368314D02*
X60063048Y-90415933D01*
X61586857Y-91130219D02*
X61015429Y-91130219D01*
X61301143Y-91130219D02*
X61301143Y-90130219D01*
X61301143Y-90130219D02*
X61205905Y-90273076D01*
X61205905Y-90273076D02*
X61110667Y-90368314D01*
X61110667Y-90368314D02*
X61015429Y-90415933D01*
X44661333Y-35020219D02*
X44328000Y-34544028D01*
X44089905Y-35020219D02*
X44089905Y-34020219D01*
X44089905Y-34020219D02*
X44470857Y-34020219D01*
X44470857Y-34020219D02*
X44566095Y-34067838D01*
X44566095Y-34067838D02*
X44613714Y-34115457D01*
X44613714Y-34115457D02*
X44661333Y-34210695D01*
X44661333Y-34210695D02*
X44661333Y-34353552D01*
X44661333Y-34353552D02*
X44613714Y-34448790D01*
X44613714Y-34448790D02*
X44566095Y-34496409D01*
X44566095Y-34496409D02*
X44470857Y-34544028D01*
X44470857Y-34544028D02*
X44089905Y-34544028D01*
X45518476Y-34353552D02*
X45518476Y-35020219D01*
X45280381Y-33972600D02*
X45042286Y-34686885D01*
X45042286Y-34686885D02*
X45661333Y-34686885D01*
X57846933Y-104750980D02*
X57799314Y-104798600D01*
X57799314Y-104798600D02*
X57656457Y-104846219D01*
X57656457Y-104846219D02*
X57561219Y-104846219D01*
X57561219Y-104846219D02*
X57418362Y-104798600D01*
X57418362Y-104798600D02*
X57323124Y-104703361D01*
X57323124Y-104703361D02*
X57275505Y-104608123D01*
X57275505Y-104608123D02*
X57227886Y-104417647D01*
X57227886Y-104417647D02*
X57227886Y-104274790D01*
X57227886Y-104274790D02*
X57275505Y-104084314D01*
X57275505Y-104084314D02*
X57323124Y-103989076D01*
X57323124Y-103989076D02*
X57418362Y-103893838D01*
X57418362Y-103893838D02*
X57561219Y-103846219D01*
X57561219Y-103846219D02*
X57656457Y-103846219D01*
X57656457Y-103846219D02*
X57799314Y-103893838D01*
X57799314Y-103893838D02*
X57846933Y-103941457D01*
X58799314Y-104846219D02*
X58227886Y-104846219D01*
X58513600Y-104846219D02*
X58513600Y-103846219D01*
X58513600Y-103846219D02*
X58418362Y-103989076D01*
X58418362Y-103989076D02*
X58323124Y-104084314D01*
X58323124Y-104084314D02*
X58227886Y-104131933D01*
X56134095Y-39838219D02*
X56134095Y-40647742D01*
X56134095Y-40647742D02*
X56181714Y-40742980D01*
X56181714Y-40742980D02*
X56229333Y-40790600D01*
X56229333Y-40790600D02*
X56324571Y-40838219D01*
X56324571Y-40838219D02*
X56515047Y-40838219D01*
X56515047Y-40838219D02*
X56610285Y-40790600D01*
X56610285Y-40790600D02*
X56657904Y-40742980D01*
X56657904Y-40742980D02*
X56705523Y-40647742D01*
X56705523Y-40647742D02*
X56705523Y-39838219D01*
X57610285Y-40171552D02*
X57610285Y-40838219D01*
X57372190Y-39790600D02*
X57134095Y-40504885D01*
X57134095Y-40504885D02*
X57753142Y-40504885D01*
X45299333Y-27122219D02*
X44966000Y-26646028D01*
X44727905Y-27122219D02*
X44727905Y-26122219D01*
X44727905Y-26122219D02*
X45108857Y-26122219D01*
X45108857Y-26122219D02*
X45204095Y-26169838D01*
X45204095Y-26169838D02*
X45251714Y-26217457D01*
X45251714Y-26217457D02*
X45299333Y-26312695D01*
X45299333Y-26312695D02*
X45299333Y-26455552D01*
X45299333Y-26455552D02*
X45251714Y-26550790D01*
X45251714Y-26550790D02*
X45204095Y-26598409D01*
X45204095Y-26598409D02*
X45108857Y-26646028D01*
X45108857Y-26646028D02*
X44727905Y-26646028D01*
X45680286Y-26217457D02*
X45727905Y-26169838D01*
X45727905Y-26169838D02*
X45823143Y-26122219D01*
X45823143Y-26122219D02*
X46061238Y-26122219D01*
X46061238Y-26122219D02*
X46156476Y-26169838D01*
X46156476Y-26169838D02*
X46204095Y-26217457D01*
X46204095Y-26217457D02*
X46251714Y-26312695D01*
X46251714Y-26312695D02*
X46251714Y-26407933D01*
X46251714Y-26407933D02*
X46204095Y-26550790D01*
X46204095Y-26550790D02*
X45632667Y-27122219D01*
X45632667Y-27122219D02*
X46251714Y-27122219D01*
X45299333Y-22042219D02*
X44966000Y-21566028D01*
X44727905Y-22042219D02*
X44727905Y-21042219D01*
X44727905Y-21042219D02*
X45108857Y-21042219D01*
X45108857Y-21042219D02*
X45204095Y-21089838D01*
X45204095Y-21089838D02*
X45251714Y-21137457D01*
X45251714Y-21137457D02*
X45299333Y-21232695D01*
X45299333Y-21232695D02*
X45299333Y-21375552D01*
X45299333Y-21375552D02*
X45251714Y-21470790D01*
X45251714Y-21470790D02*
X45204095Y-21518409D01*
X45204095Y-21518409D02*
X45108857Y-21566028D01*
X45108857Y-21566028D02*
X44727905Y-21566028D01*
X46251714Y-22042219D02*
X45680286Y-22042219D01*
X45966000Y-22042219D02*
X45966000Y-21042219D01*
X45966000Y-21042219D02*
X45870762Y-21185076D01*
X45870762Y-21185076D02*
X45775524Y-21280314D01*
X45775524Y-21280314D02*
X45680286Y-21327933D01*
X63190219Y-98116357D02*
X62714028Y-98449690D01*
X63190219Y-98687785D02*
X62190219Y-98687785D01*
X62190219Y-98687785D02*
X62190219Y-98306833D01*
X62190219Y-98306833D02*
X62237838Y-98211595D01*
X62237838Y-98211595D02*
X62285457Y-98163976D01*
X62285457Y-98163976D02*
X62380695Y-98116357D01*
X62380695Y-98116357D02*
X62523552Y-98116357D01*
X62523552Y-98116357D02*
X62618790Y-98163976D01*
X62618790Y-98163976D02*
X62666409Y-98211595D01*
X62666409Y-98211595D02*
X62714028Y-98306833D01*
X62714028Y-98306833D02*
X62714028Y-98687785D01*
X63190219Y-97163976D02*
X63190219Y-97735404D01*
X63190219Y-97449690D02*
X62190219Y-97449690D01*
X62190219Y-97449690D02*
X62333076Y-97544928D01*
X62333076Y-97544928D02*
X62428314Y-97640166D01*
X62428314Y-97640166D02*
X62475933Y-97735404D01*
X62190219Y-96306833D02*
X62190219Y-96497309D01*
X62190219Y-96497309D02*
X62237838Y-96592547D01*
X62237838Y-96592547D02*
X62285457Y-96640166D01*
X62285457Y-96640166D02*
X62428314Y-96735404D01*
X62428314Y-96735404D02*
X62618790Y-96783023D01*
X62618790Y-96783023D02*
X62999742Y-96783023D01*
X62999742Y-96783023D02*
X63094980Y-96735404D01*
X63094980Y-96735404D02*
X63142600Y-96687785D01*
X63142600Y-96687785D02*
X63190219Y-96592547D01*
X63190219Y-96592547D02*
X63190219Y-96402071D01*
X63190219Y-96402071D02*
X63142600Y-96306833D01*
X63142600Y-96306833D02*
X63094980Y-96259214D01*
X63094980Y-96259214D02*
X62999742Y-96211595D01*
X62999742Y-96211595D02*
X62761647Y-96211595D01*
X62761647Y-96211595D02*
X62666409Y-96259214D01*
X62666409Y-96259214D02*
X62618790Y-96306833D01*
X62618790Y-96306833D02*
X62571171Y-96402071D01*
X62571171Y-96402071D02*
X62571171Y-96592547D01*
X62571171Y-96592547D02*
X62618790Y-96687785D01*
X62618790Y-96687785D02*
X62666409Y-96735404D01*
X62666409Y-96735404D02*
X62761647Y-96783023D01*
X51498667Y-111910600D02*
X51641524Y-111958219D01*
X51641524Y-111958219D02*
X51879619Y-111958219D01*
X51879619Y-111958219D02*
X51974857Y-111910600D01*
X51974857Y-111910600D02*
X52022476Y-111862980D01*
X52022476Y-111862980D02*
X52070095Y-111767742D01*
X52070095Y-111767742D02*
X52070095Y-111672504D01*
X52070095Y-111672504D02*
X52022476Y-111577266D01*
X52022476Y-111577266D02*
X51974857Y-111529647D01*
X51974857Y-111529647D02*
X51879619Y-111482028D01*
X51879619Y-111482028D02*
X51689143Y-111434409D01*
X51689143Y-111434409D02*
X51593905Y-111386790D01*
X51593905Y-111386790D02*
X51546286Y-111339171D01*
X51546286Y-111339171D02*
X51498667Y-111243933D01*
X51498667Y-111243933D02*
X51498667Y-111148695D01*
X51498667Y-111148695D02*
X51546286Y-111053457D01*
X51546286Y-111053457D02*
X51593905Y-111005838D01*
X51593905Y-111005838D02*
X51689143Y-110958219D01*
X51689143Y-110958219D02*
X51927238Y-110958219D01*
X51927238Y-110958219D02*
X52070095Y-111005838D01*
X52403429Y-110958219D02*
X52641524Y-111958219D01*
X52641524Y-111958219D02*
X52832000Y-111243933D01*
X52832000Y-111243933D02*
X53022476Y-111958219D01*
X53022476Y-111958219D02*
X53260572Y-110958219D01*
X54165333Y-111958219D02*
X53593905Y-111958219D01*
X53879619Y-111958219D02*
X53879619Y-110958219D01*
X53879619Y-110958219D02*
X53784381Y-111101076D01*
X53784381Y-111101076D02*
X53689143Y-111196314D01*
X53689143Y-111196314D02*
X53593905Y-111243933D01*
X60345905Y-30936219D02*
X60345905Y-29936219D01*
X60345905Y-29936219D02*
X60584000Y-29936219D01*
X60584000Y-29936219D02*
X60726857Y-29983838D01*
X60726857Y-29983838D02*
X60822095Y-30079076D01*
X60822095Y-30079076D02*
X60869714Y-30174314D01*
X60869714Y-30174314D02*
X60917333Y-30364790D01*
X60917333Y-30364790D02*
X60917333Y-30507647D01*
X60917333Y-30507647D02*
X60869714Y-30698123D01*
X60869714Y-30698123D02*
X60822095Y-30793361D01*
X60822095Y-30793361D02*
X60726857Y-30888600D01*
X60726857Y-30888600D02*
X60584000Y-30936219D01*
X60584000Y-30936219D02*
X60345905Y-30936219D01*
X61298286Y-30031457D02*
X61345905Y-29983838D01*
X61345905Y-29983838D02*
X61441143Y-29936219D01*
X61441143Y-29936219D02*
X61679238Y-29936219D01*
X61679238Y-29936219D02*
X61774476Y-29983838D01*
X61774476Y-29983838D02*
X61822095Y-30031457D01*
X61822095Y-30031457D02*
X61869714Y-30126695D01*
X61869714Y-30126695D02*
X61869714Y-30221933D01*
X61869714Y-30221933D02*
X61822095Y-30364790D01*
X61822095Y-30364790D02*
X61250667Y-30936219D01*
X61250667Y-30936219D02*
X61869714Y-30936219D01*
X43807142Y-30424219D02*
X43473809Y-29948028D01*
X43235714Y-30424219D02*
X43235714Y-29424219D01*
X43235714Y-29424219D02*
X43616666Y-29424219D01*
X43616666Y-29424219D02*
X43711904Y-29471838D01*
X43711904Y-29471838D02*
X43759523Y-29519457D01*
X43759523Y-29519457D02*
X43807142Y-29614695D01*
X43807142Y-29614695D02*
X43807142Y-29757552D01*
X43807142Y-29757552D02*
X43759523Y-29852790D01*
X43759523Y-29852790D02*
X43711904Y-29900409D01*
X43711904Y-29900409D02*
X43616666Y-29948028D01*
X43616666Y-29948028D02*
X43235714Y-29948028D01*
X44759523Y-30424219D02*
X44188095Y-30424219D01*
X44473809Y-30424219D02*
X44473809Y-29424219D01*
X44473809Y-29424219D02*
X44378571Y-29567076D01*
X44378571Y-29567076D02*
X44283333Y-29662314D01*
X44283333Y-29662314D02*
X44188095Y-29709933D01*
X45378571Y-29424219D02*
X45473809Y-29424219D01*
X45473809Y-29424219D02*
X45569047Y-29471838D01*
X45569047Y-29471838D02*
X45616666Y-29519457D01*
X45616666Y-29519457D02*
X45664285Y-29614695D01*
X45664285Y-29614695D02*
X45711904Y-29805171D01*
X45711904Y-29805171D02*
X45711904Y-30043266D01*
X45711904Y-30043266D02*
X45664285Y-30233742D01*
X45664285Y-30233742D02*
X45616666Y-30328980D01*
X45616666Y-30328980D02*
X45569047Y-30376600D01*
X45569047Y-30376600D02*
X45473809Y-30424219D01*
X45473809Y-30424219D02*
X45378571Y-30424219D01*
X45378571Y-30424219D02*
X45283333Y-30376600D01*
X45283333Y-30376600D02*
X45235714Y-30328980D01*
X45235714Y-30328980D02*
X45188095Y-30233742D01*
X45188095Y-30233742D02*
X45140476Y-30043266D01*
X45140476Y-30043266D02*
X45140476Y-29805171D01*
X45140476Y-29805171D02*
X45188095Y-29614695D01*
X45188095Y-29614695D02*
X45235714Y-29519457D01*
X45235714Y-29519457D02*
X45283333Y-29471838D01*
X45283333Y-29471838D02*
X45378571Y-29424219D01*
X60897333Y-29178219D02*
X60564000Y-28702028D01*
X60325905Y-29178219D02*
X60325905Y-28178219D01*
X60325905Y-28178219D02*
X60706857Y-28178219D01*
X60706857Y-28178219D02*
X60802095Y-28225838D01*
X60802095Y-28225838D02*
X60849714Y-28273457D01*
X60849714Y-28273457D02*
X60897333Y-28368695D01*
X60897333Y-28368695D02*
X60897333Y-28511552D01*
X60897333Y-28511552D02*
X60849714Y-28606790D01*
X60849714Y-28606790D02*
X60802095Y-28654409D01*
X60802095Y-28654409D02*
X60706857Y-28702028D01*
X60706857Y-28702028D02*
X60325905Y-28702028D01*
X61230667Y-28178219D02*
X61897333Y-28178219D01*
X61897333Y-28178219D02*
X61468762Y-29178219D01*
X62428219Y-43568857D02*
X61952028Y-43902190D01*
X62428219Y-44140285D02*
X61428219Y-44140285D01*
X61428219Y-44140285D02*
X61428219Y-43759333D01*
X61428219Y-43759333D02*
X61475838Y-43664095D01*
X61475838Y-43664095D02*
X61523457Y-43616476D01*
X61523457Y-43616476D02*
X61618695Y-43568857D01*
X61618695Y-43568857D02*
X61761552Y-43568857D01*
X61761552Y-43568857D02*
X61856790Y-43616476D01*
X61856790Y-43616476D02*
X61904409Y-43664095D01*
X61904409Y-43664095D02*
X61952028Y-43759333D01*
X61952028Y-43759333D02*
X61952028Y-44140285D01*
X62428219Y-42616476D02*
X62428219Y-43187904D01*
X62428219Y-42902190D02*
X61428219Y-42902190D01*
X61428219Y-42902190D02*
X61571076Y-42997428D01*
X61571076Y-42997428D02*
X61666314Y-43092666D01*
X61666314Y-43092666D02*
X61713933Y-43187904D01*
X61523457Y-42235523D02*
X61475838Y-42187904D01*
X61475838Y-42187904D02*
X61428219Y-42092666D01*
X61428219Y-42092666D02*
X61428219Y-41854571D01*
X61428219Y-41854571D02*
X61475838Y-41759333D01*
X61475838Y-41759333D02*
X61523457Y-41711714D01*
X61523457Y-41711714D02*
X61618695Y-41664095D01*
X61618695Y-41664095D02*
X61713933Y-41664095D01*
X61713933Y-41664095D02*
X61856790Y-41711714D01*
X61856790Y-41711714D02*
X62428219Y-42283142D01*
X62428219Y-42283142D02*
X62428219Y-41664095D01*
X56546761Y-39409457D02*
X56451523Y-39361838D01*
X56451523Y-39361838D02*
X56356285Y-39266600D01*
X56356285Y-39266600D02*
X56213428Y-39123742D01*
X56213428Y-39123742D02*
X56118190Y-39076123D01*
X56118190Y-39076123D02*
X56022952Y-39076123D01*
X56070571Y-39314219D02*
X55975333Y-39266600D01*
X55975333Y-39266600D02*
X55880095Y-39171361D01*
X55880095Y-39171361D02*
X55832476Y-38980885D01*
X55832476Y-38980885D02*
X55832476Y-38647552D01*
X55832476Y-38647552D02*
X55880095Y-38457076D01*
X55880095Y-38457076D02*
X55975333Y-38361838D01*
X55975333Y-38361838D02*
X56070571Y-38314219D01*
X56070571Y-38314219D02*
X56261047Y-38314219D01*
X56261047Y-38314219D02*
X56356285Y-38361838D01*
X56356285Y-38361838D02*
X56451523Y-38457076D01*
X56451523Y-38457076D02*
X56499142Y-38647552D01*
X56499142Y-38647552D02*
X56499142Y-38980885D01*
X56499142Y-38980885D02*
X56451523Y-39171361D01*
X56451523Y-39171361D02*
X56356285Y-39266600D01*
X56356285Y-39266600D02*
X56261047Y-39314219D01*
X56261047Y-39314219D02*
X56070571Y-39314219D01*
X56880095Y-38409457D02*
X56927714Y-38361838D01*
X56927714Y-38361838D02*
X57022952Y-38314219D01*
X57022952Y-38314219D02*
X57261047Y-38314219D01*
X57261047Y-38314219D02*
X57356285Y-38361838D01*
X57356285Y-38361838D02*
X57403904Y-38409457D01*
X57403904Y-38409457D02*
X57451523Y-38504695D01*
X57451523Y-38504695D02*
X57451523Y-38599933D01*
X57451523Y-38599933D02*
X57403904Y-38742790D01*
X57403904Y-38742790D02*
X56832476Y-39314219D01*
X56832476Y-39314219D02*
X57451523Y-39314219D01*
X57150095Y-99274219D02*
X57150095Y-100083742D01*
X57150095Y-100083742D02*
X57197714Y-100178980D01*
X57197714Y-100178980D02*
X57245333Y-100226600D01*
X57245333Y-100226600D02*
X57340571Y-100274219D01*
X57340571Y-100274219D02*
X57531047Y-100274219D01*
X57531047Y-100274219D02*
X57626285Y-100226600D01*
X57626285Y-100226600D02*
X57673904Y-100178980D01*
X57673904Y-100178980D02*
X57721523Y-100083742D01*
X57721523Y-100083742D02*
X57721523Y-99274219D01*
X58102476Y-99274219D02*
X58769142Y-99274219D01*
X58769142Y-99274219D02*
X58340571Y-100274219D01*
X44315142Y-73858219D02*
X43981809Y-73382028D01*
X43743714Y-73858219D02*
X43743714Y-72858219D01*
X43743714Y-72858219D02*
X44124666Y-72858219D01*
X44124666Y-72858219D02*
X44219904Y-72905838D01*
X44219904Y-72905838D02*
X44267523Y-72953457D01*
X44267523Y-72953457D02*
X44315142Y-73048695D01*
X44315142Y-73048695D02*
X44315142Y-73191552D01*
X44315142Y-73191552D02*
X44267523Y-73286790D01*
X44267523Y-73286790D02*
X44219904Y-73334409D01*
X44219904Y-73334409D02*
X44124666Y-73382028D01*
X44124666Y-73382028D02*
X43743714Y-73382028D01*
X45267523Y-73858219D02*
X44696095Y-73858219D01*
X44981809Y-73858219D02*
X44981809Y-72858219D01*
X44981809Y-72858219D02*
X44886571Y-73001076D01*
X44886571Y-73001076D02*
X44791333Y-73096314D01*
X44791333Y-73096314D02*
X44696095Y-73143933D01*
X46124666Y-73191552D02*
X46124666Y-73858219D01*
X45886571Y-72810600D02*
X45648476Y-73524885D01*
X45648476Y-73524885D02*
X46267523Y-73524885D01*
X59828133Y-104846219D02*
X59494800Y-104370028D01*
X59256705Y-104846219D02*
X59256705Y-103846219D01*
X59256705Y-103846219D02*
X59637657Y-103846219D01*
X59637657Y-103846219D02*
X59732895Y-103893838D01*
X59732895Y-103893838D02*
X59780514Y-103941457D01*
X59780514Y-103941457D02*
X59828133Y-104036695D01*
X59828133Y-104036695D02*
X59828133Y-104179552D01*
X59828133Y-104179552D02*
X59780514Y-104274790D01*
X59780514Y-104274790D02*
X59732895Y-104322409D01*
X59732895Y-104322409D02*
X59637657Y-104370028D01*
X59637657Y-104370028D02*
X59256705Y-104370028D01*
X60161467Y-103846219D02*
X60780514Y-103846219D01*
X60780514Y-103846219D02*
X60447181Y-104227171D01*
X60447181Y-104227171D02*
X60590038Y-104227171D01*
X60590038Y-104227171D02*
X60685276Y-104274790D01*
X60685276Y-104274790D02*
X60732895Y-104322409D01*
X60732895Y-104322409D02*
X60780514Y-104417647D01*
X60780514Y-104417647D02*
X60780514Y-104655742D01*
X60780514Y-104655742D02*
X60732895Y-104750980D01*
X60732895Y-104750980D02*
X60685276Y-104798600D01*
X60685276Y-104798600D02*
X60590038Y-104846219D01*
X60590038Y-104846219D02*
X60304324Y-104846219D01*
X60304324Y-104846219D02*
X60209086Y-104798600D01*
X60209086Y-104798600D02*
X60161467Y-104750980D01*
X61333142Y-100274219D02*
X60999809Y-99798028D01*
X60761714Y-100274219D02*
X60761714Y-99274219D01*
X60761714Y-99274219D02*
X61142666Y-99274219D01*
X61142666Y-99274219D02*
X61237904Y-99321838D01*
X61237904Y-99321838D02*
X61285523Y-99369457D01*
X61285523Y-99369457D02*
X61333142Y-99464695D01*
X61333142Y-99464695D02*
X61333142Y-99607552D01*
X61333142Y-99607552D02*
X61285523Y-99702790D01*
X61285523Y-99702790D02*
X61237904Y-99750409D01*
X61237904Y-99750409D02*
X61142666Y-99798028D01*
X61142666Y-99798028D02*
X60761714Y-99798028D01*
X62285523Y-100274219D02*
X61714095Y-100274219D01*
X61999809Y-100274219D02*
X61999809Y-99274219D01*
X61999809Y-99274219D02*
X61904571Y-99417076D01*
X61904571Y-99417076D02*
X61809333Y-99512314D01*
X61809333Y-99512314D02*
X61714095Y-99559933D01*
X62856952Y-99702790D02*
X62761714Y-99655171D01*
X62761714Y-99655171D02*
X62714095Y-99607552D01*
X62714095Y-99607552D02*
X62666476Y-99512314D01*
X62666476Y-99512314D02*
X62666476Y-99464695D01*
X62666476Y-99464695D02*
X62714095Y-99369457D01*
X62714095Y-99369457D02*
X62761714Y-99321838D01*
X62761714Y-99321838D02*
X62856952Y-99274219D01*
X62856952Y-99274219D02*
X63047428Y-99274219D01*
X63047428Y-99274219D02*
X63142666Y-99321838D01*
X63142666Y-99321838D02*
X63190285Y-99369457D01*
X63190285Y-99369457D02*
X63237904Y-99464695D01*
X63237904Y-99464695D02*
X63237904Y-99512314D01*
X63237904Y-99512314D02*
X63190285Y-99607552D01*
X63190285Y-99607552D02*
X63142666Y-99655171D01*
X63142666Y-99655171D02*
X63047428Y-99702790D01*
X63047428Y-99702790D02*
X62856952Y-99702790D01*
X62856952Y-99702790D02*
X62761714Y-99750409D01*
X62761714Y-99750409D02*
X62714095Y-99798028D01*
X62714095Y-99798028D02*
X62666476Y-99893266D01*
X62666476Y-99893266D02*
X62666476Y-100083742D01*
X62666476Y-100083742D02*
X62714095Y-100178980D01*
X62714095Y-100178980D02*
X62761714Y-100226600D01*
X62761714Y-100226600D02*
X62856952Y-100274219D01*
X62856952Y-100274219D02*
X63047428Y-100274219D01*
X63047428Y-100274219D02*
X63142666Y-100226600D01*
X63142666Y-100226600D02*
X63190285Y-100178980D01*
X63190285Y-100178980D02*
X63237904Y-100083742D01*
X63237904Y-100083742D02*
X63237904Y-99893266D01*
X63237904Y-99893266D02*
X63190285Y-99798028D01*
X63190285Y-99798028D02*
X63142666Y-99750409D01*
X63142666Y-99750409D02*
X63047428Y-99702790D01*
X62682219Y-60365094D02*
X61682219Y-60365094D01*
X61682219Y-60365094D02*
X61682219Y-60126999D01*
X61682219Y-60126999D02*
X61729838Y-59984142D01*
X61729838Y-59984142D02*
X61825076Y-59888904D01*
X61825076Y-59888904D02*
X61920314Y-59841285D01*
X61920314Y-59841285D02*
X62110790Y-59793666D01*
X62110790Y-59793666D02*
X62253647Y-59793666D01*
X62253647Y-59793666D02*
X62444123Y-59841285D01*
X62444123Y-59841285D02*
X62539361Y-59888904D01*
X62539361Y-59888904D02*
X62634600Y-59984142D01*
X62634600Y-59984142D02*
X62682219Y-60126999D01*
X62682219Y-60126999D02*
X62682219Y-60365094D01*
X61682219Y-59460332D02*
X61682219Y-58841285D01*
X61682219Y-58841285D02*
X62063171Y-59174618D01*
X62063171Y-59174618D02*
X62063171Y-59031761D01*
X62063171Y-59031761D02*
X62110790Y-58936523D01*
X62110790Y-58936523D02*
X62158409Y-58888904D01*
X62158409Y-58888904D02*
X62253647Y-58841285D01*
X62253647Y-58841285D02*
X62491742Y-58841285D01*
X62491742Y-58841285D02*
X62586980Y-58888904D01*
X62586980Y-58888904D02*
X62634600Y-58936523D01*
X62634600Y-58936523D02*
X62682219Y-59031761D01*
X62682219Y-59031761D02*
X62682219Y-59317475D01*
X62682219Y-59317475D02*
X62634600Y-59412713D01*
X62634600Y-59412713D02*
X62586980Y-59460332D01*
X44661333Y-36798219D02*
X44328000Y-36322028D01*
X44089905Y-36798219D02*
X44089905Y-35798219D01*
X44089905Y-35798219D02*
X44470857Y-35798219D01*
X44470857Y-35798219D02*
X44566095Y-35845838D01*
X44566095Y-35845838D02*
X44613714Y-35893457D01*
X44613714Y-35893457D02*
X44661333Y-35988695D01*
X44661333Y-35988695D02*
X44661333Y-36131552D01*
X44661333Y-36131552D02*
X44613714Y-36226790D01*
X44613714Y-36226790D02*
X44566095Y-36274409D01*
X44566095Y-36274409D02*
X44470857Y-36322028D01*
X44470857Y-36322028D02*
X44089905Y-36322028D01*
X45566095Y-35798219D02*
X45089905Y-35798219D01*
X45089905Y-35798219D02*
X45042286Y-36274409D01*
X45042286Y-36274409D02*
X45089905Y-36226790D01*
X45089905Y-36226790D02*
X45185143Y-36179171D01*
X45185143Y-36179171D02*
X45423238Y-36179171D01*
X45423238Y-36179171D02*
X45518476Y-36226790D01*
X45518476Y-36226790D02*
X45566095Y-36274409D01*
X45566095Y-36274409D02*
X45613714Y-36369647D01*
X45613714Y-36369647D02*
X45613714Y-36607742D01*
X45613714Y-36607742D02*
X45566095Y-36702980D01*
X45566095Y-36702980D02*
X45518476Y-36750600D01*
X45518476Y-36750600D02*
X45423238Y-36798219D01*
X45423238Y-36798219D02*
X45185143Y-36798219D01*
X45185143Y-36798219D02*
X45089905Y-36750600D01*
X45089905Y-36750600D02*
X45042286Y-36702980D01*
X57250333Y-62174219D02*
X56774143Y-62174219D01*
X56774143Y-62174219D02*
X56774143Y-61174219D01*
X58107476Y-62174219D02*
X57536048Y-62174219D01*
X57821762Y-62174219D02*
X57821762Y-61174219D01*
X57821762Y-61174219D02*
X57726524Y-61317076D01*
X57726524Y-61317076D02*
X57631286Y-61412314D01*
X57631286Y-61412314D02*
X57536048Y-61459933D01*
X62682219Y-63634857D02*
X62206028Y-63968190D01*
X62682219Y-64206285D02*
X61682219Y-64206285D01*
X61682219Y-64206285D02*
X61682219Y-63825333D01*
X61682219Y-63825333D02*
X61729838Y-63730095D01*
X61729838Y-63730095D02*
X61777457Y-63682476D01*
X61777457Y-63682476D02*
X61872695Y-63634857D01*
X61872695Y-63634857D02*
X62015552Y-63634857D01*
X62015552Y-63634857D02*
X62110790Y-63682476D01*
X62110790Y-63682476D02*
X62158409Y-63730095D01*
X62158409Y-63730095D02*
X62206028Y-63825333D01*
X62206028Y-63825333D02*
X62206028Y-64206285D01*
X62682219Y-62682476D02*
X62682219Y-63253904D01*
X62682219Y-62968190D02*
X61682219Y-62968190D01*
X61682219Y-62968190D02*
X61825076Y-63063428D01*
X61825076Y-63063428D02*
X61920314Y-63158666D01*
X61920314Y-63158666D02*
X61967933Y-63253904D01*
X62682219Y-61730095D02*
X62682219Y-62301523D01*
X62682219Y-62015809D02*
X61682219Y-62015809D01*
X61682219Y-62015809D02*
X61825076Y-62111047D01*
X61825076Y-62111047D02*
X61920314Y-62206285D01*
X61920314Y-62206285D02*
X61967933Y-62301523D01*
X60825142Y-36211719D02*
X60491809Y-35735528D01*
X60253714Y-36211719D02*
X60253714Y-35211719D01*
X60253714Y-35211719D02*
X60634666Y-35211719D01*
X60634666Y-35211719D02*
X60729904Y-35259338D01*
X60729904Y-35259338D02*
X60777523Y-35306957D01*
X60777523Y-35306957D02*
X60825142Y-35402195D01*
X60825142Y-35402195D02*
X60825142Y-35545052D01*
X60825142Y-35545052D02*
X60777523Y-35640290D01*
X60777523Y-35640290D02*
X60729904Y-35687909D01*
X60729904Y-35687909D02*
X60634666Y-35735528D01*
X60634666Y-35735528D02*
X60253714Y-35735528D01*
X61777523Y-36211719D02*
X61206095Y-36211719D01*
X61491809Y-36211719D02*
X61491809Y-35211719D01*
X61491809Y-35211719D02*
X61396571Y-35354576D01*
X61396571Y-35354576D02*
X61301333Y-35449814D01*
X61301333Y-35449814D02*
X61206095Y-35497433D01*
X62253714Y-36211719D02*
X62444190Y-36211719D01*
X62444190Y-36211719D02*
X62539428Y-36164100D01*
X62539428Y-36164100D02*
X62587047Y-36116480D01*
X62587047Y-36116480D02*
X62682285Y-35973623D01*
X62682285Y-35973623D02*
X62729904Y-35783147D01*
X62729904Y-35783147D02*
X62729904Y-35402195D01*
X62729904Y-35402195D02*
X62682285Y-35306957D01*
X62682285Y-35306957D02*
X62634666Y-35259338D01*
X62634666Y-35259338D02*
X62539428Y-35211719D01*
X62539428Y-35211719D02*
X62348952Y-35211719D01*
X62348952Y-35211719D02*
X62253714Y-35259338D01*
X62253714Y-35259338D02*
X62206095Y-35306957D01*
X62206095Y-35306957D02*
X62158476Y-35402195D01*
X62158476Y-35402195D02*
X62158476Y-35640290D01*
X62158476Y-35640290D02*
X62206095Y-35735528D01*
X62206095Y-35735528D02*
X62253714Y-35783147D01*
X62253714Y-35783147D02*
X62348952Y-35830766D01*
X62348952Y-35830766D02*
X62539428Y-35830766D01*
X62539428Y-35830766D02*
X62634666Y-35783147D01*
X62634666Y-35783147D02*
X62682285Y-35735528D01*
X62682285Y-35735528D02*
X62729904Y-35640290D01*
X45426333Y-76810980D02*
X45378714Y-76858600D01*
X45378714Y-76858600D02*
X45235857Y-76906219D01*
X45235857Y-76906219D02*
X45140619Y-76906219D01*
X45140619Y-76906219D02*
X44997762Y-76858600D01*
X44997762Y-76858600D02*
X44902524Y-76763361D01*
X44902524Y-76763361D02*
X44854905Y-76668123D01*
X44854905Y-76668123D02*
X44807286Y-76477647D01*
X44807286Y-76477647D02*
X44807286Y-76334790D01*
X44807286Y-76334790D02*
X44854905Y-76144314D01*
X44854905Y-76144314D02*
X44902524Y-76049076D01*
X44902524Y-76049076D02*
X44997762Y-75953838D01*
X44997762Y-75953838D02*
X45140619Y-75906219D01*
X45140619Y-75906219D02*
X45235857Y-75906219D01*
X45235857Y-75906219D02*
X45378714Y-75953838D01*
X45378714Y-75953838D02*
X45426333Y-76001457D01*
X45759667Y-75906219D02*
X46426333Y-75906219D01*
X46426333Y-75906219D02*
X45997762Y-76906219D01*
X46061333Y-69794219D02*
X45728000Y-69318028D01*
X45489905Y-69794219D02*
X45489905Y-68794219D01*
X45489905Y-68794219D02*
X45870857Y-68794219D01*
X45870857Y-68794219D02*
X45966095Y-68841838D01*
X45966095Y-68841838D02*
X46013714Y-68889457D01*
X46013714Y-68889457D02*
X46061333Y-68984695D01*
X46061333Y-68984695D02*
X46061333Y-69127552D01*
X46061333Y-69127552D02*
X46013714Y-69222790D01*
X46013714Y-69222790D02*
X45966095Y-69270409D01*
X45966095Y-69270409D02*
X45870857Y-69318028D01*
X45870857Y-69318028D02*
X45489905Y-69318028D01*
X46632762Y-69222790D02*
X46537524Y-69175171D01*
X46537524Y-69175171D02*
X46489905Y-69127552D01*
X46489905Y-69127552D02*
X46442286Y-69032314D01*
X46442286Y-69032314D02*
X46442286Y-68984695D01*
X46442286Y-68984695D02*
X46489905Y-68889457D01*
X46489905Y-68889457D02*
X46537524Y-68841838D01*
X46537524Y-68841838D02*
X46632762Y-68794219D01*
X46632762Y-68794219D02*
X46823238Y-68794219D01*
X46823238Y-68794219D02*
X46918476Y-68841838D01*
X46918476Y-68841838D02*
X46966095Y-68889457D01*
X46966095Y-68889457D02*
X47013714Y-68984695D01*
X47013714Y-68984695D02*
X47013714Y-69032314D01*
X47013714Y-69032314D02*
X46966095Y-69127552D01*
X46966095Y-69127552D02*
X46918476Y-69175171D01*
X46918476Y-69175171D02*
X46823238Y-69222790D01*
X46823238Y-69222790D02*
X46632762Y-69222790D01*
X46632762Y-69222790D02*
X46537524Y-69270409D01*
X46537524Y-69270409D02*
X46489905Y-69318028D01*
X46489905Y-69318028D02*
X46442286Y-69413266D01*
X46442286Y-69413266D02*
X46442286Y-69603742D01*
X46442286Y-69603742D02*
X46489905Y-69698980D01*
X46489905Y-69698980D02*
X46537524Y-69746600D01*
X46537524Y-69746600D02*
X46632762Y-69794219D01*
X46632762Y-69794219D02*
X46823238Y-69794219D01*
X46823238Y-69794219D02*
X46918476Y-69746600D01*
X46918476Y-69746600D02*
X46966095Y-69698980D01*
X46966095Y-69698980D02*
X47013714Y-69603742D01*
X47013714Y-69603742D02*
X47013714Y-69413266D01*
X47013714Y-69413266D02*
X46966095Y-69318028D01*
X46966095Y-69318028D02*
X46918476Y-69270409D01*
X46918476Y-69270409D02*
X46823238Y-69222790D01*
X59047142Y-73416219D02*
X58713809Y-72940028D01*
X58475714Y-73416219D02*
X58475714Y-72416219D01*
X58475714Y-72416219D02*
X58856666Y-72416219D01*
X58856666Y-72416219D02*
X58951904Y-72463838D01*
X58951904Y-72463838D02*
X58999523Y-72511457D01*
X58999523Y-72511457D02*
X59047142Y-72606695D01*
X59047142Y-72606695D02*
X59047142Y-72749552D01*
X59047142Y-72749552D02*
X58999523Y-72844790D01*
X58999523Y-72844790D02*
X58951904Y-72892409D01*
X58951904Y-72892409D02*
X58856666Y-72940028D01*
X58856666Y-72940028D02*
X58475714Y-72940028D01*
X59999523Y-73416219D02*
X59428095Y-73416219D01*
X59713809Y-73416219D02*
X59713809Y-72416219D01*
X59713809Y-72416219D02*
X59618571Y-72559076D01*
X59618571Y-72559076D02*
X59523333Y-72654314D01*
X59523333Y-72654314D02*
X59428095Y-72701933D01*
X60332857Y-72416219D02*
X60999523Y-72416219D01*
X60999523Y-72416219D02*
X60570952Y-73416219D01*
X58713905Y-49998219D02*
X59285333Y-49998219D01*
X58999619Y-50998219D02*
X58999619Y-49998219D01*
X59618667Y-50998219D02*
X59618667Y-49998219D01*
X59618667Y-49998219D02*
X59999619Y-49998219D01*
X59999619Y-49998219D02*
X60094857Y-50045838D01*
X60094857Y-50045838D02*
X60142476Y-50093457D01*
X60142476Y-50093457D02*
X60190095Y-50188695D01*
X60190095Y-50188695D02*
X60190095Y-50331552D01*
X60190095Y-50331552D02*
X60142476Y-50426790D01*
X60142476Y-50426790D02*
X60094857Y-50474409D01*
X60094857Y-50474409D02*
X59999619Y-50522028D01*
X59999619Y-50522028D02*
X59618667Y-50522028D01*
X61142476Y-50998219D02*
X60571048Y-50998219D01*
X60856762Y-50998219D02*
X60856762Y-49998219D01*
X60856762Y-49998219D02*
X60761524Y-50141076D01*
X60761524Y-50141076D02*
X60666286Y-50236314D01*
X60666286Y-50236314D02*
X60571048Y-50283933D01*
X61761524Y-49998219D02*
X61856762Y-49998219D01*
X61856762Y-49998219D02*
X61952000Y-50045838D01*
X61952000Y-50045838D02*
X61999619Y-50093457D01*
X61999619Y-50093457D02*
X62047238Y-50188695D01*
X62047238Y-50188695D02*
X62094857Y-50379171D01*
X62094857Y-50379171D02*
X62094857Y-50617266D01*
X62094857Y-50617266D02*
X62047238Y-50807742D01*
X62047238Y-50807742D02*
X61999619Y-50902980D01*
X61999619Y-50902980D02*
X61952000Y-50950600D01*
X61952000Y-50950600D02*
X61856762Y-50998219D01*
X61856762Y-50998219D02*
X61761524Y-50998219D01*
X61761524Y-50998219D02*
X61666286Y-50950600D01*
X61666286Y-50950600D02*
X61618667Y-50902980D01*
X61618667Y-50902980D02*
X61571048Y-50807742D01*
X61571048Y-50807742D02*
X61523429Y-50617266D01*
X61523429Y-50617266D02*
X61523429Y-50379171D01*
X61523429Y-50379171D02*
X61571048Y-50188695D01*
X61571048Y-50188695D02*
X61618667Y-50093457D01*
X61618667Y-50093457D02*
X61666286Y-50045838D01*
X61666286Y-50045838D02*
X61761524Y-49998219D01*
X48768095Y-64984219D02*
X48768095Y-65793742D01*
X48768095Y-65793742D02*
X48815714Y-65888980D01*
X48815714Y-65888980D02*
X48863333Y-65936600D01*
X48863333Y-65936600D02*
X48958571Y-65984219D01*
X48958571Y-65984219D02*
X49149047Y-65984219D01*
X49149047Y-65984219D02*
X49244285Y-65936600D01*
X49244285Y-65936600D02*
X49291904Y-65888980D01*
X49291904Y-65888980D02*
X49339523Y-65793742D01*
X49339523Y-65793742D02*
X49339523Y-64984219D01*
X49768095Y-65079457D02*
X49815714Y-65031838D01*
X49815714Y-65031838D02*
X49910952Y-64984219D01*
X49910952Y-64984219D02*
X50149047Y-64984219D01*
X50149047Y-64984219D02*
X50244285Y-65031838D01*
X50244285Y-65031838D02*
X50291904Y-65079457D01*
X50291904Y-65079457D02*
X50339523Y-65174695D01*
X50339523Y-65174695D02*
X50339523Y-65269933D01*
X50339523Y-65269933D02*
X50291904Y-65412790D01*
X50291904Y-65412790D02*
X49720476Y-65984219D01*
X49720476Y-65984219D02*
X50339523Y-65984219D01*
X56507142Y-47696219D02*
X56173809Y-47220028D01*
X55935714Y-47696219D02*
X55935714Y-46696219D01*
X55935714Y-46696219D02*
X56316666Y-46696219D01*
X56316666Y-46696219D02*
X56411904Y-46743838D01*
X56411904Y-46743838D02*
X56459523Y-46791457D01*
X56459523Y-46791457D02*
X56507142Y-46886695D01*
X56507142Y-46886695D02*
X56507142Y-47029552D01*
X56507142Y-47029552D02*
X56459523Y-47124790D01*
X56459523Y-47124790D02*
X56411904Y-47172409D01*
X56411904Y-47172409D02*
X56316666Y-47220028D01*
X56316666Y-47220028D02*
X55935714Y-47220028D01*
X57459523Y-47696219D02*
X56888095Y-47696219D01*
X57173809Y-47696219D02*
X57173809Y-46696219D01*
X57173809Y-46696219D02*
X57078571Y-46839076D01*
X57078571Y-46839076D02*
X56983333Y-46934314D01*
X56983333Y-46934314D02*
X56888095Y-46981933D01*
X57792857Y-46696219D02*
X58411904Y-46696219D01*
X58411904Y-46696219D02*
X58078571Y-47077171D01*
X58078571Y-47077171D02*
X58221428Y-47077171D01*
X58221428Y-47077171D02*
X58316666Y-47124790D01*
X58316666Y-47124790D02*
X58364285Y-47172409D01*
X58364285Y-47172409D02*
X58411904Y-47267647D01*
X58411904Y-47267647D02*
X58411904Y-47505742D01*
X58411904Y-47505742D02*
X58364285Y-47600980D01*
X58364285Y-47600980D02*
X58316666Y-47648600D01*
X58316666Y-47648600D02*
X58221428Y-47696219D01*
X58221428Y-47696219D02*
X57935714Y-47696219D01*
X57935714Y-47696219D02*
X57840476Y-47648600D01*
X57840476Y-47648600D02*
X57792857Y-47600980D01*
X60825142Y-94940219D02*
X60491809Y-94464028D01*
X60253714Y-94940219D02*
X60253714Y-93940219D01*
X60253714Y-93940219D02*
X60634666Y-93940219D01*
X60634666Y-93940219D02*
X60729904Y-93987838D01*
X60729904Y-93987838D02*
X60777523Y-94035457D01*
X60777523Y-94035457D02*
X60825142Y-94130695D01*
X60825142Y-94130695D02*
X60825142Y-94273552D01*
X60825142Y-94273552D02*
X60777523Y-94368790D01*
X60777523Y-94368790D02*
X60729904Y-94416409D01*
X60729904Y-94416409D02*
X60634666Y-94464028D01*
X60634666Y-94464028D02*
X60253714Y-94464028D01*
X61777523Y-94940219D02*
X61206095Y-94940219D01*
X61491809Y-94940219D02*
X61491809Y-93940219D01*
X61491809Y-93940219D02*
X61396571Y-94083076D01*
X61396571Y-94083076D02*
X61301333Y-94178314D01*
X61301333Y-94178314D02*
X61206095Y-94225933D01*
X62682285Y-93940219D02*
X62206095Y-93940219D01*
X62206095Y-93940219D02*
X62158476Y-94416409D01*
X62158476Y-94416409D02*
X62206095Y-94368790D01*
X62206095Y-94368790D02*
X62301333Y-94321171D01*
X62301333Y-94321171D02*
X62539428Y-94321171D01*
X62539428Y-94321171D02*
X62634666Y-94368790D01*
X62634666Y-94368790D02*
X62682285Y-94416409D01*
X62682285Y-94416409D02*
X62729904Y-94511647D01*
X62729904Y-94511647D02*
X62729904Y-94749742D01*
X62729904Y-94749742D02*
X62682285Y-94844980D01*
X62682285Y-94844980D02*
X62634666Y-94892600D01*
X62634666Y-94892600D02*
X62539428Y-94940219D01*
X62539428Y-94940219D02*
X62301333Y-94940219D01*
X62301333Y-94940219D02*
X62206095Y-94892600D01*
X62206095Y-94892600D02*
X62158476Y-94844980D01*
X60345905Y-32734219D02*
X60345905Y-31734219D01*
X60345905Y-31734219D02*
X60584000Y-31734219D01*
X60584000Y-31734219D02*
X60726857Y-31781838D01*
X60726857Y-31781838D02*
X60822095Y-31877076D01*
X60822095Y-31877076D02*
X60869714Y-31972314D01*
X60869714Y-31972314D02*
X60917333Y-32162790D01*
X60917333Y-32162790D02*
X60917333Y-32305647D01*
X60917333Y-32305647D02*
X60869714Y-32496123D01*
X60869714Y-32496123D02*
X60822095Y-32591361D01*
X60822095Y-32591361D02*
X60726857Y-32686600D01*
X60726857Y-32686600D02*
X60584000Y-32734219D01*
X60584000Y-32734219D02*
X60345905Y-32734219D01*
X61869714Y-32734219D02*
X61298286Y-32734219D01*
X61584000Y-32734219D02*
X61584000Y-31734219D01*
X61584000Y-31734219D02*
X61488762Y-31877076D01*
X61488762Y-31877076D02*
X61393524Y-31972314D01*
X61393524Y-31972314D02*
X61298286Y-32019933D01*
X52132095Y-27670219D02*
X52132095Y-28479742D01*
X52132095Y-28479742D02*
X52179714Y-28574980D01*
X52179714Y-28574980D02*
X52227333Y-28622600D01*
X52227333Y-28622600D02*
X52322571Y-28670219D01*
X52322571Y-28670219D02*
X52513047Y-28670219D01*
X52513047Y-28670219D02*
X52608285Y-28622600D01*
X52608285Y-28622600D02*
X52655904Y-28574980D01*
X52655904Y-28574980D02*
X52703523Y-28479742D01*
X52703523Y-28479742D02*
X52703523Y-27670219D01*
X53084476Y-27670219D02*
X53703523Y-27670219D01*
X53703523Y-27670219D02*
X53370190Y-28051171D01*
X53370190Y-28051171D02*
X53513047Y-28051171D01*
X53513047Y-28051171D02*
X53608285Y-28098790D01*
X53608285Y-28098790D02*
X53655904Y-28146409D01*
X53655904Y-28146409D02*
X53703523Y-28241647D01*
X53703523Y-28241647D02*
X53703523Y-28479742D01*
X53703523Y-28479742D02*
X53655904Y-28574980D01*
X53655904Y-28574980D02*
X53608285Y-28622600D01*
X53608285Y-28622600D02*
X53513047Y-28670219D01*
X53513047Y-28670219D02*
X53227333Y-28670219D01*
X53227333Y-28670219D02*
X53132095Y-28622600D01*
X53132095Y-28622600D02*
X53084476Y-28574980D01*
X60897333Y-34392980D02*
X60849714Y-34440600D01*
X60849714Y-34440600D02*
X60706857Y-34488219D01*
X60706857Y-34488219D02*
X60611619Y-34488219D01*
X60611619Y-34488219D02*
X60468762Y-34440600D01*
X60468762Y-34440600D02*
X60373524Y-34345361D01*
X60373524Y-34345361D02*
X60325905Y-34250123D01*
X60325905Y-34250123D02*
X60278286Y-34059647D01*
X60278286Y-34059647D02*
X60278286Y-33916790D01*
X60278286Y-33916790D02*
X60325905Y-33726314D01*
X60325905Y-33726314D02*
X60373524Y-33631076D01*
X60373524Y-33631076D02*
X60468762Y-33535838D01*
X60468762Y-33535838D02*
X60611619Y-33488219D01*
X60611619Y-33488219D02*
X60706857Y-33488219D01*
X60706857Y-33488219D02*
X60849714Y-33535838D01*
X60849714Y-33535838D02*
X60897333Y-33583457D01*
X61754476Y-33488219D02*
X61564000Y-33488219D01*
X61564000Y-33488219D02*
X61468762Y-33535838D01*
X61468762Y-33535838D02*
X61421143Y-33583457D01*
X61421143Y-33583457D02*
X61325905Y-33726314D01*
X61325905Y-33726314D02*
X61278286Y-33916790D01*
X61278286Y-33916790D02*
X61278286Y-34297742D01*
X61278286Y-34297742D02*
X61325905Y-34392980D01*
X61325905Y-34392980D02*
X61373524Y-34440600D01*
X61373524Y-34440600D02*
X61468762Y-34488219D01*
X61468762Y-34488219D02*
X61659238Y-34488219D01*
X61659238Y-34488219D02*
X61754476Y-34440600D01*
X61754476Y-34440600D02*
X61802095Y-34392980D01*
X61802095Y-34392980D02*
X61849714Y-34297742D01*
X61849714Y-34297742D02*
X61849714Y-34059647D01*
X61849714Y-34059647D02*
X61802095Y-33964409D01*
X61802095Y-33964409D02*
X61754476Y-33916790D01*
X61754476Y-33916790D02*
X61659238Y-33869171D01*
X61659238Y-33869171D02*
X61468762Y-33869171D01*
X61468762Y-33869171D02*
X61373524Y-33916790D01*
X61373524Y-33916790D02*
X61325905Y-33964409D01*
X61325905Y-33964409D02*
X61278286Y-34059647D01*
X52794761Y-39354957D02*
X52699523Y-39307338D01*
X52699523Y-39307338D02*
X52604285Y-39212100D01*
X52604285Y-39212100D02*
X52461428Y-39069242D01*
X52461428Y-39069242D02*
X52366190Y-39021623D01*
X52366190Y-39021623D02*
X52270952Y-39021623D01*
X52318571Y-39259719D02*
X52223333Y-39212100D01*
X52223333Y-39212100D02*
X52128095Y-39116861D01*
X52128095Y-39116861D02*
X52080476Y-38926385D01*
X52080476Y-38926385D02*
X52080476Y-38593052D01*
X52080476Y-38593052D02*
X52128095Y-38402576D01*
X52128095Y-38402576D02*
X52223333Y-38307338D01*
X52223333Y-38307338D02*
X52318571Y-38259719D01*
X52318571Y-38259719D02*
X52509047Y-38259719D01*
X52509047Y-38259719D02*
X52604285Y-38307338D01*
X52604285Y-38307338D02*
X52699523Y-38402576D01*
X52699523Y-38402576D02*
X52747142Y-38593052D01*
X52747142Y-38593052D02*
X52747142Y-38926385D01*
X52747142Y-38926385D02*
X52699523Y-39116861D01*
X52699523Y-39116861D02*
X52604285Y-39212100D01*
X52604285Y-39212100D02*
X52509047Y-39259719D01*
X52509047Y-39259719D02*
X52318571Y-39259719D01*
X53699523Y-39259719D02*
X53128095Y-39259719D01*
X53413809Y-39259719D02*
X53413809Y-38259719D01*
X53413809Y-38259719D02*
X53318571Y-38402576D01*
X53318571Y-38402576D02*
X53223333Y-38497814D01*
X53223333Y-38497814D02*
X53128095Y-38545433D01*
X44661333Y-33146980D02*
X44613714Y-33194600D01*
X44613714Y-33194600D02*
X44470857Y-33242219D01*
X44470857Y-33242219D02*
X44375619Y-33242219D01*
X44375619Y-33242219D02*
X44232762Y-33194600D01*
X44232762Y-33194600D02*
X44137524Y-33099361D01*
X44137524Y-33099361D02*
X44089905Y-33004123D01*
X44089905Y-33004123D02*
X44042286Y-32813647D01*
X44042286Y-32813647D02*
X44042286Y-32670790D01*
X44042286Y-32670790D02*
X44089905Y-32480314D01*
X44089905Y-32480314D02*
X44137524Y-32385076D01*
X44137524Y-32385076D02*
X44232762Y-32289838D01*
X44232762Y-32289838D02*
X44375619Y-32242219D01*
X44375619Y-32242219D02*
X44470857Y-32242219D01*
X44470857Y-32242219D02*
X44613714Y-32289838D01*
X44613714Y-32289838D02*
X44661333Y-32337457D01*
X44994667Y-32242219D02*
X45613714Y-32242219D01*
X45613714Y-32242219D02*
X45280381Y-32623171D01*
X45280381Y-32623171D02*
X45423238Y-32623171D01*
X45423238Y-32623171D02*
X45518476Y-32670790D01*
X45518476Y-32670790D02*
X45566095Y-32718409D01*
X45566095Y-32718409D02*
X45613714Y-32813647D01*
X45613714Y-32813647D02*
X45613714Y-33051742D01*
X45613714Y-33051742D02*
X45566095Y-33146980D01*
X45566095Y-33146980D02*
X45518476Y-33194600D01*
X45518476Y-33194600D02*
X45423238Y-33242219D01*
X45423238Y-33242219D02*
X45137524Y-33242219D01*
X45137524Y-33242219D02*
X45042286Y-33194600D01*
X45042286Y-33194600D02*
X44994667Y-33146980D01*
D13*
%TO.C,D6*%
X54886429Y-96520000D02*
X54886429Y-98298000D01*
X52346429Y-98298000D02*
X52346429Y-96520000D01*
X54378429Y-98806000D02*
X52854429Y-98806000D01*
X57172429Y-90932000D02*
G75*
G02*
X48536429Y-90932000I-4318000J0D01*
G01*
X48536429Y-90932000D02*
G75*
G02*
X57172429Y-90932000I4318000J0D01*
G01*
X54886429Y-98298000D02*
G75*
G02*
X54378429Y-98806000I-508000J0D01*
G01*
X52854429Y-98806000D02*
G75*
G02*
X52346429Y-98298000I0J508000D01*
G01*
%TO.C,D5*%
X50800000Y-48006000D02*
X50800000Y-46228000D01*
X53340000Y-46228000D02*
X53340000Y-48006000D01*
X51308000Y-45720000D02*
X52832000Y-45720000D01*
X57150000Y-53594000D02*
G75*
G02*
X48514000Y-53594000I-4318000J0D01*
G01*
X48514000Y-53594000D02*
G75*
G02*
X57150000Y-53594000I4318000J0D01*
G01*
X50800000Y-46228000D02*
G75*
G02*
X51308000Y-45720000I508000J0D01*
G01*
X52832000Y-45720000D02*
G75*
G02*
X53340000Y-46228000I0J-508000D01*
G01*
%TO.C,U1*%
X53086000Y-100564000D02*
X51136000Y-100564000D01*
X53086000Y-100564000D02*
X55036000Y-100564000D01*
X53086000Y-105684000D02*
X51136000Y-105684000D01*
X53086000Y-105684000D02*
X55036000Y-105684000D01*
X50386000Y-100659000D02*
X50146000Y-100329000D01*
X50626000Y-100329000D01*
X50386000Y-100659000D01*
G36*
X50386000Y-100659000D02*
G01*
X50146000Y-100329000D01*
X50626000Y-100329000D01*
X50386000Y-100659000D01*
G37*
%TO.C,R6*%
X57135742Y-66787500D02*
X57610258Y-66787500D01*
X57135742Y-67832500D02*
X57610258Y-67832500D01*
%TO.C,C2*%
X50699580Y-62736000D02*
X50418420Y-62736000D01*
X50699580Y-63756000D02*
X50418420Y-63756000D01*
%TO.C,TP7*%
X49214000Y-113792000D02*
G75*
G02*
X47814000Y-113792000I-700000J0D01*
G01*
X47814000Y-113792000D02*
G75*
G02*
X49214000Y-113792000I700000J0D01*
G01*
%TO.C,TP2*%
X45307137Y-100584000D02*
G75*
G02*
X43907137Y-100584000I-700000J0D01*
G01*
X43907137Y-100584000D02*
G75*
G02*
X45307137Y-100584000I700000J0D01*
G01*
%TO.C,TP8*%
X55564000Y-69342000D02*
G75*
G02*
X54164000Y-69342000I-700000J0D01*
G01*
X54164000Y-69342000D02*
G75*
G02*
X55564000Y-69342000I700000J0D01*
G01*
%TO.C,J1*%
X48298800Y-24760000D02*
X48298800Y-23241000D01*
X57458800Y-24760000D02*
X57458800Y-23241000D01*
%TO.C,TP6*%
X60136000Y-23622000D02*
G75*
G02*
X58736000Y-23622000I-700000J0D01*
G01*
X58736000Y-23622000D02*
G75*
G02*
X60136000Y-23622000I700000J0D01*
G01*
%TO.C,U6*%
X56161000Y-77368000D02*
X55361000Y-77368000D01*
X56161000Y-77368000D02*
X56961000Y-77368000D01*
X57161000Y-74148000D02*
X55361000Y-74148000D01*
X57701000Y-77648000D02*
X57221000Y-77648000D01*
X57461000Y-77318000D01*
X57701000Y-77648000D01*
G36*
X57701000Y-77648000D02*
G01*
X57221000Y-77648000D01*
X57461000Y-77318000D01*
X57701000Y-77648000D01*
G37*
%TO.C,C4*%
X48921580Y-67054000D02*
X48640420Y-67054000D01*
X48921580Y-68074000D02*
X48640420Y-68074000D01*
%TO.C,U5*%
X50827000Y-77368000D02*
X50027000Y-77368000D01*
X50827000Y-77368000D02*
X51627000Y-77368000D01*
X51827000Y-74148000D02*
X50027000Y-74148000D01*
X52367000Y-77648000D02*
X51887000Y-77648000D01*
X52127000Y-77318000D01*
X52367000Y-77648000D01*
G36*
X52367000Y-77648000D02*
G01*
X51887000Y-77648000D01*
X52127000Y-77318000D01*
X52367000Y-77648000D01*
G37*
%TO.C,R9*%
X51845742Y-68819500D02*
X52320258Y-68819500D01*
X51845742Y-69864500D02*
X52320258Y-69864500D01*
%TO.C,C5*%
X53720420Y-62736000D02*
X54001580Y-62736000D01*
X53720420Y-63756000D02*
X54001580Y-63756000D01*
%TO.C,TP11*%
X60644000Y-92456000D02*
G75*
G02*
X59244000Y-92456000I-700000J0D01*
G01*
X59244000Y-92456000D02*
G75*
G02*
X60644000Y-92456000I700000J0D01*
G01*
%TO.C,R4*%
X47130742Y-34045500D02*
X47605258Y-34045500D01*
X47130742Y-35090500D02*
X47605258Y-35090500D01*
%TO.C,TP4*%
X43783137Y-102616000D02*
G75*
G02*
X42383137Y-102616000I-700000J0D01*
G01*
X42383137Y-102616000D02*
G75*
G02*
X43783137Y-102616000I700000J0D01*
G01*
%TO.C,TP1*%
X45307137Y-108712000D02*
G75*
G02*
X43907137Y-108712000I-700000J0D01*
G01*
X43907137Y-108712000D02*
G75*
G02*
X45307137Y-108712000I700000J0D01*
G01*
%TO.C,C1*%
X57503600Y-102248580D02*
X57503600Y-101967420D01*
X58523600Y-102248580D02*
X58523600Y-101967420D01*
%TO.C,U4*%
X56796000Y-44536000D02*
X55996000Y-44536000D01*
X56796000Y-44536000D02*
X57596000Y-44536000D01*
X57796000Y-41316000D02*
X55996000Y-41316000D01*
X58336000Y-44816000D02*
X57856000Y-44816000D01*
X58096000Y-44486000D01*
X58336000Y-44816000D01*
G36*
X58336000Y-44816000D02*
G01*
X57856000Y-44816000D01*
X58096000Y-44486000D01*
X58336000Y-44816000D01*
G37*
%TO.C,TP5*%
X45307137Y-104648000D02*
G75*
G02*
X43907137Y-104648000I-700000J0D01*
G01*
X43907137Y-104648000D02*
G75*
G02*
X45307137Y-104648000I700000J0D01*
G01*
%TO.C,R2*%
X45703258Y-24369500D02*
X45228742Y-24369500D01*
X45703258Y-25414500D02*
X45228742Y-25414500D01*
%TO.C,R1*%
X45703258Y-22591500D02*
X45228742Y-22591500D01*
X45703258Y-23636500D02*
X45228742Y-23636500D01*
%TO.C,R16*%
X60691500Y-97236242D02*
X60691500Y-97710758D01*
X61736500Y-97236242D02*
X61736500Y-97710758D01*
%TO.C,SW1*%
X51054000Y-112522000D02*
X54483000Y-112522000D01*
X51054000Y-115062000D02*
X54483000Y-115062000D01*
X53683942Y-113792000D02*
G75*
G02*
X51980058Y-113792000I-851942J0D01*
G01*
X51980058Y-113792000D02*
G75*
G02*
X53683942Y-113792000I851942J0D01*
G01*
%TO.C,D2*%
X57059000Y-29749000D02*
X57059000Y-31219000D01*
X57059000Y-31219000D02*
X59344000Y-31219000D01*
X59344000Y-29749000D02*
X57059000Y-29749000D01*
%TO.C,R10*%
X47605258Y-29473500D02*
X47130742Y-29473500D01*
X47605258Y-30518500D02*
X47130742Y-30518500D01*
%TO.C,R7*%
X58286742Y-28203500D02*
X58761258Y-28203500D01*
X58286742Y-29248500D02*
X58761258Y-29248500D01*
%TO.C,R12*%
X59929500Y-43163258D02*
X59929500Y-42688742D01*
X60974500Y-43163258D02*
X60974500Y-42688742D01*
%TO.C,Q2*%
X53362000Y-37029500D02*
X53362000Y-36379500D01*
X53362000Y-37029500D02*
X53362000Y-37679500D01*
X56482000Y-37029500D02*
X56482000Y-36379500D01*
X56482000Y-37029500D02*
X56482000Y-37679500D01*
X56762000Y-36107000D02*
X56432000Y-35867000D01*
X56762000Y-35627000D01*
X56762000Y-36107000D01*
G36*
X56762000Y-36107000D02*
G01*
X56432000Y-35867000D01*
X56762000Y-35627000D01*
X56762000Y-36107000D01*
G37*
%TO.C,U7*%
X57012000Y-98892000D02*
X58812000Y-98892000D01*
X58012000Y-95672000D02*
X57212000Y-95672000D01*
X58012000Y-95672000D02*
X58812000Y-95672000D01*
X56712000Y-95722000D02*
X56472000Y-95392000D01*
X56952000Y-95392000D01*
X56712000Y-95722000D01*
G36*
X56712000Y-95722000D02*
G01*
X56472000Y-95392000D01*
X56952000Y-95392000D01*
X56712000Y-95722000D01*
G37*
%TO.C,R14*%
X46848500Y-73168742D02*
X46848500Y-73643258D01*
X47893500Y-73168742D02*
X47893500Y-73643258D01*
%TO.C,R3*%
X59472300Y-101870742D02*
X59472300Y-102345258D01*
X60517300Y-101870742D02*
X60517300Y-102345258D01*
%TO.C,R18*%
X61453500Y-101870742D02*
X61453500Y-102345258D01*
X62498500Y-101870742D02*
X62498500Y-102345258D01*
%TO.C,D3*%
X59730000Y-58142000D02*
X59730000Y-60427000D01*
X61200000Y-58142000D02*
X59730000Y-58142000D01*
X61200000Y-60427000D02*
X61200000Y-58142000D01*
%TO.C,TP9*%
X43783137Y-106680000D02*
G75*
G02*
X42383137Y-106680000I-700000J0D01*
G01*
X42383137Y-106680000D02*
G75*
G02*
X43783137Y-106680000I700000J0D01*
G01*
%TO.C,TP3*%
X43783137Y-98552000D02*
G75*
G02*
X42383137Y-98552000I-700000J0D01*
G01*
X42383137Y-98552000D02*
G75*
G02*
X43783137Y-98552000I700000J0D01*
G01*
%TO.C,R5*%
X47605258Y-35823500D02*
X47130742Y-35823500D01*
X47605258Y-36868500D02*
X47130742Y-36868500D01*
%TO.C,R11*%
X59942500Y-63229258D02*
X59942500Y-62754742D01*
X60987500Y-63229258D02*
X60987500Y-62754742D01*
%TO.C,R19*%
X58761258Y-36282000D02*
X58286742Y-36282000D01*
X58761258Y-35237000D02*
X58286742Y-35237000D01*
%TO.C,C7*%
X46861000Y-76673580D02*
X46861000Y-76392420D01*
X47881000Y-76673580D02*
X47881000Y-76392420D01*
%TO.C,R8*%
X48543742Y-68819500D02*
X49018258Y-68819500D01*
X48543742Y-69864500D02*
X49018258Y-69864500D01*
%TO.C,R17*%
X57023258Y-72441500D02*
X56548742Y-72441500D01*
X57023258Y-73486500D02*
X56548742Y-73486500D01*
%TO.C,TP10*%
X61406000Y-48768000D02*
G75*
G02*
X60006000Y-48768000I-700000J0D01*
G01*
X60006000Y-48768000D02*
G75*
G02*
X61406000Y-48768000I700000J0D01*
G01*
%TO.C,U2*%
X52906000Y-67965000D02*
X52106000Y-67965000D01*
X52906000Y-67965000D02*
X53706000Y-67965000D01*
X53906000Y-64745000D02*
X52106000Y-64745000D01*
X54446000Y-68245000D02*
X53966000Y-68245000D01*
X54206000Y-67915000D01*
X54446000Y-68245000D01*
G36*
X54446000Y-68245000D02*
G01*
X53966000Y-68245000D01*
X54206000Y-67915000D01*
X54446000Y-68245000D01*
G37*
%TO.C,R13*%
X56912742Y-45197500D02*
X57387258Y-45197500D01*
X56912742Y-46242500D02*
X57387258Y-46242500D01*
%TO.C,R15*%
X58182742Y-93965500D02*
X58657258Y-93965500D01*
X58182742Y-95010500D02*
X58657258Y-95010500D01*
%TO.C,D1*%
X57059000Y-31547000D02*
X57059000Y-33017000D01*
X57059000Y-33017000D02*
X59344000Y-33017000D01*
X59344000Y-31547000D02*
X57059000Y-31547000D01*
%TO.C,U3*%
X52894000Y-29202000D02*
X50944000Y-29202000D01*
X52894000Y-29202000D02*
X54844000Y-29202000D01*
X52894000Y-34322000D02*
X50944000Y-34322000D01*
X52894000Y-34322000D02*
X54844000Y-34322000D01*
X50194000Y-29297000D02*
X49954000Y-28967000D01*
X50434000Y-28967000D01*
X50194000Y-29297000D01*
G36*
X50194000Y-29297000D02*
G01*
X49954000Y-28967000D01*
X50434000Y-28967000D01*
X50194000Y-29297000D01*
G37*
%TO.C,C6*%
X58664580Y-33526000D02*
X58383420Y-33526000D01*
X58664580Y-34546000D02*
X58383420Y-34546000D01*
%TO.C,Q1*%
X49552000Y-37029500D02*
X49552000Y-36379500D01*
X49552000Y-37029500D02*
X49552000Y-37679500D01*
X52672000Y-37029500D02*
X52672000Y-36379500D01*
X52672000Y-37029500D02*
X52672000Y-37679500D01*
X52952000Y-36107000D02*
X52622000Y-35867000D01*
X52952000Y-35627000D01*
X52952000Y-36107000D01*
G36*
X52952000Y-36107000D02*
G01*
X52622000Y-35867000D01*
X52952000Y-35627000D01*
X52952000Y-36107000D01*
G37*
%TO.C,C3*%
X47227420Y-32280000D02*
X47508580Y-32280000D01*
X47227420Y-33300000D02*
X47508580Y-33300000D01*
%TD*%
%LPC*%
%TO.C,D6*%
D14*
X54003929Y-90932000D02*
G75*
G02*
X51704929Y-90932000I-1149500J0D01*
G01*
X51704929Y-90932000D02*
G75*
G02*
X54003929Y-90932000I1149500J0D01*
G01*
%TO.C,D5*%
X53981500Y-53594000D02*
G75*
G02*
X51682500Y-53594000I-1149500J0D01*
G01*
X51682500Y-53594000D02*
G75*
G02*
X53981500Y-53594000I1149500J0D01*
G01*
%TD*%
D15*
%TO.C,D6*%
X53616429Y-97282000D03*
X52092429Y-84582000D03*
%TD*%
D16*
%TO.C,D5*%
X52070000Y-47244000D03*
X53594000Y-59944000D03*
%TD*%
D17*
%TO.C,FID3*%
X44704000Y-84836000D03*
%TD*%
%TO.C,FID2*%
X59944000Y-84836000D03*
%TD*%
D18*
%TO.C,U1*%
X50511000Y-101219000D03*
X50511000Y-102489000D03*
X50511000Y-103759000D03*
X50511000Y-105029000D03*
X55661000Y-105029000D03*
X55661000Y-103759000D03*
X55661000Y-102489000D03*
X55661000Y-101219000D03*
%TD*%
D19*
%TO.C,R6*%
X56548000Y-67310000D03*
X58198000Y-67310000D03*
%TD*%
D20*
%TO.C,C2*%
X51334000Y-63246000D03*
X49784000Y-63246000D03*
%TD*%
D21*
%TO.C,TP7*%
X48514000Y-113792000D03*
%TD*%
%TO.C,TP2*%
X44607137Y-100584000D03*
%TD*%
%TO.C,TP8*%
X54864000Y-69342000D03*
%TD*%
D22*
%TO.C,J1*%
X53378800Y-26040000D03*
D23*
X51358800Y-26040000D03*
D24*
X50128800Y-26040000D03*
D22*
X52378800Y-26040000D03*
D23*
X54398800Y-26040000D03*
D24*
X55628800Y-26040000D03*
D25*
X57198800Y-25860000D03*
X57198800Y-22060000D03*
X48558800Y-25860000D03*
X48558800Y-22060000D03*
%TD*%
D21*
%TO.C,TP6*%
X59436000Y-23622000D03*
%TD*%
D26*
%TO.C,U6*%
X57611000Y-76708000D03*
X57611000Y-75758000D03*
X57611000Y-74808000D03*
X54911000Y-74808000D03*
X54911000Y-75758000D03*
X54911000Y-76708000D03*
%TD*%
D20*
%TO.C,C4*%
X49556000Y-67564000D03*
X48006000Y-67564000D03*
%TD*%
D26*
%TO.C,U5*%
X52277000Y-76708000D03*
X52277000Y-75758000D03*
X52277000Y-74808000D03*
X49577000Y-74808000D03*
X49577000Y-75758000D03*
X49577000Y-76708000D03*
%TD*%
D19*
%TO.C,R9*%
X51258000Y-69342000D03*
X52908000Y-69342000D03*
%TD*%
D27*
%TO.C,C5*%
X53086000Y-63246000D03*
X54636000Y-63246000D03*
%TD*%
D21*
%TO.C,TP11*%
X59944000Y-92456000D03*
%TD*%
D19*
%TO.C,R4*%
X46543000Y-34568000D03*
X48193000Y-34568000D03*
%TD*%
D21*
%TO.C,TP4*%
X43083137Y-102616000D03*
%TD*%
%TO.C,TP1*%
X44607137Y-108712000D03*
%TD*%
D28*
%TO.C,C1*%
X58013600Y-102883000D03*
X58013600Y-101333000D03*
%TD*%
D26*
%TO.C,U4*%
X58246000Y-43876000D03*
X58246000Y-42926000D03*
X58246000Y-41976000D03*
X55546000Y-41976000D03*
X55546000Y-42926000D03*
X55546000Y-43876000D03*
%TD*%
D21*
%TO.C,TP5*%
X44607137Y-104648000D03*
%TD*%
D29*
%TO.C,R2*%
X46291000Y-24892000D03*
X44641000Y-24892000D03*
%TD*%
%TO.C,R1*%
X46291000Y-23114000D03*
X44641000Y-23114000D03*
%TD*%
D30*
%TO.C,R16*%
X61214000Y-96648500D03*
X61214000Y-98298500D03*
%TD*%
D31*
%TO.C,SW1*%
X50546000Y-113792000D03*
X54991000Y-113792000D03*
%TD*%
D32*
%TO.C,D2*%
X57756500Y-30484000D03*
X59331500Y-30484000D03*
%TD*%
D29*
%TO.C,R10*%
X48193000Y-29996000D03*
X46543000Y-29996000D03*
%TD*%
D19*
%TO.C,R7*%
X57699000Y-28726000D03*
X59349000Y-28726000D03*
%TD*%
D33*
%TO.C,R12*%
X60452000Y-43751000D03*
X60452000Y-42101000D03*
%TD*%
D34*
%TO.C,Q2*%
X55872000Y-36092000D03*
X53972000Y-36092000D03*
X54922000Y-37967000D03*
%TD*%
D35*
%TO.C,U7*%
X56562000Y-96332000D03*
X56562000Y-97282000D03*
X56562000Y-98232000D03*
X59262000Y-98232000D03*
X59262000Y-97282000D03*
X59262000Y-96332000D03*
%TD*%
D30*
%TO.C,R14*%
X47371000Y-72581000D03*
X47371000Y-74231000D03*
%TD*%
%TO.C,R3*%
X59994800Y-101283000D03*
X59994800Y-102933000D03*
%TD*%
%TO.C,R18*%
X61976000Y-101283000D03*
X61976000Y-102933000D03*
%TD*%
D36*
%TO.C,D3*%
X60465000Y-58839500D03*
X60465000Y-60414500D03*
%TD*%
D21*
%TO.C,TP9*%
X43083137Y-106680000D03*
%TD*%
%TO.C,TP3*%
X43083137Y-98552000D03*
%TD*%
D29*
%TO.C,R5*%
X48193000Y-36346000D03*
X46543000Y-36346000D03*
%TD*%
D37*
%TO.C,L1*%
X57518600Y-65405000D03*
X57518600Y-63093600D03*
%TD*%
D33*
%TO.C,R11*%
X60465000Y-63817000D03*
X60465000Y-62167000D03*
%TD*%
D17*
%TO.C,FID1*%
X44450000Y-41148000D03*
%TD*%
D29*
%TO.C,R19*%
X59349000Y-35759500D03*
X57699000Y-35759500D03*
%TD*%
D28*
%TO.C,C7*%
X47371000Y-77308000D03*
X47371000Y-75758000D03*
%TD*%
D19*
%TO.C,R8*%
X47956000Y-69342000D03*
X49606000Y-69342000D03*
%TD*%
D29*
%TO.C,R17*%
X57611000Y-72964000D03*
X55961000Y-72964000D03*
%TD*%
D21*
%TO.C,TP10*%
X60706000Y-48768000D03*
%TD*%
D26*
%TO.C,U2*%
X54356000Y-67305000D03*
X54356000Y-66355000D03*
X54356000Y-65405000D03*
X51656000Y-65405000D03*
X51656000Y-67305000D03*
%TD*%
D19*
%TO.C,R13*%
X56325000Y-45720000D03*
X57975000Y-45720000D03*
%TD*%
%TO.C,R15*%
X57595000Y-94488000D03*
X59245000Y-94488000D03*
%TD*%
D32*
%TO.C,D1*%
X57756500Y-32282000D03*
X59331500Y-32282000D03*
%TD*%
D38*
%TO.C,U3*%
X50419000Y-29857000D03*
X50419000Y-31127000D03*
X50419000Y-32397000D03*
X50419000Y-33667000D03*
X55369000Y-33667000D03*
X55369000Y-32397000D03*
X55369000Y-31127000D03*
X55369000Y-29857000D03*
D39*
X52894000Y-31762000D03*
%TD*%
D20*
%TO.C,C6*%
X59299000Y-34036000D03*
X57749000Y-34036000D03*
%TD*%
D34*
%TO.C,Q1*%
X52062000Y-36092000D03*
X50162000Y-36092000D03*
X51112000Y-37967000D03*
%TD*%
D27*
%TO.C,C3*%
X46593000Y-32790000D03*
X48143000Y-32790000D03*
%TD*%
%LPD*%
M02*
