%TF.GenerationSoftware,KiCad,Pcbnew,9.0.3*%
%TF.CreationDate,2025-10-02T21:49:33-04:00*%
%TF.ProjectId,Photon,50686f74-6f6e-42e6-9b69-6361645f7063,1.3*%
%TF.SameCoordinates,Original*%
%TF.FileFunction,Drillmap*%
%TF.FilePolarity,Positive*%
%FSLAX45Y45*%
G04 Gerber Fmt 4.5, Leading zero omitted, Abs format (unit mm)*
G04 Created by KiCad (PCBNEW 9.0.3) date 2025-10-02 21:49:33*
%MOMM*%
%LPD*%
G01*
G04 APERTURE LIST*
%ADD10C,0.200000*%
%ADD11C,0.250000*%
%ADD12C,0.100000*%
G04 APERTURE END LIST*
D10*
X4191000Y-11277600D02*
X4177926Y-2311400D01*
X4562314Y-9525000D02*
G75*
G02*
X4359114Y-9525000I-101600J0D01*
G01*
X4359114Y-9525000D02*
G75*
G02*
X4562314Y-9525000I101600J0D01*
G01*
X6109074Y-2006600D02*
G75*
G02*
X6413870Y-2311400I-4J-304800D01*
G01*
X6413870Y-2311400D02*
X6400800Y-11277600D01*
X6096000Y-11582400D02*
X4495800Y-11582400D01*
X4562314Y-11201400D02*
G75*
G02*
X4359114Y-11201400I-101600J0D01*
G01*
X4359114Y-11201400D02*
G75*
G02*
X4562314Y-11201400I101600J0D01*
G01*
X4177926Y-2311400D02*
G75*
G02*
X4482726Y-2006596I304804J0D01*
G01*
X6400800Y-11277600D02*
G75*
G02*
X6096000Y-11582400I-304800J0D01*
G01*
X4482726Y-2006600D02*
X6109074Y-2006600D01*
X4495800Y-11582400D02*
G75*
G02*
X4191000Y-11277600I0J304800D01*
G01*
D11*
X6198150Y-10744200D02*
G75*
G02*
X5993849Y-10744200I-102151J0D01*
G01*
X5993849Y-10744200D02*
G75*
G02*
X6198150Y-10744200I102151J0D01*
G01*
D10*
D12*
X4353800Y-2296400D02*
X4383800Y-2326400D01*
X4383800Y-2296400D02*
X4353800Y-2326400D01*
X4353800Y-2474200D02*
X4383800Y-2504200D01*
X4383800Y-2474200D02*
X4353800Y-2504200D01*
X4521914Y-10780000D02*
X4551914Y-10810000D01*
X4551914Y-10780000D02*
X4521914Y-10810000D01*
X4557000Y-3541000D02*
X4587000Y-3571000D01*
X4587000Y-3541000D02*
X4557000Y-3571000D01*
X4569700Y-3198100D02*
X4599700Y-3228100D01*
X4599700Y-3198100D02*
X4569700Y-3228100D01*
X4709400Y-9916400D02*
X4739400Y-9946400D01*
X4739400Y-9916400D02*
X4709400Y-9946400D01*
X4765800Y-10342600D02*
X4795800Y-10372600D01*
X4795800Y-10342600D02*
X4765800Y-10372600D01*
X4785600Y-3109200D02*
X4815600Y-3139200D01*
X4815600Y-3109200D02*
X4785600Y-3139200D01*
X4828621Y-3922000D02*
X4858621Y-3952000D01*
X4858621Y-3922000D02*
X4828621Y-3952000D01*
X4839338Y-6214738D02*
X4869338Y-6244738D01*
X4869338Y-6214738D02*
X4839338Y-6244738D01*
X4861800Y-9927600D02*
X4891800Y-9957600D01*
X4891800Y-9927600D02*
X4861800Y-9957600D01*
X4877504Y-10201828D02*
X4907504Y-10231828D01*
X4907504Y-10201828D02*
X4877504Y-10231828D01*
X4912600Y-10526000D02*
X4942600Y-10556000D01*
X4942600Y-10526000D02*
X4912600Y-10556000D01*
X4997880Y-2474200D02*
X5027880Y-2504200D01*
X5027880Y-2474200D02*
X4997880Y-2504200D01*
X5037700Y-6413100D02*
X5067700Y-6443100D01*
X5067700Y-6413100D02*
X5037700Y-6443100D01*
X5090400Y-3642600D02*
X5120400Y-3672600D01*
X5120400Y-3642600D02*
X5090400Y-3672600D01*
X5090400Y-3922000D02*
X5120400Y-3952000D01*
X5120400Y-3922000D02*
X5090400Y-3952000D01*
X5186590Y-10367010D02*
X5216590Y-10397010D01*
X5216590Y-10367010D02*
X5186590Y-10397010D01*
X5268200Y-6614400D02*
X5298200Y-6644400D01*
X5298200Y-6614400D02*
X5268200Y-6644400D01*
X5268200Y-11110200D02*
X5298200Y-11140200D01*
X5298200Y-11110200D02*
X5268200Y-11140200D01*
X5268790Y-10449210D02*
X5298790Y-10479210D01*
X5298790Y-10449210D02*
X5268790Y-10479210D01*
X5345524Y-10232000D02*
X5375524Y-10262000D01*
X5375524Y-10232000D02*
X5345524Y-10262000D01*
X5420600Y-4182600D02*
X5450600Y-4212600D01*
X5450600Y-4182600D02*
X5420600Y-4212600D01*
X5420600Y-10102000D02*
X5450600Y-10132000D01*
X5450600Y-10102000D02*
X5420600Y-10132000D01*
X5477200Y-3490200D02*
X5507200Y-3520200D01*
X5507200Y-3490200D02*
X5477200Y-3520200D01*
X5547880Y-2474200D02*
X5577880Y-2504200D01*
X5577880Y-2474200D02*
X5547880Y-2504200D01*
X5674600Y-3668000D02*
X5704600Y-3698000D01*
X5704600Y-3668000D02*
X5674600Y-3698000D01*
X5700000Y-11364200D02*
X5730000Y-11394200D01*
X5730000Y-11364200D02*
X5700000Y-11394200D01*
X5750800Y-7173200D02*
X5780800Y-7203200D01*
X5780800Y-7173200D02*
X5750800Y-7203200D01*
X5767476Y-7850276D02*
X5797476Y-7880276D01*
X5797476Y-7850276D02*
X5767476Y-7880276D01*
X5877800Y-4557000D02*
X5907800Y-4587000D01*
X5907800Y-4557000D02*
X5877800Y-4587000D01*
X5877800Y-10272000D02*
X5907800Y-10302000D01*
X5907800Y-10272000D02*
X5877800Y-10302000D01*
X5882500Y-7465800D02*
X5912500Y-7495800D01*
X5912500Y-7465800D02*
X5882500Y-7495800D01*
X5898293Y-6609493D02*
X5928293Y-6639493D01*
X5928293Y-6609493D02*
X5898293Y-6639493D01*
X5908969Y-7991769D02*
X5938969Y-8021769D01*
X5938969Y-7991769D02*
X5908969Y-8021769D01*
X5911200Y-9916400D02*
X5941200Y-9946400D01*
X5941200Y-9916400D02*
X5911200Y-9946400D01*
X5992100Y-3325100D02*
X6022100Y-3355100D01*
X6022100Y-3325100D02*
X5992100Y-3355100D01*
X5992100Y-6449300D02*
X6022100Y-6479300D01*
X6022100Y-6449300D02*
X5992100Y-6479300D01*
X6004800Y-9433800D02*
X6034800Y-9463800D01*
X6034800Y-9433800D02*
X6004800Y-9463800D01*
X6026400Y-6741400D02*
X6056400Y-6771400D01*
X6056400Y-6741400D02*
X6026400Y-6771400D01*
X6030200Y-4099800D02*
X6060200Y-4129800D01*
X6060200Y-4099800D02*
X6030200Y-4129800D01*
X6030200Y-5776200D02*
X6060200Y-5806200D01*
X6060200Y-5776200D02*
X6030200Y-5806200D01*
X6157200Y-6614400D02*
X6187200Y-6644400D01*
X6187200Y-6614400D02*
X6157200Y-6644400D01*
X4880880Y-2206000D02*
G75*
G02*
X4830880Y-2206000I-25000J0D01*
G01*
X4830880Y-2206000D02*
G75*
G02*
X4880880Y-2206000I25000J0D01*
G01*
X4880880Y-2241000D02*
X4880880Y-2171000D01*
X4830880Y-2171000D02*
G75*
G02*
X4880880Y-2171000I25000J0D01*
G01*
X4830880Y-2171000D02*
X4830880Y-2241000D01*
X4830880Y-2241000D02*
G75*
G03*
X4880880Y-2241000I25000J0D01*
G01*
X4880880Y-2586000D02*
G75*
G02*
X4830880Y-2586000I-25000J0D01*
G01*
X4830880Y-2586000D02*
G75*
G02*
X4880880Y-2586000I25000J0D01*
G01*
X4880880Y-2621000D02*
X4880880Y-2551000D01*
X4830880Y-2551000D02*
G75*
G02*
X4880880Y-2551000I25000J0D01*
G01*
X4830880Y-2551000D02*
X4830880Y-2621000D01*
X4830880Y-2621000D02*
G75*
G03*
X4880880Y-2621000I25000J0D01*
G01*
X5744880Y-2206000D02*
G75*
G02*
X5694880Y-2206000I-25000J0D01*
G01*
X5694880Y-2206000D02*
G75*
G02*
X5744880Y-2206000I25000J0D01*
G01*
X5744880Y-2241000D02*
X5744880Y-2171000D01*
X5694880Y-2171000D02*
G75*
G02*
X5744880Y-2171000I25000J0D01*
G01*
X5694880Y-2171000D02*
X5694880Y-2241000D01*
X5694880Y-2241000D02*
G75*
G03*
X5744880Y-2241000I25000J0D01*
G01*
X5744880Y-2586000D02*
G75*
G02*
X5694880Y-2586000I-25000J0D01*
G01*
X5694880Y-2586000D02*
G75*
G02*
X5744880Y-2586000I25000J0D01*
G01*
X5744880Y-2621000D02*
X5744880Y-2551000D01*
X5694880Y-2551000D02*
G75*
G02*
X5744880Y-2551000I25000J0D01*
G01*
X5694880Y-2551000D02*
X5694880Y-2621000D01*
X5694880Y-2621000D02*
G75*
G03*
X5744880Y-2621000I25000J0D01*
G01*
D10*
X4428703Y-11903884D02*
X4428703Y-11703884D01*
X4428703Y-11703884D02*
X4476322Y-11703884D01*
X4476322Y-11703884D02*
X4504893Y-11713408D01*
X4504893Y-11713408D02*
X4523941Y-11732455D01*
X4523941Y-11732455D02*
X4533465Y-11751503D01*
X4533465Y-11751503D02*
X4542989Y-11789598D01*
X4542989Y-11789598D02*
X4542989Y-11818169D01*
X4542989Y-11818169D02*
X4533465Y-11856265D01*
X4533465Y-11856265D02*
X4523941Y-11875312D01*
X4523941Y-11875312D02*
X4504893Y-11894360D01*
X4504893Y-11894360D02*
X4476322Y-11903884D01*
X4476322Y-11903884D02*
X4428703Y-11903884D01*
X4628703Y-11903884D02*
X4628703Y-11770550D01*
X4628703Y-11808646D02*
X4638227Y-11789598D01*
X4638227Y-11789598D02*
X4647751Y-11780074D01*
X4647751Y-11780074D02*
X4666798Y-11770550D01*
X4666798Y-11770550D02*
X4685846Y-11770550D01*
X4752512Y-11903884D02*
X4752512Y-11770550D01*
X4752512Y-11703884D02*
X4742989Y-11713408D01*
X4742989Y-11713408D02*
X4752512Y-11722931D01*
X4752512Y-11722931D02*
X4762036Y-11713408D01*
X4762036Y-11713408D02*
X4752512Y-11703884D01*
X4752512Y-11703884D02*
X4752512Y-11722931D01*
X4876322Y-11903884D02*
X4857274Y-11894360D01*
X4857274Y-11894360D02*
X4847751Y-11875312D01*
X4847751Y-11875312D02*
X4847751Y-11703884D01*
X4981084Y-11903884D02*
X4962036Y-11894360D01*
X4962036Y-11894360D02*
X4952512Y-11875312D01*
X4952512Y-11875312D02*
X4952512Y-11703884D01*
X5209655Y-11903884D02*
X5209655Y-11703884D01*
X5209655Y-11703884D02*
X5276322Y-11846741D01*
X5276322Y-11846741D02*
X5342989Y-11703884D01*
X5342989Y-11703884D02*
X5342989Y-11903884D01*
X5523941Y-11903884D02*
X5523941Y-11799122D01*
X5523941Y-11799122D02*
X5514417Y-11780074D01*
X5514417Y-11780074D02*
X5495370Y-11770550D01*
X5495370Y-11770550D02*
X5457274Y-11770550D01*
X5457274Y-11770550D02*
X5438227Y-11780074D01*
X5523941Y-11894360D02*
X5504893Y-11903884D01*
X5504893Y-11903884D02*
X5457274Y-11903884D01*
X5457274Y-11903884D02*
X5438227Y-11894360D01*
X5438227Y-11894360D02*
X5428703Y-11875312D01*
X5428703Y-11875312D02*
X5428703Y-11856265D01*
X5428703Y-11856265D02*
X5438227Y-11837217D01*
X5438227Y-11837217D02*
X5457274Y-11827693D01*
X5457274Y-11827693D02*
X5504893Y-11827693D01*
X5504893Y-11827693D02*
X5523941Y-11818169D01*
X5619179Y-11770550D02*
X5619179Y-11970550D01*
X5619179Y-11780074D02*
X5638227Y-11770550D01*
X5638227Y-11770550D02*
X5676322Y-11770550D01*
X5676322Y-11770550D02*
X5695370Y-11780074D01*
X5695370Y-11780074D02*
X5704893Y-11789598D01*
X5704893Y-11789598D02*
X5714417Y-11808646D01*
X5714417Y-11808646D02*
X5714417Y-11865788D01*
X5714417Y-11865788D02*
X5704893Y-11884836D01*
X5704893Y-11884836D02*
X5695370Y-11894360D01*
X5695370Y-11894360D02*
X5676322Y-11903884D01*
X5676322Y-11903884D02*
X5638227Y-11903884D01*
X5638227Y-11903884D02*
X5619179Y-11894360D01*
X5800131Y-11884836D02*
X5809655Y-11894360D01*
X5809655Y-11894360D02*
X5800131Y-11903884D01*
X5800131Y-11903884D02*
X5790608Y-11894360D01*
X5790608Y-11894360D02*
X5800131Y-11884836D01*
X5800131Y-11884836D02*
X5800131Y-11903884D01*
X5800131Y-11780074D02*
X5809655Y-11789598D01*
X5809655Y-11789598D02*
X5800131Y-11799122D01*
X5800131Y-11799122D02*
X5790608Y-11789598D01*
X5790608Y-11789598D02*
X5800131Y-11780074D01*
X5800131Y-11780074D02*
X5800131Y-11799122D01*
D12*
X4137926Y-12217400D02*
X4167926Y-12247400D01*
X4167926Y-12217400D02*
X4137926Y-12247400D01*
D10*
X4466798Y-12123884D02*
X4485846Y-12123884D01*
X4485846Y-12123884D02*
X4504893Y-12133408D01*
X4504893Y-12133408D02*
X4514417Y-12142931D01*
X4514417Y-12142931D02*
X4523941Y-12161979D01*
X4523941Y-12161979D02*
X4533465Y-12200074D01*
X4533465Y-12200074D02*
X4533465Y-12247693D01*
X4533465Y-12247693D02*
X4523941Y-12285788D01*
X4523941Y-12285788D02*
X4514417Y-12304836D01*
X4514417Y-12304836D02*
X4504893Y-12314360D01*
X4504893Y-12314360D02*
X4485846Y-12323884D01*
X4485846Y-12323884D02*
X4466798Y-12323884D01*
X4466798Y-12323884D02*
X4447751Y-12314360D01*
X4447751Y-12314360D02*
X4438227Y-12304836D01*
X4438227Y-12304836D02*
X4428703Y-12285788D01*
X4428703Y-12285788D02*
X4419179Y-12247693D01*
X4419179Y-12247693D02*
X4419179Y-12200074D01*
X4419179Y-12200074D02*
X4428703Y-12161979D01*
X4428703Y-12161979D02*
X4438227Y-12142931D01*
X4438227Y-12142931D02*
X4447751Y-12133408D01*
X4447751Y-12133408D02*
X4466798Y-12123884D01*
X4619179Y-12304836D02*
X4628703Y-12314360D01*
X4628703Y-12314360D02*
X4619179Y-12323884D01*
X4619179Y-12323884D02*
X4609655Y-12314360D01*
X4609655Y-12314360D02*
X4619179Y-12304836D01*
X4619179Y-12304836D02*
X4619179Y-12323884D01*
X4695370Y-12123884D02*
X4819179Y-12123884D01*
X4819179Y-12123884D02*
X4752512Y-12200074D01*
X4752512Y-12200074D02*
X4781084Y-12200074D01*
X4781084Y-12200074D02*
X4800132Y-12209598D01*
X4800132Y-12209598D02*
X4809655Y-12219122D01*
X4809655Y-12219122D02*
X4819179Y-12238169D01*
X4819179Y-12238169D02*
X4819179Y-12285788D01*
X4819179Y-12285788D02*
X4809655Y-12304836D01*
X4809655Y-12304836D02*
X4800132Y-12314360D01*
X4800132Y-12314360D02*
X4781084Y-12323884D01*
X4781084Y-12323884D02*
X4723941Y-12323884D01*
X4723941Y-12323884D02*
X4704893Y-12314360D01*
X4704893Y-12314360D02*
X4695370Y-12304836D01*
X4942989Y-12123884D02*
X4962036Y-12123884D01*
X4962036Y-12123884D02*
X4981084Y-12133408D01*
X4981084Y-12133408D02*
X4990608Y-12142931D01*
X4990608Y-12142931D02*
X5000132Y-12161979D01*
X5000132Y-12161979D02*
X5009655Y-12200074D01*
X5009655Y-12200074D02*
X5009655Y-12247693D01*
X5009655Y-12247693D02*
X5000132Y-12285788D01*
X5000132Y-12285788D02*
X4990608Y-12304836D01*
X4990608Y-12304836D02*
X4981084Y-12314360D01*
X4981084Y-12314360D02*
X4962036Y-12323884D01*
X4962036Y-12323884D02*
X4942989Y-12323884D01*
X4942989Y-12323884D02*
X4923941Y-12314360D01*
X4923941Y-12314360D02*
X4914417Y-12304836D01*
X4914417Y-12304836D02*
X4904893Y-12285788D01*
X4904893Y-12285788D02*
X4895370Y-12247693D01*
X4895370Y-12247693D02*
X4895370Y-12200074D01*
X4895370Y-12200074D02*
X4904893Y-12161979D01*
X4904893Y-12161979D02*
X4914417Y-12142931D01*
X4914417Y-12142931D02*
X4923941Y-12133408D01*
X4923941Y-12133408D02*
X4942989Y-12123884D01*
X5133465Y-12123884D02*
X5152513Y-12123884D01*
X5152513Y-12123884D02*
X5171560Y-12133408D01*
X5171560Y-12133408D02*
X5181084Y-12142931D01*
X5181084Y-12142931D02*
X5190608Y-12161979D01*
X5190608Y-12161979D02*
X5200132Y-12200074D01*
X5200132Y-12200074D02*
X5200132Y-12247693D01*
X5200132Y-12247693D02*
X5190608Y-12285788D01*
X5190608Y-12285788D02*
X5181084Y-12304836D01*
X5181084Y-12304836D02*
X5171560Y-12314360D01*
X5171560Y-12314360D02*
X5152513Y-12323884D01*
X5152513Y-12323884D02*
X5133465Y-12323884D01*
X5133465Y-12323884D02*
X5114417Y-12314360D01*
X5114417Y-12314360D02*
X5104893Y-12304836D01*
X5104893Y-12304836D02*
X5095370Y-12285788D01*
X5095370Y-12285788D02*
X5085846Y-12247693D01*
X5085846Y-12247693D02*
X5085846Y-12200074D01*
X5085846Y-12200074D02*
X5095370Y-12161979D01*
X5095370Y-12161979D02*
X5104893Y-12142931D01*
X5104893Y-12142931D02*
X5114417Y-12133408D01*
X5114417Y-12133408D02*
X5133465Y-12123884D01*
X5285846Y-12323884D02*
X5285846Y-12190550D01*
X5285846Y-12209598D02*
X5295370Y-12200074D01*
X5295370Y-12200074D02*
X5314417Y-12190550D01*
X5314417Y-12190550D02*
X5342989Y-12190550D01*
X5342989Y-12190550D02*
X5362036Y-12200074D01*
X5362036Y-12200074D02*
X5371560Y-12219122D01*
X5371560Y-12219122D02*
X5371560Y-12323884D01*
X5371560Y-12219122D02*
X5381084Y-12200074D01*
X5381084Y-12200074D02*
X5400132Y-12190550D01*
X5400132Y-12190550D02*
X5428703Y-12190550D01*
X5428703Y-12190550D02*
X5447751Y-12200074D01*
X5447751Y-12200074D02*
X5457274Y-12219122D01*
X5457274Y-12219122D02*
X5457274Y-12323884D01*
X5552513Y-12323884D02*
X5552513Y-12190550D01*
X5552513Y-12209598D02*
X5562036Y-12200074D01*
X5562036Y-12200074D02*
X5581084Y-12190550D01*
X5581084Y-12190550D02*
X5609655Y-12190550D01*
X5609655Y-12190550D02*
X5628703Y-12200074D01*
X5628703Y-12200074D02*
X5638227Y-12219122D01*
X5638227Y-12219122D02*
X5638227Y-12323884D01*
X5638227Y-12219122D02*
X5647751Y-12200074D01*
X5647751Y-12200074D02*
X5666798Y-12190550D01*
X5666798Y-12190550D02*
X5695370Y-12190550D01*
X5695370Y-12190550D02*
X5714417Y-12200074D01*
X5714417Y-12200074D02*
X5723941Y-12219122D01*
X5723941Y-12219122D02*
X5723941Y-12323884D01*
X6114417Y-12114360D02*
X5942989Y-12371503D01*
X6371560Y-12123884D02*
X6390608Y-12123884D01*
X6390608Y-12123884D02*
X6409655Y-12133408D01*
X6409655Y-12133408D02*
X6419179Y-12142931D01*
X6419179Y-12142931D02*
X6428703Y-12161979D01*
X6428703Y-12161979D02*
X6438227Y-12200074D01*
X6438227Y-12200074D02*
X6438227Y-12247693D01*
X6438227Y-12247693D02*
X6428703Y-12285788D01*
X6428703Y-12285788D02*
X6419179Y-12304836D01*
X6419179Y-12304836D02*
X6409655Y-12314360D01*
X6409655Y-12314360D02*
X6390608Y-12323884D01*
X6390608Y-12323884D02*
X6371560Y-12323884D01*
X6371560Y-12323884D02*
X6352513Y-12314360D01*
X6352513Y-12314360D02*
X6342989Y-12304836D01*
X6342989Y-12304836D02*
X6333465Y-12285788D01*
X6333465Y-12285788D02*
X6323941Y-12247693D01*
X6323941Y-12247693D02*
X6323941Y-12200074D01*
X6323941Y-12200074D02*
X6333465Y-12161979D01*
X6333465Y-12161979D02*
X6342989Y-12142931D01*
X6342989Y-12142931D02*
X6352513Y-12133408D01*
X6352513Y-12133408D02*
X6371560Y-12123884D01*
X6523941Y-12304836D02*
X6533465Y-12314360D01*
X6533465Y-12314360D02*
X6523941Y-12323884D01*
X6523941Y-12323884D02*
X6514417Y-12314360D01*
X6514417Y-12314360D02*
X6523941Y-12304836D01*
X6523941Y-12304836D02*
X6523941Y-12323884D01*
X6657274Y-12123884D02*
X6676322Y-12123884D01*
X6676322Y-12123884D02*
X6695370Y-12133408D01*
X6695370Y-12133408D02*
X6704894Y-12142931D01*
X6704894Y-12142931D02*
X6714417Y-12161979D01*
X6714417Y-12161979D02*
X6723941Y-12200074D01*
X6723941Y-12200074D02*
X6723941Y-12247693D01*
X6723941Y-12247693D02*
X6714417Y-12285788D01*
X6714417Y-12285788D02*
X6704894Y-12304836D01*
X6704894Y-12304836D02*
X6695370Y-12314360D01*
X6695370Y-12314360D02*
X6676322Y-12323884D01*
X6676322Y-12323884D02*
X6657274Y-12323884D01*
X6657274Y-12323884D02*
X6638227Y-12314360D01*
X6638227Y-12314360D02*
X6628703Y-12304836D01*
X6628703Y-12304836D02*
X6619179Y-12285788D01*
X6619179Y-12285788D02*
X6609655Y-12247693D01*
X6609655Y-12247693D02*
X6609655Y-12200074D01*
X6609655Y-12200074D02*
X6619179Y-12161979D01*
X6619179Y-12161979D02*
X6628703Y-12142931D01*
X6628703Y-12142931D02*
X6638227Y-12133408D01*
X6638227Y-12133408D02*
X6657274Y-12123884D01*
X6914417Y-12323884D02*
X6800132Y-12323884D01*
X6857274Y-12323884D02*
X6857274Y-12123884D01*
X6857274Y-12123884D02*
X6838227Y-12152455D01*
X6838227Y-12152455D02*
X6819179Y-12171503D01*
X6819179Y-12171503D02*
X6800132Y-12181027D01*
X7104894Y-12323884D02*
X6990608Y-12323884D01*
X7047751Y-12323884D02*
X7047751Y-12123884D01*
X7047751Y-12123884D02*
X7028703Y-12152455D01*
X7028703Y-12152455D02*
X7009655Y-12171503D01*
X7009655Y-12171503D02*
X6990608Y-12181027D01*
X7219179Y-12209598D02*
X7200132Y-12200074D01*
X7200132Y-12200074D02*
X7190608Y-12190550D01*
X7190608Y-12190550D02*
X7181084Y-12171503D01*
X7181084Y-12171503D02*
X7181084Y-12161979D01*
X7181084Y-12161979D02*
X7190608Y-12142931D01*
X7190608Y-12142931D02*
X7200132Y-12133408D01*
X7200132Y-12133408D02*
X7219179Y-12123884D01*
X7219179Y-12123884D02*
X7257275Y-12123884D01*
X7257275Y-12123884D02*
X7276322Y-12133408D01*
X7276322Y-12133408D02*
X7285846Y-12142931D01*
X7285846Y-12142931D02*
X7295370Y-12161979D01*
X7295370Y-12161979D02*
X7295370Y-12171503D01*
X7295370Y-12171503D02*
X7285846Y-12190550D01*
X7285846Y-12190550D02*
X7276322Y-12200074D01*
X7276322Y-12200074D02*
X7257275Y-12209598D01*
X7257275Y-12209598D02*
X7219179Y-12209598D01*
X7219179Y-12209598D02*
X7200132Y-12219122D01*
X7200132Y-12219122D02*
X7190608Y-12228646D01*
X7190608Y-12228646D02*
X7181084Y-12247693D01*
X7181084Y-12247693D02*
X7181084Y-12285788D01*
X7181084Y-12285788D02*
X7190608Y-12304836D01*
X7190608Y-12304836D02*
X7200132Y-12314360D01*
X7200132Y-12314360D02*
X7219179Y-12323884D01*
X7219179Y-12323884D02*
X7257275Y-12323884D01*
X7257275Y-12323884D02*
X7276322Y-12314360D01*
X7276322Y-12314360D02*
X7285846Y-12304836D01*
X7285846Y-12304836D02*
X7295370Y-12285788D01*
X7295370Y-12285788D02*
X7295370Y-12247693D01*
X7295370Y-12247693D02*
X7285846Y-12228646D01*
X7285846Y-12228646D02*
X7276322Y-12219122D01*
X7276322Y-12219122D02*
X7257275Y-12209598D01*
X7371560Y-12123884D02*
X7371560Y-12161979D01*
X7447751Y-12123884D02*
X7447751Y-12161979D01*
X7742989Y-12400074D02*
X7733465Y-12390550D01*
X7733465Y-12390550D02*
X7714417Y-12361979D01*
X7714417Y-12361979D02*
X7704894Y-12342931D01*
X7704894Y-12342931D02*
X7695370Y-12314360D01*
X7695370Y-12314360D02*
X7685846Y-12266741D01*
X7685846Y-12266741D02*
X7685846Y-12228646D01*
X7685846Y-12228646D02*
X7695370Y-12181027D01*
X7695370Y-12181027D02*
X7704894Y-12152455D01*
X7704894Y-12152455D02*
X7714417Y-12133408D01*
X7714417Y-12133408D02*
X7733465Y-12104836D01*
X7733465Y-12104836D02*
X7742989Y-12095312D01*
X7904894Y-12190550D02*
X7904894Y-12323884D01*
X7857275Y-12114360D02*
X7809656Y-12257217D01*
X7809656Y-12257217D02*
X7933465Y-12257217D01*
X7990608Y-12123884D02*
X8114417Y-12123884D01*
X8114417Y-12123884D02*
X8047751Y-12200074D01*
X8047751Y-12200074D02*
X8076322Y-12200074D01*
X8076322Y-12200074D02*
X8095370Y-12209598D01*
X8095370Y-12209598D02*
X8104894Y-12219122D01*
X8104894Y-12219122D02*
X8114417Y-12238169D01*
X8114417Y-12238169D02*
X8114417Y-12285788D01*
X8114417Y-12285788D02*
X8104894Y-12304836D01*
X8104894Y-12304836D02*
X8095370Y-12314360D01*
X8095370Y-12314360D02*
X8076322Y-12323884D01*
X8076322Y-12323884D02*
X8019179Y-12323884D01*
X8019179Y-12323884D02*
X8000132Y-12314360D01*
X8000132Y-12314360D02*
X7990608Y-12304836D01*
X8352513Y-12323884D02*
X8352513Y-12123884D01*
X8438227Y-12323884D02*
X8438227Y-12219122D01*
X8438227Y-12219122D02*
X8428703Y-12200074D01*
X8428703Y-12200074D02*
X8409656Y-12190550D01*
X8409656Y-12190550D02*
X8381084Y-12190550D01*
X8381084Y-12190550D02*
X8362037Y-12200074D01*
X8362037Y-12200074D02*
X8352513Y-12209598D01*
X8562037Y-12323884D02*
X8542989Y-12314360D01*
X8542989Y-12314360D02*
X8533465Y-12304836D01*
X8533465Y-12304836D02*
X8523941Y-12285788D01*
X8523941Y-12285788D02*
X8523941Y-12228646D01*
X8523941Y-12228646D02*
X8533465Y-12209598D01*
X8533465Y-12209598D02*
X8542989Y-12200074D01*
X8542989Y-12200074D02*
X8562037Y-12190550D01*
X8562037Y-12190550D02*
X8590608Y-12190550D01*
X8590608Y-12190550D02*
X8609656Y-12200074D01*
X8609656Y-12200074D02*
X8619180Y-12209598D01*
X8619180Y-12209598D02*
X8628703Y-12228646D01*
X8628703Y-12228646D02*
X8628703Y-12285788D01*
X8628703Y-12285788D02*
X8619180Y-12304836D01*
X8619180Y-12304836D02*
X8609656Y-12314360D01*
X8609656Y-12314360D02*
X8590608Y-12323884D01*
X8590608Y-12323884D02*
X8562037Y-12323884D01*
X8742989Y-12323884D02*
X8723941Y-12314360D01*
X8723941Y-12314360D02*
X8714418Y-12295312D01*
X8714418Y-12295312D02*
X8714418Y-12123884D01*
X8895370Y-12314360D02*
X8876322Y-12323884D01*
X8876322Y-12323884D02*
X8838227Y-12323884D01*
X8838227Y-12323884D02*
X8819180Y-12314360D01*
X8819180Y-12314360D02*
X8809656Y-12295312D01*
X8809656Y-12295312D02*
X8809656Y-12219122D01*
X8809656Y-12219122D02*
X8819180Y-12200074D01*
X8819180Y-12200074D02*
X8838227Y-12190550D01*
X8838227Y-12190550D02*
X8876322Y-12190550D01*
X8876322Y-12190550D02*
X8895370Y-12200074D01*
X8895370Y-12200074D02*
X8904894Y-12219122D01*
X8904894Y-12219122D02*
X8904894Y-12238169D01*
X8904894Y-12238169D02*
X8809656Y-12257217D01*
X8981084Y-12314360D02*
X9000132Y-12323884D01*
X9000132Y-12323884D02*
X9038227Y-12323884D01*
X9038227Y-12323884D02*
X9057275Y-12314360D01*
X9057275Y-12314360D02*
X9066799Y-12295312D01*
X9066799Y-12295312D02*
X9066799Y-12285788D01*
X9066799Y-12285788D02*
X9057275Y-12266741D01*
X9057275Y-12266741D02*
X9038227Y-12257217D01*
X9038227Y-12257217D02*
X9009656Y-12257217D01*
X9009656Y-12257217D02*
X8990608Y-12247693D01*
X8990608Y-12247693D02*
X8981084Y-12228646D01*
X8981084Y-12228646D02*
X8981084Y-12219122D01*
X8981084Y-12219122D02*
X8990608Y-12200074D01*
X8990608Y-12200074D02*
X9009656Y-12190550D01*
X9009656Y-12190550D02*
X9038227Y-12190550D01*
X9038227Y-12190550D02*
X9057275Y-12200074D01*
X9133465Y-12400074D02*
X9142989Y-12390550D01*
X9142989Y-12390550D02*
X9162037Y-12361979D01*
X9162037Y-12361979D02*
X9171561Y-12342931D01*
X9171561Y-12342931D02*
X9181084Y-12314360D01*
X9181084Y-12314360D02*
X9190608Y-12266741D01*
X9190608Y-12266741D02*
X9190608Y-12228646D01*
X9190608Y-12228646D02*
X9181084Y-12181027D01*
X9181084Y-12181027D02*
X9171561Y-12152455D01*
X9171561Y-12152455D02*
X9162037Y-12133408D01*
X9162037Y-12133408D02*
X9142989Y-12104836D01*
X9142989Y-12104836D02*
X9133465Y-12095312D01*
D12*
X4167926Y-12496400D02*
G75*
G02*
X4117926Y-12496400I-25000J0D01*
G01*
X4117926Y-12496400D02*
G75*
G02*
X4167926Y-12496400I25000J0D01*
G01*
D10*
X4466798Y-12387884D02*
X4485846Y-12387884D01*
X4485846Y-12387884D02*
X4504893Y-12397408D01*
X4504893Y-12397408D02*
X4514417Y-12406931D01*
X4514417Y-12406931D02*
X4523941Y-12425979D01*
X4523941Y-12425979D02*
X4533465Y-12464074D01*
X4533465Y-12464074D02*
X4533465Y-12511693D01*
X4533465Y-12511693D02*
X4523941Y-12549788D01*
X4523941Y-12549788D02*
X4514417Y-12568836D01*
X4514417Y-12568836D02*
X4504893Y-12578360D01*
X4504893Y-12578360D02*
X4485846Y-12587884D01*
X4485846Y-12587884D02*
X4466798Y-12587884D01*
X4466798Y-12587884D02*
X4447751Y-12578360D01*
X4447751Y-12578360D02*
X4438227Y-12568836D01*
X4438227Y-12568836D02*
X4428703Y-12549788D01*
X4428703Y-12549788D02*
X4419179Y-12511693D01*
X4419179Y-12511693D02*
X4419179Y-12464074D01*
X4419179Y-12464074D02*
X4428703Y-12425979D01*
X4428703Y-12425979D02*
X4438227Y-12406931D01*
X4438227Y-12406931D02*
X4447751Y-12397408D01*
X4447751Y-12397408D02*
X4466798Y-12387884D01*
X4619179Y-12568836D02*
X4628703Y-12578360D01*
X4628703Y-12578360D02*
X4619179Y-12587884D01*
X4619179Y-12587884D02*
X4609655Y-12578360D01*
X4609655Y-12578360D02*
X4619179Y-12568836D01*
X4619179Y-12568836D02*
X4619179Y-12587884D01*
X4809655Y-12387884D02*
X4714417Y-12387884D01*
X4714417Y-12387884D02*
X4704893Y-12483122D01*
X4704893Y-12483122D02*
X4714417Y-12473598D01*
X4714417Y-12473598D02*
X4733465Y-12464074D01*
X4733465Y-12464074D02*
X4781084Y-12464074D01*
X4781084Y-12464074D02*
X4800132Y-12473598D01*
X4800132Y-12473598D02*
X4809655Y-12483122D01*
X4809655Y-12483122D02*
X4819179Y-12502169D01*
X4819179Y-12502169D02*
X4819179Y-12549788D01*
X4819179Y-12549788D02*
X4809655Y-12568836D01*
X4809655Y-12568836D02*
X4800132Y-12578360D01*
X4800132Y-12578360D02*
X4781084Y-12587884D01*
X4781084Y-12587884D02*
X4733465Y-12587884D01*
X4733465Y-12587884D02*
X4714417Y-12578360D01*
X4714417Y-12578360D02*
X4704893Y-12568836D01*
X4942989Y-12387884D02*
X4962036Y-12387884D01*
X4962036Y-12387884D02*
X4981084Y-12397408D01*
X4981084Y-12397408D02*
X4990608Y-12406931D01*
X4990608Y-12406931D02*
X5000132Y-12425979D01*
X5000132Y-12425979D02*
X5009655Y-12464074D01*
X5009655Y-12464074D02*
X5009655Y-12511693D01*
X5009655Y-12511693D02*
X5000132Y-12549788D01*
X5000132Y-12549788D02*
X4990608Y-12568836D01*
X4990608Y-12568836D02*
X4981084Y-12578360D01*
X4981084Y-12578360D02*
X4962036Y-12587884D01*
X4962036Y-12587884D02*
X4942989Y-12587884D01*
X4942989Y-12587884D02*
X4923941Y-12578360D01*
X4923941Y-12578360D02*
X4914417Y-12568836D01*
X4914417Y-12568836D02*
X4904893Y-12549788D01*
X4904893Y-12549788D02*
X4895370Y-12511693D01*
X4895370Y-12511693D02*
X4895370Y-12464074D01*
X4895370Y-12464074D02*
X4904893Y-12425979D01*
X4904893Y-12425979D02*
X4914417Y-12406931D01*
X4914417Y-12406931D02*
X4923941Y-12397408D01*
X4923941Y-12397408D02*
X4942989Y-12387884D01*
X5133465Y-12387884D02*
X5152513Y-12387884D01*
X5152513Y-12387884D02*
X5171560Y-12397408D01*
X5171560Y-12397408D02*
X5181084Y-12406931D01*
X5181084Y-12406931D02*
X5190608Y-12425979D01*
X5190608Y-12425979D02*
X5200132Y-12464074D01*
X5200132Y-12464074D02*
X5200132Y-12511693D01*
X5200132Y-12511693D02*
X5190608Y-12549788D01*
X5190608Y-12549788D02*
X5181084Y-12568836D01*
X5181084Y-12568836D02*
X5171560Y-12578360D01*
X5171560Y-12578360D02*
X5152513Y-12587884D01*
X5152513Y-12587884D02*
X5133465Y-12587884D01*
X5133465Y-12587884D02*
X5114417Y-12578360D01*
X5114417Y-12578360D02*
X5104893Y-12568836D01*
X5104893Y-12568836D02*
X5095370Y-12549788D01*
X5095370Y-12549788D02*
X5085846Y-12511693D01*
X5085846Y-12511693D02*
X5085846Y-12464074D01*
X5085846Y-12464074D02*
X5095370Y-12425979D01*
X5095370Y-12425979D02*
X5104893Y-12406931D01*
X5104893Y-12406931D02*
X5114417Y-12397408D01*
X5114417Y-12397408D02*
X5133465Y-12387884D01*
X5285846Y-12587884D02*
X5285846Y-12454550D01*
X5285846Y-12473598D02*
X5295370Y-12464074D01*
X5295370Y-12464074D02*
X5314417Y-12454550D01*
X5314417Y-12454550D02*
X5342989Y-12454550D01*
X5342989Y-12454550D02*
X5362036Y-12464074D01*
X5362036Y-12464074D02*
X5371560Y-12483122D01*
X5371560Y-12483122D02*
X5371560Y-12587884D01*
X5371560Y-12483122D02*
X5381084Y-12464074D01*
X5381084Y-12464074D02*
X5400132Y-12454550D01*
X5400132Y-12454550D02*
X5428703Y-12454550D01*
X5428703Y-12454550D02*
X5447751Y-12464074D01*
X5447751Y-12464074D02*
X5457274Y-12483122D01*
X5457274Y-12483122D02*
X5457274Y-12587884D01*
X5552513Y-12587884D02*
X5552513Y-12454550D01*
X5552513Y-12473598D02*
X5562036Y-12464074D01*
X5562036Y-12464074D02*
X5581084Y-12454550D01*
X5581084Y-12454550D02*
X5609655Y-12454550D01*
X5609655Y-12454550D02*
X5628703Y-12464074D01*
X5628703Y-12464074D02*
X5638227Y-12483122D01*
X5638227Y-12483122D02*
X5638227Y-12587884D01*
X5638227Y-12483122D02*
X5647751Y-12464074D01*
X5647751Y-12464074D02*
X5666798Y-12454550D01*
X5666798Y-12454550D02*
X5695370Y-12454550D01*
X5695370Y-12454550D02*
X5714417Y-12464074D01*
X5714417Y-12464074D02*
X5723941Y-12483122D01*
X5723941Y-12483122D02*
X5723941Y-12587884D01*
X6114417Y-12378360D02*
X5942989Y-12635503D01*
X6371560Y-12387884D02*
X6390608Y-12387884D01*
X6390608Y-12387884D02*
X6409655Y-12397408D01*
X6409655Y-12397408D02*
X6419179Y-12406931D01*
X6419179Y-12406931D02*
X6428703Y-12425979D01*
X6428703Y-12425979D02*
X6438227Y-12464074D01*
X6438227Y-12464074D02*
X6438227Y-12511693D01*
X6438227Y-12511693D02*
X6428703Y-12549788D01*
X6428703Y-12549788D02*
X6419179Y-12568836D01*
X6419179Y-12568836D02*
X6409655Y-12578360D01*
X6409655Y-12578360D02*
X6390608Y-12587884D01*
X6390608Y-12587884D02*
X6371560Y-12587884D01*
X6371560Y-12587884D02*
X6352513Y-12578360D01*
X6352513Y-12578360D02*
X6342989Y-12568836D01*
X6342989Y-12568836D02*
X6333465Y-12549788D01*
X6333465Y-12549788D02*
X6323941Y-12511693D01*
X6323941Y-12511693D02*
X6323941Y-12464074D01*
X6323941Y-12464074D02*
X6333465Y-12425979D01*
X6333465Y-12425979D02*
X6342989Y-12406931D01*
X6342989Y-12406931D02*
X6352513Y-12397408D01*
X6352513Y-12397408D02*
X6371560Y-12387884D01*
X6523941Y-12568836D02*
X6533465Y-12578360D01*
X6533465Y-12578360D02*
X6523941Y-12587884D01*
X6523941Y-12587884D02*
X6514417Y-12578360D01*
X6514417Y-12578360D02*
X6523941Y-12568836D01*
X6523941Y-12568836D02*
X6523941Y-12587884D01*
X6657274Y-12387884D02*
X6676322Y-12387884D01*
X6676322Y-12387884D02*
X6695370Y-12397408D01*
X6695370Y-12397408D02*
X6704894Y-12406931D01*
X6704894Y-12406931D02*
X6714417Y-12425979D01*
X6714417Y-12425979D02*
X6723941Y-12464074D01*
X6723941Y-12464074D02*
X6723941Y-12511693D01*
X6723941Y-12511693D02*
X6714417Y-12549788D01*
X6714417Y-12549788D02*
X6704894Y-12568836D01*
X6704894Y-12568836D02*
X6695370Y-12578360D01*
X6695370Y-12578360D02*
X6676322Y-12587884D01*
X6676322Y-12587884D02*
X6657274Y-12587884D01*
X6657274Y-12587884D02*
X6638227Y-12578360D01*
X6638227Y-12578360D02*
X6628703Y-12568836D01*
X6628703Y-12568836D02*
X6619179Y-12549788D01*
X6619179Y-12549788D02*
X6609655Y-12511693D01*
X6609655Y-12511693D02*
X6609655Y-12464074D01*
X6609655Y-12464074D02*
X6619179Y-12425979D01*
X6619179Y-12425979D02*
X6628703Y-12406931D01*
X6628703Y-12406931D02*
X6638227Y-12397408D01*
X6638227Y-12397408D02*
X6657274Y-12387884D01*
X6914417Y-12587884D02*
X6800132Y-12587884D01*
X6857274Y-12587884D02*
X6857274Y-12387884D01*
X6857274Y-12387884D02*
X6838227Y-12416455D01*
X6838227Y-12416455D02*
X6819179Y-12435503D01*
X6819179Y-12435503D02*
X6800132Y-12445027D01*
X7009655Y-12587884D02*
X7047751Y-12587884D01*
X7047751Y-12587884D02*
X7066798Y-12578360D01*
X7066798Y-12578360D02*
X7076322Y-12568836D01*
X7076322Y-12568836D02*
X7095370Y-12540265D01*
X7095370Y-12540265D02*
X7104894Y-12502169D01*
X7104894Y-12502169D02*
X7104894Y-12425979D01*
X7104894Y-12425979D02*
X7095370Y-12406931D01*
X7095370Y-12406931D02*
X7085846Y-12397408D01*
X7085846Y-12397408D02*
X7066798Y-12387884D01*
X7066798Y-12387884D02*
X7028703Y-12387884D01*
X7028703Y-12387884D02*
X7009655Y-12397408D01*
X7009655Y-12397408D02*
X7000132Y-12406931D01*
X7000132Y-12406931D02*
X6990608Y-12425979D01*
X6990608Y-12425979D02*
X6990608Y-12473598D01*
X6990608Y-12473598D02*
X7000132Y-12492646D01*
X7000132Y-12492646D02*
X7009655Y-12502169D01*
X7009655Y-12502169D02*
X7028703Y-12511693D01*
X7028703Y-12511693D02*
X7066798Y-12511693D01*
X7066798Y-12511693D02*
X7085846Y-12502169D01*
X7085846Y-12502169D02*
X7095370Y-12492646D01*
X7095370Y-12492646D02*
X7104894Y-12473598D01*
X7171560Y-12387884D02*
X7304894Y-12387884D01*
X7304894Y-12387884D02*
X7219179Y-12587884D01*
X7371560Y-12387884D02*
X7371560Y-12425979D01*
X7447751Y-12387884D02*
X7447751Y-12425979D01*
X7742989Y-12664074D02*
X7733465Y-12654550D01*
X7733465Y-12654550D02*
X7714417Y-12625979D01*
X7714417Y-12625979D02*
X7704894Y-12606931D01*
X7704894Y-12606931D02*
X7695370Y-12578360D01*
X7695370Y-12578360D02*
X7685846Y-12530741D01*
X7685846Y-12530741D02*
X7685846Y-12492646D01*
X7685846Y-12492646D02*
X7695370Y-12445027D01*
X7695370Y-12445027D02*
X7704894Y-12416455D01*
X7704894Y-12416455D02*
X7714417Y-12397408D01*
X7714417Y-12397408D02*
X7733465Y-12368836D01*
X7733465Y-12368836D02*
X7742989Y-12359312D01*
X7857275Y-12387884D02*
X7876322Y-12387884D01*
X7876322Y-12387884D02*
X7895370Y-12397408D01*
X7895370Y-12397408D02*
X7904894Y-12406931D01*
X7904894Y-12406931D02*
X7914417Y-12425979D01*
X7914417Y-12425979D02*
X7923941Y-12464074D01*
X7923941Y-12464074D02*
X7923941Y-12511693D01*
X7923941Y-12511693D02*
X7914417Y-12549788D01*
X7914417Y-12549788D02*
X7904894Y-12568836D01*
X7904894Y-12568836D02*
X7895370Y-12578360D01*
X7895370Y-12578360D02*
X7876322Y-12587884D01*
X7876322Y-12587884D02*
X7857275Y-12587884D01*
X7857275Y-12587884D02*
X7838227Y-12578360D01*
X7838227Y-12578360D02*
X7828703Y-12568836D01*
X7828703Y-12568836D02*
X7819179Y-12549788D01*
X7819179Y-12549788D02*
X7809656Y-12511693D01*
X7809656Y-12511693D02*
X7809656Y-12464074D01*
X7809656Y-12464074D02*
X7819179Y-12425979D01*
X7819179Y-12425979D02*
X7828703Y-12406931D01*
X7828703Y-12406931D02*
X7838227Y-12397408D01*
X7838227Y-12397408D02*
X7857275Y-12387884D01*
X8162037Y-12587884D02*
X8162037Y-12387884D01*
X8247751Y-12587884D02*
X8247751Y-12483122D01*
X8247751Y-12483122D02*
X8238227Y-12464074D01*
X8238227Y-12464074D02*
X8219179Y-12454550D01*
X8219179Y-12454550D02*
X8190608Y-12454550D01*
X8190608Y-12454550D02*
X8171560Y-12464074D01*
X8171560Y-12464074D02*
X8162037Y-12473598D01*
X8371560Y-12587884D02*
X8352513Y-12578360D01*
X8352513Y-12578360D02*
X8342989Y-12568836D01*
X8342989Y-12568836D02*
X8333465Y-12549788D01*
X8333465Y-12549788D02*
X8333465Y-12492646D01*
X8333465Y-12492646D02*
X8342989Y-12473598D01*
X8342989Y-12473598D02*
X8352513Y-12464074D01*
X8352513Y-12464074D02*
X8371560Y-12454550D01*
X8371560Y-12454550D02*
X8400132Y-12454550D01*
X8400132Y-12454550D02*
X8419180Y-12464074D01*
X8419180Y-12464074D02*
X8428703Y-12473598D01*
X8428703Y-12473598D02*
X8438227Y-12492646D01*
X8438227Y-12492646D02*
X8438227Y-12549788D01*
X8438227Y-12549788D02*
X8428703Y-12568836D01*
X8428703Y-12568836D02*
X8419180Y-12578360D01*
X8419180Y-12578360D02*
X8400132Y-12587884D01*
X8400132Y-12587884D02*
X8371560Y-12587884D01*
X8552513Y-12587884D02*
X8533465Y-12578360D01*
X8533465Y-12578360D02*
X8523941Y-12559312D01*
X8523941Y-12559312D02*
X8523941Y-12387884D01*
X8704894Y-12578360D02*
X8685846Y-12587884D01*
X8685846Y-12587884D02*
X8647751Y-12587884D01*
X8647751Y-12587884D02*
X8628703Y-12578360D01*
X8628703Y-12578360D02*
X8619180Y-12559312D01*
X8619180Y-12559312D02*
X8619180Y-12483122D01*
X8619180Y-12483122D02*
X8628703Y-12464074D01*
X8628703Y-12464074D02*
X8647751Y-12454550D01*
X8647751Y-12454550D02*
X8685846Y-12454550D01*
X8685846Y-12454550D02*
X8704894Y-12464074D01*
X8704894Y-12464074D02*
X8714418Y-12483122D01*
X8714418Y-12483122D02*
X8714418Y-12502169D01*
X8714418Y-12502169D02*
X8619180Y-12521217D01*
X8790608Y-12578360D02*
X8809656Y-12587884D01*
X8809656Y-12587884D02*
X8847751Y-12587884D01*
X8847751Y-12587884D02*
X8866799Y-12578360D01*
X8866799Y-12578360D02*
X8876322Y-12559312D01*
X8876322Y-12559312D02*
X8876322Y-12549788D01*
X8876322Y-12549788D02*
X8866799Y-12530741D01*
X8866799Y-12530741D02*
X8847751Y-12521217D01*
X8847751Y-12521217D02*
X8819180Y-12521217D01*
X8819180Y-12521217D02*
X8800132Y-12511693D01*
X8800132Y-12511693D02*
X8790608Y-12492646D01*
X8790608Y-12492646D02*
X8790608Y-12483122D01*
X8790608Y-12483122D02*
X8800132Y-12464074D01*
X8800132Y-12464074D02*
X8819180Y-12454550D01*
X8819180Y-12454550D02*
X8847751Y-12454550D01*
X8847751Y-12454550D02*
X8866799Y-12464074D01*
X9114418Y-12511693D02*
X9266799Y-12511693D01*
X9190608Y-12587884D02*
X9190608Y-12435503D01*
X9600132Y-12454550D02*
X9600132Y-12587884D01*
X9552513Y-12378360D02*
X9504894Y-12521217D01*
X9504894Y-12521217D02*
X9628703Y-12521217D01*
X9847751Y-12578360D02*
X9866799Y-12587884D01*
X9866799Y-12587884D02*
X9904894Y-12587884D01*
X9904894Y-12587884D02*
X9923942Y-12578360D01*
X9923942Y-12578360D02*
X9933465Y-12559312D01*
X9933465Y-12559312D02*
X9933465Y-12549788D01*
X9933465Y-12549788D02*
X9923942Y-12530741D01*
X9923942Y-12530741D02*
X9904894Y-12521217D01*
X9904894Y-12521217D02*
X9876323Y-12521217D01*
X9876323Y-12521217D02*
X9857275Y-12511693D01*
X9857275Y-12511693D02*
X9847751Y-12492646D01*
X9847751Y-12492646D02*
X9847751Y-12483122D01*
X9847751Y-12483122D02*
X9857275Y-12464074D01*
X9857275Y-12464074D02*
X9876323Y-12454550D01*
X9876323Y-12454550D02*
X9904894Y-12454550D01*
X9904894Y-12454550D02*
X9923942Y-12464074D01*
X10047751Y-12587884D02*
X10028704Y-12578360D01*
X10028704Y-12578360D02*
X10019180Y-12559312D01*
X10019180Y-12559312D02*
X10019180Y-12387884D01*
X10152513Y-12587884D02*
X10133465Y-12578360D01*
X10133465Y-12578360D02*
X10123942Y-12568836D01*
X10123942Y-12568836D02*
X10114418Y-12549788D01*
X10114418Y-12549788D02*
X10114418Y-12492646D01*
X10114418Y-12492646D02*
X10123942Y-12473598D01*
X10123942Y-12473598D02*
X10133465Y-12464074D01*
X10133465Y-12464074D02*
X10152513Y-12454550D01*
X10152513Y-12454550D02*
X10181085Y-12454550D01*
X10181085Y-12454550D02*
X10200132Y-12464074D01*
X10200132Y-12464074D02*
X10209656Y-12473598D01*
X10209656Y-12473598D02*
X10219180Y-12492646D01*
X10219180Y-12492646D02*
X10219180Y-12549788D01*
X10219180Y-12549788D02*
X10209656Y-12568836D01*
X10209656Y-12568836D02*
X10200132Y-12578360D01*
X10200132Y-12578360D02*
X10181085Y-12587884D01*
X10181085Y-12587884D02*
X10152513Y-12587884D01*
X10276323Y-12454550D02*
X10352513Y-12454550D01*
X10304894Y-12387884D02*
X10304894Y-12559312D01*
X10304894Y-12559312D02*
X10314418Y-12578360D01*
X10314418Y-12578360D02*
X10333465Y-12587884D01*
X10333465Y-12587884D02*
X10352513Y-12587884D01*
X10409656Y-12578360D02*
X10428704Y-12587884D01*
X10428704Y-12587884D02*
X10466799Y-12587884D01*
X10466799Y-12587884D02*
X10485846Y-12578360D01*
X10485846Y-12578360D02*
X10495370Y-12559312D01*
X10495370Y-12559312D02*
X10495370Y-12549788D01*
X10495370Y-12549788D02*
X10485846Y-12530741D01*
X10485846Y-12530741D02*
X10466799Y-12521217D01*
X10466799Y-12521217D02*
X10438227Y-12521217D01*
X10438227Y-12521217D02*
X10419180Y-12511693D01*
X10419180Y-12511693D02*
X10409656Y-12492646D01*
X10409656Y-12492646D02*
X10409656Y-12483122D01*
X10409656Y-12483122D02*
X10419180Y-12464074D01*
X10419180Y-12464074D02*
X10438227Y-12454550D01*
X10438227Y-12454550D02*
X10466799Y-12454550D01*
X10466799Y-12454550D02*
X10485846Y-12464074D01*
X10562037Y-12664074D02*
X10571561Y-12654550D01*
X10571561Y-12654550D02*
X10590608Y-12625979D01*
X10590608Y-12625979D02*
X10600132Y-12606931D01*
X10600132Y-12606931D02*
X10609656Y-12578360D01*
X10609656Y-12578360D02*
X10619180Y-12530741D01*
X10619180Y-12530741D02*
X10619180Y-12492646D01*
X10619180Y-12492646D02*
X10609656Y-12445027D01*
X10609656Y-12445027D02*
X10600132Y-12416455D01*
X10600132Y-12416455D02*
X10590608Y-12397408D01*
X10590608Y-12397408D02*
X10571561Y-12368836D01*
X10571561Y-12368836D02*
X10562037Y-12359312D01*
M02*
