%TF.GenerationSoftware,KiCad,Pcbnew,9.0.6*%
%TF.CreationDate,2025-12-31T13:50:19-05:00*%
%TF.ProjectId,Photon,50686f74-6f6e-42e6-9b69-6361645f7063,1.3*%
%TF.SameCoordinates,Original*%
%TF.FileFunction,Copper,L1,Top*%
%TF.FilePolarity,Positive*%
%FSLAX46Y46*%
G04 Gerber Fmt 4.6, Leading zero omitted, Abs format (unit mm)*
G04 Created by KiCad (PCBNEW 9.0.6) date 2025-12-31 13:50:19*
%MOMM*%
%LPD*%
G01*
G04 APERTURE LIST*
G04 Aperture macros list*
%AMRoundRect*
0 Rectangle with rounded corners*
0 $1 Rounding radius*
0 $2 $3 $4 $5 $6 $7 $8 $9 X,Y pos of 4 corners*
0 Add a 4 corners polygon primitive as box body*
4,1,4,$2,$3,$4,$5,$6,$7,$8,$9,$2,$3,0*
0 Add four circle primitives for the rounded corners*
1,1,$1+$1,$2,$3*
1,1,$1+$1,$4,$5*
1,1,$1+$1,$6,$7*
1,1,$1+$1,$8,$9*
0 Add four rect primitives between the rounded corners*
20,1,$1+$1,$2,$3,$4,$5,0*
20,1,$1+$1,$4,$5,$6,$7,0*
20,1,$1+$1,$6,$7,$8,$9,0*
20,1,$1+$1,$8,$9,$2,$3,0*%
G04 Aperture macros list end*
%TA.AperFunction,EtchedComponent*%
%ADD10C,2.259000*%
%TD*%
%TA.AperFunction,SMDPad,CuDef*%
%ADD11RoundRect,0.150000X0.150000X-0.587500X0.150000X0.587500X-0.150000X0.587500X-0.150000X-0.587500X0*%
%TD*%
%TA.AperFunction,SMDPad,CuDef*%
%ADD12RoundRect,0.200000X-0.275000X0.200000X-0.275000X-0.200000X0.275000X-0.200000X0.275000X0.200000X0*%
%TD*%
%TA.AperFunction,ComponentPad*%
%ADD13C,3.000000*%
%TD*%
%TA.AperFunction,SMDPad,CuDef*%
%ADD14RoundRect,0.225000X0.225000X0.250000X-0.225000X0.250000X-0.225000X-0.250000X0.225000X-0.250000X0*%
%TD*%
%TA.AperFunction,SMDPad,CuDef*%
%ADD15RoundRect,0.044000X-0.176000X0.221000X-0.176000X-0.221000X0.176000X-0.221000X0.176000X0.221000X0*%
%TD*%
%TA.AperFunction,SMDPad,CuDef*%
%ADD16RoundRect,0.088000X-0.352000X0.412000X-0.352000X-0.412000X0.352000X-0.412000X0.352000X0.412000X0*%
%TD*%
%TA.AperFunction,SMDPad,CuDef*%
%ADD17C,0.500000*%
%TD*%
%TA.AperFunction,SMDPad,CuDef*%
%ADD18RoundRect,0.150000X-0.150000X0.587500X-0.150000X-0.587500X0.150000X-0.587500X0.150000X0.587500X0*%
%TD*%
%TA.AperFunction,SMDPad,CuDef*%
%ADD19RoundRect,0.200000X-0.200000X-0.275000X0.200000X-0.275000X0.200000X0.275000X-0.200000X0.275000X0*%
%TD*%
%TA.AperFunction,SMDPad,CuDef*%
%ADD20RoundRect,0.200000X0.275000X-0.200000X0.275000X0.200000X-0.275000X0.200000X-0.275000X-0.200000X0*%
%TD*%
%TA.AperFunction,SMDPad,CuDef*%
%ADD21RoundRect,0.150000X0.512500X0.150000X-0.512500X0.150000X-0.512500X-0.150000X0.512500X-0.150000X0*%
%TD*%
%TA.AperFunction,SMDPad,CuDef*%
%ADD22RoundRect,0.150000X-0.825000X-0.150000X0.825000X-0.150000X0.825000X0.150000X-0.825000X0.150000X0*%
%TD*%
%TA.AperFunction,HeatsinkPad*%
%ADD23R,2.290000X3.000000*%
%TD*%
%TA.AperFunction,SMDPad,CuDef*%
%ADD24RoundRect,0.225000X-0.225000X-0.250000X0.225000X-0.250000X0.225000X0.250000X-0.225000X0.250000X0*%
%TD*%
%TA.AperFunction,SMDPad,CuDef*%
%ADD25RoundRect,0.200000X0.200000X0.275000X-0.200000X0.275000X-0.200000X-0.275000X0.200000X-0.275000X0*%
%TD*%
%TA.AperFunction,SMDPad,CuDef*%
%ADD26RoundRect,0.150000X-0.512500X-0.150000X0.512500X-0.150000X0.512500X0.150000X-0.512500X0.150000X0*%
%TD*%
%TA.AperFunction,SMDPad,CuDef*%
%ADD27RoundRect,0.175000X0.175000X0.625000X-0.175000X0.625000X-0.175000X-0.625000X0.175000X-0.625000X0*%
%TD*%
%TA.AperFunction,SMDPad,CuDef*%
%ADD28RoundRect,0.200000X0.200000X0.600000X-0.200000X0.600000X-0.200000X-0.600000X0.200000X-0.600000X0*%
%TD*%
%TA.AperFunction,SMDPad,CuDef*%
%ADD29RoundRect,0.225000X0.225000X0.575000X-0.225000X0.575000X-0.225000X-0.575000X0.225000X-0.575000X0*%
%TD*%
%TA.AperFunction,HeatsinkPad*%
%ADD30O,1.000000X1.700000*%
%TD*%
%TA.AperFunction,SMDPad,CuDef*%
%ADD31RoundRect,0.225000X-0.250000X0.225000X-0.250000X-0.225000X0.250000X-0.225000X0.250000X0.225000X0*%
%TD*%
%TA.AperFunction,SMDPad,CuDef*%
%ADD32RoundRect,0.105000X-0.420000X-0.895000X0.420000X-0.895000X0.420000X0.895000X-0.420000X0.895000X0*%
%TD*%
%TA.AperFunction,SMDPad,CuDef*%
%ADD33RoundRect,0.120000X1.230000X-0.280000X1.230000X0.280000X-1.230000X0.280000X-1.230000X-0.280000X0*%
%TD*%
%TA.AperFunction,SMDPad,CuDef*%
%ADD34RoundRect,0.225000X0.250000X-0.225000X0.250000X0.225000X-0.250000X0.225000X-0.250000X-0.225000X0*%
%TD*%
%TA.AperFunction,SMDPad,CuDef*%
%ADD35RoundRect,0.255000X0.945000X0.595000X-0.945000X0.595000X-0.945000X-0.595000X0.945000X-0.595000X0*%
%TD*%
%TA.AperFunction,ComponentPad*%
%ADD36R,1.700000X1.700000*%
%TD*%
%TA.AperFunction,ComponentPad*%
%ADD37C,1.700000*%
%TD*%
%TA.AperFunction,SMDPad,CuDef*%
%ADD38RoundRect,0.150000X0.675000X0.150000X-0.675000X0.150000X-0.675000X-0.150000X0.675000X-0.150000X0*%
%TD*%
%TA.AperFunction,ViaPad*%
%ADD39C,0.700000*%
%TD*%
%TA.AperFunction,Conductor*%
%ADD40C,0.200000*%
%TD*%
%TA.AperFunction,Conductor*%
%ADD41C,0.600000*%
%TD*%
%TA.AperFunction,Conductor*%
%ADD42C,0.500000*%
%TD*%
%TA.AperFunction,Conductor*%
%ADD43C,0.700000*%
%TD*%
%TA.AperFunction,Conductor*%
%ADD44C,0.300000*%
%TD*%
G04 APERTURE END LIST*
%TO.C,D2*%
D10*
X54088500Y-47017000D02*
G75*
G02*
X51829500Y-47017000I-1129500J0D01*
G01*
X51829500Y-47017000D02*
G75*
G02*
X54088500Y-47017000I1129500J0D01*
G01*
%TO.C,D3*%
X54088500Y-72644000D02*
G75*
G02*
X51829500Y-72644000I-1129500J0D01*
G01*
X51829500Y-72644000D02*
G75*
G02*
X54088500Y-72644000I1129500J0D01*
G01*
%TD*%
D11*
%TO.P,Q1,1,G*%
%TO.N,/DSBL*%
X49088000Y-41704500D03*
%TO.P,Q1,2,S*%
%TO.N,PACK_SAFE*%
X50988000Y-41704500D03*
%TO.P,Q1,3,D*%
%TO.N,/VBAT_SYS*%
X50038000Y-39829500D03*
%TD*%
D12*
%TO.P,R6,1*%
%TO.N,/VBAT_SYS*%
X55880000Y-57024000D03*
%TO.P,R6,2*%
%TO.N,GND*%
X55880000Y-58674000D03*
%TD*%
D13*
%TO.P,BT1,2,-*%
%TO.N,/Bat-*%
X52878800Y-90668000D03*
X50378800Y-83068000D03*
X55378800Y-83068000D03*
%TO.P,BT1,1,+*%
%TO.N,+BATT*%
X50378800Y-37068000D03*
X55378800Y-37068000D03*
X52878800Y-29468000D03*
%TD*%
D14*
%TO.P,C2,2*%
%TO.N,/VBAT_SYS*%
X49530000Y-52959000D03*
%TO.P,C2,1*%
%TO.N,GND*%
X51080000Y-52959000D03*
%TD*%
%TO.P,C6,2*%
%TO.N,+BATT*%
X58051400Y-34629600D03*
%TO.P,C6,1*%
%TO.N,GND*%
X59601400Y-34629600D03*
%TD*%
D15*
%TO.P,D1,1,A1*%
%TO.N,/LED_PWR*%
X61976000Y-31828500D03*
%TO.P,D1,2,K1*%
%TO.N,/CHRG*%
X61976000Y-31048500D03*
D16*
%TO.P,D1,3,A2*%
%TO.N,/LED_PWR*%
X61976000Y-32883500D03*
%TO.P,D1,4,K2*%
%TO.N,/STDBY*%
X61976000Y-29983500D03*
%TD*%
D17*
%TO.P,FID1,*%
%TO.N,*%
X61468000Y-27178000D03*
%TD*%
%TO.P,FID2,*%
%TO.N,*%
X44196000Y-90424000D03*
%TD*%
%TO.P,FID3,*%
%TO.N,*%
X44196000Y-27178000D03*
%TD*%
D18*
%TO.P,Q2,3,D*%
%TO.N,+BATT*%
X54660800Y-41704500D03*
%TO.P,Q2,2,S*%
%TO.N,PACK_SAFE*%
X53710800Y-39829500D03*
%TO.P,Q2,1,G*%
%TO.N,/BAT_DSBL*%
X55610800Y-39829500D03*
%TD*%
D19*
%TO.P,R4,2*%
%TO.N,5V*%
X46228000Y-34290000D03*
%TO.P,R4,1*%
%TO.N,/DSBL*%
X44578000Y-34290000D03*
%TD*%
D12*
%TO.P,R14,2*%
%TO.N,/DW01A_VCC*%
X46888400Y-84899000D03*
%TO.P,R14,1*%
%TO.N,+BATT*%
X46888400Y-83249000D03*
%TD*%
D19*
%TO.P,R16,2*%
%TO.N,GND*%
X51371000Y-77724000D03*
%TO.P,R16,1*%
%TO.N,/Rext2*%
X49721000Y-77724000D03*
%TD*%
D12*
%TO.P,R17,2*%
%TO.N,/VM*%
X52878800Y-84899000D03*
%TO.P,R17,1*%
%TO.N,GND*%
X52878800Y-83249000D03*
%TD*%
D20*
%TO.P,R19,2*%
%TO.N,/BAT_DSBL*%
X58928000Y-86639800D03*
%TO.P,R19,1*%
%TO.N,/Bat-*%
X58928000Y-88289800D03*
%TD*%
D21*
%TO.P,U3,1,EN*%
%TO.N,/VBAT_SYS*%
X53889500Y-56891000D03*
%TO.P,U3,2,GND*%
%TO.N,GND*%
X53889500Y-55941000D03*
%TO.P,U3,3,LX*%
%TO.N,/LX*%
X53889500Y-54991000D03*
%TO.P,U3,4,Vin*%
%TO.N,/VBAT_SYS*%
X51614500Y-54991000D03*
%TO.P,U3,5,FB*%
%TO.N,/FB*%
X51614500Y-56891000D03*
%TD*%
D22*
%TO.P,U2,1,TEMP*%
%TO.N,GND*%
X50403800Y-31009400D03*
%TO.P,U2,2,PROG*%
%TO.N,/Iset*%
X50403800Y-32279400D03*
%TO.P,U2,3,GND*%
%TO.N,GND*%
X50403800Y-33549400D03*
%TO.P,U2,4,V_{CC}*%
%TO.N,5V*%
X50403800Y-34819400D03*
%TO.P,U2,5,BAT*%
%TO.N,+BATT*%
X55353800Y-34819400D03*
%TO.P,U2,6,~{STDBY}*%
%TO.N,/STDBY*%
X55353800Y-33549400D03*
%TO.P,U2,7,~{CHRG}*%
%TO.N,/CHRG*%
X55353800Y-32279400D03*
%TO.P,U2,8,CE*%
%TO.N,5V*%
X55353800Y-31009400D03*
D23*
%TO.P,U2,9,EPAD*%
%TO.N,GND*%
X52878800Y-32914400D03*
%TD*%
D24*
%TO.P,C3,2*%
%TO.N,5V*%
X46178000Y-31226000D03*
%TO.P,C3,1*%
%TO.N,GND*%
X44628000Y-31226000D03*
%TD*%
D14*
%TO.P,C4,2*%
%TO.N,+3V3*%
X47752000Y-57150000D03*
%TO.P,C4,1*%
%TO.N,/FB*%
X49302000Y-57150000D03*
%TD*%
D24*
%TO.P,C5,2*%
%TO.N,+3V3*%
X54382000Y-52959000D03*
%TO.P,C5,1*%
%TO.N,GND*%
X52832000Y-52959000D03*
%TD*%
D25*
%TO.P,R5,2*%
%TO.N,GND*%
X44578000Y-32766000D03*
%TO.P,R5,1*%
%TO.N,5V*%
X46228000Y-32766000D03*
%TD*%
D19*
%TO.P,R7,2*%
%TO.N,/LED_PWR*%
X59631400Y-28956000D03*
%TO.P,R7,1*%
%TO.N,5V*%
X57981400Y-28956000D03*
%TD*%
D12*
%TO.P,R10,2*%
%TO.N,GND*%
X48006000Y-32813000D03*
%TO.P,R10,1*%
%TO.N,/Iset*%
X48006000Y-31163000D03*
%TD*%
D20*
%TO.P,R13,2*%
%TO.N,GND*%
X47244000Y-39815000D03*
%TO.P,R13,1*%
%TO.N,/Rext1*%
X47244000Y-41465000D03*
%TD*%
D26*
%TO.P,U4,6,Rext*%
%TO.N,/Rext1*%
X47062428Y-43182724D03*
%TO.P,U4,5,OUT*%
%TO.N,/OUT_LED1*%
X47062428Y-44132724D03*
%TO.P,U4,4,GND*%
%TO.N,GND*%
X47062428Y-45082724D03*
%TO.P,U4,3,OUT*%
%TO.N,/OUT_LED1*%
X44787428Y-45082724D03*
%TO.P,U4,2,OUT*%
X44787428Y-44132724D03*
%TO.P,U4,1,EN*%
%TO.N,/LED1_EN*%
X44787428Y-43182724D03*
%TD*%
D21*
%TO.P,U5,6,GND*%
%TO.N,/Bat-*%
X49154500Y-88364000D03*
%TO.P,U5,5,VCC*%
%TO.N,/DW01A_VCC*%
X49154500Y-87414000D03*
%TO.P,U5,4,TD*%
%TO.N,unconnected-(U5-TD-Pad4)*%
X49154500Y-86464000D03*
%TO.P,U5,3,OC*%
%TO.N,/OC*%
X51429500Y-86464000D03*
%TO.P,U5,2,VM*%
%TO.N,/VM*%
X51429500Y-87414000D03*
%TO.P,U5,1,OD*%
%TO.N,/OD*%
X51429500Y-88364000D03*
%TD*%
%TO.P,U6,6,G1*%
%TO.N,/OD*%
X54488500Y-88364000D03*
%TO.P,U6,5,D1/D2*%
%TO.N,unconnected-(U6-D1{slash}D2-Pad5)*%
X54488500Y-87414000D03*
%TO.P,U6,4,G2*%
%TO.N,/OC*%
X54488500Y-86464000D03*
%TO.P,U6,3,S2*%
%TO.N,GND*%
X56763500Y-86464000D03*
%TO.P,U6,2,D1/D2*%
%TO.N,unconnected-(U6-D1{slash}D2-Pad2)*%
X56763500Y-87414000D03*
%TO.P,U6,1,S1*%
%TO.N,/Bat-*%
X56763500Y-88364000D03*
%TD*%
D27*
%TO.P,J1,A5,CC1*%
%TO.N,/CC1*%
X53378800Y-25786000D03*
D28*
%TO.P,J1,A9,VBUS*%
%TO.N,5V*%
X51358800Y-25786000D03*
D29*
%TO.P,J1,A12,GND*%
%TO.N,GND*%
X50128800Y-25786000D03*
D27*
%TO.P,J1,B5,CC2*%
%TO.N,/CC2*%
X52378800Y-25786000D03*
D28*
%TO.P,J1,B9,VBUS*%
%TO.N,5V*%
X54398800Y-25786000D03*
D29*
%TO.P,J1,B12,GND*%
%TO.N,GND*%
X55628800Y-25786000D03*
D30*
%TO.P,J1,S1,SHIELD*%
X57198800Y-25606000D03*
X57198800Y-21806000D03*
X48558800Y-25606000D03*
X48558800Y-21806000D03*
%TD*%
D19*
%TO.P,R9,1*%
%TO.N,/FB*%
X51004000Y-58928000D03*
%TO.P,R9,2*%
%TO.N,GND*%
X52654000Y-58928000D03*
%TD*%
D31*
%TO.P,C1,1*%
%TO.N,GND*%
X56642000Y-63487000D03*
%TO.P,C1,2*%
%TO.N,+3V3*%
X56642000Y-65037000D03*
%TD*%
D25*
%TO.P,R2,1*%
%TO.N,/CC2*%
X46291000Y-24638000D03*
%TO.P,R2,2*%
%TO.N,GND*%
X44641000Y-24638000D03*
%TD*%
%TO.P,R1,1*%
%TO.N,/CC1*%
X46291000Y-23114000D03*
%TO.P,R1,2*%
%TO.N,GND*%
X44641000Y-23114000D03*
%TD*%
D32*
%TO.P,SW1,1,1*%
%TO.N,/BTN*%
X50546000Y-80010000D03*
%TO.P,SW1,2,2*%
%TO.N,GND*%
X54991000Y-80010000D03*
%TD*%
D26*
%TO.P,U7,1,EN*%
%TO.N,/LED2_EN*%
X45617500Y-76247000D03*
%TO.P,U7,2,OUT*%
%TO.N,/OUT_LED2*%
X45617500Y-77197000D03*
%TO.P,U7,3,OUT*%
X45617500Y-78147000D03*
%TO.P,U7,4,GND*%
%TO.N,GND*%
X47892500Y-78147000D03*
%TO.P,U7,5,OUT*%
%TO.N,/OUT_LED2*%
X47892500Y-77197000D03*
%TO.P,U7,6,Rext*%
%TO.N,/Rext2*%
X47892500Y-76247000D03*
%TD*%
D33*
%TO.P,L1,1,1*%
%TO.N,/LX*%
X57038386Y-55143400D03*
%TO.P,L1,2,2*%
%TO.N,+3V3*%
X57038386Y-52832000D03*
%TD*%
D34*
%TO.P,C7,1*%
%TO.N,/Bat-*%
X46888400Y-88239800D03*
%TO.P,C7,2*%
%TO.N,/DW01A_VCC*%
X46888400Y-86689800D03*
%TD*%
D19*
%TO.P,R8,1*%
%TO.N,+3V3*%
X47702000Y-58928000D03*
%TO.P,R8,2*%
%TO.N,/FB*%
X49352000Y-58928000D03*
%TD*%
D35*
%TO.P,D2,1,K*%
%TO.N,/OUT_LED1*%
X46609000Y-47779000D03*
%TO.P,D2,2,A*%
%TO.N,+3V3*%
X59309000Y-46255000D03*
%TD*%
%TO.P,D3,1,K*%
%TO.N,/OUT_LED2*%
X46609000Y-73406000D03*
%TO.P,D3,2,A*%
%TO.N,+3V3*%
X59309000Y-71882000D03*
%TD*%
D36*
%TO.P,J2,1,Pin_1*%
%TO.N,GND*%
X44450000Y-69088000D03*
D37*
%TO.P,J2,2,Pin_2*%
%TO.N,/SWC*%
X44650000Y-66548000D03*
%TO.P,J2,3,Pin_3*%
%TO.N,/SWD*%
X44450000Y-64008000D03*
%TO.P,J2,4,Pin_4*%
%TO.N,/NRST*%
X44650000Y-61468000D03*
%TO.P,J2,5,Pin_5*%
%TO.N,+3V3*%
X44450000Y-58928000D03*
%TD*%
D38*
%TO.P,U1,1,VDD*%
%TO.N,+3V3*%
X54187000Y-64897000D03*
%TO.P,U1,2,PA4/PA10*%
%TO.N,/LED1_EN*%
X54187000Y-63627000D03*
%TO.P,U1,3,PA3*%
%TO.N,/LED2_EN*%
X54187000Y-62357000D03*
%TO.P,U1,4,PA14/PB3/SWC*%
%TO.N,/SWC*%
X54187000Y-61087000D03*
%TO.P,U1,5,PA13/SWD*%
%TO.N,/SWD*%
X48937000Y-61087000D03*
%TO.P,U1,6,PA2/PF2/NRST*%
%TO.N,/NRST*%
X48937000Y-62357000D03*
%TO.P,U1,7,PA1*%
%TO.N,/BTN*%
X48937000Y-63627000D03*
%TO.P,U1,8,GND*%
%TO.N,GND*%
X48937000Y-64897000D03*
%TD*%
D39*
%TO.N,GND*%
X52878800Y-32914400D03*
%TO.N,/CHRG*%
X58779350Y-31270657D03*
X60169343Y-31270657D03*
%TO.N,+BATT*%
X56997600Y-31496000D03*
X56153800Y-29159400D03*
X56997600Y-34544000D03*
%TO.N,/VM*%
X52878800Y-87414000D03*
X52878800Y-85814000D03*
%TO.N,/LED1_EN*%
X45972603Y-52322603D03*
X47128000Y-53848000D03*
%TO.N,GND*%
X43434000Y-32766000D03*
X49149000Y-54483000D03*
X55626000Y-24526000D03*
X62484000Y-53340000D03*
X52705000Y-55626000D03*
X53848000Y-58928000D03*
X51816000Y-51816000D03*
X52070000Y-53848000D03*
X57150000Y-27432000D03*
X59690000Y-82550000D03*
X57658000Y-58674000D03*
X56642000Y-62230000D03*
X50546000Y-51816000D03*
X60706000Y-34544000D03*
X45212000Y-80772000D03*
X47892500Y-79248000D03*
X62484000Y-43688000D03*
X43688000Y-23114000D03*
X43942000Y-84582000D03*
X47498000Y-64897000D03*
X50128800Y-24526000D03*
X48006000Y-33782000D03*
X55372000Y-66548000D03*
X61976000Y-88392000D03*
X43688000Y-24638000D03*
X47244000Y-38872000D03*
X62484000Y-80010000D03*
X48514000Y-27432000D03*
X57658000Y-73914000D03*
X52832000Y-21844000D03*
X52878800Y-82296000D03*
X43434000Y-31242000D03*
X60452000Y-73914000D03*
X52578000Y-77724000D03*
X52324000Y-50292000D03*
X60960000Y-63246000D03*
X49149000Y-55880000D03*
X48260000Y-92710000D03*
X47062428Y-45820724D03*
X54864000Y-51308000D03*
X44450000Y-70866000D03*
X46990000Y-50546000D03*
X44450000Y-39878000D03*
X43942000Y-52324000D03*
X58420000Y-92456000D03*
X50800000Y-50292000D03*
X53086000Y-51816000D03*
X56388000Y-80010000D03*
X56763500Y-85686800D03*
X53848000Y-50292000D03*
%TO.N,/NRST*%
X47161000Y-61805000D03*
%TO.N,/LED2_EN*%
X47639116Y-75057000D03*
X45836000Y-75057000D03*
%TO.N,/SWC*%
X47244000Y-66548000D03*
%TO.N,+3V3*%
X47128000Y-60593980D03*
X52641539Y-64325539D03*
X51435766Y-63119768D03*
%TO.N,/VBAT_SYS*%
X49537620Y-51965620D03*
X49022000Y-49273206D03*
%TO.N,/SWD*%
X47161000Y-63163000D03*
%TO.N,5V*%
X54398800Y-24526000D03*
X51308000Y-24526000D03*
%TO.N,/BTN*%
X50368219Y-64084219D03*
X51883065Y-65091065D03*
%TO.N,GND*%
X62484000Y-66294000D03*
%TD*%
D40*
%TO.N,+3V3*%
X48387000Y-52197000D02*
X48387000Y-55753000D01*
X47752000Y-56388000D02*
X47752000Y-57150000D01*
X53451147Y-51165147D02*
X49418853Y-51165147D01*
X54382000Y-52096000D02*
X53451147Y-51165147D01*
X48387000Y-55753000D02*
X47752000Y-56388000D01*
X54382000Y-52565430D02*
X54382000Y-52096000D01*
X49418853Y-51165147D02*
X48387000Y-52197000D01*
D41*
%TO.N,PACK_SAFE*%
X50988000Y-40452000D02*
X50988000Y-41577500D01*
X51610500Y-39829500D02*
X50988000Y-40452000D01*
X53710800Y-39829500D02*
X51610500Y-39829500D01*
D40*
%TO.N,/BAT_DSBL*%
X61722000Y-84582000D02*
X61722000Y-44856400D01*
X56695100Y-39829500D02*
X55610800Y-39829500D01*
X59664200Y-86639800D02*
X61722000Y-84582000D01*
X61722000Y-44856400D02*
X56695100Y-39829500D01*
X58928000Y-86639800D02*
X59664200Y-86639800D01*
%TO.N,/VBAT_SYS*%
X54859000Y-56891000D02*
X53889500Y-56891000D01*
X54992000Y-57024000D02*
X54859000Y-56891000D01*
X55880000Y-57024000D02*
X54992000Y-57024000D01*
X53889500Y-56891000D02*
X53049346Y-56891000D01*
X53049346Y-56891000D02*
X51614500Y-55456154D01*
X51614500Y-55456154D02*
X51614500Y-54991000D01*
D41*
X51028600Y-54991000D02*
X49530000Y-53492400D01*
X51614500Y-54991000D02*
X51028600Y-54991000D01*
X49530000Y-53492400D02*
X49530000Y-52959000D01*
X50038000Y-43815000D02*
X50038000Y-39702500D01*
X49022000Y-44831000D02*
X50038000Y-43815000D01*
D40*
%TO.N,/STDBY*%
X60186500Y-29983500D02*
X61976000Y-29983500D01*
X59436000Y-30734000D02*
X60186500Y-29983500D01*
X59436000Y-32004000D02*
X59436000Y-30734000D01*
X57890600Y-33549400D02*
X59436000Y-32004000D01*
X55353800Y-33549400D02*
X57890600Y-33549400D01*
%TO.N,/CHRG*%
X60899500Y-31048500D02*
X61976000Y-31048500D01*
X60706000Y-31242000D02*
X60899500Y-31048500D01*
X60198000Y-31242000D02*
X60706000Y-31242000D01*
X60169343Y-31270657D02*
X60198000Y-31242000D01*
X58779350Y-31270657D02*
X58304813Y-31270657D01*
X58304813Y-31270657D02*
X57296070Y-32279400D01*
X57296070Y-32279400D02*
X55353800Y-32279400D01*
D42*
%TO.N,+BATT*%
X55353800Y-34819400D02*
X56722200Y-34819400D01*
X56997600Y-34544000D02*
X57965800Y-34544000D01*
X56722200Y-34819400D02*
X56997600Y-34544000D01*
D43*
X55459000Y-36068000D02*
X55459000Y-34924600D01*
D42*
X57965800Y-34544000D02*
X58051400Y-34629600D01*
X56997600Y-31496000D02*
X56997600Y-30003200D01*
X56997600Y-30003200D02*
X56153800Y-29159400D01*
D41*
X53112800Y-28702000D02*
X52878800Y-28468000D01*
D40*
%TO.N,/LED_PWR*%
X62757628Y-29356628D02*
X62357000Y-28956000D01*
X62484000Y-32258000D02*
X62757628Y-31984372D01*
X61976000Y-32258000D02*
X62484000Y-32258000D01*
X62757628Y-31984372D02*
X62757628Y-29356628D01*
X62357000Y-28956000D02*
X59631400Y-28956000D01*
D44*
X61976000Y-32258000D02*
X61976000Y-32883500D01*
X61976000Y-31828500D02*
X61976000Y-32258000D01*
D40*
%TO.N,/VBAT_SYS*%
X53894500Y-56896000D02*
X53889500Y-56891000D01*
%TO.N,/VM*%
X51642000Y-87414000D02*
X52878800Y-87414000D01*
X52878800Y-85814000D02*
X52878800Y-84899000D01*
%TO.N,/Iset*%
X49043400Y-32279400D02*
X48768000Y-32004000D01*
X50403800Y-32279400D02*
X49043400Y-32279400D01*
X48768000Y-32004000D02*
X48260000Y-32004000D01*
X48260000Y-32004000D02*
X48006000Y-31750000D01*
X48006000Y-31750000D02*
X48006000Y-31163000D01*
%TO.N,/LED1_EN*%
X43434000Y-43688000D02*
X43939276Y-43182724D01*
X43434000Y-47879000D02*
X43434000Y-43688000D01*
X43939276Y-43182724D02*
X44787428Y-43182724D01*
X45972603Y-50417603D02*
X43434000Y-47879000D01*
X45972603Y-52322603D02*
X45972603Y-50417603D01*
X46879000Y-54097000D02*
X46879000Y-59325000D01*
X47128000Y-53848000D02*
X46879000Y-54097000D01*
X46879000Y-59325000D02*
X47498000Y-59944000D01*
X47498000Y-59944000D02*
X54864000Y-59944000D01*
X54864000Y-59944000D02*
X55626000Y-60706000D01*
X55626000Y-60706000D02*
X55626000Y-63256500D01*
X55626000Y-63256500D02*
X55255500Y-63627000D01*
X55255500Y-63627000D02*
X54187000Y-63627000D01*
D42*
%TO.N,GND*%
X55626000Y-24526000D02*
X55628800Y-24528800D01*
D40*
%TO.N,/FB*%
X50292000Y-57150000D02*
X50551000Y-56891000D01*
X51397000Y-56891000D02*
X51402000Y-56896000D01*
X49302000Y-57150000D02*
X49302000Y-58878000D01*
X50551000Y-56891000D02*
X51397000Y-56891000D01*
X49352000Y-58928000D02*
X51004000Y-58928000D01*
X49302000Y-58878000D02*
X49352000Y-58928000D01*
X49302000Y-57150000D02*
X50292000Y-57150000D01*
D41*
%TO.N,/OUT_LED1*%
X44787428Y-45082724D02*
X44787428Y-45910628D01*
X44787428Y-45082724D02*
X44787428Y-44132724D01*
X44787428Y-45910628D02*
X46655800Y-47779000D01*
X44787428Y-44132724D02*
X47078499Y-44132724D01*
D42*
%TO.N,/OUT_LED2*%
X45617500Y-77197000D02*
X46241999Y-77197000D01*
X46736000Y-76702999D02*
X46736000Y-76581000D01*
X46736000Y-76740999D02*
X46736000Y-76581000D01*
X46241999Y-77197000D02*
X46736000Y-76702999D01*
X47892500Y-77197000D02*
X47230001Y-77197000D01*
X46736000Y-73486200D02*
X46655800Y-73406000D01*
X46736000Y-76581000D02*
X46736000Y-73486200D01*
X47230001Y-77197000D02*
X46736000Y-76702999D01*
X47892500Y-77197000D02*
X45617500Y-77197000D01*
X45617500Y-78147000D02*
X45617500Y-77197000D01*
%TO.N,/LX*%
X57038386Y-55143400D02*
X56885986Y-54991000D01*
X56885986Y-54991000D02*
X53889500Y-54991000D01*
X57038386Y-55143400D02*
X57112200Y-55143400D01*
D40*
%TO.N,/NRST*%
X47161000Y-61805000D02*
X47713000Y-62357000D01*
X47713000Y-62357000D02*
X48937000Y-62357000D01*
%TO.N,/LED2_EN*%
X52959000Y-62357000D02*
X54187000Y-62357000D01*
X45836000Y-75057000D02*
X45617500Y-75275500D01*
X47639116Y-75057000D02*
X48156800Y-74539316D01*
X45617500Y-75275500D02*
X45617500Y-76247000D01*
X48156800Y-67885073D02*
X52725000Y-63316873D01*
X48156800Y-74539316D02*
X48156800Y-67885073D01*
X52725000Y-63316873D02*
X52725000Y-62591000D01*
X52725000Y-62591000D02*
X52959000Y-62357000D01*
%TO.N,/SWC*%
X47244000Y-66548000D02*
X48926773Y-66548000D01*
X52705000Y-61087000D02*
X54187000Y-61087000D01*
X48926773Y-66548000D02*
X52324000Y-63150773D01*
X52324000Y-63150773D02*
X52324000Y-61468000D01*
X52324000Y-61468000D02*
X52705000Y-61087000D01*
%TO.N,/Rext1*%
X47244000Y-43001152D02*
X47062428Y-43182724D01*
X47274928Y-43182724D02*
X47274928Y-42970224D01*
X47244000Y-41465000D02*
X47244000Y-43001152D01*
X47234000Y-41455000D02*
X47244000Y-41465000D01*
%TO.N,/Rext2*%
X49721000Y-76899000D02*
X49721000Y-77978000D01*
X48105000Y-76247000D02*
X49069000Y-76247000D01*
X49069000Y-76247000D02*
X49721000Y-76899000D01*
D44*
%TO.N,+3V3*%
X54187000Y-64897000D02*
X53213000Y-64897000D01*
D43*
X58928000Y-52832000D02*
X59944000Y-53848000D01*
D44*
X51435766Y-61595766D02*
X50276000Y-60436000D01*
D40*
X47752000Y-57150000D02*
X47752000Y-58878000D01*
D44*
X54187000Y-64897000D02*
X56502000Y-64897000D01*
X50276000Y-60436000D02*
X47285980Y-60436000D01*
D43*
X59944000Y-53848000D02*
X59944000Y-65024000D01*
X57038386Y-52832000D02*
X57038386Y-51419614D01*
X57038386Y-51419614D02*
X59355800Y-49102200D01*
D44*
X51435766Y-63119768D02*
X51435766Y-61595766D01*
X47285980Y-60436000D02*
X47128000Y-60593980D01*
X59931000Y-65037000D02*
X59944000Y-65024000D01*
X53213000Y-64897000D02*
X52641539Y-64325539D01*
X56502000Y-64897000D02*
X56642000Y-65037000D01*
D43*
X57038386Y-52832000D02*
X58928000Y-52832000D01*
D40*
X47752000Y-58878000D02*
X47702000Y-58928000D01*
D44*
X56642000Y-65037000D02*
X59931000Y-65037000D01*
D43*
X54382000Y-52832000D02*
X57038386Y-52832000D01*
X59355800Y-49102200D02*
X59355800Y-46393214D01*
D41*
%TO.N,/VBAT_SYS*%
X49530000Y-52224000D02*
X49530000Y-52959000D01*
X49537620Y-52216380D02*
X49530000Y-52224000D01*
X49022000Y-49273206D02*
X49022000Y-44831000D01*
X49537620Y-51965620D02*
X49537620Y-52216380D01*
D40*
%TO.N,/SWD*%
X47366000Y-62958000D02*
X49802968Y-62958000D01*
X49911000Y-61087000D02*
X48937000Y-61087000D01*
X50063000Y-62697968D02*
X50063000Y-61239000D01*
X50063000Y-61239000D02*
X49911000Y-61087000D01*
X49802968Y-62958000D02*
X50063000Y-62697968D01*
X47161000Y-63163000D02*
X47366000Y-62958000D01*
D42*
%TO.N,5V*%
X51308000Y-24526000D02*
X51308000Y-25735200D01*
X46736000Y-29464000D02*
X46178000Y-30022000D01*
X55353800Y-28295600D02*
X55353800Y-28600400D01*
X51358800Y-25786000D02*
X51358800Y-27635200D01*
X51308000Y-25735200D02*
X51358800Y-25786000D01*
X46228000Y-31276000D02*
X46228000Y-34290000D01*
D40*
X55678600Y-28315600D02*
X55353800Y-27990800D01*
D42*
X46178000Y-30022000D02*
X46178000Y-31226000D01*
X54398800Y-24526000D02*
X54398800Y-26458800D01*
D40*
X55829200Y-28315600D02*
X55638600Y-28315600D01*
X55638600Y-28315600D02*
X55353800Y-28600400D01*
D42*
X46228000Y-34290000D02*
X47244000Y-34290000D01*
X55353800Y-27990800D02*
X55353800Y-28295600D01*
X54398800Y-26458800D02*
X55353800Y-27413800D01*
X51308000Y-24526000D02*
X51358800Y-24576800D01*
D40*
X57981400Y-28956000D02*
X57150000Y-28956000D01*
D42*
X47773400Y-34819400D02*
X50403800Y-34819400D01*
D40*
X57150000Y-28956000D02*
X56509600Y-28315600D01*
D42*
X51358800Y-25786000D02*
X51308000Y-25836800D01*
X49530000Y-29464000D02*
X46736000Y-29464000D01*
X55353800Y-28600400D02*
X55353800Y-31009400D01*
D40*
X55829200Y-28315600D02*
X55373800Y-28315600D01*
X56509600Y-28315600D02*
X55829200Y-28315600D01*
X55829200Y-28315600D02*
X55678600Y-28315600D01*
D42*
X55353800Y-27413800D02*
X55353800Y-27990800D01*
D40*
X55373800Y-28315600D02*
X55353800Y-28295600D01*
D42*
X47244000Y-34290000D02*
X47773400Y-34819400D01*
X51358800Y-27635200D02*
X49530000Y-29464000D01*
%TO.N,/DW01A_VCC*%
X46888400Y-86689800D02*
X46888400Y-84899000D01*
X47573800Y-86689800D02*
X46888400Y-86689800D01*
X49154500Y-87414000D02*
X48298000Y-87414000D01*
X48298000Y-87414000D02*
X47573800Y-86689800D01*
D40*
%TO.N,/CC1*%
X53378800Y-26040000D02*
X53378800Y-24168800D01*
X52324000Y-23114000D02*
X46291000Y-23114000D01*
X53378800Y-24168800D02*
X52324000Y-23114000D01*
%TO.N,/CC2*%
X47498000Y-24638000D02*
X46291000Y-24638000D01*
X51816000Y-23622000D02*
X48514000Y-23622000D01*
X52378800Y-26040000D02*
X52378800Y-24184800D01*
X52378800Y-24184800D02*
X51816000Y-23622000D01*
X48514000Y-23622000D02*
X47498000Y-24638000D01*
%TO.N,/DSBL*%
X45466000Y-36830000D02*
X44578000Y-35942000D01*
X49088000Y-41577500D02*
X49088000Y-39436000D01*
X49088000Y-39436000D02*
X46482000Y-36830000D01*
X44578000Y-35942000D02*
X44578000Y-34776500D01*
X46482000Y-36830000D02*
X45466000Y-36830000D01*
%TO.N,/OD*%
X51642000Y-88364000D02*
X54276000Y-88364000D01*
%TO.N,/OC*%
X51642000Y-86464000D02*
X54276000Y-86464000D01*
D42*
%TO.N,/Bat-*%
X50378800Y-84068000D02*
X50292000Y-84154800D01*
D40*
X56763500Y-88364000D02*
X58853800Y-88364000D01*
D41*
X56196001Y-88364000D02*
X56763500Y-88364000D01*
D42*
X50330000Y-90462000D02*
X49154500Y-89286500D01*
X55626000Y-87793999D02*
X56196001Y-88364000D01*
X49154500Y-89286500D02*
X49154500Y-88364000D01*
X56763500Y-89540500D02*
X55842000Y-90462000D01*
X47978000Y-88364000D02*
X47853800Y-88239800D01*
X50292000Y-87888999D02*
X49816999Y-88364000D01*
X50292000Y-83938800D02*
X50292000Y-87888999D01*
D41*
X55378800Y-84068000D02*
X55557000Y-84246200D01*
D42*
X55842000Y-90462000D02*
X50330000Y-90462000D01*
X55626000Y-84099200D02*
X55626000Y-87793999D01*
X55557000Y-84246200D02*
X55626000Y-84315200D01*
D40*
X58853800Y-88364000D02*
X58928000Y-88289800D01*
D42*
X47853800Y-88239800D02*
X47650200Y-88239800D01*
X49816999Y-88364000D02*
X49154500Y-88364000D01*
X49154500Y-88364000D02*
X47978000Y-88364000D01*
X56763500Y-88364000D02*
X56763500Y-89540500D01*
X47650200Y-88239800D02*
X46888400Y-88239800D01*
D40*
%TO.N,/BTN*%
X49911000Y-63627000D02*
X50368219Y-64084219D01*
X48937000Y-63627000D02*
X49911000Y-63627000D01*
X51883065Y-65091065D02*
X56388000Y-69596000D01*
X56388000Y-76200000D02*
X52578000Y-80010000D01*
X56388000Y-69596000D02*
X56388000Y-76200000D01*
X52578000Y-80010000D02*
X50546000Y-80010000D01*
%TO.N,/LED_PWR*%
X61976000Y-32883500D02*
X62229423Y-32630077D01*
D43*
%TO.N,+3V3*%
X59309000Y-66929000D02*
X59944000Y-66294000D01*
X59309000Y-71882000D02*
X59309000Y-66929000D01*
X59944000Y-66294000D02*
X59944000Y-65024000D01*
%TO.N,+BATT*%
X43441023Y-81287023D02*
X45403000Y-83249000D01*
X45403000Y-83249000D02*
X46888400Y-83249000D01*
X43441023Y-73841246D02*
X43441023Y-81287023D01*
X46599840Y-67834240D02*
X46599840Y-70682429D01*
X46228000Y-53340000D02*
X46228000Y-67462400D01*
X46228000Y-67462400D02*
X46599840Y-67834240D01*
X49393794Y-50174206D02*
X46228000Y-53340000D01*
X49395207Y-50174206D02*
X49393794Y-50174206D01*
X51774896Y-43281600D02*
X49923000Y-45133496D01*
X54000400Y-43281600D02*
X51774896Y-43281600D01*
X49923000Y-45133496D02*
X49923000Y-49646413D01*
X54660800Y-42621200D02*
X54000400Y-43281600D01*
X49923000Y-49646413D02*
X49395207Y-50174206D01*
X54660800Y-39702500D02*
X54660800Y-36786000D01*
X54660800Y-39702500D02*
X54660800Y-42621200D01*
X54660800Y-36786000D02*
X55378800Y-36068000D01*
X46599840Y-70682429D02*
X43441023Y-73841246D01*
%TD*%
%TA.AperFunction,Conductor*%
%TO.N,GND*%
G36*
X61551641Y-31367907D02*
G01*
X61587605Y-31417407D01*
X61587605Y-31478593D01*
X61575766Y-31503000D01*
X61569686Y-31512098D01*
X61569685Y-31512100D01*
X61555500Y-31583416D01*
X61555500Y-32073577D01*
X61555502Y-32073589D01*
X61560644Y-32099444D01*
X61553451Y-32160205D01*
X61511917Y-32205134D01*
X61503535Y-32209319D01*
X61458135Y-32229365D01*
X61381866Y-32305634D01*
X61338298Y-32404306D01*
X61335500Y-32428424D01*
X61335500Y-33338567D01*
X61335501Y-33338569D01*
X61338298Y-33362695D01*
X61361546Y-33415345D01*
X61381866Y-33461366D01*
X61458134Y-33537634D01*
X61556804Y-33581201D01*
X61580929Y-33584000D01*
X62371070Y-33583999D01*
X62395196Y-33581201D01*
X62493866Y-33537634D01*
X62570134Y-33461366D01*
X62613701Y-33362696D01*
X62616500Y-33338571D01*
X62616499Y-32585645D01*
X62635406Y-32527455D01*
X62647035Y-32514136D01*
X62655657Y-32505880D01*
X62668511Y-32498460D01*
X62724460Y-32442511D01*
X62783237Y-32383733D01*
X62784036Y-32382969D01*
X62810668Y-32370120D01*
X62837013Y-32356698D01*
X62838126Y-32356874D01*
X62839143Y-32356384D01*
X62868232Y-32361642D01*
X62897445Y-32366269D01*
X62898243Y-32367067D01*
X62899353Y-32367268D01*
X62919790Y-32388614D01*
X62940710Y-32409534D01*
X62941008Y-32410775D01*
X62941666Y-32411463D01*
X62942311Y-32416206D01*
X62951500Y-32454479D01*
X62951500Y-91739015D01*
X62951319Y-91744993D01*
X62933637Y-92037304D01*
X62932196Y-92049171D01*
X62879948Y-92334278D01*
X62877087Y-92345886D01*
X62790855Y-92622615D01*
X62786616Y-92633793D01*
X62667652Y-92898119D01*
X62662096Y-92908704D01*
X62512147Y-93156751D01*
X62505356Y-93166590D01*
X62326600Y-93394755D01*
X62318673Y-93403704D01*
X62113704Y-93608673D01*
X62104755Y-93616600D01*
X61876590Y-93795356D01*
X61866751Y-93802147D01*
X61618704Y-93952096D01*
X61608119Y-93957652D01*
X61343793Y-94076616D01*
X61332615Y-94080855D01*
X61055886Y-94167087D01*
X61044278Y-94169948D01*
X60759171Y-94222196D01*
X60747304Y-94223637D01*
X60476120Y-94240041D01*
X60455008Y-94241318D01*
X60449032Y-94241499D01*
X45214985Y-94241499D01*
X45209008Y-94241318D01*
X45185564Y-94239899D01*
X44916695Y-94223636D01*
X44904828Y-94222195D01*
X44619722Y-94169947D01*
X44608114Y-94167086D01*
X44331384Y-94080854D01*
X44320206Y-94076615D01*
X44055881Y-93957651D01*
X44045296Y-93952095D01*
X43884943Y-93855159D01*
X43797246Y-93802144D01*
X43787414Y-93795357D01*
X43559245Y-93616599D01*
X43550296Y-93608672D01*
X43345327Y-93403703D01*
X43337400Y-93394754D01*
X43216520Y-93240462D01*
X43158639Y-93166582D01*
X43151854Y-93156751D01*
X43001904Y-92908703D01*
X42996348Y-92898118D01*
X42877384Y-92633793D01*
X42873148Y-92622623D01*
X42786912Y-92345882D01*
X42784052Y-92334277D01*
X42774419Y-92281710D01*
X42731803Y-92049164D01*
X42730363Y-92037303D01*
X42712681Y-91744963D01*
X42712500Y-91738986D01*
X42712500Y-90421293D01*
X43061983Y-90421293D01*
X43062481Y-90468880D01*
X43070445Y-90563716D01*
X43070447Y-90563728D01*
X43086316Y-90657561D01*
X43109987Y-90749754D01*
X43109990Y-90749763D01*
X43141284Y-90839628D01*
X43141284Y-90839629D01*
X43141287Y-90839637D01*
X43141288Y-90839638D01*
X43180000Y-90926586D01*
X43220614Y-91000463D01*
X43225848Y-91009982D01*
X43225853Y-91009991D01*
X43278522Y-91089266D01*
X43308081Y-91126559D01*
X43337641Y-91163854D01*
X43402794Y-91233235D01*
X43473524Y-91296921D01*
X43512476Y-91326487D01*
X43549336Y-91354466D01*
X43629684Y-91405457D01*
X43629691Y-91405460D01*
X43629695Y-91405463D01*
X43714041Y-91449558D01*
X43801781Y-91486440D01*
X43892300Y-91515852D01*
X43984962Y-91537585D01*
X44079118Y-91551489D01*
X44174107Y-91557465D01*
X44269262Y-91555472D01*
X44363918Y-91545523D01*
X44457409Y-91527689D01*
X44549080Y-91502094D01*
X44638287Y-91468918D01*
X44724406Y-91428394D01*
X44806831Y-91380805D01*
X44884985Y-91326487D01*
X44958320Y-91265819D01*
X45026322Y-91199227D01*
X45088512Y-91127179D01*
X45144456Y-91050179D01*
X45193760Y-90968768D01*
X45236079Y-90883517D01*
X45271116Y-90795024D01*
X45298625Y-90703910D01*
X45318413Y-90610813D01*
X45330342Y-90516386D01*
X45334328Y-90421293D01*
X45330342Y-90326200D01*
X45318413Y-90231773D01*
X45298625Y-90138676D01*
X45271116Y-90047562D01*
X45236079Y-89959069D01*
X45193760Y-89873818D01*
X45168799Y-89832603D01*
X45144465Y-89792422D01*
X45144456Y-89792407D01*
X45144451Y-89792400D01*
X45088511Y-89715405D01*
X45088505Y-89715398D01*
X45056855Y-89678732D01*
X45026322Y-89643359D01*
X44958320Y-89576767D01*
X44958318Y-89576765D01*
X44884993Y-89516105D01*
X44884988Y-89516101D01*
X44884985Y-89516099D01*
X44806831Y-89461781D01*
X44764132Y-89437128D01*
X44724408Y-89414193D01*
X44638288Y-89373668D01*
X44549087Y-89340494D01*
X44457413Y-89314898D01*
X44457411Y-89314897D01*
X44457409Y-89314897D01*
X44363918Y-89297063D01*
X44363916Y-89297062D01*
X44363913Y-89297062D01*
X44316431Y-89292071D01*
X44269262Y-89287114D01*
X44269256Y-89287113D01*
X44269248Y-89287113D01*
X44174117Y-89285120D01*
X44126612Y-89288109D01*
X44079118Y-89291097D01*
X44079113Y-89291097D01*
X44079108Y-89291098D01*
X43984955Y-89305002D01*
X43892314Y-89326730D01*
X43892306Y-89326732D01*
X43892300Y-89326734D01*
X43849958Y-89340492D01*
X43801786Y-89356144D01*
X43801783Y-89356145D01*
X43801781Y-89356146D01*
X43714041Y-89393028D01*
X43714034Y-89393031D01*
X43714033Y-89393032D01*
X43629690Y-89437125D01*
X43629684Y-89437128D01*
X43549336Y-89488119D01*
X43473515Y-89545672D01*
X43402805Y-89609340D01*
X43402791Y-89609353D01*
X43337641Y-89678732D01*
X43278522Y-89753319D01*
X43225853Y-89832594D01*
X43225848Y-89832603D01*
X43180003Y-89915993D01*
X43180000Y-89915999D01*
X43141284Y-90002956D01*
X43141284Y-90002957D01*
X43109990Y-90092822D01*
X43109987Y-90092831D01*
X43086316Y-90185024D01*
X43070447Y-90278857D01*
X43070445Y-90278869D01*
X43062481Y-90373705D01*
X43061983Y-90421293D01*
X42712500Y-90421293D01*
X42712500Y-81447086D01*
X42731407Y-81388895D01*
X42780907Y-81352931D01*
X42842093Y-81352931D01*
X42891593Y-81388895D01*
X42907127Y-81421464D01*
X42915922Y-81454289D01*
X42928038Y-81499506D01*
X42928039Y-81499508D01*
X43000513Y-81625038D01*
X45064985Y-83689510D01*
X45150205Y-83738711D01*
X45190515Y-83761984D01*
X45330525Y-83799500D01*
X46395350Y-83799500D01*
X46440294Y-83810289D01*
X46488096Y-83834646D01*
X46581881Y-83849500D01*
X47194918Y-83849499D01*
X47194920Y-83849499D01*
X47194921Y-83849498D01*
X47241811Y-83842072D01*
X47288699Y-83834647D01*
X47288699Y-83834646D01*
X47288704Y-83834646D01*
X47401742Y-83777050D01*
X47491450Y-83687342D01*
X47549046Y-83574304D01*
X47563900Y-83480519D01*
X47563899Y-83017482D01*
X47549046Y-82923696D01*
X47491450Y-82810658D01*
X47401742Y-82720950D01*
X47288704Y-82663354D01*
X47288705Y-82663354D01*
X47194922Y-82648500D01*
X46581879Y-82648500D01*
X46581876Y-82648501D01*
X46488099Y-82663352D01*
X46488098Y-82663352D01*
X46440294Y-82687710D01*
X46395350Y-82698500D01*
X45672033Y-82698500D01*
X45613842Y-82679593D01*
X45602029Y-82669504D01*
X44020519Y-81087994D01*
X43992742Y-81033477D01*
X43991523Y-81017990D01*
X43991523Y-74110279D01*
X44010430Y-74052088D01*
X44020519Y-74040275D01*
X45039496Y-73021298D01*
X45094013Y-72993521D01*
X45154445Y-73003092D01*
X45197710Y-73046357D01*
X45208500Y-73091302D01*
X45208500Y-74055872D01*
X45211385Y-74086634D01*
X45211387Y-74086643D01*
X45256737Y-74216246D01*
X45338271Y-74326721D01*
X45338278Y-74326728D01*
X45448751Y-74408261D01*
X45448753Y-74408261D01*
X45448755Y-74408263D01*
X45500272Y-74426289D01*
X45548951Y-74463354D01*
X45566548Y-74521954D01*
X45546340Y-74579706D01*
X45517075Y-74605468D01*
X45497989Y-74616487D01*
X45395487Y-74718989D01*
X45323017Y-74844510D01*
X45285500Y-74984525D01*
X45285500Y-75129473D01*
X45286347Y-75135909D01*
X45286187Y-75135930D01*
X45288036Y-75147884D01*
X45310394Y-75643034D01*
X45294131Y-75702019D01*
X45246304Y-75740179D01*
X45211495Y-75746500D01*
X45071740Y-75746500D01*
X45037673Y-75751463D01*
X45003604Y-75756427D01*
X44898518Y-75807801D01*
X44815801Y-75890518D01*
X44764427Y-75995604D01*
X44762834Y-76006537D01*
X44754500Y-76063740D01*
X44754500Y-76430260D01*
X44761118Y-76475682D01*
X44764427Y-76498395D01*
X44800230Y-76571630D01*
X44815802Y-76603483D01*
X44864317Y-76651998D01*
X44892093Y-76706513D01*
X44882522Y-76766945D01*
X44864318Y-76792000D01*
X44815802Y-76840517D01*
X44815801Y-76840518D01*
X44764427Y-76945604D01*
X44764427Y-76945607D01*
X44754500Y-77013740D01*
X44754500Y-77380260D01*
X44758537Y-77407966D01*
X44764427Y-77448395D01*
X44776945Y-77474000D01*
X44815802Y-77553483D01*
X44864317Y-77601998D01*
X44892093Y-77656513D01*
X44882522Y-77716945D01*
X44864318Y-77742000D01*
X44829226Y-77777093D01*
X44815801Y-77790518D01*
X44764427Y-77895604D01*
X44764427Y-77895607D01*
X44754500Y-77963740D01*
X44754500Y-78330260D01*
X44757833Y-78353134D01*
X44764427Y-78398395D01*
X44789167Y-78449000D01*
X44815802Y-78503483D01*
X44898517Y-78586198D01*
X44921640Y-78597502D01*
X45003604Y-78637572D01*
X45003605Y-78637572D01*
X45003607Y-78637573D01*
X45071740Y-78647500D01*
X45071743Y-78647500D01*
X46163257Y-78647500D01*
X46163260Y-78647500D01*
X46231393Y-78637573D01*
X46336483Y-78586198D01*
X46419198Y-78503483D01*
X46470573Y-78398393D01*
X46470776Y-78397000D01*
X46990852Y-78397000D01*
X46994835Y-78422147D01*
X46994836Y-78422151D01*
X47052358Y-78535043D01*
X47141956Y-78624641D01*
X47254848Y-78682163D01*
X47254852Y-78682164D01*
X47348515Y-78696999D01*
X47642498Y-78696999D01*
X47642500Y-78696998D01*
X47642500Y-78397001D01*
X48142500Y-78397001D01*
X48142500Y-78696998D01*
X48142501Y-78696999D01*
X48436483Y-78696999D01*
X48436485Y-78696998D01*
X48530141Y-78682166D01*
X48530151Y-78682163D01*
X48643043Y-78624641D01*
X48732641Y-78535043D01*
X48790163Y-78422151D01*
X48790164Y-78422147D01*
X48794148Y-78397000D01*
X48142501Y-78397000D01*
X48142500Y-78397001D01*
X47642500Y-78397001D01*
X47642499Y-78397000D01*
X46990852Y-78397000D01*
X46470776Y-78397000D01*
X46480500Y-78330260D01*
X46480500Y-77963740D01*
X46470573Y-77895607D01*
X46419198Y-77790517D01*
X46419196Y-77790515D01*
X46418935Y-77789981D01*
X46410364Y-77729399D01*
X46439039Y-77675349D01*
X46494007Y-77648476D01*
X46507876Y-77647500D01*
X46947595Y-77647500D01*
X47005786Y-77666407D01*
X47041750Y-77715907D01*
X47041750Y-77777093D01*
X47035804Y-77791445D01*
X46994837Y-77871845D01*
X46994835Y-77871852D01*
X46990852Y-77897000D01*
X48794148Y-77897000D01*
X48790164Y-77871852D01*
X48790163Y-77871848D01*
X48732641Y-77758956D01*
X48680686Y-77707001D01*
X48652909Y-77652484D01*
X48662480Y-77592052D01*
X48680685Y-77566995D01*
X48694198Y-77553483D01*
X48745573Y-77448393D01*
X48755500Y-77380260D01*
X48755500Y-77013740D01*
X48745573Y-76945607D01*
X48745358Y-76945168D01*
X48694198Y-76840518D01*
X48694198Y-76840517D01*
X48645682Y-76792001D01*
X48639766Y-76780389D01*
X48630062Y-76771691D01*
X48626216Y-76753796D01*
X48617907Y-76737487D01*
X48619945Y-76724612D01*
X48617208Y-76711871D01*
X48624338Y-76696878D01*
X48627478Y-76677055D01*
X48641969Y-76655920D01*
X48643768Y-76653912D01*
X48694198Y-76603483D01*
X48700466Y-76590660D01*
X48709646Y-76580420D01*
X48724791Y-76571630D01*
X48736965Y-76559047D01*
X48753615Y-76554903D01*
X48762566Y-76549709D01*
X48771001Y-76550576D01*
X48783365Y-76547500D01*
X48903521Y-76547500D01*
X48961712Y-76566407D01*
X48973525Y-76576496D01*
X49342197Y-76945168D01*
X49369974Y-76999685D01*
X49360403Y-77060117D01*
X49317139Y-77103381D01*
X49282659Y-77120949D01*
X49192949Y-77210659D01*
X49135354Y-77323695D01*
X49120500Y-77417477D01*
X49120500Y-78030520D01*
X49120501Y-78030523D01*
X49135352Y-78124299D01*
X49135354Y-78124304D01*
X49192950Y-78237342D01*
X49282658Y-78327050D01*
X49395696Y-78384646D01*
X49489481Y-78399500D01*
X49952518Y-78399499D01*
X49952520Y-78399499D01*
X49952521Y-78399498D01*
X49999411Y-78392072D01*
X50046299Y-78384647D01*
X50046299Y-78384646D01*
X50046304Y-78384646D01*
X50159342Y-78327050D01*
X50249050Y-78237342D01*
X50306646Y-78124304D01*
X50317926Y-78053081D01*
X50321500Y-78030521D01*
X50321500Y-77974001D01*
X50721001Y-77974001D01*
X50721001Y-78053203D01*
X50723850Y-78083600D01*
X50723850Y-78083602D01*
X50768654Y-78211647D01*
X50849207Y-78320790D01*
X50849209Y-78320792D01*
X50958352Y-78401345D01*
X51086395Y-78446148D01*
X51116807Y-78449000D01*
X51120999Y-78448999D01*
X51121000Y-78448999D01*
X51121000Y-77974001D01*
X51621000Y-77974001D01*
X51621000Y-78448998D01*
X51621001Y-78448999D01*
X51625203Y-78448999D01*
X51655600Y-78446149D01*
X51655602Y-78446149D01*
X51783647Y-78401345D01*
X51892790Y-78320792D01*
X51892792Y-78320790D01*
X51973345Y-78211647D01*
X52018149Y-78083601D01*
X52020999Y-78053211D01*
X52021000Y-78053210D01*
X52021000Y-77974001D01*
X52020999Y-77974000D01*
X51621001Y-77974000D01*
X51621000Y-77974001D01*
X51121000Y-77974001D01*
X51120999Y-77974000D01*
X50721002Y-77974000D01*
X50721001Y-77974001D01*
X50321500Y-77974001D01*
X50321500Y-77932993D01*
X50321499Y-77417482D01*
X50319992Y-77407966D01*
X50319992Y-77407963D01*
X50317905Y-77394788D01*
X50721000Y-77394788D01*
X50721000Y-77473999D01*
X50721001Y-77474000D01*
X51120999Y-77474000D01*
X51121000Y-77473999D01*
X51121000Y-76999001D01*
X51621000Y-76999001D01*
X51621000Y-77473999D01*
X51621001Y-77474000D01*
X52020998Y-77474000D01*
X52020999Y-77473999D01*
X52020999Y-77394796D01*
X52018149Y-77364399D01*
X52018149Y-77364397D01*
X51973345Y-77236352D01*
X51892792Y-77127209D01*
X51892790Y-77127207D01*
X51783647Y-77046654D01*
X51655601Y-77001850D01*
X51625211Y-76999000D01*
X51621001Y-76999000D01*
X51621000Y-76999001D01*
X51121000Y-76999001D01*
X51121000Y-76999000D01*
X51116806Y-76999001D01*
X51116784Y-76999002D01*
X51086399Y-77001850D01*
X51086397Y-77001850D01*
X50958352Y-77046654D01*
X50849209Y-77127207D01*
X50849207Y-77127209D01*
X50768654Y-77236352D01*
X50723850Y-77364398D01*
X50721000Y-77394788D01*
X50317905Y-77394788D01*
X50306647Y-77323699D01*
X50306646Y-77323697D01*
X50306646Y-77323696D01*
X50249050Y-77210658D01*
X50159342Y-77120950D01*
X50157079Y-77119797D01*
X50075554Y-77078257D01*
X50032290Y-77034992D01*
X50021500Y-76990048D01*
X50021500Y-76859437D01*
X50021499Y-76859435D01*
X50001021Y-76783011D01*
X50001019Y-76783007D01*
X49961460Y-76714489D01*
X49905511Y-76658539D01*
X49905511Y-76658540D01*
X49253511Y-76006540D01*
X49253508Y-76006538D01*
X49253507Y-76006537D01*
X49234576Y-75995608D01*
X49234576Y-75995607D01*
X49234572Y-75995606D01*
X49203136Y-75977456D01*
X49184988Y-75966978D01*
X49108564Y-75946500D01*
X49108562Y-75946500D01*
X48783365Y-75946500D01*
X48725174Y-75927593D01*
X48699389Y-75896891D01*
X48698965Y-75897194D01*
X48695115Y-75891802D01*
X48694423Y-75890978D01*
X48694198Y-75890518D01*
X48694198Y-75890517D01*
X48611483Y-75807802D01*
X48598500Y-75801455D01*
X48506395Y-75756427D01*
X48479139Y-75752456D01*
X48438260Y-75746500D01*
X47915340Y-75746500D01*
X47857149Y-75727593D01*
X47821185Y-75678093D01*
X47821185Y-75616907D01*
X47857149Y-75567407D01*
X47865840Y-75561764D01*
X47977126Y-75497512D01*
X47977126Y-75497511D01*
X47977131Y-75497509D01*
X48079625Y-75395015D01*
X48113928Y-75335600D01*
X48123850Y-75321422D01*
X48129391Y-75308817D01*
X48152100Y-75269485D01*
X48158600Y-75245224D01*
X48163594Y-75231016D01*
X48370707Y-74759913D01*
X48391334Y-74729752D01*
X48397260Y-74723827D01*
X48397261Y-74723824D01*
X48397264Y-74723821D01*
X48436820Y-74655308D01*
X48436820Y-74655306D01*
X48436822Y-74655304D01*
X48457300Y-74578878D01*
X48457300Y-74499754D01*
X48457300Y-72505860D01*
X50499500Y-72505860D01*
X50499500Y-72782139D01*
X50530429Y-73056630D01*
X50591900Y-73325951D01*
X50683135Y-73586686D01*
X50683137Y-73586690D01*
X50683138Y-73586693D01*
X50802997Y-73835581D01*
X50906501Y-74000306D01*
X50949967Y-74069483D01*
X51067005Y-74216245D01*
X51122204Y-74285462D01*
X51317538Y-74480796D01*
X51533516Y-74653032D01*
X51767419Y-74800003D01*
X52016307Y-74919862D01*
X52277050Y-75011100D01*
X52546369Y-75072570D01*
X52820860Y-75103499D01*
X52820876Y-75103499D01*
X52820877Y-75103500D01*
X52820878Y-75103500D01*
X53097122Y-75103500D01*
X53097123Y-75103500D01*
X53097124Y-75103499D01*
X53097139Y-75103499D01*
X53337845Y-75076376D01*
X53371631Y-75072570D01*
X53640950Y-75011100D01*
X53901693Y-74919862D01*
X54150581Y-74800003D01*
X54384484Y-74653032D01*
X54600462Y-74480796D01*
X54795796Y-74285462D01*
X54968032Y-74069484D01*
X55115003Y-73835581D01*
X55234862Y-73586693D01*
X55326100Y-73325950D01*
X55387570Y-73056631D01*
X55391551Y-73021298D01*
X55418499Y-72782139D01*
X55418500Y-72782122D01*
X55418500Y-72505877D01*
X55418499Y-72505860D01*
X55387570Y-72231369D01*
X55377328Y-72186496D01*
X55326100Y-71962050D01*
X55234862Y-71701307D01*
X55115003Y-71452419D01*
X54968032Y-71218516D01*
X54850993Y-71071753D01*
X54795800Y-71002543D01*
X54795799Y-71002542D01*
X54795796Y-71002538D01*
X54600462Y-70807204D01*
X54579755Y-70790691D01*
X54384483Y-70634967D01*
X54315306Y-70591501D01*
X54150581Y-70487997D01*
X54141035Y-70483400D01*
X54079820Y-70453920D01*
X53901693Y-70368138D01*
X53901690Y-70368137D01*
X53901686Y-70368135D01*
X53640951Y-70276900D01*
X53371630Y-70215429D01*
X53097139Y-70184500D01*
X53097123Y-70184500D01*
X52820877Y-70184500D01*
X52820860Y-70184500D01*
X52546369Y-70215429D01*
X52277048Y-70276900D01*
X52016313Y-70368135D01*
X51767426Y-70487993D01*
X51767421Y-70487996D01*
X51533516Y-70634967D01*
X51317543Y-70807199D01*
X51122199Y-71002543D01*
X50949967Y-71218516D01*
X50802996Y-71452421D01*
X50802993Y-71452426D01*
X50683135Y-71701313D01*
X50591900Y-71962048D01*
X50530429Y-72231369D01*
X50499500Y-72505860D01*
X48457300Y-72505860D01*
X48457300Y-68050552D01*
X48476207Y-67992361D01*
X48486296Y-67980548D01*
X49834831Y-66632013D01*
X51205133Y-65261710D01*
X51259648Y-65233935D01*
X51320080Y-65243506D01*
X51363345Y-65286771D01*
X51367502Y-65297598D01*
X51367599Y-65297558D01*
X51370082Y-65303553D01*
X51442552Y-65429075D01*
X51442554Y-65429077D01*
X51442556Y-65429080D01*
X51545050Y-65531574D01*
X51604459Y-65565874D01*
X51618642Y-65575799D01*
X51631252Y-65581342D01*
X51635945Y-65584052D01*
X51670576Y-65604047D01*
X51670577Y-65604047D01*
X51670580Y-65604049D01*
X51694836Y-65610548D01*
X51709048Y-65615544D01*
X52180147Y-65822655D01*
X52210307Y-65843278D01*
X56058504Y-69691475D01*
X56086281Y-69745992D01*
X56087500Y-69761479D01*
X56087500Y-76034521D01*
X56068593Y-76092712D01*
X56058504Y-76104525D01*
X52482525Y-79680504D01*
X52428008Y-79708281D01*
X52412521Y-79709500D01*
X51370500Y-79709500D01*
X51312309Y-79690593D01*
X51276345Y-79641093D01*
X51271500Y-79610500D01*
X51271500Y-79069382D01*
X51271499Y-79069379D01*
X51268537Y-79043846D01*
X51268537Y-79043844D01*
X51222403Y-78939360D01*
X51141640Y-78858597D01*
X51037156Y-78812463D01*
X51037155Y-78812462D01*
X51037153Y-78812462D01*
X51011620Y-78809500D01*
X51011616Y-78809500D01*
X50080384Y-78809500D01*
X50080379Y-78809500D01*
X50054846Y-78812462D01*
X49950360Y-78858597D01*
X49869597Y-78939360D01*
X49823462Y-79043846D01*
X49820500Y-79069379D01*
X49820500Y-80950620D01*
X49823462Y-80976153D01*
X49823462Y-80976155D01*
X49823463Y-80976156D01*
X49869597Y-81080640D01*
X49950360Y-81161403D01*
X50054844Y-81207537D01*
X50054846Y-81207537D01*
X50061099Y-81210298D01*
X50106694Y-81251099D01*
X50119600Y-81310908D01*
X50094886Y-81366880D01*
X50046734Y-81396490D01*
X50046339Y-81396595D01*
X50046337Y-81396596D01*
X49957884Y-81420296D01*
X49831017Y-81454290D01*
X49625077Y-81539592D01*
X49625072Y-81539595D01*
X49432028Y-81651050D01*
X49255179Y-81786750D01*
X49097550Y-81944379D01*
X48961850Y-82121228D01*
X48850395Y-82314272D01*
X48850392Y-82314277D01*
X48765090Y-82520217D01*
X48707395Y-82735539D01*
X48707395Y-82735544D01*
X48678300Y-82956542D01*
X48678300Y-83179457D01*
X48707395Y-83400455D01*
X48707395Y-83400460D01*
X48765090Y-83615782D01*
X48850392Y-83821722D01*
X48850395Y-83821727D01*
X48961850Y-84014771D01*
X48961852Y-84014774D01*
X49097553Y-84191624D01*
X49255176Y-84349247D01*
X49432026Y-84484948D01*
X49432028Y-84484949D01*
X49625072Y-84596404D01*
X49625077Y-84596407D01*
X49780385Y-84660737D01*
X49826911Y-84700473D01*
X49841500Y-84752201D01*
X49841500Y-85869609D01*
X49822593Y-85927800D01*
X49773093Y-85963764D01*
X49728227Y-85967574D01*
X49700260Y-85963500D01*
X48608740Y-85963500D01*
X48580772Y-85967575D01*
X48540604Y-85973427D01*
X48435518Y-86024801D01*
X48352801Y-86107518D01*
X48301427Y-86212604D01*
X48291500Y-86280743D01*
X48291500Y-86531389D01*
X48272593Y-86589580D01*
X48223093Y-86625544D01*
X48161907Y-86625544D01*
X48122497Y-86601393D01*
X47850414Y-86329311D01*
X47850409Y-86329307D01*
X47747690Y-86270002D01*
X47747686Y-86270000D01*
X47723473Y-86263512D01*
X47723473Y-86263513D01*
X47633109Y-86239300D01*
X47633107Y-86239300D01*
X47555655Y-86239300D01*
X47549341Y-86237248D01*
X47542815Y-86238464D01*
X47522923Y-86228665D01*
X47497464Y-86220393D01*
X47487568Y-86212169D01*
X47486598Y-86211250D01*
X47391620Y-86116272D01*
X47380203Y-86110454D01*
X47369813Y-86100611D01*
X47361695Y-86085690D01*
X47349687Y-86073680D01*
X47345364Y-86055671D01*
X47340573Y-86046865D01*
X47341517Y-86039645D01*
X47338900Y-86028742D01*
X47338900Y-85519737D01*
X47357807Y-85461546D01*
X47392956Y-85431527D01*
X47401738Y-85427052D01*
X47401737Y-85427052D01*
X47401742Y-85427050D01*
X47491450Y-85337342D01*
X47549046Y-85224304D01*
X47563900Y-85130519D01*
X47563899Y-84667482D01*
X47552899Y-84598026D01*
X47549047Y-84573700D01*
X47549046Y-84573698D01*
X47549046Y-84573696D01*
X47491450Y-84460658D01*
X47401742Y-84370950D01*
X47288704Y-84313354D01*
X47288705Y-84313354D01*
X47194922Y-84298500D01*
X46581879Y-84298500D01*
X46581876Y-84298501D01*
X46488100Y-84313352D01*
X46488095Y-84313354D01*
X46375059Y-84370949D01*
X46285349Y-84460659D01*
X46227754Y-84573695D01*
X46212900Y-84667477D01*
X46212900Y-85130520D01*
X46212901Y-85130523D01*
X46227752Y-85224299D01*
X46227754Y-85224304D01*
X46285350Y-85337342D01*
X46375058Y-85427050D01*
X46375060Y-85427051D01*
X46375061Y-85427052D01*
X46383844Y-85431527D01*
X46427109Y-85474790D01*
X46437900Y-85519737D01*
X46437900Y-86028742D01*
X46418993Y-86086933D01*
X46390917Y-86110912D01*
X46391484Y-86111692D01*
X46385182Y-86116270D01*
X46289870Y-86211582D01*
X46228683Y-86331667D01*
X46228681Y-86331674D01*
X46212900Y-86431310D01*
X46212900Y-86948289D01*
X46228681Y-87047925D01*
X46228683Y-87047932D01*
X46289785Y-87167850D01*
X46289872Y-87168020D01*
X46385180Y-87263328D01*
X46385182Y-87263329D01*
X46505267Y-87324516D01*
X46505269Y-87324516D01*
X46505274Y-87324519D01*
X46580941Y-87336503D01*
X46604910Y-87340300D01*
X46604912Y-87340300D01*
X47171890Y-87340300D01*
X47193285Y-87336911D01*
X47271526Y-87324519D01*
X47391620Y-87263328D01*
X47391625Y-87263322D01*
X47391904Y-87263121D01*
X47392239Y-87263011D01*
X47398563Y-87259790D01*
X47399073Y-87260791D01*
X47450094Y-87244210D01*
X47508286Y-87263114D01*
X47520097Y-87273200D01*
X47867195Y-87620298D01*
X47894971Y-87674813D01*
X47885400Y-87735245D01*
X47842135Y-87778510D01*
X47797190Y-87789300D01*
X47555655Y-87789300D01*
X47497464Y-87770393D01*
X47485657Y-87760309D01*
X47391620Y-87666272D01*
X47391617Y-87666270D01*
X47271532Y-87605083D01*
X47271527Y-87605081D01*
X47271526Y-87605081D01*
X47222121Y-87597256D01*
X47171890Y-87589300D01*
X47171888Y-87589300D01*
X46604912Y-87589300D01*
X46604910Y-87589300D01*
X46505274Y-87605081D01*
X46505267Y-87605083D01*
X46385182Y-87666270D01*
X46289870Y-87761582D01*
X46228683Y-87881667D01*
X46228681Y-87881674D01*
X46212900Y-87981310D01*
X46212900Y-88498289D01*
X46228681Y-88597925D01*
X46228683Y-88597932D01*
X46288041Y-88714427D01*
X46289872Y-88718020D01*
X46385180Y-88813328D01*
X46385182Y-88813329D01*
X46505267Y-88874516D01*
X46505269Y-88874516D01*
X46505274Y-88874519D01*
X46580941Y-88886503D01*
X46604910Y-88890300D01*
X46604912Y-88890300D01*
X47171890Y-88890300D01*
X47193285Y-88886911D01*
X47271526Y-88874519D01*
X47391620Y-88813328D01*
X47485653Y-88719294D01*
X47492768Y-88715669D01*
X47497464Y-88709207D01*
X47519512Y-88702043D01*
X47540168Y-88691519D01*
X47555655Y-88690300D01*
X47590891Y-88690300D01*
X47626190Y-88690300D01*
X47684381Y-88709207D01*
X47696187Y-88719290D01*
X47701386Y-88724489D01*
X47760696Y-88758731D01*
X47804114Y-88783799D01*
X47918691Y-88814500D01*
X48435732Y-88814500D01*
X48463771Y-88818554D01*
X48471746Y-88820909D01*
X48540607Y-88854573D01*
X48608740Y-88864500D01*
X48619352Y-88864500D01*
X48633039Y-88868542D01*
X48649889Y-88880102D01*
X48668822Y-88887806D01*
X48674548Y-88897019D01*
X48683492Y-88903156D01*
X48690329Y-88922414D01*
X48701118Y-88939774D01*
X48703524Y-88959578D01*
X48703964Y-88960815D01*
X48703759Y-88961507D01*
X48704000Y-88963488D01*
X48704000Y-89345809D01*
X48728213Y-89436173D01*
X48728212Y-89436173D01*
X48734700Y-89460386D01*
X48734702Y-89460390D01*
X48794007Y-89563109D01*
X48794009Y-89563111D01*
X48794011Y-89563114D01*
X50053386Y-90822489D01*
X50053388Y-90822490D01*
X50053390Y-90822492D01*
X50156107Y-90881796D01*
X50156109Y-90881797D01*
X50156113Y-90881799D01*
X50180322Y-90888284D01*
X50180325Y-90888287D01*
X50180326Y-90888286D01*
X50270688Y-90912499D01*
X50270690Y-90912500D01*
X50270691Y-90912500D01*
X51108995Y-90912500D01*
X51167186Y-90931407D01*
X51203150Y-90980907D01*
X51207149Y-90998584D01*
X51207395Y-91000460D01*
X51265090Y-91215782D01*
X51350392Y-91421722D01*
X51350395Y-91421727D01*
X51428764Y-91557465D01*
X51461852Y-91614774D01*
X51597553Y-91791624D01*
X51755176Y-91949247D01*
X51932026Y-92084948D01*
X51932028Y-92084949D01*
X52125072Y-92196404D01*
X52125077Y-92196407D01*
X52269553Y-92256250D01*
X52331019Y-92281710D01*
X52546337Y-92339404D01*
X52767343Y-92368500D01*
X52767344Y-92368500D01*
X52990256Y-92368500D01*
X52990257Y-92368500D01*
X53211263Y-92339404D01*
X53426581Y-92281710D01*
X53556447Y-92227917D01*
X53632522Y-92196407D01*
X53632523Y-92196405D01*
X53632526Y-92196405D01*
X53825574Y-92084948D01*
X54002424Y-91949247D01*
X54160047Y-91791624D01*
X54295748Y-91614774D01*
X54407205Y-91421726D01*
X54413942Y-91405463D01*
X54471783Y-91265820D01*
X54492510Y-91215781D01*
X54550204Y-91000463D01*
X54550451Y-90998582D01*
X54550669Y-90998126D01*
X54550838Y-90997278D01*
X54551053Y-90997320D01*
X54576789Y-90943357D01*
X54630558Y-90914159D01*
X54648605Y-90912500D01*
X55901309Y-90912500D01*
X55991669Y-90888287D01*
X55991672Y-90888287D01*
X56004903Y-90884741D01*
X56015887Y-90881799D01*
X56118614Y-90822489D01*
X57123990Y-89817114D01*
X57183299Y-89714387D01*
X57191440Y-89684004D01*
X57214000Y-89599809D01*
X57214000Y-88963488D01*
X57232907Y-88905297D01*
X57282407Y-88869333D01*
X57305851Y-88864746D01*
X57309236Y-88864500D01*
X57309260Y-88864500D01*
X57377393Y-88854573D01*
X57482483Y-88803198D01*
X57565198Y-88720483D01*
X57565423Y-88720021D01*
X57565819Y-88719612D01*
X57569965Y-88713806D01*
X57570835Y-88714427D01*
X57607965Y-88676047D01*
X57654365Y-88664500D01*
X58231855Y-88664500D01*
X58290046Y-88683407D01*
X58320065Y-88718555D01*
X58323089Y-88724491D01*
X58324950Y-88728142D01*
X58414658Y-88817850D01*
X58527696Y-88875446D01*
X58621481Y-88890300D01*
X59234518Y-88890299D01*
X59234520Y-88890299D01*
X59234521Y-88890298D01*
X59298905Y-88880102D01*
X59328299Y-88875447D01*
X59328299Y-88875446D01*
X59328304Y-88875446D01*
X59441342Y-88817850D01*
X59531050Y-88728142D01*
X59588646Y-88615104D01*
X59603500Y-88521319D01*
X59603499Y-88058282D01*
X59599112Y-88030580D01*
X59588647Y-87964500D01*
X59588646Y-87964498D01*
X59588646Y-87964496D01*
X59531050Y-87851458D01*
X59441342Y-87761750D01*
X59328304Y-87704154D01*
X59328305Y-87704154D01*
X59234522Y-87689300D01*
X58621479Y-87689300D01*
X58621476Y-87689301D01*
X58527700Y-87704152D01*
X58527695Y-87704154D01*
X58414659Y-87761749D01*
X58324949Y-87851459D01*
X58267354Y-87964494D01*
X58264900Y-87979989D01*
X58237121Y-88034505D01*
X58182604Y-88062281D01*
X58167119Y-88063500D01*
X57654365Y-88063500D01*
X57596174Y-88044593D01*
X57580646Y-88030580D01*
X57571466Y-88020339D01*
X57565198Y-88007517D01*
X57514768Y-87957087D01*
X57512969Y-87955080D01*
X57501630Y-87929458D01*
X57488907Y-87904487D01*
X57489347Y-87901704D01*
X57488208Y-87899129D01*
X57494093Y-87871738D01*
X57498478Y-87844055D01*
X57500699Y-87840997D01*
X57501062Y-87839309D01*
X57503539Y-87837088D01*
X57516681Y-87818999D01*
X57565198Y-87770483D01*
X57616573Y-87665393D01*
X57626500Y-87597260D01*
X57626500Y-87230740D01*
X57616573Y-87162607D01*
X57565198Y-87057517D01*
X57551684Y-87044003D01*
X57523909Y-86989489D01*
X57533480Y-86929057D01*
X57551687Y-86903998D01*
X57603639Y-86852046D01*
X57603640Y-86852044D01*
X57661163Y-86739151D01*
X57661164Y-86739147D01*
X57665148Y-86714000D01*
X56862500Y-86714000D01*
X56804309Y-86695093D01*
X56768345Y-86645593D01*
X56763500Y-86615000D01*
X56763500Y-86464001D01*
X56763499Y-86464000D01*
X56612500Y-86464000D01*
X56554309Y-86445093D01*
X56518345Y-86395593D01*
X56513500Y-86365000D01*
X56513500Y-85914001D01*
X57013500Y-85914001D01*
X57013500Y-86213999D01*
X57013501Y-86214000D01*
X57665148Y-86214000D01*
X57661164Y-86188852D01*
X57661163Y-86188848D01*
X57603641Y-86075956D01*
X57514043Y-85986358D01*
X57401151Y-85928836D01*
X57401147Y-85928835D01*
X57307484Y-85914000D01*
X57013501Y-85914000D01*
X57013500Y-85914001D01*
X56513500Y-85914001D01*
X56513499Y-85914000D01*
X56219520Y-85914000D01*
X56190984Y-85918520D01*
X56130553Y-85908946D01*
X56087289Y-85865681D01*
X56076500Y-85820738D01*
X56076500Y-84685595D01*
X56095407Y-84627404D01*
X56129900Y-84598339D01*
X56129719Y-84598026D01*
X56131475Y-84597011D01*
X56131733Y-84596795D01*
X56132512Y-84596410D01*
X56132526Y-84596405D01*
X56325574Y-84484948D01*
X56502424Y-84349247D01*
X56660047Y-84191624D01*
X56795748Y-84014774D01*
X56907205Y-83821726D01*
X56916412Y-83799500D01*
X56941591Y-83738710D01*
X56992510Y-83615781D01*
X57050204Y-83400463D01*
X57079300Y-83179457D01*
X57079300Y-82956543D01*
X57050204Y-82735537D01*
X56992510Y-82520219D01*
X56976753Y-82482179D01*
X56907207Y-82314277D01*
X56907204Y-82314272D01*
X56795749Y-82121228D01*
X56795748Y-82121226D01*
X56660047Y-81944376D01*
X56502424Y-81786753D01*
X56325574Y-81651052D01*
X56280517Y-81625038D01*
X56132527Y-81539595D01*
X56132522Y-81539592D01*
X55926582Y-81454290D01*
X55804072Y-81421464D01*
X55711263Y-81396596D01*
X55711260Y-81396595D01*
X55711258Y-81396595D01*
X55644864Y-81387854D01*
X55589639Y-81361513D01*
X55560445Y-81307742D01*
X55568431Y-81247080D01*
X55610549Y-81202698D01*
X55614310Y-81200759D01*
X55620131Y-81197913D01*
X55620132Y-81197913D01*
X55703912Y-81114132D01*
X55755946Y-81007694D01*
X55766000Y-80938690D01*
X55766000Y-80260001D01*
X55765999Y-80260000D01*
X54216001Y-80260000D01*
X54216000Y-80260001D01*
X54216000Y-80938690D01*
X54226053Y-81007694D01*
X54278087Y-81114132D01*
X54361867Y-81197912D01*
X54468305Y-81249946D01*
X54537309Y-81260000D01*
X54804140Y-81260000D01*
X54862331Y-81278907D01*
X54898295Y-81328407D01*
X54898295Y-81389593D01*
X54862331Y-81439093D01*
X54833893Y-81452655D01*
X54834094Y-81453246D01*
X54831020Y-81454289D01*
X54625077Y-81539592D01*
X54625072Y-81539595D01*
X54432028Y-81651050D01*
X54255179Y-81786750D01*
X54097550Y-81944379D01*
X53961850Y-82121228D01*
X53850395Y-82314272D01*
X53850392Y-82314277D01*
X53765090Y-82520217D01*
X53707395Y-82735539D01*
X53707395Y-82735542D01*
X53705277Y-82751632D01*
X53678935Y-82806857D01*
X53625164Y-82836051D01*
X53564503Y-82828065D01*
X53527469Y-82797498D01*
X53475592Y-82727209D01*
X53475590Y-82727207D01*
X53366447Y-82646654D01*
X53238401Y-82601850D01*
X53208011Y-82599000D01*
X53128801Y-82599000D01*
X53128800Y-82599001D01*
X53128800Y-83898998D01*
X53128801Y-83898999D01*
X53208003Y-83898999D01*
X53238400Y-83896149D01*
X53238402Y-83896149D01*
X53366447Y-83851345D01*
X53475590Y-83770792D01*
X53475592Y-83770790D01*
X53556144Y-83661647D01*
X53575433Y-83606523D01*
X53612498Y-83557842D01*
X53671098Y-83540245D01*
X53728850Y-83560452D01*
X53763695Y-83610747D01*
X53764504Y-83613595D01*
X53765088Y-83615777D01*
X53765089Y-83615779D01*
X53850392Y-83821722D01*
X53850395Y-83821727D01*
X53961850Y-84014771D01*
X53961852Y-84014774D01*
X54097553Y-84191624D01*
X54255176Y-84349247D01*
X54432026Y-84484948D01*
X54432028Y-84484949D01*
X54625072Y-84596404D01*
X54625077Y-84596407D01*
X54792979Y-84665953D01*
X54831019Y-84681710D01*
X55046337Y-84739404D01*
X55089422Y-84745076D01*
X55144647Y-84771417D01*
X55173842Y-84825187D01*
X55175500Y-84843229D01*
X55175500Y-85869609D01*
X55156593Y-85927800D01*
X55107093Y-85963764D01*
X55062227Y-85967574D01*
X55034260Y-85963500D01*
X53942740Y-85963500D01*
X53914772Y-85967575D01*
X53874604Y-85973427D01*
X53769518Y-86024801D01*
X53686801Y-86107518D01*
X53686577Y-86107978D01*
X53686180Y-86108387D01*
X53682035Y-86114194D01*
X53681164Y-86113572D01*
X53669914Y-86125201D01*
X53655826Y-86144593D01*
X53649013Y-86146806D01*
X53644035Y-86151953D01*
X53597635Y-86163500D01*
X53483195Y-86163500D01*
X53425004Y-86144593D01*
X53389040Y-86095093D01*
X53389040Y-86033907D01*
X53391728Y-86026623D01*
X53391780Y-86026496D01*
X53391782Y-86026488D01*
X53391784Y-86026485D01*
X53429300Y-85886475D01*
X53429300Y-85741525D01*
X53411546Y-85675267D01*
X53408533Y-85658214D01*
X53403538Y-85645382D01*
X53402135Y-85640145D01*
X53402135Y-85640143D01*
X53391784Y-85601516D01*
X53391784Y-85601515D01*
X53379227Y-85579766D01*
X53372712Y-85566188D01*
X53362464Y-85539861D01*
X53358976Y-85478778D01*
X53387881Y-85433808D01*
X53386632Y-85432559D01*
X53392139Y-85427051D01*
X53392142Y-85427050D01*
X53481850Y-85337342D01*
X53539446Y-85224304D01*
X53554300Y-85130519D01*
X53554299Y-84667482D01*
X53543299Y-84598026D01*
X53539447Y-84573700D01*
X53539446Y-84573698D01*
X53539446Y-84573696D01*
X53481850Y-84460658D01*
X53392142Y-84370950D01*
X53279104Y-84313354D01*
X53279105Y-84313354D01*
X53185322Y-84298500D01*
X52572279Y-84298500D01*
X52572276Y-84298501D01*
X52478500Y-84313352D01*
X52478495Y-84313354D01*
X52365459Y-84370949D01*
X52275749Y-84460659D01*
X52218154Y-84573695D01*
X52203300Y-84667477D01*
X52203300Y-85130520D01*
X52203301Y-85130523D01*
X52218152Y-85224299D01*
X52218154Y-85224304D01*
X52275750Y-85337342D01*
X52365458Y-85427050D01*
X52365460Y-85427051D01*
X52370968Y-85432559D01*
X52369718Y-85433808D01*
X52380630Y-85450785D01*
X52397029Y-85473355D01*
X52397029Y-85476299D01*
X52398622Y-85478778D01*
X52397030Y-85506639D01*
X52397032Y-85534540D01*
X52395133Y-85539864D01*
X52384886Y-85566188D01*
X52378367Y-85579773D01*
X52365817Y-85601511D01*
X52365815Y-85601516D01*
X52355466Y-85640134D01*
X52354063Y-85645374D01*
X52349066Y-85658214D01*
X52343383Y-85674898D01*
X52342817Y-85676827D01*
X52341159Y-85682810D01*
X52340784Y-85694928D01*
X52337813Y-85706020D01*
X52337811Y-85706022D01*
X52328300Y-85741521D01*
X52328300Y-85886474D01*
X52349122Y-85964184D01*
X52345919Y-86025286D01*
X52307414Y-86072836D01*
X52248313Y-86088671D01*
X52191192Y-86066744D01*
X52183501Y-86059820D01*
X52148483Y-86024802D01*
X52116499Y-86009166D01*
X52043395Y-85973427D01*
X52016139Y-85969456D01*
X51975260Y-85963500D01*
X50883740Y-85963500D01*
X50855772Y-85967574D01*
X50795464Y-85957254D01*
X50752740Y-85913457D01*
X50742500Y-85869609D01*
X50742500Y-84806999D01*
X50761407Y-84748808D01*
X50810907Y-84712844D01*
X50815847Y-84711380D01*
X50926581Y-84681710D01*
X51057688Y-84627404D01*
X51132522Y-84596407D01*
X51132523Y-84596405D01*
X51132526Y-84596405D01*
X51325574Y-84484948D01*
X51502424Y-84349247D01*
X51660047Y-84191624D01*
X51795748Y-84014774D01*
X51907205Y-83821726D01*
X51992510Y-83615781D01*
X51993092Y-83613608D01*
X51993417Y-83613106D01*
X51993554Y-83612706D01*
X51993655Y-83612740D01*
X52026406Y-83562292D01*
X52083524Y-83540356D01*
X52142627Y-83556183D01*
X52181140Y-83603727D01*
X52182165Y-83606522D01*
X52201453Y-83661645D01*
X52282007Y-83770790D01*
X52282009Y-83770792D01*
X52391152Y-83851345D01*
X52519198Y-83896149D01*
X52549588Y-83898998D01*
X52628800Y-83898998D01*
X52628800Y-82598999D01*
X52549597Y-82599000D01*
X52519199Y-82601850D01*
X52519197Y-82601850D01*
X52391152Y-82646654D01*
X52282009Y-82727207D01*
X52282006Y-82727210D01*
X52230129Y-82797499D01*
X52180361Y-82833090D01*
X52119177Y-82832632D01*
X52069948Y-82796297D01*
X52052322Y-82751631D01*
X52050204Y-82735537D01*
X51992510Y-82520219D01*
X51976753Y-82482179D01*
X51907207Y-82314277D01*
X51907204Y-82314272D01*
X51795749Y-82121228D01*
X51795748Y-82121226D01*
X51660047Y-81944376D01*
X51502424Y-81786753D01*
X51325574Y-81651052D01*
X51280517Y-81625038D01*
X51132527Y-81539595D01*
X51132522Y-81539592D01*
X50926582Y-81454290D01*
X50869865Y-81439093D01*
X50743097Y-81405125D01*
X50691785Y-81371803D01*
X50669858Y-81314682D01*
X50685693Y-81255581D01*
X50733243Y-81217076D01*
X50768722Y-81210500D01*
X51011618Y-81210500D01*
X51011618Y-81210499D01*
X51037156Y-81207537D01*
X51141640Y-81161403D01*
X51222403Y-81080640D01*
X51268537Y-80976156D01*
X51271500Y-80950616D01*
X51271500Y-80409500D01*
X51290407Y-80351309D01*
X51339907Y-80315345D01*
X51370500Y-80310500D01*
X52617563Y-80310500D01*
X52617563Y-80310499D01*
X52693989Y-80290021D01*
X52762511Y-80250460D01*
X52818460Y-80194511D01*
X54053506Y-78959464D01*
X54108019Y-78931690D01*
X54168451Y-78941261D01*
X54211716Y-78984526D01*
X54221472Y-79043742D01*
X54216000Y-79081304D01*
X54216000Y-79759999D01*
X54216001Y-79760000D01*
X54740999Y-79760000D01*
X54741000Y-79759999D01*
X54741000Y-78760001D01*
X55241000Y-78760001D01*
X55241000Y-79759999D01*
X55241001Y-79760000D01*
X55765999Y-79760000D01*
X55766000Y-79759999D01*
X55766000Y-79081309D01*
X55755946Y-79012305D01*
X55703912Y-78905867D01*
X55620132Y-78822087D01*
X55513694Y-78770053D01*
X55444691Y-78760000D01*
X55241001Y-78760000D01*
X55241000Y-78760001D01*
X54741000Y-78760001D01*
X54740999Y-78760000D01*
X54537304Y-78760000D01*
X54499742Y-78765472D01*
X54439433Y-78755150D01*
X54396710Y-78711351D01*
X54387890Y-78650805D01*
X54415464Y-78597506D01*
X56628460Y-76384511D01*
X56668022Y-76315988D01*
X56688500Y-76239562D01*
X56688500Y-76160438D01*
X56688500Y-69556438D01*
X56668021Y-69480011D01*
X56628460Y-69411489D01*
X56611978Y-69395007D01*
X56572511Y-69355539D01*
X56572511Y-69355540D01*
X52635279Y-65418308D01*
X52614655Y-65388147D01*
X52614402Y-65387572D01*
X52470840Y-65061023D01*
X52464730Y-65000145D01*
X52495570Y-64947300D01*
X52551582Y-64922676D01*
X52607666Y-64933621D01*
X52904072Y-65090005D01*
X52927878Y-65107561D01*
X52966099Y-65145781D01*
X52997788Y-65177470D01*
X53077712Y-65223614D01*
X53166856Y-65247500D01*
X53175812Y-65247500D01*
X53234003Y-65266407D01*
X53245809Y-65276490D01*
X53305517Y-65336198D01*
X53359285Y-65362483D01*
X53410604Y-65387572D01*
X53410605Y-65387572D01*
X53410607Y-65387573D01*
X53478740Y-65397500D01*
X53478743Y-65397500D01*
X54895257Y-65397500D01*
X54895260Y-65397500D01*
X54963393Y-65387573D01*
X55068483Y-65336198D01*
X55128186Y-65276494D01*
X55182701Y-65248719D01*
X55198188Y-65247500D01*
X55874345Y-65247500D01*
X55932536Y-65266407D01*
X55968500Y-65315907D01*
X55972126Y-65331012D01*
X55982281Y-65395125D01*
X55982283Y-65395132D01*
X56013250Y-65455907D01*
X56043472Y-65515220D01*
X56138780Y-65610528D01*
X56138782Y-65610529D01*
X56258867Y-65671716D01*
X56258869Y-65671716D01*
X56258874Y-65671719D01*
X56334541Y-65683703D01*
X56358510Y-65687500D01*
X56358512Y-65687500D01*
X56925490Y-65687500D01*
X56946885Y-65684111D01*
X57025126Y-65671719D01*
X57145220Y-65610528D01*
X57240528Y-65515220D01*
X57270750Y-65455907D01*
X57278063Y-65441554D01*
X57321328Y-65398290D01*
X57366272Y-65387500D01*
X59294500Y-65387500D01*
X59352691Y-65406407D01*
X59388655Y-65455907D01*
X59393500Y-65486500D01*
X59393500Y-66024967D01*
X59374593Y-66083158D01*
X59364504Y-66094971D01*
X58868490Y-66590985D01*
X58826342Y-66663989D01*
X58812970Y-66687148D01*
X58796017Y-66716512D01*
X58758500Y-66856525D01*
X58758500Y-70732500D01*
X58739593Y-70790691D01*
X58690093Y-70826655D01*
X58659500Y-70831500D01*
X58309127Y-70831500D01*
X58278365Y-70834385D01*
X58278356Y-70834387D01*
X58148753Y-70879737D01*
X58038278Y-70961271D01*
X58038271Y-70961278D01*
X57956737Y-71071753D01*
X57911387Y-71201356D01*
X57911385Y-71201365D01*
X57908500Y-71232127D01*
X57908500Y-72531872D01*
X57911385Y-72562634D01*
X57911387Y-72562643D01*
X57956737Y-72692246D01*
X58038271Y-72802721D01*
X58038278Y-72802728D01*
X58148753Y-72884262D01*
X58148754Y-72884262D01*
X58148755Y-72884263D01*
X58278361Y-72929614D01*
X58309127Y-72932499D01*
X58309129Y-72932500D01*
X58309136Y-72932500D01*
X60308871Y-72932500D01*
X60308871Y-72932499D01*
X60339639Y-72929614D01*
X60469245Y-72884263D01*
X60579725Y-72802725D01*
X60661263Y-72692245D01*
X60706614Y-72562639D01*
X60709499Y-72531871D01*
X60709500Y-72531871D01*
X60709500Y-71232129D01*
X60709499Y-71232127D01*
X60706614Y-71201361D01*
X60661263Y-71071755D01*
X60623394Y-71020444D01*
X60579728Y-70961278D01*
X60579721Y-70961271D01*
X60469246Y-70879737D01*
X60339643Y-70834387D01*
X60339634Y-70834385D01*
X60308872Y-70831500D01*
X60308864Y-70831500D01*
X59958500Y-70831500D01*
X59900309Y-70812593D01*
X59864345Y-70763093D01*
X59859500Y-70732500D01*
X59859500Y-67198031D01*
X59878407Y-67139840D01*
X59888490Y-67128033D01*
X60384510Y-66632014D01*
X60456984Y-66506485D01*
X60459986Y-66495277D01*
X60459989Y-66495274D01*
X60459988Y-66495274D01*
X60494500Y-66366474D01*
X60494500Y-53775525D01*
X60471228Y-53688673D01*
X60456984Y-53635515D01*
X60447286Y-53618718D01*
X60440833Y-53607540D01*
X60384510Y-53509985D01*
X59266015Y-52391490D01*
X59140485Y-52319016D01*
X59140484Y-52319015D01*
X59140481Y-52319014D01*
X59083083Y-52303634D01*
X59083083Y-52303635D01*
X59000475Y-52281500D01*
X59000474Y-52281500D01*
X58468611Y-52281500D01*
X58426772Y-52272224D01*
X58352619Y-52237645D01*
X58321499Y-52233548D01*
X58305940Y-52231500D01*
X58305939Y-52231500D01*
X57687886Y-52231500D01*
X57629695Y-52212593D01*
X57593731Y-52163093D01*
X57588886Y-52132500D01*
X57588886Y-51688646D01*
X57607793Y-51630455D01*
X57617876Y-51618648D01*
X59796310Y-49440215D01*
X59868784Y-49314685D01*
X59868786Y-49314679D01*
X59871148Y-49305864D01*
X59871148Y-49305862D01*
X59903929Y-49183522D01*
X59906300Y-49174675D01*
X59906300Y-47404500D01*
X59925207Y-47346309D01*
X59974707Y-47310345D01*
X60005300Y-47305500D01*
X60308871Y-47305500D01*
X60308871Y-47305499D01*
X60339639Y-47302614D01*
X60469245Y-47257263D01*
X60579725Y-47175725D01*
X60661263Y-47065245D01*
X60706614Y-46935639D01*
X60709499Y-46904871D01*
X60709500Y-46904871D01*
X60709500Y-45605129D01*
X60709499Y-45605127D01*
X60709447Y-45604572D01*
X60706614Y-45574361D01*
X60661263Y-45444755D01*
X60661262Y-45444753D01*
X60579728Y-45334278D01*
X60579721Y-45334271D01*
X60469246Y-45252737D01*
X60339643Y-45207387D01*
X60339634Y-45207385D01*
X60308872Y-45204500D01*
X60308864Y-45204500D01*
X58309136Y-45204500D01*
X58309127Y-45204500D01*
X58278365Y-45207385D01*
X58278356Y-45207387D01*
X58148753Y-45252737D01*
X58038278Y-45334271D01*
X58038271Y-45334278D01*
X57956737Y-45444753D01*
X57911387Y-45574356D01*
X57911385Y-45574365D01*
X57908500Y-45605127D01*
X57908500Y-46904872D01*
X57911385Y-46935634D01*
X57911387Y-46935643D01*
X57956737Y-47065246D01*
X58038271Y-47175721D01*
X58038278Y-47175728D01*
X58148753Y-47257262D01*
X58148754Y-47257262D01*
X58148755Y-47257263D01*
X58278361Y-47302614D01*
X58309127Y-47305499D01*
X58309129Y-47305500D01*
X58309136Y-47305500D01*
X58706300Y-47305500D01*
X58764491Y-47324407D01*
X58800455Y-47373907D01*
X58805300Y-47404500D01*
X58805300Y-48833167D01*
X58786393Y-48891358D01*
X58776304Y-48903171D01*
X56597876Y-51081599D01*
X56526799Y-51204709D01*
X56526797Y-51204713D01*
X56525402Y-51207128D01*
X56525401Y-51207131D01*
X56487886Y-51347139D01*
X56487886Y-52132500D01*
X56468979Y-52190691D01*
X56419479Y-52226655D01*
X56388886Y-52231500D01*
X55770832Y-52231500D01*
X55755273Y-52233548D01*
X55724153Y-52237645D01*
X55724152Y-52237645D01*
X55650000Y-52272224D01*
X55608161Y-52281500D01*
X54781500Y-52281500D01*
X54723309Y-52262593D01*
X54687345Y-52213093D01*
X54682500Y-52182500D01*
X54682500Y-52056437D01*
X54682499Y-52056435D01*
X54679310Y-52044535D01*
X54662021Y-51980011D01*
X54622460Y-51911489D01*
X54604116Y-51893145D01*
X54566511Y-51855539D01*
X54566511Y-51855540D01*
X53635658Y-50924687D01*
X53631466Y-50922267D01*
X53604382Y-50906629D01*
X53604382Y-50906630D01*
X53567136Y-50885126D01*
X53567135Y-50885125D01*
X53567134Y-50885125D01*
X53490711Y-50864647D01*
X53490709Y-50864647D01*
X49720884Y-50864647D01*
X49698835Y-50857483D01*
X49675940Y-50853857D01*
X49670291Y-50848208D01*
X49662693Y-50845740D01*
X49649064Y-50826982D01*
X49632675Y-50810593D01*
X49631425Y-50802704D01*
X49626729Y-50796240D01*
X49626729Y-50773053D01*
X49623103Y-50750161D01*
X49626729Y-50743044D01*
X49626729Y-50735054D01*
X49650880Y-50695644D01*
X49722566Y-50623957D01*
X49732311Y-50615414D01*
X49733213Y-50614720D01*
X49733222Y-50614716D01*
X50363510Y-49984428D01*
X50435984Y-49858898D01*
X50458811Y-49773706D01*
X50473500Y-49718888D01*
X50473500Y-47943254D01*
X50492407Y-47885063D01*
X50541907Y-47849099D01*
X50603093Y-47849099D01*
X50652593Y-47885063D01*
X50665943Y-47910554D01*
X50676209Y-47939892D01*
X50683135Y-47959686D01*
X50683138Y-47959693D01*
X50802997Y-48208581D01*
X50906501Y-48373306D01*
X50949967Y-48442483D01*
X51067005Y-48589245D01*
X51122204Y-48658462D01*
X51317538Y-48853796D01*
X51533516Y-49026032D01*
X51767419Y-49173003D01*
X52016307Y-49292862D01*
X52277050Y-49384100D01*
X52522903Y-49440214D01*
X52546369Y-49445570D01*
X52820860Y-49476499D01*
X52820876Y-49476499D01*
X52820877Y-49476500D01*
X52820878Y-49476500D01*
X53097122Y-49476500D01*
X53097123Y-49476500D01*
X53097124Y-49476499D01*
X53097139Y-49476499D01*
X53337845Y-49449376D01*
X53371631Y-49445570D01*
X53640950Y-49384100D01*
X53901693Y-49292862D01*
X54150581Y-49173003D01*
X54384484Y-49026032D01*
X54600462Y-48853796D01*
X54795796Y-48658462D01*
X54968032Y-48442484D01*
X55115003Y-48208581D01*
X55234862Y-47959693D01*
X55326100Y-47698950D01*
X55387570Y-47429631D01*
X55399426Y-47324407D01*
X55418499Y-47155139D01*
X55418500Y-47155122D01*
X55418500Y-46878877D01*
X55418499Y-46878860D01*
X55387570Y-46604369D01*
X55326100Y-46335050D01*
X55234862Y-46074307D01*
X55115003Y-45825419D01*
X54968032Y-45591516D01*
X54795796Y-45375538D01*
X54600462Y-45180204D01*
X54384484Y-45007968D01*
X54384485Y-45007968D01*
X54384483Y-45007967D01*
X54315306Y-44964501D01*
X54150581Y-44860997D01*
X53901693Y-44741138D01*
X53901690Y-44741137D01*
X53901686Y-44741135D01*
X53640951Y-44649900D01*
X53371630Y-44588429D01*
X53097139Y-44557500D01*
X53097123Y-44557500D01*
X52820877Y-44557500D01*
X52820860Y-44557500D01*
X52546369Y-44588429D01*
X52277048Y-44649900D01*
X52016313Y-44741135D01*
X51767426Y-44860993D01*
X51767421Y-44860996D01*
X51533516Y-45007967D01*
X51317543Y-45180199D01*
X51122199Y-45375543D01*
X50949967Y-45591516D01*
X50802996Y-45825421D01*
X50802993Y-45825426D01*
X50683135Y-46074313D01*
X50665944Y-46123443D01*
X50628879Y-46172123D01*
X50570278Y-46189720D01*
X50512527Y-46169512D01*
X50477683Y-46119217D01*
X50473500Y-46090745D01*
X50473500Y-45402529D01*
X50492407Y-45344338D01*
X50502496Y-45332525D01*
X51973925Y-43861096D01*
X52028442Y-43833319D01*
X52043929Y-43832100D01*
X54072874Y-43832100D01*
X54072875Y-43832100D01*
X54212885Y-43794584D01*
X54244656Y-43776241D01*
X54338415Y-43722110D01*
X55101310Y-42959214D01*
X55173784Y-42833685D01*
X55197942Y-42743526D01*
X55211300Y-42693675D01*
X55211300Y-40843763D01*
X55230207Y-40785572D01*
X55279707Y-40749608D01*
X55340893Y-40749608D01*
X55353783Y-40754824D01*
X55359403Y-40757572D01*
X55359405Y-40757572D01*
X55359407Y-40757573D01*
X55427540Y-40767500D01*
X55427543Y-40767500D01*
X55794057Y-40767500D01*
X55794060Y-40767500D01*
X55862193Y-40757573D01*
X55967283Y-40706198D01*
X56049998Y-40623483D01*
X56101373Y-40518393D01*
X56111300Y-40450260D01*
X56111300Y-40229000D01*
X56130207Y-40170809D01*
X56179707Y-40134845D01*
X56210300Y-40130000D01*
X56529621Y-40130000D01*
X56587812Y-40148907D01*
X56599625Y-40158996D01*
X61392504Y-44951875D01*
X61420281Y-45006392D01*
X61421500Y-45021879D01*
X61421500Y-84416520D01*
X61402593Y-84474711D01*
X61392504Y-84486524D01*
X59674313Y-86204714D01*
X59619796Y-86232491D01*
X59559364Y-86222920D01*
X59534305Y-86204714D01*
X59531051Y-86201460D01*
X59531050Y-86201458D01*
X59441342Y-86111750D01*
X59328304Y-86054154D01*
X59328305Y-86054154D01*
X59234522Y-86039300D01*
X58621479Y-86039300D01*
X58621476Y-86039301D01*
X58527700Y-86054152D01*
X58527695Y-86054154D01*
X58414659Y-86111749D01*
X58324949Y-86201459D01*
X58267354Y-86314495D01*
X58252500Y-86408277D01*
X58252500Y-86871320D01*
X58252501Y-86871323D01*
X58267352Y-86965099D01*
X58267354Y-86965104D01*
X58324950Y-87078142D01*
X58414658Y-87167850D01*
X58527696Y-87225446D01*
X58621481Y-87240300D01*
X59234518Y-87240299D01*
X59234520Y-87240299D01*
X59234521Y-87240298D01*
X59281411Y-87232872D01*
X59328299Y-87225447D01*
X59328299Y-87225446D01*
X59328304Y-87225446D01*
X59441342Y-87167850D01*
X59531050Y-87078142D01*
X59573742Y-86994353D01*
X59617006Y-86951090D01*
X59661951Y-86940300D01*
X59703763Y-86940300D01*
X59703763Y-86940299D01*
X59780189Y-86919821D01*
X59848711Y-86880260D01*
X59904660Y-86824311D01*
X61962460Y-84766511D01*
X61974836Y-84745076D01*
X62002020Y-84697992D01*
X62002020Y-84697990D01*
X62002022Y-84697988D01*
X62022500Y-84621562D01*
X62022500Y-84542438D01*
X62022500Y-44816838D01*
X62002021Y-44740411D01*
X61987420Y-44715122D01*
X61962460Y-44671889D01*
X61906511Y-44615939D01*
X61906511Y-44615940D01*
X56879611Y-39589040D01*
X56874332Y-39585992D01*
X56811092Y-39549480D01*
X56811088Y-39549478D01*
X56734664Y-39529000D01*
X56734662Y-39529000D01*
X56210300Y-39529000D01*
X56152109Y-39510093D01*
X56116145Y-39460593D01*
X56111300Y-39430000D01*
X56111300Y-39208743D01*
X56104927Y-39165000D01*
X56101373Y-39140607D01*
X56049998Y-39035517D01*
X55967283Y-38952802D01*
X55862193Y-38901427D01*
X55862191Y-38901426D01*
X55862194Y-38901426D01*
X55848093Y-38899372D01*
X55793237Y-38872272D01*
X55764787Y-38818103D01*
X55773610Y-38757557D01*
X55816336Y-38713760D01*
X55836740Y-38705782D01*
X55926581Y-38681710D01*
X56039212Y-38635056D01*
X56132522Y-38596407D01*
X56132523Y-38596405D01*
X56132526Y-38596405D01*
X56325574Y-38484948D01*
X56502424Y-38349247D01*
X56660047Y-38191624D01*
X56795748Y-38014774D01*
X56907205Y-37821726D01*
X56992510Y-37615781D01*
X57050204Y-37400463D01*
X57079300Y-37179457D01*
X57079300Y-36956543D01*
X57050204Y-36735537D01*
X56992510Y-36520219D01*
X56976753Y-36482179D01*
X56907207Y-36314277D01*
X56907204Y-36314272D01*
X56795749Y-36121228D01*
X56795748Y-36121226D01*
X56660047Y-35944376D01*
X56502424Y-35786753D01*
X56325574Y-35651052D01*
X56325571Y-35651050D01*
X56132527Y-35539595D01*
X56070614Y-35513950D01*
X56050170Y-35496488D01*
X56028407Y-35480677D01*
X56027158Y-35476834D01*
X56024089Y-35474213D01*
X56009500Y-35422486D01*
X56009500Y-35418900D01*
X56028407Y-35360709D01*
X56077907Y-35324745D01*
X56108500Y-35319900D01*
X56212057Y-35319900D01*
X56212060Y-35319900D01*
X56280193Y-35309973D01*
X56341588Y-35279959D01*
X56385068Y-35269900D01*
X56781509Y-35269900D01*
X56871869Y-35245687D01*
X56871872Y-35245687D01*
X56885103Y-35242141D01*
X56896087Y-35239199D01*
X56998814Y-35179889D01*
X57070616Y-35108085D01*
X57114995Y-35082462D01*
X57210085Y-35056984D01*
X57295337Y-35007763D01*
X57344836Y-34994500D01*
X57346727Y-34994500D01*
X57404918Y-35013407D01*
X57434936Y-35048554D01*
X57452213Y-35082462D01*
X57477872Y-35132820D01*
X57573180Y-35228128D01*
X57573182Y-35228129D01*
X57693267Y-35289316D01*
X57693269Y-35289316D01*
X57693274Y-35289319D01*
X57765668Y-35300785D01*
X57792910Y-35305100D01*
X57792912Y-35305100D01*
X58309890Y-35305100D01*
X58331285Y-35301711D01*
X58409526Y-35289319D01*
X58529620Y-35228128D01*
X58624928Y-35132820D01*
X58686119Y-35012726D01*
X58701900Y-34913088D01*
X58701900Y-34879601D01*
X58901401Y-34879601D01*
X58901401Y-34925036D01*
X58907481Y-34981604D01*
X58907482Y-34981606D01*
X58955214Y-35109583D01*
X59037068Y-35218927D01*
X59037072Y-35218931D01*
X59146416Y-35300785D01*
X59274390Y-35348516D01*
X59274398Y-35348518D01*
X59330966Y-35354599D01*
X59351400Y-35354598D01*
X59351400Y-34879601D01*
X59851400Y-34879601D01*
X59851400Y-35354598D01*
X59851401Y-35354599D01*
X59871831Y-35354599D01*
X59871836Y-35354598D01*
X59928404Y-35348518D01*
X59928406Y-35348517D01*
X60056383Y-35300785D01*
X60165727Y-35218931D01*
X60165731Y-35218927D01*
X60247585Y-35109583D01*
X60295316Y-34981609D01*
X60295318Y-34981601D01*
X60301400Y-34925034D01*
X60301400Y-34879601D01*
X60301399Y-34879600D01*
X59851401Y-34879600D01*
X59851400Y-34879601D01*
X59351400Y-34879601D01*
X59351399Y-34879600D01*
X58901402Y-34879600D01*
X58901401Y-34879601D01*
X58701900Y-34879601D01*
X58701900Y-34346112D01*
X58700008Y-34334169D01*
X58700007Y-34334165D01*
X58901400Y-34334165D01*
X58901400Y-34379599D01*
X58901401Y-34379600D01*
X59351399Y-34379600D01*
X59351400Y-34379599D01*
X59351400Y-33904601D01*
X59851400Y-33904601D01*
X59851400Y-34379599D01*
X59851401Y-34379600D01*
X60301398Y-34379600D01*
X60301399Y-34379599D01*
X60301399Y-34334169D01*
X60301398Y-34334163D01*
X60295318Y-34277595D01*
X60295317Y-34277593D01*
X60247585Y-34149616D01*
X60165731Y-34040272D01*
X60165727Y-34040268D01*
X60056383Y-33958414D01*
X59928409Y-33910683D01*
X59928401Y-33910681D01*
X59871834Y-33904600D01*
X59851401Y-33904600D01*
X59851400Y-33904601D01*
X59351400Y-33904601D01*
X59351400Y-33904599D01*
X59330971Y-33904600D01*
X59330962Y-33904601D01*
X59274394Y-33910681D01*
X59274393Y-33910682D01*
X59146416Y-33958414D01*
X59037072Y-34040268D01*
X59037068Y-34040272D01*
X58955214Y-34149616D01*
X58907483Y-34277590D01*
X58907481Y-34277598D01*
X58901400Y-34334165D01*
X58700007Y-34334165D01*
X58696816Y-34314016D01*
X58686119Y-34246474D01*
X58686116Y-34246469D01*
X58686116Y-34246467D01*
X58624929Y-34126382D01*
X58624928Y-34126380D01*
X58529620Y-34031072D01*
X58529617Y-34031070D01*
X58409532Y-33969883D01*
X58409527Y-33969881D01*
X58409526Y-33969881D01*
X58376313Y-33964620D01*
X58309890Y-33954100D01*
X58309888Y-33954100D01*
X58149878Y-33954100D01*
X58091687Y-33935193D01*
X58055723Y-33885693D01*
X58055723Y-33824507D01*
X58079875Y-33785096D01*
X58131060Y-33733911D01*
X58508079Y-33356892D01*
X59676460Y-32188511D01*
X59687605Y-32169207D01*
X59716020Y-32119992D01*
X59716020Y-32119990D01*
X59716022Y-32119988D01*
X59736500Y-32043562D01*
X59736500Y-31964438D01*
X59736500Y-31827890D01*
X59755407Y-31769699D01*
X59804907Y-31733735D01*
X59866093Y-31733735D01*
X59884999Y-31742153D01*
X59956858Y-31783641D01*
X60096868Y-31821157D01*
X60096869Y-31821157D01*
X60241817Y-31821157D01*
X60241818Y-31821157D01*
X60381828Y-31783641D01*
X60381830Y-31783639D01*
X60381832Y-31783639D01*
X60507353Y-31711169D01*
X60507353Y-31711168D01*
X60507358Y-31711166D01*
X60609852Y-31608672D01*
X60619477Y-31592000D01*
X60664946Y-31551059D01*
X60705214Y-31542500D01*
X60745563Y-31542500D01*
X60745563Y-31542499D01*
X60821989Y-31522021D01*
X60890511Y-31482460D01*
X60946460Y-31426511D01*
X60994975Y-31377996D01*
X61049492Y-31350219D01*
X61064979Y-31349000D01*
X61493450Y-31349000D01*
X61551641Y-31367907D01*
G37*
%TD.AperFunction*%
%TA.AperFunction,Conductor*%
G36*
X47954385Y-20839407D02*
G01*
X47990349Y-20888907D01*
X47990349Y-20950093D01*
X47978510Y-20974501D01*
X47894158Y-21100742D01*
X47837623Y-21237229D01*
X47837621Y-21237235D01*
X47808800Y-21382128D01*
X47808800Y-21555999D01*
X47808801Y-21556000D01*
X48308800Y-21556000D01*
X48308800Y-22056000D01*
X47808801Y-22056000D01*
X47808800Y-22056001D01*
X47808800Y-22229871D01*
X47837621Y-22374764D01*
X47837623Y-22374770D01*
X47894158Y-22511257D01*
X47976234Y-22634093D01*
X47986637Y-22644496D01*
X48014414Y-22699013D01*
X48004843Y-22759445D01*
X47961578Y-22802710D01*
X47916633Y-22813500D01*
X46977008Y-22813500D01*
X46918817Y-22794593D01*
X46882853Y-22745093D01*
X46879227Y-22729987D01*
X46876647Y-22713699D01*
X46876646Y-22713697D01*
X46876646Y-22713696D01*
X46819050Y-22600658D01*
X46729342Y-22510950D01*
X46616304Y-22453354D01*
X46616305Y-22453354D01*
X46522522Y-22438500D01*
X46059479Y-22438500D01*
X46059476Y-22438501D01*
X45965700Y-22453352D01*
X45965695Y-22453354D01*
X45852659Y-22510949D01*
X45762949Y-22600659D01*
X45705354Y-22713695D01*
X45690500Y-22807477D01*
X45690500Y-23420520D01*
X45690501Y-23420523D01*
X45705352Y-23514299D01*
X45705354Y-23514304D01*
X45762950Y-23627342D01*
X45852658Y-23717050D01*
X45965695Y-23774645D01*
X45965695Y-23774646D01*
X45972853Y-23775779D01*
X45988251Y-23778218D01*
X46042768Y-23805994D01*
X46070547Y-23860510D01*
X46060977Y-23920942D01*
X46017713Y-23964208D01*
X45988255Y-23973780D01*
X45965698Y-23977353D01*
X45965695Y-23977354D01*
X45852659Y-24034949D01*
X45762949Y-24124659D01*
X45705354Y-24237695D01*
X45690500Y-24331477D01*
X45690500Y-24944520D01*
X45690501Y-24944523D01*
X45705352Y-25038299D01*
X45705354Y-25038304D01*
X45762950Y-25151342D01*
X45852658Y-25241050D01*
X45965696Y-25298646D01*
X46059481Y-25313500D01*
X46522518Y-25313499D01*
X46522520Y-25313499D01*
X46522521Y-25313498D01*
X46569411Y-25306072D01*
X46616299Y-25298647D01*
X46616299Y-25298646D01*
X46616304Y-25298646D01*
X46729342Y-25241050D01*
X46819050Y-25151342D01*
X46876646Y-25038304D01*
X46879226Y-25022013D01*
X46907003Y-24967497D01*
X46961519Y-24939719D01*
X46977007Y-24938500D01*
X47537563Y-24938500D01*
X47537563Y-24938499D01*
X47613989Y-24918021D01*
X47682511Y-24878460D01*
X47707640Y-24853330D01*
X47762154Y-24825553D01*
X47822587Y-24835124D01*
X47865852Y-24878387D01*
X47875424Y-24938819D01*
X47869107Y-24961219D01*
X47837624Y-25037225D01*
X47837621Y-25037235D01*
X47808800Y-25182128D01*
X47808800Y-25355999D01*
X47808801Y-25356000D01*
X48308799Y-25356000D01*
X48308800Y-25355999D01*
X48308800Y-25856001D01*
X48308799Y-25856000D01*
X47808801Y-25856000D01*
X47808800Y-25856001D01*
X47808800Y-26029871D01*
X47837621Y-26174764D01*
X47837623Y-26174770D01*
X47894158Y-26311257D01*
X47976234Y-26434093D01*
X48080706Y-26538565D01*
X48203544Y-26620642D01*
X48308799Y-26664240D01*
X48308800Y-26664239D01*
X48308800Y-26005728D01*
X48346860Y-26097614D01*
X48417186Y-26167940D01*
X48509072Y-26206000D01*
X48608528Y-26206000D01*
X48700414Y-26167940D01*
X48770740Y-26097614D01*
X48808800Y-26005728D01*
X48808800Y-26664240D01*
X48914055Y-26620642D01*
X49036893Y-26538565D01*
X49141365Y-26434093D01*
X49223441Y-26311257D01*
X49238337Y-26275296D01*
X49278074Y-26228771D01*
X49337568Y-26214487D01*
X49394096Y-26237902D01*
X49426066Y-26290071D01*
X49428801Y-26313182D01*
X49428801Y-26406436D01*
X49434881Y-26463004D01*
X49434882Y-26463006D01*
X49482614Y-26590983D01*
X49564468Y-26700327D01*
X49564472Y-26700331D01*
X49673816Y-26782185D01*
X49801790Y-26829916D01*
X49801798Y-26829918D01*
X49858366Y-26835999D01*
X49878800Y-26835998D01*
X49878800Y-26036001D01*
X49878799Y-26036000D01*
X49407800Y-26036000D01*
X49349609Y-26017093D01*
X49313645Y-25967593D01*
X49308800Y-25937000D01*
X49308800Y-25856001D01*
X49308799Y-25856000D01*
X48808801Y-25856000D01*
X48808800Y-25856001D01*
X48808800Y-25355999D01*
X48808801Y-25356000D01*
X49329800Y-25356000D01*
X49387991Y-25374907D01*
X49423955Y-25424407D01*
X49428800Y-25455000D01*
X49428800Y-25535999D01*
X49428801Y-25536000D01*
X49878799Y-25536000D01*
X49878800Y-25535999D01*
X49878800Y-24735999D01*
X49858371Y-24736000D01*
X49858362Y-24736001D01*
X49801794Y-24742081D01*
X49801793Y-24742082D01*
X49673816Y-24789814D01*
X49564472Y-24871668D01*
X49564468Y-24871672D01*
X49482614Y-24981016D01*
X49463502Y-25032259D01*
X49425451Y-25080173D01*
X49366504Y-25096571D01*
X49309177Y-25075189D01*
X49279280Y-25035548D01*
X49223441Y-24900742D01*
X49141365Y-24777906D01*
X49036890Y-24673431D01*
X48914070Y-24591365D01*
X48914056Y-24591358D01*
X48808800Y-24547758D01*
X48808800Y-25206272D01*
X48770740Y-25114386D01*
X48700414Y-25044060D01*
X48608528Y-25006000D01*
X48509072Y-25006000D01*
X48417186Y-25044060D01*
X48346860Y-25114386D01*
X48308800Y-25206272D01*
X48308800Y-24583540D01*
X48215302Y-24573247D01*
X48209439Y-24570602D01*
X48203025Y-24571107D01*
X48182001Y-24558223D01*
X48159530Y-24548086D01*
X48156341Y-24542499D01*
X48150856Y-24539138D01*
X48141420Y-24516357D01*
X48129199Y-24494947D01*
X48129902Y-24488553D01*
X48127441Y-24482610D01*
X48133197Y-24458632D01*
X48135895Y-24434130D01*
X48140221Y-24429371D01*
X48141724Y-24423115D01*
X48156133Y-24404838D01*
X48609476Y-23951496D01*
X48663992Y-23923719D01*
X48679479Y-23922500D01*
X50893969Y-23922500D01*
X50952160Y-23941407D01*
X50988124Y-23990907D01*
X50988124Y-24052093D01*
X50963974Y-24091501D01*
X50910238Y-24145238D01*
X50867488Y-24187988D01*
X50867487Y-24187989D01*
X50795017Y-24313510D01*
X50757500Y-24453525D01*
X50757500Y-24598474D01*
X50791189Y-24724201D01*
X50787987Y-24785302D01*
X50749482Y-24832852D01*
X50690381Y-24848688D01*
X50636234Y-24829078D01*
X50583783Y-24789814D01*
X50455809Y-24742083D01*
X50455801Y-24742081D01*
X50399234Y-24736000D01*
X50378801Y-24736000D01*
X50378800Y-24736001D01*
X50378800Y-26835998D01*
X50378801Y-26835999D01*
X50399231Y-26835999D01*
X50399236Y-26835998D01*
X50455804Y-26829918D01*
X50455806Y-26829917D01*
X50583783Y-26782185D01*
X50693127Y-26700331D01*
X50693130Y-26700328D01*
X50716107Y-26669634D01*
X50734501Y-26656666D01*
X50750417Y-26640751D01*
X50759007Y-26639390D01*
X50766115Y-26634380D01*
X50788618Y-26634700D01*
X50810849Y-26631180D01*
X50818597Y-26635128D01*
X50827294Y-26635252D01*
X50865363Y-26658955D01*
X50879305Y-26672897D01*
X50907081Y-26727412D01*
X50908300Y-26742899D01*
X50908300Y-27407588D01*
X50889393Y-27465779D01*
X50879304Y-27477592D01*
X49372393Y-28984504D01*
X49317876Y-29012281D01*
X49302389Y-29013500D01*
X46676691Y-29013500D01*
X46631508Y-29025606D01*
X46586325Y-29037713D01*
X46586324Y-29037712D01*
X46562112Y-29044201D01*
X46562109Y-29044202D01*
X46459390Y-29103507D01*
X45817507Y-29745390D01*
X45758200Y-29848112D01*
X45758200Y-29848113D01*
X45758201Y-29848114D01*
X45732538Y-29943891D01*
X45727500Y-29962692D01*
X45727500Y-30558745D01*
X45708593Y-30616936D01*
X45698509Y-30628742D01*
X45646051Y-30681201D01*
X45604470Y-30722782D01*
X45543283Y-30842867D01*
X45543281Y-30842874D01*
X45527500Y-30942510D01*
X45527500Y-31509489D01*
X45533055Y-31544563D01*
X45539209Y-31583419D01*
X45543281Y-31609125D01*
X45543283Y-31609132D01*
X45604470Y-31729217D01*
X45604472Y-31729220D01*
X45699780Y-31824528D01*
X45723444Y-31836585D01*
X45766708Y-31879848D01*
X45777500Y-31924795D01*
X45777500Y-32134100D01*
X45758593Y-32192291D01*
X45748504Y-32204103D01*
X45699951Y-32252656D01*
X45699950Y-32252658D01*
X45642354Y-32365695D01*
X45627500Y-32459477D01*
X45627500Y-33072520D01*
X45627501Y-33072523D01*
X45642352Y-33166299D01*
X45642354Y-33166304D01*
X45699950Y-33279342D01*
X45748505Y-33327897D01*
X45776281Y-33382412D01*
X45777500Y-33397899D01*
X45777500Y-33658100D01*
X45758593Y-33716291D01*
X45748504Y-33728103D01*
X45699951Y-33776656D01*
X45699950Y-33776658D01*
X45642354Y-33889695D01*
X45627500Y-33983477D01*
X45627500Y-34596520D01*
X45627501Y-34596523D01*
X45642352Y-34690299D01*
X45642354Y-34690304D01*
X45699950Y-34803342D01*
X45789658Y-34893050D01*
X45902696Y-34950646D01*
X45996481Y-34965500D01*
X46459518Y-34965499D01*
X46459520Y-34965499D01*
X46459521Y-34965498D01*
X46528502Y-34954574D01*
X46553299Y-34950647D01*
X46553299Y-34950646D01*
X46553304Y-34950646D01*
X46666342Y-34893050D01*
X46756050Y-34803342D01*
X46760528Y-34794554D01*
X46776917Y-34778164D01*
X46790546Y-34759407D01*
X46798144Y-34756938D01*
X46803793Y-34751290D01*
X46848737Y-34740500D01*
X47016390Y-34740500D01*
X47074581Y-34759407D01*
X47086393Y-34769496D01*
X47496786Y-35179890D01*
X47599513Y-35239199D01*
X47623720Y-35245684D01*
X47623725Y-35245687D01*
X47623726Y-35245686D01*
X47714088Y-35269899D01*
X47714090Y-35269900D01*
X47714091Y-35269900D01*
X49372532Y-35269900D01*
X49416012Y-35279959D01*
X49477407Y-35309973D01*
X49545540Y-35319900D01*
X49545543Y-35319900D01*
X49657758Y-35319900D01*
X49715949Y-35338807D01*
X49751913Y-35388307D01*
X49751913Y-35449493D01*
X49715949Y-35498993D01*
X49695643Y-35510364D01*
X49625077Y-35539592D01*
X49625072Y-35539595D01*
X49432028Y-35651050D01*
X49255179Y-35786750D01*
X49097550Y-35944379D01*
X48961850Y-36121228D01*
X48850395Y-36314272D01*
X48850392Y-36314277D01*
X48765090Y-36520217D01*
X48707395Y-36735539D01*
X48707395Y-36735544D01*
X48678300Y-36956542D01*
X48678300Y-37179457D01*
X48707395Y-37400455D01*
X48707395Y-37400460D01*
X48765090Y-37615782D01*
X48850392Y-37821722D01*
X48850395Y-37821727D01*
X48961850Y-38014771D01*
X48961852Y-38014774D01*
X49097553Y-38191624D01*
X49255176Y-38349247D01*
X49432026Y-38484948D01*
X49432028Y-38484949D01*
X49625072Y-38596404D01*
X49625077Y-38596407D01*
X49792979Y-38665953D01*
X49831019Y-38681710D01*
X49887611Y-38696873D01*
X49938924Y-38730197D01*
X49960851Y-38787318D01*
X49945016Y-38846419D01*
X49897466Y-38884924D01*
X49861987Y-38891500D01*
X49854740Y-38891500D01*
X49820673Y-38896463D01*
X49786604Y-38901427D01*
X49681518Y-38952801D01*
X49598801Y-39035518D01*
X49547427Y-39140604D01*
X49537500Y-39208743D01*
X49537500Y-39244083D01*
X49518593Y-39302274D01*
X49469093Y-39338238D01*
X49407907Y-39338238D01*
X49358407Y-39302274D01*
X49352764Y-39293583D01*
X49328463Y-39251493D01*
X49328461Y-39251491D01*
X49328460Y-39251489D01*
X46666511Y-36589540D01*
X46666508Y-36589538D01*
X46597992Y-36549980D01*
X46597988Y-36549978D01*
X46521564Y-36529500D01*
X46521562Y-36529500D01*
X45631479Y-36529500D01*
X45573288Y-36510593D01*
X45561475Y-36500504D01*
X44907496Y-35846525D01*
X44879719Y-35792008D01*
X44878500Y-35776521D01*
X44878500Y-35023951D01*
X44897407Y-34965760D01*
X44932552Y-34935742D01*
X45016342Y-34893050D01*
X45106050Y-34803342D01*
X45163646Y-34690304D01*
X45178500Y-34596519D01*
X45178499Y-33983482D01*
X45171208Y-33937443D01*
X45163647Y-33889700D01*
X45163646Y-33889698D01*
X45163646Y-33889696D01*
X45106050Y-33776658D01*
X45016342Y-33686950D01*
X44928810Y-33642350D01*
X44885546Y-33599086D01*
X44875975Y-33538653D01*
X44903753Y-33484137D01*
X44941059Y-33460696D01*
X44990647Y-33443344D01*
X45099790Y-33362792D01*
X45099792Y-33362790D01*
X45180345Y-33253647D01*
X45225149Y-33125601D01*
X45227999Y-33095211D01*
X45228000Y-33095210D01*
X45228000Y-33016001D01*
X45227999Y-33016000D01*
X43928002Y-33016000D01*
X43928001Y-33016001D01*
X43928001Y-33095203D01*
X43930850Y-33125600D01*
X43930850Y-33125602D01*
X43975654Y-33253647D01*
X44056207Y-33362790D01*
X44056209Y-33362792D01*
X44165352Y-33443344D01*
X44214940Y-33460696D01*
X44263621Y-33497762D01*
X44281218Y-33556362D01*
X44261010Y-33614114D01*
X44227189Y-33642350D01*
X44139659Y-33686949D01*
X44049949Y-33776659D01*
X43992354Y-33889695D01*
X43977500Y-33983477D01*
X43977500Y-34596520D01*
X43977501Y-34596523D01*
X43992352Y-34690299D01*
X43992354Y-34690304D01*
X44049950Y-34803342D01*
X44139658Y-34893050D01*
X44223446Y-34935742D01*
X44266710Y-34979006D01*
X44277500Y-35023951D01*
X44277500Y-35981564D01*
X44297978Y-36057988D01*
X44297979Y-36057989D01*
X44312999Y-36084004D01*
X44337540Y-36126511D01*
X45281489Y-37070460D01*
X45281491Y-37070461D01*
X45281493Y-37070463D01*
X45350008Y-37110020D01*
X45350006Y-37110020D01*
X45350010Y-37110021D01*
X45350012Y-37110022D01*
X45426438Y-37130500D01*
X46316521Y-37130500D01*
X46374712Y-37149407D01*
X46386525Y-37159496D01*
X48758504Y-39531475D01*
X48786281Y-39585992D01*
X48787500Y-39601479D01*
X48787500Y-40738635D01*
X48768593Y-40796826D01*
X48737889Y-40822612D01*
X48738192Y-40823036D01*
X48732817Y-40826873D01*
X48731982Y-40827574D01*
X48731800Y-40827663D01*
X48731518Y-40827801D01*
X48648801Y-40910518D01*
X48597427Y-41015604D01*
X48592463Y-41049673D01*
X48587500Y-41083740D01*
X48587500Y-42325260D01*
X48594118Y-42370682D01*
X48597427Y-42393395D01*
X48648801Y-42498481D01*
X48648802Y-42498483D01*
X48731517Y-42581198D01*
X48780980Y-42605379D01*
X48836604Y-42632572D01*
X48836605Y-42632572D01*
X48836607Y-42632573D01*
X48904740Y-42642500D01*
X48904743Y-42642500D01*
X49271257Y-42642500D01*
X49271260Y-42642500D01*
X49339393Y-42632573D01*
X49395020Y-42605378D01*
X49455600Y-42596807D01*
X49509651Y-42625482D01*
X49536524Y-42680450D01*
X49537500Y-42694319D01*
X49537500Y-43566678D01*
X49518593Y-43624869D01*
X49508504Y-43636682D01*
X48714686Y-44430500D01*
X48714685Y-44430499D01*
X48621500Y-44523685D01*
X48621496Y-44523690D01*
X48555609Y-44637809D01*
X48549376Y-44661073D01*
X48527924Y-44741135D01*
X48521500Y-44765109D01*
X48521500Y-48544052D01*
X48518032Y-48570024D01*
X48516237Y-48576625D01*
X48474214Y-49183522D01*
X48472090Y-49196246D01*
X48471500Y-49200731D01*
X48471500Y-49345681D01*
X48501087Y-49456102D01*
X48509017Y-49485695D01*
X48581487Y-49611216D01*
X48581489Y-49611218D01*
X48581491Y-49611221D01*
X48683985Y-49713715D01*
X48683987Y-49713716D01*
X48683989Y-49713718D01*
X48809503Y-49786184D01*
X48809508Y-49786186D01*
X48809515Y-49786190D01*
X48809522Y-49786191D01*
X48809631Y-49786237D01*
X48809706Y-49786301D01*
X48815134Y-49789435D01*
X48814553Y-49790440D01*
X48856163Y-49825967D01*
X48870455Y-49885460D01*
X48847049Y-49941991D01*
X48841763Y-49947711D01*
X46647108Y-52142366D01*
X46621077Y-52155628D01*
X46595487Y-52169640D01*
X46593961Y-52169444D01*
X46592591Y-52170143D01*
X46563746Y-52165574D01*
X46534798Y-52161867D01*
X46533814Y-52160834D01*
X46532159Y-52160572D01*
X46490268Y-52119906D01*
X46486236Y-52112543D01*
X46485587Y-52110118D01*
X46472466Y-52087392D01*
X46471935Y-52086422D01*
X46471830Y-52085868D01*
X46466514Y-52074788D01*
X46459371Y-52056438D01*
X46316211Y-51688646D01*
X46279846Y-51595220D01*
X46273103Y-51559310D01*
X46273103Y-50378042D01*
X46273103Y-50378041D01*
X46252625Y-50301615D01*
X46252623Y-50301612D01*
X46252623Y-50301610D01*
X46213066Y-50233096D01*
X46213065Y-50233095D01*
X46213064Y-50233094D01*
X46213063Y-50233092D01*
X43763496Y-47783525D01*
X43735719Y-47729008D01*
X43734500Y-47713521D01*
X43734500Y-45328559D01*
X43753407Y-45270368D01*
X43802907Y-45234404D01*
X43864093Y-45234404D01*
X43913593Y-45270368D01*
X43931465Y-45314282D01*
X43933328Y-45327072D01*
X43934355Y-45334119D01*
X43967799Y-45402529D01*
X43985730Y-45439207D01*
X44068445Y-45521922D01*
X44122213Y-45548207D01*
X44173532Y-45573296D01*
X44173533Y-45573296D01*
X44173535Y-45573297D01*
X44202202Y-45577473D01*
X44257058Y-45604572D01*
X44285510Y-45658740D01*
X44286928Y-45675439D01*
X44286928Y-45844736D01*
X44286928Y-45976520D01*
X44313130Y-46074307D01*
X44321037Y-46103818D01*
X44386924Y-46217937D01*
X44386925Y-46217938D01*
X44386926Y-46217939D01*
X44386928Y-46217942D01*
X44868490Y-46699504D01*
X45183274Y-47014288D01*
X45211051Y-47068805D01*
X45211838Y-47093534D01*
X45208500Y-47129135D01*
X45208500Y-48428872D01*
X45211385Y-48459634D01*
X45211387Y-48459643D01*
X45256737Y-48589246D01*
X45338271Y-48699721D01*
X45338278Y-48699728D01*
X45448753Y-48781262D01*
X45448754Y-48781262D01*
X45448755Y-48781263D01*
X45578361Y-48826614D01*
X45609127Y-48829499D01*
X45609129Y-48829500D01*
X45609136Y-48829500D01*
X47608871Y-48829500D01*
X47608871Y-48829499D01*
X47639639Y-48826614D01*
X47769245Y-48781263D01*
X47879725Y-48699725D01*
X47961263Y-48589245D01*
X48006614Y-48459639D01*
X48009499Y-48428871D01*
X48009500Y-48428871D01*
X48009500Y-47129129D01*
X48009499Y-47129127D01*
X48006614Y-47098365D01*
X48006614Y-47098361D01*
X47961263Y-46968755D01*
X47961262Y-46968753D01*
X47879728Y-46858278D01*
X47879721Y-46858271D01*
X47769246Y-46776737D01*
X47639643Y-46731387D01*
X47639634Y-46731385D01*
X47608872Y-46728500D01*
X47608864Y-46728500D01*
X46354122Y-46728500D01*
X46295931Y-46709593D01*
X46284118Y-46699504D01*
X45328387Y-45743773D01*
X45300610Y-45689256D01*
X45310181Y-45628824D01*
X45353446Y-45585559D01*
X45384115Y-45575803D01*
X45401321Y-45573297D01*
X45506411Y-45521922D01*
X45589126Y-45439207D01*
X45640501Y-45334117D01*
X45640704Y-45332724D01*
X46160780Y-45332724D01*
X46164763Y-45357871D01*
X46164764Y-45357875D01*
X46222286Y-45470767D01*
X46311884Y-45560365D01*
X46424776Y-45617887D01*
X46424780Y-45617888D01*
X46518443Y-45632723D01*
X46812426Y-45632723D01*
X46812428Y-45632722D01*
X46812428Y-45332725D01*
X47312428Y-45332725D01*
X47312428Y-45632722D01*
X47312429Y-45632723D01*
X47606411Y-45632723D01*
X47606413Y-45632722D01*
X47700069Y-45617890D01*
X47700079Y-45617887D01*
X47812971Y-45560365D01*
X47902569Y-45470767D01*
X47960091Y-45357875D01*
X47960092Y-45357871D01*
X47964076Y-45332724D01*
X47312429Y-45332724D01*
X47312428Y-45332725D01*
X46812428Y-45332725D01*
X46812427Y-45332724D01*
X46160780Y-45332724D01*
X45640704Y-45332724D01*
X45650428Y-45265984D01*
X45650428Y-44899464D01*
X45640501Y-44831331D01*
X45633415Y-44816837D01*
X45613307Y-44775704D01*
X45604736Y-44715122D01*
X45633411Y-44661073D01*
X45688380Y-44634200D01*
X45702248Y-44633224D01*
X46092047Y-44633224D01*
X46150238Y-44652131D01*
X46186202Y-44701631D01*
X46186202Y-44762817D01*
X46180256Y-44777170D01*
X46164764Y-44807572D01*
X46164763Y-44807576D01*
X46160780Y-44832724D01*
X47964076Y-44832724D01*
X47960092Y-44807576D01*
X47960091Y-44807572D01*
X47902569Y-44694680D01*
X47850614Y-44642725D01*
X47822837Y-44588208D01*
X47832408Y-44527776D01*
X47850613Y-44502719D01*
X47864126Y-44489207D01*
X47915501Y-44384117D01*
X47925428Y-44315984D01*
X47925428Y-43949464D01*
X47915501Y-43881331D01*
X47864126Y-43776241D01*
X47815610Y-43727725D01*
X47787835Y-43673211D01*
X47797406Y-43612779D01*
X47815609Y-43587723D01*
X47864126Y-43539207D01*
X47915501Y-43434117D01*
X47925428Y-43365984D01*
X47925428Y-42999464D01*
X47915501Y-42931331D01*
X47864126Y-42826241D01*
X47781411Y-42743526D01*
X47676321Y-42692151D01*
X47676319Y-42692150D01*
X47676321Y-42692150D01*
X47629225Y-42685288D01*
X47574369Y-42658188D01*
X47545918Y-42604020D01*
X47544500Y-42587323D01*
X47544500Y-42151007D01*
X47563407Y-42092816D01*
X47612907Y-42056852D01*
X47628012Y-42053226D01*
X47644304Y-42050646D01*
X47757342Y-41993050D01*
X47847050Y-41903342D01*
X47904646Y-41790304D01*
X47919500Y-41696519D01*
X47919499Y-41233482D01*
X47904646Y-41139696D01*
X47847050Y-41026658D01*
X47757342Y-40936950D01*
X47644304Y-40879354D01*
X47644305Y-40879354D01*
X47550522Y-40864500D01*
X46937479Y-40864500D01*
X46937476Y-40864501D01*
X46843700Y-40879352D01*
X46843695Y-40879354D01*
X46730659Y-40936949D01*
X46640949Y-41026659D01*
X46583354Y-41139695D01*
X46568500Y-41233477D01*
X46568500Y-41696520D01*
X46568501Y-41696523D01*
X46583352Y-41790299D01*
X46583354Y-41790304D01*
X46640950Y-41903342D01*
X46730658Y-41993050D01*
X46843696Y-42050646D01*
X46859986Y-42053226D01*
X46914503Y-42081003D01*
X46942281Y-42135519D01*
X46943500Y-42151007D01*
X46943500Y-42583224D01*
X46924593Y-42641415D01*
X46875093Y-42677379D01*
X46844500Y-42682224D01*
X46516668Y-42682224D01*
X46482601Y-42687187D01*
X46448532Y-42692151D01*
X46343446Y-42743525D01*
X46260729Y-42826242D01*
X46209355Y-42931328D01*
X46209355Y-42931331D01*
X46199428Y-42999464D01*
X46199428Y-43365984D01*
X46206046Y-43411406D01*
X46209355Y-43434119D01*
X46236549Y-43489744D01*
X46245120Y-43550326D01*
X46216445Y-43604375D01*
X46161476Y-43631248D01*
X46147608Y-43632224D01*
X45702248Y-43632224D01*
X45644057Y-43613317D01*
X45608093Y-43563817D01*
X45608093Y-43502631D01*
X45613307Y-43489744D01*
X45640500Y-43434119D01*
X45640499Y-43434119D01*
X45640501Y-43434117D01*
X45650428Y-43365984D01*
X45650428Y-42999464D01*
X45640501Y-42931331D01*
X45589126Y-42826241D01*
X45506411Y-42743526D01*
X45506405Y-42743523D01*
X45401323Y-42692151D01*
X45374067Y-42688180D01*
X45333188Y-42682224D01*
X44241668Y-42682224D01*
X44207601Y-42687187D01*
X44173532Y-42692151D01*
X44068446Y-42743525D01*
X43985729Y-42826242D01*
X43985505Y-42826702D01*
X43985108Y-42827111D01*
X43980963Y-42832918D01*
X43980092Y-42832296D01*
X43942963Y-42870677D01*
X43930249Y-42876317D01*
X43913925Y-42882224D01*
X43899714Y-42882224D01*
X43823287Y-42902703D01*
X43773702Y-42931331D01*
X43766122Y-42935707D01*
X43766117Y-42935709D01*
X43754768Y-42942261D01*
X43249489Y-43447540D01*
X43249488Y-43447539D01*
X43193539Y-43503489D01*
X43153980Y-43572007D01*
X43153978Y-43572011D01*
X43133500Y-43648435D01*
X43133500Y-47918564D01*
X43153978Y-47994988D01*
X43153980Y-47994992D01*
X43193538Y-48063508D01*
X43193540Y-48063511D01*
X45643108Y-50513079D01*
X45670884Y-50567594D01*
X45672103Y-50583081D01*
X45672103Y-51559309D01*
X45665360Y-51595220D01*
X45564032Y-51855539D01*
X45475947Y-52081837D01*
X45459619Y-52110118D01*
X45447867Y-52153969D01*
X45445904Y-52159015D01*
X45445904Y-52159017D01*
X45442863Y-52166831D01*
X45437194Y-52183476D01*
X45437190Y-52183487D01*
X45437186Y-52183501D01*
X45437078Y-52183870D01*
X45436611Y-52185459D01*
X45434961Y-52191414D01*
X45434942Y-52192057D01*
X45431616Y-52214620D01*
X45422103Y-52250124D01*
X45422103Y-52250128D01*
X45422103Y-52395078D01*
X45438368Y-52455780D01*
X45459620Y-52535092D01*
X45532090Y-52660613D01*
X45532092Y-52660615D01*
X45532094Y-52660618D01*
X45634588Y-52763112D01*
X45634590Y-52763113D01*
X45634592Y-52763115D01*
X45760116Y-52835586D01*
X45760247Y-52835641D01*
X45760324Y-52835706D01*
X45765737Y-52838832D01*
X45765157Y-52839835D01*
X45806773Y-52875377D01*
X45821057Y-52934872D01*
X45797643Y-52991400D01*
X45792369Y-52997105D01*
X45787490Y-53001984D01*
X45735577Y-53091900D01*
X45715018Y-53127510D01*
X45715016Y-53127513D01*
X45677500Y-53267525D01*
X45677500Y-58709208D01*
X45658593Y-58767399D01*
X45609093Y-58803363D01*
X45547907Y-58803363D01*
X45498407Y-58767399D01*
X45481402Y-58728522D01*
X45477104Y-58706918D01*
X45460130Y-58621580D01*
X45380941Y-58430402D01*
X45265977Y-58258345D01*
X45119655Y-58112023D01*
X45119651Y-58112020D01*
X44947597Y-57997058D01*
X44756418Y-57917869D01*
X44553467Y-57877500D01*
X44553465Y-57877500D01*
X44346535Y-57877500D01*
X44346532Y-57877500D01*
X44143581Y-57917869D01*
X43952402Y-57997058D01*
X43780348Y-58112020D01*
X43634020Y-58258348D01*
X43519058Y-58430402D01*
X43439869Y-58621581D01*
X43399500Y-58824532D01*
X43399500Y-59031467D01*
X43439869Y-59234418D01*
X43519058Y-59425597D01*
X43628003Y-59588646D01*
X43634023Y-59597655D01*
X43780345Y-59743977D01*
X43952402Y-59858941D01*
X44143580Y-59938130D01*
X44346535Y-59978500D01*
X44346536Y-59978500D01*
X44553464Y-59978500D01*
X44553465Y-59978500D01*
X44756420Y-59938130D01*
X44947598Y-59858941D01*
X45119655Y-59743977D01*
X45265977Y-59597655D01*
X45380941Y-59425598D01*
X45460130Y-59234420D01*
X45481402Y-59127476D01*
X45511299Y-59074093D01*
X45566864Y-59048477D01*
X45626873Y-59060414D01*
X45668406Y-59105344D01*
X45677500Y-59146791D01*
X45677500Y-60788552D01*
X45658593Y-60846743D01*
X45609093Y-60882707D01*
X45547907Y-60882707D01*
X45498407Y-60846743D01*
X45496184Y-60843553D01*
X45465979Y-60798348D01*
X45465977Y-60798345D01*
X45319655Y-60652023D01*
X45313338Y-60647802D01*
X45147597Y-60537058D01*
X44956418Y-60457869D01*
X44753467Y-60417500D01*
X44753465Y-60417500D01*
X44546535Y-60417500D01*
X44546532Y-60417500D01*
X44343581Y-60457869D01*
X44152402Y-60537058D01*
X43980348Y-60652020D01*
X43834020Y-60798348D01*
X43719058Y-60970402D01*
X43639869Y-61161581D01*
X43599500Y-61364532D01*
X43599500Y-61571467D01*
X43639869Y-61774418D01*
X43719058Y-61965597D01*
X43820489Y-62117400D01*
X43834023Y-62137655D01*
X43980345Y-62283977D01*
X44152402Y-62398941D01*
X44343580Y-62478130D01*
X44546535Y-62518500D01*
X44546536Y-62518500D01*
X44753464Y-62518500D01*
X44753465Y-62518500D01*
X44956420Y-62478130D01*
X45147598Y-62398941D01*
X45319655Y-62283977D01*
X45465977Y-62137655D01*
X45496185Y-62092445D01*
X45544233Y-62054566D01*
X45605372Y-62052164D01*
X45656246Y-62086156D01*
X45677424Y-62143559D01*
X45677500Y-62147447D01*
X45677500Y-63789208D01*
X45658593Y-63847399D01*
X45609093Y-63883363D01*
X45547907Y-63883363D01*
X45498407Y-63847399D01*
X45481402Y-63808522D01*
X45460130Y-63701581D01*
X45449527Y-63675984D01*
X45380941Y-63510402D01*
X45265977Y-63338345D01*
X45119655Y-63192023D01*
X45113338Y-63187802D01*
X44947597Y-63077058D01*
X44756418Y-62997869D01*
X44553467Y-62957500D01*
X44553465Y-62957500D01*
X44346535Y-62957500D01*
X44346532Y-62957500D01*
X44143581Y-62997869D01*
X43952402Y-63077058D01*
X43780348Y-63192020D01*
X43634020Y-63338348D01*
X43519058Y-63510402D01*
X43439869Y-63701581D01*
X43399500Y-63904532D01*
X43399500Y-64111467D01*
X43439869Y-64314418D01*
X43519058Y-64505597D01*
X43617129Y-64652371D01*
X43634023Y-64677655D01*
X43780345Y-64823977D01*
X43952402Y-64938941D01*
X44143580Y-65018130D01*
X44346535Y-65058500D01*
X44346536Y-65058500D01*
X44553464Y-65058500D01*
X44553465Y-65058500D01*
X44756420Y-65018130D01*
X44947598Y-64938941D01*
X45119655Y-64823977D01*
X45265977Y-64677655D01*
X45380941Y-64505598D01*
X45460130Y-64314420D01*
X45481402Y-64207476D01*
X45511299Y-64154093D01*
X45566864Y-64128477D01*
X45626873Y-64140414D01*
X45668406Y-64185344D01*
X45677500Y-64226791D01*
X45677500Y-65868552D01*
X45658593Y-65926743D01*
X45609093Y-65962707D01*
X45547907Y-65962707D01*
X45498407Y-65926743D01*
X45496184Y-65923553D01*
X45465979Y-65878348D01*
X45465977Y-65878345D01*
X45319655Y-65732023D01*
X45319651Y-65732020D01*
X45147597Y-65617058D01*
X44956418Y-65537869D01*
X44753467Y-65497500D01*
X44753465Y-65497500D01*
X44546535Y-65497500D01*
X44546532Y-65497500D01*
X44343581Y-65537869D01*
X44152402Y-65617058D01*
X43980348Y-65732020D01*
X43834020Y-65878348D01*
X43719058Y-66050402D01*
X43639869Y-66241581D01*
X43599500Y-66444532D01*
X43599500Y-66651467D01*
X43639869Y-66854418D01*
X43719058Y-67045597D01*
X43828142Y-67208854D01*
X43834023Y-67217655D01*
X43980345Y-67363977D01*
X44152402Y-67478941D01*
X44343580Y-67558130D01*
X44546535Y-67598500D01*
X44546536Y-67598500D01*
X44753464Y-67598500D01*
X44753465Y-67598500D01*
X44956420Y-67558130D01*
X45147598Y-67478941D01*
X45319655Y-67363977D01*
X45465977Y-67217655D01*
X45496185Y-67172445D01*
X45544233Y-67134566D01*
X45605372Y-67132164D01*
X45656246Y-67166156D01*
X45677424Y-67223559D01*
X45677500Y-67227447D01*
X45677500Y-67534874D01*
X45696304Y-67605052D01*
X45696303Y-67605052D01*
X45715014Y-67674881D01*
X45715014Y-67674882D01*
X45715016Y-67674885D01*
X45787490Y-67800415D01*
X46020345Y-68033270D01*
X46048121Y-68087785D01*
X46049340Y-68103272D01*
X46049340Y-70413396D01*
X46030433Y-70471587D01*
X46020344Y-70483400D01*
X43000512Y-73503232D01*
X42956249Y-73579898D01*
X42956246Y-73579903D01*
X42952327Y-73586693D01*
X42928039Y-73628761D01*
X42905798Y-73711761D01*
X42903963Y-73716560D01*
X42887806Y-73736557D01*
X42873802Y-73758121D01*
X42868847Y-73760022D01*
X42865511Y-73764152D01*
X42840682Y-73770833D01*
X42816681Y-73780047D01*
X42811553Y-73778673D01*
X42806427Y-73780053D01*
X42782411Y-73770864D01*
X42757580Y-73764211D01*
X42754239Y-73760085D01*
X42749282Y-73758189D01*
X42735257Y-73736645D01*
X42719075Y-73716661D01*
X42717811Y-73709844D01*
X42715902Y-73706911D01*
X42716198Y-73701138D01*
X42712500Y-73681183D01*
X42712500Y-68213375D01*
X43350000Y-68213375D01*
X43350000Y-68837999D01*
X43350001Y-68838000D01*
X44016988Y-68838000D01*
X43984075Y-68895007D01*
X43950000Y-69022174D01*
X43950000Y-69153826D01*
X43984075Y-69280993D01*
X44016988Y-69338000D01*
X43350001Y-69338000D01*
X43350000Y-69338001D01*
X43350000Y-69962624D01*
X43364506Y-70035546D01*
X43364507Y-70035548D01*
X43419758Y-70118237D01*
X43419762Y-70118241D01*
X43502451Y-70173492D01*
X43502453Y-70173493D01*
X43575375Y-70187999D01*
X43575377Y-70188000D01*
X44199999Y-70188000D01*
X44200000Y-70187999D01*
X44200000Y-69521012D01*
X44257007Y-69553925D01*
X44384174Y-69588000D01*
X44515826Y-69588000D01*
X44642993Y-69553925D01*
X44700000Y-69521012D01*
X44700000Y-70187999D01*
X44700001Y-70188000D01*
X45324623Y-70188000D01*
X45324624Y-70187999D01*
X45397546Y-70173493D01*
X45397548Y-70173492D01*
X45480237Y-70118241D01*
X45480241Y-70118237D01*
X45535492Y-70035548D01*
X45535493Y-70035546D01*
X45549999Y-69962624D01*
X45550000Y-69962622D01*
X45550000Y-69338001D01*
X45549999Y-69338000D01*
X44883012Y-69338000D01*
X44915925Y-69280993D01*
X44950000Y-69153826D01*
X44950000Y-69022174D01*
X44915925Y-68895007D01*
X44883012Y-68838000D01*
X45549999Y-68838000D01*
X45550000Y-68837999D01*
X45550000Y-68213377D01*
X45549999Y-68213375D01*
X45535493Y-68140453D01*
X45535492Y-68140451D01*
X45480241Y-68057762D01*
X45480237Y-68057758D01*
X45397548Y-68002507D01*
X45397546Y-68002506D01*
X45324624Y-67988000D01*
X44700001Y-67988000D01*
X44700000Y-67988001D01*
X44700000Y-68654988D01*
X44642993Y-68622075D01*
X44515826Y-68588000D01*
X44384174Y-68588000D01*
X44257007Y-68622075D01*
X44200000Y-68654988D01*
X44200000Y-67988001D01*
X44199999Y-67988000D01*
X43575375Y-67988000D01*
X43502453Y-68002506D01*
X43502451Y-68002507D01*
X43419762Y-68057758D01*
X43419758Y-68057762D01*
X43364507Y-68140451D01*
X43364506Y-68140453D01*
X43350000Y-68213375D01*
X42712500Y-68213375D01*
X42712500Y-40065001D01*
X46519001Y-40065001D01*
X46519001Y-40069203D01*
X46521850Y-40099600D01*
X46521850Y-40099602D01*
X46566654Y-40227647D01*
X46647207Y-40336790D01*
X46647209Y-40336792D01*
X46756352Y-40417345D01*
X46884398Y-40462149D01*
X46914788Y-40464998D01*
X46994000Y-40464998D01*
X46994000Y-40065001D01*
X47494000Y-40065001D01*
X47494000Y-40464998D01*
X47494001Y-40464999D01*
X47573203Y-40464999D01*
X47603600Y-40462149D01*
X47603602Y-40462149D01*
X47731647Y-40417345D01*
X47840790Y-40336792D01*
X47840792Y-40336790D01*
X47921345Y-40227647D01*
X47966149Y-40099601D01*
X47968999Y-40069211D01*
X47969000Y-40069210D01*
X47969000Y-40065001D01*
X47968999Y-40065000D01*
X47494001Y-40065000D01*
X47494000Y-40065001D01*
X46994000Y-40065001D01*
X46993999Y-40065000D01*
X46519002Y-40065000D01*
X46519001Y-40065001D01*
X42712500Y-40065001D01*
X42712500Y-39560788D01*
X46519000Y-39560788D01*
X46519000Y-39564999D01*
X46519001Y-39565000D01*
X46993999Y-39565000D01*
X46994000Y-39564999D01*
X46994000Y-39165001D01*
X47494000Y-39165001D01*
X47494000Y-39564999D01*
X47494001Y-39565000D01*
X47968998Y-39565000D01*
X47968999Y-39564999D01*
X47968999Y-39560796D01*
X47966149Y-39530399D01*
X47966149Y-39530397D01*
X47921345Y-39402352D01*
X47840792Y-39293209D01*
X47840790Y-39293207D01*
X47731647Y-39212654D01*
X47603601Y-39167850D01*
X47573211Y-39165000D01*
X47494001Y-39165000D01*
X47494000Y-39165001D01*
X46994000Y-39165001D01*
X46994000Y-39164999D01*
X46914797Y-39165000D01*
X46884399Y-39167850D01*
X46884397Y-39167850D01*
X46756352Y-39212654D01*
X46647209Y-39293207D01*
X46647207Y-39293209D01*
X46566654Y-39402352D01*
X46521850Y-39530398D01*
X46519000Y-39560788D01*
X42712500Y-39560788D01*
X42712500Y-32436788D01*
X43928000Y-32436788D01*
X43928000Y-32515999D01*
X43928001Y-32516000D01*
X44327999Y-32516000D01*
X44328000Y-32515999D01*
X44328000Y-32056001D01*
X44828000Y-32056001D01*
X44828000Y-32515999D01*
X44828001Y-32516000D01*
X45227998Y-32516000D01*
X45227999Y-32515999D01*
X45227999Y-32436796D01*
X45225149Y-32406399D01*
X45225149Y-32406397D01*
X45180345Y-32278352D01*
X45099792Y-32169209D01*
X45099790Y-32169207D01*
X44996371Y-32092879D01*
X44960779Y-32043111D01*
X44961237Y-31981927D01*
X44997571Y-31932698D01*
X45020564Y-31920465D01*
X45082985Y-31897184D01*
X45192327Y-31815331D01*
X45192331Y-31815327D01*
X45274185Y-31705983D01*
X45321916Y-31578009D01*
X45321918Y-31578001D01*
X45328000Y-31521434D01*
X45328000Y-31476001D01*
X45327999Y-31476000D01*
X44878001Y-31476000D01*
X44878000Y-31476001D01*
X44878000Y-31964993D01*
X44875531Y-31972590D01*
X44876781Y-31980480D01*
X44866256Y-32001135D01*
X44859093Y-32023184D01*
X44849004Y-32034997D01*
X44828000Y-32056001D01*
X44328000Y-32056001D01*
X44328000Y-32027007D01*
X44330468Y-32019409D01*
X44329219Y-32011520D01*
X44339743Y-31990864D01*
X44346907Y-31968816D01*
X44356996Y-31957003D01*
X44378000Y-31935999D01*
X44378000Y-31476001D01*
X44377999Y-31476000D01*
X43928002Y-31476000D01*
X43928001Y-31476001D01*
X43928001Y-31521436D01*
X43934081Y-31578004D01*
X43934082Y-31578006D01*
X43981814Y-31705983D01*
X44063668Y-31815327D01*
X44063672Y-31815331D01*
X44173016Y-31897185D01*
X44177512Y-31898862D01*
X44225426Y-31936913D01*
X44241823Y-31995861D01*
X44220441Y-32053188D01*
X44175614Y-32085064D01*
X44165353Y-32088654D01*
X44056209Y-32169207D01*
X44056207Y-32169209D01*
X43975654Y-32278352D01*
X43930850Y-32406398D01*
X43928000Y-32436788D01*
X42712500Y-32436788D01*
X42712500Y-30930565D01*
X43928000Y-30930565D01*
X43928000Y-30975999D01*
X43928001Y-30976000D01*
X44377999Y-30976000D01*
X44378000Y-30975999D01*
X44378000Y-30501001D01*
X44878000Y-30501001D01*
X44878000Y-30975999D01*
X44878001Y-30976000D01*
X45327998Y-30976000D01*
X45327999Y-30975999D01*
X45327999Y-30930569D01*
X45327998Y-30930563D01*
X45321918Y-30873995D01*
X45321917Y-30873993D01*
X45274185Y-30746016D01*
X45192331Y-30636672D01*
X45192327Y-30636668D01*
X45082983Y-30554814D01*
X44955009Y-30507083D01*
X44955001Y-30507081D01*
X44898434Y-30501000D01*
X44878001Y-30501000D01*
X44878000Y-30501001D01*
X44378000Y-30501001D01*
X44378000Y-30500999D01*
X44357571Y-30501000D01*
X44357562Y-30501001D01*
X44300994Y-30507081D01*
X44300993Y-30507082D01*
X44173016Y-30554814D01*
X44063672Y-30636668D01*
X44063668Y-30636672D01*
X43981814Y-30746016D01*
X43934083Y-30873990D01*
X43934081Y-30873998D01*
X43928000Y-30930565D01*
X42712500Y-30930565D01*
X42712500Y-27175293D01*
X43061983Y-27175293D01*
X43062481Y-27222880D01*
X43066470Y-27270386D01*
X43070446Y-27317724D01*
X43070904Y-27320431D01*
X43086316Y-27411561D01*
X43109987Y-27503754D01*
X43109990Y-27503763D01*
X43141284Y-27593628D01*
X43141284Y-27593629D01*
X43141287Y-27593637D01*
X43141288Y-27593638D01*
X43180000Y-27680586D01*
X43225852Y-27763990D01*
X43227650Y-27766696D01*
X43278522Y-27843266D01*
X43280668Y-27845973D01*
X43337641Y-27917854D01*
X43392174Y-27975926D01*
X43402791Y-27987232D01*
X43402805Y-27987245D01*
X43405811Y-27989952D01*
X43473524Y-28050921D01*
X43512476Y-28080487D01*
X43549336Y-28108466D01*
X43629684Y-28159457D01*
X43629691Y-28159460D01*
X43629695Y-28159463D01*
X43714041Y-28203558D01*
X43801781Y-28240440D01*
X43892300Y-28269852D01*
X43984962Y-28291585D01*
X44079118Y-28305489D01*
X44174107Y-28311465D01*
X44269262Y-28309472D01*
X44363918Y-28299523D01*
X44457409Y-28281689D01*
X44549080Y-28256094D01*
X44638287Y-28222918D01*
X44724406Y-28182394D01*
X44806831Y-28134805D01*
X44884985Y-28080487D01*
X44958320Y-28019819D01*
X45026322Y-27953227D01*
X45088512Y-27881179D01*
X45144456Y-27804179D01*
X45193760Y-27722768D01*
X45236079Y-27637517D01*
X45271116Y-27549024D01*
X45298625Y-27457910D01*
X45318413Y-27364813D01*
X45330342Y-27270386D01*
X45334328Y-27175293D01*
X45330342Y-27080200D01*
X45318413Y-26985773D01*
X45298625Y-26892676D01*
X45271116Y-26801562D01*
X45236079Y-26713069D01*
X45193760Y-26627818D01*
X45168799Y-26586603D01*
X45144465Y-26546422D01*
X45144456Y-26546407D01*
X45144451Y-26546400D01*
X45088511Y-26469405D01*
X45088505Y-26469398D01*
X45065578Y-26442837D01*
X45026322Y-26397359D01*
X44958320Y-26330767D01*
X44937066Y-26313184D01*
X44884993Y-26270105D01*
X44884988Y-26270101D01*
X44884985Y-26270099D01*
X44806831Y-26215781D01*
X44768815Y-26193832D01*
X44724408Y-26168193D01*
X44638288Y-26127668D01*
X44549087Y-26094494D01*
X44457413Y-26068898D01*
X44457411Y-26068897D01*
X44457409Y-26068897D01*
X44363918Y-26051063D01*
X44363916Y-26051062D01*
X44363913Y-26051062D01*
X44316431Y-26046071D01*
X44269262Y-26041114D01*
X44269256Y-26041113D01*
X44269248Y-26041113D01*
X44174117Y-26039120D01*
X44126612Y-26042109D01*
X44079118Y-26045097D01*
X44079113Y-26045097D01*
X44079108Y-26045098D01*
X43984955Y-26059002D01*
X43892314Y-26080730D01*
X43892306Y-26080732D01*
X43892300Y-26080734D01*
X43849958Y-26094492D01*
X43801786Y-26110144D01*
X43801783Y-26110145D01*
X43801781Y-26110146D01*
X43714041Y-26147028D01*
X43714034Y-26147031D01*
X43714033Y-26147032D01*
X43629690Y-26191125D01*
X43629684Y-26191128D01*
X43549336Y-26242119D01*
X43473515Y-26299672D01*
X43402805Y-26363340D01*
X43402791Y-26363353D01*
X43337641Y-26432732D01*
X43278522Y-26507319D01*
X43225853Y-26586594D01*
X43225848Y-26586603D01*
X43180003Y-26669993D01*
X43180000Y-26669999D01*
X43141284Y-26756956D01*
X43141284Y-26756957D01*
X43109990Y-26846822D01*
X43109987Y-26846831D01*
X43086316Y-26939024D01*
X43070447Y-27032857D01*
X43070445Y-27032869D01*
X43062481Y-27127705D01*
X43061983Y-27175293D01*
X42712500Y-27175293D01*
X42712500Y-24888001D01*
X43991001Y-24888001D01*
X43991001Y-24967203D01*
X43993850Y-24997600D01*
X43993850Y-24997602D01*
X44038654Y-25125647D01*
X44119207Y-25234790D01*
X44119209Y-25234792D01*
X44228352Y-25315345D01*
X44356395Y-25360148D01*
X44386807Y-25363000D01*
X44390999Y-25362999D01*
X44391000Y-25362999D01*
X44391000Y-24888001D01*
X44891000Y-24888001D01*
X44891000Y-25362998D01*
X44891001Y-25362999D01*
X44895203Y-25362999D01*
X44925600Y-25360149D01*
X44925602Y-25360149D01*
X45053647Y-25315345D01*
X45162790Y-25234792D01*
X45162792Y-25234790D01*
X45243345Y-25125647D01*
X45288149Y-24997601D01*
X45290999Y-24967211D01*
X45291000Y-24967210D01*
X45291000Y-24888001D01*
X45290999Y-24888000D01*
X44891001Y-24888000D01*
X44891000Y-24888001D01*
X44391000Y-24888001D01*
X44390999Y-24888000D01*
X43991002Y-24888000D01*
X43991001Y-24888001D01*
X42712500Y-24888001D01*
X42712500Y-24308788D01*
X43991000Y-24308788D01*
X43991000Y-24387999D01*
X43991001Y-24388000D01*
X44390999Y-24388000D01*
X44391000Y-24387999D01*
X44391000Y-23364001D01*
X44891000Y-23364001D01*
X44891000Y-24387999D01*
X44891001Y-24388000D01*
X45290998Y-24388000D01*
X45290999Y-24387999D01*
X45290999Y-24308796D01*
X45288149Y-24278399D01*
X45288149Y-24278397D01*
X45243345Y-24150352D01*
X45162792Y-24041209D01*
X45162790Y-24041207D01*
X45047676Y-23956248D01*
X45049555Y-23953701D01*
X45016486Y-23919653D01*
X45007797Y-23859087D01*
X45036368Y-23804982D01*
X45048163Y-23796412D01*
X45047676Y-23795752D01*
X45162790Y-23710792D01*
X45162792Y-23710790D01*
X45243345Y-23601647D01*
X45288149Y-23473601D01*
X45290999Y-23443211D01*
X45291000Y-23443210D01*
X45291000Y-23364001D01*
X45290999Y-23364000D01*
X44891001Y-23364000D01*
X44891000Y-23364001D01*
X44391000Y-23364001D01*
X44390999Y-23364000D01*
X43991002Y-23364000D01*
X43991001Y-23364001D01*
X43991001Y-23443203D01*
X43993850Y-23473600D01*
X43993850Y-23473602D01*
X44038654Y-23601647D01*
X44119207Y-23710790D01*
X44119209Y-23710792D01*
X44234324Y-23795752D01*
X44232448Y-23798293D01*
X44265529Y-23832380D01*
X44274195Y-23892948D01*
X44245605Y-23947043D01*
X44233839Y-23955591D01*
X44234324Y-23956248D01*
X44119209Y-24041207D01*
X44119207Y-24041209D01*
X44038654Y-24150352D01*
X43993850Y-24278398D01*
X43991000Y-24308788D01*
X42712500Y-24308788D01*
X42712500Y-23322984D01*
X42712681Y-23317007D01*
X42730362Y-23024696D01*
X42730363Y-23024695D01*
X42730362Y-23024688D01*
X42731801Y-23012837D01*
X42773593Y-22784788D01*
X43991000Y-22784788D01*
X43991000Y-22863999D01*
X43991001Y-22864000D01*
X44390999Y-22864000D01*
X44391000Y-22863999D01*
X44391000Y-22389001D01*
X44891000Y-22389001D01*
X44891000Y-22863999D01*
X44891001Y-22864000D01*
X45290998Y-22864000D01*
X45290999Y-22863999D01*
X45290999Y-22784796D01*
X45288149Y-22754399D01*
X45288149Y-22754397D01*
X45243345Y-22626352D01*
X45162792Y-22517209D01*
X45162790Y-22517207D01*
X45053647Y-22436654D01*
X44925601Y-22391850D01*
X44895211Y-22389000D01*
X44891001Y-22389000D01*
X44891000Y-22389001D01*
X44391000Y-22389001D01*
X44391000Y-22389000D01*
X44386806Y-22389001D01*
X44386784Y-22389002D01*
X44356399Y-22391850D01*
X44356397Y-22391850D01*
X44228352Y-22436654D01*
X44119209Y-22517207D01*
X44119207Y-22517209D01*
X44038654Y-22626352D01*
X43993850Y-22754398D01*
X43991000Y-22784788D01*
X42773593Y-22784788D01*
X42784052Y-22727714D01*
X42786912Y-22716113D01*
X42873148Y-22439370D01*
X42877378Y-22428218D01*
X42996350Y-22163873D01*
X43001899Y-22153302D01*
X43151861Y-21905233D01*
X43158632Y-21895423D01*
X43337406Y-21667235D01*
X43345318Y-21658303D01*
X43550303Y-21453318D01*
X43559235Y-21445406D01*
X43787423Y-21266632D01*
X43797233Y-21259861D01*
X44045302Y-21109899D01*
X44055873Y-21104350D01*
X44320218Y-20985378D01*
X44331370Y-20981148D01*
X44608120Y-20894910D01*
X44619714Y-20892052D01*
X44904837Y-20839801D01*
X44916688Y-20838362D01*
X45209008Y-20820681D01*
X45214985Y-20820500D01*
X45277892Y-20820500D01*
X47896194Y-20820500D01*
X47954385Y-20839407D01*
G37*
%TD.AperFunction*%
%TA.AperFunction,Conductor*%
G36*
X47861629Y-63364294D02*
G01*
X47902766Y-63409586D01*
X47911500Y-63450243D01*
X47911500Y-63810260D01*
X47916874Y-63847143D01*
X47921427Y-63878395D01*
X47952514Y-63941983D01*
X47972802Y-63983483D01*
X48055517Y-64066198D01*
X48109285Y-64092483D01*
X48160604Y-64117572D01*
X48160605Y-64117572D01*
X48160607Y-64117573D01*
X48228740Y-64127500D01*
X48228743Y-64127500D01*
X49645256Y-64127500D01*
X49645260Y-64127500D01*
X49709224Y-64118180D01*
X49713390Y-64118893D01*
X49717320Y-64117339D01*
X49743190Y-64123992D01*
X49769532Y-64128500D01*
X49772484Y-64131526D01*
X49776577Y-64132579D01*
X49791974Y-64151506D01*
X49812257Y-64172298D01*
X49815559Y-64179738D01*
X49815857Y-64180492D01*
X49829185Y-64215800D01*
X49831283Y-64219499D01*
X49833824Y-64225924D01*
X49835323Y-64249901D01*
X49840137Y-64273439D01*
X49837198Y-64279903D01*
X49837642Y-64286991D01*
X49824760Y-64307270D01*
X49814821Y-64329141D01*
X49808644Y-64332643D01*
X49804837Y-64338638D01*
X49782493Y-64347473D01*
X49761598Y-64359324D01*
X49751985Y-64359538D01*
X49747939Y-64361139D01*
X49742537Y-64359749D01*
X49726275Y-64360113D01*
X49643484Y-64347000D01*
X49187001Y-64347000D01*
X49187000Y-64347001D01*
X49187000Y-64646999D01*
X49187001Y-64647000D01*
X50001147Y-64647000D01*
X50027210Y-64616484D01*
X50079379Y-64584515D01*
X50132349Y-64586389D01*
X50142644Y-64589645D01*
X50155734Y-64597203D01*
X50226358Y-64616126D01*
X50228467Y-64616794D01*
X50251651Y-64633363D01*
X50275547Y-64648882D01*
X50276372Y-64651031D01*
X50278246Y-64652371D01*
X50287262Y-64679403D01*
X50297473Y-64706003D01*
X50296876Y-64708227D01*
X50297606Y-64710413D01*
X50289012Y-64737579D01*
X50281637Y-64765104D01*
X50279451Y-64767803D01*
X50279152Y-64768749D01*
X50277990Y-64769606D01*
X50268613Y-64781187D01*
X49931798Y-65118003D01*
X49877281Y-65145781D01*
X49861794Y-65147000D01*
X49187001Y-65147000D01*
X49187000Y-65147001D01*
X49187000Y-65446998D01*
X49187001Y-65446999D01*
X49363794Y-65446999D01*
X49421985Y-65465906D01*
X49457949Y-65515406D01*
X49457949Y-65576592D01*
X49433798Y-65616003D01*
X48831298Y-66218504D01*
X48776781Y-66246281D01*
X48761294Y-66247500D01*
X48007294Y-66247500D01*
X47971383Y-66240757D01*
X47491811Y-66054085D01*
X47491811Y-66054086D01*
X47484767Y-66051344D01*
X47456485Y-66035016D01*
X47412622Y-66023262D01*
X47402924Y-66019488D01*
X47399760Y-66018256D01*
X47383125Y-66012591D01*
X47383121Y-66012589D01*
X47383101Y-66012583D01*
X47381480Y-66012107D01*
X47381142Y-66012008D01*
X47375186Y-66010358D01*
X47375189Y-66010358D01*
X47374545Y-66010339D01*
X47351979Y-66007013D01*
X47316475Y-65997500D01*
X47171525Y-65997500D01*
X47115235Y-66012583D01*
X47031510Y-66035017D01*
X46927000Y-66095357D01*
X46867152Y-66108079D01*
X46811256Y-66083192D01*
X46780663Y-66030204D01*
X46778500Y-66009621D01*
X46778500Y-65147000D01*
X47872852Y-65147000D01*
X47876835Y-65172147D01*
X47876836Y-65172151D01*
X47934358Y-65285043D01*
X48023956Y-65374641D01*
X48136848Y-65432163D01*
X48136852Y-65432164D01*
X48230515Y-65446999D01*
X48686998Y-65446999D01*
X48687000Y-65446998D01*
X48687000Y-65147001D01*
X48686999Y-65147000D01*
X47872852Y-65147000D01*
X46778500Y-65147000D01*
X46778500Y-64647000D01*
X47872852Y-64647000D01*
X48686999Y-64647000D01*
X48687000Y-64646999D01*
X48687000Y-64347001D01*
X48686999Y-64347000D01*
X48230516Y-64347000D01*
X48230514Y-64347001D01*
X48136858Y-64361833D01*
X48136848Y-64361836D01*
X48023956Y-64419358D01*
X47934358Y-64508956D01*
X47876836Y-64621848D01*
X47876835Y-64621852D01*
X47872852Y-64647000D01*
X46778500Y-64647000D01*
X46778500Y-63749299D01*
X46797407Y-63691108D01*
X46846907Y-63655144D01*
X46908093Y-63655144D01*
X46927000Y-63663563D01*
X46948511Y-63675982D01*
X46948512Y-63675982D01*
X46948515Y-63675984D01*
X47088525Y-63713500D01*
X47088526Y-63713500D01*
X47233474Y-63713500D01*
X47233475Y-63713500D01*
X47373485Y-63675984D01*
X47373487Y-63675982D01*
X47373489Y-63675982D01*
X47499011Y-63603512D01*
X47499011Y-63603510D01*
X47499015Y-63603509D01*
X47522192Y-63580330D01*
X47525592Y-63577089D01*
X47745939Y-63376957D01*
X47801727Y-63351831D01*
X47861629Y-63364294D01*
G37*
%TD.AperFunction*%
%TA.AperFunction,Conductor*%
G36*
X53343859Y-51484554D02*
G01*
X53355672Y-51494643D01*
X54017905Y-52156876D01*
X54045682Y-52211393D01*
X54036111Y-52271825D01*
X53992847Y-52315089D01*
X53903781Y-52360471D01*
X53808470Y-52455782D01*
X53747283Y-52575867D01*
X53747281Y-52575874D01*
X53731500Y-52675510D01*
X53731500Y-53242489D01*
X53747281Y-53342125D01*
X53747283Y-53342132D01*
X53802430Y-53450362D01*
X53808472Y-53462220D01*
X53903780Y-53557528D01*
X53903782Y-53557529D01*
X54023867Y-53618716D01*
X54023869Y-53618716D01*
X54023874Y-53618719D01*
X54096268Y-53630185D01*
X54123510Y-53634500D01*
X54123512Y-53634500D01*
X54640490Y-53634500D01*
X54661885Y-53631111D01*
X54740126Y-53618719D01*
X54860220Y-53557528D01*
X54955528Y-53462220D01*
X54968605Y-53436555D01*
X55011870Y-53393290D01*
X55056815Y-53382500D01*
X55608161Y-53382500D01*
X55650000Y-53391776D01*
X55724152Y-53426354D01*
X55724153Y-53426354D01*
X55724155Y-53426355D01*
X55770832Y-53432500D01*
X55770833Y-53432500D01*
X58305938Y-53432500D01*
X58305940Y-53432500D01*
X58352617Y-53426355D01*
X58393071Y-53407491D01*
X58426772Y-53391776D01*
X58468611Y-53382500D01*
X58658967Y-53382500D01*
X58717158Y-53401407D01*
X58728971Y-53411496D01*
X59364504Y-54047029D01*
X59392281Y-54101546D01*
X59393500Y-54117033D01*
X59393500Y-64587500D01*
X59374593Y-64645691D01*
X59325093Y-64681655D01*
X59294500Y-64686500D01*
X57366272Y-64686500D01*
X57308081Y-64667593D01*
X57278063Y-64632446D01*
X57265152Y-64607107D01*
X57240528Y-64558780D01*
X57145220Y-64463472D01*
X57145217Y-64463470D01*
X57025132Y-64402283D01*
X57025127Y-64402281D01*
X57025126Y-64402281D01*
X56988626Y-64396500D01*
X56925490Y-64386500D01*
X56925488Y-64386500D01*
X56358512Y-64386500D01*
X56358510Y-64386500D01*
X56258874Y-64402281D01*
X56258867Y-64402283D01*
X56138782Y-64463470D01*
X56138778Y-64463473D01*
X56084747Y-64517504D01*
X56030230Y-64545281D01*
X56014744Y-64546500D01*
X55198188Y-64546500D01*
X55139997Y-64527593D01*
X55128190Y-64517509D01*
X55068483Y-64457802D01*
X55043237Y-64445460D01*
X54963395Y-64406427D01*
X54934937Y-64402281D01*
X54895260Y-64396500D01*
X53478740Y-64396500D01*
X53413567Y-64405995D01*
X53410600Y-64406428D01*
X53403258Y-64408697D01*
X53402309Y-64405625D01*
X53390404Y-64411907D01*
X53373315Y-64409449D01*
X53356216Y-64411831D01*
X53343786Y-64405202D01*
X53329842Y-64403197D01*
X53317460Y-64391163D01*
X53302227Y-64383040D01*
X53285965Y-64360553D01*
X53285429Y-64359538D01*
X53211516Y-64219443D01*
X53201085Y-64159153D01*
X53228084Y-64104246D01*
X53282199Y-64075695D01*
X53342557Y-64084305D01*
X53410607Y-64117573D01*
X53478740Y-64127500D01*
X53478743Y-64127500D01*
X54895257Y-64127500D01*
X54895260Y-64127500D01*
X54963393Y-64117573D01*
X55068483Y-64066198D01*
X55151198Y-63983483D01*
X55151423Y-63983021D01*
X55151819Y-63982612D01*
X55155965Y-63976806D01*
X55156835Y-63977427D01*
X55193965Y-63939047D01*
X55240365Y-63927500D01*
X55295063Y-63927500D01*
X55295063Y-63927499D01*
X55371489Y-63907021D01*
X55440011Y-63867460D01*
X55467985Y-63839485D01*
X55495961Y-63811511D01*
X55747996Y-63559475D01*
X55802513Y-63531697D01*
X55862945Y-63541268D01*
X55906210Y-63584533D01*
X55917000Y-63629477D01*
X55917000Y-63757430D01*
X55917001Y-63757436D01*
X55923081Y-63814004D01*
X55923082Y-63814006D01*
X55970814Y-63941983D01*
X56052668Y-64051327D01*
X56052672Y-64051331D01*
X56162016Y-64133185D01*
X56289990Y-64180916D01*
X56289998Y-64180918D01*
X56346566Y-64186999D01*
X56392000Y-64186998D01*
X56392000Y-63737001D01*
X56892000Y-63737001D01*
X56892000Y-64186998D01*
X56892001Y-64186999D01*
X56937431Y-64186999D01*
X56937436Y-64186998D01*
X56994004Y-64180918D01*
X56994006Y-64180917D01*
X57121983Y-64133185D01*
X57231327Y-64051331D01*
X57231331Y-64051327D01*
X57313185Y-63941983D01*
X57360916Y-63814009D01*
X57360918Y-63814001D01*
X57367000Y-63757434D01*
X57367000Y-63737001D01*
X57366999Y-63737000D01*
X56892001Y-63737000D01*
X56892000Y-63737001D01*
X56392000Y-63737001D01*
X56392000Y-62787001D01*
X56892000Y-62787001D01*
X56892000Y-63236999D01*
X56892001Y-63237000D01*
X57366998Y-63237000D01*
X57366999Y-63236999D01*
X57366999Y-63216569D01*
X57366998Y-63216563D01*
X57360918Y-63159995D01*
X57360917Y-63159993D01*
X57313185Y-63032016D01*
X57231331Y-62922672D01*
X57231327Y-62922668D01*
X57121983Y-62840814D01*
X56994009Y-62793083D01*
X56994001Y-62793081D01*
X56937434Y-62787000D01*
X56892001Y-62787000D01*
X56892000Y-62787001D01*
X56392000Y-62787001D01*
X56392000Y-62786999D01*
X56346569Y-62787000D01*
X56346563Y-62787001D01*
X56289994Y-62793081D01*
X56289993Y-62793082D01*
X56162016Y-62840814D01*
X56084828Y-62898597D01*
X56026913Y-62918333D01*
X55968459Y-62900258D01*
X55931792Y-62851277D01*
X55926500Y-62819343D01*
X55926500Y-60666439D01*
X55926500Y-60666438D01*
X55924315Y-60658284D01*
X55906022Y-60590012D01*
X55906019Y-60590006D01*
X55866463Y-60521493D01*
X55866461Y-60521491D01*
X55866460Y-60521489D01*
X55048511Y-59703540D01*
X55036888Y-59696830D01*
X55005139Y-59678499D01*
X55005138Y-59678499D01*
X54979988Y-59663978D01*
X54903564Y-59643500D01*
X54903562Y-59643500D01*
X53284290Y-59643500D01*
X53226099Y-59624593D01*
X53190135Y-59575093D01*
X53190135Y-59513907D01*
X53204635Y-59485711D01*
X53256345Y-59415647D01*
X53301149Y-59287601D01*
X53303999Y-59257211D01*
X53304000Y-59257210D01*
X53304000Y-59178001D01*
X53303999Y-59178000D01*
X52004002Y-59178000D01*
X52004001Y-59178001D01*
X52004001Y-59257203D01*
X52006850Y-59287600D01*
X52006850Y-59287602D01*
X52051654Y-59415647D01*
X52103365Y-59485711D01*
X52122707Y-59543759D01*
X52104236Y-59602090D01*
X52055007Y-59638423D01*
X52023710Y-59643500D01*
X51568899Y-59643500D01*
X51510708Y-59624593D01*
X51474744Y-59575093D01*
X51474744Y-59513907D01*
X51498893Y-59474498D01*
X51532050Y-59441342D01*
X51589646Y-59328304D01*
X51604500Y-59234519D01*
X51604499Y-58924001D01*
X55155001Y-58924001D01*
X55155001Y-58928203D01*
X55157850Y-58958600D01*
X55157850Y-58958602D01*
X55202654Y-59086647D01*
X55283207Y-59195790D01*
X55283209Y-59195792D01*
X55392352Y-59276345D01*
X55520398Y-59321149D01*
X55550788Y-59323998D01*
X55630000Y-59323998D01*
X55630000Y-58924001D01*
X56130000Y-58924001D01*
X56130000Y-59323998D01*
X56130001Y-59323999D01*
X56209203Y-59323999D01*
X56239600Y-59321149D01*
X56239602Y-59321149D01*
X56367647Y-59276345D01*
X56476790Y-59195792D01*
X56476792Y-59195790D01*
X56557345Y-59086647D01*
X56602149Y-58958601D01*
X56604999Y-58928211D01*
X56605000Y-58928210D01*
X56605000Y-58924001D01*
X56604999Y-58924000D01*
X56130001Y-58924000D01*
X56130000Y-58924001D01*
X55630000Y-58924001D01*
X55629999Y-58924000D01*
X55155002Y-58924000D01*
X55155001Y-58924001D01*
X51604499Y-58924001D01*
X51604499Y-58621482D01*
X51602992Y-58611966D01*
X51602992Y-58611963D01*
X51600905Y-58598788D01*
X52004000Y-58598788D01*
X52004000Y-58677999D01*
X52004001Y-58678000D01*
X52403999Y-58678000D01*
X52404000Y-58677999D01*
X52404000Y-58203001D01*
X52904000Y-58203001D01*
X52904000Y-58677999D01*
X52904001Y-58678000D01*
X53303998Y-58678000D01*
X53303999Y-58677999D01*
X53303999Y-58598796D01*
X53301149Y-58568399D01*
X53301148Y-58568393D01*
X53259784Y-58450180D01*
X53259783Y-58450179D01*
X53259783Y-58450178D01*
X53256345Y-58440353D01*
X53241167Y-58419788D01*
X55155000Y-58419788D01*
X55155000Y-58423999D01*
X55155001Y-58424000D01*
X55629999Y-58424000D01*
X55630000Y-58423999D01*
X55630000Y-58024001D01*
X56130000Y-58024001D01*
X56130000Y-58423999D01*
X56130001Y-58424000D01*
X56604998Y-58424000D01*
X56604999Y-58423999D01*
X56604999Y-58419796D01*
X56602149Y-58389399D01*
X56602149Y-58389397D01*
X56557345Y-58261352D01*
X56476792Y-58152209D01*
X56476790Y-58152207D01*
X56367647Y-58071654D01*
X56239601Y-58026850D01*
X56209211Y-58024000D01*
X56130001Y-58024000D01*
X56130000Y-58024001D01*
X55630000Y-58024001D01*
X55630000Y-58023999D01*
X55550797Y-58024000D01*
X55520399Y-58026850D01*
X55520397Y-58026850D01*
X55392352Y-58071654D01*
X55283209Y-58152207D01*
X55283207Y-58152209D01*
X55202654Y-58261352D01*
X55157850Y-58389398D01*
X55155000Y-58419788D01*
X53241167Y-58419788D01*
X53175792Y-58331209D01*
X53175790Y-58331207D01*
X53066647Y-58250654D01*
X52938601Y-58205850D01*
X52908211Y-58203000D01*
X52904001Y-58203000D01*
X52904000Y-58203001D01*
X52404000Y-58203001D01*
X52404000Y-58203000D01*
X52399806Y-58203001D01*
X52399784Y-58203002D01*
X52369399Y-58205850D01*
X52369397Y-58205850D01*
X52241352Y-58250654D01*
X52132209Y-58331207D01*
X52132207Y-58331209D01*
X52051654Y-58440352D01*
X52006850Y-58568398D01*
X52004000Y-58598788D01*
X51600905Y-58598788D01*
X51589647Y-58527699D01*
X51589646Y-58527697D01*
X51589646Y-58527696D01*
X51532050Y-58414658D01*
X51442342Y-58324950D01*
X51329304Y-58267354D01*
X51329305Y-58267354D01*
X51235522Y-58252500D01*
X50772479Y-58252500D01*
X50772476Y-58252501D01*
X50678700Y-58267352D01*
X50678695Y-58267354D01*
X50565659Y-58324949D01*
X50475949Y-58414659D01*
X50418354Y-58527695D01*
X50415774Y-58543986D01*
X50387997Y-58598503D01*
X50333481Y-58626281D01*
X50317993Y-58627500D01*
X50038008Y-58627500D01*
X49979817Y-58608593D01*
X49943853Y-58559093D01*
X49940227Y-58543987D01*
X49937647Y-58527699D01*
X49937646Y-58527697D01*
X49937646Y-58527696D01*
X49880050Y-58414658D01*
X49790342Y-58324950D01*
X49756554Y-58307734D01*
X49677306Y-58267354D01*
X49670908Y-58265276D01*
X49621408Y-58229313D01*
X49602500Y-58171122D01*
X49602500Y-57899747D01*
X49621407Y-57841556D01*
X49656555Y-57811537D01*
X49660121Y-57809719D01*
X49660126Y-57809719D01*
X49780220Y-57748528D01*
X49875528Y-57653220D01*
X49936719Y-57533126D01*
X49936719Y-57533119D01*
X49939126Y-57525718D01*
X49940567Y-57526186D01*
X49964351Y-57479501D01*
X50018866Y-57451720D01*
X50034359Y-57450500D01*
X50331563Y-57450500D01*
X50331563Y-57450499D01*
X50407989Y-57430021D01*
X50476511Y-57390460D01*
X50532460Y-57334511D01*
X50646475Y-57220496D01*
X50653592Y-57216869D01*
X50658288Y-57210407D01*
X50680336Y-57203243D01*
X50700992Y-57192719D01*
X50716479Y-57191500D01*
X50723635Y-57191500D01*
X50781826Y-57210407D01*
X50807610Y-57241108D01*
X50808035Y-57240806D01*
X50811884Y-57246197D01*
X50812576Y-57247020D01*
X50812802Y-57247483D01*
X50895517Y-57330198D01*
X50949285Y-57356483D01*
X51000604Y-57381572D01*
X51000605Y-57381572D01*
X51000607Y-57381573D01*
X51068740Y-57391500D01*
X51068743Y-57391500D01*
X52160257Y-57391500D01*
X52160260Y-57391500D01*
X52228393Y-57381573D01*
X52333483Y-57330198D01*
X52416198Y-57247483D01*
X52467573Y-57142393D01*
X52477500Y-57074260D01*
X52477500Y-56983132D01*
X52496407Y-56924941D01*
X52545907Y-56888977D01*
X52607093Y-56888977D01*
X52646501Y-56913126D01*
X52864835Y-57131460D01*
X52864837Y-57131461D01*
X52864839Y-57131463D01*
X52933354Y-57171020D01*
X52933352Y-57171020D01*
X52933356Y-57171021D01*
X52933358Y-57171022D01*
X53009784Y-57191500D01*
X53009787Y-57191500D01*
X53011235Y-57191691D01*
X53012178Y-57192141D01*
X53016052Y-57193179D01*
X53015859Y-57193896D01*
X53066460Y-57218031D01*
X53087254Y-57246363D01*
X53087802Y-57247483D01*
X53170517Y-57330198D01*
X53224285Y-57356483D01*
X53275604Y-57381572D01*
X53275605Y-57381572D01*
X53275607Y-57381573D01*
X53343740Y-57391500D01*
X53343743Y-57391500D01*
X54435257Y-57391500D01*
X54435260Y-57391500D01*
X54503393Y-57381573D01*
X54608483Y-57330198D01*
X54670852Y-57267828D01*
X54725366Y-57240052D01*
X54785798Y-57249623D01*
X54801783Y-57261232D01*
X54802339Y-57260509D01*
X54807487Y-57264459D01*
X54876007Y-57304019D01*
X54876011Y-57304021D01*
X54952435Y-57324499D01*
X54952437Y-57324500D01*
X54952438Y-57324500D01*
X55146049Y-57324500D01*
X55204240Y-57343407D01*
X55234257Y-57378552D01*
X55276950Y-57462342D01*
X55366658Y-57552050D01*
X55479696Y-57609646D01*
X55573481Y-57624500D01*
X56186518Y-57624499D01*
X56186520Y-57624499D01*
X56186521Y-57624498D01*
X56233411Y-57617072D01*
X56280299Y-57609647D01*
X56280299Y-57609646D01*
X56280304Y-57609646D01*
X56393342Y-57552050D01*
X56483050Y-57462342D01*
X56540646Y-57349304D01*
X56555500Y-57255519D01*
X56555499Y-56792482D01*
X56543182Y-56714709D01*
X56540647Y-56698700D01*
X56540646Y-56698698D01*
X56540646Y-56698696D01*
X56483050Y-56585658D01*
X56393342Y-56495950D01*
X56280304Y-56438354D01*
X56280305Y-56438354D01*
X56186522Y-56423500D01*
X55573479Y-56423500D01*
X55573476Y-56423501D01*
X55479700Y-56438352D01*
X55479695Y-56438354D01*
X55366659Y-56495949D01*
X55276949Y-56585659D01*
X55238115Y-56661874D01*
X55194850Y-56705138D01*
X55134418Y-56714709D01*
X55079904Y-56686933D01*
X55043511Y-56650540D01*
X55037002Y-56646782D01*
X55005267Y-56628459D01*
X55005267Y-56628460D01*
X54974989Y-56610979D01*
X54974988Y-56610978D01*
X54974987Y-56610978D01*
X54898564Y-56590500D01*
X54898562Y-56590500D01*
X54780365Y-56590500D01*
X54722174Y-56571593D01*
X54703316Y-56553665D01*
X54696319Y-56544993D01*
X54691198Y-56534517D01*
X54673953Y-56517272D01*
X54670641Y-56513167D01*
X54661519Y-56489276D01*
X54649909Y-56466489D01*
X54650762Y-56461101D01*
X54648817Y-56456007D01*
X54655479Y-56431319D01*
X54659480Y-56406057D01*
X54663960Y-56399890D01*
X54664758Y-56396934D01*
X54668021Y-56394300D01*
X54677687Y-56380998D01*
X54729639Y-56329046D01*
X54729640Y-56329044D01*
X54787163Y-56216151D01*
X54787164Y-56216147D01*
X54791148Y-56191000D01*
X52987851Y-56191000D01*
X52959041Y-56224732D01*
X52906871Y-56256701D01*
X52845874Y-56251900D01*
X52813757Y-56230440D01*
X52274317Y-55691000D01*
X52987852Y-55691000D01*
X54791148Y-55691000D01*
X54787164Y-55665852D01*
X54787162Y-55665845D01*
X54746196Y-55585445D01*
X54736624Y-55525013D01*
X54764401Y-55470497D01*
X54818918Y-55442719D01*
X54834405Y-55441500D01*
X55400492Y-55441500D01*
X55458683Y-55460407D01*
X55488720Y-55501750D01*
X55490830Y-55500767D01*
X55541796Y-55610064D01*
X55541797Y-55610065D01*
X55541798Y-55610067D01*
X55621719Y-55689988D01*
X55621720Y-55689988D01*
X55621721Y-55689989D01*
X55724152Y-55737754D01*
X55724153Y-55737754D01*
X55724155Y-55737755D01*
X55770832Y-55743900D01*
X55770833Y-55743900D01*
X58305938Y-55743900D01*
X58305940Y-55743900D01*
X58352617Y-55737755D01*
X58455053Y-55689988D01*
X58534974Y-55610067D01*
X58582741Y-55507631D01*
X58588886Y-55460954D01*
X58588886Y-54825846D01*
X58582741Y-54779169D01*
X58564291Y-54739604D01*
X58534975Y-54676735D01*
X58534974Y-54676734D01*
X58534974Y-54676733D01*
X58455053Y-54596812D01*
X58455051Y-54596811D01*
X58455050Y-54596810D01*
X58352619Y-54549045D01*
X58321499Y-54544948D01*
X58305940Y-54542900D01*
X58305939Y-54542900D01*
X56967285Y-54542900D01*
X56951791Y-54540860D01*
X56951727Y-54541347D01*
X56945295Y-54540500D01*
X56945294Y-54540500D01*
X54608268Y-54540500D01*
X54564788Y-54530441D01*
X54515672Y-54506430D01*
X54503393Y-54500427D01*
X54435260Y-54490500D01*
X53343740Y-54490500D01*
X53309673Y-54495463D01*
X53275604Y-54500427D01*
X53170518Y-54551801D01*
X53087801Y-54634518D01*
X53036427Y-54739604D01*
X53036427Y-54739607D01*
X53026500Y-54807740D01*
X53026500Y-55174260D01*
X53033118Y-55219682D01*
X53036427Y-55242395D01*
X53087801Y-55347481D01*
X53087802Y-55347483D01*
X53101314Y-55360995D01*
X53129090Y-55415510D01*
X53119519Y-55475942D01*
X53101313Y-55501000D01*
X53049360Y-55552953D01*
X53049359Y-55552955D01*
X52991836Y-55665848D01*
X52991835Y-55665852D01*
X52987852Y-55691000D01*
X52274317Y-55691000D01*
X52216622Y-55633305D01*
X52188845Y-55578788D01*
X52198416Y-55518356D01*
X52241681Y-55475091D01*
X52243071Y-55474397D01*
X52333483Y-55430198D01*
X52416198Y-55347483D01*
X52467573Y-55242393D01*
X52477500Y-55174260D01*
X52477500Y-54807740D01*
X52467573Y-54739607D01*
X52416198Y-54634517D01*
X52333483Y-54551802D01*
X52333481Y-54551801D01*
X52228395Y-54500427D01*
X52201139Y-54496456D01*
X52160260Y-54490500D01*
X52160257Y-54490500D01*
X51276922Y-54490500D01*
X51218731Y-54471593D01*
X51206918Y-54461504D01*
X50549036Y-53803622D01*
X50521259Y-53749105D01*
X50530830Y-53688673D01*
X50574095Y-53645408D01*
X50634527Y-53635837D01*
X50653637Y-53640860D01*
X50752990Y-53677916D01*
X50752998Y-53677918D01*
X50809566Y-53683999D01*
X50830000Y-53683998D01*
X50830000Y-53209001D01*
X51330000Y-53209001D01*
X51330000Y-53683998D01*
X51330001Y-53683999D01*
X51350431Y-53683999D01*
X51350436Y-53683998D01*
X51407004Y-53677918D01*
X51407006Y-53677917D01*
X51534983Y-53630185D01*
X51644327Y-53548331D01*
X51644331Y-53548327D01*
X51726185Y-53438983D01*
X51773916Y-53311009D01*
X51773918Y-53311001D01*
X51780000Y-53254434D01*
X51780000Y-53209001D01*
X52132001Y-53209001D01*
X52132001Y-53254436D01*
X52138081Y-53311004D01*
X52138082Y-53311006D01*
X52185814Y-53438983D01*
X52267668Y-53548327D01*
X52267672Y-53548331D01*
X52377016Y-53630185D01*
X52504990Y-53677916D01*
X52504998Y-53677918D01*
X52561566Y-53683999D01*
X52582000Y-53683998D01*
X52582000Y-53209001D01*
X53082000Y-53209001D01*
X53082000Y-53683998D01*
X53082001Y-53683999D01*
X53102431Y-53683999D01*
X53102436Y-53683998D01*
X53159004Y-53677918D01*
X53159006Y-53677917D01*
X53286983Y-53630185D01*
X53396327Y-53548331D01*
X53396331Y-53548327D01*
X53478185Y-53438983D01*
X53525916Y-53311009D01*
X53525918Y-53311001D01*
X53532000Y-53254434D01*
X53532000Y-53209001D01*
X53531999Y-53209000D01*
X53082001Y-53209000D01*
X53082000Y-53209001D01*
X52582000Y-53209001D01*
X52581999Y-53209000D01*
X52132002Y-53209000D01*
X52132001Y-53209001D01*
X51780000Y-53209001D01*
X51779999Y-53209000D01*
X51330001Y-53209000D01*
X51330000Y-53209001D01*
X50830000Y-53209001D01*
X50829999Y-53209000D01*
X50380002Y-53209000D01*
X50380001Y-53209001D01*
X50380001Y-53254436D01*
X50386081Y-53311004D01*
X50386082Y-53311009D01*
X50423139Y-53410363D01*
X50423571Y-53420463D01*
X50428162Y-53429472D01*
X50424853Y-53450362D01*
X50425759Y-53471492D01*
X50420172Y-53479917D01*
X50418591Y-53489904D01*
X50403635Y-53504859D01*
X50391948Y-53522487D01*
X50382474Y-53526020D01*
X50375326Y-53533169D01*
X50354435Y-53536477D01*
X50334620Y-53543868D01*
X50324879Y-53541158D01*
X50314894Y-53542740D01*
X50296048Y-53533138D01*
X50275673Y-53527470D01*
X50260377Y-53514963D01*
X50188689Y-53443275D01*
X50160912Y-53388758D01*
X50163972Y-53349896D01*
X50163500Y-53349822D01*
X50164451Y-53343812D01*
X50164542Y-53342668D01*
X50164714Y-53342134D01*
X50164719Y-53342126D01*
X50180500Y-53242488D01*
X50180500Y-52675512D01*
X50180384Y-52674782D01*
X50178608Y-52663565D01*
X50380000Y-52663565D01*
X50380000Y-52708999D01*
X50380001Y-52709000D01*
X50829999Y-52709000D01*
X50830000Y-52708999D01*
X50830000Y-52234001D01*
X51330000Y-52234001D01*
X51330000Y-52708999D01*
X51330001Y-52709000D01*
X51779998Y-52709000D01*
X51779999Y-52708999D01*
X51779999Y-52663569D01*
X51779998Y-52663565D01*
X52132000Y-52663565D01*
X52132000Y-52708999D01*
X52132001Y-52709000D01*
X52581999Y-52709000D01*
X52582000Y-52708999D01*
X52582000Y-52234001D01*
X53082000Y-52234001D01*
X53082000Y-52708999D01*
X53082001Y-52709000D01*
X53531998Y-52709000D01*
X53531999Y-52708999D01*
X53531999Y-52663569D01*
X53531998Y-52663563D01*
X53525918Y-52606995D01*
X53525917Y-52606993D01*
X53478185Y-52479016D01*
X53396331Y-52369672D01*
X53396327Y-52369668D01*
X53286983Y-52287814D01*
X53159009Y-52240083D01*
X53159001Y-52240081D01*
X53102434Y-52234000D01*
X53082001Y-52234000D01*
X53082000Y-52234001D01*
X52582000Y-52234001D01*
X52582000Y-52233999D01*
X52561571Y-52234000D01*
X52561562Y-52234001D01*
X52504994Y-52240081D01*
X52504993Y-52240082D01*
X52377016Y-52287814D01*
X52267672Y-52369668D01*
X52267668Y-52369672D01*
X52185814Y-52479016D01*
X52138083Y-52606990D01*
X52138081Y-52606998D01*
X52132000Y-52663565D01*
X51779998Y-52663565D01*
X51779998Y-52663562D01*
X51773918Y-52606995D01*
X51773917Y-52606993D01*
X51726185Y-52479016D01*
X51644331Y-52369672D01*
X51644327Y-52369668D01*
X51534983Y-52287814D01*
X51407009Y-52240083D01*
X51407001Y-52240081D01*
X51350434Y-52234000D01*
X51330001Y-52234000D01*
X51330000Y-52234001D01*
X50830000Y-52234001D01*
X50830000Y-52233999D01*
X50809571Y-52234000D01*
X50809562Y-52234001D01*
X50752994Y-52240081D01*
X50752993Y-52240082D01*
X50625016Y-52287814D01*
X50515672Y-52369668D01*
X50515668Y-52369672D01*
X50433814Y-52479016D01*
X50386083Y-52606990D01*
X50386081Y-52606998D01*
X50380000Y-52663565D01*
X50178608Y-52663565D01*
X50173266Y-52629837D01*
X50164719Y-52575874D01*
X50164716Y-52575869D01*
X50164716Y-52575867D01*
X50103529Y-52455782D01*
X50103528Y-52455780D01*
X50088930Y-52441182D01*
X50061155Y-52386668D01*
X50060263Y-52363150D01*
X50077061Y-52156876D01*
X50085209Y-52056822D01*
X50085739Y-52056865D01*
X50087348Y-52044535D01*
X50087273Y-52044526D01*
X50088120Y-52038095D01*
X50088120Y-51893145D01*
X50050604Y-51753135D01*
X50050602Y-51753132D01*
X50050602Y-51753130D01*
X49978134Y-51627612D01*
X49976067Y-51624919D01*
X49975254Y-51622625D01*
X49974885Y-51621985D01*
X49975003Y-51621916D01*
X49955640Y-51567244D01*
X49973014Y-51508577D01*
X50021554Y-51471327D01*
X50054606Y-51465647D01*
X53285668Y-51465647D01*
X53343859Y-51484554D01*
G37*
%TD.AperFunction*%
%TA.AperFunction,Conductor*%
G36*
X48809103Y-53194007D02*
G01*
X48817093Y-53194007D01*
X48835850Y-53207635D01*
X48856503Y-53218158D01*
X48860129Y-53225274D01*
X48866593Y-53229971D01*
X48884281Y-53272675D01*
X48895281Y-53342125D01*
X48895283Y-53342132D01*
X48956470Y-53462217D01*
X48956473Y-53462221D01*
X49002308Y-53508057D01*
X49027931Y-53552437D01*
X49063609Y-53685590D01*
X49129496Y-53799709D01*
X49129497Y-53799710D01*
X49129498Y-53799711D01*
X49129500Y-53799714D01*
X50628100Y-55298314D01*
X50628099Y-55298314D01*
X50677267Y-55347481D01*
X50721286Y-55391500D01*
X50754713Y-55410799D01*
X50835414Y-55457392D01*
X50962707Y-55491500D01*
X50962708Y-55491500D01*
X51068740Y-55491500D01*
X51236905Y-55491500D01*
X51295096Y-55510407D01*
X51324977Y-55545286D01*
X51329799Y-55554680D01*
X51334479Y-55572143D01*
X51371931Y-55637012D01*
X51374040Y-55640665D01*
X51670881Y-55937506D01*
X51954871Y-56221496D01*
X51982648Y-56276013D01*
X51973077Y-56336445D01*
X51929812Y-56379710D01*
X51884867Y-56390500D01*
X51068740Y-56390500D01*
X51034673Y-56395463D01*
X51000604Y-56400427D01*
X50895518Y-56451801D01*
X50812801Y-56534518D01*
X50812577Y-56534978D01*
X50812180Y-56535387D01*
X50808035Y-56541194D01*
X50807164Y-56540572D01*
X50770035Y-56578953D01*
X50723635Y-56590500D01*
X50511435Y-56590500D01*
X50435012Y-56610978D01*
X50404733Y-56628460D01*
X50404732Y-56628459D01*
X50366488Y-56650540D01*
X50196524Y-56820504D01*
X50189407Y-56824129D01*
X50184712Y-56830593D01*
X50162662Y-56837757D01*
X50142008Y-56848281D01*
X50126521Y-56849500D01*
X50034359Y-56849500D01*
X49976168Y-56830593D01*
X49940204Y-56781093D01*
X49936995Y-56767724D01*
X49936719Y-56766878D01*
X49936719Y-56766874D01*
X49875528Y-56646780D01*
X49780220Y-56551472D01*
X49780217Y-56551470D01*
X49660132Y-56490283D01*
X49660127Y-56490281D01*
X49660126Y-56490281D01*
X49626913Y-56485020D01*
X49560490Y-56474500D01*
X49560488Y-56474500D01*
X49043512Y-56474500D01*
X49043510Y-56474500D01*
X48943874Y-56490281D01*
X48943867Y-56490283D01*
X48823782Y-56551470D01*
X48728470Y-56646782D01*
X48667283Y-56766867D01*
X48667281Y-56766874D01*
X48651500Y-56866510D01*
X48651500Y-57433489D01*
X48667281Y-57533125D01*
X48667283Y-57533132D01*
X48713838Y-57624500D01*
X48728472Y-57653220D01*
X48823780Y-57748528D01*
X48943874Y-57809719D01*
X48943878Y-57809719D01*
X48947445Y-57811537D01*
X48990709Y-57854802D01*
X49001500Y-57899747D01*
X49001500Y-58219525D01*
X48982593Y-58277716D01*
X48947446Y-58307734D01*
X48913659Y-58324949D01*
X48823949Y-58414659D01*
X48766354Y-58527695D01*
X48751500Y-58621477D01*
X48751500Y-59234520D01*
X48751501Y-59234523D01*
X48766352Y-59328299D01*
X48766354Y-59328304D01*
X48823950Y-59441342D01*
X48857106Y-59474498D01*
X48884882Y-59529013D01*
X48875311Y-59589445D01*
X48832046Y-59632710D01*
X48787101Y-59643500D01*
X48266899Y-59643500D01*
X48208708Y-59624593D01*
X48172744Y-59575093D01*
X48172744Y-59513907D01*
X48196893Y-59474498D01*
X48230050Y-59441342D01*
X48287646Y-59328304D01*
X48302500Y-59234519D01*
X48302499Y-58621482D01*
X48294091Y-58568393D01*
X48287647Y-58527700D01*
X48287646Y-58527698D01*
X48287646Y-58527696D01*
X48230050Y-58414658D01*
X48140342Y-58324950D01*
X48106554Y-58307734D01*
X48063290Y-58264469D01*
X48052500Y-58219525D01*
X48052500Y-57899747D01*
X48071407Y-57841556D01*
X48106555Y-57811537D01*
X48110121Y-57809719D01*
X48110126Y-57809719D01*
X48230220Y-57748528D01*
X48325528Y-57653220D01*
X48386719Y-57533126D01*
X48402500Y-57433488D01*
X48402500Y-56866512D01*
X48386719Y-56766874D01*
X48386716Y-56766869D01*
X48386716Y-56766867D01*
X48325529Y-56646782D01*
X48325528Y-56646780D01*
X48230220Y-56551472D01*
X48208057Y-56540179D01*
X48164796Y-56496918D01*
X48155224Y-56436486D01*
X48183001Y-56381969D01*
X48348823Y-56216147D01*
X48627460Y-55937511D01*
X48667022Y-55868988D01*
X48687500Y-55792562D01*
X48687500Y-55713438D01*
X48687500Y-53288162D01*
X48694663Y-53266114D01*
X48698290Y-53243217D01*
X48703938Y-53237568D01*
X48706407Y-53229971D01*
X48725165Y-53216342D01*
X48741555Y-53199953D01*
X48749442Y-53198703D01*
X48755907Y-53194007D01*
X48779095Y-53194007D01*
X48801987Y-53190381D01*
X48809103Y-53194007D01*
G37*
%TD.AperFunction*%
%TA.AperFunction,Conductor*%
G36*
X52923745Y-26668834D02*
G01*
X52948800Y-26687037D01*
X52982589Y-26720826D01*
X53095175Y-26775866D01*
X53168164Y-26786500D01*
X53168167Y-26786500D01*
X53589432Y-26786500D01*
X53589436Y-26786500D01*
X53662425Y-26775866D01*
X53775011Y-26720826D01*
X53801119Y-26694717D01*
X53855633Y-26666940D01*
X53916066Y-26676511D01*
X53922801Y-26680280D01*
X53932819Y-26686411D01*
X53960458Y-26714050D01*
X54065101Y-26767368D01*
X54068391Y-26769382D01*
X54070927Y-26772347D01*
X54086716Y-26783819D01*
X54874304Y-27571407D01*
X54902081Y-27625924D01*
X54903300Y-27641411D01*
X54903300Y-30409900D01*
X54884393Y-30468091D01*
X54834893Y-30504055D01*
X54804300Y-30508900D01*
X54495540Y-30508900D01*
X54420216Y-30519874D01*
X54359908Y-30509553D01*
X54317183Y-30465755D01*
X54308363Y-30405209D01*
X54320208Y-30372408D01*
X54350882Y-30319279D01*
X54407205Y-30221726D01*
X54492510Y-30015781D01*
X54550204Y-29800463D01*
X54579300Y-29579457D01*
X54579300Y-29356543D01*
X54550204Y-29135537D01*
X54492510Y-28920219D01*
X54413875Y-28730376D01*
X54407207Y-28714277D01*
X54407204Y-28714272D01*
X54295749Y-28521228D01*
X54295748Y-28521226D01*
X54160047Y-28344376D01*
X54002424Y-28186753D01*
X53825574Y-28051052D01*
X53825571Y-28051050D01*
X53632527Y-27939595D01*
X53632522Y-27939592D01*
X53426582Y-27854290D01*
X53331639Y-27828850D01*
X53211263Y-27796596D01*
X53211260Y-27796595D01*
X53211258Y-27796595D01*
X52990257Y-27767500D01*
X52767343Y-27767500D01*
X52767342Y-27767500D01*
X52546344Y-27796595D01*
X52546339Y-27796595D01*
X52331017Y-27854290D01*
X52125077Y-27939592D01*
X52125072Y-27939595D01*
X51932028Y-28051050D01*
X51755179Y-28186750D01*
X51597550Y-28344379D01*
X51461850Y-28521228D01*
X51350395Y-28714272D01*
X51350392Y-28714277D01*
X51265090Y-28920217D01*
X51207395Y-29135539D01*
X51207395Y-29135544D01*
X51178300Y-29356543D01*
X51178300Y-29579457D01*
X51200145Y-29745390D01*
X51207395Y-29800455D01*
X51207395Y-29800460D01*
X51265090Y-30015782D01*
X51350392Y-30221722D01*
X51350395Y-30221727D01*
X51406717Y-30319279D01*
X51419439Y-30379127D01*
X51394552Y-30435023D01*
X51341564Y-30465616D01*
X51305495Y-30466560D01*
X51260285Y-30459400D01*
X50653801Y-30459400D01*
X50653800Y-30459401D01*
X50653800Y-30759399D01*
X50653801Y-30759400D01*
X51619239Y-30759400D01*
X51668698Y-30729090D01*
X51729695Y-30733889D01*
X51752159Y-30747855D01*
X51752605Y-30747274D01*
X51755174Y-30749245D01*
X51755176Y-30749247D01*
X51932026Y-30884948D01*
X52011043Y-30930569D01*
X52125072Y-30996404D01*
X52125077Y-30996407D01*
X52292979Y-31065953D01*
X52331019Y-31081710D01*
X52546337Y-31139404D01*
X52767343Y-31168500D01*
X52767344Y-31168500D01*
X52990256Y-31168500D01*
X52990257Y-31168500D01*
X53211263Y-31139404D01*
X53426581Y-31081710D01*
X53556447Y-31027917D01*
X53632522Y-30996407D01*
X53632523Y-30996405D01*
X53632526Y-30996405D01*
X53825574Y-30884948D01*
X54002424Y-30749247D01*
X54010418Y-30741252D01*
X54064931Y-30713474D01*
X54125364Y-30723042D01*
X54168630Y-30766305D01*
X54177897Y-30822520D01*
X54178559Y-30822568D01*
X54178359Y-30825320D01*
X54178391Y-30825512D01*
X54178300Y-30826133D01*
X54178300Y-30826140D01*
X54178300Y-31192660D01*
X54183713Y-31229809D01*
X54188227Y-31260795D01*
X54231348Y-31349000D01*
X54239602Y-31365883D01*
X54322317Y-31448598D01*
X54362193Y-31468092D01*
X54427404Y-31499972D01*
X54427405Y-31499972D01*
X54427407Y-31499973D01*
X54495540Y-31509900D01*
X54495543Y-31509900D01*
X56212057Y-31509900D01*
X56212060Y-31509900D01*
X56280193Y-31499973D01*
X56304866Y-31487910D01*
X56329922Y-31484365D01*
X56354423Y-31478038D01*
X56359763Y-31480143D01*
X56365448Y-31479339D01*
X56387802Y-31491198D01*
X56411344Y-31500480D01*
X56413861Y-31505023D01*
X56419499Y-31508014D01*
X56444202Y-31552094D01*
X56447100Y-31563314D01*
X56447100Y-31568475D01*
X56484018Y-31706253D01*
X56484137Y-31706714D01*
X56482289Y-31736763D01*
X56480708Y-31766949D01*
X56480411Y-31767314D01*
X56480383Y-31767784D01*
X56461191Y-31791049D01*
X56442203Y-31814499D01*
X56441748Y-31814620D01*
X56441449Y-31814984D01*
X56412219Y-31822532D01*
X56383102Y-31830335D01*
X56382557Y-31830193D01*
X56382208Y-31830284D01*
X56380871Y-31829757D01*
X56344803Y-31820412D01*
X56280195Y-31788827D01*
X56244599Y-31783641D01*
X56212060Y-31778900D01*
X54495540Y-31778900D01*
X54463014Y-31783639D01*
X54427404Y-31788827D01*
X54322318Y-31840201D01*
X54239601Y-31922918D01*
X54188227Y-32028004D01*
X54185239Y-32048513D01*
X54178300Y-32096140D01*
X54178300Y-32462660D01*
X54183516Y-32498460D01*
X54188227Y-32530795D01*
X54236338Y-32629206D01*
X54239602Y-32635883D01*
X54322317Y-32718598D01*
X54376085Y-32744883D01*
X54427404Y-32769972D01*
X54427405Y-32769972D01*
X54427407Y-32769973D01*
X54495540Y-32779900D01*
X54495543Y-32779900D01*
X56212057Y-32779900D01*
X56212060Y-32779900D01*
X56280193Y-32769973D01*
X56385283Y-32718598D01*
X56467998Y-32635883D01*
X56468223Y-32635421D01*
X56468619Y-32635012D01*
X56472765Y-32629206D01*
X56473635Y-32629827D01*
X56510765Y-32591447D01*
X56557165Y-32579900D01*
X57335633Y-32579900D01*
X57335633Y-32579899D01*
X57412059Y-32559421D01*
X57480581Y-32519860D01*
X57536530Y-32463911D01*
X58295303Y-31705137D01*
X58349818Y-31677362D01*
X58410250Y-31686933D01*
X58435305Y-31705136D01*
X58441335Y-31711166D01*
X58441337Y-31711167D01*
X58441339Y-31711169D01*
X58566861Y-31783639D01*
X58566862Y-31783639D01*
X58566865Y-31783641D01*
X58706875Y-31821157D01*
X58706876Y-31821157D01*
X58851826Y-31821157D01*
X58851826Y-31821156D01*
X58962184Y-31791586D01*
X59023286Y-31794787D01*
X59070836Y-31833292D01*
X59086672Y-31892393D01*
X59064746Y-31949514D01*
X59057812Y-31957216D01*
X57795125Y-33219904D01*
X57740608Y-33247681D01*
X57725121Y-33248900D01*
X56557165Y-33248900D01*
X56498974Y-33229993D01*
X56473189Y-33199291D01*
X56472765Y-33199594D01*
X56468915Y-33194202D01*
X56468223Y-33193378D01*
X56467998Y-33192918D01*
X56467998Y-33192917D01*
X56385283Y-33110202D01*
X56385281Y-33110201D01*
X56280195Y-33058827D01*
X56252939Y-33054856D01*
X56212060Y-33048900D01*
X54495540Y-33048900D01*
X54461473Y-33053863D01*
X54427404Y-33058827D01*
X54322318Y-33110201D01*
X54239601Y-33192918D01*
X54188227Y-33298004D01*
X54188227Y-33298007D01*
X54178300Y-33366140D01*
X54178300Y-33732660D01*
X54184710Y-33776656D01*
X54188227Y-33800795D01*
X54231688Y-33889695D01*
X54239602Y-33905883D01*
X54322317Y-33988598D01*
X54376085Y-34014883D01*
X54427404Y-34039972D01*
X54427405Y-34039972D01*
X54427407Y-34039973D01*
X54495540Y-34049900D01*
X54495543Y-34049900D01*
X56212057Y-34049900D01*
X56212060Y-34049900D01*
X56280193Y-34039973D01*
X56385283Y-33988598D01*
X56467998Y-33905883D01*
X56468223Y-33905421D01*
X56468619Y-33905012D01*
X56472765Y-33899206D01*
X56473635Y-33899827D01*
X56484885Y-33888198D01*
X56498974Y-33868807D01*
X56505786Y-33866593D01*
X56510765Y-33861447D01*
X56557165Y-33849900D01*
X56729344Y-33849900D01*
X56787535Y-33868807D01*
X56823499Y-33918307D01*
X56823499Y-33979493D01*
X56787535Y-34028993D01*
X56778844Y-34034636D01*
X56659589Y-34103487D01*
X56557087Y-34205989D01*
X56491610Y-34319400D01*
X56476232Y-34333246D01*
X56464065Y-34349993D01*
X56454002Y-34353262D01*
X56446141Y-34360341D01*
X56405874Y-34368900D01*
X56385068Y-34368900D01*
X56341588Y-34358841D01*
X56302851Y-34339904D01*
X56280193Y-34328827D01*
X56212060Y-34318900D01*
X54495540Y-34318900D01*
X54461473Y-34323863D01*
X54427404Y-34328827D01*
X54322318Y-34380201D01*
X54239601Y-34462918D01*
X54188227Y-34568004D01*
X54188227Y-34568007D01*
X54178300Y-34636140D01*
X54178300Y-35002660D01*
X54179866Y-35013407D01*
X54188227Y-35070795D01*
X54206458Y-35108086D01*
X54239602Y-35175883D01*
X54322317Y-35258598D01*
X54345434Y-35269899D01*
X54427404Y-35309972D01*
X54427405Y-35309972D01*
X54427407Y-35309973D01*
X54495540Y-35319900D01*
X54657758Y-35319900D01*
X54715949Y-35338807D01*
X54751913Y-35388307D01*
X54751913Y-35449493D01*
X54715949Y-35498993D01*
X54695643Y-35510364D01*
X54625077Y-35539592D01*
X54625072Y-35539595D01*
X54432028Y-35651050D01*
X54255179Y-35786750D01*
X54097550Y-35944379D01*
X53961850Y-36121228D01*
X53850395Y-36314272D01*
X53850392Y-36314277D01*
X53765090Y-36520217D01*
X53707395Y-36735539D01*
X53707395Y-36735544D01*
X53678300Y-36956542D01*
X53678300Y-37179457D01*
X53707395Y-37400455D01*
X53707395Y-37400460D01*
X53765090Y-37615782D01*
X53850392Y-37821722D01*
X53850395Y-37821727D01*
X53961850Y-38014771D01*
X53961852Y-38014774D01*
X54089842Y-38181575D01*
X54110266Y-38239249D01*
X54110300Y-38241841D01*
X54110300Y-38815236D01*
X54091393Y-38873427D01*
X54041893Y-38909391D01*
X53980707Y-38909391D01*
X53967822Y-38904178D01*
X53962196Y-38901427D01*
X53928126Y-38896463D01*
X53894060Y-38891500D01*
X53527540Y-38891500D01*
X53493473Y-38896463D01*
X53459404Y-38901427D01*
X53354318Y-38952801D01*
X53271601Y-39035518D01*
X53220227Y-39140604D01*
X53210300Y-39208743D01*
X53210300Y-39230000D01*
X53191393Y-39288191D01*
X53141893Y-39324155D01*
X53111300Y-39329000D01*
X51676392Y-39329000D01*
X51544608Y-39329000D01*
X51466700Y-39349875D01*
X51417309Y-39363109D01*
X51303190Y-39428996D01*
X50707504Y-40024682D01*
X50652987Y-40052459D01*
X50592555Y-40042888D01*
X50549290Y-39999623D01*
X50538500Y-39954678D01*
X50538500Y-39208743D01*
X50532127Y-39165000D01*
X50528573Y-39140607D01*
X50477198Y-39035517D01*
X50394483Y-38952802D01*
X50394481Y-38952801D01*
X50394478Y-38952798D01*
X50387857Y-38948071D01*
X50351485Y-38898871D01*
X50350978Y-38837688D01*
X50386531Y-38787892D01*
X50444564Y-38768503D01*
X50445383Y-38768500D01*
X50490256Y-38768500D01*
X50490257Y-38768500D01*
X50711263Y-38739404D01*
X50926581Y-38681710D01*
X51056447Y-38627917D01*
X51132522Y-38596407D01*
X51132523Y-38596405D01*
X51132526Y-38596405D01*
X51325574Y-38484948D01*
X51502424Y-38349247D01*
X51660047Y-38191624D01*
X51795748Y-38014774D01*
X51907205Y-37821726D01*
X51992510Y-37615781D01*
X52050204Y-37400463D01*
X52079300Y-37179457D01*
X52079300Y-36956543D01*
X52050204Y-36735537D01*
X51992510Y-36520219D01*
X51976753Y-36482179D01*
X51907207Y-36314277D01*
X51907204Y-36314272D01*
X51795749Y-36121228D01*
X51795748Y-36121226D01*
X51660047Y-35944376D01*
X51502424Y-35786753D01*
X51325574Y-35651052D01*
X51325571Y-35651050D01*
X51132527Y-35539595D01*
X51132522Y-35539592D01*
X51061957Y-35510364D01*
X51015431Y-35470628D01*
X51001147Y-35411133D01*
X51024562Y-35354605D01*
X51076731Y-35322635D01*
X51099842Y-35319900D01*
X51262057Y-35319900D01*
X51262060Y-35319900D01*
X51330193Y-35309973D01*
X51435283Y-35258598D01*
X51517998Y-35175883D01*
X51569373Y-35070793D01*
X51579300Y-35002660D01*
X51579300Y-34636140D01*
X51569373Y-34568007D01*
X51517998Y-34462917D01*
X51435283Y-34380202D01*
X51434050Y-34379599D01*
X51330195Y-34328827D01*
X51302939Y-34324856D01*
X51262060Y-34318900D01*
X49545540Y-34318900D01*
X49477407Y-34328827D01*
X49416012Y-34358841D01*
X49372532Y-34368900D01*
X48001011Y-34368900D01*
X47942820Y-34349993D01*
X47931008Y-34339904D01*
X47520614Y-33929511D01*
X47520609Y-33929507D01*
X47417890Y-33870202D01*
X47417886Y-33870200D01*
X47400102Y-33865435D01*
X47393673Y-33863712D01*
X47393673Y-33863713D01*
X47303309Y-33839500D01*
X47303307Y-33839500D01*
X46848737Y-33839500D01*
X46790546Y-33820593D01*
X46773845Y-33805247D01*
X46768790Y-33799400D01*
X49189652Y-33799400D01*
X49193635Y-33824547D01*
X49193636Y-33824551D01*
X49251158Y-33937443D01*
X49340756Y-34027041D01*
X49453648Y-34084563D01*
X49453652Y-34084564D01*
X49547315Y-34099399D01*
X50153798Y-34099399D01*
X50153800Y-34099398D01*
X50153800Y-33799401D01*
X50653800Y-33799401D01*
X50653800Y-34099398D01*
X50653801Y-34099399D01*
X51260283Y-34099399D01*
X51260285Y-34099398D01*
X51353941Y-34084566D01*
X51353951Y-34084563D01*
X51466843Y-34027041D01*
X51556441Y-33937443D01*
X51613963Y-33824551D01*
X51613964Y-33824547D01*
X51617948Y-33799400D01*
X50653801Y-33799400D01*
X50653800Y-33799401D01*
X50153800Y-33799401D01*
X50153799Y-33799400D01*
X49189652Y-33799400D01*
X46768790Y-33799400D01*
X46765983Y-33796153D01*
X46756050Y-33776658D01*
X46704962Y-33725570D01*
X46702608Y-33722847D01*
X46692057Y-33697802D01*
X46679719Y-33673586D01*
X46679227Y-33667347D01*
X46678854Y-33666460D01*
X46679081Y-33665486D01*
X46678500Y-33658100D01*
X46678500Y-33397899D01*
X46697407Y-33339708D01*
X46707490Y-33327901D01*
X46756050Y-33279342D01*
X46813646Y-33166304D01*
X46824926Y-33095081D01*
X46828500Y-33072521D01*
X46828500Y-33063001D01*
X47281001Y-33063001D01*
X47281001Y-33067203D01*
X47283850Y-33097600D01*
X47283850Y-33097602D01*
X47328654Y-33225647D01*
X47409207Y-33334790D01*
X47409209Y-33334792D01*
X47518352Y-33415345D01*
X47646398Y-33460149D01*
X47676788Y-33462998D01*
X47756000Y-33462998D01*
X47756000Y-33063001D01*
X48256000Y-33063001D01*
X48256000Y-33462998D01*
X48256001Y-33462999D01*
X48335203Y-33462999D01*
X48365600Y-33460149D01*
X48365602Y-33460149D01*
X48493647Y-33415345D01*
X48602790Y-33334792D01*
X48602792Y-33334790D01*
X48628912Y-33299400D01*
X49189652Y-33299400D01*
X50153799Y-33299400D01*
X50153800Y-33299399D01*
X50153800Y-32999401D01*
X50653800Y-32999401D01*
X50653800Y-33299399D01*
X50653801Y-33299400D01*
X51617948Y-33299400D01*
X51613964Y-33274252D01*
X51613963Y-33274248D01*
X51556441Y-33161356D01*
X51466843Y-33071758D01*
X51353951Y-33014236D01*
X51353947Y-33014235D01*
X51260284Y-32999400D01*
X50653801Y-32999400D01*
X50653800Y-32999401D01*
X50153800Y-32999401D01*
X50153799Y-32999400D01*
X49547316Y-32999400D01*
X49547314Y-32999401D01*
X49453658Y-33014233D01*
X49453648Y-33014236D01*
X49340756Y-33071758D01*
X49251158Y-33161356D01*
X49193636Y-33274248D01*
X49193635Y-33274252D01*
X49189652Y-33299400D01*
X48628912Y-33299400D01*
X48650462Y-33270202D01*
X48650463Y-33270200D01*
X48683344Y-33225649D01*
X48728149Y-33097601D01*
X48730999Y-33067211D01*
X48731000Y-33067210D01*
X48731000Y-33063001D01*
X48730999Y-33063000D01*
X48256001Y-33063000D01*
X48256000Y-33063001D01*
X47756000Y-33063001D01*
X47755999Y-33063000D01*
X47281002Y-33063000D01*
X47281001Y-33063001D01*
X46828500Y-33063001D01*
X46828500Y-33021993D01*
X46828499Y-32862560D01*
X46828499Y-32558788D01*
X47281000Y-32558788D01*
X47281000Y-32562999D01*
X47281001Y-32563000D01*
X48730998Y-32563000D01*
X48751443Y-32542555D01*
X48805959Y-32514777D01*
X48866391Y-32524348D01*
X48870947Y-32526822D01*
X48927407Y-32559419D01*
X48927411Y-32559421D01*
X49003835Y-32579899D01*
X49003837Y-32579900D01*
X49003838Y-32579900D01*
X49200435Y-32579900D01*
X49258626Y-32598807D01*
X49284410Y-32629508D01*
X49284835Y-32629206D01*
X49288684Y-32634597D01*
X49289376Y-32635420D01*
X49289602Y-32635883D01*
X49372317Y-32718598D01*
X49426085Y-32744883D01*
X49477404Y-32769972D01*
X49477405Y-32769972D01*
X49477407Y-32769973D01*
X49545540Y-32779900D01*
X49545543Y-32779900D01*
X51262057Y-32779900D01*
X51262060Y-32779900D01*
X51330193Y-32769973D01*
X51435283Y-32718598D01*
X51517998Y-32635883D01*
X51569373Y-32530793D01*
X51579300Y-32462660D01*
X51579300Y-32096140D01*
X51569373Y-32028007D01*
X51568884Y-32027007D01*
X51540436Y-31968816D01*
X51517998Y-31922917D01*
X51435283Y-31840202D01*
X51422627Y-31834015D01*
X51330195Y-31788827D01*
X51294599Y-31783641D01*
X51262060Y-31778900D01*
X49545540Y-31778900D01*
X49513014Y-31783639D01*
X49477404Y-31788827D01*
X49372318Y-31840201D01*
X49289600Y-31922919D01*
X49284835Y-31929594D01*
X49282362Y-31927828D01*
X49249586Y-31961692D01*
X49189319Y-31972249D01*
X49134356Y-31945365D01*
X49133204Y-31944232D01*
X48952515Y-31763544D01*
X48952511Y-31763540D01*
X48952475Y-31763519D01*
X48952444Y-31763501D01*
X48952440Y-31763499D01*
X48883989Y-31723979D01*
X48883987Y-31723978D01*
X48883985Y-31723977D01*
X48807564Y-31703500D01*
X48807562Y-31703500D01*
X48718551Y-31703500D01*
X48660360Y-31684593D01*
X48624396Y-31635093D01*
X48624396Y-31573907D01*
X48630342Y-31559554D01*
X48630421Y-31559399D01*
X48666646Y-31488304D01*
X48680526Y-31400670D01*
X48681500Y-31394521D01*
X48681500Y-31259400D01*
X49189652Y-31259400D01*
X49193635Y-31284547D01*
X49193636Y-31284551D01*
X49251158Y-31397443D01*
X49340756Y-31487041D01*
X49453648Y-31544563D01*
X49453652Y-31544564D01*
X49547315Y-31559399D01*
X50153798Y-31559399D01*
X50153800Y-31559398D01*
X50153800Y-31259401D01*
X50653800Y-31259401D01*
X50653800Y-31559398D01*
X50653801Y-31559399D01*
X51260283Y-31559399D01*
X51260285Y-31559398D01*
X51353941Y-31544566D01*
X51353951Y-31544563D01*
X51466843Y-31487041D01*
X51556441Y-31397443D01*
X51613963Y-31284551D01*
X51613964Y-31284547D01*
X51617948Y-31259400D01*
X50653801Y-31259400D01*
X50653800Y-31259401D01*
X50153800Y-31259401D01*
X50153799Y-31259400D01*
X49189652Y-31259400D01*
X48681500Y-31259400D01*
X48681500Y-31229809D01*
X48681499Y-30931479D01*
X48681498Y-30931476D01*
X48666647Y-30837700D01*
X48666645Y-30837692D01*
X48664732Y-30833938D01*
X48664731Y-30833937D01*
X48631655Y-30769022D01*
X48626752Y-30759400D01*
X49189652Y-30759400D01*
X50153799Y-30759400D01*
X50153800Y-30759399D01*
X50153800Y-30459401D01*
X50153799Y-30459400D01*
X49547316Y-30459400D01*
X49547314Y-30459401D01*
X49453658Y-30474233D01*
X49453648Y-30474236D01*
X49340756Y-30531758D01*
X49251158Y-30621356D01*
X49193636Y-30734248D01*
X49193635Y-30734252D01*
X49189652Y-30759400D01*
X48626752Y-30759400D01*
X48609050Y-30724658D01*
X48519342Y-30634950D01*
X48406304Y-30577354D01*
X48406305Y-30577354D01*
X48312522Y-30562500D01*
X47699479Y-30562500D01*
X47699476Y-30562501D01*
X47605700Y-30577352D01*
X47605695Y-30577354D01*
X47492659Y-30634949D01*
X47402949Y-30724659D01*
X47345354Y-30837695D01*
X47330500Y-30931477D01*
X47330500Y-31394520D01*
X47330501Y-31394523D01*
X47345352Y-31488299D01*
X47345354Y-31488304D01*
X47402950Y-31601342D01*
X47492658Y-31691050D01*
X47605696Y-31748646D01*
X47634974Y-31753283D01*
X47689490Y-31781060D01*
X47715113Y-31825440D01*
X47725977Y-31865985D01*
X47725981Y-31865993D01*
X47746479Y-31901499D01*
X47746480Y-31901499D01*
X47762701Y-31929594D01*
X47765540Y-31934511D01*
X47825027Y-31993998D01*
X47852803Y-32048513D01*
X47843232Y-32108945D01*
X47799967Y-32152210D01*
X47755023Y-32163000D01*
X47676796Y-32163000D01*
X47646399Y-32165850D01*
X47646397Y-32165850D01*
X47518352Y-32210654D01*
X47409209Y-32291207D01*
X47409207Y-32291209D01*
X47328654Y-32400352D01*
X47283850Y-32528398D01*
X47281000Y-32558788D01*
X46828499Y-32558788D01*
X46828499Y-32459482D01*
X46819761Y-32404306D01*
X46813647Y-32365700D01*
X46813646Y-32365698D01*
X46813646Y-32365696D01*
X46756050Y-32252658D01*
X46732757Y-32229365D01*
X46707496Y-32204103D01*
X46679719Y-32149586D01*
X46678500Y-32134100D01*
X46678500Y-31843255D01*
X46697407Y-31785064D01*
X46707490Y-31773257D01*
X46751528Y-31729220D01*
X46812719Y-31609126D01*
X46828500Y-31509488D01*
X46828500Y-30942512D01*
X46827474Y-30936037D01*
X46819383Y-30884949D01*
X46812719Y-30842874D01*
X46812716Y-30842869D01*
X46812716Y-30842867D01*
X46751529Y-30722782D01*
X46751528Y-30722780D01*
X46657494Y-30628746D01*
X46629719Y-30574232D01*
X46628500Y-30558745D01*
X46628500Y-30249611D01*
X46647407Y-30191420D01*
X46657496Y-30179607D01*
X46893607Y-29943496D01*
X46948124Y-29915719D01*
X46963611Y-29914500D01*
X49589309Y-29914500D01*
X49679669Y-29890287D01*
X49679672Y-29890287D01*
X49692903Y-29886741D01*
X49703887Y-29883799D01*
X49806614Y-29824489D01*
X51719290Y-27911814D01*
X51778599Y-27809087D01*
X51789957Y-27766697D01*
X51809300Y-27694509D01*
X51809300Y-26786544D01*
X51828207Y-26728353D01*
X51877707Y-26692389D01*
X51938893Y-26692389D01*
X51978301Y-26716538D01*
X51982589Y-26720826D01*
X52095175Y-26775866D01*
X52168164Y-26786500D01*
X52168167Y-26786500D01*
X52589432Y-26786500D01*
X52589436Y-26786500D01*
X52662425Y-26775866D01*
X52775011Y-26720826D01*
X52808798Y-26687038D01*
X52863313Y-26659263D01*
X52923745Y-26668834D01*
G37*
%TD.AperFunction*%
%TA.AperFunction,Conductor*%
G36*
X56594385Y-20839407D02*
G01*
X56630349Y-20888907D01*
X56630349Y-20950093D01*
X56618510Y-20974501D01*
X56534158Y-21100742D01*
X56477623Y-21237229D01*
X56477621Y-21237235D01*
X56448800Y-21382128D01*
X56448800Y-21555999D01*
X56448801Y-21556000D01*
X56948800Y-21556000D01*
X56948800Y-22056001D01*
X56948799Y-22056000D01*
X56448801Y-22056000D01*
X56448800Y-22056001D01*
X56448800Y-22229871D01*
X56477621Y-22374764D01*
X56477623Y-22374770D01*
X56534158Y-22511257D01*
X56616234Y-22634093D01*
X56720706Y-22738565D01*
X56843544Y-22820642D01*
X56948799Y-22864240D01*
X56948800Y-22864239D01*
X56948800Y-22205728D01*
X56986860Y-22297614D01*
X57057186Y-22367940D01*
X57149072Y-22406000D01*
X57248528Y-22406000D01*
X57340414Y-22367940D01*
X57410740Y-22297614D01*
X57448800Y-22205728D01*
X57448800Y-22864240D01*
X57554055Y-22820642D01*
X57676893Y-22738565D01*
X57781365Y-22634093D01*
X57863441Y-22511257D01*
X57919976Y-22374770D01*
X57919978Y-22374764D01*
X57948799Y-22229871D01*
X57948800Y-22229867D01*
X57948800Y-22056001D01*
X57948799Y-22056000D01*
X57448801Y-22056000D01*
X57448800Y-22056001D01*
X57448800Y-21556000D01*
X57948799Y-21556000D01*
X57948800Y-21555999D01*
X57948800Y-21382132D01*
X57948799Y-21382128D01*
X57919978Y-21237235D01*
X57919976Y-21237229D01*
X57863441Y-21100742D01*
X57779090Y-20974501D01*
X57762482Y-20915613D01*
X57783660Y-20858209D01*
X57834534Y-20824217D01*
X57861406Y-20820500D01*
X60386108Y-20820500D01*
X60449015Y-20820500D01*
X60454992Y-20820681D01*
X60747309Y-20838362D01*
X60759164Y-20839802D01*
X61044281Y-20892051D01*
X61055883Y-20894911D01*
X61332623Y-20981147D01*
X61343786Y-20985380D01*
X61600109Y-21100742D01*
X61608119Y-21104347D01*
X61618704Y-21109903D01*
X61866758Y-21259856D01*
X61876583Y-21266638D01*
X62054813Y-21406272D01*
X62104755Y-21445399D01*
X62113704Y-21453326D01*
X62318673Y-21658295D01*
X62326600Y-21667244D01*
X62447481Y-21821538D01*
X62505356Y-21895409D01*
X62512147Y-21905248D01*
X62662096Y-22153295D01*
X62667652Y-22163880D01*
X62786616Y-22428206D01*
X62790855Y-22439384D01*
X62877087Y-22716113D01*
X62879948Y-22727721D01*
X62932196Y-23012828D01*
X62933637Y-23024695D01*
X62951319Y-23317006D01*
X62951500Y-23322984D01*
X62951500Y-28886521D01*
X62932593Y-28944712D01*
X62883093Y-28980676D01*
X62821907Y-28980676D01*
X62782497Y-28956525D01*
X62541511Y-28715540D01*
X62541508Y-28715538D01*
X62530011Y-28708900D01*
X62530011Y-28708899D01*
X62472989Y-28675979D01*
X62472985Y-28675977D01*
X62396564Y-28655500D01*
X62396562Y-28655500D01*
X60317408Y-28655500D01*
X60259217Y-28636593D01*
X60223253Y-28587093D01*
X60219627Y-28571987D01*
X60217047Y-28555699D01*
X60217046Y-28555697D01*
X60217046Y-28555696D01*
X60159450Y-28442658D01*
X60069742Y-28352950D01*
X59956704Y-28295354D01*
X59956705Y-28295354D01*
X59862922Y-28280500D01*
X59399879Y-28280500D01*
X59399876Y-28280501D01*
X59306100Y-28295352D01*
X59306095Y-28295354D01*
X59193059Y-28352949D01*
X59103349Y-28442659D01*
X59045754Y-28555695D01*
X59030900Y-28649477D01*
X59030900Y-29262520D01*
X59030901Y-29262523D01*
X59045752Y-29356299D01*
X59045754Y-29356304D01*
X59103350Y-29469342D01*
X59193058Y-29559050D01*
X59306096Y-29616646D01*
X59399881Y-29631500D01*
X59862918Y-29631499D01*
X59862920Y-29631499D01*
X59866798Y-29631194D01*
X59866952Y-29633161D01*
X59920107Y-29641532D01*
X59963410Y-29684758D01*
X59973035Y-29745181D01*
X59945306Y-29799723D01*
X59251489Y-30493540D01*
X59251488Y-30493539D01*
X59195539Y-30549489D01*
X59155980Y-30618007D01*
X59155979Y-30618009D01*
X59134970Y-30696412D01*
X59101645Y-30747726D01*
X59044524Y-30769651D01*
X58998479Y-30758595D01*
X58997833Y-30760157D01*
X58991839Y-30757674D01*
X58915467Y-30737210D01*
X58851825Y-30720157D01*
X58706875Y-30720157D01*
X58690074Y-30724659D01*
X58566860Y-30757674D01*
X58441339Y-30830144D01*
X58441338Y-30830145D01*
X58441335Y-30830147D01*
X58441335Y-30830148D01*
X58338841Y-30932642D01*
X58338839Y-30932644D01*
X58334253Y-30937231D01*
X58333059Y-30936037D01*
X58289361Y-30966077D01*
X58271597Y-30968653D01*
X58271684Y-30969310D01*
X58265248Y-30970157D01*
X58188824Y-30990635D01*
X58188820Y-30990637D01*
X58169938Y-31001538D01*
X58169939Y-31001539D01*
X58120300Y-31030197D01*
X57710181Y-31440315D01*
X57655665Y-31468092D01*
X57595233Y-31458520D01*
X57551968Y-31415256D01*
X57542264Y-31384932D01*
X57452337Y-30782365D01*
X57452335Y-30782358D01*
X57452334Y-30782352D01*
X57451446Y-30778520D01*
X57451930Y-30778407D01*
X57448100Y-30753681D01*
X57448100Y-29943892D01*
X57440551Y-29915719D01*
X57417399Y-29829314D01*
X57392331Y-29785896D01*
X57358089Y-29726586D01*
X57210959Y-29579456D01*
X57057007Y-29425503D01*
X57029230Y-29370987D01*
X57038801Y-29310555D01*
X57082066Y-29267290D01*
X57127011Y-29256500D01*
X57189562Y-29256500D01*
X57295392Y-29256500D01*
X57353583Y-29275407D01*
X57389547Y-29324907D01*
X57393173Y-29340013D01*
X57395752Y-29356300D01*
X57395754Y-29356304D01*
X57453350Y-29469342D01*
X57543058Y-29559050D01*
X57656096Y-29616646D01*
X57749881Y-29631500D01*
X58212918Y-29631499D01*
X58212920Y-29631499D01*
X58212921Y-29631498D01*
X58259811Y-29624072D01*
X58306699Y-29616647D01*
X58306699Y-29616646D01*
X58306704Y-29616646D01*
X58419742Y-29559050D01*
X58509450Y-29469342D01*
X58567046Y-29356304D01*
X58581900Y-29262519D01*
X58581899Y-28649482D01*
X58575514Y-28609164D01*
X58567047Y-28555700D01*
X58567046Y-28555698D01*
X58567046Y-28555696D01*
X58509450Y-28442658D01*
X58419742Y-28352950D01*
X58306704Y-28295354D01*
X58306705Y-28295354D01*
X58212922Y-28280500D01*
X57749879Y-28280500D01*
X57749876Y-28280501D01*
X57656100Y-28295352D01*
X57656095Y-28295354D01*
X57543059Y-28352949D01*
X57453349Y-28442659D01*
X57395754Y-28555695D01*
X57393347Y-28563104D01*
X57391858Y-28562620D01*
X57368140Y-28609166D01*
X57313623Y-28636942D01*
X57253191Y-28627368D01*
X57228135Y-28609164D01*
X56963347Y-28344376D01*
X56694111Y-28075140D01*
X56680878Y-28067500D01*
X56625589Y-28035579D01*
X56625588Y-28035578D01*
X56625587Y-28035578D01*
X56549164Y-28015100D01*
X56549162Y-28015100D01*
X55903300Y-28015100D01*
X55845109Y-27996193D01*
X55809145Y-27946693D01*
X55804300Y-27916100D01*
X55804300Y-27354492D01*
X55795174Y-27320435D01*
X55773599Y-27239914D01*
X55773599Y-27239913D01*
X55766431Y-27227497D01*
X55737854Y-27178000D01*
X60332077Y-27178000D01*
X60332575Y-27225588D01*
X60333778Y-27239913D01*
X60340539Y-27320423D01*
X60340541Y-27320435D01*
X60356410Y-27414268D01*
X60380081Y-27506461D01*
X60380084Y-27506470D01*
X60411378Y-27596335D01*
X60411378Y-27596336D01*
X60450094Y-27683293D01*
X60450097Y-27683299D01*
X60456260Y-27694509D01*
X60495946Y-27766697D01*
X60496480Y-27767500D01*
X60548616Y-27845973D01*
X60576521Y-27881179D01*
X60607735Y-27920561D01*
X60662268Y-27978633D01*
X60672885Y-27989939D01*
X60672899Y-27989952D01*
X60740611Y-28050921D01*
X60743618Y-28053628D01*
X60782570Y-28083194D01*
X60819430Y-28111173D01*
X60899778Y-28162164D01*
X60899785Y-28162167D01*
X60899789Y-28162170D01*
X60984135Y-28206265D01*
X61071875Y-28243147D01*
X61162394Y-28272559D01*
X61255056Y-28294292D01*
X61349212Y-28308196D01*
X61444201Y-28314172D01*
X61539356Y-28312179D01*
X61634012Y-28302230D01*
X61727503Y-28284396D01*
X61819174Y-28258801D01*
X61908381Y-28225625D01*
X61994500Y-28185101D01*
X62076925Y-28137512D01*
X62155079Y-28083194D01*
X62228414Y-28022526D01*
X62296416Y-27955934D01*
X62358606Y-27883886D01*
X62414550Y-27806886D01*
X62463854Y-27725475D01*
X62506173Y-27640224D01*
X62541210Y-27551731D01*
X62568719Y-27460617D01*
X62588507Y-27367520D01*
X62600436Y-27273093D01*
X62604422Y-27178000D01*
X62604308Y-27175289D01*
X62600436Y-27082912D01*
X62600436Y-27082907D01*
X62588507Y-26988480D01*
X62568719Y-26895383D01*
X62541210Y-26804269D01*
X62506173Y-26715776D01*
X62463854Y-26630525D01*
X62462207Y-26627806D01*
X62414559Y-26549129D01*
X62414550Y-26549114D01*
X62406886Y-26538565D01*
X62358605Y-26472112D01*
X62358599Y-26472105D01*
X62314966Y-26421557D01*
X62296416Y-26400066D01*
X62228414Y-26333474D01*
X62225142Y-26330767D01*
X62155087Y-26272812D01*
X62155082Y-26272808D01*
X62155079Y-26272806D01*
X62076925Y-26218488D01*
X62034226Y-26193835D01*
X61994502Y-26170900D01*
X61908382Y-26130375D01*
X61819181Y-26097201D01*
X61727507Y-26071605D01*
X61727505Y-26071604D01*
X61727503Y-26071604D01*
X61634012Y-26053770D01*
X61634010Y-26053769D01*
X61634007Y-26053769D01*
X61586525Y-26048778D01*
X61539356Y-26043821D01*
X61539350Y-26043820D01*
X61539342Y-26043820D01*
X61444211Y-26041827D01*
X61396706Y-26044816D01*
X61349212Y-26047804D01*
X61349207Y-26047804D01*
X61349202Y-26047805D01*
X61255049Y-26061709D01*
X61162408Y-26083437D01*
X61162400Y-26083439D01*
X61162394Y-26083441D01*
X61120052Y-26097199D01*
X61071880Y-26112851D01*
X61071877Y-26112852D01*
X61071875Y-26112853D01*
X60984135Y-26149735D01*
X60984128Y-26149738D01*
X60984127Y-26149739D01*
X60899784Y-26193832D01*
X60899778Y-26193835D01*
X60819430Y-26244826D01*
X60743609Y-26302379D01*
X60672899Y-26366047D01*
X60672885Y-26366060D01*
X60607735Y-26435439D01*
X60548616Y-26510026D01*
X60495947Y-26589301D01*
X60495942Y-26589310D01*
X60450097Y-26672700D01*
X60450094Y-26672706D01*
X60411378Y-26759663D01*
X60411378Y-26759664D01*
X60380084Y-26849529D01*
X60380081Y-26849538D01*
X60356410Y-26941731D01*
X60340541Y-27035564D01*
X60340539Y-27035576D01*
X60336564Y-27082912D01*
X60332575Y-27130412D01*
X60332077Y-27178000D01*
X55737854Y-27178000D01*
X55714292Y-27137190D01*
X55714288Y-27137185D01*
X55407796Y-26830692D01*
X55380019Y-26776176D01*
X55378800Y-26760689D01*
X55378800Y-24736001D01*
X55878800Y-24736001D01*
X55878800Y-25535999D01*
X55878801Y-25536000D01*
X56328798Y-25536000D01*
X56328799Y-25535999D01*
X56328799Y-25455000D01*
X56347706Y-25396809D01*
X56397206Y-25360845D01*
X56427799Y-25356000D01*
X56948799Y-25356000D01*
X56948800Y-25355999D01*
X56948800Y-25856001D01*
X56948799Y-25856000D01*
X56448801Y-25856000D01*
X56448800Y-25856001D01*
X56448800Y-25937000D01*
X56429893Y-25995191D01*
X56380393Y-26031155D01*
X56349800Y-26036000D01*
X55878801Y-26036000D01*
X55878800Y-26036001D01*
X55878800Y-26835998D01*
X55878801Y-26835999D01*
X55899231Y-26835999D01*
X55899236Y-26835998D01*
X55955804Y-26829918D01*
X55955806Y-26829917D01*
X56083783Y-26782185D01*
X56193127Y-26700331D01*
X56193131Y-26700327D01*
X56274985Y-26590983D01*
X56322716Y-26463009D01*
X56322718Y-26463001D01*
X56328800Y-26406434D01*
X56328800Y-26313184D01*
X56347707Y-26254993D01*
X56397207Y-26219029D01*
X56458393Y-26219029D01*
X56507893Y-26254993D01*
X56519264Y-26275299D01*
X56534157Y-26311255D01*
X56616234Y-26434093D01*
X56720706Y-26538565D01*
X56843544Y-26620642D01*
X56948799Y-26664240D01*
X56948800Y-26664239D01*
X56948800Y-26005728D01*
X56986860Y-26097614D01*
X57057186Y-26167940D01*
X57149072Y-26206000D01*
X57248528Y-26206000D01*
X57340414Y-26167940D01*
X57410740Y-26097614D01*
X57448800Y-26005728D01*
X57448800Y-26664240D01*
X57554055Y-26620642D01*
X57676893Y-26538565D01*
X57781365Y-26434093D01*
X57863441Y-26311257D01*
X57919976Y-26174770D01*
X57919978Y-26174764D01*
X57948799Y-26029871D01*
X57948800Y-26029867D01*
X57948800Y-25856001D01*
X57948799Y-25856000D01*
X57448801Y-25856000D01*
X57448800Y-25856001D01*
X57448800Y-25355999D01*
X57448801Y-25356000D01*
X57948799Y-25356000D01*
X57948800Y-25355999D01*
X57948800Y-25182132D01*
X57948799Y-25182128D01*
X57919978Y-25037235D01*
X57919976Y-25037229D01*
X57863441Y-24900742D01*
X57781365Y-24777906D01*
X57676890Y-24673431D01*
X57554070Y-24591365D01*
X57554056Y-24591358D01*
X57448800Y-24547758D01*
X57448800Y-25206272D01*
X57410740Y-25114386D01*
X57340414Y-25044060D01*
X57248528Y-25006000D01*
X57149072Y-25006000D01*
X57057186Y-25044060D01*
X56986860Y-25114386D01*
X56948800Y-25206272D01*
X56948800Y-24547759D01*
X56948799Y-24547758D01*
X56843543Y-24591358D01*
X56843529Y-24591365D01*
X56720709Y-24673431D01*
X56616234Y-24777906D01*
X56534158Y-24900742D01*
X56478319Y-25035548D01*
X56438582Y-25082074D01*
X56379087Y-25096357D01*
X56322559Y-25072942D01*
X56294096Y-25032258D01*
X56274984Y-24981014D01*
X56193131Y-24871672D01*
X56193127Y-24871668D01*
X56083783Y-24789814D01*
X55955809Y-24742083D01*
X55955801Y-24742081D01*
X55899234Y-24736000D01*
X55878801Y-24736000D01*
X55878800Y-24736001D01*
X55378800Y-24736001D01*
X55378800Y-24735999D01*
X55358371Y-24736000D01*
X55358362Y-24736001D01*
X55301794Y-24742081D01*
X55301793Y-24742082D01*
X55173816Y-24789814D01*
X55064472Y-24871668D01*
X55064467Y-24871673D01*
X55056781Y-24881941D01*
X55006771Y-24917193D01*
X54945592Y-24916317D01*
X54896612Y-24879649D01*
X54878539Y-24821194D01*
X54891794Y-24773108D01*
X54909707Y-24742083D01*
X54911784Y-24738485D01*
X54949300Y-24598475D01*
X54949300Y-24453525D01*
X54911784Y-24313515D01*
X54911782Y-24313512D01*
X54911782Y-24313510D01*
X54839312Y-24187989D01*
X54839310Y-24187987D01*
X54839309Y-24187985D01*
X54736815Y-24085491D01*
X54736812Y-24085489D01*
X54736810Y-24085487D01*
X54611288Y-24013017D01*
X54611289Y-24013017D01*
X54528774Y-23990907D01*
X54471275Y-23975500D01*
X54326325Y-23975500D01*
X54268826Y-23990907D01*
X54186310Y-24013017D01*
X54060789Y-24085487D01*
X53958287Y-24187989D01*
X53885818Y-24313509D01*
X53885816Y-24313513D01*
X53885816Y-24313515D01*
X53873926Y-24357888D01*
X53840602Y-24409201D01*
X53783481Y-24431127D01*
X53724380Y-24415291D01*
X53685875Y-24367741D01*
X53679300Y-24332263D01*
X53679300Y-24129237D01*
X53679299Y-24129235D01*
X53658821Y-24052811D01*
X53658819Y-24052807D01*
X53619260Y-23984289D01*
X53563311Y-23928339D01*
X53563311Y-23928340D01*
X52508511Y-22873540D01*
X52508508Y-22873538D01*
X52439992Y-22833980D01*
X52439988Y-22833978D01*
X52363564Y-22813500D01*
X52363562Y-22813500D01*
X49200967Y-22813500D01*
X49142776Y-22794593D01*
X49106812Y-22745093D01*
X49106812Y-22683907D01*
X49130963Y-22644496D01*
X49141365Y-22634093D01*
X49223441Y-22511257D01*
X49279976Y-22374770D01*
X49279978Y-22374764D01*
X49308799Y-22229871D01*
X49308800Y-22229867D01*
X49308800Y-22056001D01*
X49308799Y-22056000D01*
X48808800Y-22056000D01*
X48808800Y-21556000D01*
X49308799Y-21556000D01*
X49308800Y-21555999D01*
X49308800Y-21382132D01*
X49308799Y-21382128D01*
X49279978Y-21237235D01*
X49279976Y-21237229D01*
X49223441Y-21100742D01*
X49139090Y-20974501D01*
X49122482Y-20915613D01*
X49143660Y-20858209D01*
X49194534Y-20824217D01*
X49221406Y-20820500D01*
X56536194Y-20820500D01*
X56594385Y-20839407D01*
G37*
%TD.AperFunction*%
%TD*%
%TA.AperFunction,Conductor*%
%TO.N,+BATT*%
G36*
X57245789Y-30806152D02*
G01*
X57249088Y-30812698D01*
X57339233Y-31416721D01*
X57337065Y-31425409D01*
X57329976Y-31429917D01*
X56999915Y-31496532D01*
X56995285Y-31496532D01*
X56665223Y-31429917D01*
X56657792Y-31424921D01*
X56655966Y-31416721D01*
X56746112Y-30812698D01*
X56750723Y-30805021D01*
X56757684Y-30802725D01*
X57237516Y-30802725D01*
X57245789Y-30806152D01*
G37*
%TD.AperFunction*%
%TD*%
%TA.AperFunction,Conductor*%
%TO.N,+BATT*%
G36*
X56451429Y-28973886D02*
G01*
X56814796Y-29464738D01*
X56816964Y-29473426D01*
X56813665Y-29479972D01*
X56474372Y-29819265D01*
X56466099Y-29822692D01*
X56459138Y-29820396D01*
X55968286Y-29457029D01*
X55963675Y-29449352D01*
X55965501Y-29441152D01*
X56151789Y-29160655D01*
X56155055Y-29157389D01*
X56435552Y-28971100D01*
X56444340Y-28969378D01*
X56451429Y-28973886D01*
G37*
%TD.AperFunction*%
%TD*%
%TA.AperFunction,Conductor*%
%TO.N,/VM*%
G36*
X52806509Y-87075962D02*
G01*
X52812703Y-87082429D01*
X52813269Y-87084358D01*
X52879332Y-87411685D01*
X52879332Y-87416315D01*
X52813269Y-87743641D01*
X52808273Y-87751072D01*
X52799485Y-87752795D01*
X52797556Y-87752229D01*
X52192981Y-87516902D01*
X52186514Y-87510708D01*
X52185525Y-87505999D01*
X52185525Y-87322000D01*
X52188952Y-87313727D01*
X52192977Y-87311098D01*
X52797556Y-87075770D01*
X52806509Y-87075962D01*
G37*
%TD.AperFunction*%
%TD*%
%TA.AperFunction,Conductor*%
%TO.N,/VM*%
G36*
X52979072Y-85124152D02*
G01*
X52981702Y-85128181D01*
X53217029Y-85732756D01*
X53216837Y-85741709D01*
X53210370Y-85747903D01*
X53208441Y-85748469D01*
X52881115Y-85814532D01*
X52876485Y-85814532D01*
X52549158Y-85748469D01*
X52541727Y-85743473D01*
X52540004Y-85734685D01*
X52540570Y-85732756D01*
X52775898Y-85128181D01*
X52782092Y-85121714D01*
X52786801Y-85120725D01*
X52970799Y-85120725D01*
X52979072Y-85124152D01*
G37*
%TD.AperFunction*%
%TD*%
%TA.AperFunction,Conductor*%
%TO.N,/LED1_EN*%
G36*
X46072875Y-51632755D02*
G01*
X46075505Y-51636784D01*
X46310832Y-52241359D01*
X46310640Y-52250312D01*
X46304173Y-52256506D01*
X46302244Y-52257072D01*
X45974918Y-52323135D01*
X45970288Y-52323135D01*
X45642961Y-52257072D01*
X45635530Y-52252076D01*
X45633807Y-52243288D01*
X45634373Y-52241359D01*
X45869701Y-51636784D01*
X45875895Y-51630317D01*
X45880604Y-51629328D01*
X46064602Y-51629328D01*
X46072875Y-51632755D01*
G37*
%TD.AperFunction*%
%TD*%
%TA.AperFunction,Conductor*%
%TO.N,/LED1_EN*%
G36*
X46798552Y-53782428D02*
G01*
X47123214Y-53846062D01*
X47130674Y-53851017D01*
X47130702Y-53851059D01*
X47316752Y-54130457D01*
X47318486Y-54139243D01*
X47314698Y-54145765D01*
X46982303Y-54435259D01*
X46974619Y-54438136D01*
X46790803Y-54438136D01*
X46782530Y-54434709D01*
X46779103Y-54426436D01*
X46779103Y-54426334D01*
X46781675Y-54130457D01*
X46784602Y-53793806D01*
X46788101Y-53785565D01*
X46796404Y-53782210D01*
X46798552Y-53782428D01*
G37*
%TD.AperFunction*%
%TD*%
%TA.AperFunction,Conductor*%
%TO.N,/NRST*%
G36*
X47456646Y-61621518D02*
G01*
X47457611Y-61623282D01*
X47667900Y-62101611D01*
X47718710Y-62217183D01*
X47718902Y-62226136D01*
X47716272Y-62230165D01*
X47586165Y-62360272D01*
X47577892Y-62363699D01*
X47573184Y-62362710D01*
X47242164Y-62217183D01*
X46979282Y-62101611D01*
X46973088Y-62095144D01*
X46973280Y-62086191D01*
X46974245Y-62084427D01*
X47158989Y-61806255D01*
X47162255Y-61802989D01*
X47440427Y-61618244D01*
X47449215Y-61616522D01*
X47456646Y-61621518D01*
G37*
%TD.AperFunction*%
%TD*%
%TA.AperFunction,Conductor*%
%TO.N,/LED2_EN*%
G36*
X48064281Y-74501727D02*
G01*
X48194388Y-74631834D01*
X48197815Y-74640107D01*
X48196826Y-74644816D01*
X47935727Y-75238717D01*
X47929260Y-75244911D01*
X47920307Y-75244719D01*
X47918543Y-75243754D01*
X47640375Y-75059013D01*
X47637103Y-75055741D01*
X47452361Y-74777572D01*
X47450638Y-74768784D01*
X47455634Y-74761353D01*
X47457392Y-74760391D01*
X48051302Y-74499288D01*
X48060252Y-74499097D01*
X48064281Y-74501727D01*
G37*
%TD.AperFunction*%
%TD*%
%TA.AperFunction,Conductor*%
%TO.N,/LED2_EN*%
G36*
X45840002Y-75058688D02*
G01*
X46115393Y-75243645D01*
X46120351Y-75251103D01*
X46118583Y-75259881D01*
X46117271Y-75261501D01*
X45824491Y-75563576D01*
X45728329Y-75662792D01*
X45720948Y-75670407D01*
X45712730Y-75673963D01*
X45712547Y-75673964D01*
X45528684Y-75673964D01*
X45520411Y-75670537D01*
X45516996Y-75662792D01*
X45498406Y-75251103D01*
X45493177Y-75135295D01*
X45496227Y-75126876D01*
X45502550Y-75123299D01*
X45831216Y-75056965D01*
X45840002Y-75058688D01*
G37*
%TD.AperFunction*%
%TD*%
%TA.AperFunction,Conductor*%
%TO.N,/SWC*%
G36*
X47325243Y-66209770D02*
G01*
X47929820Y-66445098D01*
X47936286Y-66451291D01*
X47937275Y-66456000D01*
X47937275Y-66639999D01*
X47933848Y-66648272D01*
X47929819Y-66650902D01*
X47325243Y-66886229D01*
X47316290Y-66886037D01*
X47310096Y-66879570D01*
X47309530Y-66877641D01*
X47263237Y-66648272D01*
X47243467Y-66550313D01*
X47243467Y-66545685D01*
X47262518Y-66451291D01*
X47309530Y-66218356D01*
X47314526Y-66210927D01*
X47323314Y-66209204D01*
X47325243Y-66209770D01*
G37*
%TD.AperFunction*%
%TD*%
%TA.AperFunction,Conductor*%
%TO.N,+3V3*%
G36*
X47773123Y-60285339D02*
G01*
X47781175Y-60289256D01*
X47784121Y-60297018D01*
X47784121Y-60579638D01*
X47780694Y-60587911D01*
X47778781Y-60589458D01*
X47332107Y-60878739D01*
X47323300Y-60880360D01*
X47316035Y-60875442D01*
X47129720Y-60598031D01*
X47127953Y-60589256D01*
X47194269Y-60260677D01*
X47199265Y-60253247D01*
X47206436Y-60251314D01*
X47773123Y-60285339D01*
G37*
%TD.AperFunction*%
%TD*%
%TA.AperFunction,Conductor*%
%TO.N,+3V3*%
G36*
X51585410Y-62429920D02*
G01*
X51588315Y-62434736D01*
X51775217Y-63039120D01*
X51774387Y-63048037D01*
X51767496Y-63053755D01*
X51766354Y-63054046D01*
X51438081Y-63120300D01*
X51433451Y-63120300D01*
X51105177Y-63054046D01*
X51097746Y-63049050D01*
X51096023Y-63040262D01*
X51096308Y-63039140D01*
X51283217Y-62434736D01*
X51288935Y-62427845D01*
X51294395Y-62426493D01*
X51577137Y-62426493D01*
X51585410Y-62429920D01*
G37*
%TD.AperFunction*%
%TD*%
%TA.AperFunction,Conductor*%
%TO.N,+3V3*%
G36*
X52937990Y-64141522D02*
G01*
X52938592Y-64142535D01*
X53233797Y-64702060D01*
X53234627Y-64710977D01*
X53231722Y-64715793D01*
X53031793Y-64915722D01*
X53023520Y-64919149D01*
X53018060Y-64917797D01*
X52458535Y-64622592D01*
X52452817Y-64615701D01*
X52453647Y-64606784D01*
X52454242Y-64605781D01*
X52639528Y-64326794D01*
X52642794Y-64323528D01*
X52921772Y-64138248D01*
X52930559Y-64136526D01*
X52937990Y-64141522D01*
G37*
%TD.AperFunction*%
%TD*%
%TA.AperFunction,Conductor*%
%TO.N,/VBAT_SYS*%
G36*
X49870705Y-52031845D02*
G01*
X49878136Y-52036841D01*
X49880051Y-52044264D01*
X49830875Y-52648145D01*
X49826788Y-52656112D01*
X49819214Y-52658895D01*
X49241052Y-52658895D01*
X49232779Y-52655468D01*
X49229371Y-52647861D01*
X49216426Y-52420972D01*
X49194922Y-52044028D01*
X49197872Y-52035576D01*
X49204287Y-52031895D01*
X49535306Y-51965087D01*
X49539934Y-51965087D01*
X49870705Y-52031845D01*
G37*
%TD.AperFunction*%
%TD*%
%TA.AperFunction,Conductor*%
%TO.N,/VBAT_SYS*%
G36*
X49319355Y-48583358D02*
G01*
X49322754Y-48590823D01*
X49364565Y-49194678D01*
X49361718Y-49203168D01*
X49355208Y-49206955D01*
X49024315Y-49273738D01*
X49019685Y-49273738D01*
X48688791Y-49206955D01*
X48681360Y-49201959D01*
X48679434Y-49194678D01*
X48721246Y-48590823D01*
X48725236Y-48582806D01*
X48732918Y-48579931D01*
X49311082Y-48579931D01*
X49319355Y-48583358D01*
G37*
%TD.AperFunction*%
%TD*%
%TA.AperFunction,Conductor*%
%TO.N,/SWD*%
G36*
X47780560Y-62857257D02*
G01*
X47788580Y-62861238D01*
X47791464Y-62868930D01*
X47791464Y-63052821D01*
X47788037Y-63061094D01*
X47787630Y-63061482D01*
X47365476Y-63444907D01*
X47357048Y-63447933D01*
X47348949Y-63444112D01*
X47347901Y-63442774D01*
X47162720Y-63167051D01*
X47160953Y-63158276D01*
X47227253Y-62829777D01*
X47232248Y-62822348D01*
X47239513Y-62820421D01*
X47780560Y-62857257D01*
G37*
%TD.AperFunction*%
%TD*%
%TA.AperFunction,Conductor*%
%TO.N,/BTN*%
G36*
X49880127Y-63532906D02*
G01*
X50427210Y-63737469D01*
X50433758Y-63743576D01*
X50434593Y-63750678D01*
X50370728Y-64076519D01*
X50365773Y-64083979D01*
X50361522Y-64085745D01*
X50034666Y-64150572D01*
X50025884Y-64148821D01*
X50021444Y-64143228D01*
X49865084Y-63728997D01*
X49864330Y-63724865D01*
X49864330Y-63543866D01*
X49867757Y-63535593D01*
X49876030Y-63532166D01*
X49880127Y-63532906D01*
G37*
%TD.AperFunction*%
%TD*%
%TA.AperFunction,Conductor*%
%TO.N,/BTN*%
G36*
X52178711Y-64907583D02*
G01*
X52179676Y-64909347D01*
X52389965Y-65387676D01*
X52440775Y-65503248D01*
X52440967Y-65512201D01*
X52438337Y-65516230D01*
X52308230Y-65646337D01*
X52299957Y-65649764D01*
X52295249Y-65648775D01*
X51964229Y-65503248D01*
X51701347Y-65387676D01*
X51695153Y-65381209D01*
X51695345Y-65372256D01*
X51696310Y-65370492D01*
X51881054Y-65092320D01*
X51884320Y-65089054D01*
X52162492Y-64904309D01*
X52171280Y-64902587D01*
X52178711Y-64907583D01*
G37*
%TD.AperFunction*%
%TD*%
M02*
