M48
METRIC,TZ
T1C0.300
T2C0.500
T3C1.000
T4C1.800
%
G90
G05
T1
X43434Y-31242
X43434Y-32766
X43688Y-23114
X43688Y-24638
X43942Y-52324
X43942Y-84582
X44450Y-39878
X44450Y-70866
X45212Y-80772
X45836Y-75057
X45973Y-52323
X46990Y-50546
X47062Y-45821
X47128Y-53848
X47128Y-60594
X47161Y-61805
X47161Y-63163
X47244Y-38872
X47244Y-66548
X47498Y-64897
X47639Y-75057
X47893Y-79248
X48006Y-33782
X48260Y-92710
X48514Y-27432
X49022Y-49273
X49149Y-54483
X49149Y-55880
X49538Y-51966
X50129Y-24526
X50368Y-64084
X50546Y-51816
X50800Y-50292
X51308Y-24526
X51436Y-63120
X51816Y-51816
X51883Y-65091
X52070Y-53848
X52324Y-50292
X52578Y-77724
X52642Y-64326
X52705Y-55626
X52832Y-21844
X52879Y-32914
X52879Y-82296
X52879Y-85814
X52879Y-87414
X53086Y-51816
X53848Y-50292
X53848Y-58928
X54399Y-24526
X54864Y-51308
X55372Y-66548
X55626Y-24526
X56154Y-29159
X56388Y-80010
X56642Y-62230
X56764Y-85687
X56998Y-31496
X56998Y-34544
X57150Y-27432
X57658Y-58674
X57658Y-73914
X58420Y-92456
X58779Y-31271
X59690Y-82550
X60169Y-31271
X60452Y-73914
X60706Y-34544
X60960Y-63246
X61976Y-88392
X62484Y-43688
X62484Y-53340
X62484Y-66294
X62484Y-80010
T3
X44450Y-58928
X44450Y-64008
X44450Y-69088
X44650Y-61468
X44650Y-66548
T4
X50379Y-37068
X50379Y-83068
X52879Y-29468
X52879Y-90668
X55379Y-37068
X55379Y-83068
T2
G00X48559Y-22156
M15
G01X48559Y-21456
M16
G05
G00X48559Y-25956
M15
G01X48559Y-25256
M16
G05
G00X57199Y-22156
M15
G01X57199Y-21456
M16
G05
G00X57199Y-25956
M15
G01X57199Y-25256
M16
G05
M30
