%TF.GenerationSoftware,KiCad,Pcbnew,9.0.6*%
%TF.CreationDate,2025-12-31T13:50:20-05:00*%
%TF.ProjectId,Photon,50686f74-6f6e-42e6-9b69-6361645f7063,1.3*%
%TF.SameCoordinates,Original*%
%TF.FileFunction,Soldermask,Bot*%
%TF.FilePolarity,Negative*%
%FSLAX46Y46*%
G04 Gerber Fmt 4.6, Leading zero omitted, Abs format (unit mm)*
G04 Created by KiCad (PCBNEW 9.0.6) date 2025-12-31 13:50:20*
%MOMM*%
%LPD*%
G01*
G04 APERTURE LIST*
G04 APERTURE END LIST*
G36*
X53228968Y-89209445D02*
G01*
X53452825Y-89282181D01*
X53662548Y-89389040D01*
X53852972Y-89527391D01*
X54019409Y-89693828D01*
X54157760Y-89884252D01*
X54264619Y-90093975D01*
X54337355Y-90317832D01*
X54374176Y-90550311D01*
X54374176Y-90785689D01*
X54337355Y-91018168D01*
X54264619Y-91242025D01*
X54157760Y-91451748D01*
X54019409Y-91642172D01*
X53852972Y-91808609D01*
X53662548Y-91946960D01*
X53452825Y-92053819D01*
X53228968Y-92126555D01*
X52996489Y-92163376D01*
X52761111Y-92163376D01*
X52528632Y-92126555D01*
X52304775Y-92053819D01*
X52095052Y-91946960D01*
X51904628Y-91808609D01*
X51738191Y-91642172D01*
X51599840Y-91451748D01*
X51492981Y-91242025D01*
X51420245Y-91018168D01*
X51383424Y-90785689D01*
X51383424Y-90550311D01*
X51420245Y-90317832D01*
X51492981Y-90093975D01*
X51599840Y-89884252D01*
X51738191Y-89693828D01*
X51904628Y-89527391D01*
X52095052Y-89389040D01*
X52304775Y-89282181D01*
X52528632Y-89209445D01*
X52761111Y-89172624D01*
X52996489Y-89172624D01*
X53228968Y-89209445D01*
G37*
G36*
X50728968Y-81609445D02*
G01*
X50952825Y-81682181D01*
X51162548Y-81789040D01*
X51352972Y-81927391D01*
X51519409Y-82093828D01*
X51657760Y-82284252D01*
X51764619Y-82493975D01*
X51837355Y-82717832D01*
X51874176Y-82950311D01*
X51874176Y-83185689D01*
X51837355Y-83418168D01*
X51764619Y-83642025D01*
X51657760Y-83851748D01*
X51519409Y-84042172D01*
X51352972Y-84208609D01*
X51162548Y-84346960D01*
X50952825Y-84453819D01*
X50728968Y-84526555D01*
X50496489Y-84563376D01*
X50261111Y-84563376D01*
X50028632Y-84526555D01*
X49804775Y-84453819D01*
X49595052Y-84346960D01*
X49404628Y-84208609D01*
X49238191Y-84042172D01*
X49099840Y-83851748D01*
X48992981Y-83642025D01*
X48920245Y-83418168D01*
X48883424Y-83185689D01*
X48883424Y-82950311D01*
X48920245Y-82717832D01*
X48992981Y-82493975D01*
X49099840Y-82284252D01*
X49238191Y-82093828D01*
X49404628Y-81927391D01*
X49595052Y-81789040D01*
X49804775Y-81682181D01*
X50028632Y-81609445D01*
X50261111Y-81572624D01*
X50496489Y-81572624D01*
X50728968Y-81609445D01*
G37*
G36*
X55728968Y-81609445D02*
G01*
X55952825Y-81682181D01*
X56162548Y-81789040D01*
X56352972Y-81927391D01*
X56519409Y-82093828D01*
X56657760Y-82284252D01*
X56764619Y-82493975D01*
X56837355Y-82717832D01*
X56874176Y-82950311D01*
X56874176Y-83185689D01*
X56837355Y-83418168D01*
X56764619Y-83642025D01*
X56657760Y-83851748D01*
X56519409Y-84042172D01*
X56352972Y-84208609D01*
X56162548Y-84346960D01*
X55952825Y-84453819D01*
X55728968Y-84526555D01*
X55496489Y-84563376D01*
X55261111Y-84563376D01*
X55028632Y-84526555D01*
X54804775Y-84453819D01*
X54595052Y-84346960D01*
X54404628Y-84208609D01*
X54238191Y-84042172D01*
X54099840Y-83851748D01*
X53992981Y-83642025D01*
X53920245Y-83418168D01*
X53883424Y-83185689D01*
X53883424Y-82950311D01*
X53920245Y-82717832D01*
X53992981Y-82493975D01*
X54099840Y-82284252D01*
X54238191Y-82093828D01*
X54404628Y-81927391D01*
X54595052Y-81789040D01*
X54804775Y-81682181D01*
X55028632Y-81609445D01*
X55261111Y-81572624D01*
X55496489Y-81572624D01*
X55728968Y-81609445D01*
G37*
G36*
X45300000Y-69938000D02*
G01*
X43600000Y-69938000D01*
X43600000Y-68238000D01*
X45300000Y-68238000D01*
X45300000Y-69938000D01*
G37*
G36*
X44896742Y-65734601D02*
G01*
X45050687Y-65798367D01*
X45189234Y-65890941D01*
X45307059Y-66008766D01*
X45399633Y-66147313D01*
X45463399Y-66301258D01*
X45495907Y-66464685D01*
X45495907Y-66631315D01*
X45463399Y-66794742D01*
X45399633Y-66948687D01*
X45307059Y-67087234D01*
X45189234Y-67205059D01*
X45050687Y-67297633D01*
X44896742Y-67361399D01*
X44733315Y-67393907D01*
X44566685Y-67393907D01*
X44403258Y-67361399D01*
X44249313Y-67297633D01*
X44110766Y-67205059D01*
X43992941Y-67087234D01*
X43900367Y-66948687D01*
X43836601Y-66794742D01*
X43804093Y-66631315D01*
X43804093Y-66464685D01*
X43836601Y-66301258D01*
X43900367Y-66147313D01*
X43992941Y-66008766D01*
X44110766Y-65890941D01*
X44249313Y-65798367D01*
X44403258Y-65734601D01*
X44566685Y-65702093D01*
X44733315Y-65702093D01*
X44896742Y-65734601D01*
G37*
G36*
X44696742Y-63194601D02*
G01*
X44850687Y-63258367D01*
X44989234Y-63350941D01*
X45107059Y-63468766D01*
X45199633Y-63607313D01*
X45263399Y-63761258D01*
X45295907Y-63924685D01*
X45295907Y-64091315D01*
X45263399Y-64254742D01*
X45199633Y-64408687D01*
X45107059Y-64547234D01*
X44989234Y-64665059D01*
X44850687Y-64757633D01*
X44696742Y-64821399D01*
X44533315Y-64853907D01*
X44366685Y-64853907D01*
X44203258Y-64821399D01*
X44049313Y-64757633D01*
X43910766Y-64665059D01*
X43792941Y-64547234D01*
X43700367Y-64408687D01*
X43636601Y-64254742D01*
X43604093Y-64091315D01*
X43604093Y-63924685D01*
X43636601Y-63761258D01*
X43700367Y-63607313D01*
X43792941Y-63468766D01*
X43910766Y-63350941D01*
X44049313Y-63258367D01*
X44203258Y-63194601D01*
X44366685Y-63162093D01*
X44533315Y-63162093D01*
X44696742Y-63194601D01*
G37*
G36*
X44896742Y-60654601D02*
G01*
X45050687Y-60718367D01*
X45189234Y-60810941D01*
X45307059Y-60928766D01*
X45399633Y-61067313D01*
X45463399Y-61221258D01*
X45495907Y-61384685D01*
X45495907Y-61551315D01*
X45463399Y-61714742D01*
X45399633Y-61868687D01*
X45307059Y-62007234D01*
X45189234Y-62125059D01*
X45050687Y-62217633D01*
X44896742Y-62281399D01*
X44733315Y-62313907D01*
X44566685Y-62313907D01*
X44403258Y-62281399D01*
X44249313Y-62217633D01*
X44110766Y-62125059D01*
X43992941Y-62007234D01*
X43900367Y-61868687D01*
X43836601Y-61714742D01*
X43804093Y-61551315D01*
X43804093Y-61384685D01*
X43836601Y-61221258D01*
X43900367Y-61067313D01*
X43992941Y-60928766D01*
X44110766Y-60810941D01*
X44249313Y-60718367D01*
X44403258Y-60654601D01*
X44566685Y-60622093D01*
X44733315Y-60622093D01*
X44896742Y-60654601D01*
G37*
G36*
X44696742Y-58114601D02*
G01*
X44850687Y-58178367D01*
X44989234Y-58270941D01*
X45107059Y-58388766D01*
X45199633Y-58527313D01*
X45263399Y-58681258D01*
X45295907Y-58844685D01*
X45295907Y-59011315D01*
X45263399Y-59174742D01*
X45199633Y-59328687D01*
X45107059Y-59467234D01*
X44989234Y-59585059D01*
X44850687Y-59677633D01*
X44696742Y-59741399D01*
X44533315Y-59773907D01*
X44366685Y-59773907D01*
X44203258Y-59741399D01*
X44049313Y-59677633D01*
X43910766Y-59585059D01*
X43792941Y-59467234D01*
X43700367Y-59328687D01*
X43636601Y-59174742D01*
X43604093Y-59011315D01*
X43604093Y-58844685D01*
X43636601Y-58681258D01*
X43700367Y-58527313D01*
X43792941Y-58388766D01*
X43910766Y-58270941D01*
X44049313Y-58178367D01*
X44203258Y-58114601D01*
X44366685Y-58082093D01*
X44533315Y-58082093D01*
X44696742Y-58114601D01*
G37*
G36*
X50728968Y-35609445D02*
G01*
X50952825Y-35682181D01*
X51162548Y-35789040D01*
X51352972Y-35927391D01*
X51519409Y-36093828D01*
X51657760Y-36284252D01*
X51764619Y-36493975D01*
X51837355Y-36717832D01*
X51874176Y-36950311D01*
X51874176Y-37185689D01*
X51837355Y-37418168D01*
X51764619Y-37642025D01*
X51657760Y-37851748D01*
X51519409Y-38042172D01*
X51352972Y-38208609D01*
X51162548Y-38346960D01*
X50952825Y-38453819D01*
X50728968Y-38526555D01*
X50496489Y-38563376D01*
X50261111Y-38563376D01*
X50028632Y-38526555D01*
X49804775Y-38453819D01*
X49595052Y-38346960D01*
X49404628Y-38208609D01*
X49238191Y-38042172D01*
X49099840Y-37851748D01*
X48992981Y-37642025D01*
X48920245Y-37418168D01*
X48883424Y-37185689D01*
X48883424Y-36950311D01*
X48920245Y-36717832D01*
X48992981Y-36493975D01*
X49099840Y-36284252D01*
X49238191Y-36093828D01*
X49404628Y-35927391D01*
X49595052Y-35789040D01*
X49804775Y-35682181D01*
X50028632Y-35609445D01*
X50261111Y-35572624D01*
X50496489Y-35572624D01*
X50728968Y-35609445D01*
G37*
G36*
X55728968Y-35609445D02*
G01*
X55952825Y-35682181D01*
X56162548Y-35789040D01*
X56352972Y-35927391D01*
X56519409Y-36093828D01*
X56657760Y-36284252D01*
X56764619Y-36493975D01*
X56837355Y-36717832D01*
X56874176Y-36950311D01*
X56874176Y-37185689D01*
X56837355Y-37418168D01*
X56764619Y-37642025D01*
X56657760Y-37851748D01*
X56519409Y-38042172D01*
X56352972Y-38208609D01*
X56162548Y-38346960D01*
X55952825Y-38453819D01*
X55728968Y-38526555D01*
X55496489Y-38563376D01*
X55261111Y-38563376D01*
X55028632Y-38526555D01*
X54804775Y-38453819D01*
X54595052Y-38346960D01*
X54404628Y-38208609D01*
X54238191Y-38042172D01*
X54099840Y-37851748D01*
X53992981Y-37642025D01*
X53920245Y-37418168D01*
X53883424Y-37185689D01*
X53883424Y-36950311D01*
X53920245Y-36717832D01*
X53992981Y-36493975D01*
X54099840Y-36284252D01*
X54238191Y-36093828D01*
X54404628Y-35927391D01*
X54595052Y-35789040D01*
X54804775Y-35682181D01*
X55028632Y-35609445D01*
X55261111Y-35572624D01*
X55496489Y-35572624D01*
X55728968Y-35609445D01*
G37*
G36*
X53228968Y-28009445D02*
G01*
X53452825Y-28082181D01*
X53662548Y-28189040D01*
X53852972Y-28327391D01*
X54019409Y-28493828D01*
X54157760Y-28684252D01*
X54264619Y-28893975D01*
X54337355Y-29117832D01*
X54374176Y-29350311D01*
X54374176Y-29585689D01*
X54337355Y-29818168D01*
X54264619Y-30042025D01*
X54157760Y-30251748D01*
X54019409Y-30442172D01*
X53852972Y-30608609D01*
X53662548Y-30746960D01*
X53452825Y-30853819D01*
X53228968Y-30926555D01*
X52996489Y-30963376D01*
X52761111Y-30963376D01*
X52528632Y-30926555D01*
X52304775Y-30853819D01*
X52095052Y-30746960D01*
X51904628Y-30608609D01*
X51738191Y-30442172D01*
X51599840Y-30251748D01*
X51492981Y-30042025D01*
X51420245Y-29818168D01*
X51383424Y-29585689D01*
X51383424Y-29350311D01*
X51420245Y-29117832D01*
X51492981Y-28893975D01*
X51599840Y-28684252D01*
X51738191Y-28493828D01*
X51904628Y-28327391D01*
X52095052Y-28189040D01*
X52304775Y-28082181D01*
X52528632Y-28009445D01*
X52761111Y-27972624D01*
X52996489Y-27972624D01*
X53228968Y-28009445D01*
G37*
G36*
X48750142Y-24794060D02*
G01*
X48863181Y-24859323D01*
X48955477Y-24951619D01*
X49020740Y-25064658D01*
X49054522Y-25190737D01*
X49058800Y-25256000D01*
X49058800Y-25956000D01*
X49054522Y-26021263D01*
X49020740Y-26147342D01*
X48955477Y-26260381D01*
X48863181Y-26352677D01*
X48750142Y-26417940D01*
X48624063Y-26451722D01*
X48493537Y-26451722D01*
X48367458Y-26417940D01*
X48254419Y-26352677D01*
X48162123Y-26260381D01*
X48096860Y-26147342D01*
X48063078Y-26021263D01*
X48058800Y-25956000D01*
X48058800Y-25256000D01*
X48063078Y-25190737D01*
X48096860Y-25064658D01*
X48162123Y-24951619D01*
X48254419Y-24859323D01*
X48367458Y-24794060D01*
X48493537Y-24760278D01*
X48624063Y-24760278D01*
X48750142Y-24794060D01*
G37*
G36*
X57390142Y-24794060D02*
G01*
X57503181Y-24859323D01*
X57595477Y-24951619D01*
X57660740Y-25064658D01*
X57694522Y-25190737D01*
X57698800Y-25256000D01*
X57698800Y-25956000D01*
X57694522Y-26021263D01*
X57660740Y-26147342D01*
X57595477Y-26260381D01*
X57503181Y-26352677D01*
X57390142Y-26417940D01*
X57264063Y-26451722D01*
X57133537Y-26451722D01*
X57007458Y-26417940D01*
X56894419Y-26352677D01*
X56802123Y-26260381D01*
X56736860Y-26147342D01*
X56703078Y-26021263D01*
X56698800Y-25956000D01*
X56698800Y-25256000D01*
X56703078Y-25190737D01*
X56736860Y-25064658D01*
X56802123Y-24951619D01*
X56894419Y-24859323D01*
X57007458Y-24794060D01*
X57133537Y-24760278D01*
X57264063Y-24760278D01*
X57390142Y-24794060D01*
G37*
G36*
X48750142Y-20994060D02*
G01*
X48863181Y-21059323D01*
X48955477Y-21151619D01*
X49020740Y-21264658D01*
X49054522Y-21390737D01*
X49058800Y-21456000D01*
X49058800Y-22156000D01*
X49054522Y-22221263D01*
X49020740Y-22347342D01*
X48955477Y-22460381D01*
X48863181Y-22552677D01*
X48750142Y-22617940D01*
X48624063Y-22651722D01*
X48493537Y-22651722D01*
X48367458Y-22617940D01*
X48254419Y-22552677D01*
X48162123Y-22460381D01*
X48096860Y-22347342D01*
X48063078Y-22221263D01*
X48058800Y-22156000D01*
X48058800Y-21456000D01*
X48063078Y-21390737D01*
X48096860Y-21264658D01*
X48162123Y-21151619D01*
X48254419Y-21059323D01*
X48367458Y-20994060D01*
X48493537Y-20960278D01*
X48624063Y-20960278D01*
X48750142Y-20994060D01*
G37*
G36*
X57390142Y-20994060D02*
G01*
X57503181Y-21059323D01*
X57595477Y-21151619D01*
X57660740Y-21264658D01*
X57694522Y-21390737D01*
X57698800Y-21456000D01*
X57698800Y-22156000D01*
X57694522Y-22221263D01*
X57660740Y-22347342D01*
X57595477Y-22460381D01*
X57503181Y-22552677D01*
X57390142Y-22617940D01*
X57264063Y-22651722D01*
X57133537Y-22651722D01*
X57007458Y-22617940D01*
X56894419Y-22552677D01*
X56802123Y-22460381D01*
X56736860Y-22347342D01*
X56703078Y-22221263D01*
X56698800Y-22156000D01*
X56698800Y-21456000D01*
X56703078Y-21390737D01*
X56736860Y-21264658D01*
X56802123Y-21151619D01*
X56894419Y-21059323D01*
X57007458Y-20994060D01*
X57133537Y-20960278D01*
X57264063Y-20960278D01*
X57390142Y-20994060D01*
G37*
M02*
