%TF.GenerationSoftware,KiCad,Pcbnew,9.0.3*%
%TF.CreationDate,2025-09-26T00:40:55-04:00*%
%TF.ProjectId,Photon,50686f74-6f6e-42e6-9b69-6361645f7063,1.3*%
%TF.SameCoordinates,Original*%
%TF.FileFunction,Copper,L1,Top*%
%TF.FilePolarity,Positive*%
%FSLAX46Y46*%
G04 Gerber Fmt 4.6, Leading zero omitted, Abs format (unit mm)*
G04 Created by KiCad (PCBNEW 9.0.3) date 2025-09-26 00:40:55*
%MOMM*%
%LPD*%
G01*
G04 APERTURE LIST*
G04 Aperture macros list*
%AMRoundRect*
0 Rectangle with rounded corners*
0 $1 Rounding radius*
0 $2 $3 $4 $5 $6 $7 $8 $9 X,Y pos of 4 corners*
0 Add a 4 corners polygon primitive as box body*
4,1,4,$2,$3,$4,$5,$6,$7,$8,$9,$2,$3,0*
0 Add four circle primitives for the rounded corners*
1,1,$1+$1,$2,$3*
1,1,$1+$1,$4,$5*
1,1,$1+$1,$6,$7*
1,1,$1+$1,$8,$9*
0 Add four rect primitives between the rounded corners*
20,1,$1+$1,$2,$3,$4,$5,0*
20,1,$1+$1,$4,$5,$6,$7,0*
20,1,$1+$1,$6,$7,$8,$9,0*
20,1,$1+$1,$8,$9,$2,$3,0*%
G04 Aperture macros list end*
%TA.AperFunction,EtchedComponent*%
%ADD10C,0.200000*%
%TD*%
%TA.AperFunction,EtchedComponent*%
%ADD11C,2.259000*%
%TD*%
%TA.AperFunction,SMDPad,CuDef*%
%ADD12RoundRect,0.150000X0.725000X0.150000X-0.725000X0.150000X-0.725000X-0.150000X0.725000X-0.150000X0*%
%TD*%
%TA.AperFunction,SMDPad,CuDef*%
%ADD13RoundRect,0.200000X0.275000X-0.200000X0.275000X0.200000X-0.275000X0.200000X-0.275000X-0.200000X0*%
%TD*%
%TA.AperFunction,SMDPad,CuDef*%
%ADD14RoundRect,0.225000X0.225000X0.250000X-0.225000X0.250000X-0.225000X-0.250000X0.225000X-0.250000X0*%
%TD*%
%TA.AperFunction,SMDPad,CuDef*%
%ADD15C,0.500000*%
%TD*%
%TA.AperFunction,SMDPad,CuDef*%
%ADD16C,1.000000*%
%TD*%
%TA.AperFunction,SMDPad,CuDef*%
%ADD17RoundRect,0.175000X0.175000X0.625000X-0.175000X0.625000X-0.175000X-0.625000X0.175000X-0.625000X0*%
%TD*%
%TA.AperFunction,SMDPad,CuDef*%
%ADD18RoundRect,0.200000X0.200000X0.600000X-0.200000X0.600000X-0.200000X-0.600000X0.200000X-0.600000X0*%
%TD*%
%TA.AperFunction,SMDPad,CuDef*%
%ADD19RoundRect,0.225000X0.225000X0.575000X-0.225000X0.575000X-0.225000X-0.575000X0.225000X-0.575000X0*%
%TD*%
%TA.AperFunction,HeatsinkPad*%
%ADD20O,1.000000X1.700000*%
%TD*%
%TA.AperFunction,SMDPad,CuDef*%
%ADD21RoundRect,0.162500X0.617500X0.162500X-0.617500X0.162500X-0.617500X-0.162500X0.617500X-0.162500X0*%
%TD*%
%TA.AperFunction,SMDPad,CuDef*%
%ADD22RoundRect,0.225000X0.250000X-0.225000X0.250000X0.225000X-0.250000X0.225000X-0.250000X-0.225000X0*%
%TD*%
%TA.AperFunction,SMDPad,CuDef*%
%ADD23RoundRect,0.200000X-0.200000X-0.275000X0.200000X-0.275000X0.200000X0.275000X-0.200000X0.275000X0*%
%TD*%
%TA.AperFunction,SMDPad,CuDef*%
%ADD24RoundRect,0.225000X-0.225000X-0.250000X0.225000X-0.250000X0.225000X0.250000X-0.225000X0.250000X0*%
%TD*%
%TA.AperFunction,SMDPad,CuDef*%
%ADD25RoundRect,0.200000X0.200000X0.275000X-0.200000X0.275000X-0.200000X-0.275000X0.200000X-0.275000X0*%
%TD*%
%TA.AperFunction,SMDPad,CuDef*%
%ADD26RoundRect,0.200000X-0.275000X0.200000X-0.275000X-0.200000X0.275000X-0.200000X0.275000X0.200000X0*%
%TD*%
%TA.AperFunction,SMDPad,CuDef*%
%ADD27RoundRect,0.105000X-0.420000X-0.895000X0.420000X-0.895000X0.420000X0.895000X-0.420000X0.895000X0*%
%TD*%
%TA.AperFunction,SMDPad,CuDef*%
%ADD28RoundRect,0.218750X0.218750X0.256250X-0.218750X0.256250X-0.218750X-0.256250X0.218750X-0.256250X0*%
%TD*%
%TA.AperFunction,SMDPad,CuDef*%
%ADD29RoundRect,0.150000X0.587500X0.150000X-0.587500X0.150000X-0.587500X-0.150000X0.587500X-0.150000X0*%
%TD*%
%TA.AperFunction,SMDPad,CuDef*%
%ADD30RoundRect,0.162500X-0.617500X-0.162500X0.617500X-0.162500X0.617500X0.162500X-0.617500X0.162500X0*%
%TD*%
%TA.AperFunction,SMDPad,CuDef*%
%ADD31RoundRect,0.218750X-0.256250X0.218750X-0.256250X-0.218750X0.256250X-0.218750X0.256250X0.218750X0*%
%TD*%
%TA.AperFunction,SMDPad,CuDef*%
%ADD32RoundRect,0.120000X1.230000X-0.280000X1.230000X0.280000X-1.230000X0.280000X-1.230000X-0.280000X0*%
%TD*%
%TA.AperFunction,SMDPad,CuDef*%
%ADD33RoundRect,0.255000X-0.595000X0.945000X-0.595000X-0.945000X0.595000X-0.945000X0.595000X0.945000X0*%
%TD*%
%TA.AperFunction,SMDPad,CuDef*%
%ADD34RoundRect,0.150000X0.825000X0.150000X-0.825000X0.150000X-0.825000X-0.150000X0.825000X-0.150000X0*%
%TD*%
%TA.AperFunction,HeatsinkPad*%
%ADD35R,2.290000X3.000000*%
%TD*%
%TA.AperFunction,SMDPad,CuDef*%
%ADD36RoundRect,0.255000X0.595000X-0.945000X0.595000X0.945000X-0.595000X0.945000X-0.595000X-0.945000X0*%
%TD*%
%TA.AperFunction,SMDPad,CuDef*%
%ADD37RoundRect,0.150000X0.150000X-0.587500X0.150000X0.587500X-0.150000X0.587500X-0.150000X-0.587500X0*%
%TD*%
%TA.AperFunction,ViaPad*%
%ADD38C,0.700000*%
%TD*%
%TA.AperFunction,Conductor*%
%ADD39C,0.200000*%
%TD*%
%TA.AperFunction,Conductor*%
%ADD40C,0.300000*%
%TD*%
%TA.AperFunction,Conductor*%
%ADD41C,0.500000*%
%TD*%
%TA.AperFunction,Conductor*%
%ADD42C,0.600000*%
%TD*%
%TA.AperFunction,Conductor*%
%ADD43C,0.700000*%
%TD*%
%TA.AperFunction,Conductor*%
%ADD44C,1.000000*%
%TD*%
G04 APERTURE END LIST*
%TO.C,D5*%
D10*
X57252757Y-51345500D02*
X54966757Y-51345500D01*
X54966757Y-52361500D01*
X57252757Y-52361500D01*
X57252757Y-51345500D01*
%TA.AperFunction,EtchedComponent*%
G36*
X57252757Y-51345500D02*
G01*
X54966757Y-51345500D01*
X54966757Y-52361500D01*
X57252757Y-52361500D01*
X57252757Y-51345500D01*
G37*
%TD.AperFunction*%
D11*
X53937257Y-51853500D02*
G75*
G02*
X51678257Y-51853500I-1129500J0D01*
G01*
X51678257Y-51853500D02*
G75*
G02*
X53937257Y-51853500I1129500J0D01*
G01*
%TO.C,D6*%
D10*
X48387000Y-91440000D02*
X50673000Y-91440000D01*
X50673000Y-90424000D01*
X48387000Y-90424000D01*
X48387000Y-91440000D01*
%TA.AperFunction,EtchedComponent*%
G36*
X48387000Y-91440000D02*
G01*
X50673000Y-91440000D01*
X50673000Y-90424000D01*
X48387000Y-90424000D01*
X48387000Y-91440000D01*
G37*
%TD.AperFunction*%
D11*
X53961500Y-90932000D02*
G75*
G02*
X51702500Y-90932000I-1129500J0D01*
G01*
X51702500Y-90932000D02*
G75*
G02*
X53961500Y-90932000I1129500J0D01*
G01*
%TD*%
D12*
%TO.P,U1,1,~{RESET}/PB5*%
%TO.N,/RESET*%
X54899000Y-78486000D03*
%TO.P,U1,2,PB3*%
%TO.N,/LED2_EN*%
X54899000Y-77216000D03*
%TO.P,U1,3,PB4*%
%TO.N,/LED1_EN*%
X54899000Y-75946000D03*
%TO.P,U1,4,GND*%
%TO.N,GND*%
X54899000Y-74676000D03*
%TO.P,U1,5,PB0*%
%TO.N,/MOSI*%
X49749000Y-74676000D03*
%TO.P,U1,6,PB1*%
%TO.N,/MISO_BTN*%
X49749000Y-75946000D03*
%TO.P,U1,7,PB2*%
%TO.N,/SCK*%
X49749000Y-77216000D03*
%TO.P,U1,8,VCC*%
%TO.N,+3V3*%
X49749000Y-78486000D03*
%TD*%
D13*
%TO.P,R6,1*%
%TO.N,/BUCK_EN*%
X58674000Y-42735000D03*
%TO.P,R6,2*%
%TO.N,/PMOS_OUT*%
X58674000Y-41085000D03*
%TD*%
D14*
%TO.P,C2,1*%
%TO.N,GND*%
X51575000Y-63500000D03*
%TO.P,C2,2*%
%TO.N,PACK+*%
X50025000Y-63500000D03*
%TD*%
D15*
%TO.P,FID2,*%
%TO.N,*%
X44704000Y-94742000D03*
%TD*%
D16*
%TO.P,TP7,1,1*%
%TO.N,/MISO_BTN*%
X52578000Y-109474000D03*
%TD*%
%TO.P,TP2,1,1*%
%TO.N,/MOSI*%
X45212000Y-74168000D03*
%TD*%
%TO.P,TP8,1,1*%
%TO.N,/BUCK_EN*%
X60960000Y-40640000D03*
%TD*%
D17*
%TO.P,J1,A5,CC1*%
%TO.N,/CC1*%
X53378800Y-26040000D03*
D18*
%TO.P,J1,A9,VBUS*%
%TO.N,5V*%
X51358800Y-26040000D03*
D19*
%TO.P,J1,A12,GND*%
%TO.N,GND*%
X50128800Y-26040000D03*
D17*
%TO.P,J1,B5,CC2*%
%TO.N,/CC2*%
X52378800Y-26040000D03*
D18*
%TO.P,J1,B9,VBUS*%
%TO.N,5V*%
X54398800Y-26040000D03*
D19*
%TO.P,J1,B12,GND*%
%TO.N,GND*%
X55628800Y-26040000D03*
D20*
%TO.P,J1,S1,SHIELD*%
X57198800Y-25860000D03*
X57198800Y-22060000D03*
X48558800Y-25860000D03*
X48558800Y-22060000D03*
%TD*%
D16*
%TO.P,TP6,1,1*%
%TO.N,5V*%
X60198000Y-23876000D03*
%TD*%
D21*
%TO.P,U6,1,S1*%
%TO.N,/BAT_SAF_OUT*%
X58246000Y-105786000D03*
%TO.P,U6,2,D1/D2*%
%TO.N,unconnected-(U6-D1{slash}D2-Pad2)*%
X58246000Y-104836000D03*
%TO.P,U6,3,S2*%
%TO.N,GND*%
X58246000Y-103886000D03*
%TO.P,U6,4,G2*%
%TO.N,/OC*%
X55546000Y-103886000D03*
%TO.P,U6,5,D1/D2*%
%TO.N,unconnected-(U6-D1{slash}D2-Pad5)*%
X55546000Y-104836000D03*
%TO.P,U6,6,G1*%
%TO.N,/OD*%
X55546000Y-105786000D03*
%TD*%
D22*
%TO.P,C4,1*%
%TO.N,/FB*%
X48768000Y-67831000D03*
%TO.P,C4,2*%
%TO.N,+3V3*%
X48768000Y-66281000D03*
%TD*%
D21*
%TO.P,U5,1,OD*%
%TO.N,/OD*%
X51388000Y-105786000D03*
%TO.P,U5,2,VM*%
%TO.N,/VM*%
X51388000Y-104836000D03*
%TO.P,U5,3,OC*%
%TO.N,/OC*%
X51388000Y-103886000D03*
%TO.P,U5,4,TD*%
%TO.N,unconnected-(U5-TD-Pad4)*%
X48688000Y-103886000D03*
%TO.P,U5,5,VCC*%
%TO.N,/DW01A_VCC*%
X48688000Y-104836000D03*
%TO.P,U5,6,GND*%
%TO.N,/BAT_SAF_OUT*%
X48688000Y-105786000D03*
%TD*%
D23*
%TO.P,R9,1*%
%TO.N,/FB*%
X51499000Y-70104000D03*
%TO.P,R9,2*%
%TO.N,GND*%
X53149000Y-70104000D03*
%TD*%
D24*
%TO.P,C5,1*%
%TO.N,GND*%
X53581000Y-63500000D03*
%TO.P,C5,2*%
%TO.N,+3V3*%
X55131000Y-63500000D03*
%TD*%
D16*
%TO.P,TP11,1,1*%
%TO.N,/LED2_EN*%
X59182000Y-77216000D03*
%TD*%
D23*
%TO.P,R4,1*%
%TO.N,5V*%
X53023000Y-41148000D03*
%TO.P,R4,2*%
%TO.N,/PMOS_Gate*%
X54673000Y-41148000D03*
%TD*%
D16*
%TO.P,TP4,1,1*%
%TO.N,/MISO_BTN*%
X43688000Y-76200000D03*
%TD*%
%TO.P,TP1,1,1*%
%TO.N,GND*%
X45212000Y-82296000D03*
%TD*%
D14*
%TO.P,C1,1*%
%TO.N,GND*%
X50305000Y-80264000D03*
%TO.P,C1,2*%
%TO.N,+3V3*%
X48755000Y-80264000D03*
%TD*%
D21*
%TO.P,U4,1,EN*%
%TO.N,/LED1_EN*%
X49102000Y-58862000D03*
%TO.P,U4,2,OUT*%
%TO.N,/OUT_LED1*%
X49102000Y-57912000D03*
%TO.P,U4,3,OUT*%
X49102000Y-56962000D03*
%TO.P,U4,4,GND*%
%TO.N,GND*%
X46402000Y-56962000D03*
%TO.P,U4,5,OUT*%
%TO.N,/OUT_LED1*%
X46402000Y-57912000D03*
%TO.P,U4,6,Rext*%
%TO.N,/Rext1*%
X46402000Y-58862000D03*
%TD*%
D16*
%TO.P,TP5,1,1*%
%TO.N,/SCK*%
X45212000Y-78232000D03*
%TD*%
D25*
%TO.P,R2,1*%
%TO.N,/CC2*%
X46291000Y-24892000D03*
%TO.P,R2,2*%
%TO.N,GND*%
X44641000Y-24892000D03*
%TD*%
%TO.P,R1,1*%
%TO.N,/CC1*%
X46291000Y-23114000D03*
%TO.P,R1,2*%
%TO.N,GND*%
X44641000Y-23114000D03*
%TD*%
D26*
%TO.P,R16,1*%
%TO.N,/Rext2*%
X61976000Y-84494430D03*
%TO.P,R16,2*%
%TO.N,GND*%
X61976000Y-86144430D03*
%TD*%
D27*
%TO.P,SW1,1,1*%
%TO.N,/MISO_BTN*%
X50546000Y-112268000D03*
%TO.P,SW1,2,2*%
%TO.N,GND*%
X54991000Y-112268000D03*
%TD*%
D28*
%TO.P,D2,1,K*%
%TO.N,/STAT1*%
X47015500Y-33782000D03*
%TO.P,D2,2,A*%
%TO.N,/LED_PWR*%
X45440500Y-33782000D03*
%TD*%
D23*
%TO.P,R10,1*%
%TO.N,/Iset*%
X57471000Y-33250000D03*
%TO.P,R10,2*%
%TO.N,GND*%
X59121000Y-33250000D03*
%TD*%
D25*
%TO.P,R7,1*%
%TO.N,5V*%
X47073000Y-35540000D03*
%TO.P,R7,2*%
%TO.N,/LED_PWR*%
X45423000Y-35540000D03*
%TD*%
%TO.P,R12,1*%
%TO.N,/LED1_EN*%
X46799000Y-64770000D03*
%TO.P,R12,2*%
%TO.N,GND*%
X45149000Y-64770000D03*
%TD*%
D29*
%TO.P,Q2,1,G*%
%TO.N,Net-(Q2-G)*%
X49197500Y-98486000D03*
%TO.P,Q2,2,S*%
%TO.N,PACK+*%
X49197500Y-96586000D03*
%TO.P,Q2,3,D*%
%TO.N,/Bat+*%
X47322500Y-97536000D03*
%TD*%
D30*
%TO.P,U7,1,EN*%
%TO.N,/LED2_EN*%
X57070000Y-84394000D03*
%TO.P,U7,2,OUT*%
%TO.N,/OUT_LED2*%
X57070000Y-85344000D03*
%TO.P,U7,3,OUT*%
X57070000Y-86294000D03*
%TO.P,U7,4,GND*%
%TO.N,GND*%
X59770000Y-86294000D03*
%TO.P,U7,5,OUT*%
%TO.N,/OUT_LED2*%
X59770000Y-85344000D03*
%TO.P,U7,6,Rext*%
%TO.N,/Rext2*%
X59770000Y-84394000D03*
%TD*%
D26*
%TO.P,R14,1*%
%TO.N,/Bat+*%
X46228000Y-101791000D03*
%TO.P,R14,2*%
%TO.N,/DW01A_VCC*%
X46228000Y-103441000D03*
%TD*%
D23*
%TO.P,R3,1*%
%TO.N,+3V3*%
X45149000Y-112268000D03*
%TO.P,R3,2*%
%TO.N,/MISO_BTN*%
X46799000Y-112268000D03*
%TD*%
%TO.P,R18,1*%
%TO.N,+3V3*%
X54039000Y-80264000D03*
%TO.P,R18,2*%
%TO.N,/RESET*%
X55689000Y-80264000D03*
%TD*%
D31*
%TO.P,D3,1,K*%
%TO.N,GND*%
X61976000Y-58140500D03*
%TO.P,D3,2,A*%
%TO.N,/LED_A*%
X61976000Y-59715500D03*
%TD*%
D16*
%TO.P,TP9,1,1*%
%TO.N,+3V3*%
X43688000Y-80264000D03*
%TD*%
%TO.P,TP3,1,1*%
%TO.N,/RESET*%
X43688000Y-72136000D03*
%TD*%
D26*
%TO.P,R5,1*%
%TO.N,/PMOS_Gate*%
X56642000Y-41085000D03*
%TO.P,R5,2*%
%TO.N,GND*%
X56642000Y-42735000D03*
%TD*%
D32*
%TO.P,L1,1,1*%
%TO.N,/LX*%
X58115200Y-65709800D03*
%TO.P,L1,2,2*%
%TO.N,+3V3*%
X58115200Y-63398400D03*
%TD*%
D13*
%TO.P,R11,1*%
%TO.N,+3V3*%
X61976000Y-63118000D03*
%TO.P,R11,2*%
%TO.N,/LED_A*%
X61976000Y-61468000D03*
%TD*%
D15*
%TO.P,FID1,*%
%TO.N,*%
X47244000Y-39878000D03*
%TD*%
D26*
%TO.P,R19,1*%
%TO.N,Net-(Q2-G)*%
X49276000Y-100267000D03*
%TO.P,R19,2*%
%TO.N,/BAT_SAF_OUT*%
X49276000Y-101917000D03*
%TD*%
D33*
%TO.P,D5,1,K*%
%TO.N,/OUT_LED1*%
X53569757Y-58203500D03*
%TO.P,D5,2,A*%
%TO.N,+3V3*%
X52045757Y-45503500D03*
%TD*%
D22*
%TO.P,C7,1*%
%TO.N,/BAT_SAF_OUT*%
X46228000Y-106693000D03*
%TO.P,C7,2*%
%TO.N,/DW01A_VCC*%
X46228000Y-105143000D03*
%TD*%
D15*
%TO.P,FID3,*%
%TO.N,*%
X61468000Y-94488000D03*
%TD*%
D23*
%TO.P,R8,1*%
%TO.N,+3V3*%
X47943000Y-70104000D03*
%TO.P,R8,2*%
%TO.N,/FB*%
X49593000Y-70104000D03*
%TD*%
D25*
%TO.P,R17,1*%
%TO.N,GND*%
X53657000Y-101854000D03*
%TO.P,R17,2*%
%TO.N,/VM*%
X52007000Y-101854000D03*
%TD*%
D16*
%TO.P,TP10,1,1*%
%TO.N,/LED1_EN*%
X46736000Y-62230000D03*
%TD*%
D21*
%TO.P,U2,1,EN*%
%TO.N,/BUCK_EN*%
X53848000Y-68072000D03*
%TO.P,U2,2,GND*%
%TO.N,GND*%
X53848000Y-67122000D03*
%TO.P,U2,3,LX*%
%TO.N,/LX*%
X53848000Y-66172000D03*
%TO.P,U2,4,Vin*%
%TO.N,PACK+*%
X51148000Y-66172000D03*
%TO.P,U2,5,FB*%
%TO.N,/FB*%
X51148000Y-68072000D03*
%TD*%
D13*
%TO.P,R13,1*%
%TO.N,/Rext1*%
X44196000Y-58737000D03*
%TO.P,R13,2*%
%TO.N,GND*%
X44196000Y-57087000D03*
%TD*%
D23*
%TO.P,R15,1*%
%TO.N,/LED2_EN*%
X58357000Y-81026000D03*
%TO.P,R15,2*%
%TO.N,GND*%
X60007000Y-81026000D03*
%TD*%
D28*
%TO.P,D1,1,K*%
%TO.N,/STAT2*%
X47015500Y-31984000D03*
%TO.P,D1,2,A*%
%TO.N,/LED_PWR*%
X45440500Y-31984000D03*
%TD*%
D34*
%TO.P,U3,1*%
%TO.N,N/C*%
X54737000Y-34405000D03*
%TO.P,U3,2,ISET*%
%TO.N,/Iset*%
X54737000Y-33135000D03*
%TO.P,U3,3,VSS*%
%TO.N,GND*%
X54737000Y-31865000D03*
%TO.P,U3,4,VIN*%
%TO.N,5V*%
X54737000Y-30595000D03*
%TO.P,U3,5,VBAT*%
%TO.N,PACK+*%
X49787000Y-30595000D03*
%TO.P,U3,6,STAT2*%
%TO.N,/STAT2*%
X49787000Y-31865000D03*
%TO.P,U3,7,STAT1*%
%TO.N,/STAT1*%
X49787000Y-33135000D03*
%TO.P,U3,8,EN*%
%TO.N,5V*%
X49787000Y-34405000D03*
D35*
%TO.P,U3,9*%
%TO.N,N/C*%
X52262000Y-32500000D03*
%TD*%
D36*
%TO.P,D6,1,K*%
%TO.N,/OUT_LED2*%
X52070000Y-84582000D03*
%TO.P,D6,2,A*%
%TO.N,+3V3*%
X53594000Y-97282000D03*
%TD*%
D24*
%TO.P,C6,1*%
%TO.N,GND*%
X45473000Y-30230000D03*
%TO.P,C6,2*%
%TO.N,PACK+*%
X47023000Y-30230000D03*
%TD*%
D37*
%TO.P,Q1,1,G*%
%TO.N,/PMOS_Gate*%
X56708000Y-39037500D03*
%TO.P,Q1,2,S*%
%TO.N,/PMOS_OUT*%
X58608000Y-39037500D03*
%TO.P,Q1,3,D*%
%TO.N,PACK+*%
X57658000Y-37162500D03*
%TD*%
D14*
%TO.P,C3,1*%
%TO.N,GND*%
X59071000Y-30710000D03*
%TO.P,C3,2*%
%TO.N,5V*%
X57521000Y-30710000D03*
%TD*%
D38*
%TO.N,GND*%
X46736000Y-81534000D03*
X55626000Y-24526000D03*
X52324000Y-67056000D03*
X61976000Y-56642000D03*
X43434000Y-23114000D03*
X59182000Y-29464000D03*
X56896000Y-74676000D03*
X57658000Y-32004000D03*
X50128800Y-24526000D03*
X43434000Y-24892000D03*
X54864000Y-70104000D03*
X59436000Y-87376000D03*
X52578000Y-64770000D03*
X55372000Y-42863000D03*
X60960000Y-81026000D03*
X57057000Y-112268000D03*
X44196000Y-55880000D03*
X50292000Y-81534000D03*
X46228000Y-55880000D03*
X59944000Y-103886000D03*
X59182000Y-32004000D03*
X43942000Y-64770000D03*
X45466000Y-28956000D03*
%TO.N,PACK+*%
X48006000Y-28702000D03*
X57658000Y-35306000D03*
X50038000Y-95504000D03*
X48768000Y-63500000D03*
%TO.N,+3V3*%
X55880000Y-61976000D03*
X48768000Y-65024000D03*
X57912000Y-61976000D03*
X53848000Y-46482000D03*
X59944000Y-61976000D03*
X48260000Y-69088000D03*
X45149000Y-113475000D03*
X51816000Y-96266000D03*
X51816000Y-98552000D03*
X52578000Y-78486000D03*
X53848000Y-44450000D03*
X48768000Y-81534000D03*
%TO.N,5V*%
X48768000Y-35814000D03*
X51358800Y-24526000D03*
X54356000Y-24384000D03*
X57404000Y-29464000D03*
X51816000Y-41085000D03*
%TO.N,/BAT_SAF_OUT*%
X46228000Y-108712000D03*
%TO.N,/VM*%
X53086000Y-103124000D03*
X53594000Y-104902000D03*
%TO.N,/Bat+*%
X49022000Y-94742000D03*
%TD*%
D39*
%TO.N,/VM*%
X53274000Y-104836000D02*
X51388000Y-104836000D01*
X53340000Y-104902000D02*
X53274000Y-104836000D01*
X53594000Y-104902000D02*
X53340000Y-104902000D01*
X53086000Y-103124000D02*
X53086000Y-102933000D01*
X53086000Y-102933000D02*
X52007000Y-101854000D01*
%TO.N,GND*%
X58606000Y-103886000D02*
X56574000Y-101854000D01*
D40*
X46277000Y-57087000D02*
X46402000Y-56962000D01*
X61976000Y-86144430D02*
X59199070Y-86144430D01*
X55372000Y-42863000D02*
X56514000Y-42863000D01*
D41*
X55626000Y-24526000D02*
X55628800Y-24528800D01*
D40*
X44196000Y-57087000D02*
X44196000Y-55880000D01*
X46736000Y-81534000D02*
X45974000Y-81534000D01*
D41*
X59182000Y-30599000D02*
X59071000Y-30710000D01*
D40*
X59199070Y-86144430D02*
X59049500Y-86294000D01*
X59182000Y-32004000D02*
X59182000Y-33189000D01*
D42*
X59436000Y-87376000D02*
X59436000Y-86680500D01*
D40*
X44196000Y-57087000D02*
X46277000Y-57087000D01*
X61976000Y-56642000D02*
X61976000Y-58140500D01*
D39*
X43942000Y-64770000D02*
X45149000Y-64770000D01*
D41*
X54737000Y-31865000D02*
X57519000Y-31865000D01*
D39*
X57057000Y-112268000D02*
X54991000Y-112268000D01*
D40*
X56896000Y-74676000D02*
X54899000Y-74676000D01*
D41*
X50128800Y-24526000D02*
X50128800Y-26040000D01*
X50292000Y-80277000D02*
X50305000Y-80264000D01*
X57519000Y-31865000D02*
X57658000Y-32004000D01*
D40*
X44641000Y-23114000D02*
X44641000Y-24892000D01*
D39*
X60960000Y-81026000D02*
X59753000Y-81026000D01*
D40*
X56514000Y-42863000D02*
X56642000Y-42735000D01*
D39*
X56574000Y-101854000D02*
X53657000Y-101854000D01*
D41*
X55628800Y-24528800D02*
X55628800Y-26040000D01*
D40*
X43434000Y-24892000D02*
X44641000Y-24892000D01*
X43434000Y-23114000D02*
X44641000Y-23114000D01*
D42*
X59944000Y-103886000D02*
X58606000Y-103886000D01*
D41*
X50292000Y-81534000D02*
X50292000Y-80277000D01*
D42*
X46402000Y-56054000D02*
X46228000Y-55880000D01*
D40*
X59182000Y-33189000D02*
X59121000Y-33250000D01*
D42*
X46402000Y-56962000D02*
X46402000Y-56054000D01*
D41*
X45473000Y-30230000D02*
X45473000Y-28963000D01*
D42*
X59436000Y-86680500D02*
X59049500Y-86294000D01*
D41*
X45473000Y-28963000D02*
X45466000Y-28956000D01*
D40*
X45974000Y-81534000D02*
X45212000Y-82296000D01*
D41*
X59182000Y-29464000D02*
X59182000Y-30599000D01*
D43*
%TO.N,PACK+*%
X47023000Y-30230000D02*
X49422000Y-30230000D01*
X47023000Y-29685000D02*
X47023000Y-30230000D01*
D42*
X50025000Y-64944500D02*
X50025000Y-63500000D01*
X57658000Y-35306000D02*
X57658000Y-37162500D01*
X50025000Y-63500000D02*
X48768000Y-63500000D01*
D44*
X49197500Y-96344500D02*
X50038000Y-95504000D01*
D43*
X48006000Y-28702000D02*
X47023000Y-29685000D01*
D44*
X49197500Y-96586000D02*
X49197500Y-96344500D01*
D43*
X49422000Y-30230000D02*
X49787000Y-30595000D01*
D42*
X51186500Y-66106000D02*
X50025000Y-64944500D01*
D39*
%TO.N,/FB*%
X51499000Y-70104000D02*
X49593000Y-70104000D01*
X51186500Y-68006000D02*
X48943000Y-68006000D01*
X49593000Y-68656000D02*
X48768000Y-67831000D01*
X48943000Y-68006000D02*
X48768000Y-67831000D01*
X49593000Y-70104000D02*
X49593000Y-68656000D01*
D42*
%TO.N,/OUT_LED1*%
X48889500Y-57912000D02*
X53353257Y-57912000D01*
X53353257Y-57912000D02*
X53569757Y-57695500D01*
X48889500Y-56962000D02*
X48889500Y-57912000D01*
X46614500Y-57912000D02*
X48889500Y-57912000D01*
%TO.N,/OUT_LED2*%
X52324000Y-85344000D02*
X52070000Y-85090000D01*
X59049500Y-85344000D02*
X56774500Y-85344000D01*
X56774500Y-86294000D02*
X56774500Y-85344000D01*
X56774500Y-85344000D02*
X52324000Y-85344000D01*
D41*
%TO.N,/LX*%
X55702200Y-65709800D02*
X58115200Y-65709800D01*
X55306000Y-66106000D02*
X55702200Y-65709800D01*
X53461500Y-66106000D02*
X55306000Y-66106000D01*
D39*
%TO.N,/SCK*%
X49749000Y-77216000D02*
X46929726Y-77216000D01*
X46929726Y-77216000D02*
X45913726Y-78232000D01*
X45913726Y-78232000D02*
X45212000Y-78232000D01*
%TO.N,/LED2_EN*%
X58420000Y-77978000D02*
X57658000Y-77216000D01*
X58420000Y-82748500D02*
X56774500Y-84394000D01*
X58420000Y-77978000D02*
X58420000Y-82748500D01*
X54899000Y-77216000D02*
X57658000Y-77216000D01*
X58420000Y-77978000D02*
X59182000Y-77216000D01*
%TO.N,/LED1_EN*%
X46893844Y-61818156D02*
X48889500Y-59822500D01*
X48367000Y-72751000D02*
X46893844Y-71277844D01*
X46893844Y-71277844D02*
X46893844Y-61818156D01*
X48889500Y-59822500D02*
X48889500Y-58862000D01*
X54356000Y-75946000D02*
X51161000Y-72751000D01*
X51161000Y-72751000D02*
X48367000Y-72751000D01*
X54899000Y-75946000D02*
X54356000Y-75946000D01*
%TO.N,/MOSI*%
X45720000Y-74676000D02*
X45212000Y-74168000D01*
X49749000Y-74676000D02*
X45720000Y-74676000D01*
D40*
%TO.N,/Rext1*%
X46614500Y-58862000D02*
X44321000Y-58862000D01*
X44321000Y-58862000D02*
X44196000Y-58737000D01*
%TO.N,/Rext2*%
X61367570Y-84394000D02*
X61468000Y-84494430D01*
X59049500Y-84394000D02*
X61367570Y-84394000D01*
X61468000Y-84494430D02*
X61976000Y-84494430D01*
D41*
%TO.N,+3V3*%
X53848000Y-46482000D02*
X53024257Y-46482000D01*
X51816000Y-96266000D02*
X52578000Y-96266000D01*
D39*
X48260000Y-69088000D02*
X48134000Y-69088000D01*
D41*
X48755000Y-79480000D02*
X49749000Y-78486000D01*
D42*
X48768000Y-66281000D02*
X48768000Y-65024000D01*
D39*
X45149000Y-113475000D02*
X45149000Y-112268000D01*
D41*
X53024257Y-46482000D02*
X52045757Y-45503500D01*
X53848000Y-44450000D02*
X53099257Y-44450000D01*
X52324000Y-98552000D02*
X53594000Y-97282000D01*
X48768000Y-81534000D02*
X48768000Y-80277000D01*
X48755000Y-80264000D02*
X48755000Y-79480000D01*
D39*
X48134000Y-69088000D02*
X47943000Y-69279000D01*
X47943000Y-69279000D02*
X47943000Y-70104000D01*
D41*
X53099257Y-44450000D02*
X52045757Y-45503500D01*
X52578000Y-96266000D02*
X53594000Y-97282000D01*
X48768000Y-80277000D02*
X48755000Y-80264000D01*
D39*
X54039000Y-79947000D02*
X52578000Y-78486000D01*
D41*
X51816000Y-98552000D02*
X52324000Y-98552000D01*
D39*
X48755000Y-80264000D02*
X43688000Y-80264000D01*
X54039000Y-80264000D02*
X54039000Y-79947000D01*
%TO.N,/MISO_BTN*%
X43248607Y-93149393D02*
X49530000Y-86868000D01*
X49749000Y-75946000D02*
X47752000Y-75946000D01*
X51816000Y-81023583D02*
X51816000Y-77138001D01*
X47752000Y-75946000D02*
X43942000Y-75946000D01*
X51816000Y-77138001D02*
X50623999Y-75946000D01*
X49530000Y-86868000D02*
X49530000Y-83309583D01*
X50546000Y-112268000D02*
X52578000Y-110236000D01*
X50546000Y-112268000D02*
X46799000Y-112268000D01*
X43248607Y-109010767D02*
X43248607Y-93149393D01*
X46505840Y-112268000D02*
X43248607Y-109010767D01*
X46799000Y-112268000D02*
X46505840Y-112268000D01*
X43942000Y-75946000D02*
X43688000Y-76200000D01*
X52578000Y-110236000D02*
X52578000Y-109474000D01*
X50623999Y-75946000D02*
X49749000Y-75946000D01*
X49530000Y-83309583D02*
X51816000Y-81023583D01*
%TO.N,/RESET*%
X53086000Y-76200000D02*
X53086000Y-77724000D01*
X55689000Y-80264000D02*
X55689000Y-79276000D01*
X50546000Y-73660000D02*
X53086000Y-76200000D01*
X43688000Y-72136000D02*
X45212000Y-72136000D01*
X55689000Y-79276000D02*
X54899000Y-78486000D01*
X45212000Y-72136000D02*
X46736000Y-73660000D01*
X53848000Y-78486000D02*
X54899000Y-78486000D01*
X46736000Y-73660000D02*
X50546000Y-73660000D01*
X53086000Y-77724000D02*
X53848000Y-78486000D01*
D40*
%TO.N,5V*%
X54852000Y-30710000D02*
X54737000Y-30595000D01*
D41*
X54356000Y-24904546D02*
X54398800Y-24947346D01*
D39*
X59944000Y-23622000D02*
X60198000Y-23876000D01*
D41*
X53820600Y-27291000D02*
X54398800Y-26712800D01*
X51358800Y-26040000D02*
X51358800Y-26840000D01*
X54398800Y-24947346D02*
X54398800Y-26040000D01*
X54398800Y-26712800D02*
X54398800Y-26040000D01*
D40*
X49787000Y-34405000D02*
X49787000Y-34795000D01*
X52960000Y-41085000D02*
X53023000Y-41148000D01*
D41*
X54356000Y-24384000D02*
X54356000Y-24904546D01*
D40*
X49787000Y-34795000D02*
X48768000Y-35814000D01*
D41*
X51809800Y-27291000D02*
X53820600Y-27291000D01*
X57521000Y-30710000D02*
X57521000Y-29581000D01*
X47347000Y-35814000D02*
X47073000Y-35540000D01*
X48768000Y-35814000D02*
X47347000Y-35814000D01*
X51358800Y-24526000D02*
X51358800Y-26040000D01*
D40*
X51816000Y-41085000D02*
X52960000Y-41085000D01*
D41*
X51358800Y-26840000D02*
X51809800Y-27291000D01*
D39*
X55118000Y-23622000D02*
X59944000Y-23622000D01*
X54356000Y-24384000D02*
X55118000Y-23622000D01*
D40*
X57521000Y-30710000D02*
X54852000Y-30710000D01*
D41*
X57521000Y-29581000D02*
X57404000Y-29464000D01*
D42*
%TO.N,/BAT_SAF_OUT*%
X48768000Y-105786000D02*
X47861000Y-106693000D01*
D39*
X49769000Y-105679000D02*
X49769000Y-102410000D01*
D42*
X47861000Y-106693000D02*
X46228000Y-106693000D01*
X49660000Y-106678000D02*
X48768000Y-105786000D01*
X46228000Y-106693000D02*
X46228000Y-108712000D01*
X58352000Y-105852000D02*
X57526000Y-106678000D01*
D39*
X49769000Y-102410000D02*
X49276000Y-101917000D01*
D42*
X57526000Y-106678000D02*
X49660000Y-106678000D01*
D39*
X49662000Y-105786000D02*
X49769000Y-105679000D01*
X48688000Y-105786000D02*
X49662000Y-105786000D01*
D42*
%TO.N,/DW01A_VCC*%
X48768000Y-104836000D02*
X46535000Y-104836000D01*
X46228000Y-103441000D02*
X46228000Y-105143000D01*
X46535000Y-104836000D02*
X46228000Y-105143000D01*
D39*
%TO.N,/CC1*%
X53378800Y-26040000D02*
X53378800Y-24168800D01*
X53378800Y-24168800D02*
X52578000Y-23368000D01*
X46545000Y-23368000D02*
X46291000Y-23114000D01*
X52578000Y-23368000D02*
X46545000Y-23368000D01*
%TO.N,/CC2*%
X52378800Y-24184800D02*
X52070000Y-23876000D01*
X52378800Y-26040000D02*
X52378800Y-24184800D01*
X47307000Y-23876000D02*
X46291000Y-24892000D01*
X52070000Y-23876000D02*
X47307000Y-23876000D01*
D41*
%TO.N,/LED_PWR*%
X45440500Y-31984000D02*
X45440500Y-35522500D01*
X45440500Y-35522500D02*
X45423000Y-35540000D01*
D40*
%TO.N,/STAT2*%
X47015500Y-31984000D02*
X47134500Y-31865000D01*
X47134500Y-31865000D02*
X49787000Y-31865000D01*
%TO.N,/STAT1*%
X47015500Y-33782000D02*
X47662500Y-33135000D01*
X47662500Y-33135000D02*
X49787000Y-33135000D01*
D39*
%TO.N,/LED_A*%
X61976000Y-61468000D02*
X61976000Y-59715500D01*
D40*
%TO.N,/PMOS_OUT*%
X58674000Y-41085000D02*
X58674000Y-39103500D01*
X58674000Y-39103500D02*
X58608000Y-39037500D01*
%TO.N,/PMOS_Gate*%
X56642000Y-41085000D02*
X56642000Y-39103500D01*
X56642000Y-41085000D02*
X54736000Y-41085000D01*
X56642000Y-39103500D02*
X56708000Y-39037500D01*
X54736000Y-41085000D02*
X54673000Y-41148000D01*
%TO.N,/BUCK_EN*%
X60706000Y-40703000D02*
X60897000Y-40703000D01*
D39*
X63246000Y-64008000D02*
X63246000Y-47307000D01*
D40*
X60897000Y-40703000D02*
X60960000Y-40640000D01*
D39*
X53461500Y-68006000D02*
X59248000Y-68006000D01*
X63246000Y-47307000D02*
X58674000Y-42735000D01*
X59248000Y-68006000D02*
X63246000Y-64008000D01*
D40*
X58674000Y-42735000D02*
X60706000Y-40703000D01*
%TO.N,/Iset*%
X57471000Y-33250000D02*
X54852000Y-33250000D01*
X54852000Y-33250000D02*
X54737000Y-33135000D01*
D39*
%TO.N,/OD*%
X51429500Y-105852000D02*
X55120000Y-105852000D01*
X55120000Y-105852000D02*
X55186000Y-105786000D01*
%TO.N,/OC*%
X51429500Y-103952000D02*
X55120000Y-103952000D01*
X55120000Y-103952000D02*
X55186000Y-103886000D01*
D44*
%TO.N,/Bat+*%
X46228000Y-99392500D02*
X47322500Y-98298000D01*
X49022000Y-94742000D02*
X47322500Y-96441500D01*
X47322500Y-96441500D02*
X47322500Y-97536000D01*
X46228000Y-101791000D02*
X46228000Y-99392500D01*
X47322500Y-98298000D02*
X47322500Y-97536000D01*
D39*
%TO.N,Net-(Q2-G)*%
X49276000Y-100267000D02*
X49276000Y-98564500D01*
X49276000Y-98564500D02*
X49197500Y-98486000D01*
%TD*%
%TA.AperFunction,Conductor*%
%TO.N,GND*%
G36*
X52909316Y-63010907D02*
G01*
X52945280Y-63060407D01*
X52945282Y-63108907D01*
X52947981Y-63109335D01*
X52931000Y-63216546D01*
X52931000Y-63249999D01*
X52931001Y-63250000D01*
X53482000Y-63250000D01*
X53540191Y-63268907D01*
X53576155Y-63318407D01*
X53581000Y-63349000D01*
X53581000Y-63499999D01*
X53581001Y-63500000D01*
X53732000Y-63500000D01*
X53790191Y-63518907D01*
X53826155Y-63568407D01*
X53831000Y-63599000D01*
X53831000Y-64174998D01*
X53831001Y-64174999D01*
X53839453Y-64174999D01*
X53938965Y-64159239D01*
X53938969Y-64159237D01*
X54058921Y-64098118D01*
X54154117Y-64002922D01*
X54168790Y-63974126D01*
X54212055Y-63930861D01*
X54272487Y-63921290D01*
X54327004Y-63949068D01*
X54354781Y-64003584D01*
X54356000Y-64019071D01*
X54356000Y-65222248D01*
X54354098Y-65241563D01*
X54337005Y-65327492D01*
X54322223Y-65363178D01*
X54279073Y-65427758D01*
X54251758Y-65455073D01*
X54187178Y-65498223D01*
X54151492Y-65513005D01*
X54086801Y-65525873D01*
X54065561Y-65530098D01*
X54046248Y-65532000D01*
X52832000Y-65532000D01*
X52832000Y-66548000D01*
X52889634Y-66548000D01*
X52897231Y-66550468D01*
X52905121Y-66549219D01*
X52925776Y-66559743D01*
X52947825Y-66566907D01*
X52959631Y-66576990D01*
X52959992Y-66577351D01*
X52987768Y-66631866D01*
X52978197Y-66692298D01*
X52959992Y-66717356D01*
X52931400Y-66745948D01*
X52878266Y-66854636D01*
X52875736Y-66872000D01*
X54820263Y-66872000D01*
X54817733Y-66854636D01*
X54764599Y-66745948D01*
X54744155Y-66725504D01*
X54716378Y-66670987D01*
X54725949Y-66610555D01*
X54769214Y-66567290D01*
X54814159Y-66556500D01*
X55365309Y-66556500D01*
X55384439Y-66551373D01*
X55410063Y-66548000D01*
X55570248Y-66548000D01*
X55589562Y-66549902D01*
X55675492Y-66566994D01*
X55711177Y-66581775D01*
X55775761Y-66624929D01*
X55803070Y-66652238D01*
X55833312Y-66697498D01*
X55846223Y-66716821D01*
X55861005Y-66752507D01*
X55878098Y-66838436D01*
X55880000Y-66857751D01*
X55880000Y-67606500D01*
X55861093Y-67664691D01*
X55811593Y-67700655D01*
X55781000Y-67705500D01*
X54815866Y-67705500D01*
X54808268Y-67703031D01*
X54800379Y-67704281D01*
X54779723Y-67693756D01*
X54757675Y-67686593D01*
X54745868Y-67676509D01*
X54736006Y-67666647D01*
X54708231Y-67612133D01*
X54717802Y-67551701D01*
X54736009Y-67526641D01*
X54764600Y-67498050D01*
X54817733Y-67389363D01*
X54820263Y-67372000D01*
X52875737Y-67372000D01*
X52878266Y-67389363D01*
X52931400Y-67498051D01*
X52959991Y-67526642D01*
X52987768Y-67581159D01*
X52978197Y-67641591D01*
X52959992Y-67666649D01*
X52930987Y-67695654D01*
X52927381Y-67703031D01*
X52877780Y-67804491D01*
X52867501Y-67875048D01*
X52867500Y-67875054D01*
X52867500Y-68268943D01*
X52867501Y-68268951D01*
X52877778Y-68339504D01*
X52877781Y-68339514D01*
X52930985Y-68448343D01*
X52930987Y-68448345D01*
X52930988Y-68448347D01*
X53016653Y-68534012D01*
X53125491Y-68587220D01*
X53196051Y-68597500D01*
X54499948Y-68597499D01*
X54547542Y-68590565D01*
X54570504Y-68587221D01*
X54570505Y-68587220D01*
X54570509Y-68587220D01*
X54570511Y-68587218D01*
X54570514Y-68587218D01*
X54679343Y-68534014D01*
X54679343Y-68534013D01*
X54679347Y-68534012D01*
X54765012Y-68448347D01*
X54807215Y-68362018D01*
X54849759Y-68318045D01*
X54896156Y-68306500D01*
X55781000Y-68306500D01*
X55839191Y-68325407D01*
X55875155Y-68374907D01*
X55880000Y-68405500D01*
X55880000Y-70810248D01*
X55878098Y-70829563D01*
X55861005Y-70915492D01*
X55846223Y-70951178D01*
X55803073Y-71015758D01*
X55775758Y-71043073D01*
X55711178Y-71086223D01*
X55675492Y-71101005D01*
X55610801Y-71113873D01*
X55589561Y-71118098D01*
X55570248Y-71120000D01*
X51617752Y-71120000D01*
X51598438Y-71118098D01*
X51512508Y-71101005D01*
X51476821Y-71086223D01*
X51464246Y-71077821D01*
X51412238Y-71043070D01*
X51384929Y-71015761D01*
X51341775Y-70951177D01*
X51326994Y-70915489D01*
X51323478Y-70897811D01*
X51330671Y-70837050D01*
X51372204Y-70792121D01*
X51420573Y-70779499D01*
X51730518Y-70779499D01*
X51730521Y-70779499D01*
X51730522Y-70779498D01*
X51777411Y-70772072D01*
X51824299Y-70764647D01*
X51824299Y-70764646D01*
X51824304Y-70764646D01*
X51937342Y-70707050D01*
X52027050Y-70617342D01*
X52084646Y-70504304D01*
X52099500Y-70410519D01*
X52099500Y-70354001D01*
X52549001Y-70354001D01*
X52549001Y-70410485D01*
X52563833Y-70504141D01*
X52563836Y-70504151D01*
X52621358Y-70617043D01*
X52710955Y-70706640D01*
X52823854Y-70764165D01*
X52823857Y-70764166D01*
X52898999Y-70776066D01*
X52899000Y-70776065D01*
X52899000Y-70354001D01*
X53399000Y-70354001D01*
X53399000Y-70776066D01*
X53474142Y-70764166D01*
X53474145Y-70764165D01*
X53587044Y-70706640D01*
X53676641Y-70617043D01*
X53734163Y-70504151D01*
X53734164Y-70504147D01*
X53749000Y-70410484D01*
X53749000Y-70354001D01*
X53748999Y-70354000D01*
X53399001Y-70354000D01*
X53399000Y-70354001D01*
X52899000Y-70354001D01*
X52898999Y-70354000D01*
X52549002Y-70354000D01*
X52549001Y-70354001D01*
X52099500Y-70354001D01*
X52099499Y-70064438D01*
X52099499Y-69797515D01*
X52549000Y-69797515D01*
X52549000Y-69853999D01*
X52549001Y-69854000D01*
X52898999Y-69854000D01*
X52899000Y-69853999D01*
X53399000Y-69853999D01*
X53399001Y-69854000D01*
X53748998Y-69854000D01*
X53748999Y-69853999D01*
X53748999Y-69797516D01*
X53748998Y-69797514D01*
X53734166Y-69703858D01*
X53734163Y-69703848D01*
X53676641Y-69590956D01*
X53587043Y-69501358D01*
X53474151Y-69443836D01*
X53474147Y-69443835D01*
X53399000Y-69431932D01*
X53399000Y-69853999D01*
X52899000Y-69853999D01*
X52899000Y-69431932D01*
X52823852Y-69443835D01*
X52823848Y-69443836D01*
X52710956Y-69501358D01*
X52621358Y-69590956D01*
X52563836Y-69703848D01*
X52563835Y-69703852D01*
X52549000Y-69797515D01*
X52099499Y-69797515D01*
X52099499Y-69797479D01*
X52099498Y-69797476D01*
X52084647Y-69703700D01*
X52084646Y-69703698D01*
X52084646Y-69703696D01*
X52027050Y-69590658D01*
X51937342Y-69500950D01*
X51824304Y-69443354D01*
X51824305Y-69443354D01*
X51730522Y-69428500D01*
X51407000Y-69428500D01*
X51348809Y-69409593D01*
X51312845Y-69360093D01*
X51308000Y-69329500D01*
X51308000Y-68696499D01*
X51326907Y-68638308D01*
X51376407Y-68602344D01*
X51406998Y-68597499D01*
X51799948Y-68597499D01*
X51847542Y-68590565D01*
X51870504Y-68587221D01*
X51870505Y-68587220D01*
X51870509Y-68587220D01*
X51870511Y-68587218D01*
X51870514Y-68587218D01*
X51979343Y-68534014D01*
X51979343Y-68534013D01*
X51979347Y-68534012D01*
X52065012Y-68448347D01*
X52118220Y-68339509D01*
X52128500Y-68268949D01*
X52128499Y-67875052D01*
X52118220Y-67804491D01*
X52118219Y-67804489D01*
X52118218Y-67804485D01*
X52065014Y-67695656D01*
X52065012Y-67695654D01*
X52065012Y-67695653D01*
X51979347Y-67609988D01*
X51870509Y-67556780D01*
X51799949Y-67546500D01*
X51799946Y-67546500D01*
X51407000Y-67546500D01*
X51348809Y-67527593D01*
X51312845Y-67478093D01*
X51308000Y-67447500D01*
X51308000Y-66796499D01*
X51326907Y-66738308D01*
X51376407Y-66702344D01*
X51406998Y-66697499D01*
X51799948Y-66697499D01*
X51847542Y-66690565D01*
X51870504Y-66687221D01*
X51870505Y-66687220D01*
X51870509Y-66687220D01*
X51870511Y-66687218D01*
X51870514Y-66687218D01*
X51979343Y-66634014D01*
X51979343Y-66634013D01*
X51979347Y-66634012D01*
X52065012Y-66548347D01*
X52118220Y-66439509D01*
X52128500Y-66368949D01*
X52128499Y-65975052D01*
X52118220Y-65904491D01*
X52118219Y-65904489D01*
X52118218Y-65904485D01*
X52065014Y-65795656D01*
X52065012Y-65795654D01*
X52065012Y-65795653D01*
X51979347Y-65709988D01*
X51870509Y-65656780D01*
X51799949Y-65646500D01*
X51799946Y-65646500D01*
X51475822Y-65646500D01*
X51468224Y-65644031D01*
X51460335Y-65645281D01*
X51439679Y-65634756D01*
X51417631Y-65627593D01*
X51405818Y-65617504D01*
X51336996Y-65548682D01*
X51309219Y-65494165D01*
X51308000Y-65478678D01*
X51308000Y-64233004D01*
X51325000Y-64180682D01*
X51325000Y-63750001D01*
X51825000Y-63750001D01*
X51825000Y-64174998D01*
X51825001Y-64174999D01*
X51833453Y-64174999D01*
X51932965Y-64159239D01*
X51932969Y-64159237D01*
X52052921Y-64098118D01*
X52148118Y-64002921D01*
X52209237Y-63882969D01*
X52225000Y-63783453D01*
X52931000Y-63783453D01*
X52946760Y-63882965D01*
X52946762Y-63882969D01*
X53007881Y-64002921D01*
X53103078Y-64098118D01*
X53223030Y-64159237D01*
X53223029Y-64159237D01*
X53322540Y-64174998D01*
X53322551Y-64174999D01*
X53331000Y-64174998D01*
X53331000Y-63750001D01*
X53330999Y-63750000D01*
X52931002Y-63750000D01*
X52931001Y-63750001D01*
X52931001Y-63783453D01*
X52931000Y-63783453D01*
X52225000Y-63783453D01*
X52225000Y-63750001D01*
X52224999Y-63750000D01*
X51825001Y-63750000D01*
X51825000Y-63750001D01*
X51325000Y-63750001D01*
X51325000Y-63599000D01*
X51343907Y-63540809D01*
X51393407Y-63504845D01*
X51424000Y-63500000D01*
X51574999Y-63500000D01*
X51575000Y-63499999D01*
X51575000Y-63349000D01*
X51593907Y-63290809D01*
X51643407Y-63254845D01*
X51674000Y-63250000D01*
X52224998Y-63250000D01*
X52224999Y-63249999D01*
X52224999Y-63216546D01*
X52208020Y-63109335D01*
X52210721Y-63108907D01*
X52210717Y-63060416D01*
X52246677Y-63010913D01*
X52304865Y-62992000D01*
X52851125Y-62992000D01*
X52909316Y-63010907D01*
G37*
%TD.AperFunction*%
%TD*%
%TA.AperFunction,Conductor*%
%TO.N,+3V3*%
G36*
X61259692Y-61486907D02*
G01*
X61295656Y-61536407D01*
X61300501Y-61567000D01*
X61300501Y-61699523D01*
X61315352Y-61793299D01*
X61315354Y-61793304D01*
X61372950Y-61906342D01*
X61462658Y-61996050D01*
X61575696Y-62053646D01*
X61669481Y-62068500D01*
X62282518Y-62068499D01*
X62282520Y-62068499D01*
X62282520Y-62068498D01*
X62321068Y-62062393D01*
X62369514Y-62054722D01*
X62429946Y-62064294D01*
X62473210Y-62107559D01*
X62484000Y-62152503D01*
X62484000Y-62383249D01*
X62465093Y-62441440D01*
X62415593Y-62477404D01*
X62354407Y-62477404D01*
X62352304Y-62476694D01*
X62335601Y-62470850D01*
X62335604Y-62470850D01*
X62305211Y-62468000D01*
X62101001Y-62468000D01*
X62101000Y-62468001D01*
X62101000Y-63767998D01*
X62101001Y-63767999D01*
X62305203Y-63767999D01*
X62335600Y-63765149D01*
X62335603Y-63765149D01*
X62352301Y-63759306D01*
X62413470Y-63757932D01*
X62463766Y-63792775D01*
X62483975Y-63850527D01*
X62484000Y-63852750D01*
X62484000Y-64304021D01*
X62465093Y-64362212D01*
X62455004Y-64374025D01*
X61834025Y-64995004D01*
X61779508Y-65022781D01*
X61764021Y-65024000D01*
X54665753Y-65024000D01*
X54646419Y-65022094D01*
X54641166Y-65021048D01*
X54587788Y-64991140D01*
X54562184Y-64935570D01*
X54561500Y-64923954D01*
X54561500Y-64271060D01*
X54580407Y-64212869D01*
X54629907Y-64176905D01*
X54691093Y-64176905D01*
X54695097Y-64178302D01*
X54803990Y-64218916D01*
X54803998Y-64218918D01*
X54860566Y-64224999D01*
X55006000Y-64224999D01*
X55006000Y-63625001D01*
X55256000Y-63625001D01*
X55256000Y-64224998D01*
X55256001Y-64224999D01*
X55401431Y-64224999D01*
X55401436Y-64224998D01*
X55458004Y-64218918D01*
X55458006Y-64218917D01*
X55585983Y-64171185D01*
X55695327Y-64089331D01*
X55695331Y-64089327D01*
X55777185Y-63979983D01*
X55824916Y-63852009D01*
X55824918Y-63852001D01*
X55831000Y-63795434D01*
X55831000Y-63625001D01*
X55830999Y-63625000D01*
X55256001Y-63625000D01*
X55256000Y-63625001D01*
X55006000Y-63625001D01*
X55006000Y-62775001D01*
X55256000Y-62775001D01*
X55256000Y-63374999D01*
X55256001Y-63375000D01*
X55830998Y-63375000D01*
X55830999Y-63374999D01*
X55830999Y-63204569D01*
X55830998Y-63204563D01*
X55824918Y-63147995D01*
X55824917Y-63147990D01*
X55812352Y-63114301D01*
X55800785Y-63083290D01*
X56515200Y-63083290D01*
X56515200Y-63713508D01*
X56515201Y-63713510D01*
X56525679Y-63785435D01*
X56525680Y-63785437D01*
X56579911Y-63896369D01*
X56667230Y-63983688D01*
X56778163Y-64037920D01*
X56850090Y-64048399D01*
X57288422Y-64048399D01*
X57641977Y-64048399D01*
X58588422Y-64048399D01*
X58115199Y-63575176D01*
X57641977Y-64048399D01*
X57288422Y-64048399D01*
X57381656Y-63955166D01*
X57938422Y-63398399D01*
X58291976Y-63398399D01*
X58941976Y-64048399D01*
X59380309Y-64048399D01*
X59380310Y-64048398D01*
X59452235Y-64037920D01*
X59452237Y-64037919D01*
X59563169Y-63983688D01*
X59650488Y-63896369D01*
X59704720Y-63785436D01*
X59715199Y-63713509D01*
X59715199Y-63243001D01*
X61251001Y-63243001D01*
X61251001Y-63372203D01*
X61253850Y-63402600D01*
X61253850Y-63402602D01*
X61298654Y-63530647D01*
X61379207Y-63639790D01*
X61379209Y-63639792D01*
X61488352Y-63720345D01*
X61616398Y-63765149D01*
X61646789Y-63767999D01*
X61850998Y-63767999D01*
X61851000Y-63767998D01*
X61851000Y-63243001D01*
X61850999Y-63243000D01*
X61251002Y-63243000D01*
X61251001Y-63243001D01*
X59715199Y-63243001D01*
X59715199Y-63083291D01*
X59715198Y-63083289D01*
X59704720Y-63011364D01*
X59704719Y-63011362D01*
X59652704Y-62904962D01*
X59650488Y-62900430D01*
X59613846Y-62863788D01*
X61251000Y-62863788D01*
X61251000Y-62992999D01*
X61251001Y-62993000D01*
X61850999Y-62993000D01*
X61851000Y-62992999D01*
X61851000Y-62468001D01*
X61850999Y-62468000D01*
X61646796Y-62468000D01*
X61616399Y-62470850D01*
X61616397Y-62470850D01*
X61488352Y-62515654D01*
X61379209Y-62596207D01*
X61379207Y-62596209D01*
X61298654Y-62705352D01*
X61253850Y-62833398D01*
X61251000Y-62863788D01*
X59613846Y-62863788D01*
X59563169Y-62813111D01*
X59452236Y-62758879D01*
X59380309Y-62748400D01*
X58941976Y-62748400D01*
X58291976Y-63398399D01*
X57938422Y-63398399D01*
X57288423Y-62748400D01*
X57641977Y-62748400D01*
X58115199Y-63221622D01*
X58588422Y-62748400D01*
X57641977Y-62748400D01*
X57288423Y-62748400D01*
X56850091Y-62748400D01*
X56850089Y-62748401D01*
X56778164Y-62758879D01*
X56778162Y-62758880D01*
X56667230Y-62813111D01*
X56579911Y-62900430D01*
X56525679Y-63011363D01*
X56515200Y-63083290D01*
X55800785Y-63083290D01*
X55777185Y-63020016D01*
X55695331Y-62910672D01*
X55695327Y-62910668D01*
X55585983Y-62828814D01*
X55458009Y-62781083D01*
X55458001Y-62781081D01*
X55401434Y-62775000D01*
X55256001Y-62775000D01*
X55256000Y-62775001D01*
X55006000Y-62775001D01*
X55005999Y-62775000D01*
X54860569Y-62775000D01*
X54860563Y-62775001D01*
X54803995Y-62781081D01*
X54803993Y-62781082D01*
X54676016Y-62828814D01*
X54566672Y-62910668D01*
X54566670Y-62910670D01*
X54534254Y-62953974D01*
X54484245Y-62989227D01*
X54423066Y-62988353D01*
X54374085Y-62951686D01*
X54356000Y-62894645D01*
X54356000Y-61777751D01*
X54357902Y-61758437D01*
X54374994Y-61672506D01*
X54389774Y-61636824D01*
X54432931Y-61572235D01*
X54460235Y-61544931D01*
X54524824Y-61501774D01*
X54560507Y-61486994D01*
X54605341Y-61478076D01*
X54646439Y-61469902D01*
X54665752Y-61468000D01*
X61201501Y-61468000D01*
X61259692Y-61486907D01*
G37*
%TD.AperFunction*%
%TD*%
M02*
