%TF.GenerationSoftware,KiCad,Pcbnew,9.0.3*%
%TF.CreationDate,2025-09-26T00:40:55-04:00*%
%TF.ProjectId,Photon,50686f74-6f6e-42e6-9b69-6361645f7063,1.3*%
%TF.SameCoordinates,Original*%
%TF.FileFunction,Soldermask,Top*%
%TF.FilePolarity,Negative*%
%FSLAX46Y46*%
G04 Gerber Fmt 4.6, Leading zero omitted, Abs format (unit mm)*
G04 Created by KiCad (PCBNEW 9.0.3) date 2025-09-26 00:40:55*
%MOMM*%
%LPD*%
G01*
G04 APERTURE LIST*
G04 Aperture macros list*
%AMRoundRect*
0 Rectangle with rounded corners*
0 $1 Rounding radius*
0 $2 $3 $4 $5 $6 $7 $8 $9 X,Y pos of 4 corners*
0 Add a 4 corners polygon primitive as box body*
4,1,4,$2,$3,$4,$5,$6,$7,$8,$9,$2,$3,0*
0 Add four circle primitives for the rounded corners*
1,1,$1+$1,$2,$3*
1,1,$1+$1,$4,$5*
1,1,$1+$1,$6,$7*
1,1,$1+$1,$8,$9*
0 Add four rect primitives between the rounded corners*
20,1,$1+$1,$2,$3,$4,$5,0*
20,1,$1+$1,$4,$5,$6,$7,0*
20,1,$1+$1,$6,$7,$8,$9,0*
20,1,$1+$1,$8,$9,$2,$3,0*%
G04 Aperture macros list end*
%ADD10RoundRect,0.150000X0.725000X0.150000X-0.725000X0.150000X-0.725000X-0.150000X0.725000X-0.150000X0*%
%ADD11RoundRect,0.200000X0.275000X-0.200000X0.275000X0.200000X-0.275000X0.200000X-0.275000X-0.200000X0*%
%ADD12RoundRect,0.225000X0.225000X0.250000X-0.225000X0.250000X-0.225000X-0.250000X0.225000X-0.250000X0*%
%ADD13C,1.500000*%
%ADD14C,1.000000*%
%ADD15RoundRect,0.175000X0.175000X0.625000X-0.175000X0.625000X-0.175000X-0.625000X0.175000X-0.625000X0*%
%ADD16RoundRect,0.200000X0.200000X0.600000X-0.200000X0.600000X-0.200000X-0.600000X0.200000X-0.600000X0*%
%ADD17RoundRect,0.225000X0.225000X0.575000X-0.225000X0.575000X-0.225000X-0.575000X0.225000X-0.575000X0*%
%ADD18O,1.000000X1.700000*%
%ADD19RoundRect,0.162500X0.617500X0.162500X-0.617500X0.162500X-0.617500X-0.162500X0.617500X-0.162500X0*%
%ADD20RoundRect,0.225000X0.250000X-0.225000X0.250000X0.225000X-0.250000X0.225000X-0.250000X-0.225000X0*%
%ADD21RoundRect,0.200000X-0.200000X-0.275000X0.200000X-0.275000X0.200000X0.275000X-0.200000X0.275000X0*%
%ADD22RoundRect,0.225000X-0.225000X-0.250000X0.225000X-0.250000X0.225000X0.250000X-0.225000X0.250000X0*%
%ADD23RoundRect,0.200000X0.200000X0.275000X-0.200000X0.275000X-0.200000X-0.275000X0.200000X-0.275000X0*%
%ADD24RoundRect,0.200000X-0.275000X0.200000X-0.275000X-0.200000X0.275000X-0.200000X0.275000X0.200000X0*%
%ADD25RoundRect,0.105000X-0.420000X-0.895000X0.420000X-0.895000X0.420000X0.895000X-0.420000X0.895000X0*%
%ADD26RoundRect,0.218750X0.218750X0.256250X-0.218750X0.256250X-0.218750X-0.256250X0.218750X-0.256250X0*%
%ADD27RoundRect,0.150000X0.587500X0.150000X-0.587500X0.150000X-0.587500X-0.150000X0.587500X-0.150000X0*%
%ADD28RoundRect,0.162500X-0.617500X-0.162500X0.617500X-0.162500X0.617500X0.162500X-0.617500X0.162500X0*%
%ADD29RoundRect,0.218750X-0.256250X0.218750X-0.256250X-0.218750X0.256250X-0.218750X0.256250X0.218750X0*%
%ADD30RoundRect,0.120000X1.230000X-0.280000X1.230000X0.280000X-1.230000X0.280000X-1.230000X-0.280000X0*%
%ADD31RoundRect,0.255000X-0.595000X0.945000X-0.595000X-0.945000X0.595000X-0.945000X0.595000X0.945000X0*%
%ADD32RoundRect,0.150000X0.825000X0.150000X-0.825000X0.150000X-0.825000X-0.150000X0.825000X-0.150000X0*%
%ADD33R,2.290000X3.000000*%
%ADD34RoundRect,0.255000X0.595000X-0.945000X0.595000X0.945000X-0.595000X0.945000X-0.595000X-0.945000X0*%
%ADD35RoundRect,0.150000X0.150000X-0.587500X0.150000X0.587500X-0.150000X0.587500X-0.150000X-0.587500X0*%
G04 APERTURE END LIST*
D10*
%TO.C,U1*%
X54899000Y-78486000D03*
X54899000Y-77216000D03*
X54899000Y-75946000D03*
X54899000Y-74676000D03*
X49749000Y-74676000D03*
X49749000Y-75946000D03*
X49749000Y-77216000D03*
X49749000Y-78486000D03*
%TD*%
D11*
%TO.C,R6*%
X58674000Y-42735000D03*
X58674000Y-41085000D03*
%TD*%
D12*
%TO.C,C2*%
X51575000Y-63500000D03*
X50025000Y-63500000D03*
%TD*%
D13*
%TO.C,FID2*%
X44704000Y-94742000D03*
%TD*%
D14*
%TO.C,TP7*%
X52578000Y-109474000D03*
%TD*%
%TO.C,TP2*%
X45212000Y-74168000D03*
%TD*%
%TO.C,TP8*%
X60960000Y-40640000D03*
%TD*%
D15*
%TO.C,J1*%
X53378800Y-26040000D03*
D16*
X51358800Y-26040000D03*
D17*
X50128800Y-26040000D03*
D15*
X52378800Y-26040000D03*
D16*
X54398800Y-26040000D03*
D17*
X55628800Y-26040000D03*
D18*
X57198800Y-25860000D03*
X57198800Y-22060000D03*
X48558800Y-25860000D03*
X48558800Y-22060000D03*
%TD*%
D14*
%TO.C,TP6*%
X60198000Y-23876000D03*
%TD*%
D19*
%TO.C,U6*%
X58246000Y-105786000D03*
X58246000Y-104836000D03*
X58246000Y-103886000D03*
X55546000Y-103886000D03*
X55546000Y-104836000D03*
X55546000Y-105786000D03*
%TD*%
D20*
%TO.C,C4*%
X48768000Y-67831000D03*
X48768000Y-66281000D03*
%TD*%
D19*
%TO.C,U5*%
X51388000Y-105786000D03*
X51388000Y-104836000D03*
X51388000Y-103886000D03*
X48688000Y-103886000D03*
X48688000Y-104836000D03*
X48688000Y-105786000D03*
%TD*%
D21*
%TO.C,R9*%
X51499000Y-70104000D03*
X53149000Y-70104000D03*
%TD*%
D22*
%TO.C,C5*%
X53581000Y-63500000D03*
X55131000Y-63500000D03*
%TD*%
D14*
%TO.C,TP11*%
X59182000Y-77216000D03*
%TD*%
D21*
%TO.C,R4*%
X53023000Y-41148000D03*
X54673000Y-41148000D03*
%TD*%
D14*
%TO.C,TP4*%
X43688000Y-76200000D03*
%TD*%
%TO.C,TP1*%
X45212000Y-82296000D03*
%TD*%
D12*
%TO.C,C1*%
X50305000Y-80264000D03*
X48755000Y-80264000D03*
%TD*%
D19*
%TO.C,U4*%
X49102000Y-58862000D03*
X49102000Y-57912000D03*
X49102000Y-56962000D03*
X46402000Y-56962000D03*
X46402000Y-57912000D03*
X46402000Y-58862000D03*
%TD*%
D14*
%TO.C,TP5*%
X45212000Y-78232000D03*
%TD*%
D23*
%TO.C,R2*%
X46291000Y-24892000D03*
X44641000Y-24892000D03*
%TD*%
%TO.C,R1*%
X46291000Y-23114000D03*
X44641000Y-23114000D03*
%TD*%
D24*
%TO.C,R16*%
X61976000Y-84494430D03*
X61976000Y-86144430D03*
%TD*%
D25*
%TO.C,SW1*%
X50546000Y-112268000D03*
X54991000Y-112268000D03*
%TD*%
D26*
%TO.C,D2*%
X47015500Y-33782000D03*
X45440500Y-33782000D03*
%TD*%
D21*
%TO.C,R10*%
X57471000Y-33250000D03*
X59121000Y-33250000D03*
%TD*%
D23*
%TO.C,R7*%
X47073000Y-35540000D03*
X45423000Y-35540000D03*
%TD*%
%TO.C,R12*%
X46799000Y-64770000D03*
X45149000Y-64770000D03*
%TD*%
D27*
%TO.C,Q2*%
X49197500Y-98486000D03*
X49197500Y-96586000D03*
X47322500Y-97536000D03*
%TD*%
D28*
%TO.C,U7*%
X57070000Y-84394000D03*
X57070000Y-85344000D03*
X57070000Y-86294000D03*
X59770000Y-86294000D03*
X59770000Y-85344000D03*
X59770000Y-84394000D03*
%TD*%
D24*
%TO.C,R14*%
X46228000Y-101791000D03*
X46228000Y-103441000D03*
%TD*%
D21*
%TO.C,R3*%
X45149000Y-112268000D03*
X46799000Y-112268000D03*
%TD*%
%TO.C,R18*%
X54039000Y-80264000D03*
X55689000Y-80264000D03*
%TD*%
D29*
%TO.C,D3*%
X61976000Y-58140500D03*
X61976000Y-59715500D03*
%TD*%
D14*
%TO.C,TP9*%
X43688000Y-80264000D03*
%TD*%
%TO.C,TP3*%
X43688000Y-72136000D03*
%TD*%
D24*
%TO.C,R5*%
X56642000Y-41085000D03*
X56642000Y-42735000D03*
%TD*%
D30*
%TO.C,L1*%
X58115200Y-65709800D03*
X58115200Y-63398400D03*
%TD*%
D11*
%TO.C,R11*%
X61976000Y-63118000D03*
X61976000Y-61468000D03*
%TD*%
D13*
%TO.C,FID1*%
X47244000Y-39878000D03*
%TD*%
D24*
%TO.C,R19*%
X49276000Y-100267000D03*
X49276000Y-101917000D03*
%TD*%
D31*
%TO.C,D5*%
X53569757Y-58203500D03*
X52045757Y-45503500D03*
%TD*%
D20*
%TO.C,C7*%
X46228000Y-106693000D03*
X46228000Y-105143000D03*
%TD*%
D13*
%TO.C,FID3*%
X61468000Y-94488000D03*
%TD*%
D21*
%TO.C,R8*%
X47943000Y-70104000D03*
X49593000Y-70104000D03*
%TD*%
D23*
%TO.C,R17*%
X53657000Y-101854000D03*
X52007000Y-101854000D03*
%TD*%
D14*
%TO.C,TP10*%
X46736000Y-62230000D03*
%TD*%
D19*
%TO.C,U2*%
X53848000Y-68072000D03*
X53848000Y-67122000D03*
X53848000Y-66172000D03*
X51148000Y-66172000D03*
X51148000Y-68072000D03*
%TD*%
D11*
%TO.C,R13*%
X44196000Y-58737000D03*
X44196000Y-57087000D03*
%TD*%
D21*
%TO.C,R15*%
X58357000Y-81026000D03*
X60007000Y-81026000D03*
%TD*%
D26*
%TO.C,D1*%
X47015500Y-31984000D03*
X45440500Y-31984000D03*
%TD*%
D32*
%TO.C,U3*%
X54737000Y-34405000D03*
X54737000Y-33135000D03*
X54737000Y-31865000D03*
X54737000Y-30595000D03*
X49787000Y-30595000D03*
X49787000Y-31865000D03*
X49787000Y-33135000D03*
X49787000Y-34405000D03*
D33*
X52262000Y-32500000D03*
%TD*%
D34*
%TO.C,D6*%
X52070000Y-84582000D03*
X53594000Y-97282000D03*
%TD*%
D22*
%TO.C,C6*%
X45473000Y-30230000D03*
X47023000Y-30230000D03*
%TD*%
D35*
%TO.C,Q1*%
X56708000Y-39037500D03*
X58608000Y-39037500D03*
X57658000Y-37162500D03*
%TD*%
D12*
%TO.C,C3*%
X59071000Y-30710000D03*
X57521000Y-30710000D03*
%TD*%
M02*
