M48
INCH
T1C0.0118
T2C0.0197
%
G90
G05
T1
X1.71Y-0.91
X1.71Y-0.98
X1.73Y-2.55
X1.74Y-2.2
X1.7775Y-4.4675
X1.79Y-1.14
X1.82Y-2.2
X1.82Y-4.28
X1.84Y-3.21
X1.89Y-1.13
X1.9Y-2.72
X1.92Y-1.41
X1.92Y-2.5
X1.92Y-2.56
X1.92Y-3.21
X1.93Y-3.73
X1.97Y-3.76
X1.9736Y-0.9656
X1.98Y-3.21
X2.022Y-0.9656
X2.04Y-1.6175
X2.04Y-3.79
X2.04Y-3.88
X2.06Y-2.64
X2.07Y-2.55
X2.07Y-3.09
X2.09Y-4.06
X2.11Y-4.13
X2.12Y-1.75
X2.12Y-1.83
X2.14Y-0.96
X2.16Y-2.76
X2.18Y-1.6875
X2.19Y-0.9656
X2.2Y-2.44
X2.24Y-2.94
X2.2463Y-4.42
X2.26Y-1.16
X2.27Y-1.26
X2.27Y-1.39
X2.28Y-2.44
X2.33Y-1.16
X2.33Y-1.26
X2.34Y-3.44
X2.36Y-2.44
X2.36Y-4.09
X2.4Y-3.19
X2.44Y-2.23
T2
G00X1.9118Y-0.8823
M15
G01X1.9118Y-0.8547
M16
G05
G00X1.9118Y-1.0319
M15
G01X1.9118Y-1.0043
M16
G05
G00X2.2519Y-0.8823
M15
G01X2.2519Y-0.8547
M16
G05
G00X2.2519Y-1.0319
M15
G01X2.2519Y-1.0043
M16
G05
M30
