%TF.GenerationSoftware,KiCad,Pcbnew,9.0.7*%
%TF.CreationDate,2026-02-15T22:37:47-05:00*%
%TF.ProjectId,Photon,50686f74-6f6e-42e6-9b69-6361645f7063,1.4*%
%TF.SameCoordinates,Original*%
%TF.FileFunction,Drillmap*%
%TF.FilePolarity,Positive*%
%FSLAX45Y45*%
G04 Gerber Fmt 4.5, Leading zero omitted, Abs format (unit mm)*
G04 Created by KiCad (PCBNEW 9.0.7) date 2026-02-15 22:37:47*
%MOMM*%
%LPD*%
G01*
G04 APERTURE LIST*
%ADD10C,0.200000*%
%ADD11C,0.100000*%
%ADD12C,0.180000*%
G04 APERTURE END LIST*
D10*
X3876700Y-9498400D02*
X3876700Y-2656200D01*
X5700700Y-2356200D02*
G75*
G02*
X6000700Y-2656200I0J-300000D01*
G01*
X6000700Y-9498400D02*
G75*
G02*
X5700700Y-9798400I-300000J0D01*
G01*
X4176700Y-2356200D02*
X5700700Y-2356200D01*
X4176700Y-9798400D02*
G75*
G02*
X3876700Y-9498400I0J300000D01*
G01*
X6000700Y-2656200D02*
X6000700Y-9498400D01*
X3876700Y-2656200D02*
G75*
G02*
X4176700Y-2356200I300000J0D01*
G01*
X5700700Y-9798400D02*
X4176700Y-9798400D01*
D11*
X3983900Y-3433400D02*
X4013900Y-3463400D01*
X4013900Y-3433400D02*
X3983900Y-3463400D01*
X3983900Y-3585800D02*
X4013900Y-3615800D01*
X4013900Y-3585800D02*
X3983900Y-3615800D01*
X4009300Y-2620600D02*
X4039300Y-2650600D01*
X4039300Y-2620600D02*
X4009300Y-2650600D01*
X4009300Y-2773000D02*
X4039300Y-2803000D01*
X4039300Y-2773000D02*
X4009300Y-2803000D01*
X4034700Y-5541600D02*
X4064700Y-5571600D01*
X4064700Y-5541600D02*
X4034700Y-5571600D01*
X4135000Y-7382500D02*
X4165000Y-7412500D01*
X4165000Y-7382500D02*
X4135000Y-7412500D01*
X4224100Y-7814900D02*
X4254100Y-7844900D01*
X4254100Y-7814900D02*
X4224100Y-7844900D01*
X4237760Y-5541460D02*
X4267760Y-5571460D01*
X4267760Y-5541460D02*
X4237760Y-5571460D01*
X4245000Y-4292500D02*
X4275000Y-4322500D01*
X4275000Y-4292500D02*
X4245000Y-4322500D01*
X4353300Y-5694000D02*
X4383300Y-5724000D01*
X4383300Y-5694000D02*
X4353300Y-5724000D01*
X4364900Y-6964000D02*
X4394900Y-6994000D01*
X4394900Y-6964000D02*
X4364900Y-6994000D01*
X4365000Y-6802500D02*
X4395000Y-6832500D01*
X4395000Y-6802500D02*
X4365000Y-6832500D01*
X4365000Y-7362500D02*
X4395000Y-7392500D01*
X4395000Y-7362500D02*
X4365000Y-7392500D01*
X4404412Y-7814900D02*
X4434412Y-7844900D01*
X4434412Y-7814900D02*
X4404412Y-7844900D01*
X4405000Y-5822500D02*
X4435000Y-5852500D01*
X4435000Y-5822500D02*
X4405000Y-5852500D01*
X4405000Y-6632500D02*
X4435000Y-6662500D01*
X4435000Y-6632500D02*
X4405000Y-6662500D01*
X4429750Y-8234000D02*
X4459750Y-8264000D01*
X4459750Y-8234000D02*
X4429750Y-8264000D01*
X4435000Y-4932500D02*
X4465000Y-4962500D01*
X4465000Y-4932500D02*
X4435000Y-4962500D01*
X4441100Y-3687400D02*
X4471100Y-3717400D01*
X4471100Y-3687400D02*
X4441100Y-3717400D01*
X4445000Y-7102500D02*
X4475000Y-7132500D01*
X4475000Y-7102500D02*
X4445000Y-7132500D01*
X4542700Y-5236521D02*
X4572700Y-5266521D01*
X4572700Y-5236521D02*
X4542700Y-5266521D01*
X4585000Y-5842500D02*
X4615000Y-5872500D01*
X4615000Y-5842500D02*
X4585000Y-5872500D01*
X4585000Y-7272500D02*
X4615000Y-7302500D01*
X4615000Y-7272500D02*
X4585000Y-7302500D01*
X4594262Y-5505762D02*
X4624262Y-5535762D01*
X4624262Y-5505762D02*
X4594262Y-5535762D01*
X4653380Y-2761800D02*
X4683380Y-2791800D01*
X4683380Y-2761800D02*
X4653380Y-2791800D01*
X4720500Y-5338400D02*
X4750500Y-5368400D01*
X4750500Y-5338400D02*
X4720500Y-5368400D01*
X4745000Y-5492500D02*
X4775000Y-5522500D01*
X4775000Y-5492500D02*
X4745000Y-5522500D01*
X4765000Y-6523462D02*
X4795000Y-6553462D01*
X4795000Y-6523462D02*
X4765000Y-6553462D01*
X4771300Y-2761800D02*
X4801300Y-2791800D01*
X4801300Y-2761800D02*
X4771300Y-2791800D01*
X4775000Y-7022500D02*
X4805000Y-7052500D01*
X4805000Y-7022500D02*
X4775000Y-7052500D01*
X4775000Y-7162500D02*
X4805000Y-7192500D01*
X4805000Y-7162500D02*
X4775000Y-7192500D01*
X4796700Y-5897200D02*
X4826700Y-5927200D01*
X4826700Y-5897200D02*
X4796700Y-5927200D01*
X4845000Y-6852500D02*
X4875000Y-6882500D01*
X4875000Y-6852500D02*
X4845000Y-6882500D01*
X4898300Y-8081600D02*
X4928300Y-8111600D01*
X4928300Y-8081600D02*
X4898300Y-8111600D01*
X4915000Y-6722500D02*
X4945000Y-6752500D01*
X4945000Y-6722500D02*
X4915000Y-6752500D01*
X4915000Y-9632500D02*
X4945000Y-9662500D01*
X4945000Y-9632500D02*
X4915000Y-9662500D01*
X4925000Y-5490715D02*
X4955000Y-5520715D01*
X4955000Y-5490715D02*
X4925000Y-5520715D01*
X4925000Y-7092500D02*
X4955000Y-7122500D01*
X4955000Y-7092500D02*
X4925000Y-7122500D01*
X4928380Y-3600640D02*
X4958380Y-3630640D01*
X4958380Y-3600640D02*
X4928380Y-3630640D01*
X4928380Y-8538800D02*
X4958380Y-8568800D01*
X4958380Y-8538800D02*
X4928380Y-8568800D01*
X4928380Y-8890600D02*
X4958380Y-8920600D01*
X4958380Y-8890600D02*
X4928380Y-8920600D01*
X4928380Y-9050600D02*
X4958380Y-9080600D01*
X4958380Y-9050600D02*
X4928380Y-9080600D01*
X4935000Y-6452500D02*
X4965000Y-6482500D01*
X4965000Y-6452500D02*
X4935000Y-6482500D01*
X4935000Y-6572500D02*
X4965000Y-6602500D01*
X4965000Y-6572500D02*
X4935000Y-6602500D01*
X5025300Y-5338400D02*
X5055300Y-5368400D01*
X5055300Y-5338400D02*
X5025300Y-5368400D01*
X5025300Y-6100400D02*
X5055300Y-6130400D01*
X5055300Y-6100400D02*
X5025300Y-6130400D01*
X5025300Y-6202000D02*
X5055300Y-6232000D01*
X5055300Y-6202000D02*
X5025300Y-6232000D01*
X5055000Y-6715000D02*
X5085000Y-6745000D01*
X5085000Y-6715000D02*
X5055000Y-6745000D01*
X5080380Y-2761800D02*
X5110380Y-2791800D01*
X5110380Y-2761800D02*
X5080380Y-2791800D01*
X5155000Y-7092500D02*
X5185000Y-7122500D01*
X5185000Y-7092500D02*
X5155000Y-7122500D01*
X5177700Y-5922600D02*
X5207700Y-5952600D01*
X5207700Y-5922600D02*
X5177700Y-5952600D01*
X5203100Y-2761800D02*
X5233100Y-2791800D01*
X5233100Y-2761800D02*
X5203100Y-2791800D01*
X5255880Y-3225140D02*
X5285880Y-3255140D01*
X5285880Y-3225140D02*
X5255880Y-3255140D01*
X5279300Y-8310200D02*
X5309300Y-8340200D01*
X5309300Y-8310200D02*
X5279300Y-8340200D01*
X5316850Y-8877880D02*
X5346850Y-8907880D01*
X5346850Y-8877880D02*
X5316850Y-8907880D01*
X5340260Y-3458800D02*
X5370260Y-3488800D01*
X5370260Y-3458800D02*
X5340260Y-3488800D01*
X5340260Y-3763600D02*
X5370260Y-3793600D01*
X5370260Y-3763600D02*
X5340260Y-3793600D01*
X5406300Y-6303600D02*
X5436300Y-6333600D01*
X5436300Y-6303600D02*
X5406300Y-6333600D01*
X5406300Y-7700600D02*
X5436300Y-7730600D01*
X5436300Y-7700600D02*
X5406300Y-7730600D01*
X5518435Y-3436266D02*
X5548435Y-3466266D01*
X5548435Y-3436266D02*
X5518435Y-3466266D01*
X5609500Y-8564200D02*
X5639500Y-8594200D01*
X5639500Y-8564200D02*
X5609500Y-8594200D01*
X5657434Y-3436266D02*
X5687434Y-3466266D01*
X5687434Y-3436266D02*
X5657434Y-3466266D01*
X5685700Y-7700600D02*
X5715700Y-7730600D01*
X5715700Y-7700600D02*
X5685700Y-7730600D01*
X5711100Y-3763600D02*
X5741100Y-3793600D01*
X5741100Y-3763600D02*
X5711100Y-3793600D01*
X5888900Y-4678000D02*
X5918900Y-4708000D01*
X5918900Y-4678000D02*
X5888900Y-4708000D01*
X5888900Y-7542500D02*
X5918900Y-7572500D01*
X5918900Y-7542500D02*
X5888900Y-7572500D01*
X5888900Y-8310200D02*
X5918900Y-8340200D01*
X5918900Y-8310200D02*
X5888900Y-8340200D01*
X4536380Y-2504800D02*
G75*
G02*
X4486380Y-2504800I-25000J0D01*
G01*
X4486380Y-2504800D02*
G75*
G02*
X4536380Y-2504800I25000J0D01*
G01*
X4536380Y-2539800D02*
X4536380Y-2469800D01*
X4486380Y-2469800D02*
G75*
G02*
X4536380Y-2469800I25000J0D01*
G01*
X4486380Y-2469800D02*
X4486380Y-2539800D01*
X4486380Y-2539800D02*
G75*
G03*
X4536380Y-2539800I25000J0D01*
G01*
X4536380Y-2884800D02*
G75*
G02*
X4486380Y-2884800I-25000J0D01*
G01*
X4486380Y-2884800D02*
G75*
G02*
X4536380Y-2884800I25000J0D01*
G01*
X4536380Y-2919800D02*
X4536380Y-2849800D01*
X4486380Y-2849800D02*
G75*
G02*
X4536380Y-2849800I25000J0D01*
G01*
X4486380Y-2849800D02*
X4486380Y-2919800D01*
X4486380Y-2919800D02*
G75*
G03*
X4536380Y-2919800I25000J0D01*
G01*
X5400380Y-2504800D02*
G75*
G02*
X5350380Y-2504800I-25000J0D01*
G01*
X5350380Y-2504800D02*
G75*
G02*
X5400380Y-2504800I25000J0D01*
G01*
X5400380Y-2539800D02*
X5400380Y-2469800D01*
X5350380Y-2469800D02*
G75*
G02*
X5400380Y-2469800I25000J0D01*
G01*
X5350380Y-2469800D02*
X5350380Y-2539800D01*
X5350380Y-2539800D02*
G75*
G03*
X5400380Y-2539800I25000J0D01*
G01*
X5400380Y-2884800D02*
G75*
G02*
X5350380Y-2884800I-25000J0D01*
G01*
X5350380Y-2884800D02*
G75*
G02*
X5400380Y-2884800I25000J0D01*
G01*
X5400380Y-2919800D02*
X5400380Y-2849800D01*
X5350380Y-2849800D02*
G75*
G02*
X5400380Y-2849800I25000J0D01*
G01*
X5350380Y-2849800D02*
X5350380Y-2919800D01*
X5350380Y-2919800D02*
G75*
G03*
X5400380Y-2919800I25000J0D01*
G01*
X4080500Y-6167000D02*
X4080500Y-6267000D01*
X4030500Y-6217000D02*
X4130500Y-6217000D01*
X4080500Y-6675000D02*
X4080500Y-6775000D01*
X4030500Y-6725000D02*
X4130500Y-6725000D01*
X4080500Y-7183000D02*
X4080500Y-7283000D01*
X4030500Y-7233000D02*
X4130500Y-7233000D01*
X4120500Y-6421000D02*
X4120500Y-6521000D01*
X4070500Y-6471000D02*
X4170500Y-6471000D01*
X4120500Y-6929000D02*
X4120500Y-7029000D01*
X4070500Y-6979000D02*
X4170500Y-6979000D01*
D12*
X4757020Y-4094640D02*
X4757020Y-3967360D01*
X4629740Y-3967360D01*
X4629740Y-4094640D01*
X4757020Y-4094640D01*
X4757020Y-8694640D02*
X4757020Y-8567360D01*
X4629740Y-8567360D01*
X4629740Y-8694640D01*
X4757020Y-8694640D01*
X5007020Y-3334640D02*
X5007020Y-3207360D01*
X4879740Y-3207360D01*
X4879740Y-3334640D01*
X5007020Y-3334640D01*
X5007020Y-9454640D02*
X5007020Y-9327360D01*
X4879740Y-9327360D01*
X4879740Y-9454640D01*
X5007020Y-9454640D01*
X5257020Y-4094640D02*
X5257020Y-3967360D01*
X5129740Y-3967360D01*
X5129740Y-4094640D01*
X5257020Y-4094640D01*
X5257020Y-8694640D02*
X5257020Y-8567360D01*
X5129740Y-8567360D01*
X5129740Y-8694640D01*
X5257020Y-8694640D01*
D10*
X4127477Y-10119884D02*
X4127477Y-9919884D01*
X4127477Y-9919884D02*
X4175096Y-9919884D01*
X4175096Y-9919884D02*
X4203667Y-9929408D01*
X4203667Y-9929408D02*
X4222715Y-9948455D01*
X4222715Y-9948455D02*
X4232239Y-9967503D01*
X4232239Y-9967503D02*
X4241763Y-10005598D01*
X4241763Y-10005598D02*
X4241763Y-10034169D01*
X4241763Y-10034169D02*
X4232239Y-10072265D01*
X4232239Y-10072265D02*
X4222715Y-10091312D01*
X4222715Y-10091312D02*
X4203667Y-10110360D01*
X4203667Y-10110360D02*
X4175096Y-10119884D01*
X4175096Y-10119884D02*
X4127477Y-10119884D01*
X4327477Y-10119884D02*
X4327477Y-9986550D01*
X4327477Y-10024646D02*
X4337001Y-10005598D01*
X4337001Y-10005598D02*
X4346524Y-9996074D01*
X4346524Y-9996074D02*
X4365572Y-9986550D01*
X4365572Y-9986550D02*
X4384620Y-9986550D01*
X4451286Y-10119884D02*
X4451286Y-9986550D01*
X4451286Y-9919884D02*
X4441763Y-9929408D01*
X4441763Y-9929408D02*
X4451286Y-9938931D01*
X4451286Y-9938931D02*
X4460810Y-9929408D01*
X4460810Y-9929408D02*
X4451286Y-9919884D01*
X4451286Y-9919884D02*
X4451286Y-9938931D01*
X4575096Y-10119884D02*
X4556048Y-10110360D01*
X4556048Y-10110360D02*
X4546524Y-10091312D01*
X4546524Y-10091312D02*
X4546524Y-9919884D01*
X4679858Y-10119884D02*
X4660810Y-10110360D01*
X4660810Y-10110360D02*
X4651286Y-10091312D01*
X4651286Y-10091312D02*
X4651286Y-9919884D01*
X4908429Y-10119884D02*
X4908429Y-9919884D01*
X4908429Y-9919884D02*
X4975096Y-10062741D01*
X4975096Y-10062741D02*
X5041763Y-9919884D01*
X5041763Y-9919884D02*
X5041763Y-10119884D01*
X5222715Y-10119884D02*
X5222715Y-10015122D01*
X5222715Y-10015122D02*
X5213191Y-9996074D01*
X5213191Y-9996074D02*
X5194144Y-9986550D01*
X5194144Y-9986550D02*
X5156048Y-9986550D01*
X5156048Y-9986550D02*
X5137001Y-9996074D01*
X5222715Y-10110360D02*
X5203667Y-10119884D01*
X5203667Y-10119884D02*
X5156048Y-10119884D01*
X5156048Y-10119884D02*
X5137001Y-10110360D01*
X5137001Y-10110360D02*
X5127477Y-10091312D01*
X5127477Y-10091312D02*
X5127477Y-10072265D01*
X5127477Y-10072265D02*
X5137001Y-10053217D01*
X5137001Y-10053217D02*
X5156048Y-10043693D01*
X5156048Y-10043693D02*
X5203667Y-10043693D01*
X5203667Y-10043693D02*
X5222715Y-10034169D01*
X5317953Y-9986550D02*
X5317953Y-10186550D01*
X5317953Y-9996074D02*
X5337001Y-9986550D01*
X5337001Y-9986550D02*
X5375096Y-9986550D01*
X5375096Y-9986550D02*
X5394144Y-9996074D01*
X5394144Y-9996074D02*
X5403667Y-10005598D01*
X5403667Y-10005598D02*
X5413191Y-10024646D01*
X5413191Y-10024646D02*
X5413191Y-10081788D01*
X5413191Y-10081788D02*
X5403667Y-10100836D01*
X5403667Y-10100836D02*
X5394144Y-10110360D01*
X5394144Y-10110360D02*
X5375096Y-10119884D01*
X5375096Y-10119884D02*
X5337001Y-10119884D01*
X5337001Y-10119884D02*
X5317953Y-10110360D01*
X5498905Y-10100836D02*
X5508429Y-10110360D01*
X5508429Y-10110360D02*
X5498905Y-10119884D01*
X5498905Y-10119884D02*
X5489382Y-10110360D01*
X5489382Y-10110360D02*
X5498905Y-10100836D01*
X5498905Y-10100836D02*
X5498905Y-10119884D01*
X5498905Y-9996074D02*
X5508429Y-10005598D01*
X5508429Y-10005598D02*
X5498905Y-10015122D01*
X5498905Y-10015122D02*
X5489382Y-10005598D01*
X5489382Y-10005598D02*
X5498905Y-9996074D01*
X5498905Y-9996074D02*
X5498905Y-10015122D01*
D11*
X3836700Y-10433400D02*
X3866700Y-10463400D01*
X3866700Y-10433400D02*
X3836700Y-10463400D01*
D10*
X4165572Y-10339884D02*
X4184620Y-10339884D01*
X4184620Y-10339884D02*
X4203667Y-10349408D01*
X4203667Y-10349408D02*
X4213191Y-10358931D01*
X4213191Y-10358931D02*
X4222715Y-10377979D01*
X4222715Y-10377979D02*
X4232239Y-10416074D01*
X4232239Y-10416074D02*
X4232239Y-10463693D01*
X4232239Y-10463693D02*
X4222715Y-10501788D01*
X4222715Y-10501788D02*
X4213191Y-10520836D01*
X4213191Y-10520836D02*
X4203667Y-10530360D01*
X4203667Y-10530360D02*
X4184620Y-10539884D01*
X4184620Y-10539884D02*
X4165572Y-10539884D01*
X4165572Y-10539884D02*
X4146524Y-10530360D01*
X4146524Y-10530360D02*
X4137001Y-10520836D01*
X4137001Y-10520836D02*
X4127477Y-10501788D01*
X4127477Y-10501788D02*
X4117953Y-10463693D01*
X4117953Y-10463693D02*
X4117953Y-10416074D01*
X4117953Y-10416074D02*
X4127477Y-10377979D01*
X4127477Y-10377979D02*
X4137001Y-10358931D01*
X4137001Y-10358931D02*
X4146524Y-10349408D01*
X4146524Y-10349408D02*
X4165572Y-10339884D01*
X4317953Y-10520836D02*
X4327477Y-10530360D01*
X4327477Y-10530360D02*
X4317953Y-10539884D01*
X4317953Y-10539884D02*
X4308429Y-10530360D01*
X4308429Y-10530360D02*
X4317953Y-10520836D01*
X4317953Y-10520836D02*
X4317953Y-10539884D01*
X4394144Y-10339884D02*
X4517953Y-10339884D01*
X4517953Y-10339884D02*
X4451286Y-10416074D01*
X4451286Y-10416074D02*
X4479858Y-10416074D01*
X4479858Y-10416074D02*
X4498905Y-10425598D01*
X4498905Y-10425598D02*
X4508429Y-10435122D01*
X4508429Y-10435122D02*
X4517953Y-10454169D01*
X4517953Y-10454169D02*
X4517953Y-10501788D01*
X4517953Y-10501788D02*
X4508429Y-10520836D01*
X4508429Y-10520836D02*
X4498905Y-10530360D01*
X4498905Y-10530360D02*
X4479858Y-10539884D01*
X4479858Y-10539884D02*
X4422715Y-10539884D01*
X4422715Y-10539884D02*
X4403667Y-10530360D01*
X4403667Y-10530360D02*
X4394144Y-10520836D01*
X4641763Y-10339884D02*
X4660810Y-10339884D01*
X4660810Y-10339884D02*
X4679858Y-10349408D01*
X4679858Y-10349408D02*
X4689382Y-10358931D01*
X4689382Y-10358931D02*
X4698905Y-10377979D01*
X4698905Y-10377979D02*
X4708429Y-10416074D01*
X4708429Y-10416074D02*
X4708429Y-10463693D01*
X4708429Y-10463693D02*
X4698905Y-10501788D01*
X4698905Y-10501788D02*
X4689382Y-10520836D01*
X4689382Y-10520836D02*
X4679858Y-10530360D01*
X4679858Y-10530360D02*
X4660810Y-10539884D01*
X4660810Y-10539884D02*
X4641763Y-10539884D01*
X4641763Y-10539884D02*
X4622715Y-10530360D01*
X4622715Y-10530360D02*
X4613191Y-10520836D01*
X4613191Y-10520836D02*
X4603667Y-10501788D01*
X4603667Y-10501788D02*
X4594144Y-10463693D01*
X4594144Y-10463693D02*
X4594144Y-10416074D01*
X4594144Y-10416074D02*
X4603667Y-10377979D01*
X4603667Y-10377979D02*
X4613191Y-10358931D01*
X4613191Y-10358931D02*
X4622715Y-10349408D01*
X4622715Y-10349408D02*
X4641763Y-10339884D01*
X4832239Y-10339884D02*
X4851286Y-10339884D01*
X4851286Y-10339884D02*
X4870334Y-10349408D01*
X4870334Y-10349408D02*
X4879858Y-10358931D01*
X4879858Y-10358931D02*
X4889382Y-10377979D01*
X4889382Y-10377979D02*
X4898905Y-10416074D01*
X4898905Y-10416074D02*
X4898905Y-10463693D01*
X4898905Y-10463693D02*
X4889382Y-10501788D01*
X4889382Y-10501788D02*
X4879858Y-10520836D01*
X4879858Y-10520836D02*
X4870334Y-10530360D01*
X4870334Y-10530360D02*
X4851286Y-10539884D01*
X4851286Y-10539884D02*
X4832239Y-10539884D01*
X4832239Y-10539884D02*
X4813191Y-10530360D01*
X4813191Y-10530360D02*
X4803667Y-10520836D01*
X4803667Y-10520836D02*
X4794144Y-10501788D01*
X4794144Y-10501788D02*
X4784620Y-10463693D01*
X4784620Y-10463693D02*
X4784620Y-10416074D01*
X4784620Y-10416074D02*
X4794144Y-10377979D01*
X4794144Y-10377979D02*
X4803667Y-10358931D01*
X4803667Y-10358931D02*
X4813191Y-10349408D01*
X4813191Y-10349408D02*
X4832239Y-10339884D01*
X4984620Y-10539884D02*
X4984620Y-10406550D01*
X4984620Y-10425598D02*
X4994144Y-10416074D01*
X4994144Y-10416074D02*
X5013191Y-10406550D01*
X5013191Y-10406550D02*
X5041763Y-10406550D01*
X5041763Y-10406550D02*
X5060810Y-10416074D01*
X5060810Y-10416074D02*
X5070334Y-10435122D01*
X5070334Y-10435122D02*
X5070334Y-10539884D01*
X5070334Y-10435122D02*
X5079858Y-10416074D01*
X5079858Y-10416074D02*
X5098905Y-10406550D01*
X5098905Y-10406550D02*
X5127477Y-10406550D01*
X5127477Y-10406550D02*
X5146525Y-10416074D01*
X5146525Y-10416074D02*
X5156048Y-10435122D01*
X5156048Y-10435122D02*
X5156048Y-10539884D01*
X5251286Y-10539884D02*
X5251286Y-10406550D01*
X5251286Y-10425598D02*
X5260810Y-10416074D01*
X5260810Y-10416074D02*
X5279858Y-10406550D01*
X5279858Y-10406550D02*
X5308429Y-10406550D01*
X5308429Y-10406550D02*
X5327477Y-10416074D01*
X5327477Y-10416074D02*
X5337001Y-10435122D01*
X5337001Y-10435122D02*
X5337001Y-10539884D01*
X5337001Y-10435122D02*
X5346525Y-10416074D01*
X5346525Y-10416074D02*
X5365572Y-10406550D01*
X5365572Y-10406550D02*
X5394144Y-10406550D01*
X5394144Y-10406550D02*
X5413191Y-10416074D01*
X5413191Y-10416074D02*
X5422715Y-10435122D01*
X5422715Y-10435122D02*
X5422715Y-10539884D01*
X5813191Y-10330360D02*
X5641763Y-10587503D01*
X6070334Y-10339884D02*
X6089382Y-10339884D01*
X6089382Y-10339884D02*
X6108429Y-10349408D01*
X6108429Y-10349408D02*
X6117953Y-10358931D01*
X6117953Y-10358931D02*
X6127477Y-10377979D01*
X6127477Y-10377979D02*
X6137001Y-10416074D01*
X6137001Y-10416074D02*
X6137001Y-10463693D01*
X6137001Y-10463693D02*
X6127477Y-10501788D01*
X6127477Y-10501788D02*
X6117953Y-10520836D01*
X6117953Y-10520836D02*
X6108429Y-10530360D01*
X6108429Y-10530360D02*
X6089382Y-10539884D01*
X6089382Y-10539884D02*
X6070334Y-10539884D01*
X6070334Y-10539884D02*
X6051286Y-10530360D01*
X6051286Y-10530360D02*
X6041763Y-10520836D01*
X6041763Y-10520836D02*
X6032239Y-10501788D01*
X6032239Y-10501788D02*
X6022715Y-10463693D01*
X6022715Y-10463693D02*
X6022715Y-10416074D01*
X6022715Y-10416074D02*
X6032239Y-10377979D01*
X6032239Y-10377979D02*
X6041763Y-10358931D01*
X6041763Y-10358931D02*
X6051286Y-10349408D01*
X6051286Y-10349408D02*
X6070334Y-10339884D01*
X6222715Y-10520836D02*
X6232239Y-10530360D01*
X6232239Y-10530360D02*
X6222715Y-10539884D01*
X6222715Y-10539884D02*
X6213191Y-10530360D01*
X6213191Y-10530360D02*
X6222715Y-10520836D01*
X6222715Y-10520836D02*
X6222715Y-10539884D01*
X6356048Y-10339884D02*
X6375096Y-10339884D01*
X6375096Y-10339884D02*
X6394144Y-10349408D01*
X6394144Y-10349408D02*
X6403667Y-10358931D01*
X6403667Y-10358931D02*
X6413191Y-10377979D01*
X6413191Y-10377979D02*
X6422715Y-10416074D01*
X6422715Y-10416074D02*
X6422715Y-10463693D01*
X6422715Y-10463693D02*
X6413191Y-10501788D01*
X6413191Y-10501788D02*
X6403667Y-10520836D01*
X6403667Y-10520836D02*
X6394144Y-10530360D01*
X6394144Y-10530360D02*
X6375096Y-10539884D01*
X6375096Y-10539884D02*
X6356048Y-10539884D01*
X6356048Y-10539884D02*
X6337001Y-10530360D01*
X6337001Y-10530360D02*
X6327477Y-10520836D01*
X6327477Y-10520836D02*
X6317953Y-10501788D01*
X6317953Y-10501788D02*
X6308429Y-10463693D01*
X6308429Y-10463693D02*
X6308429Y-10416074D01*
X6308429Y-10416074D02*
X6317953Y-10377979D01*
X6317953Y-10377979D02*
X6327477Y-10358931D01*
X6327477Y-10358931D02*
X6337001Y-10349408D01*
X6337001Y-10349408D02*
X6356048Y-10339884D01*
X6613191Y-10539884D02*
X6498906Y-10539884D01*
X6556048Y-10539884D02*
X6556048Y-10339884D01*
X6556048Y-10339884D02*
X6537001Y-10368455D01*
X6537001Y-10368455D02*
X6517953Y-10387503D01*
X6517953Y-10387503D02*
X6498906Y-10397027D01*
X6803667Y-10539884D02*
X6689382Y-10539884D01*
X6746525Y-10539884D02*
X6746525Y-10339884D01*
X6746525Y-10339884D02*
X6727477Y-10368455D01*
X6727477Y-10368455D02*
X6708429Y-10387503D01*
X6708429Y-10387503D02*
X6689382Y-10397027D01*
X6917953Y-10425598D02*
X6898906Y-10416074D01*
X6898906Y-10416074D02*
X6889382Y-10406550D01*
X6889382Y-10406550D02*
X6879858Y-10387503D01*
X6879858Y-10387503D02*
X6879858Y-10377979D01*
X6879858Y-10377979D02*
X6889382Y-10358931D01*
X6889382Y-10358931D02*
X6898906Y-10349408D01*
X6898906Y-10349408D02*
X6917953Y-10339884D01*
X6917953Y-10339884D02*
X6956048Y-10339884D01*
X6956048Y-10339884D02*
X6975096Y-10349408D01*
X6975096Y-10349408D02*
X6984620Y-10358931D01*
X6984620Y-10358931D02*
X6994144Y-10377979D01*
X6994144Y-10377979D02*
X6994144Y-10387503D01*
X6994144Y-10387503D02*
X6984620Y-10406550D01*
X6984620Y-10406550D02*
X6975096Y-10416074D01*
X6975096Y-10416074D02*
X6956048Y-10425598D01*
X6956048Y-10425598D02*
X6917953Y-10425598D01*
X6917953Y-10425598D02*
X6898906Y-10435122D01*
X6898906Y-10435122D02*
X6889382Y-10444646D01*
X6889382Y-10444646D02*
X6879858Y-10463693D01*
X6879858Y-10463693D02*
X6879858Y-10501788D01*
X6879858Y-10501788D02*
X6889382Y-10520836D01*
X6889382Y-10520836D02*
X6898906Y-10530360D01*
X6898906Y-10530360D02*
X6917953Y-10539884D01*
X6917953Y-10539884D02*
X6956048Y-10539884D01*
X6956048Y-10539884D02*
X6975096Y-10530360D01*
X6975096Y-10530360D02*
X6984620Y-10520836D01*
X6984620Y-10520836D02*
X6994144Y-10501788D01*
X6994144Y-10501788D02*
X6994144Y-10463693D01*
X6994144Y-10463693D02*
X6984620Y-10444646D01*
X6984620Y-10444646D02*
X6975096Y-10435122D01*
X6975096Y-10435122D02*
X6956048Y-10425598D01*
X7070334Y-10339884D02*
X7070334Y-10377979D01*
X7146525Y-10339884D02*
X7146525Y-10377979D01*
X7441763Y-10616074D02*
X7432239Y-10606550D01*
X7432239Y-10606550D02*
X7413191Y-10577979D01*
X7413191Y-10577979D02*
X7403668Y-10558931D01*
X7403668Y-10558931D02*
X7394144Y-10530360D01*
X7394144Y-10530360D02*
X7384620Y-10482741D01*
X7384620Y-10482741D02*
X7384620Y-10444646D01*
X7384620Y-10444646D02*
X7394144Y-10397027D01*
X7394144Y-10397027D02*
X7403668Y-10368455D01*
X7403668Y-10368455D02*
X7413191Y-10349408D01*
X7413191Y-10349408D02*
X7432239Y-10320836D01*
X7432239Y-10320836D02*
X7441763Y-10311312D01*
X7603668Y-10339884D02*
X7565572Y-10339884D01*
X7565572Y-10339884D02*
X7546525Y-10349408D01*
X7546525Y-10349408D02*
X7537001Y-10358931D01*
X7537001Y-10358931D02*
X7517953Y-10387503D01*
X7517953Y-10387503D02*
X7508429Y-10425598D01*
X7508429Y-10425598D02*
X7508429Y-10501788D01*
X7508429Y-10501788D02*
X7517953Y-10520836D01*
X7517953Y-10520836D02*
X7527477Y-10530360D01*
X7527477Y-10530360D02*
X7546525Y-10539884D01*
X7546525Y-10539884D02*
X7584620Y-10539884D01*
X7584620Y-10539884D02*
X7603668Y-10530360D01*
X7603668Y-10530360D02*
X7613191Y-10520836D01*
X7613191Y-10520836D02*
X7622715Y-10501788D01*
X7622715Y-10501788D02*
X7622715Y-10454169D01*
X7622715Y-10454169D02*
X7613191Y-10435122D01*
X7613191Y-10435122D02*
X7603668Y-10425598D01*
X7603668Y-10425598D02*
X7584620Y-10416074D01*
X7584620Y-10416074D02*
X7546525Y-10416074D01*
X7546525Y-10416074D02*
X7527477Y-10425598D01*
X7527477Y-10425598D02*
X7517953Y-10435122D01*
X7517953Y-10435122D02*
X7508429Y-10454169D01*
X7689382Y-10339884D02*
X7822715Y-10339884D01*
X7822715Y-10339884D02*
X7737001Y-10539884D01*
X8051287Y-10539884D02*
X8051287Y-10339884D01*
X8137001Y-10539884D02*
X8137001Y-10435122D01*
X8137001Y-10435122D02*
X8127477Y-10416074D01*
X8127477Y-10416074D02*
X8108430Y-10406550D01*
X8108430Y-10406550D02*
X8079858Y-10406550D01*
X8079858Y-10406550D02*
X8060810Y-10416074D01*
X8060810Y-10416074D02*
X8051287Y-10425598D01*
X8260810Y-10539884D02*
X8241763Y-10530360D01*
X8241763Y-10530360D02*
X8232239Y-10520836D01*
X8232239Y-10520836D02*
X8222715Y-10501788D01*
X8222715Y-10501788D02*
X8222715Y-10444646D01*
X8222715Y-10444646D02*
X8232239Y-10425598D01*
X8232239Y-10425598D02*
X8241763Y-10416074D01*
X8241763Y-10416074D02*
X8260810Y-10406550D01*
X8260810Y-10406550D02*
X8289382Y-10406550D01*
X8289382Y-10406550D02*
X8308430Y-10416074D01*
X8308430Y-10416074D02*
X8317953Y-10425598D01*
X8317953Y-10425598D02*
X8327477Y-10444646D01*
X8327477Y-10444646D02*
X8327477Y-10501788D01*
X8327477Y-10501788D02*
X8317953Y-10520836D01*
X8317953Y-10520836D02*
X8308430Y-10530360D01*
X8308430Y-10530360D02*
X8289382Y-10539884D01*
X8289382Y-10539884D02*
X8260810Y-10539884D01*
X8441763Y-10539884D02*
X8422715Y-10530360D01*
X8422715Y-10530360D02*
X8413192Y-10511312D01*
X8413192Y-10511312D02*
X8413192Y-10339884D01*
X8594144Y-10530360D02*
X8575096Y-10539884D01*
X8575096Y-10539884D02*
X8537001Y-10539884D01*
X8537001Y-10539884D02*
X8517953Y-10530360D01*
X8517953Y-10530360D02*
X8508430Y-10511312D01*
X8508430Y-10511312D02*
X8508430Y-10435122D01*
X8508430Y-10435122D02*
X8517953Y-10416074D01*
X8517953Y-10416074D02*
X8537001Y-10406550D01*
X8537001Y-10406550D02*
X8575096Y-10406550D01*
X8575096Y-10406550D02*
X8594144Y-10416074D01*
X8594144Y-10416074D02*
X8603668Y-10435122D01*
X8603668Y-10435122D02*
X8603668Y-10454169D01*
X8603668Y-10454169D02*
X8508430Y-10473217D01*
X8679858Y-10530360D02*
X8698906Y-10539884D01*
X8698906Y-10539884D02*
X8737001Y-10539884D01*
X8737001Y-10539884D02*
X8756049Y-10530360D01*
X8756049Y-10530360D02*
X8765573Y-10511312D01*
X8765573Y-10511312D02*
X8765573Y-10501788D01*
X8765573Y-10501788D02*
X8756049Y-10482741D01*
X8756049Y-10482741D02*
X8737001Y-10473217D01*
X8737001Y-10473217D02*
X8708430Y-10473217D01*
X8708430Y-10473217D02*
X8689382Y-10463693D01*
X8689382Y-10463693D02*
X8679858Y-10444646D01*
X8679858Y-10444646D02*
X8679858Y-10435122D01*
X8679858Y-10435122D02*
X8689382Y-10416074D01*
X8689382Y-10416074D02*
X8708430Y-10406550D01*
X8708430Y-10406550D02*
X8737001Y-10406550D01*
X8737001Y-10406550D02*
X8756049Y-10416074D01*
X8832239Y-10616074D02*
X8841763Y-10606550D01*
X8841763Y-10606550D02*
X8860811Y-10577979D01*
X8860811Y-10577979D02*
X8870334Y-10558931D01*
X8870334Y-10558931D02*
X8879858Y-10530360D01*
X8879858Y-10530360D02*
X8889382Y-10482741D01*
X8889382Y-10482741D02*
X8889382Y-10444646D01*
X8889382Y-10444646D02*
X8879858Y-10397027D01*
X8879858Y-10397027D02*
X8870334Y-10368455D01*
X8870334Y-10368455D02*
X8860811Y-10349408D01*
X8860811Y-10349408D02*
X8841763Y-10320836D01*
X8841763Y-10320836D02*
X8832239Y-10311312D01*
D11*
X3866700Y-10712400D02*
G75*
G02*
X3816700Y-10712400I-25000J0D01*
G01*
X3816700Y-10712400D02*
G75*
G02*
X3866700Y-10712400I25000J0D01*
G01*
D10*
X4165572Y-10603884D02*
X4184620Y-10603884D01*
X4184620Y-10603884D02*
X4203667Y-10613408D01*
X4203667Y-10613408D02*
X4213191Y-10622931D01*
X4213191Y-10622931D02*
X4222715Y-10641979D01*
X4222715Y-10641979D02*
X4232239Y-10680074D01*
X4232239Y-10680074D02*
X4232239Y-10727693D01*
X4232239Y-10727693D02*
X4222715Y-10765788D01*
X4222715Y-10765788D02*
X4213191Y-10784836D01*
X4213191Y-10784836D02*
X4203667Y-10794360D01*
X4203667Y-10794360D02*
X4184620Y-10803884D01*
X4184620Y-10803884D02*
X4165572Y-10803884D01*
X4165572Y-10803884D02*
X4146524Y-10794360D01*
X4146524Y-10794360D02*
X4137001Y-10784836D01*
X4137001Y-10784836D02*
X4127477Y-10765788D01*
X4127477Y-10765788D02*
X4117953Y-10727693D01*
X4117953Y-10727693D02*
X4117953Y-10680074D01*
X4117953Y-10680074D02*
X4127477Y-10641979D01*
X4127477Y-10641979D02*
X4137001Y-10622931D01*
X4137001Y-10622931D02*
X4146524Y-10613408D01*
X4146524Y-10613408D02*
X4165572Y-10603884D01*
X4317953Y-10784836D02*
X4327477Y-10794360D01*
X4327477Y-10794360D02*
X4317953Y-10803884D01*
X4317953Y-10803884D02*
X4308429Y-10794360D01*
X4308429Y-10794360D02*
X4317953Y-10784836D01*
X4317953Y-10784836D02*
X4317953Y-10803884D01*
X4508429Y-10603884D02*
X4413191Y-10603884D01*
X4413191Y-10603884D02*
X4403667Y-10699122D01*
X4403667Y-10699122D02*
X4413191Y-10689598D01*
X4413191Y-10689598D02*
X4432239Y-10680074D01*
X4432239Y-10680074D02*
X4479858Y-10680074D01*
X4479858Y-10680074D02*
X4498905Y-10689598D01*
X4498905Y-10689598D02*
X4508429Y-10699122D01*
X4508429Y-10699122D02*
X4517953Y-10718169D01*
X4517953Y-10718169D02*
X4517953Y-10765788D01*
X4517953Y-10765788D02*
X4508429Y-10784836D01*
X4508429Y-10784836D02*
X4498905Y-10794360D01*
X4498905Y-10794360D02*
X4479858Y-10803884D01*
X4479858Y-10803884D02*
X4432239Y-10803884D01*
X4432239Y-10803884D02*
X4413191Y-10794360D01*
X4413191Y-10794360D02*
X4403667Y-10784836D01*
X4641763Y-10603884D02*
X4660810Y-10603884D01*
X4660810Y-10603884D02*
X4679858Y-10613408D01*
X4679858Y-10613408D02*
X4689382Y-10622931D01*
X4689382Y-10622931D02*
X4698905Y-10641979D01*
X4698905Y-10641979D02*
X4708429Y-10680074D01*
X4708429Y-10680074D02*
X4708429Y-10727693D01*
X4708429Y-10727693D02*
X4698905Y-10765788D01*
X4698905Y-10765788D02*
X4689382Y-10784836D01*
X4689382Y-10784836D02*
X4679858Y-10794360D01*
X4679858Y-10794360D02*
X4660810Y-10803884D01*
X4660810Y-10803884D02*
X4641763Y-10803884D01*
X4641763Y-10803884D02*
X4622715Y-10794360D01*
X4622715Y-10794360D02*
X4613191Y-10784836D01*
X4613191Y-10784836D02*
X4603667Y-10765788D01*
X4603667Y-10765788D02*
X4594144Y-10727693D01*
X4594144Y-10727693D02*
X4594144Y-10680074D01*
X4594144Y-10680074D02*
X4603667Y-10641979D01*
X4603667Y-10641979D02*
X4613191Y-10622931D01*
X4613191Y-10622931D02*
X4622715Y-10613408D01*
X4622715Y-10613408D02*
X4641763Y-10603884D01*
X4832239Y-10603884D02*
X4851286Y-10603884D01*
X4851286Y-10603884D02*
X4870334Y-10613408D01*
X4870334Y-10613408D02*
X4879858Y-10622931D01*
X4879858Y-10622931D02*
X4889382Y-10641979D01*
X4889382Y-10641979D02*
X4898905Y-10680074D01*
X4898905Y-10680074D02*
X4898905Y-10727693D01*
X4898905Y-10727693D02*
X4889382Y-10765788D01*
X4889382Y-10765788D02*
X4879858Y-10784836D01*
X4879858Y-10784836D02*
X4870334Y-10794360D01*
X4870334Y-10794360D02*
X4851286Y-10803884D01*
X4851286Y-10803884D02*
X4832239Y-10803884D01*
X4832239Y-10803884D02*
X4813191Y-10794360D01*
X4813191Y-10794360D02*
X4803667Y-10784836D01*
X4803667Y-10784836D02*
X4794144Y-10765788D01*
X4794144Y-10765788D02*
X4784620Y-10727693D01*
X4784620Y-10727693D02*
X4784620Y-10680074D01*
X4784620Y-10680074D02*
X4794144Y-10641979D01*
X4794144Y-10641979D02*
X4803667Y-10622931D01*
X4803667Y-10622931D02*
X4813191Y-10613408D01*
X4813191Y-10613408D02*
X4832239Y-10603884D01*
X4984620Y-10803884D02*
X4984620Y-10670550D01*
X4984620Y-10689598D02*
X4994144Y-10680074D01*
X4994144Y-10680074D02*
X5013191Y-10670550D01*
X5013191Y-10670550D02*
X5041763Y-10670550D01*
X5041763Y-10670550D02*
X5060810Y-10680074D01*
X5060810Y-10680074D02*
X5070334Y-10699122D01*
X5070334Y-10699122D02*
X5070334Y-10803884D01*
X5070334Y-10699122D02*
X5079858Y-10680074D01*
X5079858Y-10680074D02*
X5098905Y-10670550D01*
X5098905Y-10670550D02*
X5127477Y-10670550D01*
X5127477Y-10670550D02*
X5146525Y-10680074D01*
X5146525Y-10680074D02*
X5156048Y-10699122D01*
X5156048Y-10699122D02*
X5156048Y-10803884D01*
X5251286Y-10803884D02*
X5251286Y-10670550D01*
X5251286Y-10689598D02*
X5260810Y-10680074D01*
X5260810Y-10680074D02*
X5279858Y-10670550D01*
X5279858Y-10670550D02*
X5308429Y-10670550D01*
X5308429Y-10670550D02*
X5327477Y-10680074D01*
X5327477Y-10680074D02*
X5337001Y-10699122D01*
X5337001Y-10699122D02*
X5337001Y-10803884D01*
X5337001Y-10699122D02*
X5346525Y-10680074D01*
X5346525Y-10680074D02*
X5365572Y-10670550D01*
X5365572Y-10670550D02*
X5394144Y-10670550D01*
X5394144Y-10670550D02*
X5413191Y-10680074D01*
X5413191Y-10680074D02*
X5422715Y-10699122D01*
X5422715Y-10699122D02*
X5422715Y-10803884D01*
X5813191Y-10594360D02*
X5641763Y-10851503D01*
X6070334Y-10603884D02*
X6089382Y-10603884D01*
X6089382Y-10603884D02*
X6108429Y-10613408D01*
X6108429Y-10613408D02*
X6117953Y-10622931D01*
X6117953Y-10622931D02*
X6127477Y-10641979D01*
X6127477Y-10641979D02*
X6137001Y-10680074D01*
X6137001Y-10680074D02*
X6137001Y-10727693D01*
X6137001Y-10727693D02*
X6127477Y-10765788D01*
X6127477Y-10765788D02*
X6117953Y-10784836D01*
X6117953Y-10784836D02*
X6108429Y-10794360D01*
X6108429Y-10794360D02*
X6089382Y-10803884D01*
X6089382Y-10803884D02*
X6070334Y-10803884D01*
X6070334Y-10803884D02*
X6051286Y-10794360D01*
X6051286Y-10794360D02*
X6041763Y-10784836D01*
X6041763Y-10784836D02*
X6032239Y-10765788D01*
X6032239Y-10765788D02*
X6022715Y-10727693D01*
X6022715Y-10727693D02*
X6022715Y-10680074D01*
X6022715Y-10680074D02*
X6032239Y-10641979D01*
X6032239Y-10641979D02*
X6041763Y-10622931D01*
X6041763Y-10622931D02*
X6051286Y-10613408D01*
X6051286Y-10613408D02*
X6070334Y-10603884D01*
X6222715Y-10784836D02*
X6232239Y-10794360D01*
X6232239Y-10794360D02*
X6222715Y-10803884D01*
X6222715Y-10803884D02*
X6213191Y-10794360D01*
X6213191Y-10794360D02*
X6222715Y-10784836D01*
X6222715Y-10784836D02*
X6222715Y-10803884D01*
X6356048Y-10603884D02*
X6375096Y-10603884D01*
X6375096Y-10603884D02*
X6394144Y-10613408D01*
X6394144Y-10613408D02*
X6403667Y-10622931D01*
X6403667Y-10622931D02*
X6413191Y-10641979D01*
X6413191Y-10641979D02*
X6422715Y-10680074D01*
X6422715Y-10680074D02*
X6422715Y-10727693D01*
X6422715Y-10727693D02*
X6413191Y-10765788D01*
X6413191Y-10765788D02*
X6403667Y-10784836D01*
X6403667Y-10784836D02*
X6394144Y-10794360D01*
X6394144Y-10794360D02*
X6375096Y-10803884D01*
X6375096Y-10803884D02*
X6356048Y-10803884D01*
X6356048Y-10803884D02*
X6337001Y-10794360D01*
X6337001Y-10794360D02*
X6327477Y-10784836D01*
X6327477Y-10784836D02*
X6317953Y-10765788D01*
X6317953Y-10765788D02*
X6308429Y-10727693D01*
X6308429Y-10727693D02*
X6308429Y-10680074D01*
X6308429Y-10680074D02*
X6317953Y-10641979D01*
X6317953Y-10641979D02*
X6327477Y-10622931D01*
X6327477Y-10622931D02*
X6337001Y-10613408D01*
X6337001Y-10613408D02*
X6356048Y-10603884D01*
X6613191Y-10803884D02*
X6498906Y-10803884D01*
X6556048Y-10803884D02*
X6556048Y-10603884D01*
X6556048Y-10603884D02*
X6537001Y-10632455D01*
X6537001Y-10632455D02*
X6517953Y-10651503D01*
X6517953Y-10651503D02*
X6498906Y-10661027D01*
X6708429Y-10803884D02*
X6746525Y-10803884D01*
X6746525Y-10803884D02*
X6765572Y-10794360D01*
X6765572Y-10794360D02*
X6775096Y-10784836D01*
X6775096Y-10784836D02*
X6794144Y-10756265D01*
X6794144Y-10756265D02*
X6803667Y-10718169D01*
X6803667Y-10718169D02*
X6803667Y-10641979D01*
X6803667Y-10641979D02*
X6794144Y-10622931D01*
X6794144Y-10622931D02*
X6784620Y-10613408D01*
X6784620Y-10613408D02*
X6765572Y-10603884D01*
X6765572Y-10603884D02*
X6727477Y-10603884D01*
X6727477Y-10603884D02*
X6708429Y-10613408D01*
X6708429Y-10613408D02*
X6698906Y-10622931D01*
X6698906Y-10622931D02*
X6689382Y-10641979D01*
X6689382Y-10641979D02*
X6689382Y-10689598D01*
X6689382Y-10689598D02*
X6698906Y-10708646D01*
X6698906Y-10708646D02*
X6708429Y-10718169D01*
X6708429Y-10718169D02*
X6727477Y-10727693D01*
X6727477Y-10727693D02*
X6765572Y-10727693D01*
X6765572Y-10727693D02*
X6784620Y-10718169D01*
X6784620Y-10718169D02*
X6794144Y-10708646D01*
X6794144Y-10708646D02*
X6803667Y-10689598D01*
X6870334Y-10603884D02*
X7003667Y-10603884D01*
X7003667Y-10603884D02*
X6917953Y-10803884D01*
X7070334Y-10603884D02*
X7070334Y-10641979D01*
X7146525Y-10603884D02*
X7146525Y-10641979D01*
X7441763Y-10880074D02*
X7432239Y-10870550D01*
X7432239Y-10870550D02*
X7413191Y-10841979D01*
X7413191Y-10841979D02*
X7403668Y-10822931D01*
X7403668Y-10822931D02*
X7394144Y-10794360D01*
X7394144Y-10794360D02*
X7384620Y-10746741D01*
X7384620Y-10746741D02*
X7384620Y-10708646D01*
X7384620Y-10708646D02*
X7394144Y-10661027D01*
X7394144Y-10661027D02*
X7403668Y-10632455D01*
X7403668Y-10632455D02*
X7413191Y-10613408D01*
X7413191Y-10613408D02*
X7432239Y-10584836D01*
X7432239Y-10584836D02*
X7441763Y-10575312D01*
X7556048Y-10603884D02*
X7575096Y-10603884D01*
X7575096Y-10603884D02*
X7594144Y-10613408D01*
X7594144Y-10613408D02*
X7603668Y-10622931D01*
X7603668Y-10622931D02*
X7613191Y-10641979D01*
X7613191Y-10641979D02*
X7622715Y-10680074D01*
X7622715Y-10680074D02*
X7622715Y-10727693D01*
X7622715Y-10727693D02*
X7613191Y-10765788D01*
X7613191Y-10765788D02*
X7603668Y-10784836D01*
X7603668Y-10784836D02*
X7594144Y-10794360D01*
X7594144Y-10794360D02*
X7575096Y-10803884D01*
X7575096Y-10803884D02*
X7556048Y-10803884D01*
X7556048Y-10803884D02*
X7537001Y-10794360D01*
X7537001Y-10794360D02*
X7527477Y-10784836D01*
X7527477Y-10784836D02*
X7517953Y-10765788D01*
X7517953Y-10765788D02*
X7508429Y-10727693D01*
X7508429Y-10727693D02*
X7508429Y-10680074D01*
X7508429Y-10680074D02*
X7517953Y-10641979D01*
X7517953Y-10641979D02*
X7527477Y-10622931D01*
X7527477Y-10622931D02*
X7537001Y-10613408D01*
X7537001Y-10613408D02*
X7556048Y-10603884D01*
X7860810Y-10803884D02*
X7860810Y-10603884D01*
X7946525Y-10803884D02*
X7946525Y-10699122D01*
X7946525Y-10699122D02*
X7937001Y-10680074D01*
X7937001Y-10680074D02*
X7917953Y-10670550D01*
X7917953Y-10670550D02*
X7889382Y-10670550D01*
X7889382Y-10670550D02*
X7870334Y-10680074D01*
X7870334Y-10680074D02*
X7860810Y-10689598D01*
X8070334Y-10803884D02*
X8051287Y-10794360D01*
X8051287Y-10794360D02*
X8041763Y-10784836D01*
X8041763Y-10784836D02*
X8032239Y-10765788D01*
X8032239Y-10765788D02*
X8032239Y-10708646D01*
X8032239Y-10708646D02*
X8041763Y-10689598D01*
X8041763Y-10689598D02*
X8051287Y-10680074D01*
X8051287Y-10680074D02*
X8070334Y-10670550D01*
X8070334Y-10670550D02*
X8098906Y-10670550D01*
X8098906Y-10670550D02*
X8117953Y-10680074D01*
X8117953Y-10680074D02*
X8127477Y-10689598D01*
X8127477Y-10689598D02*
X8137001Y-10708646D01*
X8137001Y-10708646D02*
X8137001Y-10765788D01*
X8137001Y-10765788D02*
X8127477Y-10784836D01*
X8127477Y-10784836D02*
X8117953Y-10794360D01*
X8117953Y-10794360D02*
X8098906Y-10803884D01*
X8098906Y-10803884D02*
X8070334Y-10803884D01*
X8251287Y-10803884D02*
X8232239Y-10794360D01*
X8232239Y-10794360D02*
X8222715Y-10775312D01*
X8222715Y-10775312D02*
X8222715Y-10603884D01*
X8403668Y-10794360D02*
X8384620Y-10803884D01*
X8384620Y-10803884D02*
X8346525Y-10803884D01*
X8346525Y-10803884D02*
X8327477Y-10794360D01*
X8327477Y-10794360D02*
X8317953Y-10775312D01*
X8317953Y-10775312D02*
X8317953Y-10699122D01*
X8317953Y-10699122D02*
X8327477Y-10680074D01*
X8327477Y-10680074D02*
X8346525Y-10670550D01*
X8346525Y-10670550D02*
X8384620Y-10670550D01*
X8384620Y-10670550D02*
X8403668Y-10680074D01*
X8403668Y-10680074D02*
X8413192Y-10699122D01*
X8413192Y-10699122D02*
X8413192Y-10718169D01*
X8413192Y-10718169D02*
X8317953Y-10737217D01*
X8489382Y-10794360D02*
X8508430Y-10803884D01*
X8508430Y-10803884D02*
X8546525Y-10803884D01*
X8546525Y-10803884D02*
X8565573Y-10794360D01*
X8565573Y-10794360D02*
X8575096Y-10775312D01*
X8575096Y-10775312D02*
X8575096Y-10765788D01*
X8575096Y-10765788D02*
X8565573Y-10746741D01*
X8565573Y-10746741D02*
X8546525Y-10737217D01*
X8546525Y-10737217D02*
X8517953Y-10737217D01*
X8517953Y-10737217D02*
X8498906Y-10727693D01*
X8498906Y-10727693D02*
X8489382Y-10708646D01*
X8489382Y-10708646D02*
X8489382Y-10699122D01*
X8489382Y-10699122D02*
X8498906Y-10680074D01*
X8498906Y-10680074D02*
X8517953Y-10670550D01*
X8517953Y-10670550D02*
X8546525Y-10670550D01*
X8546525Y-10670550D02*
X8565573Y-10680074D01*
X8813192Y-10727693D02*
X8965573Y-10727693D01*
X8889382Y-10803884D02*
X8889382Y-10651503D01*
X9298906Y-10670550D02*
X9298906Y-10803884D01*
X9251287Y-10594360D02*
X9203668Y-10737217D01*
X9203668Y-10737217D02*
X9327477Y-10737217D01*
X9546525Y-10794360D02*
X9565573Y-10803884D01*
X9565573Y-10803884D02*
X9603668Y-10803884D01*
X9603668Y-10803884D02*
X9622716Y-10794360D01*
X9622716Y-10794360D02*
X9632239Y-10775312D01*
X9632239Y-10775312D02*
X9632239Y-10765788D01*
X9632239Y-10765788D02*
X9622716Y-10746741D01*
X9622716Y-10746741D02*
X9603668Y-10737217D01*
X9603668Y-10737217D02*
X9575096Y-10737217D01*
X9575096Y-10737217D02*
X9556049Y-10727693D01*
X9556049Y-10727693D02*
X9546525Y-10708646D01*
X9546525Y-10708646D02*
X9546525Y-10699122D01*
X9546525Y-10699122D02*
X9556049Y-10680074D01*
X9556049Y-10680074D02*
X9575096Y-10670550D01*
X9575096Y-10670550D02*
X9603668Y-10670550D01*
X9603668Y-10670550D02*
X9622716Y-10680074D01*
X9746525Y-10803884D02*
X9727477Y-10794360D01*
X9727477Y-10794360D02*
X9717954Y-10775312D01*
X9717954Y-10775312D02*
X9717954Y-10603884D01*
X9851287Y-10803884D02*
X9832239Y-10794360D01*
X9832239Y-10794360D02*
X9822716Y-10784836D01*
X9822716Y-10784836D02*
X9813192Y-10765788D01*
X9813192Y-10765788D02*
X9813192Y-10708646D01*
X9813192Y-10708646D02*
X9822716Y-10689598D01*
X9822716Y-10689598D02*
X9832239Y-10680074D01*
X9832239Y-10680074D02*
X9851287Y-10670550D01*
X9851287Y-10670550D02*
X9879858Y-10670550D01*
X9879858Y-10670550D02*
X9898906Y-10680074D01*
X9898906Y-10680074D02*
X9908430Y-10689598D01*
X9908430Y-10689598D02*
X9917954Y-10708646D01*
X9917954Y-10708646D02*
X9917954Y-10765788D01*
X9917954Y-10765788D02*
X9908430Y-10784836D01*
X9908430Y-10784836D02*
X9898906Y-10794360D01*
X9898906Y-10794360D02*
X9879858Y-10803884D01*
X9879858Y-10803884D02*
X9851287Y-10803884D01*
X9975097Y-10670550D02*
X10051287Y-10670550D01*
X10003668Y-10603884D02*
X10003668Y-10775312D01*
X10003668Y-10775312D02*
X10013192Y-10794360D01*
X10013192Y-10794360D02*
X10032239Y-10803884D01*
X10032239Y-10803884D02*
X10051287Y-10803884D01*
X10108430Y-10794360D02*
X10127477Y-10803884D01*
X10127477Y-10803884D02*
X10165573Y-10803884D01*
X10165573Y-10803884D02*
X10184620Y-10794360D01*
X10184620Y-10794360D02*
X10194144Y-10775312D01*
X10194144Y-10775312D02*
X10194144Y-10765788D01*
X10194144Y-10765788D02*
X10184620Y-10746741D01*
X10184620Y-10746741D02*
X10165573Y-10737217D01*
X10165573Y-10737217D02*
X10137001Y-10737217D01*
X10137001Y-10737217D02*
X10117954Y-10727693D01*
X10117954Y-10727693D02*
X10108430Y-10708646D01*
X10108430Y-10708646D02*
X10108430Y-10699122D01*
X10108430Y-10699122D02*
X10117954Y-10680074D01*
X10117954Y-10680074D02*
X10137001Y-10670550D01*
X10137001Y-10670550D02*
X10165573Y-10670550D01*
X10165573Y-10670550D02*
X10184620Y-10680074D01*
X10260811Y-10880074D02*
X10270335Y-10870550D01*
X10270335Y-10870550D02*
X10289382Y-10841979D01*
X10289382Y-10841979D02*
X10298906Y-10822931D01*
X10298906Y-10822931D02*
X10308430Y-10794360D01*
X10308430Y-10794360D02*
X10317954Y-10746741D01*
X10317954Y-10746741D02*
X10317954Y-10708646D01*
X10317954Y-10708646D02*
X10308430Y-10661027D01*
X10308430Y-10661027D02*
X10298906Y-10632455D01*
X10298906Y-10632455D02*
X10289382Y-10613408D01*
X10289382Y-10613408D02*
X10270335Y-10584836D01*
X10270335Y-10584836D02*
X10260811Y-10575312D01*
D11*
X3816700Y-10926400D02*
X3816700Y-11026400D01*
X3766700Y-10976400D02*
X3866700Y-10976400D01*
D10*
X4232239Y-11067884D02*
X4117953Y-11067884D01*
X4175096Y-11067884D02*
X4175096Y-10867884D01*
X4175096Y-10867884D02*
X4156048Y-10896455D01*
X4156048Y-10896455D02*
X4137001Y-10915503D01*
X4137001Y-10915503D02*
X4117953Y-10925027D01*
X4317953Y-11048836D02*
X4327477Y-11058360D01*
X4327477Y-11058360D02*
X4317953Y-11067884D01*
X4317953Y-11067884D02*
X4308429Y-11058360D01*
X4308429Y-11058360D02*
X4317953Y-11048836D01*
X4317953Y-11048836D02*
X4317953Y-11067884D01*
X4451286Y-10867884D02*
X4470334Y-10867884D01*
X4470334Y-10867884D02*
X4489382Y-10877408D01*
X4489382Y-10877408D02*
X4498905Y-10886931D01*
X4498905Y-10886931D02*
X4508429Y-10905979D01*
X4508429Y-10905979D02*
X4517953Y-10944074D01*
X4517953Y-10944074D02*
X4517953Y-10991693D01*
X4517953Y-10991693D02*
X4508429Y-11029788D01*
X4508429Y-11029788D02*
X4498905Y-11048836D01*
X4498905Y-11048836D02*
X4489382Y-11058360D01*
X4489382Y-11058360D02*
X4470334Y-11067884D01*
X4470334Y-11067884D02*
X4451286Y-11067884D01*
X4451286Y-11067884D02*
X4432239Y-11058360D01*
X4432239Y-11058360D02*
X4422715Y-11048836D01*
X4422715Y-11048836D02*
X4413191Y-11029788D01*
X4413191Y-11029788D02*
X4403667Y-10991693D01*
X4403667Y-10991693D02*
X4403667Y-10944074D01*
X4403667Y-10944074D02*
X4413191Y-10905979D01*
X4413191Y-10905979D02*
X4422715Y-10886931D01*
X4422715Y-10886931D02*
X4432239Y-10877408D01*
X4432239Y-10877408D02*
X4451286Y-10867884D01*
X4641763Y-10867884D02*
X4660810Y-10867884D01*
X4660810Y-10867884D02*
X4679858Y-10877408D01*
X4679858Y-10877408D02*
X4689382Y-10886931D01*
X4689382Y-10886931D02*
X4698905Y-10905979D01*
X4698905Y-10905979D02*
X4708429Y-10944074D01*
X4708429Y-10944074D02*
X4708429Y-10991693D01*
X4708429Y-10991693D02*
X4698905Y-11029788D01*
X4698905Y-11029788D02*
X4689382Y-11048836D01*
X4689382Y-11048836D02*
X4679858Y-11058360D01*
X4679858Y-11058360D02*
X4660810Y-11067884D01*
X4660810Y-11067884D02*
X4641763Y-11067884D01*
X4641763Y-11067884D02*
X4622715Y-11058360D01*
X4622715Y-11058360D02*
X4613191Y-11048836D01*
X4613191Y-11048836D02*
X4603667Y-11029788D01*
X4603667Y-11029788D02*
X4594144Y-10991693D01*
X4594144Y-10991693D02*
X4594144Y-10944074D01*
X4594144Y-10944074D02*
X4603667Y-10905979D01*
X4603667Y-10905979D02*
X4613191Y-10886931D01*
X4613191Y-10886931D02*
X4622715Y-10877408D01*
X4622715Y-10877408D02*
X4641763Y-10867884D01*
X4832239Y-10867884D02*
X4851286Y-10867884D01*
X4851286Y-10867884D02*
X4870334Y-10877408D01*
X4870334Y-10877408D02*
X4879858Y-10886931D01*
X4879858Y-10886931D02*
X4889382Y-10905979D01*
X4889382Y-10905979D02*
X4898905Y-10944074D01*
X4898905Y-10944074D02*
X4898905Y-10991693D01*
X4898905Y-10991693D02*
X4889382Y-11029788D01*
X4889382Y-11029788D02*
X4879858Y-11048836D01*
X4879858Y-11048836D02*
X4870334Y-11058360D01*
X4870334Y-11058360D02*
X4851286Y-11067884D01*
X4851286Y-11067884D02*
X4832239Y-11067884D01*
X4832239Y-11067884D02*
X4813191Y-11058360D01*
X4813191Y-11058360D02*
X4803667Y-11048836D01*
X4803667Y-11048836D02*
X4794144Y-11029788D01*
X4794144Y-11029788D02*
X4784620Y-10991693D01*
X4784620Y-10991693D02*
X4784620Y-10944074D01*
X4784620Y-10944074D02*
X4794144Y-10905979D01*
X4794144Y-10905979D02*
X4803667Y-10886931D01*
X4803667Y-10886931D02*
X4813191Y-10877408D01*
X4813191Y-10877408D02*
X4832239Y-10867884D01*
X4984620Y-11067884D02*
X4984620Y-10934550D01*
X4984620Y-10953598D02*
X4994144Y-10944074D01*
X4994144Y-10944074D02*
X5013191Y-10934550D01*
X5013191Y-10934550D02*
X5041763Y-10934550D01*
X5041763Y-10934550D02*
X5060810Y-10944074D01*
X5060810Y-10944074D02*
X5070334Y-10963122D01*
X5070334Y-10963122D02*
X5070334Y-11067884D01*
X5070334Y-10963122D02*
X5079858Y-10944074D01*
X5079858Y-10944074D02*
X5098905Y-10934550D01*
X5098905Y-10934550D02*
X5127477Y-10934550D01*
X5127477Y-10934550D02*
X5146525Y-10944074D01*
X5146525Y-10944074D02*
X5156048Y-10963122D01*
X5156048Y-10963122D02*
X5156048Y-11067884D01*
X5251286Y-11067884D02*
X5251286Y-10934550D01*
X5251286Y-10953598D02*
X5260810Y-10944074D01*
X5260810Y-10944074D02*
X5279858Y-10934550D01*
X5279858Y-10934550D02*
X5308429Y-10934550D01*
X5308429Y-10934550D02*
X5327477Y-10944074D01*
X5327477Y-10944074D02*
X5337001Y-10963122D01*
X5337001Y-10963122D02*
X5337001Y-11067884D01*
X5337001Y-10963122D02*
X5346525Y-10944074D01*
X5346525Y-10944074D02*
X5365572Y-10934550D01*
X5365572Y-10934550D02*
X5394144Y-10934550D01*
X5394144Y-10934550D02*
X5413191Y-10944074D01*
X5413191Y-10944074D02*
X5422715Y-10963122D01*
X5422715Y-10963122D02*
X5422715Y-11067884D01*
X5813191Y-10858360D02*
X5641763Y-11115503D01*
X6070334Y-10867884D02*
X6089382Y-10867884D01*
X6089382Y-10867884D02*
X6108429Y-10877408D01*
X6108429Y-10877408D02*
X6117953Y-10886931D01*
X6117953Y-10886931D02*
X6127477Y-10905979D01*
X6127477Y-10905979D02*
X6137001Y-10944074D01*
X6137001Y-10944074D02*
X6137001Y-10991693D01*
X6137001Y-10991693D02*
X6127477Y-11029788D01*
X6127477Y-11029788D02*
X6117953Y-11048836D01*
X6117953Y-11048836D02*
X6108429Y-11058360D01*
X6108429Y-11058360D02*
X6089382Y-11067884D01*
X6089382Y-11067884D02*
X6070334Y-11067884D01*
X6070334Y-11067884D02*
X6051286Y-11058360D01*
X6051286Y-11058360D02*
X6041763Y-11048836D01*
X6041763Y-11048836D02*
X6032239Y-11029788D01*
X6032239Y-11029788D02*
X6022715Y-10991693D01*
X6022715Y-10991693D02*
X6022715Y-10944074D01*
X6022715Y-10944074D02*
X6032239Y-10905979D01*
X6032239Y-10905979D02*
X6041763Y-10886931D01*
X6041763Y-10886931D02*
X6051286Y-10877408D01*
X6051286Y-10877408D02*
X6070334Y-10867884D01*
X6222715Y-11048836D02*
X6232239Y-11058360D01*
X6232239Y-11058360D02*
X6222715Y-11067884D01*
X6222715Y-11067884D02*
X6213191Y-11058360D01*
X6213191Y-11058360D02*
X6222715Y-11048836D01*
X6222715Y-11048836D02*
X6222715Y-11067884D01*
X6356048Y-10867884D02*
X6375096Y-10867884D01*
X6375096Y-10867884D02*
X6394144Y-10877408D01*
X6394144Y-10877408D02*
X6403667Y-10886931D01*
X6403667Y-10886931D02*
X6413191Y-10905979D01*
X6413191Y-10905979D02*
X6422715Y-10944074D01*
X6422715Y-10944074D02*
X6422715Y-10991693D01*
X6422715Y-10991693D02*
X6413191Y-11029788D01*
X6413191Y-11029788D02*
X6403667Y-11048836D01*
X6403667Y-11048836D02*
X6394144Y-11058360D01*
X6394144Y-11058360D02*
X6375096Y-11067884D01*
X6375096Y-11067884D02*
X6356048Y-11067884D01*
X6356048Y-11067884D02*
X6337001Y-11058360D01*
X6337001Y-11058360D02*
X6327477Y-11048836D01*
X6327477Y-11048836D02*
X6317953Y-11029788D01*
X6317953Y-11029788D02*
X6308429Y-10991693D01*
X6308429Y-10991693D02*
X6308429Y-10944074D01*
X6308429Y-10944074D02*
X6317953Y-10905979D01*
X6317953Y-10905979D02*
X6327477Y-10886931D01*
X6327477Y-10886931D02*
X6337001Y-10877408D01*
X6337001Y-10877408D02*
X6356048Y-10867884D01*
X6489382Y-10867884D02*
X6613191Y-10867884D01*
X6613191Y-10867884D02*
X6546525Y-10944074D01*
X6546525Y-10944074D02*
X6575096Y-10944074D01*
X6575096Y-10944074D02*
X6594144Y-10953598D01*
X6594144Y-10953598D02*
X6603667Y-10963122D01*
X6603667Y-10963122D02*
X6613191Y-10982169D01*
X6613191Y-10982169D02*
X6613191Y-11029788D01*
X6613191Y-11029788D02*
X6603667Y-11048836D01*
X6603667Y-11048836D02*
X6594144Y-11058360D01*
X6594144Y-11058360D02*
X6575096Y-11067884D01*
X6575096Y-11067884D02*
X6517953Y-11067884D01*
X6517953Y-11067884D02*
X6498906Y-11058360D01*
X6498906Y-11058360D02*
X6489382Y-11048836D01*
X6708429Y-11067884D02*
X6746525Y-11067884D01*
X6746525Y-11067884D02*
X6765572Y-11058360D01*
X6765572Y-11058360D02*
X6775096Y-11048836D01*
X6775096Y-11048836D02*
X6794144Y-11020265D01*
X6794144Y-11020265D02*
X6803667Y-10982169D01*
X6803667Y-10982169D02*
X6803667Y-10905979D01*
X6803667Y-10905979D02*
X6794144Y-10886931D01*
X6794144Y-10886931D02*
X6784620Y-10877408D01*
X6784620Y-10877408D02*
X6765572Y-10867884D01*
X6765572Y-10867884D02*
X6727477Y-10867884D01*
X6727477Y-10867884D02*
X6708429Y-10877408D01*
X6708429Y-10877408D02*
X6698906Y-10886931D01*
X6698906Y-10886931D02*
X6689382Y-10905979D01*
X6689382Y-10905979D02*
X6689382Y-10953598D01*
X6689382Y-10953598D02*
X6698906Y-10972646D01*
X6698906Y-10972646D02*
X6708429Y-10982169D01*
X6708429Y-10982169D02*
X6727477Y-10991693D01*
X6727477Y-10991693D02*
X6765572Y-10991693D01*
X6765572Y-10991693D02*
X6784620Y-10982169D01*
X6784620Y-10982169D02*
X6794144Y-10972646D01*
X6794144Y-10972646D02*
X6803667Y-10953598D01*
X6975096Y-10934550D02*
X6975096Y-11067884D01*
X6927477Y-10858360D02*
X6879858Y-11001217D01*
X6879858Y-11001217D02*
X7003667Y-11001217D01*
X7070334Y-10867884D02*
X7070334Y-10905979D01*
X7146525Y-10867884D02*
X7146525Y-10905979D01*
X7441763Y-11144074D02*
X7432239Y-11134550D01*
X7432239Y-11134550D02*
X7413191Y-11105979D01*
X7413191Y-11105979D02*
X7403668Y-11086931D01*
X7403668Y-11086931D02*
X7394144Y-11058360D01*
X7394144Y-11058360D02*
X7384620Y-11010741D01*
X7384620Y-11010741D02*
X7384620Y-10972646D01*
X7384620Y-10972646D02*
X7394144Y-10925027D01*
X7394144Y-10925027D02*
X7403668Y-10896455D01*
X7403668Y-10896455D02*
X7413191Y-10877408D01*
X7413191Y-10877408D02*
X7432239Y-10848836D01*
X7432239Y-10848836D02*
X7441763Y-10839312D01*
X7613191Y-10867884D02*
X7517953Y-10867884D01*
X7517953Y-10867884D02*
X7508429Y-10963122D01*
X7508429Y-10963122D02*
X7517953Y-10953598D01*
X7517953Y-10953598D02*
X7537001Y-10944074D01*
X7537001Y-10944074D02*
X7584620Y-10944074D01*
X7584620Y-10944074D02*
X7603668Y-10953598D01*
X7603668Y-10953598D02*
X7613191Y-10963122D01*
X7613191Y-10963122D02*
X7622715Y-10982169D01*
X7622715Y-10982169D02*
X7622715Y-11029788D01*
X7622715Y-11029788D02*
X7613191Y-11048836D01*
X7613191Y-11048836D02*
X7603668Y-11058360D01*
X7603668Y-11058360D02*
X7584620Y-11067884D01*
X7584620Y-11067884D02*
X7537001Y-11067884D01*
X7537001Y-11067884D02*
X7517953Y-11058360D01*
X7517953Y-11058360D02*
X7508429Y-11048836D01*
X7860810Y-11067884D02*
X7860810Y-10867884D01*
X7946525Y-11067884D02*
X7946525Y-10963122D01*
X7946525Y-10963122D02*
X7937001Y-10944074D01*
X7937001Y-10944074D02*
X7917953Y-10934550D01*
X7917953Y-10934550D02*
X7889382Y-10934550D01*
X7889382Y-10934550D02*
X7870334Y-10944074D01*
X7870334Y-10944074D02*
X7860810Y-10953598D01*
X8070334Y-11067884D02*
X8051287Y-11058360D01*
X8051287Y-11058360D02*
X8041763Y-11048836D01*
X8041763Y-11048836D02*
X8032239Y-11029788D01*
X8032239Y-11029788D02*
X8032239Y-10972646D01*
X8032239Y-10972646D02*
X8041763Y-10953598D01*
X8041763Y-10953598D02*
X8051287Y-10944074D01*
X8051287Y-10944074D02*
X8070334Y-10934550D01*
X8070334Y-10934550D02*
X8098906Y-10934550D01*
X8098906Y-10934550D02*
X8117953Y-10944074D01*
X8117953Y-10944074D02*
X8127477Y-10953598D01*
X8127477Y-10953598D02*
X8137001Y-10972646D01*
X8137001Y-10972646D02*
X8137001Y-11029788D01*
X8137001Y-11029788D02*
X8127477Y-11048836D01*
X8127477Y-11048836D02*
X8117953Y-11058360D01*
X8117953Y-11058360D02*
X8098906Y-11067884D01*
X8098906Y-11067884D02*
X8070334Y-11067884D01*
X8251287Y-11067884D02*
X8232239Y-11058360D01*
X8232239Y-11058360D02*
X8222715Y-11039312D01*
X8222715Y-11039312D02*
X8222715Y-10867884D01*
X8403668Y-11058360D02*
X8384620Y-11067884D01*
X8384620Y-11067884D02*
X8346525Y-11067884D01*
X8346525Y-11067884D02*
X8327477Y-11058360D01*
X8327477Y-11058360D02*
X8317953Y-11039312D01*
X8317953Y-11039312D02*
X8317953Y-10963122D01*
X8317953Y-10963122D02*
X8327477Y-10944074D01*
X8327477Y-10944074D02*
X8346525Y-10934550D01*
X8346525Y-10934550D02*
X8384620Y-10934550D01*
X8384620Y-10934550D02*
X8403668Y-10944074D01*
X8403668Y-10944074D02*
X8413192Y-10963122D01*
X8413192Y-10963122D02*
X8413192Y-10982169D01*
X8413192Y-10982169D02*
X8317953Y-11001217D01*
X8489382Y-11058360D02*
X8508430Y-11067884D01*
X8508430Y-11067884D02*
X8546525Y-11067884D01*
X8546525Y-11067884D02*
X8565573Y-11058360D01*
X8565573Y-11058360D02*
X8575096Y-11039312D01*
X8575096Y-11039312D02*
X8575096Y-11029788D01*
X8575096Y-11029788D02*
X8565573Y-11010741D01*
X8565573Y-11010741D02*
X8546525Y-11001217D01*
X8546525Y-11001217D02*
X8517953Y-11001217D01*
X8517953Y-11001217D02*
X8498906Y-10991693D01*
X8498906Y-10991693D02*
X8489382Y-10972646D01*
X8489382Y-10972646D02*
X8489382Y-10963122D01*
X8489382Y-10963122D02*
X8498906Y-10944074D01*
X8498906Y-10944074D02*
X8517953Y-10934550D01*
X8517953Y-10934550D02*
X8546525Y-10934550D01*
X8546525Y-10934550D02*
X8565573Y-10944074D01*
X8641763Y-11144074D02*
X8651287Y-11134550D01*
X8651287Y-11134550D02*
X8670334Y-11105979D01*
X8670334Y-11105979D02*
X8679858Y-11086931D01*
X8679858Y-11086931D02*
X8689382Y-11058360D01*
X8689382Y-11058360D02*
X8698906Y-11010741D01*
X8698906Y-11010741D02*
X8698906Y-10972646D01*
X8698906Y-10972646D02*
X8689382Y-10925027D01*
X8689382Y-10925027D02*
X8679858Y-10896455D01*
X8679858Y-10896455D02*
X8670334Y-10877408D01*
X8670334Y-10877408D02*
X8651287Y-10848836D01*
X8651287Y-10848836D02*
X8641763Y-10839312D01*
D12*
X3840340Y-11304040D02*
X3840340Y-11176760D01*
X3713060Y-11176760D01*
X3713060Y-11304040D01*
X3840340Y-11304040D01*
D10*
X4232239Y-11331884D02*
X4117953Y-11331884D01*
X4175096Y-11331884D02*
X4175096Y-11131884D01*
X4175096Y-11131884D02*
X4156048Y-11160455D01*
X4156048Y-11160455D02*
X4137001Y-11179503D01*
X4137001Y-11179503D02*
X4117953Y-11189026D01*
X4317953Y-11312836D02*
X4327477Y-11322360D01*
X4327477Y-11322360D02*
X4317953Y-11331884D01*
X4317953Y-11331884D02*
X4308429Y-11322360D01*
X4308429Y-11322360D02*
X4317953Y-11312836D01*
X4317953Y-11312836D02*
X4317953Y-11331884D01*
X4441763Y-11217598D02*
X4422715Y-11208074D01*
X4422715Y-11208074D02*
X4413191Y-11198550D01*
X4413191Y-11198550D02*
X4403667Y-11179503D01*
X4403667Y-11179503D02*
X4403667Y-11169979D01*
X4403667Y-11169979D02*
X4413191Y-11150931D01*
X4413191Y-11150931D02*
X4422715Y-11141408D01*
X4422715Y-11141408D02*
X4441763Y-11131884D01*
X4441763Y-11131884D02*
X4479858Y-11131884D01*
X4479858Y-11131884D02*
X4498905Y-11141408D01*
X4498905Y-11141408D02*
X4508429Y-11150931D01*
X4508429Y-11150931D02*
X4517953Y-11169979D01*
X4517953Y-11169979D02*
X4517953Y-11179503D01*
X4517953Y-11179503D02*
X4508429Y-11198550D01*
X4508429Y-11198550D02*
X4498905Y-11208074D01*
X4498905Y-11208074D02*
X4479858Y-11217598D01*
X4479858Y-11217598D02*
X4441763Y-11217598D01*
X4441763Y-11217598D02*
X4422715Y-11227122D01*
X4422715Y-11227122D02*
X4413191Y-11236646D01*
X4413191Y-11236646D02*
X4403667Y-11255693D01*
X4403667Y-11255693D02*
X4403667Y-11293788D01*
X4403667Y-11293788D02*
X4413191Y-11312836D01*
X4413191Y-11312836D02*
X4422715Y-11322360D01*
X4422715Y-11322360D02*
X4441763Y-11331884D01*
X4441763Y-11331884D02*
X4479858Y-11331884D01*
X4479858Y-11331884D02*
X4498905Y-11322360D01*
X4498905Y-11322360D02*
X4508429Y-11312836D01*
X4508429Y-11312836D02*
X4517953Y-11293788D01*
X4517953Y-11293788D02*
X4517953Y-11255693D01*
X4517953Y-11255693D02*
X4508429Y-11236646D01*
X4508429Y-11236646D02*
X4498905Y-11227122D01*
X4498905Y-11227122D02*
X4479858Y-11217598D01*
X4641763Y-11131884D02*
X4660810Y-11131884D01*
X4660810Y-11131884D02*
X4679858Y-11141408D01*
X4679858Y-11141408D02*
X4689382Y-11150931D01*
X4689382Y-11150931D02*
X4698905Y-11169979D01*
X4698905Y-11169979D02*
X4708429Y-11208074D01*
X4708429Y-11208074D02*
X4708429Y-11255693D01*
X4708429Y-11255693D02*
X4698905Y-11293788D01*
X4698905Y-11293788D02*
X4689382Y-11312836D01*
X4689382Y-11312836D02*
X4679858Y-11322360D01*
X4679858Y-11322360D02*
X4660810Y-11331884D01*
X4660810Y-11331884D02*
X4641763Y-11331884D01*
X4641763Y-11331884D02*
X4622715Y-11322360D01*
X4622715Y-11322360D02*
X4613191Y-11312836D01*
X4613191Y-11312836D02*
X4603667Y-11293788D01*
X4603667Y-11293788D02*
X4594144Y-11255693D01*
X4594144Y-11255693D02*
X4594144Y-11208074D01*
X4594144Y-11208074D02*
X4603667Y-11169979D01*
X4603667Y-11169979D02*
X4613191Y-11150931D01*
X4613191Y-11150931D02*
X4622715Y-11141408D01*
X4622715Y-11141408D02*
X4641763Y-11131884D01*
X4832239Y-11131884D02*
X4851286Y-11131884D01*
X4851286Y-11131884D02*
X4870334Y-11141408D01*
X4870334Y-11141408D02*
X4879858Y-11150931D01*
X4879858Y-11150931D02*
X4889382Y-11169979D01*
X4889382Y-11169979D02*
X4898905Y-11208074D01*
X4898905Y-11208074D02*
X4898905Y-11255693D01*
X4898905Y-11255693D02*
X4889382Y-11293788D01*
X4889382Y-11293788D02*
X4879858Y-11312836D01*
X4879858Y-11312836D02*
X4870334Y-11322360D01*
X4870334Y-11322360D02*
X4851286Y-11331884D01*
X4851286Y-11331884D02*
X4832239Y-11331884D01*
X4832239Y-11331884D02*
X4813191Y-11322360D01*
X4813191Y-11322360D02*
X4803667Y-11312836D01*
X4803667Y-11312836D02*
X4794144Y-11293788D01*
X4794144Y-11293788D02*
X4784620Y-11255693D01*
X4784620Y-11255693D02*
X4784620Y-11208074D01*
X4784620Y-11208074D02*
X4794144Y-11169979D01*
X4794144Y-11169979D02*
X4803667Y-11150931D01*
X4803667Y-11150931D02*
X4813191Y-11141408D01*
X4813191Y-11141408D02*
X4832239Y-11131884D01*
X4984620Y-11331884D02*
X4984620Y-11198550D01*
X4984620Y-11217598D02*
X4994144Y-11208074D01*
X4994144Y-11208074D02*
X5013191Y-11198550D01*
X5013191Y-11198550D02*
X5041763Y-11198550D01*
X5041763Y-11198550D02*
X5060810Y-11208074D01*
X5060810Y-11208074D02*
X5070334Y-11227122D01*
X5070334Y-11227122D02*
X5070334Y-11331884D01*
X5070334Y-11227122D02*
X5079858Y-11208074D01*
X5079858Y-11208074D02*
X5098905Y-11198550D01*
X5098905Y-11198550D02*
X5127477Y-11198550D01*
X5127477Y-11198550D02*
X5146525Y-11208074D01*
X5146525Y-11208074D02*
X5156048Y-11227122D01*
X5156048Y-11227122D02*
X5156048Y-11331884D01*
X5251286Y-11331884D02*
X5251286Y-11198550D01*
X5251286Y-11217598D02*
X5260810Y-11208074D01*
X5260810Y-11208074D02*
X5279858Y-11198550D01*
X5279858Y-11198550D02*
X5308429Y-11198550D01*
X5308429Y-11198550D02*
X5327477Y-11208074D01*
X5327477Y-11208074D02*
X5337001Y-11227122D01*
X5337001Y-11227122D02*
X5337001Y-11331884D01*
X5337001Y-11227122D02*
X5346525Y-11208074D01*
X5346525Y-11208074D02*
X5365572Y-11198550D01*
X5365572Y-11198550D02*
X5394144Y-11198550D01*
X5394144Y-11198550D02*
X5413191Y-11208074D01*
X5413191Y-11208074D02*
X5422715Y-11227122D01*
X5422715Y-11227122D02*
X5422715Y-11331884D01*
X5813191Y-11122360D02*
X5641763Y-11379503D01*
X6070334Y-11131884D02*
X6089382Y-11131884D01*
X6089382Y-11131884D02*
X6108429Y-11141408D01*
X6108429Y-11141408D02*
X6117953Y-11150931D01*
X6117953Y-11150931D02*
X6127477Y-11169979D01*
X6127477Y-11169979D02*
X6137001Y-11208074D01*
X6137001Y-11208074D02*
X6137001Y-11255693D01*
X6137001Y-11255693D02*
X6127477Y-11293788D01*
X6127477Y-11293788D02*
X6117953Y-11312836D01*
X6117953Y-11312836D02*
X6108429Y-11322360D01*
X6108429Y-11322360D02*
X6089382Y-11331884D01*
X6089382Y-11331884D02*
X6070334Y-11331884D01*
X6070334Y-11331884D02*
X6051286Y-11322360D01*
X6051286Y-11322360D02*
X6041763Y-11312836D01*
X6041763Y-11312836D02*
X6032239Y-11293788D01*
X6032239Y-11293788D02*
X6022715Y-11255693D01*
X6022715Y-11255693D02*
X6022715Y-11208074D01*
X6022715Y-11208074D02*
X6032239Y-11169979D01*
X6032239Y-11169979D02*
X6041763Y-11150931D01*
X6041763Y-11150931D02*
X6051286Y-11141408D01*
X6051286Y-11141408D02*
X6070334Y-11131884D01*
X6222715Y-11312836D02*
X6232239Y-11322360D01*
X6232239Y-11322360D02*
X6222715Y-11331884D01*
X6222715Y-11331884D02*
X6213191Y-11322360D01*
X6213191Y-11322360D02*
X6222715Y-11312836D01*
X6222715Y-11312836D02*
X6222715Y-11331884D01*
X6356048Y-11131884D02*
X6375096Y-11131884D01*
X6375096Y-11131884D02*
X6394144Y-11141408D01*
X6394144Y-11141408D02*
X6403667Y-11150931D01*
X6403667Y-11150931D02*
X6413191Y-11169979D01*
X6413191Y-11169979D02*
X6422715Y-11208074D01*
X6422715Y-11208074D02*
X6422715Y-11255693D01*
X6422715Y-11255693D02*
X6413191Y-11293788D01*
X6413191Y-11293788D02*
X6403667Y-11312836D01*
X6403667Y-11312836D02*
X6394144Y-11322360D01*
X6394144Y-11322360D02*
X6375096Y-11331884D01*
X6375096Y-11331884D02*
X6356048Y-11331884D01*
X6356048Y-11331884D02*
X6337001Y-11322360D01*
X6337001Y-11322360D02*
X6327477Y-11312836D01*
X6327477Y-11312836D02*
X6317953Y-11293788D01*
X6317953Y-11293788D02*
X6308429Y-11255693D01*
X6308429Y-11255693D02*
X6308429Y-11208074D01*
X6308429Y-11208074D02*
X6317953Y-11169979D01*
X6317953Y-11169979D02*
X6327477Y-11150931D01*
X6327477Y-11150931D02*
X6337001Y-11141408D01*
X6337001Y-11141408D02*
X6356048Y-11131884D01*
X6489382Y-11131884D02*
X6622715Y-11131884D01*
X6622715Y-11131884D02*
X6537001Y-11331884D01*
X6737001Y-11131884D02*
X6756048Y-11131884D01*
X6756048Y-11131884D02*
X6775096Y-11141408D01*
X6775096Y-11141408D02*
X6784620Y-11150931D01*
X6784620Y-11150931D02*
X6794144Y-11169979D01*
X6794144Y-11169979D02*
X6803667Y-11208074D01*
X6803667Y-11208074D02*
X6803667Y-11255693D01*
X6803667Y-11255693D02*
X6794144Y-11293788D01*
X6794144Y-11293788D02*
X6784620Y-11312836D01*
X6784620Y-11312836D02*
X6775096Y-11322360D01*
X6775096Y-11322360D02*
X6756048Y-11331884D01*
X6756048Y-11331884D02*
X6737001Y-11331884D01*
X6737001Y-11331884D02*
X6717953Y-11322360D01*
X6717953Y-11322360D02*
X6708429Y-11312836D01*
X6708429Y-11312836D02*
X6698906Y-11293788D01*
X6698906Y-11293788D02*
X6689382Y-11255693D01*
X6689382Y-11255693D02*
X6689382Y-11208074D01*
X6689382Y-11208074D02*
X6698906Y-11169979D01*
X6698906Y-11169979D02*
X6708429Y-11150931D01*
X6708429Y-11150931D02*
X6717953Y-11141408D01*
X6717953Y-11141408D02*
X6737001Y-11131884D01*
X6898906Y-11331884D02*
X6937001Y-11331884D01*
X6937001Y-11331884D02*
X6956048Y-11322360D01*
X6956048Y-11322360D02*
X6965572Y-11312836D01*
X6965572Y-11312836D02*
X6984620Y-11284265D01*
X6984620Y-11284265D02*
X6994144Y-11246169D01*
X6994144Y-11246169D02*
X6994144Y-11169979D01*
X6994144Y-11169979D02*
X6984620Y-11150931D01*
X6984620Y-11150931D02*
X6975096Y-11141408D01*
X6975096Y-11141408D02*
X6956048Y-11131884D01*
X6956048Y-11131884D02*
X6917953Y-11131884D01*
X6917953Y-11131884D02*
X6898906Y-11141408D01*
X6898906Y-11141408D02*
X6889382Y-11150931D01*
X6889382Y-11150931D02*
X6879858Y-11169979D01*
X6879858Y-11169979D02*
X6879858Y-11217598D01*
X6879858Y-11217598D02*
X6889382Y-11236646D01*
X6889382Y-11236646D02*
X6898906Y-11246169D01*
X6898906Y-11246169D02*
X6917953Y-11255693D01*
X6917953Y-11255693D02*
X6956048Y-11255693D01*
X6956048Y-11255693D02*
X6975096Y-11246169D01*
X6975096Y-11246169D02*
X6984620Y-11236646D01*
X6984620Y-11236646D02*
X6994144Y-11217598D01*
X7070334Y-11131884D02*
X7070334Y-11169979D01*
X7146525Y-11131884D02*
X7146525Y-11169979D01*
X7441763Y-11408074D02*
X7432239Y-11398550D01*
X7432239Y-11398550D02*
X7413191Y-11369979D01*
X7413191Y-11369979D02*
X7403668Y-11350931D01*
X7403668Y-11350931D02*
X7394144Y-11322360D01*
X7394144Y-11322360D02*
X7384620Y-11274741D01*
X7384620Y-11274741D02*
X7384620Y-11236646D01*
X7384620Y-11236646D02*
X7394144Y-11189026D01*
X7394144Y-11189026D02*
X7403668Y-11160455D01*
X7403668Y-11160455D02*
X7413191Y-11141408D01*
X7413191Y-11141408D02*
X7432239Y-11112836D01*
X7432239Y-11112836D02*
X7441763Y-11103312D01*
X7603668Y-11131884D02*
X7565572Y-11131884D01*
X7565572Y-11131884D02*
X7546525Y-11141408D01*
X7546525Y-11141408D02*
X7537001Y-11150931D01*
X7537001Y-11150931D02*
X7517953Y-11179503D01*
X7517953Y-11179503D02*
X7508429Y-11217598D01*
X7508429Y-11217598D02*
X7508429Y-11293788D01*
X7508429Y-11293788D02*
X7517953Y-11312836D01*
X7517953Y-11312836D02*
X7527477Y-11322360D01*
X7527477Y-11322360D02*
X7546525Y-11331884D01*
X7546525Y-11331884D02*
X7584620Y-11331884D01*
X7584620Y-11331884D02*
X7603668Y-11322360D01*
X7603668Y-11322360D02*
X7613191Y-11312836D01*
X7613191Y-11312836D02*
X7622715Y-11293788D01*
X7622715Y-11293788D02*
X7622715Y-11246169D01*
X7622715Y-11246169D02*
X7613191Y-11227122D01*
X7613191Y-11227122D02*
X7603668Y-11217598D01*
X7603668Y-11217598D02*
X7584620Y-11208074D01*
X7584620Y-11208074D02*
X7546525Y-11208074D01*
X7546525Y-11208074D02*
X7527477Y-11217598D01*
X7527477Y-11217598D02*
X7517953Y-11227122D01*
X7517953Y-11227122D02*
X7508429Y-11246169D01*
X7860810Y-11331884D02*
X7860810Y-11131884D01*
X7946525Y-11331884D02*
X7946525Y-11227122D01*
X7946525Y-11227122D02*
X7937001Y-11208074D01*
X7937001Y-11208074D02*
X7917953Y-11198550D01*
X7917953Y-11198550D02*
X7889382Y-11198550D01*
X7889382Y-11198550D02*
X7870334Y-11208074D01*
X7870334Y-11208074D02*
X7860810Y-11217598D01*
X8070334Y-11331884D02*
X8051287Y-11322360D01*
X8051287Y-11322360D02*
X8041763Y-11312836D01*
X8041763Y-11312836D02*
X8032239Y-11293788D01*
X8032239Y-11293788D02*
X8032239Y-11236646D01*
X8032239Y-11236646D02*
X8041763Y-11217598D01*
X8041763Y-11217598D02*
X8051287Y-11208074D01*
X8051287Y-11208074D02*
X8070334Y-11198550D01*
X8070334Y-11198550D02*
X8098906Y-11198550D01*
X8098906Y-11198550D02*
X8117953Y-11208074D01*
X8117953Y-11208074D02*
X8127477Y-11217598D01*
X8127477Y-11217598D02*
X8137001Y-11236646D01*
X8137001Y-11236646D02*
X8137001Y-11293788D01*
X8137001Y-11293788D02*
X8127477Y-11312836D01*
X8127477Y-11312836D02*
X8117953Y-11322360D01*
X8117953Y-11322360D02*
X8098906Y-11331884D01*
X8098906Y-11331884D02*
X8070334Y-11331884D01*
X8251287Y-11331884D02*
X8232239Y-11322360D01*
X8232239Y-11322360D02*
X8222715Y-11303312D01*
X8222715Y-11303312D02*
X8222715Y-11131884D01*
X8403668Y-11322360D02*
X8384620Y-11331884D01*
X8384620Y-11331884D02*
X8346525Y-11331884D01*
X8346525Y-11331884D02*
X8327477Y-11322360D01*
X8327477Y-11322360D02*
X8317953Y-11303312D01*
X8317953Y-11303312D02*
X8317953Y-11227122D01*
X8317953Y-11227122D02*
X8327477Y-11208074D01*
X8327477Y-11208074D02*
X8346525Y-11198550D01*
X8346525Y-11198550D02*
X8384620Y-11198550D01*
X8384620Y-11198550D02*
X8403668Y-11208074D01*
X8403668Y-11208074D02*
X8413192Y-11227122D01*
X8413192Y-11227122D02*
X8413192Y-11246169D01*
X8413192Y-11246169D02*
X8317953Y-11265217D01*
X8489382Y-11322360D02*
X8508430Y-11331884D01*
X8508430Y-11331884D02*
X8546525Y-11331884D01*
X8546525Y-11331884D02*
X8565573Y-11322360D01*
X8565573Y-11322360D02*
X8575096Y-11303312D01*
X8575096Y-11303312D02*
X8575096Y-11293788D01*
X8575096Y-11293788D02*
X8565573Y-11274741D01*
X8565573Y-11274741D02*
X8546525Y-11265217D01*
X8546525Y-11265217D02*
X8517953Y-11265217D01*
X8517953Y-11265217D02*
X8498906Y-11255693D01*
X8498906Y-11255693D02*
X8489382Y-11236646D01*
X8489382Y-11236646D02*
X8489382Y-11227122D01*
X8489382Y-11227122D02*
X8498906Y-11208074D01*
X8498906Y-11208074D02*
X8517953Y-11198550D01*
X8517953Y-11198550D02*
X8546525Y-11198550D01*
X8546525Y-11198550D02*
X8565573Y-11208074D01*
X8641763Y-11408074D02*
X8651287Y-11398550D01*
X8651287Y-11398550D02*
X8670334Y-11369979D01*
X8670334Y-11369979D02*
X8679858Y-11350931D01*
X8679858Y-11350931D02*
X8689382Y-11322360D01*
X8689382Y-11322360D02*
X8698906Y-11274741D01*
X8698906Y-11274741D02*
X8698906Y-11236646D01*
X8698906Y-11236646D02*
X8689382Y-11189026D01*
X8689382Y-11189026D02*
X8679858Y-11160455D01*
X8679858Y-11160455D02*
X8670334Y-11141408D01*
X8670334Y-11141408D02*
X8651287Y-11112836D01*
X8651287Y-11112836D02*
X8641763Y-11103312D01*
M02*
