%TF.GenerationSoftware,KiCad,Pcbnew,9.0.7*%
%TF.CreationDate,2026-02-15T21:55:58-05:00*%
%TF.ProjectId,Photon,50686f74-6f6e-42e6-9b69-6361645f7063,1.4*%
%TF.SameCoordinates,Original*%
%TF.FileFunction,Drillmap*%
%TF.FilePolarity,Positive*%
%FSLAX45Y45*%
G04 Gerber Fmt 4.5, Leading zero omitted, Abs format (unit mm)*
G04 Created by KiCad (PCBNEW 9.0.7) date 2026-02-15 21:55:58*
%MOMM*%
%LPD*%
G01*
G04 APERTURE LIST*
%ADD10C,0.200000*%
%ADD11C,0.100000*%
%ADD12C,0.180000*%
G04 APERTURE END LIST*
D10*
X8666700Y-9920900D02*
X8666700Y-3078700D01*
X10490700Y-2778700D02*
G75*
G02*
X10790700Y-3078700I0J-300000D01*
G01*
X10790700Y-9920900D02*
G75*
G02*
X10490700Y-10220900I-300000J0D01*
G01*
X8966700Y-2778700D02*
X10490700Y-2778700D01*
X8966700Y-10220900D02*
G75*
G02*
X8666700Y-9920900I0J300000D01*
G01*
X10790700Y-3078700D02*
X10790700Y-9920900D01*
X8666700Y-3078700D02*
G75*
G02*
X8966700Y-2778700I300000J0D01*
G01*
X10490700Y-10220900D02*
X8966700Y-10220900D01*
D11*
X8773900Y-3855900D02*
X8803900Y-3885900D01*
X8803900Y-3855900D02*
X8773900Y-3885900D01*
X8773900Y-4008300D02*
X8803900Y-4038300D01*
X8803900Y-4008300D02*
X8773900Y-4038300D01*
X8799300Y-3043100D02*
X8829300Y-3073100D01*
X8829300Y-3043100D02*
X8799300Y-3073100D01*
X8799300Y-3195500D02*
X8829300Y-3225500D01*
X8829300Y-3195500D02*
X8799300Y-3225500D01*
X8824700Y-5964100D02*
X8854700Y-5994100D01*
X8854700Y-5964100D02*
X8824700Y-5994100D01*
X8925000Y-7805000D02*
X8955000Y-7835000D01*
X8955000Y-7805000D02*
X8925000Y-7835000D01*
X9014100Y-8237400D02*
X9044100Y-8267400D01*
X9044100Y-8237400D02*
X9014100Y-8267400D01*
X9027760Y-5963960D02*
X9057760Y-5993960D01*
X9057760Y-5963960D02*
X9027760Y-5993960D01*
X9035000Y-4715000D02*
X9065000Y-4745000D01*
X9065000Y-4715000D02*
X9035000Y-4745000D01*
X9143300Y-6116500D02*
X9173300Y-6146500D01*
X9173300Y-6116500D02*
X9143300Y-6146500D01*
X9154900Y-7386500D02*
X9184900Y-7416500D01*
X9184900Y-7386500D02*
X9154900Y-7416500D01*
X9155000Y-7225000D02*
X9185000Y-7255000D01*
X9185000Y-7225000D02*
X9155000Y-7255000D01*
X9155000Y-7785000D02*
X9185000Y-7815000D01*
X9185000Y-7785000D02*
X9155000Y-7815000D01*
X9194412Y-8237400D02*
X9224412Y-8267400D01*
X9224412Y-8237400D02*
X9194412Y-8267400D01*
X9195000Y-6245000D02*
X9225000Y-6275000D01*
X9225000Y-6245000D02*
X9195000Y-6275000D01*
X9195000Y-7055000D02*
X9225000Y-7085000D01*
X9225000Y-7055000D02*
X9195000Y-7085000D01*
X9219750Y-8656500D02*
X9249750Y-8686500D01*
X9249750Y-8656500D02*
X9219750Y-8686500D01*
X9225000Y-5355000D02*
X9255000Y-5385000D01*
X9255000Y-5355000D02*
X9225000Y-5385000D01*
X9231100Y-4109900D02*
X9261100Y-4139900D01*
X9261100Y-4109900D02*
X9231100Y-4139900D01*
X9235000Y-7525000D02*
X9265000Y-7555000D01*
X9265000Y-7525000D02*
X9235000Y-7555000D01*
X9332700Y-5659021D02*
X9362700Y-5689021D01*
X9362700Y-5659021D02*
X9332700Y-5689021D01*
X9375000Y-6265000D02*
X9405000Y-6295000D01*
X9405000Y-6265000D02*
X9375000Y-6295000D01*
X9375000Y-7695000D02*
X9405000Y-7725000D01*
X9405000Y-7695000D02*
X9375000Y-7725000D01*
X9384262Y-5928262D02*
X9414262Y-5958262D01*
X9414262Y-5928262D02*
X9384262Y-5958262D01*
X9443380Y-3184300D02*
X9473380Y-3214300D01*
X9473380Y-3184300D02*
X9443380Y-3214300D01*
X9510500Y-5760900D02*
X9540500Y-5790900D01*
X9540500Y-5760900D02*
X9510500Y-5790900D01*
X9535000Y-5915000D02*
X9565000Y-5945000D01*
X9565000Y-5915000D02*
X9535000Y-5945000D01*
X9555000Y-6945962D02*
X9585000Y-6975962D01*
X9585000Y-6945962D02*
X9555000Y-6975962D01*
X9561300Y-3184300D02*
X9591300Y-3214300D01*
X9591300Y-3184300D02*
X9561300Y-3214300D01*
X9565000Y-7445000D02*
X9595000Y-7475000D01*
X9595000Y-7445000D02*
X9565000Y-7475000D01*
X9565000Y-7585000D02*
X9595000Y-7615000D01*
X9595000Y-7585000D02*
X9565000Y-7615000D01*
X9586700Y-6319700D02*
X9616700Y-6349700D01*
X9616700Y-6319700D02*
X9586700Y-6349700D01*
X9635000Y-7275000D02*
X9665000Y-7305000D01*
X9665000Y-7275000D02*
X9635000Y-7305000D01*
X9688300Y-8504100D02*
X9718300Y-8534100D01*
X9718300Y-8504100D02*
X9688300Y-8534100D01*
X9705000Y-7145000D02*
X9735000Y-7175000D01*
X9735000Y-7145000D02*
X9705000Y-7175000D01*
X9705000Y-10055000D02*
X9735000Y-10085000D01*
X9735000Y-10055000D02*
X9705000Y-10085000D01*
X9715000Y-5913215D02*
X9745000Y-5943215D01*
X9745000Y-5913215D02*
X9715000Y-5943215D01*
X9715000Y-7515000D02*
X9745000Y-7545000D01*
X9745000Y-7515000D02*
X9715000Y-7545000D01*
X9718380Y-4023140D02*
X9748380Y-4053140D01*
X9748380Y-4023140D02*
X9718380Y-4053140D01*
X9718380Y-8961300D02*
X9748380Y-8991300D01*
X9748380Y-8961300D02*
X9718380Y-8991300D01*
X9718380Y-9313100D02*
X9748380Y-9343100D01*
X9748380Y-9313100D02*
X9718380Y-9343100D01*
X9718380Y-9473100D02*
X9748380Y-9503100D01*
X9748380Y-9473100D02*
X9718380Y-9503100D01*
X9725000Y-6875000D02*
X9755000Y-6905000D01*
X9755000Y-6875000D02*
X9725000Y-6905000D01*
X9725000Y-6995000D02*
X9755000Y-7025000D01*
X9755000Y-6995000D02*
X9725000Y-7025000D01*
X9815300Y-5760900D02*
X9845300Y-5790900D01*
X9845300Y-5760900D02*
X9815300Y-5790900D01*
X9815300Y-6522900D02*
X9845300Y-6552900D01*
X9845300Y-6522900D02*
X9815300Y-6552900D01*
X9815300Y-6624500D02*
X9845300Y-6654500D01*
X9845300Y-6624500D02*
X9815300Y-6654500D01*
X9845000Y-7137500D02*
X9875000Y-7167500D01*
X9875000Y-7137500D02*
X9845000Y-7167500D01*
X9870380Y-3184300D02*
X9900380Y-3214300D01*
X9900380Y-3184300D02*
X9870380Y-3214300D01*
X9945000Y-7515000D02*
X9975000Y-7545000D01*
X9975000Y-7515000D02*
X9945000Y-7545000D01*
X9967700Y-6345100D02*
X9997700Y-6375100D01*
X9997700Y-6345100D02*
X9967700Y-6375100D01*
X9993100Y-3184300D02*
X10023100Y-3214300D01*
X10023100Y-3184300D02*
X9993100Y-3214300D01*
X10045880Y-3647640D02*
X10075880Y-3677640D01*
X10075880Y-3647640D02*
X10045880Y-3677640D01*
X10069300Y-8732700D02*
X10099300Y-8762700D01*
X10099300Y-8732700D02*
X10069300Y-8762700D01*
X10106850Y-9300380D02*
X10136850Y-9330380D01*
X10136850Y-9300380D02*
X10106850Y-9330380D01*
X10130260Y-3881300D02*
X10160260Y-3911300D01*
X10160260Y-3881300D02*
X10130260Y-3911300D01*
X10130260Y-4186100D02*
X10160260Y-4216100D01*
X10160260Y-4186100D02*
X10130260Y-4216100D01*
X10196300Y-6726100D02*
X10226300Y-6756100D01*
X10226300Y-6726100D02*
X10196300Y-6756100D01*
X10196300Y-8123100D02*
X10226300Y-8153100D01*
X10226300Y-8123100D02*
X10196300Y-8153100D01*
X10308435Y-3858766D02*
X10338435Y-3888766D01*
X10338435Y-3858766D02*
X10308435Y-3888766D01*
X10399500Y-8986700D02*
X10429500Y-9016700D01*
X10429500Y-8986700D02*
X10399500Y-9016700D01*
X10447434Y-3858766D02*
X10477434Y-3888766D01*
X10477434Y-3858766D02*
X10447434Y-3888766D01*
X10475700Y-8123100D02*
X10505700Y-8153100D01*
X10505700Y-8123100D02*
X10475700Y-8153100D01*
X10501100Y-4186100D02*
X10531100Y-4216100D01*
X10531100Y-4186100D02*
X10501100Y-4216100D01*
X10678900Y-5100500D02*
X10708900Y-5130500D01*
X10708900Y-5100500D02*
X10678900Y-5130500D01*
X10678900Y-7965000D02*
X10708900Y-7995000D01*
X10708900Y-7965000D02*
X10678900Y-7995000D01*
X10678900Y-8732700D02*
X10708900Y-8762700D01*
X10708900Y-8732700D02*
X10678900Y-8762700D01*
X9326380Y-2927300D02*
G75*
G02*
X9276380Y-2927300I-25000J0D01*
G01*
X9276380Y-2927300D02*
G75*
G02*
X9326380Y-2927300I25000J0D01*
G01*
X9326380Y-2962300D02*
X9326380Y-2892300D01*
X9276380Y-2892300D02*
G75*
G02*
X9326380Y-2892300I25000J0D01*
G01*
X9276380Y-2892300D02*
X9276380Y-2962300D01*
X9276380Y-2962300D02*
G75*
G03*
X9326380Y-2962300I25000J0D01*
G01*
X9326380Y-3307300D02*
G75*
G02*
X9276380Y-3307300I-25000J0D01*
G01*
X9276380Y-3307300D02*
G75*
G02*
X9326380Y-3307300I25000J0D01*
G01*
X9326380Y-3342300D02*
X9326380Y-3272300D01*
X9276380Y-3272300D02*
G75*
G02*
X9326380Y-3272300I25000J0D01*
G01*
X9276380Y-3272300D02*
X9276380Y-3342300D01*
X9276380Y-3342300D02*
G75*
G03*
X9326380Y-3342300I25000J0D01*
G01*
X10190380Y-2927300D02*
G75*
G02*
X10140380Y-2927300I-25000J0D01*
G01*
X10140380Y-2927300D02*
G75*
G02*
X10190380Y-2927300I25000J0D01*
G01*
X10190380Y-2962300D02*
X10190380Y-2892300D01*
X10140380Y-2892300D02*
G75*
G02*
X10190380Y-2892300I25000J0D01*
G01*
X10140380Y-2892300D02*
X10140380Y-2962300D01*
X10140380Y-2962300D02*
G75*
G03*
X10190380Y-2962300I25000J0D01*
G01*
X10190380Y-3307300D02*
G75*
G02*
X10140380Y-3307300I-25000J0D01*
G01*
X10140380Y-3307300D02*
G75*
G02*
X10190380Y-3307300I25000J0D01*
G01*
X10190380Y-3342300D02*
X10190380Y-3272300D01*
X10140380Y-3272300D02*
G75*
G02*
X10190380Y-3272300I25000J0D01*
G01*
X10140380Y-3272300D02*
X10140380Y-3342300D01*
X10140380Y-3342300D02*
G75*
G03*
X10190380Y-3342300I25000J0D01*
G01*
X8870500Y-6589500D02*
X8870500Y-6689500D01*
X8820500Y-6639500D02*
X8920500Y-6639500D01*
X8870500Y-7097500D02*
X8870500Y-7197500D01*
X8820500Y-7147500D02*
X8920500Y-7147500D01*
X8870500Y-7605500D02*
X8870500Y-7705500D01*
X8820500Y-7655500D02*
X8920500Y-7655500D01*
X8910500Y-6843500D02*
X8910500Y-6943500D01*
X8860500Y-6893500D02*
X8960500Y-6893500D01*
X8910500Y-7351500D02*
X8910500Y-7451500D01*
X8860500Y-7401500D02*
X8960500Y-7401500D01*
D12*
X9547020Y-4517140D02*
X9547020Y-4389860D01*
X9419740Y-4389860D01*
X9419740Y-4517140D01*
X9547020Y-4517140D01*
X9547020Y-9117140D02*
X9547020Y-8989860D01*
X9419740Y-8989860D01*
X9419740Y-9117140D01*
X9547020Y-9117140D01*
X9797020Y-3757140D02*
X9797020Y-3629860D01*
X9669740Y-3629860D01*
X9669740Y-3757140D01*
X9797020Y-3757140D01*
X9797020Y-9877140D02*
X9797020Y-9749860D01*
X9669740Y-9749860D01*
X9669740Y-9877140D01*
X9797020Y-9877140D01*
X10047020Y-4517140D02*
X10047020Y-4389860D01*
X9919740Y-4389860D01*
X9919740Y-4517140D01*
X10047020Y-4517140D01*
X10047020Y-9117140D02*
X10047020Y-8989860D01*
X9919740Y-8989860D01*
X9919740Y-9117140D01*
X10047020Y-9117140D01*
D10*
X8917477Y-10542384D02*
X8917477Y-10342384D01*
X8917477Y-10342384D02*
X8965096Y-10342384D01*
X8965096Y-10342384D02*
X8993667Y-10351908D01*
X8993667Y-10351908D02*
X9012715Y-10370955D01*
X9012715Y-10370955D02*
X9022239Y-10390003D01*
X9022239Y-10390003D02*
X9031763Y-10428098D01*
X9031763Y-10428098D02*
X9031763Y-10456669D01*
X9031763Y-10456669D02*
X9022239Y-10494765D01*
X9022239Y-10494765D02*
X9012715Y-10513812D01*
X9012715Y-10513812D02*
X8993667Y-10532860D01*
X8993667Y-10532860D02*
X8965096Y-10542384D01*
X8965096Y-10542384D02*
X8917477Y-10542384D01*
X9117477Y-10542384D02*
X9117477Y-10409050D01*
X9117477Y-10447146D02*
X9127001Y-10428098D01*
X9127001Y-10428098D02*
X9136524Y-10418574D01*
X9136524Y-10418574D02*
X9155572Y-10409050D01*
X9155572Y-10409050D02*
X9174620Y-10409050D01*
X9241286Y-10542384D02*
X9241286Y-10409050D01*
X9241286Y-10342384D02*
X9231763Y-10351908D01*
X9231763Y-10351908D02*
X9241286Y-10361431D01*
X9241286Y-10361431D02*
X9250810Y-10351908D01*
X9250810Y-10351908D02*
X9241286Y-10342384D01*
X9241286Y-10342384D02*
X9241286Y-10361431D01*
X9365096Y-10542384D02*
X9346048Y-10532860D01*
X9346048Y-10532860D02*
X9336524Y-10513812D01*
X9336524Y-10513812D02*
X9336524Y-10342384D01*
X9469858Y-10542384D02*
X9450810Y-10532860D01*
X9450810Y-10532860D02*
X9441286Y-10513812D01*
X9441286Y-10513812D02*
X9441286Y-10342384D01*
X9698429Y-10542384D02*
X9698429Y-10342384D01*
X9698429Y-10342384D02*
X9765096Y-10485241D01*
X9765096Y-10485241D02*
X9831763Y-10342384D01*
X9831763Y-10342384D02*
X9831763Y-10542384D01*
X10012715Y-10542384D02*
X10012715Y-10437622D01*
X10012715Y-10437622D02*
X10003191Y-10418574D01*
X10003191Y-10418574D02*
X9984144Y-10409050D01*
X9984144Y-10409050D02*
X9946048Y-10409050D01*
X9946048Y-10409050D02*
X9927001Y-10418574D01*
X10012715Y-10532860D02*
X9993667Y-10542384D01*
X9993667Y-10542384D02*
X9946048Y-10542384D01*
X9946048Y-10542384D02*
X9927001Y-10532860D01*
X9927001Y-10532860D02*
X9917477Y-10513812D01*
X9917477Y-10513812D02*
X9917477Y-10494765D01*
X9917477Y-10494765D02*
X9927001Y-10475717D01*
X9927001Y-10475717D02*
X9946048Y-10466193D01*
X9946048Y-10466193D02*
X9993667Y-10466193D01*
X9993667Y-10466193D02*
X10012715Y-10456669D01*
X10107953Y-10409050D02*
X10107953Y-10609050D01*
X10107953Y-10418574D02*
X10127001Y-10409050D01*
X10127001Y-10409050D02*
X10165096Y-10409050D01*
X10165096Y-10409050D02*
X10184144Y-10418574D01*
X10184144Y-10418574D02*
X10193667Y-10428098D01*
X10193667Y-10428098D02*
X10203191Y-10447146D01*
X10203191Y-10447146D02*
X10203191Y-10504288D01*
X10203191Y-10504288D02*
X10193667Y-10523336D01*
X10193667Y-10523336D02*
X10184144Y-10532860D01*
X10184144Y-10532860D02*
X10165096Y-10542384D01*
X10165096Y-10542384D02*
X10127001Y-10542384D01*
X10127001Y-10542384D02*
X10107953Y-10532860D01*
X10288905Y-10523336D02*
X10298429Y-10532860D01*
X10298429Y-10532860D02*
X10288905Y-10542384D01*
X10288905Y-10542384D02*
X10279382Y-10532860D01*
X10279382Y-10532860D02*
X10288905Y-10523336D01*
X10288905Y-10523336D02*
X10288905Y-10542384D01*
X10288905Y-10418574D02*
X10298429Y-10428098D01*
X10298429Y-10428098D02*
X10288905Y-10437622D01*
X10288905Y-10437622D02*
X10279382Y-10428098D01*
X10279382Y-10428098D02*
X10288905Y-10418574D01*
X10288905Y-10418574D02*
X10288905Y-10437622D01*
D11*
X8626700Y-10855900D02*
X8656700Y-10885900D01*
X8656700Y-10855900D02*
X8626700Y-10885900D01*
D10*
X8955572Y-10762384D02*
X8974620Y-10762384D01*
X8974620Y-10762384D02*
X8993667Y-10771908D01*
X8993667Y-10771908D02*
X9003191Y-10781431D01*
X9003191Y-10781431D02*
X9012715Y-10800479D01*
X9012715Y-10800479D02*
X9022239Y-10838574D01*
X9022239Y-10838574D02*
X9022239Y-10886193D01*
X9022239Y-10886193D02*
X9012715Y-10924288D01*
X9012715Y-10924288D02*
X9003191Y-10943336D01*
X9003191Y-10943336D02*
X8993667Y-10952860D01*
X8993667Y-10952860D02*
X8974620Y-10962384D01*
X8974620Y-10962384D02*
X8955572Y-10962384D01*
X8955572Y-10962384D02*
X8936524Y-10952860D01*
X8936524Y-10952860D02*
X8927001Y-10943336D01*
X8927001Y-10943336D02*
X8917477Y-10924288D01*
X8917477Y-10924288D02*
X8907953Y-10886193D01*
X8907953Y-10886193D02*
X8907953Y-10838574D01*
X8907953Y-10838574D02*
X8917477Y-10800479D01*
X8917477Y-10800479D02*
X8927001Y-10781431D01*
X8927001Y-10781431D02*
X8936524Y-10771908D01*
X8936524Y-10771908D02*
X8955572Y-10762384D01*
X9107953Y-10943336D02*
X9117477Y-10952860D01*
X9117477Y-10952860D02*
X9107953Y-10962384D01*
X9107953Y-10962384D02*
X9098429Y-10952860D01*
X9098429Y-10952860D02*
X9107953Y-10943336D01*
X9107953Y-10943336D02*
X9107953Y-10962384D01*
X9184144Y-10762384D02*
X9307953Y-10762384D01*
X9307953Y-10762384D02*
X9241286Y-10838574D01*
X9241286Y-10838574D02*
X9269858Y-10838574D01*
X9269858Y-10838574D02*
X9288905Y-10848098D01*
X9288905Y-10848098D02*
X9298429Y-10857622D01*
X9298429Y-10857622D02*
X9307953Y-10876669D01*
X9307953Y-10876669D02*
X9307953Y-10924288D01*
X9307953Y-10924288D02*
X9298429Y-10943336D01*
X9298429Y-10943336D02*
X9288905Y-10952860D01*
X9288905Y-10952860D02*
X9269858Y-10962384D01*
X9269858Y-10962384D02*
X9212715Y-10962384D01*
X9212715Y-10962384D02*
X9193667Y-10952860D01*
X9193667Y-10952860D02*
X9184144Y-10943336D01*
X9431763Y-10762384D02*
X9450810Y-10762384D01*
X9450810Y-10762384D02*
X9469858Y-10771908D01*
X9469858Y-10771908D02*
X9479382Y-10781431D01*
X9479382Y-10781431D02*
X9488905Y-10800479D01*
X9488905Y-10800479D02*
X9498429Y-10838574D01*
X9498429Y-10838574D02*
X9498429Y-10886193D01*
X9498429Y-10886193D02*
X9488905Y-10924288D01*
X9488905Y-10924288D02*
X9479382Y-10943336D01*
X9479382Y-10943336D02*
X9469858Y-10952860D01*
X9469858Y-10952860D02*
X9450810Y-10962384D01*
X9450810Y-10962384D02*
X9431763Y-10962384D01*
X9431763Y-10962384D02*
X9412715Y-10952860D01*
X9412715Y-10952860D02*
X9403191Y-10943336D01*
X9403191Y-10943336D02*
X9393667Y-10924288D01*
X9393667Y-10924288D02*
X9384144Y-10886193D01*
X9384144Y-10886193D02*
X9384144Y-10838574D01*
X9384144Y-10838574D02*
X9393667Y-10800479D01*
X9393667Y-10800479D02*
X9403191Y-10781431D01*
X9403191Y-10781431D02*
X9412715Y-10771908D01*
X9412715Y-10771908D02*
X9431763Y-10762384D01*
X9622239Y-10762384D02*
X9641286Y-10762384D01*
X9641286Y-10762384D02*
X9660334Y-10771908D01*
X9660334Y-10771908D02*
X9669858Y-10781431D01*
X9669858Y-10781431D02*
X9679382Y-10800479D01*
X9679382Y-10800479D02*
X9688905Y-10838574D01*
X9688905Y-10838574D02*
X9688905Y-10886193D01*
X9688905Y-10886193D02*
X9679382Y-10924288D01*
X9679382Y-10924288D02*
X9669858Y-10943336D01*
X9669858Y-10943336D02*
X9660334Y-10952860D01*
X9660334Y-10952860D02*
X9641286Y-10962384D01*
X9641286Y-10962384D02*
X9622239Y-10962384D01*
X9622239Y-10962384D02*
X9603191Y-10952860D01*
X9603191Y-10952860D02*
X9593667Y-10943336D01*
X9593667Y-10943336D02*
X9584144Y-10924288D01*
X9584144Y-10924288D02*
X9574620Y-10886193D01*
X9574620Y-10886193D02*
X9574620Y-10838574D01*
X9574620Y-10838574D02*
X9584144Y-10800479D01*
X9584144Y-10800479D02*
X9593667Y-10781431D01*
X9593667Y-10781431D02*
X9603191Y-10771908D01*
X9603191Y-10771908D02*
X9622239Y-10762384D01*
X9774620Y-10962384D02*
X9774620Y-10829050D01*
X9774620Y-10848098D02*
X9784144Y-10838574D01*
X9784144Y-10838574D02*
X9803191Y-10829050D01*
X9803191Y-10829050D02*
X9831763Y-10829050D01*
X9831763Y-10829050D02*
X9850810Y-10838574D01*
X9850810Y-10838574D02*
X9860334Y-10857622D01*
X9860334Y-10857622D02*
X9860334Y-10962384D01*
X9860334Y-10857622D02*
X9869858Y-10838574D01*
X9869858Y-10838574D02*
X9888905Y-10829050D01*
X9888905Y-10829050D02*
X9917477Y-10829050D01*
X9917477Y-10829050D02*
X9936525Y-10838574D01*
X9936525Y-10838574D02*
X9946048Y-10857622D01*
X9946048Y-10857622D02*
X9946048Y-10962384D01*
X10041286Y-10962384D02*
X10041286Y-10829050D01*
X10041286Y-10848098D02*
X10050810Y-10838574D01*
X10050810Y-10838574D02*
X10069858Y-10829050D01*
X10069858Y-10829050D02*
X10098429Y-10829050D01*
X10098429Y-10829050D02*
X10117477Y-10838574D01*
X10117477Y-10838574D02*
X10127001Y-10857622D01*
X10127001Y-10857622D02*
X10127001Y-10962384D01*
X10127001Y-10857622D02*
X10136525Y-10838574D01*
X10136525Y-10838574D02*
X10155572Y-10829050D01*
X10155572Y-10829050D02*
X10184144Y-10829050D01*
X10184144Y-10829050D02*
X10203191Y-10838574D01*
X10203191Y-10838574D02*
X10212715Y-10857622D01*
X10212715Y-10857622D02*
X10212715Y-10962384D01*
X10603191Y-10752860D02*
X10431763Y-11010003D01*
X10860334Y-10762384D02*
X10879382Y-10762384D01*
X10879382Y-10762384D02*
X10898429Y-10771908D01*
X10898429Y-10771908D02*
X10907953Y-10781431D01*
X10907953Y-10781431D02*
X10917477Y-10800479D01*
X10917477Y-10800479D02*
X10927001Y-10838574D01*
X10927001Y-10838574D02*
X10927001Y-10886193D01*
X10927001Y-10886193D02*
X10917477Y-10924288D01*
X10917477Y-10924288D02*
X10907953Y-10943336D01*
X10907953Y-10943336D02*
X10898429Y-10952860D01*
X10898429Y-10952860D02*
X10879382Y-10962384D01*
X10879382Y-10962384D02*
X10860334Y-10962384D01*
X10860334Y-10962384D02*
X10841287Y-10952860D01*
X10841287Y-10952860D02*
X10831763Y-10943336D01*
X10831763Y-10943336D02*
X10822239Y-10924288D01*
X10822239Y-10924288D02*
X10812715Y-10886193D01*
X10812715Y-10886193D02*
X10812715Y-10838574D01*
X10812715Y-10838574D02*
X10822239Y-10800479D01*
X10822239Y-10800479D02*
X10831763Y-10781431D01*
X10831763Y-10781431D02*
X10841287Y-10771908D01*
X10841287Y-10771908D02*
X10860334Y-10762384D01*
X11012715Y-10943336D02*
X11022239Y-10952860D01*
X11022239Y-10952860D02*
X11012715Y-10962384D01*
X11012715Y-10962384D02*
X11003191Y-10952860D01*
X11003191Y-10952860D02*
X11012715Y-10943336D01*
X11012715Y-10943336D02*
X11012715Y-10962384D01*
X11146048Y-10762384D02*
X11165096Y-10762384D01*
X11165096Y-10762384D02*
X11184144Y-10771908D01*
X11184144Y-10771908D02*
X11193667Y-10781431D01*
X11193667Y-10781431D02*
X11203191Y-10800479D01*
X11203191Y-10800479D02*
X11212715Y-10838574D01*
X11212715Y-10838574D02*
X11212715Y-10886193D01*
X11212715Y-10886193D02*
X11203191Y-10924288D01*
X11203191Y-10924288D02*
X11193667Y-10943336D01*
X11193667Y-10943336D02*
X11184144Y-10952860D01*
X11184144Y-10952860D02*
X11165096Y-10962384D01*
X11165096Y-10962384D02*
X11146048Y-10962384D01*
X11146048Y-10962384D02*
X11127001Y-10952860D01*
X11127001Y-10952860D02*
X11117477Y-10943336D01*
X11117477Y-10943336D02*
X11107953Y-10924288D01*
X11107953Y-10924288D02*
X11098429Y-10886193D01*
X11098429Y-10886193D02*
X11098429Y-10838574D01*
X11098429Y-10838574D02*
X11107953Y-10800479D01*
X11107953Y-10800479D02*
X11117477Y-10781431D01*
X11117477Y-10781431D02*
X11127001Y-10771908D01*
X11127001Y-10771908D02*
X11146048Y-10762384D01*
X11403191Y-10962384D02*
X11288906Y-10962384D01*
X11346048Y-10962384D02*
X11346048Y-10762384D01*
X11346048Y-10762384D02*
X11327001Y-10790955D01*
X11327001Y-10790955D02*
X11307953Y-10810003D01*
X11307953Y-10810003D02*
X11288906Y-10819527D01*
X11593667Y-10962384D02*
X11479382Y-10962384D01*
X11536525Y-10962384D02*
X11536525Y-10762384D01*
X11536525Y-10762384D02*
X11517477Y-10790955D01*
X11517477Y-10790955D02*
X11498429Y-10810003D01*
X11498429Y-10810003D02*
X11479382Y-10819527D01*
X11707953Y-10848098D02*
X11688906Y-10838574D01*
X11688906Y-10838574D02*
X11679382Y-10829050D01*
X11679382Y-10829050D02*
X11669858Y-10810003D01*
X11669858Y-10810003D02*
X11669858Y-10800479D01*
X11669858Y-10800479D02*
X11679382Y-10781431D01*
X11679382Y-10781431D02*
X11688906Y-10771908D01*
X11688906Y-10771908D02*
X11707953Y-10762384D01*
X11707953Y-10762384D02*
X11746048Y-10762384D01*
X11746048Y-10762384D02*
X11765096Y-10771908D01*
X11765096Y-10771908D02*
X11774620Y-10781431D01*
X11774620Y-10781431D02*
X11784144Y-10800479D01*
X11784144Y-10800479D02*
X11784144Y-10810003D01*
X11784144Y-10810003D02*
X11774620Y-10829050D01*
X11774620Y-10829050D02*
X11765096Y-10838574D01*
X11765096Y-10838574D02*
X11746048Y-10848098D01*
X11746048Y-10848098D02*
X11707953Y-10848098D01*
X11707953Y-10848098D02*
X11688906Y-10857622D01*
X11688906Y-10857622D02*
X11679382Y-10867146D01*
X11679382Y-10867146D02*
X11669858Y-10886193D01*
X11669858Y-10886193D02*
X11669858Y-10924288D01*
X11669858Y-10924288D02*
X11679382Y-10943336D01*
X11679382Y-10943336D02*
X11688906Y-10952860D01*
X11688906Y-10952860D02*
X11707953Y-10962384D01*
X11707953Y-10962384D02*
X11746048Y-10962384D01*
X11746048Y-10962384D02*
X11765096Y-10952860D01*
X11765096Y-10952860D02*
X11774620Y-10943336D01*
X11774620Y-10943336D02*
X11784144Y-10924288D01*
X11784144Y-10924288D02*
X11784144Y-10886193D01*
X11784144Y-10886193D02*
X11774620Y-10867146D01*
X11774620Y-10867146D02*
X11765096Y-10857622D01*
X11765096Y-10857622D02*
X11746048Y-10848098D01*
X11860334Y-10762384D02*
X11860334Y-10800479D01*
X11936525Y-10762384D02*
X11936525Y-10800479D01*
X12231763Y-11038574D02*
X12222239Y-11029050D01*
X12222239Y-11029050D02*
X12203191Y-11000479D01*
X12203191Y-11000479D02*
X12193668Y-10981431D01*
X12193668Y-10981431D02*
X12184144Y-10952860D01*
X12184144Y-10952860D02*
X12174620Y-10905241D01*
X12174620Y-10905241D02*
X12174620Y-10867146D01*
X12174620Y-10867146D02*
X12184144Y-10819527D01*
X12184144Y-10819527D02*
X12193668Y-10790955D01*
X12193668Y-10790955D02*
X12203191Y-10771908D01*
X12203191Y-10771908D02*
X12222239Y-10743336D01*
X12222239Y-10743336D02*
X12231763Y-10733812D01*
X12393668Y-10762384D02*
X12355572Y-10762384D01*
X12355572Y-10762384D02*
X12336525Y-10771908D01*
X12336525Y-10771908D02*
X12327001Y-10781431D01*
X12327001Y-10781431D02*
X12307953Y-10810003D01*
X12307953Y-10810003D02*
X12298429Y-10848098D01*
X12298429Y-10848098D02*
X12298429Y-10924288D01*
X12298429Y-10924288D02*
X12307953Y-10943336D01*
X12307953Y-10943336D02*
X12317477Y-10952860D01*
X12317477Y-10952860D02*
X12336525Y-10962384D01*
X12336525Y-10962384D02*
X12374620Y-10962384D01*
X12374620Y-10962384D02*
X12393668Y-10952860D01*
X12393668Y-10952860D02*
X12403191Y-10943336D01*
X12403191Y-10943336D02*
X12412715Y-10924288D01*
X12412715Y-10924288D02*
X12412715Y-10876669D01*
X12412715Y-10876669D02*
X12403191Y-10857622D01*
X12403191Y-10857622D02*
X12393668Y-10848098D01*
X12393668Y-10848098D02*
X12374620Y-10838574D01*
X12374620Y-10838574D02*
X12336525Y-10838574D01*
X12336525Y-10838574D02*
X12317477Y-10848098D01*
X12317477Y-10848098D02*
X12307953Y-10857622D01*
X12307953Y-10857622D02*
X12298429Y-10876669D01*
X12479382Y-10762384D02*
X12612715Y-10762384D01*
X12612715Y-10762384D02*
X12527001Y-10962384D01*
X12841287Y-10962384D02*
X12841287Y-10762384D01*
X12927001Y-10962384D02*
X12927001Y-10857622D01*
X12927001Y-10857622D02*
X12917477Y-10838574D01*
X12917477Y-10838574D02*
X12898430Y-10829050D01*
X12898430Y-10829050D02*
X12869858Y-10829050D01*
X12869858Y-10829050D02*
X12850810Y-10838574D01*
X12850810Y-10838574D02*
X12841287Y-10848098D01*
X13050810Y-10962384D02*
X13031763Y-10952860D01*
X13031763Y-10952860D02*
X13022239Y-10943336D01*
X13022239Y-10943336D02*
X13012715Y-10924288D01*
X13012715Y-10924288D02*
X13012715Y-10867146D01*
X13012715Y-10867146D02*
X13022239Y-10848098D01*
X13022239Y-10848098D02*
X13031763Y-10838574D01*
X13031763Y-10838574D02*
X13050810Y-10829050D01*
X13050810Y-10829050D02*
X13079382Y-10829050D01*
X13079382Y-10829050D02*
X13098430Y-10838574D01*
X13098430Y-10838574D02*
X13107953Y-10848098D01*
X13107953Y-10848098D02*
X13117477Y-10867146D01*
X13117477Y-10867146D02*
X13117477Y-10924288D01*
X13117477Y-10924288D02*
X13107953Y-10943336D01*
X13107953Y-10943336D02*
X13098430Y-10952860D01*
X13098430Y-10952860D02*
X13079382Y-10962384D01*
X13079382Y-10962384D02*
X13050810Y-10962384D01*
X13231763Y-10962384D02*
X13212715Y-10952860D01*
X13212715Y-10952860D02*
X13203191Y-10933812D01*
X13203191Y-10933812D02*
X13203191Y-10762384D01*
X13384144Y-10952860D02*
X13365096Y-10962384D01*
X13365096Y-10962384D02*
X13327001Y-10962384D01*
X13327001Y-10962384D02*
X13307953Y-10952860D01*
X13307953Y-10952860D02*
X13298430Y-10933812D01*
X13298430Y-10933812D02*
X13298430Y-10857622D01*
X13298430Y-10857622D02*
X13307953Y-10838574D01*
X13307953Y-10838574D02*
X13327001Y-10829050D01*
X13327001Y-10829050D02*
X13365096Y-10829050D01*
X13365096Y-10829050D02*
X13384144Y-10838574D01*
X13384144Y-10838574D02*
X13393668Y-10857622D01*
X13393668Y-10857622D02*
X13393668Y-10876669D01*
X13393668Y-10876669D02*
X13298430Y-10895717D01*
X13469858Y-10952860D02*
X13488906Y-10962384D01*
X13488906Y-10962384D02*
X13527001Y-10962384D01*
X13527001Y-10962384D02*
X13546049Y-10952860D01*
X13546049Y-10952860D02*
X13555572Y-10933812D01*
X13555572Y-10933812D02*
X13555572Y-10924288D01*
X13555572Y-10924288D02*
X13546049Y-10905241D01*
X13546049Y-10905241D02*
X13527001Y-10895717D01*
X13527001Y-10895717D02*
X13498430Y-10895717D01*
X13498430Y-10895717D02*
X13479382Y-10886193D01*
X13479382Y-10886193D02*
X13469858Y-10867146D01*
X13469858Y-10867146D02*
X13469858Y-10857622D01*
X13469858Y-10857622D02*
X13479382Y-10838574D01*
X13479382Y-10838574D02*
X13498430Y-10829050D01*
X13498430Y-10829050D02*
X13527001Y-10829050D01*
X13527001Y-10829050D02*
X13546049Y-10838574D01*
X13622239Y-11038574D02*
X13631763Y-11029050D01*
X13631763Y-11029050D02*
X13650811Y-11000479D01*
X13650811Y-11000479D02*
X13660334Y-10981431D01*
X13660334Y-10981431D02*
X13669858Y-10952860D01*
X13669858Y-10952860D02*
X13679382Y-10905241D01*
X13679382Y-10905241D02*
X13679382Y-10867146D01*
X13679382Y-10867146D02*
X13669858Y-10819527D01*
X13669858Y-10819527D02*
X13660334Y-10790955D01*
X13660334Y-10790955D02*
X13650811Y-10771908D01*
X13650811Y-10771908D02*
X13631763Y-10743336D01*
X13631763Y-10743336D02*
X13622239Y-10733812D01*
D11*
X8656700Y-11134900D02*
G75*
G02*
X8606700Y-11134900I-25000J0D01*
G01*
X8606700Y-11134900D02*
G75*
G02*
X8656700Y-11134900I25000J0D01*
G01*
D10*
X8955572Y-11026384D02*
X8974620Y-11026384D01*
X8974620Y-11026384D02*
X8993667Y-11035908D01*
X8993667Y-11035908D02*
X9003191Y-11045431D01*
X9003191Y-11045431D02*
X9012715Y-11064479D01*
X9012715Y-11064479D02*
X9022239Y-11102574D01*
X9022239Y-11102574D02*
X9022239Y-11150193D01*
X9022239Y-11150193D02*
X9012715Y-11188288D01*
X9012715Y-11188288D02*
X9003191Y-11207336D01*
X9003191Y-11207336D02*
X8993667Y-11216860D01*
X8993667Y-11216860D02*
X8974620Y-11226384D01*
X8974620Y-11226384D02*
X8955572Y-11226384D01*
X8955572Y-11226384D02*
X8936524Y-11216860D01*
X8936524Y-11216860D02*
X8927001Y-11207336D01*
X8927001Y-11207336D02*
X8917477Y-11188288D01*
X8917477Y-11188288D02*
X8907953Y-11150193D01*
X8907953Y-11150193D02*
X8907953Y-11102574D01*
X8907953Y-11102574D02*
X8917477Y-11064479D01*
X8917477Y-11064479D02*
X8927001Y-11045431D01*
X8927001Y-11045431D02*
X8936524Y-11035908D01*
X8936524Y-11035908D02*
X8955572Y-11026384D01*
X9107953Y-11207336D02*
X9117477Y-11216860D01*
X9117477Y-11216860D02*
X9107953Y-11226384D01*
X9107953Y-11226384D02*
X9098429Y-11216860D01*
X9098429Y-11216860D02*
X9107953Y-11207336D01*
X9107953Y-11207336D02*
X9107953Y-11226384D01*
X9298429Y-11026384D02*
X9203191Y-11026384D01*
X9203191Y-11026384D02*
X9193667Y-11121622D01*
X9193667Y-11121622D02*
X9203191Y-11112098D01*
X9203191Y-11112098D02*
X9222239Y-11102574D01*
X9222239Y-11102574D02*
X9269858Y-11102574D01*
X9269858Y-11102574D02*
X9288905Y-11112098D01*
X9288905Y-11112098D02*
X9298429Y-11121622D01*
X9298429Y-11121622D02*
X9307953Y-11140669D01*
X9307953Y-11140669D02*
X9307953Y-11188288D01*
X9307953Y-11188288D02*
X9298429Y-11207336D01*
X9298429Y-11207336D02*
X9288905Y-11216860D01*
X9288905Y-11216860D02*
X9269858Y-11226384D01*
X9269858Y-11226384D02*
X9222239Y-11226384D01*
X9222239Y-11226384D02*
X9203191Y-11216860D01*
X9203191Y-11216860D02*
X9193667Y-11207336D01*
X9431763Y-11026384D02*
X9450810Y-11026384D01*
X9450810Y-11026384D02*
X9469858Y-11035908D01*
X9469858Y-11035908D02*
X9479382Y-11045431D01*
X9479382Y-11045431D02*
X9488905Y-11064479D01*
X9488905Y-11064479D02*
X9498429Y-11102574D01*
X9498429Y-11102574D02*
X9498429Y-11150193D01*
X9498429Y-11150193D02*
X9488905Y-11188288D01*
X9488905Y-11188288D02*
X9479382Y-11207336D01*
X9479382Y-11207336D02*
X9469858Y-11216860D01*
X9469858Y-11216860D02*
X9450810Y-11226384D01*
X9450810Y-11226384D02*
X9431763Y-11226384D01*
X9431763Y-11226384D02*
X9412715Y-11216860D01*
X9412715Y-11216860D02*
X9403191Y-11207336D01*
X9403191Y-11207336D02*
X9393667Y-11188288D01*
X9393667Y-11188288D02*
X9384144Y-11150193D01*
X9384144Y-11150193D02*
X9384144Y-11102574D01*
X9384144Y-11102574D02*
X9393667Y-11064479D01*
X9393667Y-11064479D02*
X9403191Y-11045431D01*
X9403191Y-11045431D02*
X9412715Y-11035908D01*
X9412715Y-11035908D02*
X9431763Y-11026384D01*
X9622239Y-11026384D02*
X9641286Y-11026384D01*
X9641286Y-11026384D02*
X9660334Y-11035908D01*
X9660334Y-11035908D02*
X9669858Y-11045431D01*
X9669858Y-11045431D02*
X9679382Y-11064479D01*
X9679382Y-11064479D02*
X9688905Y-11102574D01*
X9688905Y-11102574D02*
X9688905Y-11150193D01*
X9688905Y-11150193D02*
X9679382Y-11188288D01*
X9679382Y-11188288D02*
X9669858Y-11207336D01*
X9669858Y-11207336D02*
X9660334Y-11216860D01*
X9660334Y-11216860D02*
X9641286Y-11226384D01*
X9641286Y-11226384D02*
X9622239Y-11226384D01*
X9622239Y-11226384D02*
X9603191Y-11216860D01*
X9603191Y-11216860D02*
X9593667Y-11207336D01*
X9593667Y-11207336D02*
X9584144Y-11188288D01*
X9584144Y-11188288D02*
X9574620Y-11150193D01*
X9574620Y-11150193D02*
X9574620Y-11102574D01*
X9574620Y-11102574D02*
X9584144Y-11064479D01*
X9584144Y-11064479D02*
X9593667Y-11045431D01*
X9593667Y-11045431D02*
X9603191Y-11035908D01*
X9603191Y-11035908D02*
X9622239Y-11026384D01*
X9774620Y-11226384D02*
X9774620Y-11093050D01*
X9774620Y-11112098D02*
X9784144Y-11102574D01*
X9784144Y-11102574D02*
X9803191Y-11093050D01*
X9803191Y-11093050D02*
X9831763Y-11093050D01*
X9831763Y-11093050D02*
X9850810Y-11102574D01*
X9850810Y-11102574D02*
X9860334Y-11121622D01*
X9860334Y-11121622D02*
X9860334Y-11226384D01*
X9860334Y-11121622D02*
X9869858Y-11102574D01*
X9869858Y-11102574D02*
X9888905Y-11093050D01*
X9888905Y-11093050D02*
X9917477Y-11093050D01*
X9917477Y-11093050D02*
X9936525Y-11102574D01*
X9936525Y-11102574D02*
X9946048Y-11121622D01*
X9946048Y-11121622D02*
X9946048Y-11226384D01*
X10041286Y-11226384D02*
X10041286Y-11093050D01*
X10041286Y-11112098D02*
X10050810Y-11102574D01*
X10050810Y-11102574D02*
X10069858Y-11093050D01*
X10069858Y-11093050D02*
X10098429Y-11093050D01*
X10098429Y-11093050D02*
X10117477Y-11102574D01*
X10117477Y-11102574D02*
X10127001Y-11121622D01*
X10127001Y-11121622D02*
X10127001Y-11226384D01*
X10127001Y-11121622D02*
X10136525Y-11102574D01*
X10136525Y-11102574D02*
X10155572Y-11093050D01*
X10155572Y-11093050D02*
X10184144Y-11093050D01*
X10184144Y-11093050D02*
X10203191Y-11102574D01*
X10203191Y-11102574D02*
X10212715Y-11121622D01*
X10212715Y-11121622D02*
X10212715Y-11226384D01*
X10603191Y-11016860D02*
X10431763Y-11274003D01*
X10860334Y-11026384D02*
X10879382Y-11026384D01*
X10879382Y-11026384D02*
X10898429Y-11035908D01*
X10898429Y-11035908D02*
X10907953Y-11045431D01*
X10907953Y-11045431D02*
X10917477Y-11064479D01*
X10917477Y-11064479D02*
X10927001Y-11102574D01*
X10927001Y-11102574D02*
X10927001Y-11150193D01*
X10927001Y-11150193D02*
X10917477Y-11188288D01*
X10917477Y-11188288D02*
X10907953Y-11207336D01*
X10907953Y-11207336D02*
X10898429Y-11216860D01*
X10898429Y-11216860D02*
X10879382Y-11226384D01*
X10879382Y-11226384D02*
X10860334Y-11226384D01*
X10860334Y-11226384D02*
X10841287Y-11216860D01*
X10841287Y-11216860D02*
X10831763Y-11207336D01*
X10831763Y-11207336D02*
X10822239Y-11188288D01*
X10822239Y-11188288D02*
X10812715Y-11150193D01*
X10812715Y-11150193D02*
X10812715Y-11102574D01*
X10812715Y-11102574D02*
X10822239Y-11064479D01*
X10822239Y-11064479D02*
X10831763Y-11045431D01*
X10831763Y-11045431D02*
X10841287Y-11035908D01*
X10841287Y-11035908D02*
X10860334Y-11026384D01*
X11012715Y-11207336D02*
X11022239Y-11216860D01*
X11022239Y-11216860D02*
X11012715Y-11226384D01*
X11012715Y-11226384D02*
X11003191Y-11216860D01*
X11003191Y-11216860D02*
X11012715Y-11207336D01*
X11012715Y-11207336D02*
X11012715Y-11226384D01*
X11146048Y-11026384D02*
X11165096Y-11026384D01*
X11165096Y-11026384D02*
X11184144Y-11035908D01*
X11184144Y-11035908D02*
X11193667Y-11045431D01*
X11193667Y-11045431D02*
X11203191Y-11064479D01*
X11203191Y-11064479D02*
X11212715Y-11102574D01*
X11212715Y-11102574D02*
X11212715Y-11150193D01*
X11212715Y-11150193D02*
X11203191Y-11188288D01*
X11203191Y-11188288D02*
X11193667Y-11207336D01*
X11193667Y-11207336D02*
X11184144Y-11216860D01*
X11184144Y-11216860D02*
X11165096Y-11226384D01*
X11165096Y-11226384D02*
X11146048Y-11226384D01*
X11146048Y-11226384D02*
X11127001Y-11216860D01*
X11127001Y-11216860D02*
X11117477Y-11207336D01*
X11117477Y-11207336D02*
X11107953Y-11188288D01*
X11107953Y-11188288D02*
X11098429Y-11150193D01*
X11098429Y-11150193D02*
X11098429Y-11102574D01*
X11098429Y-11102574D02*
X11107953Y-11064479D01*
X11107953Y-11064479D02*
X11117477Y-11045431D01*
X11117477Y-11045431D02*
X11127001Y-11035908D01*
X11127001Y-11035908D02*
X11146048Y-11026384D01*
X11403191Y-11226384D02*
X11288906Y-11226384D01*
X11346048Y-11226384D02*
X11346048Y-11026384D01*
X11346048Y-11026384D02*
X11327001Y-11054955D01*
X11327001Y-11054955D02*
X11307953Y-11074003D01*
X11307953Y-11074003D02*
X11288906Y-11083527D01*
X11498429Y-11226384D02*
X11536525Y-11226384D01*
X11536525Y-11226384D02*
X11555572Y-11216860D01*
X11555572Y-11216860D02*
X11565096Y-11207336D01*
X11565096Y-11207336D02*
X11584144Y-11178765D01*
X11584144Y-11178765D02*
X11593667Y-11140669D01*
X11593667Y-11140669D02*
X11593667Y-11064479D01*
X11593667Y-11064479D02*
X11584144Y-11045431D01*
X11584144Y-11045431D02*
X11574620Y-11035908D01*
X11574620Y-11035908D02*
X11555572Y-11026384D01*
X11555572Y-11026384D02*
X11517477Y-11026384D01*
X11517477Y-11026384D02*
X11498429Y-11035908D01*
X11498429Y-11035908D02*
X11488906Y-11045431D01*
X11488906Y-11045431D02*
X11479382Y-11064479D01*
X11479382Y-11064479D02*
X11479382Y-11112098D01*
X11479382Y-11112098D02*
X11488906Y-11131146D01*
X11488906Y-11131146D02*
X11498429Y-11140669D01*
X11498429Y-11140669D02*
X11517477Y-11150193D01*
X11517477Y-11150193D02*
X11555572Y-11150193D01*
X11555572Y-11150193D02*
X11574620Y-11140669D01*
X11574620Y-11140669D02*
X11584144Y-11131146D01*
X11584144Y-11131146D02*
X11593667Y-11112098D01*
X11660334Y-11026384D02*
X11793667Y-11026384D01*
X11793667Y-11026384D02*
X11707953Y-11226384D01*
X11860334Y-11026384D02*
X11860334Y-11064479D01*
X11936525Y-11026384D02*
X11936525Y-11064479D01*
X12231763Y-11302574D02*
X12222239Y-11293050D01*
X12222239Y-11293050D02*
X12203191Y-11264479D01*
X12203191Y-11264479D02*
X12193668Y-11245431D01*
X12193668Y-11245431D02*
X12184144Y-11216860D01*
X12184144Y-11216860D02*
X12174620Y-11169241D01*
X12174620Y-11169241D02*
X12174620Y-11131146D01*
X12174620Y-11131146D02*
X12184144Y-11083527D01*
X12184144Y-11083527D02*
X12193668Y-11054955D01*
X12193668Y-11054955D02*
X12203191Y-11035908D01*
X12203191Y-11035908D02*
X12222239Y-11007336D01*
X12222239Y-11007336D02*
X12231763Y-10997812D01*
X12346048Y-11026384D02*
X12365096Y-11026384D01*
X12365096Y-11026384D02*
X12384144Y-11035908D01*
X12384144Y-11035908D02*
X12393668Y-11045431D01*
X12393668Y-11045431D02*
X12403191Y-11064479D01*
X12403191Y-11064479D02*
X12412715Y-11102574D01*
X12412715Y-11102574D02*
X12412715Y-11150193D01*
X12412715Y-11150193D02*
X12403191Y-11188288D01*
X12403191Y-11188288D02*
X12393668Y-11207336D01*
X12393668Y-11207336D02*
X12384144Y-11216860D01*
X12384144Y-11216860D02*
X12365096Y-11226384D01*
X12365096Y-11226384D02*
X12346048Y-11226384D01*
X12346048Y-11226384D02*
X12327001Y-11216860D01*
X12327001Y-11216860D02*
X12317477Y-11207336D01*
X12317477Y-11207336D02*
X12307953Y-11188288D01*
X12307953Y-11188288D02*
X12298429Y-11150193D01*
X12298429Y-11150193D02*
X12298429Y-11102574D01*
X12298429Y-11102574D02*
X12307953Y-11064479D01*
X12307953Y-11064479D02*
X12317477Y-11045431D01*
X12317477Y-11045431D02*
X12327001Y-11035908D01*
X12327001Y-11035908D02*
X12346048Y-11026384D01*
X12650810Y-11226384D02*
X12650810Y-11026384D01*
X12736525Y-11226384D02*
X12736525Y-11121622D01*
X12736525Y-11121622D02*
X12727001Y-11102574D01*
X12727001Y-11102574D02*
X12707953Y-11093050D01*
X12707953Y-11093050D02*
X12679382Y-11093050D01*
X12679382Y-11093050D02*
X12660334Y-11102574D01*
X12660334Y-11102574D02*
X12650810Y-11112098D01*
X12860334Y-11226384D02*
X12841287Y-11216860D01*
X12841287Y-11216860D02*
X12831763Y-11207336D01*
X12831763Y-11207336D02*
X12822239Y-11188288D01*
X12822239Y-11188288D02*
X12822239Y-11131146D01*
X12822239Y-11131146D02*
X12831763Y-11112098D01*
X12831763Y-11112098D02*
X12841287Y-11102574D01*
X12841287Y-11102574D02*
X12860334Y-11093050D01*
X12860334Y-11093050D02*
X12888906Y-11093050D01*
X12888906Y-11093050D02*
X12907953Y-11102574D01*
X12907953Y-11102574D02*
X12917477Y-11112098D01*
X12917477Y-11112098D02*
X12927001Y-11131146D01*
X12927001Y-11131146D02*
X12927001Y-11188288D01*
X12927001Y-11188288D02*
X12917477Y-11207336D01*
X12917477Y-11207336D02*
X12907953Y-11216860D01*
X12907953Y-11216860D02*
X12888906Y-11226384D01*
X12888906Y-11226384D02*
X12860334Y-11226384D01*
X13041287Y-11226384D02*
X13022239Y-11216860D01*
X13022239Y-11216860D02*
X13012715Y-11197812D01*
X13012715Y-11197812D02*
X13012715Y-11026384D01*
X13193668Y-11216860D02*
X13174620Y-11226384D01*
X13174620Y-11226384D02*
X13136525Y-11226384D01*
X13136525Y-11226384D02*
X13117477Y-11216860D01*
X13117477Y-11216860D02*
X13107953Y-11197812D01*
X13107953Y-11197812D02*
X13107953Y-11121622D01*
X13107953Y-11121622D02*
X13117477Y-11102574D01*
X13117477Y-11102574D02*
X13136525Y-11093050D01*
X13136525Y-11093050D02*
X13174620Y-11093050D01*
X13174620Y-11093050D02*
X13193668Y-11102574D01*
X13193668Y-11102574D02*
X13203191Y-11121622D01*
X13203191Y-11121622D02*
X13203191Y-11140669D01*
X13203191Y-11140669D02*
X13107953Y-11159717D01*
X13279382Y-11216860D02*
X13298430Y-11226384D01*
X13298430Y-11226384D02*
X13336525Y-11226384D01*
X13336525Y-11226384D02*
X13355572Y-11216860D01*
X13355572Y-11216860D02*
X13365096Y-11197812D01*
X13365096Y-11197812D02*
X13365096Y-11188288D01*
X13365096Y-11188288D02*
X13355572Y-11169241D01*
X13355572Y-11169241D02*
X13336525Y-11159717D01*
X13336525Y-11159717D02*
X13307953Y-11159717D01*
X13307953Y-11159717D02*
X13288906Y-11150193D01*
X13288906Y-11150193D02*
X13279382Y-11131146D01*
X13279382Y-11131146D02*
X13279382Y-11121622D01*
X13279382Y-11121622D02*
X13288906Y-11102574D01*
X13288906Y-11102574D02*
X13307953Y-11093050D01*
X13307953Y-11093050D02*
X13336525Y-11093050D01*
X13336525Y-11093050D02*
X13355572Y-11102574D01*
X13603192Y-11150193D02*
X13755573Y-11150193D01*
X13679382Y-11226384D02*
X13679382Y-11074003D01*
X14088906Y-11093050D02*
X14088906Y-11226384D01*
X14041287Y-11016860D02*
X13993668Y-11159717D01*
X13993668Y-11159717D02*
X14117477Y-11159717D01*
X14336525Y-11216860D02*
X14355573Y-11226384D01*
X14355573Y-11226384D02*
X14393668Y-11226384D01*
X14393668Y-11226384D02*
X14412715Y-11216860D01*
X14412715Y-11216860D02*
X14422239Y-11197812D01*
X14422239Y-11197812D02*
X14422239Y-11188288D01*
X14422239Y-11188288D02*
X14412715Y-11169241D01*
X14412715Y-11169241D02*
X14393668Y-11159717D01*
X14393668Y-11159717D02*
X14365096Y-11159717D01*
X14365096Y-11159717D02*
X14346049Y-11150193D01*
X14346049Y-11150193D02*
X14336525Y-11131146D01*
X14336525Y-11131146D02*
X14336525Y-11121622D01*
X14336525Y-11121622D02*
X14346049Y-11102574D01*
X14346049Y-11102574D02*
X14365096Y-11093050D01*
X14365096Y-11093050D02*
X14393668Y-11093050D01*
X14393668Y-11093050D02*
X14412715Y-11102574D01*
X14536525Y-11226384D02*
X14517477Y-11216860D01*
X14517477Y-11216860D02*
X14507954Y-11197812D01*
X14507954Y-11197812D02*
X14507954Y-11026384D01*
X14641287Y-11226384D02*
X14622239Y-11216860D01*
X14622239Y-11216860D02*
X14612715Y-11207336D01*
X14612715Y-11207336D02*
X14603192Y-11188288D01*
X14603192Y-11188288D02*
X14603192Y-11131146D01*
X14603192Y-11131146D02*
X14612715Y-11112098D01*
X14612715Y-11112098D02*
X14622239Y-11102574D01*
X14622239Y-11102574D02*
X14641287Y-11093050D01*
X14641287Y-11093050D02*
X14669858Y-11093050D01*
X14669858Y-11093050D02*
X14688906Y-11102574D01*
X14688906Y-11102574D02*
X14698430Y-11112098D01*
X14698430Y-11112098D02*
X14707954Y-11131146D01*
X14707954Y-11131146D02*
X14707954Y-11188288D01*
X14707954Y-11188288D02*
X14698430Y-11207336D01*
X14698430Y-11207336D02*
X14688906Y-11216860D01*
X14688906Y-11216860D02*
X14669858Y-11226384D01*
X14669858Y-11226384D02*
X14641287Y-11226384D01*
X14765096Y-11093050D02*
X14841287Y-11093050D01*
X14793668Y-11026384D02*
X14793668Y-11197812D01*
X14793668Y-11197812D02*
X14803192Y-11216860D01*
X14803192Y-11216860D02*
X14822239Y-11226384D01*
X14822239Y-11226384D02*
X14841287Y-11226384D01*
X14898430Y-11216860D02*
X14917477Y-11226384D01*
X14917477Y-11226384D02*
X14955573Y-11226384D01*
X14955573Y-11226384D02*
X14974620Y-11216860D01*
X14974620Y-11216860D02*
X14984144Y-11197812D01*
X14984144Y-11197812D02*
X14984144Y-11188288D01*
X14984144Y-11188288D02*
X14974620Y-11169241D01*
X14974620Y-11169241D02*
X14955573Y-11159717D01*
X14955573Y-11159717D02*
X14927001Y-11159717D01*
X14927001Y-11159717D02*
X14907954Y-11150193D01*
X14907954Y-11150193D02*
X14898430Y-11131146D01*
X14898430Y-11131146D02*
X14898430Y-11121622D01*
X14898430Y-11121622D02*
X14907954Y-11102574D01*
X14907954Y-11102574D02*
X14927001Y-11093050D01*
X14927001Y-11093050D02*
X14955573Y-11093050D01*
X14955573Y-11093050D02*
X14974620Y-11102574D01*
X15050811Y-11302574D02*
X15060335Y-11293050D01*
X15060335Y-11293050D02*
X15079382Y-11264479D01*
X15079382Y-11264479D02*
X15088906Y-11245431D01*
X15088906Y-11245431D02*
X15098430Y-11216860D01*
X15098430Y-11216860D02*
X15107954Y-11169241D01*
X15107954Y-11169241D02*
X15107954Y-11131146D01*
X15107954Y-11131146D02*
X15098430Y-11083527D01*
X15098430Y-11083527D02*
X15088906Y-11054955D01*
X15088906Y-11054955D02*
X15079382Y-11035908D01*
X15079382Y-11035908D02*
X15060335Y-11007336D01*
X15060335Y-11007336D02*
X15050811Y-10997812D01*
D11*
X8606700Y-11348900D02*
X8606700Y-11448900D01*
X8556700Y-11398900D02*
X8656700Y-11398900D01*
D10*
X9022239Y-11490384D02*
X8907953Y-11490384D01*
X8965096Y-11490384D02*
X8965096Y-11290384D01*
X8965096Y-11290384D02*
X8946048Y-11318955D01*
X8946048Y-11318955D02*
X8927001Y-11338003D01*
X8927001Y-11338003D02*
X8907953Y-11347526D01*
X9107953Y-11471336D02*
X9117477Y-11480860D01*
X9117477Y-11480860D02*
X9107953Y-11490384D01*
X9107953Y-11490384D02*
X9098429Y-11480860D01*
X9098429Y-11480860D02*
X9107953Y-11471336D01*
X9107953Y-11471336D02*
X9107953Y-11490384D01*
X9241286Y-11290384D02*
X9260334Y-11290384D01*
X9260334Y-11290384D02*
X9279382Y-11299907D01*
X9279382Y-11299907D02*
X9288905Y-11309431D01*
X9288905Y-11309431D02*
X9298429Y-11328479D01*
X9298429Y-11328479D02*
X9307953Y-11366574D01*
X9307953Y-11366574D02*
X9307953Y-11414193D01*
X9307953Y-11414193D02*
X9298429Y-11452288D01*
X9298429Y-11452288D02*
X9288905Y-11471336D01*
X9288905Y-11471336D02*
X9279382Y-11480860D01*
X9279382Y-11480860D02*
X9260334Y-11490384D01*
X9260334Y-11490384D02*
X9241286Y-11490384D01*
X9241286Y-11490384D02*
X9222239Y-11480860D01*
X9222239Y-11480860D02*
X9212715Y-11471336D01*
X9212715Y-11471336D02*
X9203191Y-11452288D01*
X9203191Y-11452288D02*
X9193667Y-11414193D01*
X9193667Y-11414193D02*
X9193667Y-11366574D01*
X9193667Y-11366574D02*
X9203191Y-11328479D01*
X9203191Y-11328479D02*
X9212715Y-11309431D01*
X9212715Y-11309431D02*
X9222239Y-11299907D01*
X9222239Y-11299907D02*
X9241286Y-11290384D01*
X9431763Y-11290384D02*
X9450810Y-11290384D01*
X9450810Y-11290384D02*
X9469858Y-11299907D01*
X9469858Y-11299907D02*
X9479382Y-11309431D01*
X9479382Y-11309431D02*
X9488905Y-11328479D01*
X9488905Y-11328479D02*
X9498429Y-11366574D01*
X9498429Y-11366574D02*
X9498429Y-11414193D01*
X9498429Y-11414193D02*
X9488905Y-11452288D01*
X9488905Y-11452288D02*
X9479382Y-11471336D01*
X9479382Y-11471336D02*
X9469858Y-11480860D01*
X9469858Y-11480860D02*
X9450810Y-11490384D01*
X9450810Y-11490384D02*
X9431763Y-11490384D01*
X9431763Y-11490384D02*
X9412715Y-11480860D01*
X9412715Y-11480860D02*
X9403191Y-11471336D01*
X9403191Y-11471336D02*
X9393667Y-11452288D01*
X9393667Y-11452288D02*
X9384144Y-11414193D01*
X9384144Y-11414193D02*
X9384144Y-11366574D01*
X9384144Y-11366574D02*
X9393667Y-11328479D01*
X9393667Y-11328479D02*
X9403191Y-11309431D01*
X9403191Y-11309431D02*
X9412715Y-11299907D01*
X9412715Y-11299907D02*
X9431763Y-11290384D01*
X9622239Y-11290384D02*
X9641286Y-11290384D01*
X9641286Y-11290384D02*
X9660334Y-11299907D01*
X9660334Y-11299907D02*
X9669858Y-11309431D01*
X9669858Y-11309431D02*
X9679382Y-11328479D01*
X9679382Y-11328479D02*
X9688905Y-11366574D01*
X9688905Y-11366574D02*
X9688905Y-11414193D01*
X9688905Y-11414193D02*
X9679382Y-11452288D01*
X9679382Y-11452288D02*
X9669858Y-11471336D01*
X9669858Y-11471336D02*
X9660334Y-11480860D01*
X9660334Y-11480860D02*
X9641286Y-11490384D01*
X9641286Y-11490384D02*
X9622239Y-11490384D01*
X9622239Y-11490384D02*
X9603191Y-11480860D01*
X9603191Y-11480860D02*
X9593667Y-11471336D01*
X9593667Y-11471336D02*
X9584144Y-11452288D01*
X9584144Y-11452288D02*
X9574620Y-11414193D01*
X9574620Y-11414193D02*
X9574620Y-11366574D01*
X9574620Y-11366574D02*
X9584144Y-11328479D01*
X9584144Y-11328479D02*
X9593667Y-11309431D01*
X9593667Y-11309431D02*
X9603191Y-11299907D01*
X9603191Y-11299907D02*
X9622239Y-11290384D01*
X9774620Y-11490384D02*
X9774620Y-11357050D01*
X9774620Y-11376098D02*
X9784144Y-11366574D01*
X9784144Y-11366574D02*
X9803191Y-11357050D01*
X9803191Y-11357050D02*
X9831763Y-11357050D01*
X9831763Y-11357050D02*
X9850810Y-11366574D01*
X9850810Y-11366574D02*
X9860334Y-11385622D01*
X9860334Y-11385622D02*
X9860334Y-11490384D01*
X9860334Y-11385622D02*
X9869858Y-11366574D01*
X9869858Y-11366574D02*
X9888905Y-11357050D01*
X9888905Y-11357050D02*
X9917477Y-11357050D01*
X9917477Y-11357050D02*
X9936525Y-11366574D01*
X9936525Y-11366574D02*
X9946048Y-11385622D01*
X9946048Y-11385622D02*
X9946048Y-11490384D01*
X10041286Y-11490384D02*
X10041286Y-11357050D01*
X10041286Y-11376098D02*
X10050810Y-11366574D01*
X10050810Y-11366574D02*
X10069858Y-11357050D01*
X10069858Y-11357050D02*
X10098429Y-11357050D01*
X10098429Y-11357050D02*
X10117477Y-11366574D01*
X10117477Y-11366574D02*
X10127001Y-11385622D01*
X10127001Y-11385622D02*
X10127001Y-11490384D01*
X10127001Y-11385622D02*
X10136525Y-11366574D01*
X10136525Y-11366574D02*
X10155572Y-11357050D01*
X10155572Y-11357050D02*
X10184144Y-11357050D01*
X10184144Y-11357050D02*
X10203191Y-11366574D01*
X10203191Y-11366574D02*
X10212715Y-11385622D01*
X10212715Y-11385622D02*
X10212715Y-11490384D01*
X10603191Y-11280860D02*
X10431763Y-11538003D01*
X10860334Y-11290384D02*
X10879382Y-11290384D01*
X10879382Y-11290384D02*
X10898429Y-11299907D01*
X10898429Y-11299907D02*
X10907953Y-11309431D01*
X10907953Y-11309431D02*
X10917477Y-11328479D01*
X10917477Y-11328479D02*
X10927001Y-11366574D01*
X10927001Y-11366574D02*
X10927001Y-11414193D01*
X10927001Y-11414193D02*
X10917477Y-11452288D01*
X10917477Y-11452288D02*
X10907953Y-11471336D01*
X10907953Y-11471336D02*
X10898429Y-11480860D01*
X10898429Y-11480860D02*
X10879382Y-11490384D01*
X10879382Y-11490384D02*
X10860334Y-11490384D01*
X10860334Y-11490384D02*
X10841287Y-11480860D01*
X10841287Y-11480860D02*
X10831763Y-11471336D01*
X10831763Y-11471336D02*
X10822239Y-11452288D01*
X10822239Y-11452288D02*
X10812715Y-11414193D01*
X10812715Y-11414193D02*
X10812715Y-11366574D01*
X10812715Y-11366574D02*
X10822239Y-11328479D01*
X10822239Y-11328479D02*
X10831763Y-11309431D01*
X10831763Y-11309431D02*
X10841287Y-11299907D01*
X10841287Y-11299907D02*
X10860334Y-11290384D01*
X11012715Y-11471336D02*
X11022239Y-11480860D01*
X11022239Y-11480860D02*
X11012715Y-11490384D01*
X11012715Y-11490384D02*
X11003191Y-11480860D01*
X11003191Y-11480860D02*
X11012715Y-11471336D01*
X11012715Y-11471336D02*
X11012715Y-11490384D01*
X11146048Y-11290384D02*
X11165096Y-11290384D01*
X11165096Y-11290384D02*
X11184144Y-11299907D01*
X11184144Y-11299907D02*
X11193667Y-11309431D01*
X11193667Y-11309431D02*
X11203191Y-11328479D01*
X11203191Y-11328479D02*
X11212715Y-11366574D01*
X11212715Y-11366574D02*
X11212715Y-11414193D01*
X11212715Y-11414193D02*
X11203191Y-11452288D01*
X11203191Y-11452288D02*
X11193667Y-11471336D01*
X11193667Y-11471336D02*
X11184144Y-11480860D01*
X11184144Y-11480860D02*
X11165096Y-11490384D01*
X11165096Y-11490384D02*
X11146048Y-11490384D01*
X11146048Y-11490384D02*
X11127001Y-11480860D01*
X11127001Y-11480860D02*
X11117477Y-11471336D01*
X11117477Y-11471336D02*
X11107953Y-11452288D01*
X11107953Y-11452288D02*
X11098429Y-11414193D01*
X11098429Y-11414193D02*
X11098429Y-11366574D01*
X11098429Y-11366574D02*
X11107953Y-11328479D01*
X11107953Y-11328479D02*
X11117477Y-11309431D01*
X11117477Y-11309431D02*
X11127001Y-11299907D01*
X11127001Y-11299907D02*
X11146048Y-11290384D01*
X11279382Y-11290384D02*
X11403191Y-11290384D01*
X11403191Y-11290384D02*
X11336525Y-11366574D01*
X11336525Y-11366574D02*
X11365096Y-11366574D01*
X11365096Y-11366574D02*
X11384144Y-11376098D01*
X11384144Y-11376098D02*
X11393667Y-11385622D01*
X11393667Y-11385622D02*
X11403191Y-11404669D01*
X11403191Y-11404669D02*
X11403191Y-11452288D01*
X11403191Y-11452288D02*
X11393667Y-11471336D01*
X11393667Y-11471336D02*
X11384144Y-11480860D01*
X11384144Y-11480860D02*
X11365096Y-11490384D01*
X11365096Y-11490384D02*
X11307953Y-11490384D01*
X11307953Y-11490384D02*
X11288906Y-11480860D01*
X11288906Y-11480860D02*
X11279382Y-11471336D01*
X11498429Y-11490384D02*
X11536525Y-11490384D01*
X11536525Y-11490384D02*
X11555572Y-11480860D01*
X11555572Y-11480860D02*
X11565096Y-11471336D01*
X11565096Y-11471336D02*
X11584144Y-11442765D01*
X11584144Y-11442765D02*
X11593667Y-11404669D01*
X11593667Y-11404669D02*
X11593667Y-11328479D01*
X11593667Y-11328479D02*
X11584144Y-11309431D01*
X11584144Y-11309431D02*
X11574620Y-11299907D01*
X11574620Y-11299907D02*
X11555572Y-11290384D01*
X11555572Y-11290384D02*
X11517477Y-11290384D01*
X11517477Y-11290384D02*
X11498429Y-11299907D01*
X11498429Y-11299907D02*
X11488906Y-11309431D01*
X11488906Y-11309431D02*
X11479382Y-11328479D01*
X11479382Y-11328479D02*
X11479382Y-11376098D01*
X11479382Y-11376098D02*
X11488906Y-11395146D01*
X11488906Y-11395146D02*
X11498429Y-11404669D01*
X11498429Y-11404669D02*
X11517477Y-11414193D01*
X11517477Y-11414193D02*
X11555572Y-11414193D01*
X11555572Y-11414193D02*
X11574620Y-11404669D01*
X11574620Y-11404669D02*
X11584144Y-11395146D01*
X11584144Y-11395146D02*
X11593667Y-11376098D01*
X11765096Y-11357050D02*
X11765096Y-11490384D01*
X11717477Y-11280860D02*
X11669858Y-11423717D01*
X11669858Y-11423717D02*
X11793667Y-11423717D01*
X11860334Y-11290384D02*
X11860334Y-11328479D01*
X11936525Y-11290384D02*
X11936525Y-11328479D01*
X12231763Y-11566574D02*
X12222239Y-11557050D01*
X12222239Y-11557050D02*
X12203191Y-11528479D01*
X12203191Y-11528479D02*
X12193668Y-11509431D01*
X12193668Y-11509431D02*
X12184144Y-11480860D01*
X12184144Y-11480860D02*
X12174620Y-11433241D01*
X12174620Y-11433241D02*
X12174620Y-11395146D01*
X12174620Y-11395146D02*
X12184144Y-11347526D01*
X12184144Y-11347526D02*
X12193668Y-11318955D01*
X12193668Y-11318955D02*
X12203191Y-11299907D01*
X12203191Y-11299907D02*
X12222239Y-11271336D01*
X12222239Y-11271336D02*
X12231763Y-11261812D01*
X12403191Y-11290384D02*
X12307953Y-11290384D01*
X12307953Y-11290384D02*
X12298429Y-11385622D01*
X12298429Y-11385622D02*
X12307953Y-11376098D01*
X12307953Y-11376098D02*
X12327001Y-11366574D01*
X12327001Y-11366574D02*
X12374620Y-11366574D01*
X12374620Y-11366574D02*
X12393668Y-11376098D01*
X12393668Y-11376098D02*
X12403191Y-11385622D01*
X12403191Y-11385622D02*
X12412715Y-11404669D01*
X12412715Y-11404669D02*
X12412715Y-11452288D01*
X12412715Y-11452288D02*
X12403191Y-11471336D01*
X12403191Y-11471336D02*
X12393668Y-11480860D01*
X12393668Y-11480860D02*
X12374620Y-11490384D01*
X12374620Y-11490384D02*
X12327001Y-11490384D01*
X12327001Y-11490384D02*
X12307953Y-11480860D01*
X12307953Y-11480860D02*
X12298429Y-11471336D01*
X12650810Y-11490384D02*
X12650810Y-11290384D01*
X12736525Y-11490384D02*
X12736525Y-11385622D01*
X12736525Y-11385622D02*
X12727001Y-11366574D01*
X12727001Y-11366574D02*
X12707953Y-11357050D01*
X12707953Y-11357050D02*
X12679382Y-11357050D01*
X12679382Y-11357050D02*
X12660334Y-11366574D01*
X12660334Y-11366574D02*
X12650810Y-11376098D01*
X12860334Y-11490384D02*
X12841287Y-11480860D01*
X12841287Y-11480860D02*
X12831763Y-11471336D01*
X12831763Y-11471336D02*
X12822239Y-11452288D01*
X12822239Y-11452288D02*
X12822239Y-11395146D01*
X12822239Y-11395146D02*
X12831763Y-11376098D01*
X12831763Y-11376098D02*
X12841287Y-11366574D01*
X12841287Y-11366574D02*
X12860334Y-11357050D01*
X12860334Y-11357050D02*
X12888906Y-11357050D01*
X12888906Y-11357050D02*
X12907953Y-11366574D01*
X12907953Y-11366574D02*
X12917477Y-11376098D01*
X12917477Y-11376098D02*
X12927001Y-11395146D01*
X12927001Y-11395146D02*
X12927001Y-11452288D01*
X12927001Y-11452288D02*
X12917477Y-11471336D01*
X12917477Y-11471336D02*
X12907953Y-11480860D01*
X12907953Y-11480860D02*
X12888906Y-11490384D01*
X12888906Y-11490384D02*
X12860334Y-11490384D01*
X13041287Y-11490384D02*
X13022239Y-11480860D01*
X13022239Y-11480860D02*
X13012715Y-11461812D01*
X13012715Y-11461812D02*
X13012715Y-11290384D01*
X13193668Y-11480860D02*
X13174620Y-11490384D01*
X13174620Y-11490384D02*
X13136525Y-11490384D01*
X13136525Y-11490384D02*
X13117477Y-11480860D01*
X13117477Y-11480860D02*
X13107953Y-11461812D01*
X13107953Y-11461812D02*
X13107953Y-11385622D01*
X13107953Y-11385622D02*
X13117477Y-11366574D01*
X13117477Y-11366574D02*
X13136525Y-11357050D01*
X13136525Y-11357050D02*
X13174620Y-11357050D01*
X13174620Y-11357050D02*
X13193668Y-11366574D01*
X13193668Y-11366574D02*
X13203191Y-11385622D01*
X13203191Y-11385622D02*
X13203191Y-11404669D01*
X13203191Y-11404669D02*
X13107953Y-11423717D01*
X13279382Y-11480860D02*
X13298430Y-11490384D01*
X13298430Y-11490384D02*
X13336525Y-11490384D01*
X13336525Y-11490384D02*
X13355572Y-11480860D01*
X13355572Y-11480860D02*
X13365096Y-11461812D01*
X13365096Y-11461812D02*
X13365096Y-11452288D01*
X13365096Y-11452288D02*
X13355572Y-11433241D01*
X13355572Y-11433241D02*
X13336525Y-11423717D01*
X13336525Y-11423717D02*
X13307953Y-11423717D01*
X13307953Y-11423717D02*
X13288906Y-11414193D01*
X13288906Y-11414193D02*
X13279382Y-11395146D01*
X13279382Y-11395146D02*
X13279382Y-11385622D01*
X13279382Y-11385622D02*
X13288906Y-11366574D01*
X13288906Y-11366574D02*
X13307953Y-11357050D01*
X13307953Y-11357050D02*
X13336525Y-11357050D01*
X13336525Y-11357050D02*
X13355572Y-11366574D01*
X13431763Y-11566574D02*
X13441287Y-11557050D01*
X13441287Y-11557050D02*
X13460334Y-11528479D01*
X13460334Y-11528479D02*
X13469858Y-11509431D01*
X13469858Y-11509431D02*
X13479382Y-11480860D01*
X13479382Y-11480860D02*
X13488906Y-11433241D01*
X13488906Y-11433241D02*
X13488906Y-11395146D01*
X13488906Y-11395146D02*
X13479382Y-11347526D01*
X13479382Y-11347526D02*
X13469858Y-11318955D01*
X13469858Y-11318955D02*
X13460334Y-11299907D01*
X13460334Y-11299907D02*
X13441287Y-11271336D01*
X13441287Y-11271336D02*
X13431763Y-11261812D01*
D12*
X8630340Y-11726540D02*
X8630340Y-11599260D01*
X8503060Y-11599260D01*
X8503060Y-11726540D01*
X8630340Y-11726540D01*
D10*
X9022239Y-11754384D02*
X8907953Y-11754384D01*
X8965096Y-11754384D02*
X8965096Y-11554384D01*
X8965096Y-11554384D02*
X8946048Y-11582955D01*
X8946048Y-11582955D02*
X8927001Y-11602003D01*
X8927001Y-11602003D02*
X8907953Y-11611526D01*
X9107953Y-11735336D02*
X9117477Y-11744860D01*
X9117477Y-11744860D02*
X9107953Y-11754384D01*
X9107953Y-11754384D02*
X9098429Y-11744860D01*
X9098429Y-11744860D02*
X9107953Y-11735336D01*
X9107953Y-11735336D02*
X9107953Y-11754384D01*
X9231763Y-11640098D02*
X9212715Y-11630574D01*
X9212715Y-11630574D02*
X9203191Y-11621050D01*
X9203191Y-11621050D02*
X9193667Y-11602003D01*
X9193667Y-11602003D02*
X9193667Y-11592479D01*
X9193667Y-11592479D02*
X9203191Y-11573431D01*
X9203191Y-11573431D02*
X9212715Y-11563907D01*
X9212715Y-11563907D02*
X9231763Y-11554384D01*
X9231763Y-11554384D02*
X9269858Y-11554384D01*
X9269858Y-11554384D02*
X9288905Y-11563907D01*
X9288905Y-11563907D02*
X9298429Y-11573431D01*
X9298429Y-11573431D02*
X9307953Y-11592479D01*
X9307953Y-11592479D02*
X9307953Y-11602003D01*
X9307953Y-11602003D02*
X9298429Y-11621050D01*
X9298429Y-11621050D02*
X9288905Y-11630574D01*
X9288905Y-11630574D02*
X9269858Y-11640098D01*
X9269858Y-11640098D02*
X9231763Y-11640098D01*
X9231763Y-11640098D02*
X9212715Y-11649622D01*
X9212715Y-11649622D02*
X9203191Y-11659146D01*
X9203191Y-11659146D02*
X9193667Y-11678193D01*
X9193667Y-11678193D02*
X9193667Y-11716288D01*
X9193667Y-11716288D02*
X9203191Y-11735336D01*
X9203191Y-11735336D02*
X9212715Y-11744860D01*
X9212715Y-11744860D02*
X9231763Y-11754384D01*
X9231763Y-11754384D02*
X9269858Y-11754384D01*
X9269858Y-11754384D02*
X9288905Y-11744860D01*
X9288905Y-11744860D02*
X9298429Y-11735336D01*
X9298429Y-11735336D02*
X9307953Y-11716288D01*
X9307953Y-11716288D02*
X9307953Y-11678193D01*
X9307953Y-11678193D02*
X9298429Y-11659146D01*
X9298429Y-11659146D02*
X9288905Y-11649622D01*
X9288905Y-11649622D02*
X9269858Y-11640098D01*
X9431763Y-11554384D02*
X9450810Y-11554384D01*
X9450810Y-11554384D02*
X9469858Y-11563907D01*
X9469858Y-11563907D02*
X9479382Y-11573431D01*
X9479382Y-11573431D02*
X9488905Y-11592479D01*
X9488905Y-11592479D02*
X9498429Y-11630574D01*
X9498429Y-11630574D02*
X9498429Y-11678193D01*
X9498429Y-11678193D02*
X9488905Y-11716288D01*
X9488905Y-11716288D02*
X9479382Y-11735336D01*
X9479382Y-11735336D02*
X9469858Y-11744860D01*
X9469858Y-11744860D02*
X9450810Y-11754384D01*
X9450810Y-11754384D02*
X9431763Y-11754384D01*
X9431763Y-11754384D02*
X9412715Y-11744860D01*
X9412715Y-11744860D02*
X9403191Y-11735336D01*
X9403191Y-11735336D02*
X9393667Y-11716288D01*
X9393667Y-11716288D02*
X9384144Y-11678193D01*
X9384144Y-11678193D02*
X9384144Y-11630574D01*
X9384144Y-11630574D02*
X9393667Y-11592479D01*
X9393667Y-11592479D02*
X9403191Y-11573431D01*
X9403191Y-11573431D02*
X9412715Y-11563907D01*
X9412715Y-11563907D02*
X9431763Y-11554384D01*
X9622239Y-11554384D02*
X9641286Y-11554384D01*
X9641286Y-11554384D02*
X9660334Y-11563907D01*
X9660334Y-11563907D02*
X9669858Y-11573431D01*
X9669858Y-11573431D02*
X9679382Y-11592479D01*
X9679382Y-11592479D02*
X9688905Y-11630574D01*
X9688905Y-11630574D02*
X9688905Y-11678193D01*
X9688905Y-11678193D02*
X9679382Y-11716288D01*
X9679382Y-11716288D02*
X9669858Y-11735336D01*
X9669858Y-11735336D02*
X9660334Y-11744860D01*
X9660334Y-11744860D02*
X9641286Y-11754384D01*
X9641286Y-11754384D02*
X9622239Y-11754384D01*
X9622239Y-11754384D02*
X9603191Y-11744860D01*
X9603191Y-11744860D02*
X9593667Y-11735336D01*
X9593667Y-11735336D02*
X9584144Y-11716288D01*
X9584144Y-11716288D02*
X9574620Y-11678193D01*
X9574620Y-11678193D02*
X9574620Y-11630574D01*
X9574620Y-11630574D02*
X9584144Y-11592479D01*
X9584144Y-11592479D02*
X9593667Y-11573431D01*
X9593667Y-11573431D02*
X9603191Y-11563907D01*
X9603191Y-11563907D02*
X9622239Y-11554384D01*
X9774620Y-11754384D02*
X9774620Y-11621050D01*
X9774620Y-11640098D02*
X9784144Y-11630574D01*
X9784144Y-11630574D02*
X9803191Y-11621050D01*
X9803191Y-11621050D02*
X9831763Y-11621050D01*
X9831763Y-11621050D02*
X9850810Y-11630574D01*
X9850810Y-11630574D02*
X9860334Y-11649622D01*
X9860334Y-11649622D02*
X9860334Y-11754384D01*
X9860334Y-11649622D02*
X9869858Y-11630574D01*
X9869858Y-11630574D02*
X9888905Y-11621050D01*
X9888905Y-11621050D02*
X9917477Y-11621050D01*
X9917477Y-11621050D02*
X9936525Y-11630574D01*
X9936525Y-11630574D02*
X9946048Y-11649622D01*
X9946048Y-11649622D02*
X9946048Y-11754384D01*
X10041286Y-11754384D02*
X10041286Y-11621050D01*
X10041286Y-11640098D02*
X10050810Y-11630574D01*
X10050810Y-11630574D02*
X10069858Y-11621050D01*
X10069858Y-11621050D02*
X10098429Y-11621050D01*
X10098429Y-11621050D02*
X10117477Y-11630574D01*
X10117477Y-11630574D02*
X10127001Y-11649622D01*
X10127001Y-11649622D02*
X10127001Y-11754384D01*
X10127001Y-11649622D02*
X10136525Y-11630574D01*
X10136525Y-11630574D02*
X10155572Y-11621050D01*
X10155572Y-11621050D02*
X10184144Y-11621050D01*
X10184144Y-11621050D02*
X10203191Y-11630574D01*
X10203191Y-11630574D02*
X10212715Y-11649622D01*
X10212715Y-11649622D02*
X10212715Y-11754384D01*
X10603191Y-11544860D02*
X10431763Y-11802003D01*
X10860334Y-11554384D02*
X10879382Y-11554384D01*
X10879382Y-11554384D02*
X10898429Y-11563907D01*
X10898429Y-11563907D02*
X10907953Y-11573431D01*
X10907953Y-11573431D02*
X10917477Y-11592479D01*
X10917477Y-11592479D02*
X10927001Y-11630574D01*
X10927001Y-11630574D02*
X10927001Y-11678193D01*
X10927001Y-11678193D02*
X10917477Y-11716288D01*
X10917477Y-11716288D02*
X10907953Y-11735336D01*
X10907953Y-11735336D02*
X10898429Y-11744860D01*
X10898429Y-11744860D02*
X10879382Y-11754384D01*
X10879382Y-11754384D02*
X10860334Y-11754384D01*
X10860334Y-11754384D02*
X10841287Y-11744860D01*
X10841287Y-11744860D02*
X10831763Y-11735336D01*
X10831763Y-11735336D02*
X10822239Y-11716288D01*
X10822239Y-11716288D02*
X10812715Y-11678193D01*
X10812715Y-11678193D02*
X10812715Y-11630574D01*
X10812715Y-11630574D02*
X10822239Y-11592479D01*
X10822239Y-11592479D02*
X10831763Y-11573431D01*
X10831763Y-11573431D02*
X10841287Y-11563907D01*
X10841287Y-11563907D02*
X10860334Y-11554384D01*
X11012715Y-11735336D02*
X11022239Y-11744860D01*
X11022239Y-11744860D02*
X11012715Y-11754384D01*
X11012715Y-11754384D02*
X11003191Y-11744860D01*
X11003191Y-11744860D02*
X11012715Y-11735336D01*
X11012715Y-11735336D02*
X11012715Y-11754384D01*
X11146048Y-11554384D02*
X11165096Y-11554384D01*
X11165096Y-11554384D02*
X11184144Y-11563907D01*
X11184144Y-11563907D02*
X11193667Y-11573431D01*
X11193667Y-11573431D02*
X11203191Y-11592479D01*
X11203191Y-11592479D02*
X11212715Y-11630574D01*
X11212715Y-11630574D02*
X11212715Y-11678193D01*
X11212715Y-11678193D02*
X11203191Y-11716288D01*
X11203191Y-11716288D02*
X11193667Y-11735336D01*
X11193667Y-11735336D02*
X11184144Y-11744860D01*
X11184144Y-11744860D02*
X11165096Y-11754384D01*
X11165096Y-11754384D02*
X11146048Y-11754384D01*
X11146048Y-11754384D02*
X11127001Y-11744860D01*
X11127001Y-11744860D02*
X11117477Y-11735336D01*
X11117477Y-11735336D02*
X11107953Y-11716288D01*
X11107953Y-11716288D02*
X11098429Y-11678193D01*
X11098429Y-11678193D02*
X11098429Y-11630574D01*
X11098429Y-11630574D02*
X11107953Y-11592479D01*
X11107953Y-11592479D02*
X11117477Y-11573431D01*
X11117477Y-11573431D02*
X11127001Y-11563907D01*
X11127001Y-11563907D02*
X11146048Y-11554384D01*
X11279382Y-11554384D02*
X11412715Y-11554384D01*
X11412715Y-11554384D02*
X11327001Y-11754384D01*
X11527001Y-11554384D02*
X11546048Y-11554384D01*
X11546048Y-11554384D02*
X11565096Y-11563907D01*
X11565096Y-11563907D02*
X11574620Y-11573431D01*
X11574620Y-11573431D02*
X11584144Y-11592479D01*
X11584144Y-11592479D02*
X11593667Y-11630574D01*
X11593667Y-11630574D02*
X11593667Y-11678193D01*
X11593667Y-11678193D02*
X11584144Y-11716288D01*
X11584144Y-11716288D02*
X11574620Y-11735336D01*
X11574620Y-11735336D02*
X11565096Y-11744860D01*
X11565096Y-11744860D02*
X11546048Y-11754384D01*
X11546048Y-11754384D02*
X11527001Y-11754384D01*
X11527001Y-11754384D02*
X11507953Y-11744860D01*
X11507953Y-11744860D02*
X11498429Y-11735336D01*
X11498429Y-11735336D02*
X11488906Y-11716288D01*
X11488906Y-11716288D02*
X11479382Y-11678193D01*
X11479382Y-11678193D02*
X11479382Y-11630574D01*
X11479382Y-11630574D02*
X11488906Y-11592479D01*
X11488906Y-11592479D02*
X11498429Y-11573431D01*
X11498429Y-11573431D02*
X11507953Y-11563907D01*
X11507953Y-11563907D02*
X11527001Y-11554384D01*
X11688906Y-11754384D02*
X11727001Y-11754384D01*
X11727001Y-11754384D02*
X11746048Y-11744860D01*
X11746048Y-11744860D02*
X11755572Y-11735336D01*
X11755572Y-11735336D02*
X11774620Y-11706765D01*
X11774620Y-11706765D02*
X11784144Y-11668669D01*
X11784144Y-11668669D02*
X11784144Y-11592479D01*
X11784144Y-11592479D02*
X11774620Y-11573431D01*
X11774620Y-11573431D02*
X11765096Y-11563907D01*
X11765096Y-11563907D02*
X11746048Y-11554384D01*
X11746048Y-11554384D02*
X11707953Y-11554384D01*
X11707953Y-11554384D02*
X11688906Y-11563907D01*
X11688906Y-11563907D02*
X11679382Y-11573431D01*
X11679382Y-11573431D02*
X11669858Y-11592479D01*
X11669858Y-11592479D02*
X11669858Y-11640098D01*
X11669858Y-11640098D02*
X11679382Y-11659146D01*
X11679382Y-11659146D02*
X11688906Y-11668669D01*
X11688906Y-11668669D02*
X11707953Y-11678193D01*
X11707953Y-11678193D02*
X11746048Y-11678193D01*
X11746048Y-11678193D02*
X11765096Y-11668669D01*
X11765096Y-11668669D02*
X11774620Y-11659146D01*
X11774620Y-11659146D02*
X11784144Y-11640098D01*
X11860334Y-11554384D02*
X11860334Y-11592479D01*
X11936525Y-11554384D02*
X11936525Y-11592479D01*
X12231763Y-11830574D02*
X12222239Y-11821050D01*
X12222239Y-11821050D02*
X12203191Y-11792479D01*
X12203191Y-11792479D02*
X12193668Y-11773431D01*
X12193668Y-11773431D02*
X12184144Y-11744860D01*
X12184144Y-11744860D02*
X12174620Y-11697241D01*
X12174620Y-11697241D02*
X12174620Y-11659146D01*
X12174620Y-11659146D02*
X12184144Y-11611526D01*
X12184144Y-11611526D02*
X12193668Y-11582955D01*
X12193668Y-11582955D02*
X12203191Y-11563907D01*
X12203191Y-11563907D02*
X12222239Y-11535336D01*
X12222239Y-11535336D02*
X12231763Y-11525812D01*
X12393668Y-11554384D02*
X12355572Y-11554384D01*
X12355572Y-11554384D02*
X12336525Y-11563907D01*
X12336525Y-11563907D02*
X12327001Y-11573431D01*
X12327001Y-11573431D02*
X12307953Y-11602003D01*
X12307953Y-11602003D02*
X12298429Y-11640098D01*
X12298429Y-11640098D02*
X12298429Y-11716288D01*
X12298429Y-11716288D02*
X12307953Y-11735336D01*
X12307953Y-11735336D02*
X12317477Y-11744860D01*
X12317477Y-11744860D02*
X12336525Y-11754384D01*
X12336525Y-11754384D02*
X12374620Y-11754384D01*
X12374620Y-11754384D02*
X12393668Y-11744860D01*
X12393668Y-11744860D02*
X12403191Y-11735336D01*
X12403191Y-11735336D02*
X12412715Y-11716288D01*
X12412715Y-11716288D02*
X12412715Y-11668669D01*
X12412715Y-11668669D02*
X12403191Y-11649622D01*
X12403191Y-11649622D02*
X12393668Y-11640098D01*
X12393668Y-11640098D02*
X12374620Y-11630574D01*
X12374620Y-11630574D02*
X12336525Y-11630574D01*
X12336525Y-11630574D02*
X12317477Y-11640098D01*
X12317477Y-11640098D02*
X12307953Y-11649622D01*
X12307953Y-11649622D02*
X12298429Y-11668669D01*
X12650810Y-11754384D02*
X12650810Y-11554384D01*
X12736525Y-11754384D02*
X12736525Y-11649622D01*
X12736525Y-11649622D02*
X12727001Y-11630574D01*
X12727001Y-11630574D02*
X12707953Y-11621050D01*
X12707953Y-11621050D02*
X12679382Y-11621050D01*
X12679382Y-11621050D02*
X12660334Y-11630574D01*
X12660334Y-11630574D02*
X12650810Y-11640098D01*
X12860334Y-11754384D02*
X12841287Y-11744860D01*
X12841287Y-11744860D02*
X12831763Y-11735336D01*
X12831763Y-11735336D02*
X12822239Y-11716288D01*
X12822239Y-11716288D02*
X12822239Y-11659146D01*
X12822239Y-11659146D02*
X12831763Y-11640098D01*
X12831763Y-11640098D02*
X12841287Y-11630574D01*
X12841287Y-11630574D02*
X12860334Y-11621050D01*
X12860334Y-11621050D02*
X12888906Y-11621050D01*
X12888906Y-11621050D02*
X12907953Y-11630574D01*
X12907953Y-11630574D02*
X12917477Y-11640098D01*
X12917477Y-11640098D02*
X12927001Y-11659146D01*
X12927001Y-11659146D02*
X12927001Y-11716288D01*
X12927001Y-11716288D02*
X12917477Y-11735336D01*
X12917477Y-11735336D02*
X12907953Y-11744860D01*
X12907953Y-11744860D02*
X12888906Y-11754384D01*
X12888906Y-11754384D02*
X12860334Y-11754384D01*
X13041287Y-11754384D02*
X13022239Y-11744860D01*
X13022239Y-11744860D02*
X13012715Y-11725812D01*
X13012715Y-11725812D02*
X13012715Y-11554384D01*
X13193668Y-11744860D02*
X13174620Y-11754384D01*
X13174620Y-11754384D02*
X13136525Y-11754384D01*
X13136525Y-11754384D02*
X13117477Y-11744860D01*
X13117477Y-11744860D02*
X13107953Y-11725812D01*
X13107953Y-11725812D02*
X13107953Y-11649622D01*
X13107953Y-11649622D02*
X13117477Y-11630574D01*
X13117477Y-11630574D02*
X13136525Y-11621050D01*
X13136525Y-11621050D02*
X13174620Y-11621050D01*
X13174620Y-11621050D02*
X13193668Y-11630574D01*
X13193668Y-11630574D02*
X13203191Y-11649622D01*
X13203191Y-11649622D02*
X13203191Y-11668669D01*
X13203191Y-11668669D02*
X13107953Y-11687717D01*
X13279382Y-11744860D02*
X13298430Y-11754384D01*
X13298430Y-11754384D02*
X13336525Y-11754384D01*
X13336525Y-11754384D02*
X13355572Y-11744860D01*
X13355572Y-11744860D02*
X13365096Y-11725812D01*
X13365096Y-11725812D02*
X13365096Y-11716288D01*
X13365096Y-11716288D02*
X13355572Y-11697241D01*
X13355572Y-11697241D02*
X13336525Y-11687717D01*
X13336525Y-11687717D02*
X13307953Y-11687717D01*
X13307953Y-11687717D02*
X13288906Y-11678193D01*
X13288906Y-11678193D02*
X13279382Y-11659146D01*
X13279382Y-11659146D02*
X13279382Y-11649622D01*
X13279382Y-11649622D02*
X13288906Y-11630574D01*
X13288906Y-11630574D02*
X13307953Y-11621050D01*
X13307953Y-11621050D02*
X13336525Y-11621050D01*
X13336525Y-11621050D02*
X13355572Y-11630574D01*
X13431763Y-11830574D02*
X13441287Y-11821050D01*
X13441287Y-11821050D02*
X13460334Y-11792479D01*
X13460334Y-11792479D02*
X13469858Y-11773431D01*
X13469858Y-11773431D02*
X13479382Y-11744860D01*
X13479382Y-11744860D02*
X13488906Y-11697241D01*
X13488906Y-11697241D02*
X13488906Y-11659146D01*
X13488906Y-11659146D02*
X13479382Y-11611526D01*
X13479382Y-11611526D02*
X13469858Y-11582955D01*
X13469858Y-11582955D02*
X13460334Y-11563907D01*
X13460334Y-11563907D02*
X13441287Y-11535336D01*
X13441287Y-11535336D02*
X13431763Y-11525812D01*
M02*
