%TF.GenerationSoftware,KiCad,Pcbnew,9.0.7*%
%TF.CreationDate,2026-02-15T21:55:58-05:00*%
%TF.ProjectId,Photon,50686f74-6f6e-42e6-9b69-6361645f7063,1.4*%
%TF.SameCoordinates,Original*%
%TF.FileFunction,Drillmap*%
%TF.FilePolarity,Positive*%
%FSLAX45Y45*%
G04 Gerber Fmt 4.5, Leading zero omitted, Abs format (unit mm)*
G04 Created by KiCad (PCBNEW 9.0.7) date 2026-02-15 21:55:58*
%MOMM*%
%LPD*%
G01*
G04 APERTURE LIST*
%ADD10C,0.200000*%
G04 APERTURE END LIST*
D10*
X8666700Y-9920900D02*
X8666700Y-3078700D01*
X10490700Y-2778700D02*
G75*
G02*
X10790700Y-3078700I0J-300000D01*
G01*
X10790700Y-9920900D02*
G75*
G02*
X10490700Y-10220900I-300000J0D01*
G01*
X8966700Y-2778700D02*
X10490700Y-2778700D01*
X8966700Y-10220900D02*
G75*
G02*
X8666700Y-9920900I0J300000D01*
G01*
X10790700Y-3078700D02*
X10790700Y-9920900D01*
X8666700Y-3078700D02*
G75*
G02*
X8966700Y-2778700I300000J0D01*
G01*
X10490700Y-10220900D02*
X8966700Y-10220900D01*
X8917477Y-10542384D02*
X8917477Y-10342384D01*
X8917477Y-10342384D02*
X8965096Y-10342384D01*
X8965096Y-10342384D02*
X8993667Y-10351908D01*
X8993667Y-10351908D02*
X9012715Y-10370955D01*
X9012715Y-10370955D02*
X9022239Y-10390003D01*
X9022239Y-10390003D02*
X9031763Y-10428098D01*
X9031763Y-10428098D02*
X9031763Y-10456669D01*
X9031763Y-10456669D02*
X9022239Y-10494765D01*
X9022239Y-10494765D02*
X9012715Y-10513812D01*
X9012715Y-10513812D02*
X8993667Y-10532860D01*
X8993667Y-10532860D02*
X8965096Y-10542384D01*
X8965096Y-10542384D02*
X8917477Y-10542384D01*
X9117477Y-10542384D02*
X9117477Y-10409050D01*
X9117477Y-10447146D02*
X9127001Y-10428098D01*
X9127001Y-10428098D02*
X9136524Y-10418574D01*
X9136524Y-10418574D02*
X9155572Y-10409050D01*
X9155572Y-10409050D02*
X9174620Y-10409050D01*
X9241286Y-10542384D02*
X9241286Y-10409050D01*
X9241286Y-10342384D02*
X9231763Y-10351908D01*
X9231763Y-10351908D02*
X9241286Y-10361431D01*
X9241286Y-10361431D02*
X9250810Y-10351908D01*
X9250810Y-10351908D02*
X9241286Y-10342384D01*
X9241286Y-10342384D02*
X9241286Y-10361431D01*
X9365096Y-10542384D02*
X9346048Y-10532860D01*
X9346048Y-10532860D02*
X9336524Y-10513812D01*
X9336524Y-10513812D02*
X9336524Y-10342384D01*
X9469858Y-10542384D02*
X9450810Y-10532860D01*
X9450810Y-10532860D02*
X9441286Y-10513812D01*
X9441286Y-10513812D02*
X9441286Y-10342384D01*
X9698429Y-10542384D02*
X9698429Y-10342384D01*
X9698429Y-10342384D02*
X9765096Y-10485241D01*
X9765096Y-10485241D02*
X9831763Y-10342384D01*
X9831763Y-10342384D02*
X9831763Y-10542384D01*
X10012715Y-10542384D02*
X10012715Y-10437622D01*
X10012715Y-10437622D02*
X10003191Y-10418574D01*
X10003191Y-10418574D02*
X9984144Y-10409050D01*
X9984144Y-10409050D02*
X9946048Y-10409050D01*
X9946048Y-10409050D02*
X9927001Y-10418574D01*
X10012715Y-10532860D02*
X9993667Y-10542384D01*
X9993667Y-10542384D02*
X9946048Y-10542384D01*
X9946048Y-10542384D02*
X9927001Y-10532860D01*
X9927001Y-10532860D02*
X9917477Y-10513812D01*
X9917477Y-10513812D02*
X9917477Y-10494765D01*
X9917477Y-10494765D02*
X9927001Y-10475717D01*
X9927001Y-10475717D02*
X9946048Y-10466193D01*
X9946048Y-10466193D02*
X9993667Y-10466193D01*
X9993667Y-10466193D02*
X10012715Y-10456669D01*
X10107953Y-10409050D02*
X10107953Y-10609050D01*
X10107953Y-10418574D02*
X10127001Y-10409050D01*
X10127001Y-10409050D02*
X10165096Y-10409050D01*
X10165096Y-10409050D02*
X10184144Y-10418574D01*
X10184144Y-10418574D02*
X10193667Y-10428098D01*
X10193667Y-10428098D02*
X10203191Y-10447146D01*
X10203191Y-10447146D02*
X10203191Y-10504288D01*
X10203191Y-10504288D02*
X10193667Y-10523336D01*
X10193667Y-10523336D02*
X10184144Y-10532860D01*
X10184144Y-10532860D02*
X10165096Y-10542384D01*
X10165096Y-10542384D02*
X10127001Y-10542384D01*
X10127001Y-10542384D02*
X10107953Y-10532860D01*
X10288905Y-10523336D02*
X10298429Y-10532860D01*
X10298429Y-10532860D02*
X10288905Y-10542384D01*
X10288905Y-10542384D02*
X10279382Y-10532860D01*
X10279382Y-10532860D02*
X10288905Y-10523336D01*
X10288905Y-10523336D02*
X10288905Y-10542384D01*
X10288905Y-10418574D02*
X10298429Y-10428098D01*
X10298429Y-10428098D02*
X10288905Y-10437622D01*
X10288905Y-10437622D02*
X10279382Y-10428098D01*
X10279382Y-10428098D02*
X10288905Y-10418574D01*
X10288905Y-10418574D02*
X10288905Y-10437622D01*
M02*
