M48
INCH
T1C0.0118
T2C0.0197
T3C0.0394
T4C0.0709
%
G90
G05
T1
X1.5744Y-1.3576
X1.5744Y-1.4176
X1.5844Y-1.0376
X1.5844Y-1.0976
X1.5944Y-2.1876
X1.6339Y-2.9124
X1.6689Y-3.0826
X1.6743Y-2.1876
X1.6772Y-1.6959
X1.7198Y-2.2476
X1.7244Y-2.7476
X1.7244Y-2.6841
X1.7244Y-2.9045
X1.7399Y-3.0826
X1.7402Y-2.2982
X1.7402Y-2.6171
X1.7499Y-3.2476
X1.752Y-1.9478
X1.7544Y-1.4576
X1.7559Y-2.8022
X1.7944Y-2.0675
X1.811Y-2.3061
X1.811Y-2.8691
X1.8147Y-2.1735
X1.8379Y-1.0932
X1.8644Y-2.1076
X1.874Y-2.1683
X1.8819Y-2.5742
X1.8844Y-1.0932
X1.8858Y-2.7707
X1.8858Y-2.8258
X1.8944Y-2.3276
X1.9134Y-2.7037
X1.9344Y-3.1876
X1.9409Y-2.6526
X1.9409Y-3.7982
X1.9449Y-2.1676
X1.9449Y-2.7982
X1.9462Y-1.4235
X1.9462Y-3.3676
X1.9462Y-3.5061
X1.9462Y-3.5691
X1.9488Y-2.5463
X1.9488Y-2.5935
X1.9844Y-2.1076
X1.9844Y-2.4076
X1.9844Y-2.4476
X1.9961Y-2.6496
X2.0061Y-1.0932
X2.0354Y-2.7982
X2.0444Y-2.3376
X2.0544Y-1.0932
X2.0751Y-1.2756
X2.0844Y-3.2776
X2.0992Y-3.5011
X2.1084Y-1.3676
X2.1084Y-1.4876
X2.1344Y-2.4876
X2.1344Y-3.0376
X2.1785Y-1.3588
X2.2144Y-3.3776
X2.2332Y-1.3588
X2.2444Y-3.0376
X2.2544Y-1.4876
X2.3244Y-1.8476
X2.3244Y-2.9754
X2.3244Y-3.2776
T3
X1.6065Y-2.4476
X1.6065Y-2.6476
X1.6065Y-2.8476
X1.6222Y-2.5476
X1.6222Y-2.7476
T4
X1.8478Y-1.587
X1.8478Y-3.398
X1.9462Y-1.2878
X1.9462Y-3.6972
X2.0446Y-1.587
X2.0446Y-3.398
T2
G00X1.7761Y-0.9999
M15
G01X1.7761Y-0.9724
M16
G05
G00X1.7761Y-1.1495
M15
G01X1.7761Y-1.122
M16
G05
G00X2.1163Y-0.9999
M15
G01X2.1163Y-0.9724
M16
G05
G00X2.1163Y-1.1495
M15
G01X2.1163Y-1.122
M16
G05
M30
