%TF.GenerationSoftware,KiCad,Pcbnew,9.0.7*%
%TF.CreationDate,2026-02-15T21:55:51-05:00*%
%TF.ProjectId,Photon,50686f74-6f6e-42e6-9b69-6361645f7063,1.4*%
%TF.SameCoordinates,Original*%
%TF.FileFunction,Paste,Top*%
%TF.FilePolarity,Positive*%
%FSLAX46Y46*%
G04 Gerber Fmt 4.6, Leading zero omitted, Abs format (unit mm)*
G04 Created by KiCad (PCBNEW 9.0.7) date 2026-02-15 21:55:51*
%MOMM*%
%LPD*%
G01*
G04 APERTURE LIST*
G04 Aperture macros list*
%AMRoundRect*
0 Rectangle with rounded corners*
0 $1 Rounding radius*
0 $2 $3 $4 $5 $6 $7 $8 $9 X,Y pos of 4 corners*
0 Add a 4 corners polygon primitive as box body*
4,1,4,$2,$3,$4,$5,$6,$7,$8,$9,$2,$3,0*
0 Add four circle primitives for the rounded corners*
1,1,$1+$1,$2,$3*
1,1,$1+$1,$4,$5*
1,1,$1+$1,$6,$7*
1,1,$1+$1,$8,$9*
0 Add four rect primitives between the rounded corners*
20,1,$1+$1,$2,$3,$4,$5,0*
20,1,$1+$1,$4,$5,$6,$7,0*
20,1,$1+$1,$6,$7,$8,$9,0*
20,1,$1+$1,$8,$9,$2,$3,0*%
G04 Aperture macros list end*
%ADD10RoundRect,0.100000X0.637500X0.100000X-0.637500X0.100000X-0.637500X-0.100000X0.637500X-0.100000X0*%
%ADD11RoundRect,0.250000X-0.475000X0.250000X-0.475000X-0.250000X0.475000X-0.250000X0.475000X0.250000X0*%
%ADD12RoundRect,0.225000X0.250000X-0.225000X0.250000X0.225000X-0.250000X0.225000X-0.250000X-0.225000X0*%
%ADD13RoundRect,0.225000X0.225000X0.250000X-0.225000X0.250000X-0.225000X-0.250000X0.225000X-0.250000X0*%
%ADD14RoundRect,0.175000X0.175000X0.625000X-0.175000X0.625000X-0.175000X-0.625000X0.175000X-0.625000X0*%
%ADD15RoundRect,0.200000X0.200000X0.600000X-0.200000X0.600000X-0.200000X-0.600000X0.200000X-0.600000X0*%
%ADD16RoundRect,0.225000X0.225000X0.575000X-0.225000X0.575000X-0.225000X-0.575000X0.225000X-0.575000X0*%
%ADD17RoundRect,0.150000X0.512500X0.150000X-0.512500X0.150000X-0.512500X-0.150000X0.512500X-0.150000X0*%
%ADD18RoundRect,0.200000X-0.200000X-0.275000X0.200000X-0.275000X0.200000X0.275000X-0.200000X0.275000X0*%
%ADD19RoundRect,0.225000X-0.225000X-0.250000X0.225000X-0.250000X0.225000X0.250000X-0.225000X0.250000X0*%
%ADD20RoundRect,0.150000X-0.512500X-0.150000X0.512500X-0.150000X0.512500X0.150000X-0.512500X0.150000X0*%
%ADD21RoundRect,0.200000X0.200000X0.275000X-0.200000X0.275000X-0.200000X-0.275000X0.200000X-0.275000X0*%
%ADD22RoundRect,0.044000X-0.176000X0.221000X-0.176000X-0.221000X0.176000X-0.221000X0.176000X0.221000X0*%
%ADD23RoundRect,0.088000X-0.352000X0.412000X-0.352000X-0.412000X0.352000X-0.412000X0.352000X0.412000X0*%
%ADD24RoundRect,0.105000X-0.420000X-0.895000X0.420000X-0.895000X0.420000X0.895000X-0.420000X0.895000X0*%
%ADD25RoundRect,0.200000X-0.275000X0.200000X-0.275000X-0.200000X0.275000X-0.200000X0.275000X0.200000X0*%
%ADD26RoundRect,0.150000X-0.150000X0.587500X-0.150000X-0.587500X0.150000X-0.587500X0.150000X0.587500X0*%
%ADD27RoundRect,0.120000X1.230000X-0.280000X1.230000X0.280000X-1.230000X0.280000X-1.230000X-0.280000X0*%
%ADD28RoundRect,0.200000X0.275000X-0.200000X0.275000X0.200000X-0.275000X0.200000X-0.275000X-0.200000X0*%
%ADD29RoundRect,0.255000X0.945000X0.595000X-0.945000X0.595000X-0.945000X-0.595000X0.945000X-0.595000X0*%
%ADD30RoundRect,0.242500X-0.242500X-0.422500X0.242500X-0.422500X0.242500X0.422500X-0.242500X0.422500X0*%
%ADD31RoundRect,0.150000X-0.825000X-0.150000X0.825000X-0.150000X0.825000X0.150000X-0.825000X0.150000X0*%
%ADD32RoundRect,0.150000X0.150000X-0.587500X0.150000X0.587500X-0.150000X0.587500X-0.150000X-0.587500X0*%
G04 APERTURE END LIST*
D10*
%TO.C,U1*%
X94250000Y-74125000D03*
X94250000Y-73475000D03*
X94250000Y-72825000D03*
X94250000Y-72175000D03*
X94250000Y-71525000D03*
X94250000Y-70875000D03*
X94250000Y-70225000D03*
X94250000Y-69575000D03*
X94250000Y-68925000D03*
X94250000Y-68275000D03*
X99975000Y-68275000D03*
X99975000Y-68925000D03*
X99975000Y-69575000D03*
X99975000Y-70225000D03*
X99975000Y-70875000D03*
X99975000Y-71525000D03*
X99975000Y-72175000D03*
X99975000Y-72825000D03*
X99975000Y-73475000D03*
X99975000Y-74125000D03*
%TD*%
D11*
%TO.C,C1*%
X103800000Y-72175000D03*
X103800000Y-70275000D03*
%TD*%
D12*
%TO.C,C2*%
X102100000Y-70625000D03*
X102100000Y-72175000D03*
%TD*%
D13*
%TO.C,C4*%
X95535000Y-60426000D03*
X93985000Y-60426000D03*
%TD*%
D14*
%TO.C,J1*%
X97833800Y-33253000D03*
D15*
X95813800Y-33253000D03*
D16*
X94583800Y-33253000D03*
D14*
X96833800Y-33253000D03*
D15*
X98853800Y-33253000D03*
D16*
X100083800Y-33253000D03*
%TD*%
D17*
%TO.C,U5*%
X101218500Y-95831000D03*
X101218500Y-94881000D03*
X101218500Y-93931000D03*
X98943500Y-93931000D03*
X98943500Y-94881000D03*
X98943500Y-95831000D03*
%TD*%
D13*
%TO.C,C6*%
X93757000Y-64617000D03*
X92207000Y-64617000D03*
%TD*%
D17*
%TO.C,U4*%
X95884500Y-95831000D03*
X95884500Y-94881000D03*
X95884500Y-93931000D03*
X93609500Y-93931000D03*
X93609500Y-94881000D03*
X93609500Y-95831000D03*
%TD*%
D18*
%TO.C,R10*%
X95459000Y-66395000D03*
X97109000Y-66395000D03*
%TD*%
D19*
%TO.C,C7*%
X97287000Y-60426000D03*
X98837000Y-60426000D03*
%TD*%
D18*
%TO.C,R7*%
X89033000Y-41757000D03*
X90683000Y-41757000D03*
%TD*%
D20*
%TO.C,U6*%
X89242428Y-50649724D03*
X89242428Y-51599724D03*
X89242428Y-52549724D03*
X91517428Y-52549724D03*
X91517428Y-51599724D03*
X91517428Y-50649724D03*
%TD*%
D21*
%TO.C,R2*%
X90746000Y-32105000D03*
X89096000Y-32105000D03*
%TD*%
D22*
%TO.C,D1*%
X106431000Y-39295500D03*
X106431000Y-38515500D03*
D23*
X106431000Y-40350500D03*
X106431000Y-37450500D03*
%TD*%
D21*
%TO.C,R1*%
X90746000Y-30581000D03*
X89096000Y-30581000D03*
%TD*%
D18*
%TO.C,R15*%
X94176000Y-85191000D03*
X95826000Y-85191000D03*
%TD*%
D24*
%TO.C,SW1*%
X95001000Y-87477000D03*
X99446000Y-87477000D03*
%TD*%
D25*
%TO.C,R4*%
X92461000Y-38630000D03*
X92461000Y-40280000D03*
%TD*%
D18*
%TO.C,R3*%
X102436400Y-36423000D03*
X104086400Y-36423000D03*
%TD*%
D26*
%TO.C,Q2*%
X100065800Y-47296500D03*
X98165800Y-47296500D03*
X99115800Y-49171500D03*
%TD*%
D20*
%TO.C,U7*%
X90072500Y-83714000D03*
X90072500Y-84664000D03*
X90072500Y-85614000D03*
X92347500Y-85614000D03*
X92347500Y-84664000D03*
X92347500Y-83714000D03*
%TD*%
D25*
%TO.C,R11*%
X91343400Y-90716000D03*
X91343400Y-92366000D03*
%TD*%
D21*
%TO.C,R8*%
X90683000Y-40233000D03*
X89033000Y-40233000D03*
%TD*%
D27*
%TO.C,L1*%
X101493386Y-62610400D03*
X101493386Y-60299000D03*
%TD*%
D28*
%TO.C,R5*%
X100335000Y-66204000D03*
X100335000Y-64554000D03*
%TD*%
%TO.C,R14*%
X103383000Y-95756800D03*
X103383000Y-94106800D03*
%TD*%
D29*
%TO.C,D2*%
X91064000Y-55246000D03*
X103764000Y-53722000D03*
%TD*%
D12*
%TO.C,C8*%
X91343400Y-95706800D03*
X91343400Y-94156800D03*
%TD*%
D25*
%TO.C,R6*%
X102113000Y-64554000D03*
X102113000Y-66204000D03*
%TD*%
D18*
%TO.C,R9*%
X92157000Y-66395000D03*
X93807000Y-66395000D03*
%TD*%
D25*
%TO.C,R13*%
X97333800Y-90716000D03*
X97333800Y-92366000D03*
%TD*%
D17*
%TO.C,U3*%
X98344500Y-64358000D03*
X98344500Y-63408000D03*
X98344500Y-62458000D03*
X96069500Y-62458000D03*
X96069500Y-64358000D03*
%TD*%
D28*
%TO.C,R12*%
X91699000Y-48932000D03*
X91699000Y-47282000D03*
%TD*%
D30*
%TO.C,U2*%
X96733800Y-39556400D03*
X96733800Y-41206400D03*
X97933800Y-39556400D03*
X97933800Y-41206400D03*
D31*
X94858800Y-38476400D03*
X94858800Y-39746400D03*
X94858800Y-41016400D03*
X94858800Y-42286400D03*
X99808800Y-42286400D03*
X99808800Y-41016400D03*
X99808800Y-39746400D03*
X99808800Y-38476400D03*
%TD*%
D29*
%TO.C,D3*%
X91064000Y-80873000D03*
X103764000Y-79349000D03*
%TD*%
D13*
%TO.C,C5*%
X104056400Y-42096600D03*
X102506400Y-42096600D03*
%TD*%
D32*
%TO.C,Q1*%
X93543000Y-49171500D03*
X95443000Y-49171500D03*
X94493000Y-47296500D03*
%TD*%
D19*
%TO.C,C3*%
X89083000Y-38693000D03*
X90633000Y-38693000D03*
%TD*%
M02*
