M48
INCH
T1C0.0118
T2C0.0197
T3C0.0394
T4C0.0709
%
G90
G05
T1
X3.4602Y-1.524
X3.4602Y-1.584
X3.4702Y-1.204
X3.4702Y-1.264
X3.4802Y-2.354
X3.5197Y-3.0787
X3.5548Y-3.249
X3.5601Y-2.3539
X3.563Y-1.8622
X3.6056Y-2.414
X3.6102Y-2.914
X3.6102Y-2.8504
X3.6102Y-3.0709
X3.6258Y-3.249
X3.626Y-2.4646
X3.626Y-2.7835
X3.6357Y-3.414
X3.6378Y-2.1142
X3.6402Y-1.624
X3.6417Y-2.9685
X3.6802Y-2.2339
X3.6969Y-2.4724
X3.6969Y-3.0354
X3.7005Y-2.3399
X3.7238Y-1.2596
X3.7502Y-2.274
X3.7598Y-2.3346
X3.7677Y-2.7405
X3.7702Y-1.2596
X3.7717Y-2.937
X3.7717Y-2.9921
X3.7802Y-2.494
X3.7992Y-2.8701
X3.8202Y-3.354
X3.8268Y-2.8189
X3.8268Y-3.9646
X3.8307Y-2.3339
X3.8307Y-2.9646
X3.832Y-1.5898
X3.832Y-3.534
X3.832Y-3.6725
X3.832Y-3.7355
X3.8346Y-2.7126
X3.8346Y-2.7598
X3.8702Y-2.274
X3.8702Y-2.574
X3.8702Y-2.614
X3.8819Y-2.8159
X3.8919Y-1.2596
X3.9213Y-2.9646
X3.9302Y-2.504
X3.9402Y-1.2596
X3.961Y-1.442
X3.9702Y-3.444
X3.985Y-3.6675
X3.9942Y-1.534
X3.9942Y-1.654
X4.0202Y-2.654
X4.0202Y-3.204
X4.0643Y-1.5251
X4.1002Y-3.544
X4.1191Y-1.5251
X4.1302Y-3.204
X4.1402Y-1.654
X4.2102Y-2.014
X4.2102Y-3.1417
X4.2102Y-3.444
T3
X3.4923Y-2.614
X3.4923Y-2.814
X3.4923Y-3.014
X3.5081Y-2.714
X3.5081Y-2.914
T4
X3.7336Y-1.7533
X3.7336Y-3.5644
X3.832Y-1.4541
X3.832Y-3.8636
X3.9305Y-1.7533
X3.9305Y-3.5644
T2
G00X3.662Y-1.1663
M15
G01X3.662Y-1.1387
M16
G05
G00X3.662Y-1.3159
M15
G01X3.662Y-1.2883
M16
G05
G00X4.0021Y-1.1663
M15
G01X4.0021Y-1.1387
M16
G05
G00X4.0021Y-1.3159
M15
G01X4.0021Y-1.2883
M16
G05
M30
