%TF.GenerationSoftware,KiCad,Pcbnew,9.0.7*%
%TF.CreationDate,2026-02-15T21:55:52-05:00*%
%TF.ProjectId,Photon,50686f74-6f6e-42e6-9b69-6361645f7063,1.4*%
%TF.SameCoordinates,Original*%
%TF.FileFunction,Soldermask,Top*%
%TF.FilePolarity,Negative*%
%FSLAX46Y46*%
G04 Gerber Fmt 4.6, Leading zero omitted, Abs format (unit mm)*
G04 Created by KiCad (PCBNEW 9.0.7) date 2026-02-15 21:55:52*
%MOMM*%
%LPD*%
G01*
G04 APERTURE LIST*
G04 APERTURE END LIST*
G36*
X97683968Y-96676445D02*
G01*
X97907825Y-96749181D01*
X98117548Y-96856040D01*
X98307972Y-96994391D01*
X98474409Y-97160828D01*
X98612760Y-97351252D01*
X98719619Y-97560975D01*
X98792355Y-97784832D01*
X98829176Y-98017311D01*
X98829176Y-98252689D01*
X98792355Y-98485168D01*
X98719619Y-98709025D01*
X98612760Y-98918748D01*
X98474409Y-99109172D01*
X98307972Y-99275609D01*
X98117548Y-99413960D01*
X97907825Y-99520819D01*
X97683968Y-99593555D01*
X97451489Y-99630376D01*
X97216111Y-99630376D01*
X96983632Y-99593555D01*
X96759775Y-99520819D01*
X96550052Y-99413960D01*
X96359628Y-99275609D01*
X96193191Y-99109172D01*
X96054840Y-98918748D01*
X95947981Y-98709025D01*
X95875245Y-98485168D01*
X95838424Y-98252689D01*
X95838424Y-98017311D01*
X95875245Y-97784832D01*
X95947981Y-97560975D01*
X96054840Y-97351252D01*
X96193191Y-97160828D01*
X96359628Y-96994391D01*
X96550052Y-96856040D01*
X96759775Y-96749181D01*
X96983632Y-96676445D01*
X97216111Y-96639624D01*
X97451489Y-96639624D01*
X97683968Y-96676445D01*
G37*
G36*
X88868714Y-97173295D02*
G01*
X89004548Y-97229559D01*
X89126795Y-97311242D01*
X89230758Y-97415205D01*
X89312441Y-97537452D01*
X89368705Y-97673286D01*
X89397389Y-97817487D01*
X89397389Y-97964513D01*
X89368705Y-98108714D01*
X89312441Y-98244548D01*
X89230758Y-98366795D01*
X89126795Y-98470758D01*
X89004548Y-98552441D01*
X88868714Y-98608705D01*
X88724513Y-98637389D01*
X88577487Y-98637389D01*
X88433286Y-98608705D01*
X88297452Y-98552441D01*
X88175205Y-98470758D01*
X88071242Y-98366795D01*
X87989559Y-98244548D01*
X87933295Y-98108714D01*
X87904611Y-97964513D01*
X87904611Y-97817487D01*
X87933295Y-97673286D01*
X87989559Y-97537452D01*
X88071242Y-97415205D01*
X88175205Y-97311242D01*
X88297452Y-97229559D01*
X88433286Y-97173295D01*
X88577487Y-97144611D01*
X88724513Y-97144611D01*
X88868714Y-97173295D01*
G37*
G36*
X91679504Y-95273927D02*
G01*
X91752499Y-95322701D01*
X91801273Y-95395696D01*
X91818400Y-95481800D01*
X91818400Y-95931800D01*
X91801273Y-96017904D01*
X91752499Y-96090899D01*
X91679504Y-96139673D01*
X91593400Y-96156800D01*
X91093400Y-96156800D01*
X91007296Y-96139673D01*
X90934301Y-96090899D01*
X90885527Y-96017904D01*
X90868400Y-95931800D01*
X90868400Y-95481800D01*
X90885527Y-95395696D01*
X90934301Y-95322701D01*
X91007296Y-95273927D01*
X91093400Y-95256800D01*
X91593400Y-95256800D01*
X91679504Y-95273927D01*
G37*
G36*
X103734537Y-95372024D02*
G01*
X103799421Y-95415379D01*
X103842776Y-95480263D01*
X103858000Y-95556800D01*
X103858000Y-95956800D01*
X103842776Y-96033337D01*
X103799421Y-96098221D01*
X103734537Y-96141576D01*
X103658000Y-96156800D01*
X103108000Y-96156800D01*
X103031463Y-96141576D01*
X102966579Y-96098221D01*
X102923224Y-96033337D01*
X102908000Y-95956800D01*
X102908000Y-95556800D01*
X102923224Y-95480263D01*
X102966579Y-95415379D01*
X103031463Y-95372024D01*
X103108000Y-95356800D01*
X103658000Y-95356800D01*
X103734537Y-95372024D01*
G37*
G36*
X94179403Y-95542418D02*
G01*
X94228066Y-95574934D01*
X94260582Y-95623597D01*
X94272000Y-95681000D01*
X94272000Y-95981000D01*
X94260582Y-96038403D01*
X94228066Y-96087066D01*
X94179403Y-96119582D01*
X94122000Y-96131000D01*
X93097000Y-96131000D01*
X93039597Y-96119582D01*
X92990934Y-96087066D01*
X92958418Y-96038403D01*
X92947000Y-95981000D01*
X92947000Y-95681000D01*
X92958418Y-95623597D01*
X92990934Y-95574934D01*
X93039597Y-95542418D01*
X93097000Y-95531000D01*
X94122000Y-95531000D01*
X94179403Y-95542418D01*
G37*
G36*
X96454403Y-95542418D02*
G01*
X96503066Y-95574934D01*
X96535582Y-95623597D01*
X96547000Y-95681000D01*
X96547000Y-95981000D01*
X96535582Y-96038403D01*
X96503066Y-96087066D01*
X96454403Y-96119582D01*
X96397000Y-96131000D01*
X95372000Y-96131000D01*
X95314597Y-96119582D01*
X95265934Y-96087066D01*
X95233418Y-96038403D01*
X95222000Y-95981000D01*
X95222000Y-95681000D01*
X95233418Y-95623597D01*
X95265934Y-95574934D01*
X95314597Y-95542418D01*
X95372000Y-95531000D01*
X96397000Y-95531000D01*
X96454403Y-95542418D01*
G37*
G36*
X99513403Y-95542418D02*
G01*
X99562066Y-95574934D01*
X99594582Y-95623597D01*
X99606000Y-95681000D01*
X99606000Y-95981000D01*
X99594582Y-96038403D01*
X99562066Y-96087066D01*
X99513403Y-96119582D01*
X99456000Y-96131000D01*
X98431000Y-96131000D01*
X98373597Y-96119582D01*
X98324934Y-96087066D01*
X98292418Y-96038403D01*
X98281000Y-95981000D01*
X98281000Y-95681000D01*
X98292418Y-95623597D01*
X98324934Y-95574934D01*
X98373597Y-95542418D01*
X98431000Y-95531000D01*
X99456000Y-95531000D01*
X99513403Y-95542418D01*
G37*
G36*
X101788403Y-95542418D02*
G01*
X101837066Y-95574934D01*
X101869582Y-95623597D01*
X101881000Y-95681000D01*
X101881000Y-95981000D01*
X101869582Y-96038403D01*
X101837066Y-96087066D01*
X101788403Y-96119582D01*
X101731000Y-96131000D01*
X100706000Y-96131000D01*
X100648597Y-96119582D01*
X100599934Y-96087066D01*
X100567418Y-96038403D01*
X100556000Y-95981000D01*
X100556000Y-95681000D01*
X100567418Y-95623597D01*
X100599934Y-95574934D01*
X100648597Y-95542418D01*
X100706000Y-95531000D01*
X101731000Y-95531000D01*
X101788403Y-95542418D01*
G37*
G36*
X94179403Y-94592418D02*
G01*
X94228066Y-94624934D01*
X94260582Y-94673597D01*
X94272000Y-94731000D01*
X94272000Y-95031000D01*
X94260582Y-95088403D01*
X94228066Y-95137066D01*
X94179403Y-95169582D01*
X94122000Y-95181000D01*
X93097000Y-95181000D01*
X93039597Y-95169582D01*
X92990934Y-95137066D01*
X92958418Y-95088403D01*
X92947000Y-95031000D01*
X92947000Y-94731000D01*
X92958418Y-94673597D01*
X92990934Y-94624934D01*
X93039597Y-94592418D01*
X93097000Y-94581000D01*
X94122000Y-94581000D01*
X94179403Y-94592418D01*
G37*
G36*
X96454403Y-94592418D02*
G01*
X96503066Y-94624934D01*
X96535582Y-94673597D01*
X96547000Y-94731000D01*
X96547000Y-95031000D01*
X96535582Y-95088403D01*
X96503066Y-95137066D01*
X96454403Y-95169582D01*
X96397000Y-95181000D01*
X95372000Y-95181000D01*
X95314597Y-95169582D01*
X95265934Y-95137066D01*
X95233418Y-95088403D01*
X95222000Y-95031000D01*
X95222000Y-94731000D01*
X95233418Y-94673597D01*
X95265934Y-94624934D01*
X95314597Y-94592418D01*
X95372000Y-94581000D01*
X96397000Y-94581000D01*
X96454403Y-94592418D01*
G37*
G36*
X99513403Y-94592418D02*
G01*
X99562066Y-94624934D01*
X99594582Y-94673597D01*
X99606000Y-94731000D01*
X99606000Y-95031000D01*
X99594582Y-95088403D01*
X99562066Y-95137066D01*
X99513403Y-95169582D01*
X99456000Y-95181000D01*
X98431000Y-95181000D01*
X98373597Y-95169582D01*
X98324934Y-95137066D01*
X98292418Y-95088403D01*
X98281000Y-95031000D01*
X98281000Y-94731000D01*
X98292418Y-94673597D01*
X98324934Y-94624934D01*
X98373597Y-94592418D01*
X98431000Y-94581000D01*
X99456000Y-94581000D01*
X99513403Y-94592418D01*
G37*
G36*
X101788403Y-94592418D02*
G01*
X101837066Y-94624934D01*
X101869582Y-94673597D01*
X101881000Y-94731000D01*
X101881000Y-95031000D01*
X101869582Y-95088403D01*
X101837066Y-95137066D01*
X101788403Y-95169582D01*
X101731000Y-95181000D01*
X100706000Y-95181000D01*
X100648597Y-95169582D01*
X100599934Y-95137066D01*
X100567418Y-95088403D01*
X100556000Y-95031000D01*
X100556000Y-94731000D01*
X100567418Y-94673597D01*
X100599934Y-94624934D01*
X100648597Y-94592418D01*
X100706000Y-94581000D01*
X101731000Y-94581000D01*
X101788403Y-94592418D01*
G37*
G36*
X91679504Y-93723927D02*
G01*
X91752499Y-93772701D01*
X91801273Y-93845696D01*
X91818400Y-93931800D01*
X91818400Y-94381800D01*
X91801273Y-94467904D01*
X91752499Y-94540899D01*
X91679504Y-94589673D01*
X91593400Y-94606800D01*
X91093400Y-94606800D01*
X91007296Y-94589673D01*
X90934301Y-94540899D01*
X90885527Y-94467904D01*
X90868400Y-94381800D01*
X90868400Y-93931800D01*
X90885527Y-93845696D01*
X90934301Y-93772701D01*
X91007296Y-93723927D01*
X91093400Y-93706800D01*
X91593400Y-93706800D01*
X91679504Y-93723927D01*
G37*
G36*
X103734537Y-93722024D02*
G01*
X103799421Y-93765379D01*
X103842776Y-93830263D01*
X103858000Y-93906800D01*
X103858000Y-94306800D01*
X103842776Y-94383337D01*
X103799421Y-94448221D01*
X103734537Y-94491576D01*
X103658000Y-94506800D01*
X103108000Y-94506800D01*
X103031463Y-94491576D01*
X102966579Y-94448221D01*
X102923224Y-94383337D01*
X102908000Y-94306800D01*
X102908000Y-93906800D01*
X102923224Y-93830263D01*
X102966579Y-93765379D01*
X103031463Y-93722024D01*
X103108000Y-93706800D01*
X103658000Y-93706800D01*
X103734537Y-93722024D01*
G37*
G36*
X94179403Y-93642418D02*
G01*
X94228066Y-93674934D01*
X94260582Y-93723597D01*
X94272000Y-93781000D01*
X94272000Y-94081000D01*
X94260582Y-94138403D01*
X94228066Y-94187066D01*
X94179403Y-94219582D01*
X94122000Y-94231000D01*
X93097000Y-94231000D01*
X93039597Y-94219582D01*
X92990934Y-94187066D01*
X92958418Y-94138403D01*
X92947000Y-94081000D01*
X92947000Y-93781000D01*
X92958418Y-93723597D01*
X92990934Y-93674934D01*
X93039597Y-93642418D01*
X93097000Y-93631000D01*
X94122000Y-93631000D01*
X94179403Y-93642418D01*
G37*
G36*
X96454403Y-93642418D02*
G01*
X96503066Y-93674934D01*
X96535582Y-93723597D01*
X96547000Y-93781000D01*
X96547000Y-94081000D01*
X96535582Y-94138403D01*
X96503066Y-94187066D01*
X96454403Y-94219582D01*
X96397000Y-94231000D01*
X95372000Y-94231000D01*
X95314597Y-94219582D01*
X95265934Y-94187066D01*
X95233418Y-94138403D01*
X95222000Y-94081000D01*
X95222000Y-93781000D01*
X95233418Y-93723597D01*
X95265934Y-93674934D01*
X95314597Y-93642418D01*
X95372000Y-93631000D01*
X96397000Y-93631000D01*
X96454403Y-93642418D01*
G37*
G36*
X99513403Y-93642418D02*
G01*
X99562066Y-93674934D01*
X99594582Y-93723597D01*
X99606000Y-93781000D01*
X99606000Y-94081000D01*
X99594582Y-94138403D01*
X99562066Y-94187066D01*
X99513403Y-94219582D01*
X99456000Y-94231000D01*
X98431000Y-94231000D01*
X98373597Y-94219582D01*
X98324934Y-94187066D01*
X98292418Y-94138403D01*
X98281000Y-94081000D01*
X98281000Y-93781000D01*
X98292418Y-93723597D01*
X98324934Y-93674934D01*
X98373597Y-93642418D01*
X98431000Y-93631000D01*
X99456000Y-93631000D01*
X99513403Y-93642418D01*
G37*
G36*
X101788403Y-93642418D02*
G01*
X101837066Y-93674934D01*
X101869582Y-93723597D01*
X101881000Y-93781000D01*
X101881000Y-94081000D01*
X101869582Y-94138403D01*
X101837066Y-94187066D01*
X101788403Y-94219582D01*
X101731000Y-94231000D01*
X100706000Y-94231000D01*
X100648597Y-94219582D01*
X100599934Y-94187066D01*
X100567418Y-94138403D01*
X100556000Y-94081000D01*
X100556000Y-93781000D01*
X100567418Y-93723597D01*
X100599934Y-93674934D01*
X100648597Y-93642418D01*
X100706000Y-93631000D01*
X101731000Y-93631000D01*
X101788403Y-93642418D01*
G37*
G36*
X91694937Y-91981224D02*
G01*
X91759821Y-92024579D01*
X91803176Y-92089463D01*
X91818400Y-92166000D01*
X91818400Y-92566000D01*
X91803176Y-92642537D01*
X91759821Y-92707421D01*
X91694937Y-92750776D01*
X91618400Y-92766000D01*
X91068400Y-92766000D01*
X90991863Y-92750776D01*
X90926979Y-92707421D01*
X90883624Y-92642537D01*
X90868400Y-92566000D01*
X90868400Y-92166000D01*
X90883624Y-92089463D01*
X90926979Y-92024579D01*
X90991863Y-91981224D01*
X91068400Y-91966000D01*
X91618400Y-91966000D01*
X91694937Y-91981224D01*
G37*
G36*
X97685337Y-91981224D02*
G01*
X97750221Y-92024579D01*
X97793576Y-92089463D01*
X97808800Y-92166000D01*
X97808800Y-92566000D01*
X97793576Y-92642537D01*
X97750221Y-92707421D01*
X97685337Y-92750776D01*
X97608800Y-92766000D01*
X97058800Y-92766000D01*
X96982263Y-92750776D01*
X96917379Y-92707421D01*
X96874024Y-92642537D01*
X96858800Y-92566000D01*
X96858800Y-92166000D01*
X96874024Y-92089463D01*
X96917379Y-92024579D01*
X96982263Y-91981224D01*
X97058800Y-91966000D01*
X97608800Y-91966000D01*
X97685337Y-91981224D01*
G37*
G36*
X95183968Y-89076445D02*
G01*
X95407825Y-89149181D01*
X95617548Y-89256040D01*
X95807972Y-89394391D01*
X95974409Y-89560828D01*
X96112760Y-89751252D01*
X96219619Y-89960975D01*
X96292355Y-90184832D01*
X96329176Y-90417311D01*
X96329176Y-90652689D01*
X96292355Y-90885168D01*
X96219619Y-91109025D01*
X96112760Y-91318748D01*
X95974409Y-91509172D01*
X95807972Y-91675609D01*
X95617548Y-91813960D01*
X95407825Y-91920819D01*
X95183968Y-91993555D01*
X94951489Y-92030376D01*
X94716111Y-92030376D01*
X94483632Y-91993555D01*
X94259775Y-91920819D01*
X94050052Y-91813960D01*
X93859628Y-91675609D01*
X93693191Y-91509172D01*
X93554840Y-91318748D01*
X93447981Y-91109025D01*
X93375245Y-90885168D01*
X93338424Y-90652689D01*
X93338424Y-90417311D01*
X93375245Y-90184832D01*
X93447981Y-89960975D01*
X93554840Y-89751252D01*
X93693191Y-89560828D01*
X93859628Y-89394391D01*
X94050052Y-89256040D01*
X94259775Y-89149181D01*
X94483632Y-89076445D01*
X94716111Y-89039624D01*
X94951489Y-89039624D01*
X95183968Y-89076445D01*
G37*
G36*
X100183968Y-89076445D02*
G01*
X100407825Y-89149181D01*
X100617548Y-89256040D01*
X100807972Y-89394391D01*
X100974409Y-89560828D01*
X101112760Y-89751252D01*
X101219619Y-89960975D01*
X101292355Y-90184832D01*
X101329176Y-90417311D01*
X101329176Y-90652689D01*
X101292355Y-90885168D01*
X101219619Y-91109025D01*
X101112760Y-91318748D01*
X100974409Y-91509172D01*
X100807972Y-91675609D01*
X100617548Y-91813960D01*
X100407825Y-91920819D01*
X100183968Y-91993555D01*
X99951489Y-92030376D01*
X99716111Y-92030376D01*
X99483632Y-91993555D01*
X99259775Y-91920819D01*
X99050052Y-91813960D01*
X98859628Y-91675609D01*
X98693191Y-91509172D01*
X98554840Y-91318748D01*
X98447981Y-91109025D01*
X98375245Y-90885168D01*
X98338424Y-90652689D01*
X98338424Y-90417311D01*
X98375245Y-90184832D01*
X98447981Y-89960975D01*
X98554840Y-89751252D01*
X98693191Y-89560828D01*
X98859628Y-89394391D01*
X99050052Y-89256040D01*
X99259775Y-89149181D01*
X99483632Y-89076445D01*
X99716111Y-89039624D01*
X99951489Y-89039624D01*
X100183968Y-89076445D01*
G37*
G36*
X91694937Y-90331224D02*
G01*
X91759821Y-90374579D01*
X91803176Y-90439463D01*
X91818400Y-90516000D01*
X91818400Y-90916000D01*
X91803176Y-90992537D01*
X91759821Y-91057421D01*
X91694937Y-91100776D01*
X91618400Y-91116000D01*
X91068400Y-91116000D01*
X90991863Y-91100776D01*
X90926979Y-91057421D01*
X90883624Y-90992537D01*
X90868400Y-90916000D01*
X90868400Y-90516000D01*
X90883624Y-90439463D01*
X90926979Y-90374579D01*
X90991863Y-90331224D01*
X91068400Y-90316000D01*
X91618400Y-90316000D01*
X91694937Y-90331224D01*
G37*
G36*
X97685337Y-90331224D02*
G01*
X97750221Y-90374579D01*
X97793576Y-90439463D01*
X97808800Y-90516000D01*
X97808800Y-90916000D01*
X97793576Y-90992537D01*
X97750221Y-91057421D01*
X97685337Y-91100776D01*
X97608800Y-91116000D01*
X97058800Y-91116000D01*
X96982263Y-91100776D01*
X96917379Y-91057421D01*
X96874024Y-90992537D01*
X96858800Y-90916000D01*
X96858800Y-90516000D01*
X96874024Y-90439463D01*
X96917379Y-90374579D01*
X96982263Y-90331224D01*
X97058800Y-90316000D01*
X97608800Y-90316000D01*
X97685337Y-90331224D01*
G37*
G36*
X95461182Y-86484993D02*
G01*
X95495246Y-86507754D01*
X95518007Y-86541818D01*
X95526000Y-86582000D01*
X95526000Y-88372000D01*
X95518007Y-88412182D01*
X95495246Y-88446246D01*
X95461182Y-88469007D01*
X95421000Y-88477000D01*
X94581000Y-88477000D01*
X94540818Y-88469007D01*
X94506754Y-88446246D01*
X94483993Y-88412182D01*
X94476000Y-88372000D01*
X94476000Y-86582000D01*
X94483993Y-86541818D01*
X94506754Y-86507754D01*
X94540818Y-86484993D01*
X94581000Y-86477000D01*
X95421000Y-86477000D01*
X95461182Y-86484993D01*
G37*
G36*
X99906182Y-86484993D02*
G01*
X99940246Y-86507754D01*
X99963007Y-86541818D01*
X99971000Y-86582000D01*
X99971000Y-88372000D01*
X99963007Y-88412182D01*
X99940246Y-88446246D01*
X99906182Y-88469007D01*
X99866000Y-88477000D01*
X99026000Y-88477000D01*
X98985818Y-88469007D01*
X98951754Y-88446246D01*
X98928993Y-88412182D01*
X98921000Y-88372000D01*
X98921000Y-86582000D01*
X98928993Y-86541818D01*
X98951754Y-86507754D01*
X98985818Y-86484993D01*
X99026000Y-86477000D01*
X99866000Y-86477000D01*
X99906182Y-86484993D01*
G37*
G36*
X90642403Y-85325418D02*
G01*
X90691066Y-85357934D01*
X90723582Y-85406597D01*
X90735000Y-85464000D01*
X90735000Y-85764000D01*
X90723582Y-85821403D01*
X90691066Y-85870066D01*
X90642403Y-85902582D01*
X90585000Y-85914000D01*
X89560000Y-85914000D01*
X89502597Y-85902582D01*
X89453934Y-85870066D01*
X89421418Y-85821403D01*
X89410000Y-85764000D01*
X89410000Y-85464000D01*
X89421418Y-85406597D01*
X89453934Y-85357934D01*
X89502597Y-85325418D01*
X89560000Y-85314000D01*
X90585000Y-85314000D01*
X90642403Y-85325418D01*
G37*
G36*
X92917403Y-85325418D02*
G01*
X92966066Y-85357934D01*
X92998582Y-85406597D01*
X93010000Y-85464000D01*
X93010000Y-85764000D01*
X92998582Y-85821403D01*
X92966066Y-85870066D01*
X92917403Y-85902582D01*
X92860000Y-85914000D01*
X91835000Y-85914000D01*
X91777597Y-85902582D01*
X91728934Y-85870066D01*
X91696418Y-85821403D01*
X91685000Y-85764000D01*
X91685000Y-85464000D01*
X91696418Y-85406597D01*
X91728934Y-85357934D01*
X91777597Y-85325418D01*
X91835000Y-85314000D01*
X92860000Y-85314000D01*
X92917403Y-85325418D01*
G37*
G36*
X94452537Y-84731224D02*
G01*
X94517421Y-84774579D01*
X94560776Y-84839463D01*
X94576000Y-84916000D01*
X94576000Y-85466000D01*
X94560776Y-85542537D01*
X94517421Y-85607421D01*
X94452537Y-85650776D01*
X94376000Y-85666000D01*
X93976000Y-85666000D01*
X93899463Y-85650776D01*
X93834579Y-85607421D01*
X93791224Y-85542537D01*
X93776000Y-85466000D01*
X93776000Y-84916000D01*
X93791224Y-84839463D01*
X93834579Y-84774579D01*
X93899463Y-84731224D01*
X93976000Y-84716000D01*
X94376000Y-84716000D01*
X94452537Y-84731224D01*
G37*
G36*
X96102537Y-84731224D02*
G01*
X96167421Y-84774579D01*
X96210776Y-84839463D01*
X96226000Y-84916000D01*
X96226000Y-85466000D01*
X96210776Y-85542537D01*
X96167421Y-85607421D01*
X96102537Y-85650776D01*
X96026000Y-85666000D01*
X95626000Y-85666000D01*
X95549463Y-85650776D01*
X95484579Y-85607421D01*
X95441224Y-85542537D01*
X95426000Y-85466000D01*
X95426000Y-84916000D01*
X95441224Y-84839463D01*
X95484579Y-84774579D01*
X95549463Y-84731224D01*
X95626000Y-84716000D01*
X96026000Y-84716000D01*
X96102537Y-84731224D01*
G37*
G36*
X90642403Y-84375418D02*
G01*
X90691066Y-84407934D01*
X90723582Y-84456597D01*
X90735000Y-84514000D01*
X90735000Y-84814000D01*
X90723582Y-84871403D01*
X90691066Y-84920066D01*
X90642403Y-84952582D01*
X90585000Y-84964000D01*
X89560000Y-84964000D01*
X89502597Y-84952582D01*
X89453934Y-84920066D01*
X89421418Y-84871403D01*
X89410000Y-84814000D01*
X89410000Y-84514000D01*
X89421418Y-84456597D01*
X89453934Y-84407934D01*
X89502597Y-84375418D01*
X89560000Y-84364000D01*
X90585000Y-84364000D01*
X90642403Y-84375418D01*
G37*
G36*
X92917403Y-84375418D02*
G01*
X92966066Y-84407934D01*
X92998582Y-84456597D01*
X93010000Y-84514000D01*
X93010000Y-84814000D01*
X92998582Y-84871403D01*
X92966066Y-84920066D01*
X92917403Y-84952582D01*
X92860000Y-84964000D01*
X91835000Y-84964000D01*
X91777597Y-84952582D01*
X91728934Y-84920066D01*
X91696418Y-84871403D01*
X91685000Y-84814000D01*
X91685000Y-84514000D01*
X91696418Y-84456597D01*
X91728934Y-84407934D01*
X91777597Y-84375418D01*
X91835000Y-84364000D01*
X92860000Y-84364000D01*
X92917403Y-84375418D01*
G37*
G36*
X90642403Y-83425418D02*
G01*
X90691066Y-83457934D01*
X90723582Y-83506597D01*
X90735000Y-83564000D01*
X90735000Y-83864000D01*
X90723582Y-83921403D01*
X90691066Y-83970066D01*
X90642403Y-84002582D01*
X90585000Y-84014000D01*
X89560000Y-84014000D01*
X89502597Y-84002582D01*
X89453934Y-83970066D01*
X89421418Y-83921403D01*
X89410000Y-83864000D01*
X89410000Y-83564000D01*
X89421418Y-83506597D01*
X89453934Y-83457934D01*
X89502597Y-83425418D01*
X89560000Y-83414000D01*
X90585000Y-83414000D01*
X90642403Y-83425418D01*
G37*
G36*
X92917403Y-83425418D02*
G01*
X92966066Y-83457934D01*
X92998582Y-83506597D01*
X93010000Y-83564000D01*
X93010000Y-83864000D01*
X92998582Y-83921403D01*
X92966066Y-83970066D01*
X92917403Y-84002582D01*
X92860000Y-84014000D01*
X91835000Y-84014000D01*
X91777597Y-84002582D01*
X91728934Y-83970066D01*
X91696418Y-83921403D01*
X91685000Y-83864000D01*
X91685000Y-83564000D01*
X91696418Y-83506597D01*
X91728934Y-83457934D01*
X91777597Y-83425418D01*
X91835000Y-83414000D01*
X92860000Y-83414000D01*
X92917403Y-83425418D01*
G37*
G36*
X97854709Y-77895406D02*
G01*
X98140132Y-77971885D01*
X98413130Y-78084964D01*
X98669033Y-78232710D01*
X98903462Y-78412594D01*
X99112406Y-78621538D01*
X99292290Y-78855967D01*
X99440036Y-79111870D01*
X99553115Y-79384868D01*
X99629594Y-79670291D01*
X99668163Y-79963254D01*
X99668163Y-80258746D01*
X99629594Y-80551709D01*
X99553115Y-80837132D01*
X99440036Y-81110130D01*
X99292290Y-81366033D01*
X99112406Y-81600462D01*
X98903462Y-81809406D01*
X98669033Y-81989290D01*
X98413130Y-82137036D01*
X98140132Y-82250115D01*
X97854709Y-82326594D01*
X97561746Y-82365163D01*
X97266254Y-82365163D01*
X96973291Y-82326594D01*
X96687868Y-82250115D01*
X96414870Y-82137036D01*
X96158967Y-81989290D01*
X95924538Y-81809406D01*
X95715594Y-81600462D01*
X95535710Y-81366033D01*
X95387964Y-81110130D01*
X95274885Y-80837132D01*
X95198406Y-80551709D01*
X95159837Y-80258746D01*
X95159837Y-79963254D01*
X95198406Y-79670291D01*
X95274885Y-79384868D01*
X95387964Y-79111870D01*
X95535710Y-78855967D01*
X95715594Y-78621538D01*
X95924538Y-78412594D01*
X96158967Y-78232710D01*
X96414870Y-78084964D01*
X96687868Y-77971885D01*
X96973291Y-77895406D01*
X97266254Y-77856837D01*
X97561746Y-77856837D01*
X97854709Y-77895406D01*
G37*
G36*
X92013046Y-80023804D02*
G01*
X92065553Y-80029896D01*
X92083494Y-80037818D01*
X92106584Y-80042411D01*
X92131304Y-80058928D01*
X92152619Y-80068340D01*
X92167176Y-80082897D01*
X92189312Y-80097688D01*
X92204102Y-80119823D01*
X92218659Y-80134380D01*
X92228069Y-80155693D01*
X92244589Y-80180416D01*
X92249182Y-80203507D01*
X92257103Y-80221446D01*
X92263192Y-80273942D01*
X92264000Y-80278000D01*
X92264000Y-81468000D01*
X92263192Y-81472058D01*
X92257103Y-81524553D01*
X92249182Y-81542490D01*
X92244589Y-81565584D01*
X92228068Y-81590308D01*
X92218659Y-81611619D01*
X92204104Y-81626173D01*
X92189312Y-81648312D01*
X92167173Y-81663104D01*
X92152619Y-81677659D01*
X92131308Y-81687068D01*
X92106584Y-81703589D01*
X92083490Y-81708182D01*
X92065553Y-81716103D01*
X92013058Y-81722192D01*
X92009000Y-81723000D01*
X90119000Y-81723000D01*
X90114942Y-81722192D01*
X90062446Y-81716103D01*
X90044507Y-81708182D01*
X90021416Y-81703589D01*
X89996693Y-81687069D01*
X89975380Y-81677659D01*
X89960823Y-81663102D01*
X89938688Y-81648312D01*
X89923897Y-81626176D01*
X89909340Y-81611619D01*
X89899928Y-81590304D01*
X89883411Y-81565584D01*
X89878818Y-81542494D01*
X89870896Y-81524553D01*
X89864804Y-81472046D01*
X89864000Y-81468000D01*
X89864000Y-80278000D01*
X89864804Y-80273954D01*
X89870896Y-80221446D01*
X89878818Y-80203503D01*
X89883411Y-80180416D01*
X89899927Y-80155697D01*
X89909340Y-80134380D01*
X89923899Y-80119820D01*
X89938688Y-80097688D01*
X89960820Y-80082899D01*
X89975380Y-80068340D01*
X89996697Y-80058927D01*
X90021416Y-80042411D01*
X90044503Y-80037818D01*
X90062446Y-80029896D01*
X90114954Y-80023804D01*
X90119000Y-80023000D01*
X92009000Y-80023000D01*
X92013046Y-80023804D01*
G37*
G36*
X104713046Y-78499804D02*
G01*
X104765553Y-78505896D01*
X104783494Y-78513818D01*
X104806584Y-78518411D01*
X104831304Y-78534928D01*
X104852619Y-78544340D01*
X104867176Y-78558897D01*
X104889312Y-78573688D01*
X104904102Y-78595823D01*
X104918659Y-78610380D01*
X104928069Y-78631693D01*
X104944589Y-78656416D01*
X104949182Y-78679507D01*
X104957103Y-78697446D01*
X104963192Y-78749942D01*
X104964000Y-78754000D01*
X104964000Y-79944000D01*
X104963192Y-79948058D01*
X104957103Y-80000553D01*
X104949182Y-80018490D01*
X104944589Y-80041584D01*
X104928068Y-80066308D01*
X104918659Y-80087619D01*
X104904104Y-80102173D01*
X104889312Y-80124312D01*
X104867173Y-80139104D01*
X104852619Y-80153659D01*
X104831308Y-80163068D01*
X104806584Y-80179589D01*
X104783490Y-80184182D01*
X104765553Y-80192103D01*
X104713058Y-80198192D01*
X104709000Y-80199000D01*
X102819000Y-80199000D01*
X102814942Y-80198192D01*
X102762446Y-80192103D01*
X102744507Y-80184182D01*
X102721416Y-80179589D01*
X102696693Y-80163069D01*
X102675380Y-80153659D01*
X102660823Y-80139102D01*
X102638688Y-80124312D01*
X102623897Y-80102176D01*
X102609340Y-80087619D01*
X102599928Y-80066304D01*
X102583411Y-80041584D01*
X102578818Y-80018494D01*
X102570896Y-80000553D01*
X102564804Y-79948046D01*
X102564000Y-79944000D01*
X102564000Y-78754000D01*
X102564804Y-78749954D01*
X102570896Y-78697446D01*
X102578818Y-78679503D01*
X102583411Y-78656416D01*
X102599927Y-78631697D01*
X102609340Y-78610380D01*
X102623899Y-78595820D01*
X102638688Y-78573688D01*
X102660820Y-78558899D01*
X102675380Y-78544340D01*
X102696697Y-78534927D01*
X102721416Y-78518411D01*
X102744503Y-78513818D01*
X102762446Y-78505896D01*
X102814954Y-78499804D01*
X102819000Y-78499000D01*
X104709000Y-78499000D01*
X104713046Y-78499804D01*
G37*
G36*
X89555000Y-77405000D02*
G01*
X87855000Y-77405000D01*
X87855000Y-75705000D01*
X89555000Y-75705000D01*
X89555000Y-77405000D01*
G37*
G36*
X89351742Y-73201601D02*
G01*
X89505687Y-73265367D01*
X89644234Y-73357941D01*
X89762059Y-73475766D01*
X89854633Y-73614313D01*
X89918399Y-73768258D01*
X89950907Y-73931685D01*
X89950907Y-74098315D01*
X89918399Y-74261742D01*
X89854633Y-74415687D01*
X89762059Y-74554234D01*
X89644234Y-74672059D01*
X89505687Y-74764633D01*
X89351742Y-74828399D01*
X89188315Y-74860907D01*
X89021685Y-74860907D01*
X88858258Y-74828399D01*
X88704313Y-74764633D01*
X88565766Y-74672059D01*
X88447941Y-74554234D01*
X88355367Y-74415687D01*
X88291601Y-74261742D01*
X88259093Y-74098315D01*
X88259093Y-73931685D01*
X88291601Y-73768258D01*
X88355367Y-73614313D01*
X88447941Y-73475766D01*
X88565766Y-73357941D01*
X88704313Y-73265367D01*
X88858258Y-73201601D01*
X89021685Y-73169093D01*
X89188315Y-73169093D01*
X89351742Y-73201601D01*
G37*
G36*
X94925768Y-73932612D02*
G01*
X94958211Y-73954289D01*
X94979888Y-73986732D01*
X94987500Y-74025000D01*
X94987500Y-74225000D01*
X94979888Y-74263268D01*
X94958211Y-74295711D01*
X94925768Y-74317388D01*
X94887500Y-74325000D01*
X93612500Y-74325000D01*
X93574232Y-74317388D01*
X93541789Y-74295711D01*
X93520112Y-74263268D01*
X93512500Y-74225000D01*
X93512500Y-74025000D01*
X93520112Y-73986732D01*
X93541789Y-73954289D01*
X93574232Y-73932612D01*
X93612500Y-73925000D01*
X94887500Y-73925000D01*
X94925768Y-73932612D01*
G37*
G36*
X100650768Y-73932612D02*
G01*
X100683211Y-73954289D01*
X100704888Y-73986732D01*
X100712500Y-74025000D01*
X100712500Y-74225000D01*
X100704888Y-74263268D01*
X100683211Y-74295711D01*
X100650768Y-74317388D01*
X100612500Y-74325000D01*
X99337500Y-74325000D01*
X99299232Y-74317388D01*
X99266789Y-74295711D01*
X99245112Y-74263268D01*
X99237500Y-74225000D01*
X99237500Y-74025000D01*
X99245112Y-73986732D01*
X99266789Y-73954289D01*
X99299232Y-73932612D01*
X99337500Y-73925000D01*
X100612500Y-73925000D01*
X100650768Y-73932612D01*
G37*
G36*
X94925768Y-73282612D02*
G01*
X94958211Y-73304289D01*
X94979888Y-73336732D01*
X94987500Y-73375000D01*
X94987500Y-73575000D01*
X94979888Y-73613268D01*
X94958211Y-73645711D01*
X94925768Y-73667388D01*
X94887500Y-73675000D01*
X93612500Y-73675000D01*
X93574232Y-73667388D01*
X93541789Y-73645711D01*
X93520112Y-73613268D01*
X93512500Y-73575000D01*
X93512500Y-73375000D01*
X93520112Y-73336732D01*
X93541789Y-73304289D01*
X93574232Y-73282612D01*
X93612500Y-73275000D01*
X94887500Y-73275000D01*
X94925768Y-73282612D01*
G37*
G36*
X100650768Y-73282612D02*
G01*
X100683211Y-73304289D01*
X100704888Y-73336732D01*
X100712500Y-73375000D01*
X100712500Y-73575000D01*
X100704888Y-73613268D01*
X100683211Y-73645711D01*
X100650768Y-73667388D01*
X100612500Y-73675000D01*
X99337500Y-73675000D01*
X99299232Y-73667388D01*
X99266789Y-73645711D01*
X99245112Y-73613268D01*
X99237500Y-73575000D01*
X99237500Y-73375000D01*
X99245112Y-73336732D01*
X99266789Y-73304289D01*
X99299232Y-73282612D01*
X99337500Y-73275000D01*
X100612500Y-73275000D01*
X100650768Y-73282612D01*
G37*
G36*
X94925768Y-72632612D02*
G01*
X94958211Y-72654289D01*
X94979888Y-72686732D01*
X94987500Y-72725000D01*
X94987500Y-72925000D01*
X94979888Y-72963268D01*
X94958211Y-72995711D01*
X94925768Y-73017388D01*
X94887500Y-73025000D01*
X93612500Y-73025000D01*
X93574232Y-73017388D01*
X93541789Y-72995711D01*
X93520112Y-72963268D01*
X93512500Y-72925000D01*
X93512500Y-72725000D01*
X93520112Y-72686732D01*
X93541789Y-72654289D01*
X93574232Y-72632612D01*
X93612500Y-72625000D01*
X94887500Y-72625000D01*
X94925768Y-72632612D01*
G37*
G36*
X100650768Y-72632612D02*
G01*
X100683211Y-72654289D01*
X100704888Y-72686732D01*
X100712500Y-72725000D01*
X100712500Y-72925000D01*
X100704888Y-72963268D01*
X100683211Y-72995711D01*
X100650768Y-73017388D01*
X100612500Y-73025000D01*
X99337500Y-73025000D01*
X99299232Y-73017388D01*
X99266789Y-72995711D01*
X99245112Y-72963268D01*
X99237500Y-72925000D01*
X99237500Y-72725000D01*
X99245112Y-72686732D01*
X99266789Y-72654289D01*
X99299232Y-72632612D01*
X99337500Y-72625000D01*
X100612500Y-72625000D01*
X100650768Y-72632612D01*
G37*
G36*
X104279047Y-71675805D02*
G01*
X104330408Y-71681764D01*
X104347954Y-71689511D01*
X104370671Y-71694030D01*
X104394991Y-71710280D01*
X104415793Y-71719465D01*
X104430000Y-71733672D01*
X104451777Y-71748223D01*
X104466327Y-71769999D01*
X104480534Y-71784206D01*
X104489718Y-71805006D01*
X104505970Y-71829329D01*
X104510489Y-71852048D01*
X104518235Y-71869591D01*
X104524192Y-71920940D01*
X104525000Y-71925000D01*
X104525000Y-72425000D01*
X104524192Y-72429059D01*
X104518235Y-72480408D01*
X104510489Y-72497950D01*
X104505970Y-72520671D01*
X104489716Y-72544995D01*
X104480534Y-72565793D01*
X104466329Y-72579997D01*
X104451777Y-72601777D01*
X104429997Y-72616329D01*
X104415793Y-72630534D01*
X104394995Y-72639716D01*
X104370671Y-72655970D01*
X104347950Y-72660489D01*
X104330408Y-72668235D01*
X104279061Y-72674192D01*
X104275000Y-72675000D01*
X103325000Y-72675000D01*
X103320941Y-72674192D01*
X103269591Y-72668235D01*
X103252048Y-72660489D01*
X103229329Y-72655970D01*
X103205006Y-72639718D01*
X103184206Y-72630534D01*
X103169999Y-72616327D01*
X103148223Y-72601777D01*
X103133672Y-72580000D01*
X103119465Y-72565793D01*
X103110280Y-72544991D01*
X103094030Y-72520671D01*
X103089511Y-72497954D01*
X103081764Y-72480408D01*
X103075805Y-72429049D01*
X103075000Y-72425000D01*
X103075000Y-71925000D01*
X103075804Y-71920953D01*
X103081764Y-71869591D01*
X103089511Y-71852043D01*
X103094030Y-71829329D01*
X103110278Y-71805010D01*
X103119465Y-71784206D01*
X103133674Y-71769996D01*
X103148223Y-71748223D01*
X103169996Y-71733674D01*
X103184206Y-71719465D01*
X103205010Y-71710278D01*
X103229329Y-71694030D01*
X103252043Y-71689511D01*
X103269591Y-71681764D01*
X103320952Y-71675805D01*
X103325000Y-71675000D01*
X104275000Y-71675000D01*
X104279047Y-71675805D01*
G37*
G36*
X102436104Y-71742127D02*
G01*
X102509099Y-71790901D01*
X102557873Y-71863896D01*
X102575000Y-71950000D01*
X102575000Y-72400000D01*
X102557873Y-72486104D01*
X102509099Y-72559099D01*
X102436104Y-72607873D01*
X102350000Y-72625000D01*
X101850000Y-72625000D01*
X101763896Y-72607873D01*
X101690901Y-72559099D01*
X101642127Y-72486104D01*
X101625000Y-72400000D01*
X101625000Y-71950000D01*
X101642127Y-71863896D01*
X101690901Y-71790901D01*
X101763896Y-71742127D01*
X101850000Y-71725000D01*
X102350000Y-71725000D01*
X102436104Y-71742127D01*
G37*
G36*
X94925768Y-71982612D02*
G01*
X94958211Y-72004289D01*
X94979888Y-72036732D01*
X94987500Y-72075000D01*
X94987500Y-72275000D01*
X94979888Y-72313268D01*
X94958211Y-72345711D01*
X94925768Y-72367388D01*
X94887500Y-72375000D01*
X93612500Y-72375000D01*
X93574232Y-72367388D01*
X93541789Y-72345711D01*
X93520112Y-72313268D01*
X93512500Y-72275000D01*
X93512500Y-72075000D01*
X93520112Y-72036732D01*
X93541789Y-72004289D01*
X93574232Y-71982612D01*
X93612500Y-71975000D01*
X94887500Y-71975000D01*
X94925768Y-71982612D01*
G37*
G36*
X100650768Y-71982612D02*
G01*
X100683211Y-72004289D01*
X100704888Y-72036732D01*
X100712500Y-72075000D01*
X100712500Y-72275000D01*
X100704888Y-72313268D01*
X100683211Y-72345711D01*
X100650768Y-72367388D01*
X100612500Y-72375000D01*
X99337500Y-72375000D01*
X99299232Y-72367388D01*
X99266789Y-72345711D01*
X99245112Y-72313268D01*
X99237500Y-72275000D01*
X99237500Y-72075000D01*
X99245112Y-72036732D01*
X99266789Y-72004289D01*
X99299232Y-71982612D01*
X99337500Y-71975000D01*
X100612500Y-71975000D01*
X100650768Y-71982612D01*
G37*
G36*
X88951742Y-70661601D02*
G01*
X89105687Y-70725367D01*
X89244234Y-70817941D01*
X89362059Y-70935766D01*
X89454633Y-71074313D01*
X89518399Y-71228258D01*
X89550907Y-71391685D01*
X89550907Y-71558315D01*
X89518399Y-71721742D01*
X89454633Y-71875687D01*
X89362059Y-72014234D01*
X89244234Y-72132059D01*
X89105687Y-72224633D01*
X88951742Y-72288399D01*
X88788315Y-72320907D01*
X88621685Y-72320907D01*
X88458258Y-72288399D01*
X88304313Y-72224633D01*
X88165766Y-72132059D01*
X88047941Y-72014234D01*
X87955367Y-71875687D01*
X87891601Y-71721742D01*
X87859093Y-71558315D01*
X87859093Y-71391685D01*
X87891601Y-71228258D01*
X87955367Y-71074313D01*
X88047941Y-70935766D01*
X88165766Y-70817941D01*
X88304313Y-70725367D01*
X88458258Y-70661601D01*
X88621685Y-70629093D01*
X88788315Y-70629093D01*
X88951742Y-70661601D01*
G37*
G36*
X94925768Y-71332612D02*
G01*
X94958211Y-71354289D01*
X94979888Y-71386732D01*
X94987500Y-71425000D01*
X94987500Y-71625000D01*
X94979888Y-71663268D01*
X94958211Y-71695711D01*
X94925768Y-71717388D01*
X94887500Y-71725000D01*
X93612500Y-71725000D01*
X93574232Y-71717388D01*
X93541789Y-71695711D01*
X93520112Y-71663268D01*
X93512500Y-71625000D01*
X93512500Y-71425000D01*
X93520112Y-71386732D01*
X93541789Y-71354289D01*
X93574232Y-71332612D01*
X93612500Y-71325000D01*
X94887500Y-71325000D01*
X94925768Y-71332612D01*
G37*
G36*
X100650768Y-71332612D02*
G01*
X100683211Y-71354289D01*
X100704888Y-71386732D01*
X100712500Y-71425000D01*
X100712500Y-71625000D01*
X100704888Y-71663268D01*
X100683211Y-71695711D01*
X100650768Y-71717388D01*
X100612500Y-71725000D01*
X99337500Y-71725000D01*
X99299232Y-71717388D01*
X99266789Y-71695711D01*
X99245112Y-71663268D01*
X99237500Y-71625000D01*
X99237500Y-71425000D01*
X99245112Y-71386732D01*
X99266789Y-71354289D01*
X99299232Y-71332612D01*
X99337500Y-71325000D01*
X100612500Y-71325000D01*
X100650768Y-71332612D01*
G37*
G36*
X94925768Y-70682612D02*
G01*
X94958211Y-70704289D01*
X94979888Y-70736732D01*
X94987500Y-70775000D01*
X94987500Y-70975000D01*
X94979888Y-71013268D01*
X94958211Y-71045711D01*
X94925768Y-71067388D01*
X94887500Y-71075000D01*
X93612500Y-71075000D01*
X93574232Y-71067388D01*
X93541789Y-71045711D01*
X93520112Y-71013268D01*
X93512500Y-70975000D01*
X93512500Y-70775000D01*
X93520112Y-70736732D01*
X93541789Y-70704289D01*
X93574232Y-70682612D01*
X93612500Y-70675000D01*
X94887500Y-70675000D01*
X94925768Y-70682612D01*
G37*
G36*
X100650768Y-70682612D02*
G01*
X100683211Y-70704289D01*
X100704888Y-70736732D01*
X100712500Y-70775000D01*
X100712500Y-70975000D01*
X100704888Y-71013268D01*
X100683211Y-71045711D01*
X100650768Y-71067388D01*
X100612500Y-71075000D01*
X99337500Y-71075000D01*
X99299232Y-71067388D01*
X99266789Y-71045711D01*
X99245112Y-71013268D01*
X99237500Y-70975000D01*
X99237500Y-70775000D01*
X99245112Y-70736732D01*
X99266789Y-70704289D01*
X99299232Y-70682612D01*
X99337500Y-70675000D01*
X100612500Y-70675000D01*
X100650768Y-70682612D01*
G37*
G36*
X102436104Y-70192127D02*
G01*
X102509099Y-70240901D01*
X102557873Y-70313896D01*
X102575000Y-70400000D01*
X102575000Y-70850000D01*
X102557873Y-70936104D01*
X102509099Y-71009099D01*
X102436104Y-71057873D01*
X102350000Y-71075000D01*
X101850000Y-71075000D01*
X101763896Y-71057873D01*
X101690901Y-71009099D01*
X101642127Y-70936104D01*
X101625000Y-70850000D01*
X101625000Y-70400000D01*
X101642127Y-70313896D01*
X101690901Y-70240901D01*
X101763896Y-70192127D01*
X101850000Y-70175000D01*
X102350000Y-70175000D01*
X102436104Y-70192127D01*
G37*
G36*
X104279047Y-69775805D02*
G01*
X104330408Y-69781764D01*
X104347954Y-69789511D01*
X104370671Y-69794030D01*
X104394991Y-69810280D01*
X104415793Y-69819465D01*
X104430000Y-69833672D01*
X104451777Y-69848223D01*
X104466327Y-69869999D01*
X104480534Y-69884206D01*
X104489718Y-69905006D01*
X104505970Y-69929329D01*
X104510489Y-69952048D01*
X104518235Y-69969591D01*
X104524192Y-70020940D01*
X104525000Y-70025000D01*
X104525000Y-70525000D01*
X104524192Y-70529059D01*
X104518235Y-70580408D01*
X104510489Y-70597950D01*
X104505970Y-70620671D01*
X104489716Y-70644995D01*
X104480534Y-70665793D01*
X104466329Y-70679997D01*
X104451777Y-70701777D01*
X104429997Y-70716329D01*
X104415793Y-70730534D01*
X104394995Y-70739716D01*
X104370671Y-70755970D01*
X104347950Y-70760489D01*
X104330408Y-70768235D01*
X104279061Y-70774192D01*
X104275000Y-70775000D01*
X103325000Y-70775000D01*
X103320941Y-70774192D01*
X103269591Y-70768235D01*
X103252048Y-70760489D01*
X103229329Y-70755970D01*
X103205006Y-70739718D01*
X103184206Y-70730534D01*
X103169999Y-70716327D01*
X103148223Y-70701777D01*
X103133672Y-70680000D01*
X103119465Y-70665793D01*
X103110280Y-70644991D01*
X103094030Y-70620671D01*
X103089511Y-70597954D01*
X103081764Y-70580408D01*
X103075805Y-70529049D01*
X103075000Y-70525000D01*
X103075000Y-70025000D01*
X103075804Y-70020953D01*
X103081764Y-69969591D01*
X103089511Y-69952043D01*
X103094030Y-69929329D01*
X103110278Y-69905010D01*
X103119465Y-69884206D01*
X103133674Y-69869996D01*
X103148223Y-69848223D01*
X103169996Y-69833674D01*
X103184206Y-69819465D01*
X103205010Y-69810278D01*
X103229329Y-69794030D01*
X103252043Y-69789511D01*
X103269591Y-69781764D01*
X103320952Y-69775805D01*
X103325000Y-69775000D01*
X104275000Y-69775000D01*
X104279047Y-69775805D01*
G37*
G36*
X94925768Y-70032612D02*
G01*
X94958211Y-70054289D01*
X94979888Y-70086732D01*
X94987500Y-70125000D01*
X94987500Y-70325000D01*
X94979888Y-70363268D01*
X94958211Y-70395711D01*
X94925768Y-70417388D01*
X94887500Y-70425000D01*
X93612500Y-70425000D01*
X93574232Y-70417388D01*
X93541789Y-70395711D01*
X93520112Y-70363268D01*
X93512500Y-70325000D01*
X93512500Y-70125000D01*
X93520112Y-70086732D01*
X93541789Y-70054289D01*
X93574232Y-70032612D01*
X93612500Y-70025000D01*
X94887500Y-70025000D01*
X94925768Y-70032612D01*
G37*
G36*
X100650768Y-70032612D02*
G01*
X100683211Y-70054289D01*
X100704888Y-70086732D01*
X100712500Y-70125000D01*
X100712500Y-70325000D01*
X100704888Y-70363268D01*
X100683211Y-70395711D01*
X100650768Y-70417388D01*
X100612500Y-70425000D01*
X99337500Y-70425000D01*
X99299232Y-70417388D01*
X99266789Y-70395711D01*
X99245112Y-70363268D01*
X99237500Y-70325000D01*
X99237500Y-70125000D01*
X99245112Y-70086732D01*
X99266789Y-70054289D01*
X99299232Y-70032612D01*
X99337500Y-70025000D01*
X100612500Y-70025000D01*
X100650768Y-70032612D01*
G37*
G36*
X89351742Y-68121601D02*
G01*
X89505687Y-68185367D01*
X89644234Y-68277941D01*
X89762059Y-68395766D01*
X89854633Y-68534313D01*
X89918399Y-68688258D01*
X89950907Y-68851685D01*
X89950907Y-69018315D01*
X89918399Y-69181742D01*
X89854633Y-69335687D01*
X89762059Y-69474234D01*
X89644234Y-69592059D01*
X89505687Y-69684633D01*
X89351742Y-69748399D01*
X89188315Y-69780907D01*
X89021685Y-69780907D01*
X88858258Y-69748399D01*
X88704313Y-69684633D01*
X88565766Y-69592059D01*
X88447941Y-69474234D01*
X88355367Y-69335687D01*
X88291601Y-69181742D01*
X88259093Y-69018315D01*
X88259093Y-68851685D01*
X88291601Y-68688258D01*
X88355367Y-68534313D01*
X88447941Y-68395766D01*
X88565766Y-68277941D01*
X88704313Y-68185367D01*
X88858258Y-68121601D01*
X89021685Y-68089093D01*
X89188315Y-68089093D01*
X89351742Y-68121601D01*
G37*
G36*
X94925768Y-69382612D02*
G01*
X94958211Y-69404289D01*
X94979888Y-69436732D01*
X94987500Y-69475000D01*
X94987500Y-69675000D01*
X94979888Y-69713268D01*
X94958211Y-69745711D01*
X94925768Y-69767388D01*
X94887500Y-69775000D01*
X93612500Y-69775000D01*
X93574232Y-69767388D01*
X93541789Y-69745711D01*
X93520112Y-69713268D01*
X93512500Y-69675000D01*
X93512500Y-69475000D01*
X93520112Y-69436732D01*
X93541789Y-69404289D01*
X93574232Y-69382612D01*
X93612500Y-69375000D01*
X94887500Y-69375000D01*
X94925768Y-69382612D01*
G37*
G36*
X100650768Y-69382612D02*
G01*
X100683211Y-69404289D01*
X100704888Y-69436732D01*
X100712500Y-69475000D01*
X100712500Y-69675000D01*
X100704888Y-69713268D01*
X100683211Y-69745711D01*
X100650768Y-69767388D01*
X100612500Y-69775000D01*
X99337500Y-69775000D01*
X99299232Y-69767388D01*
X99266789Y-69745711D01*
X99245112Y-69713268D01*
X99237500Y-69675000D01*
X99237500Y-69475000D01*
X99245112Y-69436732D01*
X99266789Y-69404289D01*
X99299232Y-69382612D01*
X99337500Y-69375000D01*
X100612500Y-69375000D01*
X100650768Y-69382612D01*
G37*
G36*
X94925768Y-68732612D02*
G01*
X94958211Y-68754289D01*
X94979888Y-68786732D01*
X94987500Y-68825000D01*
X94987500Y-69025000D01*
X94979888Y-69063268D01*
X94958211Y-69095711D01*
X94925768Y-69117388D01*
X94887500Y-69125000D01*
X93612500Y-69125000D01*
X93574232Y-69117388D01*
X93541789Y-69095711D01*
X93520112Y-69063268D01*
X93512500Y-69025000D01*
X93512500Y-68825000D01*
X93520112Y-68786732D01*
X93541789Y-68754289D01*
X93574232Y-68732612D01*
X93612500Y-68725000D01*
X94887500Y-68725000D01*
X94925768Y-68732612D01*
G37*
G36*
X100650768Y-68732612D02*
G01*
X100683211Y-68754289D01*
X100704888Y-68786732D01*
X100712500Y-68825000D01*
X100712500Y-69025000D01*
X100704888Y-69063268D01*
X100683211Y-69095711D01*
X100650768Y-69117388D01*
X100612500Y-69125000D01*
X99337500Y-69125000D01*
X99299232Y-69117388D01*
X99266789Y-69095711D01*
X99245112Y-69063268D01*
X99237500Y-69025000D01*
X99237500Y-68825000D01*
X99245112Y-68786732D01*
X99266789Y-68754289D01*
X99299232Y-68732612D01*
X99337500Y-68725000D01*
X100612500Y-68725000D01*
X100650768Y-68732612D01*
G37*
G36*
X94925768Y-68082612D02*
G01*
X94958211Y-68104289D01*
X94979888Y-68136732D01*
X94987500Y-68175000D01*
X94987500Y-68375000D01*
X94979888Y-68413268D01*
X94958211Y-68445711D01*
X94925768Y-68467388D01*
X94887500Y-68475000D01*
X93612500Y-68475000D01*
X93574232Y-68467388D01*
X93541789Y-68445711D01*
X93520112Y-68413268D01*
X93512500Y-68375000D01*
X93512500Y-68175000D01*
X93520112Y-68136732D01*
X93541789Y-68104289D01*
X93574232Y-68082612D01*
X93612500Y-68075000D01*
X94887500Y-68075000D01*
X94925768Y-68082612D01*
G37*
G36*
X100650768Y-68082612D02*
G01*
X100683211Y-68104289D01*
X100704888Y-68136732D01*
X100712500Y-68175000D01*
X100712500Y-68375000D01*
X100704888Y-68413268D01*
X100683211Y-68445711D01*
X100650768Y-68467388D01*
X100612500Y-68475000D01*
X99337500Y-68475000D01*
X99299232Y-68467388D01*
X99266789Y-68445711D01*
X99245112Y-68413268D01*
X99237500Y-68375000D01*
X99237500Y-68175000D01*
X99245112Y-68136732D01*
X99266789Y-68104289D01*
X99299232Y-68082612D01*
X99337500Y-68075000D01*
X100612500Y-68075000D01*
X100650768Y-68082612D01*
G37*
G36*
X88951742Y-65581601D02*
G01*
X89105687Y-65645367D01*
X89244234Y-65737941D01*
X89362059Y-65855766D01*
X89454633Y-65994313D01*
X89518399Y-66148258D01*
X89550907Y-66311685D01*
X89550907Y-66478315D01*
X89518399Y-66641742D01*
X89454633Y-66795687D01*
X89362059Y-66934234D01*
X89244234Y-67052059D01*
X89105687Y-67144633D01*
X88951742Y-67208399D01*
X88788315Y-67240907D01*
X88621685Y-67240907D01*
X88458258Y-67208399D01*
X88304313Y-67144633D01*
X88165766Y-67052059D01*
X88047941Y-66934234D01*
X87955367Y-66795687D01*
X87891601Y-66641742D01*
X87859093Y-66478315D01*
X87859093Y-66311685D01*
X87891601Y-66148258D01*
X87955367Y-65994313D01*
X88047941Y-65855766D01*
X88165766Y-65737941D01*
X88304313Y-65645367D01*
X88458258Y-65581601D01*
X88621685Y-65549093D01*
X88788315Y-65549093D01*
X88951742Y-65581601D01*
G37*
G36*
X92433537Y-65935224D02*
G01*
X92498421Y-65978579D01*
X92541776Y-66043463D01*
X92557000Y-66120000D01*
X92557000Y-66670000D01*
X92541776Y-66746537D01*
X92498421Y-66811421D01*
X92433537Y-66854776D01*
X92357000Y-66870000D01*
X91957000Y-66870000D01*
X91880463Y-66854776D01*
X91815579Y-66811421D01*
X91772224Y-66746537D01*
X91757000Y-66670000D01*
X91757000Y-66120000D01*
X91772224Y-66043463D01*
X91815579Y-65978579D01*
X91880463Y-65935224D01*
X91957000Y-65920000D01*
X92357000Y-65920000D01*
X92433537Y-65935224D01*
G37*
G36*
X94083537Y-65935224D02*
G01*
X94148421Y-65978579D01*
X94191776Y-66043463D01*
X94207000Y-66120000D01*
X94207000Y-66670000D01*
X94191776Y-66746537D01*
X94148421Y-66811421D01*
X94083537Y-66854776D01*
X94007000Y-66870000D01*
X93607000Y-66870000D01*
X93530463Y-66854776D01*
X93465579Y-66811421D01*
X93422224Y-66746537D01*
X93407000Y-66670000D01*
X93407000Y-66120000D01*
X93422224Y-66043463D01*
X93465579Y-65978579D01*
X93530463Y-65935224D01*
X93607000Y-65920000D01*
X94007000Y-65920000D01*
X94083537Y-65935224D01*
G37*
G36*
X95735537Y-65935224D02*
G01*
X95800421Y-65978579D01*
X95843776Y-66043463D01*
X95859000Y-66120000D01*
X95859000Y-66670000D01*
X95843776Y-66746537D01*
X95800421Y-66811421D01*
X95735537Y-66854776D01*
X95659000Y-66870000D01*
X95259000Y-66870000D01*
X95182463Y-66854776D01*
X95117579Y-66811421D01*
X95074224Y-66746537D01*
X95059000Y-66670000D01*
X95059000Y-66120000D01*
X95074224Y-66043463D01*
X95117579Y-65978579D01*
X95182463Y-65935224D01*
X95259000Y-65920000D01*
X95659000Y-65920000D01*
X95735537Y-65935224D01*
G37*
G36*
X97385537Y-65935224D02*
G01*
X97450421Y-65978579D01*
X97493776Y-66043463D01*
X97509000Y-66120000D01*
X97509000Y-66670000D01*
X97493776Y-66746537D01*
X97450421Y-66811421D01*
X97385537Y-66854776D01*
X97309000Y-66870000D01*
X96909000Y-66870000D01*
X96832463Y-66854776D01*
X96767579Y-66811421D01*
X96724224Y-66746537D01*
X96709000Y-66670000D01*
X96709000Y-66120000D01*
X96724224Y-66043463D01*
X96767579Y-65978579D01*
X96832463Y-65935224D01*
X96909000Y-65920000D01*
X97309000Y-65920000D01*
X97385537Y-65935224D01*
G37*
G36*
X100686537Y-65819224D02*
G01*
X100751421Y-65862579D01*
X100794776Y-65927463D01*
X100810000Y-66004000D01*
X100810000Y-66404000D01*
X100794776Y-66480537D01*
X100751421Y-66545421D01*
X100686537Y-66588776D01*
X100610000Y-66604000D01*
X100060000Y-66604000D01*
X99983463Y-66588776D01*
X99918579Y-66545421D01*
X99875224Y-66480537D01*
X99860000Y-66404000D01*
X99860000Y-66004000D01*
X99875224Y-65927463D01*
X99918579Y-65862579D01*
X99983463Y-65819224D01*
X100060000Y-65804000D01*
X100610000Y-65804000D01*
X100686537Y-65819224D01*
G37*
G36*
X102464537Y-65819224D02*
G01*
X102529421Y-65862579D01*
X102572776Y-65927463D01*
X102588000Y-66004000D01*
X102588000Y-66404000D01*
X102572776Y-66480537D01*
X102529421Y-66545421D01*
X102464537Y-66588776D01*
X102388000Y-66604000D01*
X101838000Y-66604000D01*
X101761463Y-66588776D01*
X101696579Y-66545421D01*
X101653224Y-66480537D01*
X101638000Y-66404000D01*
X101638000Y-66004000D01*
X101653224Y-65927463D01*
X101696579Y-65862579D01*
X101761463Y-65819224D01*
X101838000Y-65804000D01*
X102388000Y-65804000D01*
X102464537Y-65819224D01*
G37*
G36*
X92518104Y-64159127D02*
G01*
X92591099Y-64207901D01*
X92639873Y-64280896D01*
X92657000Y-64367000D01*
X92657000Y-64867000D01*
X92639873Y-64953104D01*
X92591099Y-65026099D01*
X92518104Y-65074873D01*
X92432000Y-65092000D01*
X91982000Y-65092000D01*
X91895896Y-65074873D01*
X91822901Y-65026099D01*
X91774127Y-64953104D01*
X91757000Y-64867000D01*
X91757000Y-64367000D01*
X91774127Y-64280896D01*
X91822901Y-64207901D01*
X91895896Y-64159127D01*
X91982000Y-64142000D01*
X92432000Y-64142000D01*
X92518104Y-64159127D01*
G37*
G36*
X94068104Y-64159127D02*
G01*
X94141099Y-64207901D01*
X94189873Y-64280896D01*
X94207000Y-64367000D01*
X94207000Y-64867000D01*
X94189873Y-64953104D01*
X94141099Y-65026099D01*
X94068104Y-65074873D01*
X93982000Y-65092000D01*
X93532000Y-65092000D01*
X93445896Y-65074873D01*
X93372901Y-65026099D01*
X93324127Y-64953104D01*
X93307000Y-64867000D01*
X93307000Y-64367000D01*
X93324127Y-64280896D01*
X93372901Y-64207901D01*
X93445896Y-64159127D01*
X93532000Y-64142000D01*
X93982000Y-64142000D01*
X94068104Y-64159127D01*
G37*
G36*
X100686537Y-64169224D02*
G01*
X100751421Y-64212579D01*
X100794776Y-64277463D01*
X100810000Y-64354000D01*
X100810000Y-64754000D01*
X100794776Y-64830537D01*
X100751421Y-64895421D01*
X100686537Y-64938776D01*
X100610000Y-64954000D01*
X100060000Y-64954000D01*
X99983463Y-64938776D01*
X99918579Y-64895421D01*
X99875224Y-64830537D01*
X99860000Y-64754000D01*
X99860000Y-64354000D01*
X99875224Y-64277463D01*
X99918579Y-64212579D01*
X99983463Y-64169224D01*
X100060000Y-64154000D01*
X100610000Y-64154000D01*
X100686537Y-64169224D01*
G37*
G36*
X102464537Y-64169224D02*
G01*
X102529421Y-64212579D01*
X102572776Y-64277463D01*
X102588000Y-64354000D01*
X102588000Y-64754000D01*
X102572776Y-64830537D01*
X102529421Y-64895421D01*
X102464537Y-64938776D01*
X102388000Y-64954000D01*
X101838000Y-64954000D01*
X101761463Y-64938776D01*
X101696579Y-64895421D01*
X101653224Y-64830537D01*
X101638000Y-64754000D01*
X101638000Y-64354000D01*
X101653224Y-64277463D01*
X101696579Y-64212579D01*
X101761463Y-64169224D01*
X101838000Y-64154000D01*
X102388000Y-64154000D01*
X102464537Y-64169224D01*
G37*
G36*
X96639403Y-64069418D02*
G01*
X96688066Y-64101934D01*
X96720582Y-64150597D01*
X96732000Y-64208000D01*
X96732000Y-64508000D01*
X96720582Y-64565403D01*
X96688066Y-64614066D01*
X96639403Y-64646582D01*
X96582000Y-64658000D01*
X95557000Y-64658000D01*
X95499597Y-64646582D01*
X95450934Y-64614066D01*
X95418418Y-64565403D01*
X95407000Y-64508000D01*
X95407000Y-64208000D01*
X95418418Y-64150597D01*
X95450934Y-64101934D01*
X95499597Y-64069418D01*
X95557000Y-64058000D01*
X96582000Y-64058000D01*
X96639403Y-64069418D01*
G37*
G36*
X98914403Y-64069418D02*
G01*
X98963066Y-64101934D01*
X98995582Y-64150597D01*
X99007000Y-64208000D01*
X99007000Y-64508000D01*
X98995582Y-64565403D01*
X98963066Y-64614066D01*
X98914403Y-64646582D01*
X98857000Y-64658000D01*
X97832000Y-64658000D01*
X97774597Y-64646582D01*
X97725934Y-64614066D01*
X97693418Y-64565403D01*
X97682000Y-64508000D01*
X97682000Y-64208000D01*
X97693418Y-64150597D01*
X97725934Y-64101934D01*
X97774597Y-64069418D01*
X97832000Y-64058000D01*
X98857000Y-64058000D01*
X98914403Y-64069418D01*
G37*
G36*
X98914403Y-63119418D02*
G01*
X98963066Y-63151934D01*
X98995582Y-63200597D01*
X99007000Y-63258000D01*
X99007000Y-63558000D01*
X98995582Y-63615403D01*
X98963066Y-63664066D01*
X98914403Y-63696582D01*
X98857000Y-63708000D01*
X97832000Y-63708000D01*
X97774597Y-63696582D01*
X97725934Y-63664066D01*
X97693418Y-63615403D01*
X97682000Y-63558000D01*
X97682000Y-63258000D01*
X97693418Y-63200597D01*
X97725934Y-63151934D01*
X97774597Y-63119418D01*
X97832000Y-63108000D01*
X98857000Y-63108000D01*
X98914403Y-63119418D01*
G37*
G36*
X102769308Y-62219534D02*
G01*
X102808239Y-62245547D01*
X102834252Y-62284478D01*
X102843386Y-62330400D01*
X102843386Y-62890400D01*
X102834252Y-62936322D01*
X102808239Y-62975253D01*
X102769308Y-63001266D01*
X102723386Y-63010400D01*
X100263386Y-63010400D01*
X100217464Y-63001266D01*
X100178533Y-62975253D01*
X100152520Y-62936322D01*
X100143386Y-62890400D01*
X100143386Y-62330400D01*
X100152520Y-62284478D01*
X100178533Y-62245547D01*
X100217464Y-62219534D01*
X100263386Y-62210400D01*
X102723386Y-62210400D01*
X102769308Y-62219534D01*
G37*
G36*
X96639403Y-62169418D02*
G01*
X96688066Y-62201934D01*
X96720582Y-62250597D01*
X96732000Y-62308000D01*
X96732000Y-62608000D01*
X96720582Y-62665403D01*
X96688066Y-62714066D01*
X96639403Y-62746582D01*
X96582000Y-62758000D01*
X95557000Y-62758000D01*
X95499597Y-62746582D01*
X95450934Y-62714066D01*
X95418418Y-62665403D01*
X95407000Y-62608000D01*
X95407000Y-62308000D01*
X95418418Y-62250597D01*
X95450934Y-62201934D01*
X95499597Y-62169418D01*
X95557000Y-62158000D01*
X96582000Y-62158000D01*
X96639403Y-62169418D01*
G37*
G36*
X98914403Y-62169418D02*
G01*
X98963066Y-62201934D01*
X98995582Y-62250597D01*
X99007000Y-62308000D01*
X99007000Y-62608000D01*
X98995582Y-62665403D01*
X98963066Y-62714066D01*
X98914403Y-62746582D01*
X98857000Y-62758000D01*
X97832000Y-62758000D01*
X97774597Y-62746582D01*
X97725934Y-62714066D01*
X97693418Y-62665403D01*
X97682000Y-62608000D01*
X97682000Y-62308000D01*
X97693418Y-62250597D01*
X97725934Y-62201934D01*
X97774597Y-62169418D01*
X97832000Y-62158000D01*
X98857000Y-62158000D01*
X98914403Y-62169418D01*
G37*
G36*
X94296104Y-59968127D02*
G01*
X94369099Y-60016901D01*
X94417873Y-60089896D01*
X94435000Y-60176000D01*
X94435000Y-60676000D01*
X94417873Y-60762104D01*
X94369099Y-60835099D01*
X94296104Y-60883873D01*
X94210000Y-60901000D01*
X93760000Y-60901000D01*
X93673896Y-60883873D01*
X93600901Y-60835099D01*
X93552127Y-60762104D01*
X93535000Y-60676000D01*
X93535000Y-60176000D01*
X93552127Y-60089896D01*
X93600901Y-60016901D01*
X93673896Y-59968127D01*
X93760000Y-59951000D01*
X94210000Y-59951000D01*
X94296104Y-59968127D01*
G37*
G36*
X95846104Y-59968127D02*
G01*
X95919099Y-60016901D01*
X95967873Y-60089896D01*
X95985000Y-60176000D01*
X95985000Y-60676000D01*
X95967873Y-60762104D01*
X95919099Y-60835099D01*
X95846104Y-60883873D01*
X95760000Y-60901000D01*
X95310000Y-60901000D01*
X95223896Y-60883873D01*
X95150901Y-60835099D01*
X95102127Y-60762104D01*
X95085000Y-60676000D01*
X95085000Y-60176000D01*
X95102127Y-60089896D01*
X95150901Y-60016901D01*
X95223896Y-59968127D01*
X95310000Y-59951000D01*
X95760000Y-59951000D01*
X95846104Y-59968127D01*
G37*
G36*
X97598104Y-59968127D02*
G01*
X97671099Y-60016901D01*
X97719873Y-60089896D01*
X97737000Y-60176000D01*
X97737000Y-60676000D01*
X97719873Y-60762104D01*
X97671099Y-60835099D01*
X97598104Y-60883873D01*
X97512000Y-60901000D01*
X97062000Y-60901000D01*
X96975896Y-60883873D01*
X96902901Y-60835099D01*
X96854127Y-60762104D01*
X96837000Y-60676000D01*
X96837000Y-60176000D01*
X96854127Y-60089896D01*
X96902901Y-60016901D01*
X96975896Y-59968127D01*
X97062000Y-59951000D01*
X97512000Y-59951000D01*
X97598104Y-59968127D01*
G37*
G36*
X99148104Y-59968127D02*
G01*
X99221099Y-60016901D01*
X99269873Y-60089896D01*
X99287000Y-60176000D01*
X99287000Y-60676000D01*
X99269873Y-60762104D01*
X99221099Y-60835099D01*
X99148104Y-60883873D01*
X99062000Y-60901000D01*
X98612000Y-60901000D01*
X98525896Y-60883873D01*
X98452901Y-60835099D01*
X98404127Y-60762104D01*
X98387000Y-60676000D01*
X98387000Y-60176000D01*
X98404127Y-60089896D01*
X98452901Y-60016901D01*
X98525896Y-59968127D01*
X98612000Y-59951000D01*
X99062000Y-59951000D01*
X99148104Y-59968127D01*
G37*
G36*
X102769308Y-59908134D02*
G01*
X102808239Y-59934147D01*
X102834252Y-59973078D01*
X102843386Y-60019000D01*
X102843386Y-60579000D01*
X102834252Y-60624922D01*
X102808239Y-60663853D01*
X102769308Y-60689866D01*
X102723386Y-60699000D01*
X100263386Y-60699000D01*
X100217464Y-60689866D01*
X100178533Y-60663853D01*
X100152520Y-60624922D01*
X100143386Y-60579000D01*
X100143386Y-60019000D01*
X100152520Y-59973078D01*
X100178533Y-59934147D01*
X100217464Y-59908134D01*
X100263386Y-59899000D01*
X102723386Y-59899000D01*
X102769308Y-59908134D01*
G37*
G36*
X97854709Y-52268406D02*
G01*
X98140132Y-52344885D01*
X98413130Y-52457964D01*
X98669033Y-52605710D01*
X98903462Y-52785594D01*
X99112406Y-52994538D01*
X99292290Y-53228967D01*
X99440036Y-53484870D01*
X99553115Y-53757868D01*
X99629594Y-54043291D01*
X99668163Y-54336254D01*
X99668163Y-54631746D01*
X99629594Y-54924709D01*
X99553115Y-55210132D01*
X99440036Y-55483130D01*
X99292290Y-55739033D01*
X99112406Y-55973462D01*
X98903462Y-56182406D01*
X98669033Y-56362290D01*
X98413130Y-56510036D01*
X98140132Y-56623115D01*
X97854709Y-56699594D01*
X97561746Y-56738163D01*
X97266254Y-56738163D01*
X96973291Y-56699594D01*
X96687868Y-56623115D01*
X96414870Y-56510036D01*
X96158967Y-56362290D01*
X95924538Y-56182406D01*
X95715594Y-55973462D01*
X95535710Y-55739033D01*
X95387964Y-55483130D01*
X95274885Y-55210132D01*
X95198406Y-54924709D01*
X95159837Y-54631746D01*
X95159837Y-54336254D01*
X95198406Y-54043291D01*
X95274885Y-53757868D01*
X95387964Y-53484870D01*
X95535710Y-53228967D01*
X95715594Y-52994538D01*
X95924538Y-52785594D01*
X96158967Y-52605710D01*
X96414870Y-52457964D01*
X96687868Y-52344885D01*
X96973291Y-52268406D01*
X97266254Y-52229837D01*
X97561746Y-52229837D01*
X97854709Y-52268406D01*
G37*
G36*
X92013046Y-54396804D02*
G01*
X92065553Y-54402896D01*
X92083494Y-54410818D01*
X92106584Y-54415411D01*
X92131304Y-54431928D01*
X92152619Y-54441340D01*
X92167176Y-54455897D01*
X92189312Y-54470688D01*
X92204102Y-54492823D01*
X92218659Y-54507380D01*
X92228069Y-54528693D01*
X92244589Y-54553416D01*
X92249182Y-54576507D01*
X92257103Y-54594446D01*
X92263192Y-54646942D01*
X92264000Y-54651000D01*
X92264000Y-55841000D01*
X92263192Y-55845058D01*
X92257103Y-55897553D01*
X92249182Y-55915490D01*
X92244589Y-55938584D01*
X92228068Y-55963308D01*
X92218659Y-55984619D01*
X92204104Y-55999173D01*
X92189312Y-56021312D01*
X92167173Y-56036104D01*
X92152619Y-56050659D01*
X92131308Y-56060068D01*
X92106584Y-56076589D01*
X92083490Y-56081182D01*
X92065553Y-56089103D01*
X92013058Y-56095192D01*
X92009000Y-56096000D01*
X90119000Y-56096000D01*
X90114942Y-56095192D01*
X90062446Y-56089103D01*
X90044507Y-56081182D01*
X90021416Y-56076589D01*
X89996693Y-56060069D01*
X89975380Y-56050659D01*
X89960823Y-56036102D01*
X89938688Y-56021312D01*
X89923897Y-55999176D01*
X89909340Y-55984619D01*
X89899928Y-55963304D01*
X89883411Y-55938584D01*
X89878818Y-55915494D01*
X89870896Y-55897553D01*
X89864804Y-55845046D01*
X89864000Y-55841000D01*
X89864000Y-54651000D01*
X89864804Y-54646954D01*
X89870896Y-54594446D01*
X89878818Y-54576503D01*
X89883411Y-54553416D01*
X89899927Y-54528697D01*
X89909340Y-54507380D01*
X89923899Y-54492820D01*
X89938688Y-54470688D01*
X89960820Y-54455899D01*
X89975380Y-54441340D01*
X89996697Y-54431927D01*
X90021416Y-54415411D01*
X90044503Y-54410818D01*
X90062446Y-54402896D01*
X90114954Y-54396804D01*
X90119000Y-54396000D01*
X92009000Y-54396000D01*
X92013046Y-54396804D01*
G37*
G36*
X104713046Y-52872804D02*
G01*
X104765553Y-52878896D01*
X104783494Y-52886818D01*
X104806584Y-52891411D01*
X104831304Y-52907928D01*
X104852619Y-52917340D01*
X104867176Y-52931897D01*
X104889312Y-52946688D01*
X104904102Y-52968823D01*
X104918659Y-52983380D01*
X104928069Y-53004693D01*
X104944589Y-53029416D01*
X104949182Y-53052507D01*
X104957103Y-53070446D01*
X104963192Y-53122942D01*
X104964000Y-53127000D01*
X104964000Y-54317000D01*
X104963192Y-54321058D01*
X104957103Y-54373553D01*
X104949182Y-54391490D01*
X104944589Y-54414584D01*
X104928068Y-54439308D01*
X104918659Y-54460619D01*
X104904104Y-54475173D01*
X104889312Y-54497312D01*
X104867173Y-54512104D01*
X104852619Y-54526659D01*
X104831308Y-54536068D01*
X104806584Y-54552589D01*
X104783490Y-54557182D01*
X104765553Y-54565103D01*
X104713058Y-54571192D01*
X104709000Y-54572000D01*
X102819000Y-54572000D01*
X102814942Y-54571192D01*
X102762446Y-54565103D01*
X102744507Y-54557182D01*
X102721416Y-54552589D01*
X102696693Y-54536069D01*
X102675380Y-54526659D01*
X102660823Y-54512102D01*
X102638688Y-54497312D01*
X102623897Y-54475176D01*
X102609340Y-54460619D01*
X102599928Y-54439304D01*
X102583411Y-54414584D01*
X102578818Y-54391494D01*
X102570896Y-54373553D01*
X102564804Y-54321046D01*
X102564000Y-54317000D01*
X102564000Y-53127000D01*
X102564804Y-53122954D01*
X102570896Y-53070446D01*
X102578818Y-53052503D01*
X102583411Y-53029416D01*
X102599927Y-53004697D01*
X102609340Y-52983380D01*
X102623899Y-52968820D01*
X102638688Y-52946688D01*
X102660820Y-52931899D01*
X102675380Y-52917340D01*
X102696697Y-52907927D01*
X102721416Y-52891411D01*
X102744503Y-52886818D01*
X102762446Y-52878896D01*
X102814954Y-52872804D01*
X102819000Y-52872000D01*
X104709000Y-52872000D01*
X104713046Y-52872804D01*
G37*
G36*
X89812331Y-52261142D02*
G01*
X89860994Y-52293658D01*
X89893510Y-52342321D01*
X89904928Y-52399724D01*
X89904928Y-52699724D01*
X89893510Y-52757127D01*
X89860994Y-52805790D01*
X89812331Y-52838306D01*
X89754928Y-52849724D01*
X88729928Y-52849724D01*
X88672525Y-52838306D01*
X88623862Y-52805790D01*
X88591346Y-52757127D01*
X88579928Y-52699724D01*
X88579928Y-52399724D01*
X88591346Y-52342321D01*
X88623862Y-52293658D01*
X88672525Y-52261142D01*
X88729928Y-52249724D01*
X89754928Y-52249724D01*
X89812331Y-52261142D01*
G37*
G36*
X92087331Y-52261142D02*
G01*
X92135994Y-52293658D01*
X92168510Y-52342321D01*
X92179928Y-52399724D01*
X92179928Y-52699724D01*
X92168510Y-52757127D01*
X92135994Y-52805790D01*
X92087331Y-52838306D01*
X92029928Y-52849724D01*
X91004928Y-52849724D01*
X90947525Y-52838306D01*
X90898862Y-52805790D01*
X90866346Y-52757127D01*
X90854928Y-52699724D01*
X90854928Y-52399724D01*
X90866346Y-52342321D01*
X90898862Y-52293658D01*
X90947525Y-52261142D01*
X91004928Y-52249724D01*
X92029928Y-52249724D01*
X92087331Y-52261142D01*
G37*
G36*
X89812331Y-51311142D02*
G01*
X89860994Y-51343658D01*
X89893510Y-51392321D01*
X89904928Y-51449724D01*
X89904928Y-51749724D01*
X89893510Y-51807127D01*
X89860994Y-51855790D01*
X89812331Y-51888306D01*
X89754928Y-51899724D01*
X88729928Y-51899724D01*
X88672525Y-51888306D01*
X88623862Y-51855790D01*
X88591346Y-51807127D01*
X88579928Y-51749724D01*
X88579928Y-51449724D01*
X88591346Y-51392321D01*
X88623862Y-51343658D01*
X88672525Y-51311142D01*
X88729928Y-51299724D01*
X89754928Y-51299724D01*
X89812331Y-51311142D01*
G37*
G36*
X92087331Y-51311142D02*
G01*
X92135994Y-51343658D01*
X92168510Y-51392321D01*
X92179928Y-51449724D01*
X92179928Y-51749724D01*
X92168510Y-51807127D01*
X92135994Y-51855790D01*
X92087331Y-51888306D01*
X92029928Y-51899724D01*
X91004928Y-51899724D01*
X90947525Y-51888306D01*
X90898862Y-51855790D01*
X90866346Y-51807127D01*
X90854928Y-51749724D01*
X90854928Y-51449724D01*
X90866346Y-51392321D01*
X90898862Y-51343658D01*
X90947525Y-51311142D01*
X91004928Y-51299724D01*
X92029928Y-51299724D01*
X92087331Y-51311142D01*
G37*
G36*
X89812331Y-50361142D02*
G01*
X89860994Y-50393658D01*
X89893510Y-50442321D01*
X89904928Y-50499724D01*
X89904928Y-50799724D01*
X89893510Y-50857127D01*
X89860994Y-50905790D01*
X89812331Y-50938306D01*
X89754928Y-50949724D01*
X88729928Y-50949724D01*
X88672525Y-50938306D01*
X88623862Y-50905790D01*
X88591346Y-50857127D01*
X88579928Y-50799724D01*
X88579928Y-50499724D01*
X88591346Y-50442321D01*
X88623862Y-50393658D01*
X88672525Y-50361142D01*
X88729928Y-50349724D01*
X89754928Y-50349724D01*
X89812331Y-50361142D01*
G37*
G36*
X92087331Y-50361142D02*
G01*
X92135994Y-50393658D01*
X92168510Y-50442321D01*
X92179928Y-50499724D01*
X92179928Y-50799724D01*
X92168510Y-50857127D01*
X92135994Y-50905790D01*
X92087331Y-50938306D01*
X92029928Y-50949724D01*
X91004928Y-50949724D01*
X90947525Y-50938306D01*
X90898862Y-50905790D01*
X90866346Y-50857127D01*
X90854928Y-50799724D01*
X90854928Y-50499724D01*
X90866346Y-50442321D01*
X90898862Y-50393658D01*
X90947525Y-50361142D01*
X91004928Y-50349724D01*
X92029928Y-50349724D01*
X92087331Y-50361142D01*
G37*
G36*
X93750403Y-48445418D02*
G01*
X93799066Y-48477934D01*
X93831582Y-48526597D01*
X93843000Y-48584000D01*
X93843000Y-49759000D01*
X93831582Y-49816403D01*
X93799066Y-49865066D01*
X93750403Y-49897582D01*
X93693000Y-49909000D01*
X93393000Y-49909000D01*
X93335597Y-49897582D01*
X93286934Y-49865066D01*
X93254418Y-49816403D01*
X93243000Y-49759000D01*
X93243000Y-48584000D01*
X93254418Y-48526597D01*
X93286934Y-48477934D01*
X93335597Y-48445418D01*
X93393000Y-48434000D01*
X93693000Y-48434000D01*
X93750403Y-48445418D01*
G37*
G36*
X95650403Y-48445418D02*
G01*
X95699066Y-48477934D01*
X95731582Y-48526597D01*
X95743000Y-48584000D01*
X95743000Y-49759000D01*
X95731582Y-49816403D01*
X95699066Y-49865066D01*
X95650403Y-49897582D01*
X95593000Y-49909000D01*
X95293000Y-49909000D01*
X95235597Y-49897582D01*
X95186934Y-49865066D01*
X95154418Y-49816403D01*
X95143000Y-49759000D01*
X95143000Y-48584000D01*
X95154418Y-48526597D01*
X95186934Y-48477934D01*
X95235597Y-48445418D01*
X95293000Y-48434000D01*
X95593000Y-48434000D01*
X95650403Y-48445418D01*
G37*
G36*
X99323203Y-48445418D02*
G01*
X99371866Y-48477934D01*
X99404382Y-48526597D01*
X99415800Y-48584000D01*
X99415800Y-49759000D01*
X99404382Y-49816403D01*
X99371866Y-49865066D01*
X99323203Y-49897582D01*
X99265800Y-49909000D01*
X98965800Y-49909000D01*
X98908397Y-49897582D01*
X98859734Y-49865066D01*
X98827218Y-49816403D01*
X98815800Y-49759000D01*
X98815800Y-48584000D01*
X98827218Y-48526597D01*
X98859734Y-48477934D01*
X98908397Y-48445418D01*
X98965800Y-48434000D01*
X99265800Y-48434000D01*
X99323203Y-48445418D01*
G37*
G36*
X92050537Y-48547224D02*
G01*
X92115421Y-48590579D01*
X92158776Y-48655463D01*
X92174000Y-48732000D01*
X92174000Y-49132000D01*
X92158776Y-49208537D01*
X92115421Y-49273421D01*
X92050537Y-49316776D01*
X91974000Y-49332000D01*
X91424000Y-49332000D01*
X91347463Y-49316776D01*
X91282579Y-49273421D01*
X91239224Y-49208537D01*
X91224000Y-49132000D01*
X91224000Y-48732000D01*
X91239224Y-48655463D01*
X91282579Y-48590579D01*
X91347463Y-48547224D01*
X91424000Y-48532000D01*
X91974000Y-48532000D01*
X92050537Y-48547224D01*
G37*
G36*
X94700403Y-46570418D02*
G01*
X94749066Y-46602934D01*
X94781582Y-46651597D01*
X94793000Y-46709000D01*
X94793000Y-47884000D01*
X94781582Y-47941403D01*
X94749066Y-47990066D01*
X94700403Y-48022582D01*
X94643000Y-48034000D01*
X94343000Y-48034000D01*
X94285597Y-48022582D01*
X94236934Y-47990066D01*
X94204418Y-47941403D01*
X94193000Y-47884000D01*
X94193000Y-46709000D01*
X94204418Y-46651597D01*
X94236934Y-46602934D01*
X94285597Y-46570418D01*
X94343000Y-46559000D01*
X94643000Y-46559000D01*
X94700403Y-46570418D01*
G37*
G36*
X98373203Y-46570418D02*
G01*
X98421866Y-46602934D01*
X98454382Y-46651597D01*
X98465800Y-46709000D01*
X98465800Y-47884000D01*
X98454382Y-47941403D01*
X98421866Y-47990066D01*
X98373203Y-48022582D01*
X98315800Y-48034000D01*
X98015800Y-48034000D01*
X97958397Y-48022582D01*
X97909734Y-47990066D01*
X97877218Y-47941403D01*
X97865800Y-47884000D01*
X97865800Y-46709000D01*
X97877218Y-46651597D01*
X97909734Y-46602934D01*
X97958397Y-46570418D01*
X98015800Y-46559000D01*
X98315800Y-46559000D01*
X98373203Y-46570418D01*
G37*
G36*
X100273203Y-46570418D02*
G01*
X100321866Y-46602934D01*
X100354382Y-46651597D01*
X100365800Y-46709000D01*
X100365800Y-47884000D01*
X100354382Y-47941403D01*
X100321866Y-47990066D01*
X100273203Y-48022582D01*
X100215800Y-48034000D01*
X99915800Y-48034000D01*
X99858397Y-48022582D01*
X99809734Y-47990066D01*
X99777218Y-47941403D01*
X99765800Y-47884000D01*
X99765800Y-46709000D01*
X99777218Y-46651597D01*
X99809734Y-46602934D01*
X99858397Y-46570418D01*
X99915800Y-46559000D01*
X100215800Y-46559000D01*
X100273203Y-46570418D01*
G37*
G36*
X92050537Y-46897224D02*
G01*
X92115421Y-46940579D01*
X92158776Y-47005463D01*
X92174000Y-47082000D01*
X92174000Y-47482000D01*
X92158776Y-47558537D01*
X92115421Y-47623421D01*
X92050537Y-47666776D01*
X91974000Y-47682000D01*
X91424000Y-47682000D01*
X91347463Y-47666776D01*
X91282579Y-47623421D01*
X91239224Y-47558537D01*
X91224000Y-47482000D01*
X91224000Y-47082000D01*
X91239224Y-47005463D01*
X91282579Y-46940579D01*
X91347463Y-46897224D01*
X91424000Y-46882000D01*
X91974000Y-46882000D01*
X92050537Y-46897224D01*
G37*
G36*
X95183968Y-43076445D02*
G01*
X95407825Y-43149181D01*
X95617548Y-43256040D01*
X95807972Y-43394391D01*
X95974409Y-43560828D01*
X96112760Y-43751252D01*
X96219619Y-43960975D01*
X96292355Y-44184832D01*
X96329176Y-44417311D01*
X96329176Y-44652689D01*
X96292355Y-44885168D01*
X96219619Y-45109025D01*
X96112760Y-45318748D01*
X95974409Y-45509172D01*
X95807972Y-45675609D01*
X95617548Y-45813960D01*
X95407825Y-45920819D01*
X95183968Y-45993555D01*
X94951489Y-46030376D01*
X94716111Y-46030376D01*
X94483632Y-45993555D01*
X94259775Y-45920819D01*
X94050052Y-45813960D01*
X93859628Y-45675609D01*
X93693191Y-45509172D01*
X93554840Y-45318748D01*
X93447981Y-45109025D01*
X93375245Y-44885168D01*
X93338424Y-44652689D01*
X93338424Y-44417311D01*
X93375245Y-44184832D01*
X93447981Y-43960975D01*
X93554840Y-43751252D01*
X93693191Y-43560828D01*
X93859628Y-43394391D01*
X94050052Y-43256040D01*
X94259775Y-43149181D01*
X94483632Y-43076445D01*
X94716111Y-43039624D01*
X94951489Y-43039624D01*
X95183968Y-43076445D01*
G37*
G36*
X100183968Y-43076445D02*
G01*
X100407825Y-43149181D01*
X100617548Y-43256040D01*
X100807972Y-43394391D01*
X100974409Y-43560828D01*
X101112760Y-43751252D01*
X101219619Y-43960975D01*
X101292355Y-44184832D01*
X101329176Y-44417311D01*
X101329176Y-44652689D01*
X101292355Y-44885168D01*
X101219619Y-45109025D01*
X101112760Y-45318748D01*
X100974409Y-45509172D01*
X100807972Y-45675609D01*
X100617548Y-45813960D01*
X100407825Y-45920819D01*
X100183968Y-45993555D01*
X99951489Y-46030376D01*
X99716111Y-46030376D01*
X99483632Y-45993555D01*
X99259775Y-45920819D01*
X99050052Y-45813960D01*
X98859628Y-45675609D01*
X98693191Y-45509172D01*
X98554840Y-45318748D01*
X98447981Y-45109025D01*
X98375245Y-44885168D01*
X98338424Y-44652689D01*
X98338424Y-44417311D01*
X98375245Y-44184832D01*
X98447981Y-43960975D01*
X98554840Y-43751252D01*
X98693191Y-43560828D01*
X98859628Y-43394391D01*
X99050052Y-43256040D01*
X99259775Y-43149181D01*
X99483632Y-43076445D01*
X99716111Y-43039624D01*
X99951489Y-43039624D01*
X100183968Y-43076445D01*
G37*
G36*
X95741203Y-41997818D02*
G01*
X95789866Y-42030334D01*
X95822382Y-42078997D01*
X95833800Y-42136400D01*
X95833800Y-42436400D01*
X95822382Y-42493803D01*
X95789866Y-42542466D01*
X95741203Y-42574982D01*
X95683800Y-42586400D01*
X94033800Y-42586400D01*
X93976397Y-42574982D01*
X93927734Y-42542466D01*
X93895218Y-42493803D01*
X93883800Y-42436400D01*
X93883800Y-42136400D01*
X93895218Y-42078997D01*
X93927734Y-42030334D01*
X93976397Y-41997818D01*
X94033800Y-41986400D01*
X95683800Y-41986400D01*
X95741203Y-41997818D01*
G37*
G36*
X100691203Y-41997818D02*
G01*
X100739866Y-42030334D01*
X100772382Y-42078997D01*
X100783800Y-42136400D01*
X100783800Y-42436400D01*
X100772382Y-42493803D01*
X100739866Y-42542466D01*
X100691203Y-42574982D01*
X100633800Y-42586400D01*
X98983800Y-42586400D01*
X98926397Y-42574982D01*
X98877734Y-42542466D01*
X98845218Y-42493803D01*
X98833800Y-42436400D01*
X98833800Y-42136400D01*
X98845218Y-42078997D01*
X98877734Y-42030334D01*
X98926397Y-41997818D01*
X98983800Y-41986400D01*
X100633800Y-41986400D01*
X100691203Y-41997818D01*
G37*
G36*
X102817504Y-41638727D02*
G01*
X102890499Y-41687501D01*
X102939273Y-41760496D01*
X102956400Y-41846600D01*
X102956400Y-42346600D01*
X102939273Y-42432704D01*
X102890499Y-42505699D01*
X102817504Y-42554473D01*
X102731400Y-42571600D01*
X102281400Y-42571600D01*
X102195296Y-42554473D01*
X102122301Y-42505699D01*
X102073527Y-42432704D01*
X102056400Y-42346600D01*
X102056400Y-41846600D01*
X102073527Y-41760496D01*
X102122301Y-41687501D01*
X102195296Y-41638727D01*
X102281400Y-41621600D01*
X102731400Y-41621600D01*
X102817504Y-41638727D01*
G37*
G36*
X104367504Y-41638727D02*
G01*
X104440499Y-41687501D01*
X104489273Y-41760496D01*
X104506400Y-41846600D01*
X104506400Y-42346600D01*
X104489273Y-42432704D01*
X104440499Y-42505699D01*
X104367504Y-42554473D01*
X104281400Y-42571600D01*
X103831400Y-42571600D01*
X103745296Y-42554473D01*
X103672301Y-42505699D01*
X103623527Y-42432704D01*
X103606400Y-42346600D01*
X103606400Y-41846600D01*
X103623527Y-41760496D01*
X103672301Y-41687501D01*
X103745296Y-41638727D01*
X103831400Y-41621600D01*
X104281400Y-41621600D01*
X104367504Y-41638727D01*
G37*
G36*
X89309537Y-41297224D02*
G01*
X89374421Y-41340579D01*
X89417776Y-41405463D01*
X89433000Y-41482000D01*
X89433000Y-42032000D01*
X89417776Y-42108537D01*
X89374421Y-42173421D01*
X89309537Y-42216776D01*
X89233000Y-42232000D01*
X88833000Y-42232000D01*
X88756463Y-42216776D01*
X88691579Y-42173421D01*
X88648224Y-42108537D01*
X88633000Y-42032000D01*
X88633000Y-41482000D01*
X88648224Y-41405463D01*
X88691579Y-41340579D01*
X88756463Y-41297224D01*
X88833000Y-41282000D01*
X89233000Y-41282000D01*
X89309537Y-41297224D01*
G37*
G36*
X90959537Y-41297224D02*
G01*
X91024421Y-41340579D01*
X91067776Y-41405463D01*
X91083000Y-41482000D01*
X91083000Y-42032000D01*
X91067776Y-42108537D01*
X91024421Y-42173421D01*
X90959537Y-42216776D01*
X90883000Y-42232000D01*
X90483000Y-42232000D01*
X90406463Y-42216776D01*
X90341579Y-42173421D01*
X90298224Y-42108537D01*
X90283000Y-42032000D01*
X90283000Y-41482000D01*
X90298224Y-41405463D01*
X90341579Y-41340579D01*
X90406463Y-41297224D01*
X90483000Y-41282000D01*
X90883000Y-41282000D01*
X90959537Y-41297224D01*
G37*
G36*
X98538800Y-42031400D02*
G01*
X96128800Y-42031400D01*
X96128800Y-38731400D01*
X98538800Y-38731400D01*
X98538800Y-42031400D01*
G37*
G36*
X95741203Y-40727818D02*
G01*
X95789866Y-40760334D01*
X95822382Y-40808997D01*
X95833800Y-40866400D01*
X95833800Y-41166400D01*
X95822382Y-41223803D01*
X95789866Y-41272466D01*
X95741203Y-41304982D01*
X95683800Y-41316400D01*
X94033800Y-41316400D01*
X93976397Y-41304982D01*
X93927734Y-41272466D01*
X93895218Y-41223803D01*
X93883800Y-41166400D01*
X93883800Y-40866400D01*
X93895218Y-40808997D01*
X93927734Y-40760334D01*
X93976397Y-40727818D01*
X94033800Y-40716400D01*
X95683800Y-40716400D01*
X95741203Y-40727818D01*
G37*
G36*
X100691203Y-40727818D02*
G01*
X100739866Y-40760334D01*
X100772382Y-40808997D01*
X100783800Y-40866400D01*
X100783800Y-41166400D01*
X100772382Y-41223803D01*
X100739866Y-41272466D01*
X100691203Y-41304982D01*
X100633800Y-41316400D01*
X98983800Y-41316400D01*
X98926397Y-41304982D01*
X98877734Y-41272466D01*
X98845218Y-41223803D01*
X98833800Y-41166400D01*
X98833800Y-40866400D01*
X98845218Y-40808997D01*
X98877734Y-40760334D01*
X98926397Y-40727818D01*
X98983800Y-40716400D01*
X100633800Y-40716400D01*
X100691203Y-40727818D01*
G37*
G36*
X106816676Y-39857199D02*
G01*
X106845225Y-39876275D01*
X106864301Y-39904824D01*
X106871000Y-39938500D01*
X106871000Y-40762500D01*
X106864301Y-40796176D01*
X106845225Y-40824725D01*
X106816676Y-40843801D01*
X106783000Y-40850500D01*
X106079000Y-40850500D01*
X106045324Y-40843801D01*
X106016775Y-40824725D01*
X105997699Y-40796176D01*
X105991000Y-40762500D01*
X105991000Y-39938500D01*
X105997699Y-39904824D01*
X106016775Y-39876275D01*
X106045324Y-39857199D01*
X106079000Y-39850500D01*
X106783000Y-39850500D01*
X106816676Y-39857199D01*
G37*
G36*
X89309537Y-39773224D02*
G01*
X89374421Y-39816579D01*
X89417776Y-39881463D01*
X89433000Y-39958000D01*
X89433000Y-40508000D01*
X89417776Y-40584537D01*
X89374421Y-40649421D01*
X89309537Y-40692776D01*
X89233000Y-40708000D01*
X88833000Y-40708000D01*
X88756463Y-40692776D01*
X88691579Y-40649421D01*
X88648224Y-40584537D01*
X88633000Y-40508000D01*
X88633000Y-39958000D01*
X88648224Y-39881463D01*
X88691579Y-39816579D01*
X88756463Y-39773224D01*
X88833000Y-39758000D01*
X89233000Y-39758000D01*
X89309537Y-39773224D01*
G37*
G36*
X90959537Y-39773224D02*
G01*
X91024421Y-39816579D01*
X91067776Y-39881463D01*
X91083000Y-39958000D01*
X91083000Y-40508000D01*
X91067776Y-40584537D01*
X91024421Y-40649421D01*
X90959537Y-40692776D01*
X90883000Y-40708000D01*
X90483000Y-40708000D01*
X90406463Y-40692776D01*
X90341579Y-40649421D01*
X90298224Y-40584537D01*
X90283000Y-40508000D01*
X90283000Y-39958000D01*
X90298224Y-39881463D01*
X90341579Y-39816579D01*
X90406463Y-39773224D01*
X90483000Y-39758000D01*
X90883000Y-39758000D01*
X90959537Y-39773224D01*
G37*
G36*
X92812537Y-39895224D02*
G01*
X92877421Y-39938579D01*
X92920776Y-40003463D01*
X92936000Y-40080000D01*
X92936000Y-40480000D01*
X92920776Y-40556537D01*
X92877421Y-40621421D01*
X92812537Y-40664776D01*
X92736000Y-40680000D01*
X92186000Y-40680000D01*
X92109463Y-40664776D01*
X92044579Y-40621421D01*
X92001224Y-40556537D01*
X91986000Y-40480000D01*
X91986000Y-40080000D01*
X92001224Y-40003463D01*
X92044579Y-39938579D01*
X92109463Y-39895224D01*
X92186000Y-39880000D01*
X92736000Y-39880000D01*
X92812537Y-39895224D01*
G37*
G36*
X95741203Y-39457818D02*
G01*
X95789866Y-39490334D01*
X95822382Y-39538997D01*
X95833800Y-39596400D01*
X95833800Y-39896400D01*
X95822382Y-39953803D01*
X95789866Y-40002466D01*
X95741203Y-40034982D01*
X95683800Y-40046400D01*
X94033800Y-40046400D01*
X93976397Y-40034982D01*
X93927734Y-40002466D01*
X93895218Y-39953803D01*
X93883800Y-39896400D01*
X93883800Y-39596400D01*
X93895218Y-39538997D01*
X93927734Y-39490334D01*
X93976397Y-39457818D01*
X94033800Y-39446400D01*
X95683800Y-39446400D01*
X95741203Y-39457818D01*
G37*
G36*
X100691203Y-39457818D02*
G01*
X100739866Y-39490334D01*
X100772382Y-39538997D01*
X100783800Y-39596400D01*
X100783800Y-39896400D01*
X100772382Y-39953803D01*
X100739866Y-40002466D01*
X100691203Y-40034982D01*
X100633800Y-40046400D01*
X98983800Y-40046400D01*
X98926397Y-40034982D01*
X98877734Y-40002466D01*
X98845218Y-39953803D01*
X98833800Y-39896400D01*
X98833800Y-39596400D01*
X98845218Y-39538997D01*
X98877734Y-39490334D01*
X98926397Y-39457818D01*
X98983800Y-39446400D01*
X100633800Y-39446400D01*
X100691203Y-39457818D01*
G37*
G36*
X106623838Y-39033849D02*
G01*
X106638113Y-39043387D01*
X106647651Y-39057662D01*
X106651000Y-39074500D01*
X106651000Y-39516500D01*
X106647651Y-39533338D01*
X106638113Y-39547613D01*
X106623838Y-39557151D01*
X106607000Y-39560500D01*
X106255000Y-39560500D01*
X106238162Y-39557151D01*
X106223887Y-39547613D01*
X106214349Y-39533338D01*
X106211000Y-39516500D01*
X106211000Y-39074500D01*
X106214349Y-39057662D01*
X106223887Y-39043387D01*
X106238162Y-39033849D01*
X106255000Y-39030500D01*
X106607000Y-39030500D01*
X106623838Y-39033849D01*
G37*
G36*
X89394104Y-38235127D02*
G01*
X89467099Y-38283901D01*
X89515873Y-38356896D01*
X89533000Y-38443000D01*
X89533000Y-38943000D01*
X89515873Y-39029104D01*
X89467099Y-39102099D01*
X89394104Y-39150873D01*
X89308000Y-39168000D01*
X88858000Y-39168000D01*
X88771896Y-39150873D01*
X88698901Y-39102099D01*
X88650127Y-39029104D01*
X88633000Y-38943000D01*
X88633000Y-38443000D01*
X88650127Y-38356896D01*
X88698901Y-38283901D01*
X88771896Y-38235127D01*
X88858000Y-38218000D01*
X89308000Y-38218000D01*
X89394104Y-38235127D01*
G37*
G36*
X90944104Y-38235127D02*
G01*
X91017099Y-38283901D01*
X91065873Y-38356896D01*
X91083000Y-38443000D01*
X91083000Y-38943000D01*
X91065873Y-39029104D01*
X91017099Y-39102099D01*
X90944104Y-39150873D01*
X90858000Y-39168000D01*
X90408000Y-39168000D01*
X90321896Y-39150873D01*
X90248901Y-39102099D01*
X90200127Y-39029104D01*
X90183000Y-38943000D01*
X90183000Y-38443000D01*
X90200127Y-38356896D01*
X90248901Y-38283901D01*
X90321896Y-38235127D01*
X90408000Y-38218000D01*
X90858000Y-38218000D01*
X90944104Y-38235127D01*
G37*
G36*
X92812537Y-38245224D02*
G01*
X92877421Y-38288579D01*
X92920776Y-38353463D01*
X92936000Y-38430000D01*
X92936000Y-38830000D01*
X92920776Y-38906537D01*
X92877421Y-38971421D01*
X92812537Y-39014776D01*
X92736000Y-39030000D01*
X92186000Y-39030000D01*
X92109463Y-39014776D01*
X92044579Y-38971421D01*
X92001224Y-38906537D01*
X91986000Y-38830000D01*
X91986000Y-38430000D01*
X92001224Y-38353463D01*
X92044579Y-38288579D01*
X92109463Y-38245224D01*
X92186000Y-38230000D01*
X92736000Y-38230000D01*
X92812537Y-38245224D01*
G37*
G36*
X106623838Y-38253849D02*
G01*
X106638113Y-38263387D01*
X106647651Y-38277662D01*
X106651000Y-38294500D01*
X106651000Y-38736500D01*
X106647651Y-38753338D01*
X106638113Y-38767613D01*
X106623838Y-38777151D01*
X106607000Y-38780500D01*
X106255000Y-38780500D01*
X106238162Y-38777151D01*
X106223887Y-38767613D01*
X106214349Y-38753338D01*
X106211000Y-38736500D01*
X106211000Y-38294500D01*
X106214349Y-38277662D01*
X106223887Y-38263387D01*
X106238162Y-38253849D01*
X106255000Y-38250500D01*
X106607000Y-38250500D01*
X106623838Y-38253849D01*
G37*
G36*
X95741203Y-38187818D02*
G01*
X95789866Y-38220334D01*
X95822382Y-38268997D01*
X95833800Y-38326400D01*
X95833800Y-38626400D01*
X95822382Y-38683803D01*
X95789866Y-38732466D01*
X95741203Y-38764982D01*
X95683800Y-38776400D01*
X94033800Y-38776400D01*
X93976397Y-38764982D01*
X93927734Y-38732466D01*
X93895218Y-38683803D01*
X93883800Y-38626400D01*
X93883800Y-38326400D01*
X93895218Y-38268997D01*
X93927734Y-38220334D01*
X93976397Y-38187818D01*
X94033800Y-38176400D01*
X95683800Y-38176400D01*
X95741203Y-38187818D01*
G37*
G36*
X100691203Y-38187818D02*
G01*
X100739866Y-38220334D01*
X100772382Y-38268997D01*
X100783800Y-38326400D01*
X100783800Y-38626400D01*
X100772382Y-38683803D01*
X100739866Y-38732466D01*
X100691203Y-38764982D01*
X100633800Y-38776400D01*
X98983800Y-38776400D01*
X98926397Y-38764982D01*
X98877734Y-38732466D01*
X98845218Y-38683803D01*
X98833800Y-38626400D01*
X98833800Y-38326400D01*
X98845218Y-38268997D01*
X98877734Y-38220334D01*
X98926397Y-38187818D01*
X98983800Y-38176400D01*
X100633800Y-38176400D01*
X100691203Y-38187818D01*
G37*
G36*
X97683968Y-35476445D02*
G01*
X97907825Y-35549181D01*
X98117548Y-35656040D01*
X98307972Y-35794391D01*
X98474409Y-35960828D01*
X98612760Y-36151252D01*
X98719619Y-36360975D01*
X98792355Y-36584832D01*
X98829176Y-36817311D01*
X98829176Y-37052689D01*
X98792355Y-37285168D01*
X98719619Y-37509025D01*
X98612760Y-37718748D01*
X98474409Y-37909172D01*
X98307972Y-38075609D01*
X98117548Y-38213960D01*
X97907825Y-38320819D01*
X97683968Y-38393555D01*
X97451489Y-38430376D01*
X97216111Y-38430376D01*
X96983632Y-38393555D01*
X96759775Y-38320819D01*
X96550052Y-38213960D01*
X96359628Y-38075609D01*
X96193191Y-37909172D01*
X96054840Y-37718748D01*
X95947981Y-37509025D01*
X95875245Y-37285168D01*
X95838424Y-37052689D01*
X95838424Y-36817311D01*
X95875245Y-36584832D01*
X95947981Y-36360975D01*
X96054840Y-36151252D01*
X96193191Y-35960828D01*
X96359628Y-35794391D01*
X96550052Y-35656040D01*
X96759775Y-35549181D01*
X96983632Y-35476445D01*
X97216111Y-35439624D01*
X97451489Y-35439624D01*
X97683968Y-35476445D01*
G37*
G36*
X106816676Y-36957199D02*
G01*
X106845225Y-36976275D01*
X106864301Y-37004824D01*
X106871000Y-37038500D01*
X106871000Y-37862500D01*
X106864301Y-37896176D01*
X106845225Y-37924725D01*
X106816676Y-37943801D01*
X106783000Y-37950500D01*
X106079000Y-37950500D01*
X106045324Y-37943801D01*
X106016775Y-37924725D01*
X105997699Y-37896176D01*
X105991000Y-37862500D01*
X105991000Y-37038500D01*
X105997699Y-37004824D01*
X106016775Y-36976275D01*
X106045324Y-36957199D01*
X106079000Y-36950500D01*
X106783000Y-36950500D01*
X106816676Y-36957199D01*
G37*
G36*
X102712937Y-35963224D02*
G01*
X102777821Y-36006579D01*
X102821176Y-36071463D01*
X102836400Y-36148000D01*
X102836400Y-36698000D01*
X102821176Y-36774537D01*
X102777821Y-36839421D01*
X102712937Y-36882776D01*
X102636400Y-36898000D01*
X102236400Y-36898000D01*
X102159863Y-36882776D01*
X102094979Y-36839421D01*
X102051624Y-36774537D01*
X102036400Y-36698000D01*
X102036400Y-36148000D01*
X102051624Y-36071463D01*
X102094979Y-36006579D01*
X102159863Y-35963224D01*
X102236400Y-35948000D01*
X102636400Y-35948000D01*
X102712937Y-35963224D01*
G37*
G36*
X104362937Y-35963224D02*
G01*
X104427821Y-36006579D01*
X104471176Y-36071463D01*
X104486400Y-36148000D01*
X104486400Y-36698000D01*
X104471176Y-36774537D01*
X104427821Y-36839421D01*
X104362937Y-36882776D01*
X104286400Y-36898000D01*
X103886400Y-36898000D01*
X103809863Y-36882776D01*
X103744979Y-36839421D01*
X103701624Y-36774537D01*
X103686400Y-36698000D01*
X103686400Y-36148000D01*
X103701624Y-36071463D01*
X103744979Y-36006579D01*
X103809863Y-35963224D01*
X103886400Y-35948000D01*
X104286400Y-35948000D01*
X104362937Y-35963224D01*
G37*
G36*
X88868714Y-33927295D02*
G01*
X89004548Y-33983559D01*
X89126795Y-34065242D01*
X89230758Y-34169205D01*
X89312441Y-34291452D01*
X89368705Y-34427286D01*
X89397389Y-34571487D01*
X89397389Y-34718513D01*
X89368705Y-34862714D01*
X89312441Y-34998548D01*
X89230758Y-35120795D01*
X89126795Y-35224758D01*
X89004548Y-35306441D01*
X88868714Y-35362705D01*
X88724513Y-35391389D01*
X88577487Y-35391389D01*
X88433286Y-35362705D01*
X88297452Y-35306441D01*
X88175205Y-35224758D01*
X88071242Y-35120795D01*
X87989559Y-34998548D01*
X87933295Y-34862714D01*
X87904611Y-34718513D01*
X87904611Y-34571487D01*
X87933295Y-34427286D01*
X87989559Y-34291452D01*
X88071242Y-34169205D01*
X88175205Y-34065242D01*
X88297452Y-33983559D01*
X88433286Y-33927295D01*
X88577487Y-33898611D01*
X88724513Y-33898611D01*
X88868714Y-33927295D01*
G37*
G36*
X106140714Y-33927295D02*
G01*
X106276548Y-33983559D01*
X106398795Y-34065242D01*
X106502758Y-34169205D01*
X106584441Y-34291452D01*
X106640705Y-34427286D01*
X106669389Y-34571487D01*
X106669389Y-34718513D01*
X106640705Y-34862714D01*
X106584441Y-34998548D01*
X106502758Y-35120795D01*
X106398795Y-35224758D01*
X106276548Y-35306441D01*
X106140714Y-35362705D01*
X105996513Y-35391389D01*
X105849487Y-35391389D01*
X105705286Y-35362705D01*
X105569452Y-35306441D01*
X105447205Y-35224758D01*
X105343242Y-35120795D01*
X105261559Y-34998548D01*
X105205295Y-34862714D01*
X105176611Y-34718513D01*
X105176611Y-34571487D01*
X105205295Y-34427286D01*
X105261559Y-34291452D01*
X105343242Y-34169205D01*
X105447205Y-34065242D01*
X105569452Y-33983559D01*
X105705286Y-33927295D01*
X105849487Y-33898611D01*
X105996513Y-33898611D01*
X106140714Y-33927295D01*
G37*
G36*
X94894904Y-32470127D02*
G01*
X94967899Y-32518901D01*
X95016673Y-32591896D01*
X95033800Y-32678000D01*
X95033800Y-33828000D01*
X95016673Y-33914104D01*
X94967899Y-33987099D01*
X94894904Y-34035873D01*
X94808800Y-34053000D01*
X94358800Y-34053000D01*
X94272696Y-34035873D01*
X94199701Y-33987099D01*
X94150927Y-33914104D01*
X94133800Y-33828000D01*
X94133800Y-32678000D01*
X94150927Y-32591896D01*
X94199701Y-32518901D01*
X94272696Y-32470127D01*
X94358800Y-32453000D01*
X94808800Y-32453000D01*
X94894904Y-32470127D01*
G37*
G36*
X96090337Y-32468224D02*
G01*
X96155221Y-32511579D01*
X96198576Y-32576463D01*
X96213800Y-32653000D01*
X96213800Y-33853000D01*
X96198576Y-33929537D01*
X96155221Y-33994421D01*
X96090337Y-34037776D01*
X96013800Y-34053000D01*
X95613800Y-34053000D01*
X95537263Y-34037776D01*
X95472379Y-33994421D01*
X95429024Y-33929537D01*
X95413800Y-33853000D01*
X95413800Y-32653000D01*
X95429024Y-32576463D01*
X95472379Y-32511579D01*
X95537263Y-32468224D01*
X95613800Y-32453000D01*
X96013800Y-32453000D01*
X96090337Y-32468224D01*
G37*
G36*
X97075770Y-32466321D02*
G01*
X97132544Y-32504256D01*
X97170479Y-32561030D01*
X97183800Y-32628000D01*
X97183800Y-33878000D01*
X97170479Y-33944970D01*
X97132544Y-34001744D01*
X97075770Y-34039679D01*
X97008800Y-34053000D01*
X96658800Y-34053000D01*
X96591830Y-34039679D01*
X96535056Y-34001744D01*
X96497121Y-33944970D01*
X96483800Y-33878000D01*
X96483800Y-32628000D01*
X96497121Y-32561030D01*
X96535056Y-32504256D01*
X96591830Y-32466321D01*
X96658800Y-32453000D01*
X97008800Y-32453000D01*
X97075770Y-32466321D01*
G37*
G36*
X98075770Y-32466321D02*
G01*
X98132544Y-32504256D01*
X98170479Y-32561030D01*
X98183800Y-32628000D01*
X98183800Y-33878000D01*
X98170479Y-33944970D01*
X98132544Y-34001744D01*
X98075770Y-34039679D01*
X98008800Y-34053000D01*
X97658800Y-34053000D01*
X97591830Y-34039679D01*
X97535056Y-34001744D01*
X97497121Y-33944970D01*
X97483800Y-33878000D01*
X97483800Y-32628000D01*
X97497121Y-32561030D01*
X97535056Y-32504256D01*
X97591830Y-32466321D01*
X97658800Y-32453000D01*
X98008800Y-32453000D01*
X98075770Y-32466321D01*
G37*
G36*
X99130337Y-32468224D02*
G01*
X99195221Y-32511579D01*
X99238576Y-32576463D01*
X99253800Y-32653000D01*
X99253800Y-33853000D01*
X99238576Y-33929537D01*
X99195221Y-33994421D01*
X99130337Y-34037776D01*
X99053800Y-34053000D01*
X98653800Y-34053000D01*
X98577263Y-34037776D01*
X98512379Y-33994421D01*
X98469024Y-33929537D01*
X98453800Y-33853000D01*
X98453800Y-32653000D01*
X98469024Y-32576463D01*
X98512379Y-32511579D01*
X98577263Y-32468224D01*
X98653800Y-32453000D01*
X99053800Y-32453000D01*
X99130337Y-32468224D01*
G37*
G36*
X100394904Y-32470127D02*
G01*
X100467899Y-32518901D01*
X100516673Y-32591896D01*
X100533800Y-32678000D01*
X100533800Y-33828000D01*
X100516673Y-33914104D01*
X100467899Y-33987099D01*
X100394904Y-34035873D01*
X100308800Y-34053000D01*
X99858800Y-34053000D01*
X99772696Y-34035873D01*
X99699701Y-33987099D01*
X99650927Y-33914104D01*
X99633800Y-33828000D01*
X99633800Y-32678000D01*
X99650927Y-32591896D01*
X99699701Y-32518901D01*
X99772696Y-32470127D01*
X99858800Y-32453000D01*
X100308800Y-32453000D01*
X100394904Y-32470127D01*
G37*
G36*
X93205142Y-32261060D02*
G01*
X93318181Y-32326323D01*
X93410477Y-32418619D01*
X93475740Y-32531658D01*
X93509522Y-32657737D01*
X93513800Y-32723000D01*
X93513800Y-33423000D01*
X93509522Y-33488263D01*
X93475740Y-33614342D01*
X93410477Y-33727381D01*
X93318181Y-33819677D01*
X93205142Y-33884940D01*
X93079063Y-33918722D01*
X92948537Y-33918722D01*
X92822458Y-33884940D01*
X92709419Y-33819677D01*
X92617123Y-33727381D01*
X92551860Y-33614342D01*
X92518078Y-33488263D01*
X92513800Y-33423000D01*
X92513800Y-32723000D01*
X92518078Y-32657737D01*
X92551860Y-32531658D01*
X92617123Y-32418619D01*
X92709419Y-32326323D01*
X92822458Y-32261060D01*
X92948537Y-32227278D01*
X93079063Y-32227278D01*
X93205142Y-32261060D01*
G37*
G36*
X101845142Y-32261060D02*
G01*
X101958181Y-32326323D01*
X102050477Y-32418619D01*
X102115740Y-32531658D01*
X102149522Y-32657737D01*
X102153800Y-32723000D01*
X102153800Y-33423000D01*
X102149522Y-33488263D01*
X102115740Y-33614342D01*
X102050477Y-33727381D01*
X101958181Y-33819677D01*
X101845142Y-33884940D01*
X101719063Y-33918722D01*
X101588537Y-33918722D01*
X101462458Y-33884940D01*
X101349419Y-33819677D01*
X101257123Y-33727381D01*
X101191860Y-33614342D01*
X101158078Y-33488263D01*
X101153800Y-33423000D01*
X101153800Y-32723000D01*
X101158078Y-32657737D01*
X101191860Y-32531658D01*
X101257123Y-32418619D01*
X101349419Y-32326323D01*
X101462458Y-32261060D01*
X101588537Y-32227278D01*
X101719063Y-32227278D01*
X101845142Y-32261060D01*
G37*
G36*
X89372537Y-31645224D02*
G01*
X89437421Y-31688579D01*
X89480776Y-31753463D01*
X89496000Y-31830000D01*
X89496000Y-32380000D01*
X89480776Y-32456537D01*
X89437421Y-32521421D01*
X89372537Y-32564776D01*
X89296000Y-32580000D01*
X88896000Y-32580000D01*
X88819463Y-32564776D01*
X88754579Y-32521421D01*
X88711224Y-32456537D01*
X88696000Y-32380000D01*
X88696000Y-31830000D01*
X88711224Y-31753463D01*
X88754579Y-31688579D01*
X88819463Y-31645224D01*
X88896000Y-31630000D01*
X89296000Y-31630000D01*
X89372537Y-31645224D01*
G37*
G36*
X91022537Y-31645224D02*
G01*
X91087421Y-31688579D01*
X91130776Y-31753463D01*
X91146000Y-31830000D01*
X91146000Y-32380000D01*
X91130776Y-32456537D01*
X91087421Y-32521421D01*
X91022537Y-32564776D01*
X90946000Y-32580000D01*
X90546000Y-32580000D01*
X90469463Y-32564776D01*
X90404579Y-32521421D01*
X90361224Y-32456537D01*
X90346000Y-32380000D01*
X90346000Y-31830000D01*
X90361224Y-31753463D01*
X90404579Y-31688579D01*
X90469463Y-31645224D01*
X90546000Y-31630000D01*
X90946000Y-31630000D01*
X91022537Y-31645224D01*
G37*
G36*
X89372537Y-30121224D02*
G01*
X89437421Y-30164579D01*
X89480776Y-30229463D01*
X89496000Y-30306000D01*
X89496000Y-30856000D01*
X89480776Y-30932537D01*
X89437421Y-30997421D01*
X89372537Y-31040776D01*
X89296000Y-31056000D01*
X88896000Y-31056000D01*
X88819463Y-31040776D01*
X88754579Y-30997421D01*
X88711224Y-30932537D01*
X88696000Y-30856000D01*
X88696000Y-30306000D01*
X88711224Y-30229463D01*
X88754579Y-30164579D01*
X88819463Y-30121224D01*
X88896000Y-30106000D01*
X89296000Y-30106000D01*
X89372537Y-30121224D01*
G37*
G36*
X91022537Y-30121224D02*
G01*
X91087421Y-30164579D01*
X91130776Y-30229463D01*
X91146000Y-30306000D01*
X91146000Y-30856000D01*
X91130776Y-30932537D01*
X91087421Y-30997421D01*
X91022537Y-31040776D01*
X90946000Y-31056000D01*
X90546000Y-31056000D01*
X90469463Y-31040776D01*
X90404579Y-30997421D01*
X90361224Y-30932537D01*
X90346000Y-30856000D01*
X90346000Y-30306000D01*
X90361224Y-30229463D01*
X90404579Y-30164579D01*
X90469463Y-30121224D01*
X90546000Y-30106000D01*
X90946000Y-30106000D01*
X91022537Y-30121224D01*
G37*
G36*
X93205142Y-28461060D02*
G01*
X93318181Y-28526323D01*
X93410477Y-28618619D01*
X93475740Y-28731658D01*
X93509522Y-28857737D01*
X93513800Y-28923000D01*
X93513800Y-29623000D01*
X93509522Y-29688263D01*
X93475740Y-29814342D01*
X93410477Y-29927381D01*
X93318181Y-30019677D01*
X93205142Y-30084940D01*
X93079063Y-30118722D01*
X92948537Y-30118722D01*
X92822458Y-30084940D01*
X92709419Y-30019677D01*
X92617123Y-29927381D01*
X92551860Y-29814342D01*
X92518078Y-29688263D01*
X92513800Y-29623000D01*
X92513800Y-28923000D01*
X92518078Y-28857737D01*
X92551860Y-28731658D01*
X92617123Y-28618619D01*
X92709419Y-28526323D01*
X92822458Y-28461060D01*
X92948537Y-28427278D01*
X93079063Y-28427278D01*
X93205142Y-28461060D01*
G37*
G36*
X101845142Y-28461060D02*
G01*
X101958181Y-28526323D01*
X102050477Y-28618619D01*
X102115740Y-28731658D01*
X102149522Y-28857737D01*
X102153800Y-28923000D01*
X102153800Y-29623000D01*
X102149522Y-29688263D01*
X102115740Y-29814342D01*
X102050477Y-29927381D01*
X101958181Y-30019677D01*
X101845142Y-30084940D01*
X101719063Y-30118722D01*
X101588537Y-30118722D01*
X101462458Y-30084940D01*
X101349419Y-30019677D01*
X101257123Y-29927381D01*
X101191860Y-29814342D01*
X101158078Y-29688263D01*
X101153800Y-29623000D01*
X101153800Y-28923000D01*
X101158078Y-28857737D01*
X101191860Y-28731658D01*
X101257123Y-28618619D01*
X101349419Y-28526323D01*
X101462458Y-28461060D01*
X101588537Y-28427278D01*
X101719063Y-28427278D01*
X101845142Y-28461060D01*
G37*
M02*
