%TF.GenerationSoftware,KiCad,Pcbnew,9.0.7*%
%TF.CreationDate,2026-02-15T21:55:52-05:00*%
%TF.ProjectId,Photon,50686f74-6f6e-42e6-9b69-6361645f7063,1.4*%
%TF.SameCoordinates,Original*%
%TF.FileFunction,Soldermask,Bot*%
%TF.FilePolarity,Negative*%
%FSLAX46Y46*%
G04 Gerber Fmt 4.6, Leading zero omitted, Abs format (unit mm)*
G04 Created by KiCad (PCBNEW 9.0.7) date 2026-02-15 21:55:52*
%MOMM*%
%LPD*%
G01*
G04 APERTURE LIST*
G04 APERTURE END LIST*
G36*
X97683968Y-96676445D02*
G01*
X97907825Y-96749181D01*
X98117548Y-96856040D01*
X98307972Y-96994391D01*
X98474409Y-97160828D01*
X98612760Y-97351252D01*
X98719619Y-97560975D01*
X98792355Y-97784832D01*
X98829176Y-98017311D01*
X98829176Y-98252689D01*
X98792355Y-98485168D01*
X98719619Y-98709025D01*
X98612760Y-98918748D01*
X98474409Y-99109172D01*
X98307972Y-99275609D01*
X98117548Y-99413960D01*
X97907825Y-99520819D01*
X97683968Y-99593555D01*
X97451489Y-99630376D01*
X97216111Y-99630376D01*
X96983632Y-99593555D01*
X96759775Y-99520819D01*
X96550052Y-99413960D01*
X96359628Y-99275609D01*
X96193191Y-99109172D01*
X96054840Y-98918748D01*
X95947981Y-98709025D01*
X95875245Y-98485168D01*
X95838424Y-98252689D01*
X95838424Y-98017311D01*
X95875245Y-97784832D01*
X95947981Y-97560975D01*
X96054840Y-97351252D01*
X96193191Y-97160828D01*
X96359628Y-96994391D01*
X96550052Y-96856040D01*
X96759775Y-96749181D01*
X96983632Y-96676445D01*
X97216111Y-96639624D01*
X97451489Y-96639624D01*
X97683968Y-96676445D01*
G37*
G36*
X95183968Y-89076445D02*
G01*
X95407825Y-89149181D01*
X95617548Y-89256040D01*
X95807972Y-89394391D01*
X95974409Y-89560828D01*
X96112760Y-89751252D01*
X96219619Y-89960975D01*
X96292355Y-90184832D01*
X96329176Y-90417311D01*
X96329176Y-90652689D01*
X96292355Y-90885168D01*
X96219619Y-91109025D01*
X96112760Y-91318748D01*
X95974409Y-91509172D01*
X95807972Y-91675609D01*
X95617548Y-91813960D01*
X95407825Y-91920819D01*
X95183968Y-91993555D01*
X94951489Y-92030376D01*
X94716111Y-92030376D01*
X94483632Y-91993555D01*
X94259775Y-91920819D01*
X94050052Y-91813960D01*
X93859628Y-91675609D01*
X93693191Y-91509172D01*
X93554840Y-91318748D01*
X93447981Y-91109025D01*
X93375245Y-90885168D01*
X93338424Y-90652689D01*
X93338424Y-90417311D01*
X93375245Y-90184832D01*
X93447981Y-89960975D01*
X93554840Y-89751252D01*
X93693191Y-89560828D01*
X93859628Y-89394391D01*
X94050052Y-89256040D01*
X94259775Y-89149181D01*
X94483632Y-89076445D01*
X94716111Y-89039624D01*
X94951489Y-89039624D01*
X95183968Y-89076445D01*
G37*
G36*
X100183968Y-89076445D02*
G01*
X100407825Y-89149181D01*
X100617548Y-89256040D01*
X100807972Y-89394391D01*
X100974409Y-89560828D01*
X101112760Y-89751252D01*
X101219619Y-89960975D01*
X101292355Y-90184832D01*
X101329176Y-90417311D01*
X101329176Y-90652689D01*
X101292355Y-90885168D01*
X101219619Y-91109025D01*
X101112760Y-91318748D01*
X100974409Y-91509172D01*
X100807972Y-91675609D01*
X100617548Y-91813960D01*
X100407825Y-91920819D01*
X100183968Y-91993555D01*
X99951489Y-92030376D01*
X99716111Y-92030376D01*
X99483632Y-91993555D01*
X99259775Y-91920819D01*
X99050052Y-91813960D01*
X98859628Y-91675609D01*
X98693191Y-91509172D01*
X98554840Y-91318748D01*
X98447981Y-91109025D01*
X98375245Y-90885168D01*
X98338424Y-90652689D01*
X98338424Y-90417311D01*
X98375245Y-90184832D01*
X98447981Y-89960975D01*
X98554840Y-89751252D01*
X98693191Y-89560828D01*
X98859628Y-89394391D01*
X99050052Y-89256040D01*
X99259775Y-89149181D01*
X99483632Y-89076445D01*
X99716111Y-89039624D01*
X99951489Y-89039624D01*
X100183968Y-89076445D01*
G37*
G36*
X89555000Y-77405000D02*
G01*
X87855000Y-77405000D01*
X87855000Y-75705000D01*
X89555000Y-75705000D01*
X89555000Y-77405000D01*
G37*
G36*
X89351742Y-73201601D02*
G01*
X89505687Y-73265367D01*
X89644234Y-73357941D01*
X89762059Y-73475766D01*
X89854633Y-73614313D01*
X89918399Y-73768258D01*
X89950907Y-73931685D01*
X89950907Y-74098315D01*
X89918399Y-74261742D01*
X89854633Y-74415687D01*
X89762059Y-74554234D01*
X89644234Y-74672059D01*
X89505687Y-74764633D01*
X89351742Y-74828399D01*
X89188315Y-74860907D01*
X89021685Y-74860907D01*
X88858258Y-74828399D01*
X88704313Y-74764633D01*
X88565766Y-74672059D01*
X88447941Y-74554234D01*
X88355367Y-74415687D01*
X88291601Y-74261742D01*
X88259093Y-74098315D01*
X88259093Y-73931685D01*
X88291601Y-73768258D01*
X88355367Y-73614313D01*
X88447941Y-73475766D01*
X88565766Y-73357941D01*
X88704313Y-73265367D01*
X88858258Y-73201601D01*
X89021685Y-73169093D01*
X89188315Y-73169093D01*
X89351742Y-73201601D01*
G37*
G36*
X88951742Y-70661601D02*
G01*
X89105687Y-70725367D01*
X89244234Y-70817941D01*
X89362059Y-70935766D01*
X89454633Y-71074313D01*
X89518399Y-71228258D01*
X89550907Y-71391685D01*
X89550907Y-71558315D01*
X89518399Y-71721742D01*
X89454633Y-71875687D01*
X89362059Y-72014234D01*
X89244234Y-72132059D01*
X89105687Y-72224633D01*
X88951742Y-72288399D01*
X88788315Y-72320907D01*
X88621685Y-72320907D01*
X88458258Y-72288399D01*
X88304313Y-72224633D01*
X88165766Y-72132059D01*
X88047941Y-72014234D01*
X87955367Y-71875687D01*
X87891601Y-71721742D01*
X87859093Y-71558315D01*
X87859093Y-71391685D01*
X87891601Y-71228258D01*
X87955367Y-71074313D01*
X88047941Y-70935766D01*
X88165766Y-70817941D01*
X88304313Y-70725367D01*
X88458258Y-70661601D01*
X88621685Y-70629093D01*
X88788315Y-70629093D01*
X88951742Y-70661601D01*
G37*
G36*
X89351742Y-68121601D02*
G01*
X89505687Y-68185367D01*
X89644234Y-68277941D01*
X89762059Y-68395766D01*
X89854633Y-68534313D01*
X89918399Y-68688258D01*
X89950907Y-68851685D01*
X89950907Y-69018315D01*
X89918399Y-69181742D01*
X89854633Y-69335687D01*
X89762059Y-69474234D01*
X89644234Y-69592059D01*
X89505687Y-69684633D01*
X89351742Y-69748399D01*
X89188315Y-69780907D01*
X89021685Y-69780907D01*
X88858258Y-69748399D01*
X88704313Y-69684633D01*
X88565766Y-69592059D01*
X88447941Y-69474234D01*
X88355367Y-69335687D01*
X88291601Y-69181742D01*
X88259093Y-69018315D01*
X88259093Y-68851685D01*
X88291601Y-68688258D01*
X88355367Y-68534313D01*
X88447941Y-68395766D01*
X88565766Y-68277941D01*
X88704313Y-68185367D01*
X88858258Y-68121601D01*
X89021685Y-68089093D01*
X89188315Y-68089093D01*
X89351742Y-68121601D01*
G37*
G36*
X88951742Y-65581601D02*
G01*
X89105687Y-65645367D01*
X89244234Y-65737941D01*
X89362059Y-65855766D01*
X89454633Y-65994313D01*
X89518399Y-66148258D01*
X89550907Y-66311685D01*
X89550907Y-66478315D01*
X89518399Y-66641742D01*
X89454633Y-66795687D01*
X89362059Y-66934234D01*
X89244234Y-67052059D01*
X89105687Y-67144633D01*
X88951742Y-67208399D01*
X88788315Y-67240907D01*
X88621685Y-67240907D01*
X88458258Y-67208399D01*
X88304313Y-67144633D01*
X88165766Y-67052059D01*
X88047941Y-66934234D01*
X87955367Y-66795687D01*
X87891601Y-66641742D01*
X87859093Y-66478315D01*
X87859093Y-66311685D01*
X87891601Y-66148258D01*
X87955367Y-65994313D01*
X88047941Y-65855766D01*
X88165766Y-65737941D01*
X88304313Y-65645367D01*
X88458258Y-65581601D01*
X88621685Y-65549093D01*
X88788315Y-65549093D01*
X88951742Y-65581601D01*
G37*
G36*
X95183968Y-43076445D02*
G01*
X95407825Y-43149181D01*
X95617548Y-43256040D01*
X95807972Y-43394391D01*
X95974409Y-43560828D01*
X96112760Y-43751252D01*
X96219619Y-43960975D01*
X96292355Y-44184832D01*
X96329176Y-44417311D01*
X96329176Y-44652689D01*
X96292355Y-44885168D01*
X96219619Y-45109025D01*
X96112760Y-45318748D01*
X95974409Y-45509172D01*
X95807972Y-45675609D01*
X95617548Y-45813960D01*
X95407825Y-45920819D01*
X95183968Y-45993555D01*
X94951489Y-46030376D01*
X94716111Y-46030376D01*
X94483632Y-45993555D01*
X94259775Y-45920819D01*
X94050052Y-45813960D01*
X93859628Y-45675609D01*
X93693191Y-45509172D01*
X93554840Y-45318748D01*
X93447981Y-45109025D01*
X93375245Y-44885168D01*
X93338424Y-44652689D01*
X93338424Y-44417311D01*
X93375245Y-44184832D01*
X93447981Y-43960975D01*
X93554840Y-43751252D01*
X93693191Y-43560828D01*
X93859628Y-43394391D01*
X94050052Y-43256040D01*
X94259775Y-43149181D01*
X94483632Y-43076445D01*
X94716111Y-43039624D01*
X94951489Y-43039624D01*
X95183968Y-43076445D01*
G37*
G36*
X100183968Y-43076445D02*
G01*
X100407825Y-43149181D01*
X100617548Y-43256040D01*
X100807972Y-43394391D01*
X100974409Y-43560828D01*
X101112760Y-43751252D01*
X101219619Y-43960975D01*
X101292355Y-44184832D01*
X101329176Y-44417311D01*
X101329176Y-44652689D01*
X101292355Y-44885168D01*
X101219619Y-45109025D01*
X101112760Y-45318748D01*
X100974409Y-45509172D01*
X100807972Y-45675609D01*
X100617548Y-45813960D01*
X100407825Y-45920819D01*
X100183968Y-45993555D01*
X99951489Y-46030376D01*
X99716111Y-46030376D01*
X99483632Y-45993555D01*
X99259775Y-45920819D01*
X99050052Y-45813960D01*
X98859628Y-45675609D01*
X98693191Y-45509172D01*
X98554840Y-45318748D01*
X98447981Y-45109025D01*
X98375245Y-44885168D01*
X98338424Y-44652689D01*
X98338424Y-44417311D01*
X98375245Y-44184832D01*
X98447981Y-43960975D01*
X98554840Y-43751252D01*
X98693191Y-43560828D01*
X98859628Y-43394391D01*
X99050052Y-43256040D01*
X99259775Y-43149181D01*
X99483632Y-43076445D01*
X99716111Y-43039624D01*
X99951489Y-43039624D01*
X100183968Y-43076445D01*
G37*
G36*
X97683968Y-35476445D02*
G01*
X97907825Y-35549181D01*
X98117548Y-35656040D01*
X98307972Y-35794391D01*
X98474409Y-35960828D01*
X98612760Y-36151252D01*
X98719619Y-36360975D01*
X98792355Y-36584832D01*
X98829176Y-36817311D01*
X98829176Y-37052689D01*
X98792355Y-37285168D01*
X98719619Y-37509025D01*
X98612760Y-37718748D01*
X98474409Y-37909172D01*
X98307972Y-38075609D01*
X98117548Y-38213960D01*
X97907825Y-38320819D01*
X97683968Y-38393555D01*
X97451489Y-38430376D01*
X97216111Y-38430376D01*
X96983632Y-38393555D01*
X96759775Y-38320819D01*
X96550052Y-38213960D01*
X96359628Y-38075609D01*
X96193191Y-37909172D01*
X96054840Y-37718748D01*
X95947981Y-37509025D01*
X95875245Y-37285168D01*
X95838424Y-37052689D01*
X95838424Y-36817311D01*
X95875245Y-36584832D01*
X95947981Y-36360975D01*
X96054840Y-36151252D01*
X96193191Y-35960828D01*
X96359628Y-35794391D01*
X96550052Y-35656040D01*
X96759775Y-35549181D01*
X96983632Y-35476445D01*
X97216111Y-35439624D01*
X97451489Y-35439624D01*
X97683968Y-35476445D01*
G37*
G36*
X93205142Y-32261060D02*
G01*
X93318181Y-32326323D01*
X93410477Y-32418619D01*
X93475740Y-32531658D01*
X93509522Y-32657737D01*
X93513800Y-32723000D01*
X93513800Y-33423000D01*
X93509522Y-33488263D01*
X93475740Y-33614342D01*
X93410477Y-33727381D01*
X93318181Y-33819677D01*
X93205142Y-33884940D01*
X93079063Y-33918722D01*
X92948537Y-33918722D01*
X92822458Y-33884940D01*
X92709419Y-33819677D01*
X92617123Y-33727381D01*
X92551860Y-33614342D01*
X92518078Y-33488263D01*
X92513800Y-33423000D01*
X92513800Y-32723000D01*
X92518078Y-32657737D01*
X92551860Y-32531658D01*
X92617123Y-32418619D01*
X92709419Y-32326323D01*
X92822458Y-32261060D01*
X92948537Y-32227278D01*
X93079063Y-32227278D01*
X93205142Y-32261060D01*
G37*
G36*
X101845142Y-32261060D02*
G01*
X101958181Y-32326323D01*
X102050477Y-32418619D01*
X102115740Y-32531658D01*
X102149522Y-32657737D01*
X102153800Y-32723000D01*
X102153800Y-33423000D01*
X102149522Y-33488263D01*
X102115740Y-33614342D01*
X102050477Y-33727381D01*
X101958181Y-33819677D01*
X101845142Y-33884940D01*
X101719063Y-33918722D01*
X101588537Y-33918722D01*
X101462458Y-33884940D01*
X101349419Y-33819677D01*
X101257123Y-33727381D01*
X101191860Y-33614342D01*
X101158078Y-33488263D01*
X101153800Y-33423000D01*
X101153800Y-32723000D01*
X101158078Y-32657737D01*
X101191860Y-32531658D01*
X101257123Y-32418619D01*
X101349419Y-32326323D01*
X101462458Y-32261060D01*
X101588537Y-32227278D01*
X101719063Y-32227278D01*
X101845142Y-32261060D01*
G37*
G36*
X93205142Y-28461060D02*
G01*
X93318181Y-28526323D01*
X93410477Y-28618619D01*
X93475740Y-28731658D01*
X93509522Y-28857737D01*
X93513800Y-28923000D01*
X93513800Y-29623000D01*
X93509522Y-29688263D01*
X93475740Y-29814342D01*
X93410477Y-29927381D01*
X93318181Y-30019677D01*
X93205142Y-30084940D01*
X93079063Y-30118722D01*
X92948537Y-30118722D01*
X92822458Y-30084940D01*
X92709419Y-30019677D01*
X92617123Y-29927381D01*
X92551860Y-29814342D01*
X92518078Y-29688263D01*
X92513800Y-29623000D01*
X92513800Y-28923000D01*
X92518078Y-28857737D01*
X92551860Y-28731658D01*
X92617123Y-28618619D01*
X92709419Y-28526323D01*
X92822458Y-28461060D01*
X92948537Y-28427278D01*
X93079063Y-28427278D01*
X93205142Y-28461060D01*
G37*
G36*
X101845142Y-28461060D02*
G01*
X101958181Y-28526323D01*
X102050477Y-28618619D01*
X102115740Y-28731658D01*
X102149522Y-28857737D01*
X102153800Y-28923000D01*
X102153800Y-29623000D01*
X102149522Y-29688263D01*
X102115740Y-29814342D01*
X102050477Y-29927381D01*
X101958181Y-30019677D01*
X101845142Y-30084940D01*
X101719063Y-30118722D01*
X101588537Y-30118722D01*
X101462458Y-30084940D01*
X101349419Y-30019677D01*
X101257123Y-29927381D01*
X101191860Y-29814342D01*
X101158078Y-29688263D01*
X101153800Y-29623000D01*
X101153800Y-28923000D01*
X101158078Y-28857737D01*
X101191860Y-28731658D01*
X101257123Y-28618619D01*
X101349419Y-28526323D01*
X101462458Y-28461060D01*
X101588537Y-28427278D01*
X101719063Y-28427278D01*
X101845142Y-28461060D01*
G37*
M02*
