%TF.GenerationSoftware,KiCad,Pcbnew,9.0.7*%
%TF.CreationDate,2026-02-15T22:37:45-05:00*%
%TF.ProjectId,Photon,50686f74-6f6e-42e6-9b69-6361645f7063,1.4*%
%TF.SameCoordinates,Original*%
%TF.FileFunction,Paste,Top*%
%TF.FilePolarity,Positive*%
%FSLAX46Y46*%
G04 Gerber Fmt 4.6, Leading zero omitted, Abs format (unit mm)*
G04 Created by KiCad (PCBNEW 9.0.7) date 2026-02-15 22:37:45*
%MOMM*%
%LPD*%
G01*
G04 APERTURE LIST*
G04 Aperture macros list*
%AMRoundRect*
0 Rectangle with rounded corners*
0 $1 Rounding radius*
0 $2 $3 $4 $5 $6 $7 $8 $9 X,Y pos of 4 corners*
0 Add a 4 corners polygon primitive as box body*
4,1,4,$2,$3,$4,$5,$6,$7,$8,$9,$2,$3,0*
0 Add four circle primitives for the rounded corners*
1,1,$1+$1,$2,$3*
1,1,$1+$1,$4,$5*
1,1,$1+$1,$6,$7*
1,1,$1+$1,$8,$9*
0 Add four rect primitives between the rounded corners*
20,1,$1+$1,$2,$3,$4,$5,0*
20,1,$1+$1,$4,$5,$6,$7,0*
20,1,$1+$1,$6,$7,$8,$9,0*
20,1,$1+$1,$8,$9,$2,$3,0*%
G04 Aperture macros list end*
%ADD10RoundRect,0.225000X0.225000X0.250000X-0.225000X0.250000X-0.225000X-0.250000X0.225000X-0.250000X0*%
%ADD11RoundRect,0.175000X0.175000X0.625000X-0.175000X0.625000X-0.175000X-0.625000X0.175000X-0.625000X0*%
%ADD12RoundRect,0.200000X0.200000X0.600000X-0.200000X0.600000X-0.200000X-0.600000X0.200000X-0.600000X0*%
%ADD13RoundRect,0.225000X0.225000X0.575000X-0.225000X0.575000X-0.225000X-0.575000X0.225000X-0.575000X0*%
%ADD14RoundRect,0.150000X0.512500X0.150000X-0.512500X0.150000X-0.512500X-0.150000X0.512500X-0.150000X0*%
%ADD15RoundRect,0.200000X-0.200000X-0.275000X0.200000X-0.275000X0.200000X0.275000X-0.200000X0.275000X0*%
%ADD16RoundRect,0.225000X-0.225000X-0.250000X0.225000X-0.250000X0.225000X0.250000X-0.225000X0.250000X0*%
%ADD17RoundRect,0.250000X-0.475000X0.250000X-0.475000X-0.250000X0.475000X-0.250000X0.475000X0.250000X0*%
%ADD18RoundRect,0.150000X-0.512500X-0.150000X0.512500X-0.150000X0.512500X0.150000X-0.512500X0.150000X0*%
%ADD19RoundRect,0.200000X0.200000X0.275000X-0.200000X0.275000X-0.200000X-0.275000X0.200000X-0.275000X0*%
%ADD20RoundRect,0.044000X-0.176000X0.221000X-0.176000X-0.221000X0.176000X-0.221000X0.176000X0.221000X0*%
%ADD21RoundRect,0.088000X-0.352000X0.412000X-0.352000X-0.412000X0.352000X-0.412000X0.352000X0.412000X0*%
%ADD22RoundRect,0.105000X-0.420000X-0.895000X0.420000X-0.895000X0.420000X0.895000X-0.420000X0.895000X0*%
%ADD23RoundRect,0.225000X0.250000X-0.225000X0.250000X0.225000X-0.250000X0.225000X-0.250000X-0.225000X0*%
%ADD24RoundRect,0.200000X-0.275000X0.200000X-0.275000X-0.200000X0.275000X-0.200000X0.275000X0.200000X0*%
%ADD25RoundRect,0.150000X-0.150000X0.587500X-0.150000X-0.587500X0.150000X-0.587500X0.150000X0.587500X0*%
%ADD26RoundRect,0.120000X1.230000X-0.280000X1.230000X0.280000X-1.230000X0.280000X-1.230000X-0.280000X0*%
%ADD27RoundRect,0.200000X0.275000X-0.200000X0.275000X0.200000X-0.275000X0.200000X-0.275000X-0.200000X0*%
%ADD28RoundRect,0.255000X0.945000X0.595000X-0.945000X0.595000X-0.945000X-0.595000X0.945000X-0.595000X0*%
%ADD29RoundRect,0.100000X0.637500X0.100000X-0.637500X0.100000X-0.637500X-0.100000X0.637500X-0.100000X0*%
%ADD30RoundRect,0.242500X-0.242500X-0.422500X0.242500X-0.422500X0.242500X0.422500X-0.242500X0.422500X0*%
%ADD31RoundRect,0.150000X-0.825000X-0.150000X0.825000X-0.150000X0.825000X0.150000X-0.825000X0.150000X0*%
%ADD32RoundRect,0.150000X0.150000X-0.587500X0.150000X0.587500X-0.150000X0.587500X-0.150000X-0.587500X0*%
G04 APERTURE END LIST*
D10*
%TO.C,C4*%
X47635000Y-56201000D03*
X46085000Y-56201000D03*
%TD*%
D11*
%TO.C,J1*%
X49933800Y-29028000D03*
D12*
X47913800Y-29028000D03*
D13*
X46683800Y-29028000D03*
D11*
X48933800Y-29028000D03*
D12*
X50953800Y-29028000D03*
D13*
X52183800Y-29028000D03*
%TD*%
D14*
%TO.C,U5*%
X53318500Y-91606000D03*
X53318500Y-90656000D03*
X53318500Y-89706000D03*
X51043500Y-89706000D03*
X51043500Y-90656000D03*
X51043500Y-91606000D03*
%TD*%
D10*
%TO.C,C6*%
X45857000Y-60392000D03*
X44307000Y-60392000D03*
%TD*%
D14*
%TO.C,U4*%
X47984500Y-91606000D03*
X47984500Y-90656000D03*
X47984500Y-89706000D03*
X45709500Y-89706000D03*
X45709500Y-90656000D03*
X45709500Y-91606000D03*
%TD*%
D15*
%TO.C,R10*%
X47559000Y-62170000D03*
X49209000Y-62170000D03*
%TD*%
D16*
%TO.C,C7*%
X49387000Y-56201000D03*
X50937000Y-56201000D03*
%TD*%
D17*
%TO.C,C1*%
X55900000Y-66050000D03*
X55900000Y-67950000D03*
%TD*%
D15*
%TO.C,R7*%
X41133000Y-37532000D03*
X42783000Y-37532000D03*
%TD*%
D18*
%TO.C,U6*%
X41342428Y-46424724D03*
X41342428Y-47374724D03*
X41342428Y-48324724D03*
X43617428Y-48324724D03*
X43617428Y-47374724D03*
X43617428Y-46424724D03*
%TD*%
D19*
%TO.C,R2*%
X42846000Y-27880000D03*
X41196000Y-27880000D03*
%TD*%
D20*
%TO.C,D1*%
X58531000Y-35070500D03*
X58531000Y-34290500D03*
D21*
X58531000Y-36125500D03*
X58531000Y-33225500D03*
%TD*%
D19*
%TO.C,R1*%
X42846000Y-26356000D03*
X41196000Y-26356000D03*
%TD*%
D15*
%TO.C,R15*%
X46276000Y-80966000D03*
X47926000Y-80966000D03*
%TD*%
D22*
%TO.C,SW1*%
X47101000Y-83252000D03*
X51546000Y-83252000D03*
%TD*%
D23*
%TO.C,C2*%
X54000000Y-67950000D03*
X54000000Y-66400000D03*
%TD*%
D24*
%TO.C,R4*%
X44561000Y-34405000D03*
X44561000Y-36055000D03*
%TD*%
D15*
%TO.C,R3*%
X54536400Y-32198000D03*
X56186400Y-32198000D03*
%TD*%
D25*
%TO.C,Q2*%
X52165800Y-43071500D03*
X50265800Y-43071500D03*
X51215800Y-44946500D03*
%TD*%
D18*
%TO.C,U7*%
X42172500Y-79489000D03*
X42172500Y-80439000D03*
X42172500Y-81389000D03*
X44447500Y-81389000D03*
X44447500Y-80439000D03*
X44447500Y-79489000D03*
%TD*%
D24*
%TO.C,R11*%
X43443400Y-86491000D03*
X43443400Y-88141000D03*
%TD*%
D19*
%TO.C,R8*%
X42783000Y-36008000D03*
X41133000Y-36008000D03*
%TD*%
D26*
%TO.C,L1*%
X53593386Y-58385400D03*
X53593386Y-56074000D03*
%TD*%
D27*
%TO.C,R5*%
X52435000Y-61979000D03*
X52435000Y-60329000D03*
%TD*%
%TO.C,R14*%
X55483000Y-91531800D03*
X55483000Y-89881800D03*
%TD*%
D28*
%TO.C,D2*%
X43164000Y-51021000D03*
X55864000Y-49497000D03*
%TD*%
D23*
%TO.C,C8*%
X43443400Y-91481800D03*
X43443400Y-89931800D03*
%TD*%
D24*
%TO.C,R6*%
X54213000Y-60329000D03*
X54213000Y-61979000D03*
%TD*%
D15*
%TO.C,R9*%
X44257000Y-62170000D03*
X45907000Y-62170000D03*
%TD*%
D24*
%TO.C,R13*%
X49433800Y-86491000D03*
X49433800Y-88141000D03*
%TD*%
D14*
%TO.C,U3*%
X50444500Y-60133000D03*
X50444500Y-59183000D03*
X50444500Y-58233000D03*
X48169500Y-58233000D03*
X48169500Y-60133000D03*
%TD*%
D29*
%TO.C,U1*%
X52075000Y-69900000D03*
X52075000Y-69250000D03*
X52075000Y-68600000D03*
X52075000Y-67950000D03*
X52075000Y-67300000D03*
X52075000Y-66650000D03*
X52075000Y-66000000D03*
X52075000Y-65350000D03*
X52075000Y-64700000D03*
X52075000Y-64050000D03*
X46350000Y-64050000D03*
X46350000Y-64700000D03*
X46350000Y-65350000D03*
X46350000Y-66000000D03*
X46350000Y-66650000D03*
X46350000Y-67300000D03*
X46350000Y-67950000D03*
X46350000Y-68600000D03*
X46350000Y-69250000D03*
X46350000Y-69900000D03*
%TD*%
D27*
%TO.C,R12*%
X43799000Y-44707000D03*
X43799000Y-43057000D03*
%TD*%
D30*
%TO.C,U2*%
X48833800Y-35331400D03*
X48833800Y-36981400D03*
X50033800Y-35331400D03*
X50033800Y-36981400D03*
D31*
X46958800Y-34251400D03*
X46958800Y-35521400D03*
X46958800Y-36791400D03*
X46958800Y-38061400D03*
X51908800Y-38061400D03*
X51908800Y-36791400D03*
X51908800Y-35521400D03*
X51908800Y-34251400D03*
%TD*%
D28*
%TO.C,D3*%
X43164000Y-76648000D03*
X55864000Y-75124000D03*
%TD*%
D10*
%TO.C,C5*%
X56156400Y-37871600D03*
X54606400Y-37871600D03*
%TD*%
D32*
%TO.C,Q1*%
X45643000Y-44946500D03*
X47543000Y-44946500D03*
X46593000Y-43071500D03*
%TD*%
D16*
%TO.C,C3*%
X41183000Y-34468000D03*
X42733000Y-34468000D03*
%TD*%
M02*
