%TF.GenerationSoftware,KiCad,Pcbnew,9.0.7*%
%TF.CreationDate,2026-02-15T22:37:45-05:00*%
%TF.ProjectId,Photon,50686f74-6f6e-42e6-9b69-6361645f7063,1.4*%
%TF.SameCoordinates,Original*%
%TF.FileFunction,Copper,L2,Bot*%
%TF.FilePolarity,Positive*%
%FSLAX46Y46*%
G04 Gerber Fmt 4.6, Leading zero omitted, Abs format (unit mm)*
G04 Created by KiCad (PCBNEW 9.0.7) date 2026-02-15 22:37:45*
%MOMM*%
%LPD*%
G01*
G04 APERTURE LIST*
%TA.AperFunction,ComponentPad*%
%ADD10R,1.700000X1.700000*%
%TD*%
%TA.AperFunction,ComponentPad*%
%ADD11C,1.700000*%
%TD*%
%TA.AperFunction,HeatsinkPad*%
%ADD12O,1.000000X1.700000*%
%TD*%
%TA.AperFunction,ComponentPad*%
%ADD13C,3.000000*%
%TD*%
%TA.AperFunction,ViaPad*%
%ADD14C,0.700000*%
%TD*%
%TA.AperFunction,Conductor*%
%ADD15C,0.200000*%
%TD*%
%TA.AperFunction,Conductor*%
%ADD16C,0.500000*%
%TD*%
%TA.AperFunction,Conductor*%
%ADD17C,0.600000*%
%TD*%
%TA.AperFunction,Conductor*%
%ADD18C,0.700000*%
%TD*%
G04 APERTURE END LIST*
D10*
%TO.P,J2,1,Pin_1*%
%TO.N,+3V3*%
X40805000Y-72330000D03*
D11*
%TO.P,J2,2,Pin_2*%
%TO.N,SWCLK*%
X41205000Y-69790000D03*
%TO.P,J2,3,Pin_3*%
%TO.N,SWDIO*%
X40805000Y-67250000D03*
%TO.P,J2,4,Pin_4*%
%TO.N,NRST*%
X41205000Y-64710000D03*
%TO.P,J2,5,Pin_5*%
%TO.N,GND*%
X40805000Y-62170000D03*
%TD*%
D12*
%TO.P,J1,S1,SHIELD*%
%TO.N,GND*%
X53753800Y-28848000D03*
X53753800Y-25048000D03*
X45113800Y-28848000D03*
X45113800Y-25048000D03*
%TD*%
D13*
%TO.P,BT1,1,+*%
%TO.N,+BATT*%
X49433800Y-32710000D03*
X51933800Y-40310000D03*
X46933800Y-40310000D03*
%TO.P,BT1,2,-*%
%TO.N,/Bat-*%
X51933800Y-86310000D03*
X46933800Y-86310000D03*
X49433800Y-93910000D03*
%TD*%
D14*
%TO.N,GND*%
X39989000Y-36008000D03*
X50700000Y-67300000D03*
X46000000Y-58575000D03*
X52181000Y-27768000D03*
X59039000Y-75575000D03*
X49500000Y-64675000D03*
X44200000Y-58375000D03*
X50403000Y-62170000D03*
X56245000Y-85792000D03*
X54213000Y-63186000D03*
X46000000Y-72875000D03*
X57261000Y-37786000D03*
X44447500Y-82490000D03*
X59039000Y-46930000D03*
X40243000Y-26356000D03*
X46683800Y-27768000D03*
X44561000Y-37024000D03*
X44600000Y-71175000D03*
X40243000Y-27880000D03*
X49433800Y-36156400D03*
X42600000Y-43075000D03*
X59039000Y-83252000D03*
X48600000Y-68675000D03*
X54213000Y-77156000D03*
X49433800Y-85538000D03*
X39989000Y-34484000D03*
X57007000Y-77156000D03*
X49133000Y-80966000D03*
X47600000Y-55075000D03*
X44200000Y-66475000D03*
X49300000Y-96475000D03*
X44500000Y-49475000D03*
X40497000Y-55566000D03*
X51927000Y-59376000D03*
X47355000Y-53534000D03*
X49400000Y-55057147D03*
X52943000Y-83252000D03*
X53318500Y-88928800D03*
X50403000Y-53534000D03*
%TO.N,NRST*%
X47800000Y-65384620D03*
%TO.N,SWCLK*%
X43799000Y-69790000D03*
%TO.N,SWDIO*%
X43800000Y-68175000D03*
%TO.N,/BUTN*%
X49300000Y-67375000D03*
X49500000Y-65875000D03*
%TO.N,+3V3*%
X41500000Y-73975000D03*
X43800000Y-73775000D03*
X49400000Y-71075000D03*
X51700000Y-71075000D03*
%TO.N,5V*%
X50953800Y-27768000D03*
X47863000Y-27768000D03*
%TO.N,+BATT*%
X53552600Y-34738000D03*
X52708800Y-32401400D03*
X53552600Y-37786000D03*
%TO.N,/VBAT_SYS*%
X48117000Y-59122000D03*
X46092620Y-55207620D03*
X45577000Y-52515206D03*
X50403000Y-61154000D03*
%TO.N,/VM*%
X49433800Y-89056000D03*
X49433800Y-90656000D03*
%TO.N,/CHRG*%
X55334350Y-34512657D03*
X56724343Y-34512657D03*
%TO.N,LED1_EN*%
X43683000Y-57090000D03*
X42527603Y-55564603D03*
%TO.N,LED2_EN*%
X44194116Y-78299000D03*
X47900000Y-70375000D03*
X47900000Y-71775000D03*
X42391000Y-78299000D03*
%TD*%
D15*
%TO.N,NRST*%
X47800000Y-65384620D02*
X44053620Y-65384620D01*
X43379000Y-64710000D02*
X41205000Y-64710000D01*
X44053620Y-65384620D02*
X43379000Y-64710000D01*
%TO.N,SWCLK*%
X43799000Y-69790000D02*
X41205000Y-69790000D01*
%TO.N,SWDIO*%
X43716000Y-68095000D02*
X42871000Y-67250000D01*
X43800000Y-68175000D02*
X43720000Y-68095000D01*
X42871000Y-67250000D02*
X41005000Y-67250000D01*
X43720000Y-68095000D02*
X43716000Y-68095000D01*
%TO.N,/BUTN*%
X49500000Y-67175000D02*
X49300000Y-67375000D01*
X49500000Y-65875000D02*
X49500000Y-67175000D01*
%TO.N,+3V3*%
X43600000Y-73975000D02*
X43800000Y-73775000D01*
X49400000Y-71075000D02*
X51700000Y-71075000D01*
X41500000Y-73975000D02*
X43600000Y-73975000D01*
D16*
%TO.N,5V*%
X48005000Y-27626000D02*
X47863000Y-27768000D01*
X50953800Y-27768000D02*
X50811800Y-27626000D01*
X50811800Y-27626000D02*
X48005000Y-27626000D01*
D17*
%TO.N,+BATT*%
X50125200Y-32401400D02*
X49433800Y-31710000D01*
D16*
X52708800Y-32401400D02*
X49742400Y-32401400D01*
D18*
X46933800Y-40310000D02*
X51933800Y-40310000D01*
D16*
X49742400Y-32401400D02*
X49433800Y-32710000D01*
X53552600Y-37786000D02*
X53552600Y-34738000D01*
D17*
%TO.N,/VBAT_SYS*%
X46085000Y-55200000D02*
X46092620Y-55207620D01*
D15*
X50149000Y-61154000D02*
X48117000Y-59122000D01*
D17*
X46085000Y-54281000D02*
X46085000Y-55200000D01*
D15*
X50403000Y-61154000D02*
X50149000Y-61154000D01*
D17*
X45577000Y-53773000D02*
X46085000Y-54281000D01*
X45577000Y-52515206D02*
X45577000Y-53773000D01*
D15*
%TO.N,/VM*%
X49433800Y-89056000D02*
X49433800Y-90656000D01*
%TO.N,/CHRG*%
X56724343Y-34512657D02*
X55334350Y-34512657D01*
%TO.N,LED1_EN*%
X42527603Y-55564603D02*
X43683000Y-56720000D01*
X43683000Y-56720000D02*
X43683000Y-57090000D01*
%TO.N,LED2_EN*%
X47900000Y-71775000D02*
X47900000Y-70375000D01*
X44194116Y-78172000D02*
X44194116Y-78048000D01*
X44194116Y-78299000D02*
X42391000Y-78299000D01*
%TD*%
%TA.AperFunction,Conductor*%
%TO.N,GND*%
G36*
X44509385Y-24081407D02*
G01*
X44545349Y-24130907D01*
X44545349Y-24192093D01*
X44533510Y-24216501D01*
X44449158Y-24342742D01*
X44392623Y-24479229D01*
X44392621Y-24479235D01*
X44363800Y-24624128D01*
X44363800Y-24797999D01*
X44363801Y-24798000D01*
X44863800Y-24798000D01*
X44863800Y-25298001D01*
X44863799Y-25298000D01*
X44363801Y-25298000D01*
X44363800Y-25298001D01*
X44363800Y-25471871D01*
X44392621Y-25616764D01*
X44392623Y-25616770D01*
X44449158Y-25753257D01*
X44531234Y-25876093D01*
X44635706Y-25980565D01*
X44758544Y-26062642D01*
X44863799Y-26106240D01*
X44863800Y-26106239D01*
X44863800Y-25447728D01*
X44901860Y-25539614D01*
X44972186Y-25609940D01*
X45064072Y-25648000D01*
X45163528Y-25648000D01*
X45255414Y-25609940D01*
X45325740Y-25539614D01*
X45363800Y-25447728D01*
X45363800Y-26106240D01*
X45469055Y-26062642D01*
X45591893Y-25980565D01*
X45696365Y-25876093D01*
X45778441Y-25753257D01*
X45834976Y-25616770D01*
X45834978Y-25616764D01*
X45863799Y-25471871D01*
X45863800Y-25471867D01*
X45863800Y-25298001D01*
X45863799Y-25298000D01*
X45363801Y-25298000D01*
X45363800Y-25298001D01*
X45363800Y-24798000D01*
X45863799Y-24798000D01*
X45863800Y-24797999D01*
X45863800Y-24624132D01*
X45863799Y-24624128D01*
X45834978Y-24479235D01*
X45834976Y-24479229D01*
X45778441Y-24342742D01*
X45694090Y-24216501D01*
X45677482Y-24157613D01*
X45698660Y-24100209D01*
X45749534Y-24066217D01*
X45776406Y-24062500D01*
X53091194Y-24062500D01*
X53149385Y-24081407D01*
X53185349Y-24130907D01*
X53185349Y-24192093D01*
X53173510Y-24216501D01*
X53089158Y-24342742D01*
X53032623Y-24479229D01*
X53032621Y-24479235D01*
X53003800Y-24624128D01*
X53003800Y-24797999D01*
X53003801Y-24798000D01*
X53503800Y-24798000D01*
X53503800Y-25298001D01*
X53503799Y-25298000D01*
X53003801Y-25298000D01*
X53003800Y-25298001D01*
X53003800Y-25471871D01*
X53032621Y-25616764D01*
X53032623Y-25616770D01*
X53089158Y-25753257D01*
X53171234Y-25876093D01*
X53275706Y-25980565D01*
X53398544Y-26062642D01*
X53503799Y-26106240D01*
X53503800Y-26106239D01*
X53503800Y-25447728D01*
X53541860Y-25539614D01*
X53612186Y-25609940D01*
X53704072Y-25648000D01*
X53803528Y-25648000D01*
X53895414Y-25609940D01*
X53965740Y-25539614D01*
X54003800Y-25447728D01*
X54003800Y-26106240D01*
X54109055Y-26062642D01*
X54231893Y-25980565D01*
X54336365Y-25876093D01*
X54418441Y-25753257D01*
X54474976Y-25616770D01*
X54474978Y-25616764D01*
X54503799Y-25471871D01*
X54503800Y-25471867D01*
X54503800Y-25298001D01*
X54503799Y-25298000D01*
X54003801Y-25298000D01*
X54003800Y-25298001D01*
X54003800Y-24798000D01*
X54503799Y-24798000D01*
X54503800Y-24797999D01*
X54503800Y-24624132D01*
X54503799Y-24624128D01*
X54474978Y-24479235D01*
X54474976Y-24479229D01*
X54418441Y-24342742D01*
X54334090Y-24216501D01*
X54317482Y-24157613D01*
X54338660Y-24100209D01*
X54389534Y-24066217D01*
X54416406Y-24062500D01*
X56941108Y-24062500D01*
X57004015Y-24062500D01*
X57009992Y-24062681D01*
X57302309Y-24080362D01*
X57314164Y-24081802D01*
X57599281Y-24134051D01*
X57610883Y-24136911D01*
X57887623Y-24223147D01*
X57898786Y-24227380D01*
X58155109Y-24342742D01*
X58163119Y-24346347D01*
X58173704Y-24351903D01*
X58421758Y-24501856D01*
X58431583Y-24508638D01*
X58609813Y-24648272D01*
X58659755Y-24687399D01*
X58668704Y-24695326D01*
X58873673Y-24900295D01*
X58881600Y-24909244D01*
X59002481Y-25063538D01*
X59060356Y-25137409D01*
X59067147Y-25147248D01*
X59217096Y-25395295D01*
X59222652Y-25405880D01*
X59341616Y-25670206D01*
X59345855Y-25681384D01*
X59432087Y-25958113D01*
X59434948Y-25969721D01*
X59487196Y-26254828D01*
X59488637Y-26266695D01*
X59506319Y-26559006D01*
X59506500Y-26564984D01*
X59506500Y-94981015D01*
X59506319Y-94986993D01*
X59488637Y-95279304D01*
X59487196Y-95291171D01*
X59434948Y-95576278D01*
X59432087Y-95587886D01*
X59345855Y-95864615D01*
X59341616Y-95875793D01*
X59222652Y-96140119D01*
X59217096Y-96150704D01*
X59067147Y-96398751D01*
X59060356Y-96408590D01*
X58881600Y-96636755D01*
X58873673Y-96645704D01*
X58668704Y-96850673D01*
X58659755Y-96858600D01*
X58431590Y-97037356D01*
X58421751Y-97044147D01*
X58173704Y-97194096D01*
X58163119Y-97199652D01*
X57898793Y-97318616D01*
X57887615Y-97322855D01*
X57610886Y-97409087D01*
X57599278Y-97411948D01*
X57314171Y-97464196D01*
X57302304Y-97465637D01*
X57031120Y-97482041D01*
X57010008Y-97483318D01*
X57004032Y-97483499D01*
X41769985Y-97483499D01*
X41764008Y-97483318D01*
X41740564Y-97481899D01*
X41471695Y-97465636D01*
X41459828Y-97464195D01*
X41174722Y-97411947D01*
X41163114Y-97409086D01*
X40886384Y-97322854D01*
X40875206Y-97318615D01*
X40610881Y-97199651D01*
X40600296Y-97194095D01*
X40439943Y-97097159D01*
X40352246Y-97044144D01*
X40342414Y-97037357D01*
X40114245Y-96858599D01*
X40105296Y-96850672D01*
X39900327Y-96645703D01*
X39892400Y-96636754D01*
X39771520Y-96482462D01*
X39713639Y-96408582D01*
X39706854Y-96398751D01*
X39556904Y-96150703D01*
X39551348Y-96140118D01*
X39432384Y-95875793D01*
X39428148Y-95864623D01*
X39341912Y-95587882D01*
X39339052Y-95576277D01*
X39329419Y-95523710D01*
X39286803Y-95291164D01*
X39285363Y-95279303D01*
X39267681Y-94986963D01*
X39267500Y-94980986D01*
X39267500Y-93798542D01*
X47733300Y-93798542D01*
X47733300Y-94021457D01*
X47762395Y-94242455D01*
X47762395Y-94242460D01*
X47820090Y-94457782D01*
X47905392Y-94663722D01*
X47905395Y-94663727D01*
X48016850Y-94856771D01*
X48016852Y-94856774D01*
X48152553Y-95033624D01*
X48310176Y-95191247D01*
X48487026Y-95326948D01*
X48487028Y-95326949D01*
X48680072Y-95438404D01*
X48680077Y-95438407D01*
X48824553Y-95498250D01*
X48886019Y-95523710D01*
X49101337Y-95581404D01*
X49322343Y-95610500D01*
X49322344Y-95610500D01*
X49545256Y-95610500D01*
X49545257Y-95610500D01*
X49766263Y-95581404D01*
X49981581Y-95523710D01*
X50111447Y-95469917D01*
X50187522Y-95438407D01*
X50187523Y-95438405D01*
X50187526Y-95438405D01*
X50380574Y-95326948D01*
X50557424Y-95191247D01*
X50715047Y-95033624D01*
X50850748Y-94856774D01*
X50962205Y-94663726D01*
X51047510Y-94457781D01*
X51105204Y-94242463D01*
X51134300Y-94021457D01*
X51134300Y-93798543D01*
X51105204Y-93577537D01*
X51047510Y-93362219D01*
X51031753Y-93324179D01*
X50962207Y-93156277D01*
X50962204Y-93156272D01*
X50850749Y-92963228D01*
X50850748Y-92963226D01*
X50715047Y-92786376D01*
X50557424Y-92628753D01*
X50380574Y-92493052D01*
X50380571Y-92493050D01*
X50187527Y-92381595D01*
X50187522Y-92381592D01*
X49981582Y-92296290D01*
X49886639Y-92270850D01*
X49766263Y-92238596D01*
X49766260Y-92238595D01*
X49766258Y-92238595D01*
X49545257Y-92209500D01*
X49322343Y-92209500D01*
X49322342Y-92209500D01*
X49101344Y-92238595D01*
X49101339Y-92238595D01*
X48886017Y-92296290D01*
X48680077Y-92381592D01*
X48680072Y-92381595D01*
X48487028Y-92493050D01*
X48310179Y-92628750D01*
X48152550Y-92786379D01*
X48016850Y-92963228D01*
X47905395Y-93156272D01*
X47905392Y-93156277D01*
X47820090Y-93362217D01*
X47762395Y-93577539D01*
X47762395Y-93577544D01*
X47733300Y-93798542D01*
X39267500Y-93798542D01*
X39267500Y-88983525D01*
X48883300Y-88983525D01*
X48883300Y-89128474D01*
X48920817Y-89268489D01*
X48993287Y-89394010D01*
X48993289Y-89394012D01*
X48993291Y-89394015D01*
X49095785Y-89496509D01*
X49095787Y-89496510D01*
X49100374Y-89501097D01*
X49099180Y-89502290D01*
X49129220Y-89545989D01*
X49133300Y-89574116D01*
X49133300Y-90137882D01*
X49114393Y-90196073D01*
X49100157Y-90210686D01*
X49100373Y-90210902D01*
X48993291Y-90317984D01*
X48993287Y-90317989D01*
X48920817Y-90443510D01*
X48883300Y-90583525D01*
X48883300Y-90728474D01*
X48920817Y-90868489D01*
X48993287Y-90994010D01*
X48993289Y-90994012D01*
X48993291Y-90994015D01*
X49095785Y-91096509D01*
X49095787Y-91096510D01*
X49095789Y-91096512D01*
X49221311Y-91168982D01*
X49221312Y-91168982D01*
X49221315Y-91168984D01*
X49361325Y-91206500D01*
X49361326Y-91206500D01*
X49506274Y-91206500D01*
X49506275Y-91206500D01*
X49646285Y-91168984D01*
X49646287Y-91168982D01*
X49646289Y-91168982D01*
X49771810Y-91096512D01*
X49771810Y-91096511D01*
X49771815Y-91096509D01*
X49874309Y-90994015D01*
X49946784Y-90868485D01*
X49984300Y-90728475D01*
X49984300Y-90583525D01*
X49946784Y-90443515D01*
X49946782Y-90443512D01*
X49946782Y-90443510D01*
X49874312Y-90317989D01*
X49874308Y-90317984D01*
X49767227Y-90210902D01*
X49768417Y-90209711D01*
X49738374Y-90165990D01*
X49734300Y-90137882D01*
X49734300Y-89574116D01*
X49753207Y-89515925D01*
X49767442Y-89501313D01*
X49767226Y-89501097D01*
X49771812Y-89496510D01*
X49771815Y-89496509D01*
X49874309Y-89394015D01*
X49946784Y-89268485D01*
X49984300Y-89128475D01*
X49984300Y-88983525D01*
X49946784Y-88843515D01*
X49946782Y-88843512D01*
X49946782Y-88843510D01*
X49874312Y-88717989D01*
X49874310Y-88717987D01*
X49874309Y-88717985D01*
X49771815Y-88615491D01*
X49771812Y-88615489D01*
X49771810Y-88615487D01*
X49646288Y-88543017D01*
X49646289Y-88543017D01*
X49616696Y-88535087D01*
X49506275Y-88505500D01*
X49361325Y-88505500D01*
X49299590Y-88522041D01*
X49221310Y-88543017D01*
X49095789Y-88615487D01*
X48993287Y-88717989D01*
X48920817Y-88843510D01*
X48883300Y-88983525D01*
X39267500Y-88983525D01*
X39267500Y-86198542D01*
X45233300Y-86198542D01*
X45233300Y-86421457D01*
X45262395Y-86642455D01*
X45262395Y-86642460D01*
X45320090Y-86857782D01*
X45405392Y-87063722D01*
X45405395Y-87063727D01*
X45516850Y-87256771D01*
X45516852Y-87256774D01*
X45652553Y-87433624D01*
X45810176Y-87591247D01*
X45987026Y-87726948D01*
X45987028Y-87726949D01*
X46180072Y-87838404D01*
X46180077Y-87838407D01*
X46347979Y-87907953D01*
X46386019Y-87923710D01*
X46601337Y-87981404D01*
X46822343Y-88010500D01*
X46822344Y-88010500D01*
X47045256Y-88010500D01*
X47045257Y-88010500D01*
X47266263Y-87981404D01*
X47481581Y-87923710D01*
X47611447Y-87869917D01*
X47687522Y-87838407D01*
X47687523Y-87838405D01*
X47687526Y-87838405D01*
X47880574Y-87726948D01*
X48057424Y-87591247D01*
X48215047Y-87433624D01*
X48350748Y-87256774D01*
X48462205Y-87063726D01*
X48547510Y-86857781D01*
X48605204Y-86642463D01*
X48634300Y-86421457D01*
X48634300Y-86198543D01*
X48634300Y-86198542D01*
X50233300Y-86198542D01*
X50233300Y-86421457D01*
X50262395Y-86642455D01*
X50262395Y-86642460D01*
X50320090Y-86857782D01*
X50405392Y-87063722D01*
X50405395Y-87063727D01*
X50516850Y-87256771D01*
X50516852Y-87256774D01*
X50652553Y-87433624D01*
X50810176Y-87591247D01*
X50987026Y-87726948D01*
X50987028Y-87726949D01*
X51180072Y-87838404D01*
X51180077Y-87838407D01*
X51347979Y-87907953D01*
X51386019Y-87923710D01*
X51601337Y-87981404D01*
X51822343Y-88010500D01*
X51822344Y-88010500D01*
X52045256Y-88010500D01*
X52045257Y-88010500D01*
X52266263Y-87981404D01*
X52481581Y-87923710D01*
X52611447Y-87869917D01*
X52687522Y-87838407D01*
X52687523Y-87838405D01*
X52687526Y-87838405D01*
X52880574Y-87726948D01*
X53057424Y-87591247D01*
X53215047Y-87433624D01*
X53350748Y-87256774D01*
X53462205Y-87063726D01*
X53547510Y-86857781D01*
X53605204Y-86642463D01*
X53634300Y-86421457D01*
X53634300Y-86198543D01*
X53605204Y-85977537D01*
X53547510Y-85762219D01*
X53531753Y-85724179D01*
X53462207Y-85556277D01*
X53462204Y-85556272D01*
X53350749Y-85363228D01*
X53350748Y-85363226D01*
X53215047Y-85186376D01*
X53057424Y-85028753D01*
X52880574Y-84893052D01*
X52880571Y-84893050D01*
X52687527Y-84781595D01*
X52687522Y-84781592D01*
X52481582Y-84696290D01*
X52386639Y-84670850D01*
X52266263Y-84638596D01*
X52266260Y-84638595D01*
X52266258Y-84638595D01*
X52045257Y-84609500D01*
X51822343Y-84609500D01*
X51822342Y-84609500D01*
X51601344Y-84638595D01*
X51601339Y-84638595D01*
X51386017Y-84696290D01*
X51180077Y-84781592D01*
X51180072Y-84781595D01*
X50987028Y-84893050D01*
X50810179Y-85028750D01*
X50652550Y-85186379D01*
X50516850Y-85363228D01*
X50405395Y-85556272D01*
X50405392Y-85556277D01*
X50320090Y-85762217D01*
X50262395Y-85977539D01*
X50262395Y-85977544D01*
X50233300Y-86198542D01*
X48634300Y-86198542D01*
X48605204Y-85977537D01*
X48547510Y-85762219D01*
X48531753Y-85724179D01*
X48462207Y-85556277D01*
X48462204Y-85556272D01*
X48350749Y-85363228D01*
X48350748Y-85363226D01*
X48215047Y-85186376D01*
X48057424Y-85028753D01*
X47880574Y-84893052D01*
X47880571Y-84893050D01*
X47687527Y-84781595D01*
X47687522Y-84781592D01*
X47481582Y-84696290D01*
X47386639Y-84670850D01*
X47266263Y-84638596D01*
X47266260Y-84638595D01*
X47266258Y-84638595D01*
X47045257Y-84609500D01*
X46822343Y-84609500D01*
X46822342Y-84609500D01*
X46601344Y-84638595D01*
X46601339Y-84638595D01*
X46386017Y-84696290D01*
X46180077Y-84781592D01*
X46180072Y-84781595D01*
X45987028Y-84893050D01*
X45810179Y-85028750D01*
X45652550Y-85186379D01*
X45516850Y-85363228D01*
X45405395Y-85556272D01*
X45405392Y-85556277D01*
X45320090Y-85762217D01*
X45262395Y-85977539D01*
X45262395Y-85977544D01*
X45233300Y-86198542D01*
X39267500Y-86198542D01*
X39267500Y-78226525D01*
X41840500Y-78226525D01*
X41840500Y-78371474D01*
X41878017Y-78511489D01*
X41950487Y-78637010D01*
X41950489Y-78637012D01*
X41950491Y-78637015D01*
X42052985Y-78739509D01*
X42052987Y-78739510D01*
X42052989Y-78739512D01*
X42178511Y-78811982D01*
X42178512Y-78811982D01*
X42178515Y-78811984D01*
X42318525Y-78849500D01*
X42318526Y-78849500D01*
X42463474Y-78849500D01*
X42463475Y-78849500D01*
X42603485Y-78811984D01*
X42603487Y-78811982D01*
X42603489Y-78811982D01*
X42729010Y-78739512D01*
X42729010Y-78739511D01*
X42729015Y-78739509D01*
X42831509Y-78637015D01*
X42831510Y-78637012D01*
X42836097Y-78632426D01*
X42837290Y-78633619D01*
X42880989Y-78603580D01*
X42909116Y-78599500D01*
X43676000Y-78599500D01*
X43734191Y-78618407D01*
X43748802Y-78632642D01*
X43749019Y-78632426D01*
X43753605Y-78637012D01*
X43753607Y-78637015D01*
X43856101Y-78739509D01*
X43856103Y-78739510D01*
X43856105Y-78739512D01*
X43981627Y-78811982D01*
X43981628Y-78811982D01*
X43981631Y-78811984D01*
X44121641Y-78849500D01*
X44121642Y-78849500D01*
X44266590Y-78849500D01*
X44266591Y-78849500D01*
X44406601Y-78811984D01*
X44406603Y-78811982D01*
X44406605Y-78811982D01*
X44532126Y-78739512D01*
X44532126Y-78739511D01*
X44532131Y-78739509D01*
X44634625Y-78637015D01*
X44637150Y-78632642D01*
X44707098Y-78511489D01*
X44707098Y-78511487D01*
X44707100Y-78511485D01*
X44744616Y-78371475D01*
X44744616Y-78226525D01*
X44707100Y-78086515D01*
X44707098Y-78086512D01*
X44707098Y-78086510D01*
X44634628Y-77960989D01*
X44634626Y-77960987D01*
X44634625Y-77960985D01*
X44532131Y-77858491D01*
X44532128Y-77858489D01*
X44532126Y-77858487D01*
X44406604Y-77786017D01*
X44406605Y-77786017D01*
X44377012Y-77778087D01*
X44266591Y-77748500D01*
X44266590Y-77748500D01*
X44237410Y-77748500D01*
X44233678Y-77747500D01*
X44154554Y-77747500D01*
X44150822Y-77748500D01*
X44121641Y-77748500D01*
X44059906Y-77765041D01*
X43981626Y-77786017D01*
X43856105Y-77858487D01*
X43856104Y-77858488D01*
X43856101Y-77858490D01*
X43856101Y-77858491D01*
X43753607Y-77960985D01*
X43753605Y-77960987D01*
X43749019Y-77965574D01*
X43747825Y-77964380D01*
X43704127Y-77994420D01*
X43676000Y-77998500D01*
X42909116Y-77998500D01*
X42850925Y-77979593D01*
X42836313Y-77965357D01*
X42836097Y-77965574D01*
X42831510Y-77960987D01*
X42831509Y-77960985D01*
X42729015Y-77858491D01*
X42729012Y-77858489D01*
X42729010Y-77858487D01*
X42603488Y-77786017D01*
X42603489Y-77786017D01*
X42573896Y-77778087D01*
X42463475Y-77748500D01*
X42318525Y-77748500D01*
X42256790Y-77765041D01*
X42178510Y-77786017D01*
X42052989Y-77858487D01*
X41950487Y-77960989D01*
X41878017Y-78086510D01*
X41840500Y-78226525D01*
X39267500Y-78226525D01*
X39267500Y-71460253D01*
X39754500Y-71460253D01*
X39754500Y-73199746D01*
X39754501Y-73199758D01*
X39766132Y-73258227D01*
X39766134Y-73258233D01*
X39810445Y-73324548D01*
X39810448Y-73324552D01*
X39876769Y-73368867D01*
X39921231Y-73377711D01*
X39935241Y-73380498D01*
X39935246Y-73380498D01*
X39935252Y-73380500D01*
X39935253Y-73380500D01*
X41076969Y-73380500D01*
X41135160Y-73399407D01*
X41171124Y-73448907D01*
X41171124Y-73510093D01*
X41146974Y-73549501D01*
X41095352Y-73601124D01*
X41059488Y-73636988D01*
X41059487Y-73636989D01*
X40987017Y-73762510D01*
X40949500Y-73902525D01*
X40949500Y-74047474D01*
X40987017Y-74187489D01*
X41059487Y-74313010D01*
X41059489Y-74313012D01*
X41059491Y-74313015D01*
X41161985Y-74415509D01*
X41161987Y-74415510D01*
X41161989Y-74415512D01*
X41287511Y-74487982D01*
X41287512Y-74487982D01*
X41287515Y-74487984D01*
X41427525Y-74525500D01*
X41427526Y-74525500D01*
X41572474Y-74525500D01*
X41572475Y-74525500D01*
X41712485Y-74487984D01*
X41712487Y-74487982D01*
X41712489Y-74487982D01*
X41838010Y-74415512D01*
X41838010Y-74415511D01*
X41838015Y-74415509D01*
X41940509Y-74313015D01*
X41940510Y-74313012D01*
X41945097Y-74308426D01*
X41946290Y-74309619D01*
X41989989Y-74279580D01*
X42018116Y-74275500D01*
X43539365Y-74275500D01*
X43581038Y-74286665D01*
X43581521Y-74285501D01*
X43587513Y-74287983D01*
X43587515Y-74287984D01*
X43727525Y-74325500D01*
X43727526Y-74325500D01*
X43872474Y-74325500D01*
X43872475Y-74325500D01*
X44012485Y-74287984D01*
X44012487Y-74287982D01*
X44012489Y-74287982D01*
X44138010Y-74215512D01*
X44138010Y-74215511D01*
X44138015Y-74215509D01*
X44240509Y-74113015D01*
X44312984Y-73987485D01*
X44350500Y-73847475D01*
X44350500Y-73702525D01*
X44312984Y-73562515D01*
X44312982Y-73562511D01*
X44312982Y-73562510D01*
X44240512Y-73436989D01*
X44240510Y-73436987D01*
X44240509Y-73436985D01*
X44138015Y-73334491D01*
X44138012Y-73334489D01*
X44138010Y-73334487D01*
X44012488Y-73262017D01*
X44012489Y-73262017D01*
X43982896Y-73254087D01*
X43872475Y-73224500D01*
X43727525Y-73224500D01*
X43665790Y-73241041D01*
X43587510Y-73262017D01*
X43461989Y-73334487D01*
X43359487Y-73436989D01*
X43287017Y-73562511D01*
X43287015Y-73562515D01*
X43276670Y-73601124D01*
X43243346Y-73652438D01*
X43186224Y-73674364D01*
X43181044Y-73674500D01*
X42018116Y-73674500D01*
X41959925Y-73655593D01*
X41945313Y-73641357D01*
X41945097Y-73641574D01*
X41940510Y-73636987D01*
X41940509Y-73636985D01*
X41838015Y-73534491D01*
X41786700Y-73504864D01*
X41745761Y-73459396D01*
X41739365Y-73398546D01*
X41769958Y-73345558D01*
X41781192Y-73336819D01*
X41799552Y-73324552D01*
X41843867Y-73258231D01*
X41855500Y-73199748D01*
X41855500Y-71460252D01*
X41843867Y-71401769D01*
X41799552Y-71335448D01*
X41789470Y-71328711D01*
X41733233Y-71291134D01*
X41733231Y-71291133D01*
X41733228Y-71291132D01*
X41733227Y-71291132D01*
X41674758Y-71279501D01*
X41674748Y-71279500D01*
X39935252Y-71279500D01*
X39935251Y-71279500D01*
X39935241Y-71279501D01*
X39876772Y-71291132D01*
X39876766Y-71291134D01*
X39810451Y-71335445D01*
X39810445Y-71335451D01*
X39766134Y-71401766D01*
X39766132Y-71401772D01*
X39754501Y-71460241D01*
X39754500Y-71460253D01*
X39267500Y-71460253D01*
X39267500Y-69686532D01*
X40154500Y-69686532D01*
X40154500Y-69893467D01*
X40194869Y-70096418D01*
X40274058Y-70287597D01*
X40389020Y-70459651D01*
X40389023Y-70459655D01*
X40535345Y-70605977D01*
X40707402Y-70720941D01*
X40898580Y-70800130D01*
X41101535Y-70840500D01*
X41101536Y-70840500D01*
X41308464Y-70840500D01*
X41308465Y-70840500D01*
X41511420Y-70800130D01*
X41702598Y-70720941D01*
X41874655Y-70605977D01*
X42020977Y-70459655D01*
X42135941Y-70287598D01*
X42171505Y-70201737D01*
X42192268Y-70151614D01*
X42232005Y-70105088D01*
X42283732Y-70090500D01*
X43280884Y-70090500D01*
X43339075Y-70109407D01*
X43353686Y-70123642D01*
X43353903Y-70123426D01*
X43358489Y-70128012D01*
X43358491Y-70128015D01*
X43460985Y-70230509D01*
X43460987Y-70230510D01*
X43460989Y-70230512D01*
X43586511Y-70302982D01*
X43586512Y-70302982D01*
X43586515Y-70302984D01*
X43726525Y-70340500D01*
X43726526Y-70340500D01*
X43871474Y-70340500D01*
X43871475Y-70340500D01*
X44011485Y-70302984D01*
X44011487Y-70302982D01*
X44011489Y-70302982D01*
X44012281Y-70302525D01*
X47349500Y-70302525D01*
X47349500Y-70447474D01*
X47387017Y-70587489D01*
X47459487Y-70713010D01*
X47459489Y-70713012D01*
X47459491Y-70713015D01*
X47561985Y-70815509D01*
X47561987Y-70815510D01*
X47566574Y-70820097D01*
X47565380Y-70821290D01*
X47595420Y-70864989D01*
X47599500Y-70893116D01*
X47599500Y-71256882D01*
X47580593Y-71315073D01*
X47566357Y-71329686D01*
X47566573Y-71329902D01*
X47459491Y-71436984D01*
X47459487Y-71436989D01*
X47387017Y-71562510D01*
X47349500Y-71702525D01*
X47349500Y-71847474D01*
X47387017Y-71987489D01*
X47459487Y-72113010D01*
X47459489Y-72113012D01*
X47459491Y-72113015D01*
X47561985Y-72215509D01*
X47561987Y-72215510D01*
X47561989Y-72215512D01*
X47687511Y-72287982D01*
X47687512Y-72287982D01*
X47687515Y-72287984D01*
X47827525Y-72325500D01*
X47827526Y-72325500D01*
X47972474Y-72325500D01*
X47972475Y-72325500D01*
X48112485Y-72287984D01*
X48112487Y-72287982D01*
X48112489Y-72287982D01*
X48238010Y-72215512D01*
X48238010Y-72215511D01*
X48238015Y-72215509D01*
X48340509Y-72113015D01*
X48412984Y-71987485D01*
X48450500Y-71847475D01*
X48450500Y-71702525D01*
X48412984Y-71562515D01*
X48412982Y-71562512D01*
X48412982Y-71562510D01*
X48340512Y-71436989D01*
X48340508Y-71436984D01*
X48233427Y-71329902D01*
X48234617Y-71328711D01*
X48204574Y-71284990D01*
X48200500Y-71256882D01*
X48200500Y-71002525D01*
X48849500Y-71002525D01*
X48849500Y-71147474D01*
X48887017Y-71287489D01*
X48959487Y-71413010D01*
X48959489Y-71413012D01*
X48959491Y-71413015D01*
X49061985Y-71515509D01*
X49061987Y-71515510D01*
X49061989Y-71515512D01*
X49187511Y-71587982D01*
X49187512Y-71587982D01*
X49187515Y-71587984D01*
X49327525Y-71625500D01*
X49327526Y-71625500D01*
X49472474Y-71625500D01*
X49472475Y-71625500D01*
X49612485Y-71587984D01*
X49612487Y-71587982D01*
X49612489Y-71587982D01*
X49738010Y-71515512D01*
X49738010Y-71515511D01*
X49738015Y-71515509D01*
X49840509Y-71413015D01*
X49840510Y-71413012D01*
X49845097Y-71408426D01*
X49846290Y-71409619D01*
X49889989Y-71379580D01*
X49918116Y-71375500D01*
X51181884Y-71375500D01*
X51240075Y-71394407D01*
X51254686Y-71408642D01*
X51254903Y-71408426D01*
X51259489Y-71413012D01*
X51259491Y-71413015D01*
X51361985Y-71515509D01*
X51361987Y-71515510D01*
X51361989Y-71515512D01*
X51487511Y-71587982D01*
X51487512Y-71587982D01*
X51487515Y-71587984D01*
X51627525Y-71625500D01*
X51627526Y-71625500D01*
X51772474Y-71625500D01*
X51772475Y-71625500D01*
X51912485Y-71587984D01*
X51912487Y-71587982D01*
X51912489Y-71587982D01*
X52038010Y-71515512D01*
X52038010Y-71515511D01*
X52038015Y-71515509D01*
X52140509Y-71413015D01*
X52143034Y-71408642D01*
X52212982Y-71287489D01*
X52212982Y-71287487D01*
X52212984Y-71287485D01*
X52250500Y-71147475D01*
X52250500Y-71002525D01*
X52212984Y-70862515D01*
X52212982Y-70862512D01*
X52212982Y-70862510D01*
X52140512Y-70736989D01*
X52140510Y-70736987D01*
X52140509Y-70736985D01*
X52038015Y-70634491D01*
X52038012Y-70634489D01*
X52038010Y-70634487D01*
X51912488Y-70562017D01*
X51912489Y-70562017D01*
X51882896Y-70554087D01*
X51772475Y-70524500D01*
X51627525Y-70524500D01*
X51565790Y-70541041D01*
X51487510Y-70562017D01*
X51361989Y-70634487D01*
X51361988Y-70634488D01*
X51361985Y-70634490D01*
X51361985Y-70634491D01*
X51259491Y-70736985D01*
X51259489Y-70736987D01*
X51254903Y-70741574D01*
X51253709Y-70740380D01*
X51210011Y-70770420D01*
X51181884Y-70774500D01*
X49918116Y-70774500D01*
X49859925Y-70755593D01*
X49845313Y-70741357D01*
X49845097Y-70741574D01*
X49840510Y-70736987D01*
X49840509Y-70736985D01*
X49738015Y-70634491D01*
X49738012Y-70634489D01*
X49738010Y-70634487D01*
X49612488Y-70562017D01*
X49612489Y-70562017D01*
X49582896Y-70554087D01*
X49472475Y-70524500D01*
X49327525Y-70524500D01*
X49265790Y-70541041D01*
X49187510Y-70562017D01*
X49061989Y-70634487D01*
X48959487Y-70736989D01*
X48887017Y-70862510D01*
X48849500Y-71002525D01*
X48200500Y-71002525D01*
X48200500Y-70893116D01*
X48219407Y-70834925D01*
X48233642Y-70820313D01*
X48233426Y-70820097D01*
X48238012Y-70815510D01*
X48238015Y-70815509D01*
X48340509Y-70713015D01*
X48385847Y-70634488D01*
X48412982Y-70587489D01*
X48412982Y-70587487D01*
X48412984Y-70587485D01*
X48450500Y-70447475D01*
X48450500Y-70302525D01*
X48412984Y-70162515D01*
X48412982Y-70162512D01*
X48412982Y-70162510D01*
X48340512Y-70036989D01*
X48340510Y-70036987D01*
X48340509Y-70036985D01*
X48238015Y-69934491D01*
X48238012Y-69934489D01*
X48238010Y-69934487D01*
X48112488Y-69862017D01*
X48112489Y-69862017D01*
X48082896Y-69854087D01*
X47972475Y-69824500D01*
X47827525Y-69824500D01*
X47765790Y-69841041D01*
X47687510Y-69862017D01*
X47561989Y-69934487D01*
X47459487Y-70036989D01*
X47387017Y-70162510D01*
X47349500Y-70302525D01*
X44012281Y-70302525D01*
X44137010Y-70230512D01*
X44137010Y-70230511D01*
X44137015Y-70230509D01*
X44239509Y-70128015D01*
X44242034Y-70123642D01*
X44311982Y-70002489D01*
X44311982Y-70002487D01*
X44311984Y-70002485D01*
X44349500Y-69862475D01*
X44349500Y-69717525D01*
X44311984Y-69577515D01*
X44311982Y-69577512D01*
X44311982Y-69577510D01*
X44239512Y-69451989D01*
X44239510Y-69451987D01*
X44239509Y-69451985D01*
X44137015Y-69349491D01*
X44137012Y-69349489D01*
X44137010Y-69349487D01*
X44011488Y-69277017D01*
X44011489Y-69277017D01*
X43981896Y-69269087D01*
X43871475Y-69239500D01*
X43726525Y-69239500D01*
X43664790Y-69256041D01*
X43586510Y-69277017D01*
X43460989Y-69349487D01*
X43460988Y-69349488D01*
X43460985Y-69349490D01*
X43460985Y-69349491D01*
X43358491Y-69451985D01*
X43358489Y-69451987D01*
X43353903Y-69456574D01*
X43352709Y-69455380D01*
X43309011Y-69485420D01*
X43280884Y-69489500D01*
X42283732Y-69489500D01*
X42225541Y-69470593D01*
X42192268Y-69428386D01*
X42135941Y-69292402D01*
X42020979Y-69120348D01*
X42020977Y-69120345D01*
X41874655Y-68974023D01*
X41702598Y-68859059D01*
X41702599Y-68859059D01*
X41702597Y-68859058D01*
X41511418Y-68779869D01*
X41308467Y-68739500D01*
X41308465Y-68739500D01*
X41101535Y-68739500D01*
X41101532Y-68739500D01*
X40898581Y-68779869D01*
X40707402Y-68859058D01*
X40535348Y-68974020D01*
X40389020Y-69120348D01*
X40274058Y-69292402D01*
X40194869Y-69483581D01*
X40154500Y-69686532D01*
X39267500Y-69686532D01*
X39267500Y-67146532D01*
X39754500Y-67146532D01*
X39754500Y-67353467D01*
X39794869Y-67556418D01*
X39874058Y-67747597D01*
X39967860Y-67887982D01*
X39989023Y-67919655D01*
X40135345Y-68065977D01*
X40307402Y-68180941D01*
X40498580Y-68260130D01*
X40701535Y-68300500D01*
X40701536Y-68300500D01*
X40908464Y-68300500D01*
X40908465Y-68300500D01*
X41111420Y-68260130D01*
X41302598Y-68180941D01*
X41474655Y-68065977D01*
X41620977Y-67919655D01*
X41735941Y-67747598D01*
X41781936Y-67636557D01*
X41792268Y-67611614D01*
X41832005Y-67565088D01*
X41883732Y-67550500D01*
X42705521Y-67550500D01*
X42763712Y-67569407D01*
X42775525Y-67579496D01*
X43220685Y-68024656D01*
X43248462Y-68079173D01*
X43248683Y-68096036D01*
X43249500Y-68096036D01*
X43249500Y-68247474D01*
X43287017Y-68387489D01*
X43359487Y-68513010D01*
X43359489Y-68513012D01*
X43359491Y-68513015D01*
X43461985Y-68615509D01*
X43461987Y-68615510D01*
X43461989Y-68615512D01*
X43587511Y-68687982D01*
X43587512Y-68687982D01*
X43587515Y-68687984D01*
X43727525Y-68725500D01*
X43727526Y-68725500D01*
X43872474Y-68725500D01*
X43872475Y-68725500D01*
X44012485Y-68687984D01*
X44012487Y-68687982D01*
X44012489Y-68687982D01*
X44138010Y-68615512D01*
X44138010Y-68615511D01*
X44138015Y-68615509D01*
X44240509Y-68513015D01*
X44312984Y-68387485D01*
X44350500Y-68247475D01*
X44350500Y-68102525D01*
X44312984Y-67962515D01*
X44312982Y-67962512D01*
X44312982Y-67962510D01*
X44240512Y-67836989D01*
X44240510Y-67836987D01*
X44240509Y-67836985D01*
X44138015Y-67734491D01*
X44138012Y-67734489D01*
X44138010Y-67734487D01*
X44012488Y-67662017D01*
X44012489Y-67662017D01*
X43982896Y-67654087D01*
X43872475Y-67624500D01*
X43727525Y-67624500D01*
X43727516Y-67624500D01*
X43725501Y-67624765D01*
X43724072Y-67624500D01*
X43721036Y-67624500D01*
X43721036Y-67623937D01*
X43665342Y-67613609D01*
X43642586Y-67596615D01*
X43412011Y-67366040D01*
X43412009Y-67366037D01*
X43348497Y-67302525D01*
X48749500Y-67302525D01*
X48749500Y-67447474D01*
X48787017Y-67587489D01*
X48859487Y-67713010D01*
X48859489Y-67713012D01*
X48859491Y-67713015D01*
X48961985Y-67815509D01*
X48961987Y-67815510D01*
X48961989Y-67815512D01*
X49087511Y-67887982D01*
X49087512Y-67887982D01*
X49087515Y-67887984D01*
X49227525Y-67925500D01*
X49227526Y-67925500D01*
X49372474Y-67925500D01*
X49372475Y-67925500D01*
X49512485Y-67887984D01*
X49512487Y-67887982D01*
X49512489Y-67887982D01*
X49638010Y-67815512D01*
X49638010Y-67815511D01*
X49638015Y-67815509D01*
X49740509Y-67713015D01*
X49769953Y-67662017D01*
X49812982Y-67587489D01*
X49812982Y-67587487D01*
X49812984Y-67587485D01*
X49850500Y-67447475D01*
X49850500Y-67302525D01*
X49812984Y-67162515D01*
X49812983Y-67162513D01*
X49810501Y-67156521D01*
X49811665Y-67156038D01*
X49800500Y-67114365D01*
X49800500Y-66393116D01*
X49819407Y-66334925D01*
X49833642Y-66320313D01*
X49833426Y-66320097D01*
X49838012Y-66315510D01*
X49838015Y-66315509D01*
X49940509Y-66213015D01*
X50012984Y-66087485D01*
X50050500Y-65947475D01*
X50050500Y-65802525D01*
X50012984Y-65662515D01*
X50012982Y-65662512D01*
X50012982Y-65662510D01*
X49940512Y-65536989D01*
X49940510Y-65536987D01*
X49940509Y-65536985D01*
X49838015Y-65434491D01*
X49838012Y-65434489D01*
X49838010Y-65434487D01*
X49712488Y-65362017D01*
X49712489Y-65362017D01*
X49682896Y-65354087D01*
X49572475Y-65324500D01*
X49427525Y-65324500D01*
X49365790Y-65341041D01*
X49287510Y-65362017D01*
X49161989Y-65434487D01*
X49059487Y-65536989D01*
X48987017Y-65662510D01*
X48949500Y-65802525D01*
X48949500Y-65947474D01*
X48987017Y-66087489D01*
X49059487Y-66213010D01*
X49059489Y-66213012D01*
X49059491Y-66213015D01*
X49161985Y-66315509D01*
X49161987Y-66315510D01*
X49166574Y-66320097D01*
X49165380Y-66321290D01*
X49195420Y-66364989D01*
X49199500Y-66393116D01*
X49199500Y-66756043D01*
X49180593Y-66814234D01*
X49131093Y-66850198D01*
X49126126Y-66851669D01*
X49087512Y-66862016D01*
X49087511Y-66862017D01*
X48961989Y-66934487D01*
X48859487Y-67036989D01*
X48787017Y-67162510D01*
X48749500Y-67302525D01*
X43348497Y-67302525D01*
X43055511Y-67009540D01*
X43042093Y-67001793D01*
X42986989Y-66969979D01*
X42986987Y-66969978D01*
X42986985Y-66969977D01*
X42910564Y-66949500D01*
X42910562Y-66949500D01*
X41883732Y-66949500D01*
X41825541Y-66930593D01*
X41792268Y-66888386D01*
X41735941Y-66752402D01*
X41620979Y-66580348D01*
X41620977Y-66580345D01*
X41474655Y-66434023D01*
X41371338Y-66364989D01*
X41302597Y-66319058D01*
X41111418Y-66239869D01*
X40908467Y-66199500D01*
X40908465Y-66199500D01*
X40701535Y-66199500D01*
X40701532Y-66199500D01*
X40498581Y-66239869D01*
X40307402Y-66319058D01*
X40135348Y-66434020D01*
X39989020Y-66580348D01*
X39874058Y-66752402D01*
X39794869Y-66943581D01*
X39754500Y-67146532D01*
X39267500Y-67146532D01*
X39267500Y-64606532D01*
X40154500Y-64606532D01*
X40154500Y-64813467D01*
X40194869Y-65016418D01*
X40274058Y-65207597D01*
X40389020Y-65379651D01*
X40389023Y-65379655D01*
X40535345Y-65525977D01*
X40707402Y-65640941D01*
X40898580Y-65720130D01*
X41101535Y-65760500D01*
X41101536Y-65760500D01*
X41308464Y-65760500D01*
X41308465Y-65760500D01*
X41511420Y-65720130D01*
X41702598Y-65640941D01*
X41874655Y-65525977D01*
X42020977Y-65379655D01*
X42135941Y-65207598D01*
X42192268Y-65071614D01*
X42232005Y-65025088D01*
X42283732Y-65010500D01*
X43213521Y-65010500D01*
X43271712Y-65029407D01*
X43283525Y-65039496D01*
X43869109Y-65625080D01*
X43869111Y-65625081D01*
X43869112Y-65625082D01*
X43869113Y-65625083D01*
X43937628Y-65664640D01*
X43937626Y-65664640D01*
X43937630Y-65664641D01*
X43937632Y-65664642D01*
X44014058Y-65685120D01*
X44093182Y-65685120D01*
X47281884Y-65685120D01*
X47340075Y-65704027D01*
X47354686Y-65718262D01*
X47354903Y-65718046D01*
X47359489Y-65722632D01*
X47359491Y-65722635D01*
X47461985Y-65825129D01*
X47461987Y-65825130D01*
X47461989Y-65825132D01*
X47587511Y-65897602D01*
X47587512Y-65897602D01*
X47587515Y-65897604D01*
X47727525Y-65935120D01*
X47727526Y-65935120D01*
X47872474Y-65935120D01*
X47872475Y-65935120D01*
X48012485Y-65897604D01*
X48012487Y-65897602D01*
X48012489Y-65897602D01*
X48138010Y-65825132D01*
X48138010Y-65825131D01*
X48138015Y-65825129D01*
X48240509Y-65722635D01*
X48243034Y-65718262D01*
X48312982Y-65597109D01*
X48312982Y-65597107D01*
X48312984Y-65597105D01*
X48350500Y-65457095D01*
X48350500Y-65312145D01*
X48312984Y-65172135D01*
X48312982Y-65172132D01*
X48312982Y-65172130D01*
X48240512Y-65046609D01*
X48240510Y-65046607D01*
X48240509Y-65046605D01*
X48138015Y-64944111D01*
X48138012Y-64944109D01*
X48138010Y-64944107D01*
X48012488Y-64871637D01*
X48012489Y-64871637D01*
X47982896Y-64863707D01*
X47872475Y-64834120D01*
X47727525Y-64834120D01*
X47665790Y-64850661D01*
X47587510Y-64871637D01*
X47461989Y-64944107D01*
X47461988Y-64944108D01*
X47461985Y-64944110D01*
X47461985Y-64944111D01*
X47359491Y-65046605D01*
X47359489Y-65046607D01*
X47354903Y-65051194D01*
X47353709Y-65050000D01*
X47310011Y-65080040D01*
X47281884Y-65084120D01*
X44219099Y-65084120D01*
X44160908Y-65065213D01*
X44149095Y-65055124D01*
X43907436Y-64813465D01*
X43563511Y-64469540D01*
X43563508Y-64469538D01*
X43494992Y-64429980D01*
X43494988Y-64429978D01*
X43418564Y-64409500D01*
X43418562Y-64409500D01*
X42283732Y-64409500D01*
X42225541Y-64390593D01*
X42192268Y-64348386D01*
X42135941Y-64212402D01*
X42020979Y-64040348D01*
X42020977Y-64040345D01*
X41874655Y-63894023D01*
X41702598Y-63779059D01*
X41702599Y-63779059D01*
X41702597Y-63779058D01*
X41511418Y-63699869D01*
X41308467Y-63659500D01*
X41308465Y-63659500D01*
X41101535Y-63659500D01*
X41101532Y-63659500D01*
X40898581Y-63699869D01*
X40707402Y-63779058D01*
X40535348Y-63894020D01*
X40389020Y-64040348D01*
X40274058Y-64212402D01*
X40194869Y-64403581D01*
X40154500Y-64606532D01*
X39267500Y-64606532D01*
X39267500Y-62083424D01*
X39705000Y-62083424D01*
X39705000Y-62256575D01*
X39732084Y-62427579D01*
X39785588Y-62592248D01*
X39864196Y-62746524D01*
X39868708Y-62752735D01*
X40322036Y-62299406D01*
X40339075Y-62362993D01*
X40404901Y-62477007D01*
X40497993Y-62570099D01*
X40612007Y-62635925D01*
X40675589Y-62652962D01*
X40222262Y-63106289D01*
X40222262Y-63106290D01*
X40228469Y-63110800D01*
X40228475Y-63110804D01*
X40382751Y-63189411D01*
X40547420Y-63242915D01*
X40718425Y-63270000D01*
X40891575Y-63270000D01*
X41062579Y-63242915D01*
X41227248Y-63189411D01*
X41381523Y-63110804D01*
X41381530Y-63110800D01*
X41387736Y-63106290D01*
X40934408Y-62652962D01*
X40997993Y-62635925D01*
X41112007Y-62570099D01*
X41205099Y-62477007D01*
X41270925Y-62362993D01*
X41287962Y-62299408D01*
X41741290Y-62752736D01*
X41745800Y-62746530D01*
X41745804Y-62746523D01*
X41824411Y-62592248D01*
X41877915Y-62427579D01*
X41905000Y-62256575D01*
X41905000Y-62083424D01*
X41877915Y-61912420D01*
X41824411Y-61747751D01*
X41745804Y-61593475D01*
X41745800Y-61593469D01*
X41741290Y-61587262D01*
X41741289Y-61587262D01*
X41287962Y-62040589D01*
X41270925Y-61977007D01*
X41205099Y-61862993D01*
X41112007Y-61769901D01*
X40997993Y-61704075D01*
X40934407Y-61687036D01*
X41387736Y-61233708D01*
X41381524Y-61229196D01*
X41227248Y-61150588D01*
X41062579Y-61097084D01*
X40891575Y-61070000D01*
X40718425Y-61070000D01*
X40547420Y-61097084D01*
X40382751Y-61150588D01*
X40228478Y-61229194D01*
X40222262Y-61233708D01*
X40675591Y-61687037D01*
X40612007Y-61704075D01*
X40497993Y-61769901D01*
X40404901Y-61862993D01*
X40339075Y-61977007D01*
X40322037Y-62040591D01*
X39868708Y-61587262D01*
X39864194Y-61593478D01*
X39785588Y-61747751D01*
X39732084Y-61912420D01*
X39705000Y-62083424D01*
X39267500Y-62083424D01*
X39267500Y-59049525D01*
X47566500Y-59049525D01*
X47566500Y-59194474D01*
X47604017Y-59334489D01*
X47676487Y-59460010D01*
X47676489Y-59460012D01*
X47676491Y-59460015D01*
X47778985Y-59562509D01*
X47778987Y-59562510D01*
X47778989Y-59562512D01*
X47904511Y-59634982D01*
X47904512Y-59634982D01*
X47904515Y-59634984D01*
X48044525Y-59672500D01*
X48044526Y-59672500D01*
X48195964Y-59672500D01*
X48195964Y-59674187D01*
X48248103Y-59683845D01*
X48270878Y-59700849D01*
X49854239Y-61284210D01*
X49879861Y-61328589D01*
X49890016Y-61366486D01*
X49890017Y-61366488D01*
X49962487Y-61492010D01*
X49962489Y-61492012D01*
X49962491Y-61492015D01*
X50064985Y-61594509D01*
X50064987Y-61594510D01*
X50064989Y-61594512D01*
X50190511Y-61666982D01*
X50190512Y-61666982D01*
X50190515Y-61666984D01*
X50330525Y-61704500D01*
X50330526Y-61704500D01*
X50475474Y-61704500D01*
X50475475Y-61704500D01*
X50615485Y-61666984D01*
X50615487Y-61666982D01*
X50615489Y-61666982D01*
X50741010Y-61594512D01*
X50741010Y-61594511D01*
X50741015Y-61594509D01*
X50843509Y-61492015D01*
X50915984Y-61366485D01*
X50953500Y-61226475D01*
X50953500Y-61081525D01*
X50915984Y-60941515D01*
X50915982Y-60941512D01*
X50915982Y-60941510D01*
X50843512Y-60815989D01*
X50843510Y-60815987D01*
X50843509Y-60815985D01*
X50741015Y-60713491D01*
X50741012Y-60713489D01*
X50741010Y-60713487D01*
X50615488Y-60641017D01*
X50615489Y-60641017D01*
X50585896Y-60633087D01*
X50475475Y-60603500D01*
X50330525Y-60603500D01*
X50283855Y-60616005D01*
X50190513Y-60641016D01*
X50174185Y-60650444D01*
X50114337Y-60663165D01*
X50058441Y-60638278D01*
X50054682Y-60634711D01*
X48695849Y-59275878D01*
X48668072Y-59221361D01*
X48667806Y-59200964D01*
X48667500Y-59200964D01*
X48667500Y-59049525D01*
X48629984Y-58909515D01*
X48629982Y-58909512D01*
X48629982Y-58909510D01*
X48557512Y-58783989D01*
X48557510Y-58783987D01*
X48557509Y-58783985D01*
X48455015Y-58681491D01*
X48455012Y-58681489D01*
X48455010Y-58681487D01*
X48329488Y-58609017D01*
X48329489Y-58609017D01*
X48299896Y-58601087D01*
X48189475Y-58571500D01*
X48044525Y-58571500D01*
X47982790Y-58588041D01*
X47904510Y-58609017D01*
X47778989Y-58681487D01*
X47676487Y-58783989D01*
X47604017Y-58909510D01*
X47566500Y-59049525D01*
X39267500Y-59049525D01*
X39267500Y-55492128D01*
X41977103Y-55492128D01*
X41977103Y-55637078D01*
X41999484Y-55720604D01*
X42014620Y-55777092D01*
X42087090Y-55902613D01*
X42087092Y-55902615D01*
X42087094Y-55902618D01*
X42189588Y-56005112D01*
X42189590Y-56005113D01*
X42189592Y-56005115D01*
X42315114Y-56077585D01*
X42315115Y-56077585D01*
X42315118Y-56077587D01*
X42455128Y-56115103D01*
X42455129Y-56115103D01*
X42606567Y-56115103D01*
X42606567Y-56116790D01*
X42658706Y-56126448D01*
X42681481Y-56143452D01*
X43206170Y-56668141D01*
X43233947Y-56722658D01*
X43224376Y-56783090D01*
X43221902Y-56787645D01*
X43170017Y-56877510D01*
X43132500Y-57017525D01*
X43132500Y-57162474D01*
X43170017Y-57302489D01*
X43242487Y-57428010D01*
X43242489Y-57428012D01*
X43242491Y-57428015D01*
X43344985Y-57530509D01*
X43344987Y-57530510D01*
X43344989Y-57530512D01*
X43470511Y-57602982D01*
X43470512Y-57602982D01*
X43470515Y-57602984D01*
X43610525Y-57640500D01*
X43610526Y-57640500D01*
X43755474Y-57640500D01*
X43755475Y-57640500D01*
X43895485Y-57602984D01*
X43895487Y-57602982D01*
X43895489Y-57602982D01*
X44021010Y-57530512D01*
X44021010Y-57530511D01*
X44021015Y-57530509D01*
X44123509Y-57428015D01*
X44195984Y-57302485D01*
X44233500Y-57162475D01*
X44233500Y-57017525D01*
X44195984Y-56877515D01*
X44195982Y-56877512D01*
X44195982Y-56877510D01*
X44123512Y-56751989D01*
X44123510Y-56751987D01*
X44123509Y-56751985D01*
X44021015Y-56649491D01*
X43996381Y-56635268D01*
X43960148Y-56599035D01*
X43923460Y-56535489D01*
X43923457Y-56535486D01*
X43867511Y-56479539D01*
X43867511Y-56479540D01*
X43106452Y-55718481D01*
X43078675Y-55663964D01*
X43078409Y-55643567D01*
X43078103Y-55643567D01*
X43078103Y-55492128D01*
X43058804Y-55420105D01*
X43040587Y-55352118D01*
X43040585Y-55352115D01*
X43040585Y-55352113D01*
X42968115Y-55226592D01*
X42968113Y-55226590D01*
X42968112Y-55226588D01*
X42865618Y-55124094D01*
X42865615Y-55124092D01*
X42865613Y-55124090D01*
X42740091Y-55051620D01*
X42740092Y-55051620D01*
X42710499Y-55043690D01*
X42600078Y-55014103D01*
X42455128Y-55014103D01*
X42393393Y-55030644D01*
X42315113Y-55051620D01*
X42189592Y-55124090D01*
X42087090Y-55226592D01*
X42014620Y-55352113D01*
X41977103Y-55492128D01*
X39267500Y-55492128D01*
X39267500Y-52442731D01*
X45026500Y-52442731D01*
X45026500Y-52587681D01*
X45064016Y-52727691D01*
X45064018Y-52727696D01*
X45066500Y-52733686D01*
X45065333Y-52734169D01*
X45076500Y-52775840D01*
X45076500Y-53707108D01*
X45076500Y-53838892D01*
X45087649Y-53880500D01*
X45110609Y-53966190D01*
X45176496Y-54080309D01*
X45176498Y-54080311D01*
X45176500Y-54080314D01*
X45555505Y-54459319D01*
X45583281Y-54513834D01*
X45584500Y-54529321D01*
X45584500Y-54963949D01*
X45581127Y-54989572D01*
X45579636Y-54995133D01*
X45579636Y-54995135D01*
X45564501Y-55051619D01*
X45542120Y-55135145D01*
X45542120Y-55280094D01*
X45579637Y-55420109D01*
X45652107Y-55545630D01*
X45652109Y-55545632D01*
X45652111Y-55545635D01*
X45754605Y-55648129D01*
X45754607Y-55648130D01*
X45754609Y-55648132D01*
X45880131Y-55720602D01*
X45880132Y-55720602D01*
X45880135Y-55720604D01*
X46020145Y-55758120D01*
X46020146Y-55758120D01*
X46165094Y-55758120D01*
X46165095Y-55758120D01*
X46305105Y-55720604D01*
X46305107Y-55720602D01*
X46305109Y-55720602D01*
X46430630Y-55648132D01*
X46430630Y-55648131D01*
X46430635Y-55648129D01*
X46533129Y-55545635D01*
X46533132Y-55545630D01*
X46605602Y-55420109D01*
X46605602Y-55420107D01*
X46605604Y-55420105D01*
X46643120Y-55280095D01*
X46643120Y-55135145D01*
X46605604Y-54995135D01*
X46600740Y-54986710D01*
X46598762Y-54983283D01*
X46585500Y-54933786D01*
X46585500Y-54215109D01*
X46585500Y-54215108D01*
X46551392Y-54087814D01*
X46551390Y-54087811D01*
X46551390Y-54087809D01*
X46485503Y-53973690D01*
X46485499Y-53973685D01*
X46392314Y-53880499D01*
X46392314Y-53880500D01*
X46106496Y-53594682D01*
X46078719Y-53540165D01*
X46077500Y-53524678D01*
X46077500Y-52775840D01*
X46088666Y-52734169D01*
X46087500Y-52733686D01*
X46089977Y-52727702D01*
X46089984Y-52727691D01*
X46127500Y-52587681D01*
X46127500Y-52442731D01*
X46089984Y-52302721D01*
X46089982Y-52302718D01*
X46089982Y-52302716D01*
X46017512Y-52177195D01*
X46017510Y-52177193D01*
X46017509Y-52177191D01*
X45915015Y-52074697D01*
X45915012Y-52074695D01*
X45915010Y-52074693D01*
X45789488Y-52002223D01*
X45789489Y-52002223D01*
X45759896Y-51994293D01*
X45649475Y-51964706D01*
X45504525Y-51964706D01*
X45442790Y-51981247D01*
X45364510Y-52002223D01*
X45238989Y-52074693D01*
X45136487Y-52177195D01*
X45064017Y-52302716D01*
X45064016Y-52302721D01*
X45026500Y-52442731D01*
X39267500Y-52442731D01*
X39267500Y-40198542D01*
X45233300Y-40198542D01*
X45233300Y-40421457D01*
X45262395Y-40642455D01*
X45262395Y-40642460D01*
X45320090Y-40857782D01*
X45405392Y-41063722D01*
X45405395Y-41063727D01*
X45516850Y-41256771D01*
X45516852Y-41256774D01*
X45652553Y-41433624D01*
X45810176Y-41591247D01*
X45987026Y-41726948D01*
X45987028Y-41726949D01*
X46180072Y-41838404D01*
X46180077Y-41838407D01*
X46347979Y-41907953D01*
X46386019Y-41923710D01*
X46601337Y-41981404D01*
X46822343Y-42010500D01*
X46822344Y-42010500D01*
X47045256Y-42010500D01*
X47045257Y-42010500D01*
X47266263Y-41981404D01*
X47481581Y-41923710D01*
X47611447Y-41869917D01*
X47687522Y-41838407D01*
X47687523Y-41838405D01*
X47687526Y-41838405D01*
X47880574Y-41726948D01*
X48057424Y-41591247D01*
X48215047Y-41433624D01*
X48350748Y-41256774D01*
X48462205Y-41063726D01*
X48521070Y-40921614D01*
X48560807Y-40875089D01*
X48612534Y-40860500D01*
X50255066Y-40860500D01*
X50313257Y-40879407D01*
X50346530Y-40921614D01*
X50405395Y-41063727D01*
X50516850Y-41256771D01*
X50516852Y-41256774D01*
X50652553Y-41433624D01*
X50810176Y-41591247D01*
X50987026Y-41726948D01*
X50987028Y-41726949D01*
X51180072Y-41838404D01*
X51180077Y-41838407D01*
X51347979Y-41907953D01*
X51386019Y-41923710D01*
X51601337Y-41981404D01*
X51822343Y-42010500D01*
X51822344Y-42010500D01*
X52045256Y-42010500D01*
X52045257Y-42010500D01*
X52266263Y-41981404D01*
X52481581Y-41923710D01*
X52611447Y-41869917D01*
X52687522Y-41838407D01*
X52687523Y-41838405D01*
X52687526Y-41838405D01*
X52880574Y-41726948D01*
X53057424Y-41591247D01*
X53215047Y-41433624D01*
X53350748Y-41256774D01*
X53462205Y-41063726D01*
X53547510Y-40857781D01*
X53605204Y-40642463D01*
X53634300Y-40421457D01*
X53634300Y-40198543D01*
X53605204Y-39977537D01*
X53547510Y-39762219D01*
X53521070Y-39698386D01*
X53462207Y-39556277D01*
X53462204Y-39556272D01*
X53350749Y-39363228D01*
X53350748Y-39363226D01*
X53215047Y-39186376D01*
X53057424Y-39028753D01*
X52880574Y-38893052D01*
X52880571Y-38893050D01*
X52687527Y-38781595D01*
X52687522Y-38781592D01*
X52481582Y-38696290D01*
X52386639Y-38670850D01*
X52266263Y-38638596D01*
X52266260Y-38638595D01*
X52266258Y-38638595D01*
X52045257Y-38609500D01*
X51822343Y-38609500D01*
X51822342Y-38609500D01*
X51601344Y-38638595D01*
X51601339Y-38638595D01*
X51386017Y-38696290D01*
X51180077Y-38781592D01*
X51180072Y-38781595D01*
X50987028Y-38893050D01*
X50810179Y-39028750D01*
X50652550Y-39186379D01*
X50516850Y-39363228D01*
X50405395Y-39556272D01*
X50346530Y-39698386D01*
X50306793Y-39744911D01*
X50255066Y-39759500D01*
X48612534Y-39759500D01*
X48554343Y-39740593D01*
X48521070Y-39698386D01*
X48462204Y-39556272D01*
X48350749Y-39363228D01*
X48350748Y-39363226D01*
X48215047Y-39186376D01*
X48057424Y-39028753D01*
X47880574Y-38893052D01*
X47880571Y-38893050D01*
X47687527Y-38781595D01*
X47687522Y-38781592D01*
X47481582Y-38696290D01*
X47386639Y-38670850D01*
X47266263Y-38638596D01*
X47266260Y-38638595D01*
X47266258Y-38638595D01*
X47045257Y-38609500D01*
X46822343Y-38609500D01*
X46822342Y-38609500D01*
X46601344Y-38638595D01*
X46601339Y-38638595D01*
X46386017Y-38696290D01*
X46180077Y-38781592D01*
X46180072Y-38781595D01*
X45987028Y-38893050D01*
X45810179Y-39028750D01*
X45652550Y-39186379D01*
X45516850Y-39363228D01*
X45405395Y-39556272D01*
X45405392Y-39556277D01*
X45320090Y-39762217D01*
X45262395Y-39977539D01*
X45262395Y-39977544D01*
X45233300Y-40198542D01*
X39267500Y-40198542D01*
X39267500Y-34665525D01*
X53002100Y-34665525D01*
X53002100Y-34810475D01*
X53011641Y-34846083D01*
X53039617Y-34950487D01*
X53048748Y-34966303D01*
X53088836Y-35035737D01*
X53102100Y-35085236D01*
X53102100Y-37438761D01*
X53088837Y-37488260D01*
X53039616Y-37573513D01*
X53002100Y-37713525D01*
X53002100Y-37858474D01*
X53039617Y-37998489D01*
X53112087Y-38124010D01*
X53112089Y-38124012D01*
X53112091Y-38124015D01*
X53214585Y-38226509D01*
X53214587Y-38226510D01*
X53214589Y-38226512D01*
X53340111Y-38298982D01*
X53340112Y-38298982D01*
X53340115Y-38298984D01*
X53480125Y-38336500D01*
X53480126Y-38336500D01*
X53625074Y-38336500D01*
X53625075Y-38336500D01*
X53765085Y-38298984D01*
X53765087Y-38298982D01*
X53765089Y-38298982D01*
X53890610Y-38226512D01*
X53890610Y-38226511D01*
X53890615Y-38226509D01*
X53993109Y-38124015D01*
X54065584Y-37998485D01*
X54103100Y-37858475D01*
X54103100Y-37713525D01*
X54065584Y-37573515D01*
X54065583Y-37573513D01*
X54016363Y-37488260D01*
X54003100Y-37438761D01*
X54003100Y-35085236D01*
X54016363Y-35035737D01*
X54065584Y-34950485D01*
X54103100Y-34810475D01*
X54103100Y-34665525D01*
X54065584Y-34525515D01*
X54065582Y-34525512D01*
X54065582Y-34525510D01*
X54041150Y-34483193D01*
X54016318Y-34440182D01*
X54783850Y-34440182D01*
X54783850Y-34585132D01*
X54813437Y-34695553D01*
X54821367Y-34725146D01*
X54893837Y-34850667D01*
X54893839Y-34850669D01*
X54893841Y-34850672D01*
X54996335Y-34953166D01*
X54996337Y-34953167D01*
X54996339Y-34953169D01*
X55121861Y-35025639D01*
X55121862Y-35025639D01*
X55121865Y-35025641D01*
X55261875Y-35063157D01*
X55261876Y-35063157D01*
X55406824Y-35063157D01*
X55406825Y-35063157D01*
X55546835Y-35025641D01*
X55546837Y-35025639D01*
X55546839Y-35025639D01*
X55672360Y-34953169D01*
X55672360Y-34953168D01*
X55672365Y-34953166D01*
X55774859Y-34850672D01*
X55774860Y-34850669D01*
X55779447Y-34846083D01*
X55780640Y-34847276D01*
X55824339Y-34817237D01*
X55852466Y-34813157D01*
X56206227Y-34813157D01*
X56264418Y-34832064D01*
X56279029Y-34846299D01*
X56279246Y-34846083D01*
X56283832Y-34850669D01*
X56283834Y-34850672D01*
X56386328Y-34953166D01*
X56386330Y-34953167D01*
X56386332Y-34953169D01*
X56511854Y-35025639D01*
X56511855Y-35025639D01*
X56511858Y-35025641D01*
X56651868Y-35063157D01*
X56651869Y-35063157D01*
X56796817Y-35063157D01*
X56796818Y-35063157D01*
X56936828Y-35025641D01*
X56936830Y-35025639D01*
X56936832Y-35025639D01*
X57062353Y-34953169D01*
X57062353Y-34953168D01*
X57062358Y-34953166D01*
X57164852Y-34850672D01*
X57167377Y-34846299D01*
X57237325Y-34725146D01*
X57237325Y-34725144D01*
X57237327Y-34725142D01*
X57274843Y-34585132D01*
X57274843Y-34440182D01*
X57237327Y-34300172D01*
X57237325Y-34300169D01*
X57237325Y-34300167D01*
X57164855Y-34174646D01*
X57164853Y-34174644D01*
X57164852Y-34174642D01*
X57062358Y-34072148D01*
X57062355Y-34072146D01*
X57062353Y-34072144D01*
X56936831Y-33999674D01*
X56936832Y-33999674D01*
X56905382Y-33991247D01*
X56796818Y-33962157D01*
X56651868Y-33962157D01*
X56590133Y-33978698D01*
X56511853Y-33999674D01*
X56386332Y-34072144D01*
X56386331Y-34072145D01*
X56386328Y-34072147D01*
X56386328Y-34072148D01*
X56283834Y-34174642D01*
X56283832Y-34174644D01*
X56279246Y-34179231D01*
X56278052Y-34178037D01*
X56234354Y-34208077D01*
X56206227Y-34212157D01*
X55852466Y-34212157D01*
X55794275Y-34193250D01*
X55779663Y-34179014D01*
X55779447Y-34179231D01*
X55774860Y-34174644D01*
X55774859Y-34174642D01*
X55672365Y-34072148D01*
X55672362Y-34072146D01*
X55672360Y-34072144D01*
X55546838Y-33999674D01*
X55546839Y-33999674D01*
X55515389Y-33991247D01*
X55406825Y-33962157D01*
X55261875Y-33962157D01*
X55200140Y-33978698D01*
X55121860Y-33999674D01*
X54996339Y-34072144D01*
X54893837Y-34174646D01*
X54821367Y-34300167D01*
X54821366Y-34300172D01*
X54783850Y-34440182D01*
X54016318Y-34440182D01*
X53993112Y-34399989D01*
X53993110Y-34399987D01*
X53993109Y-34399985D01*
X53890615Y-34297491D01*
X53890612Y-34297489D01*
X53890610Y-34297487D01*
X53765088Y-34225017D01*
X53765089Y-34225017D01*
X53717095Y-34212157D01*
X53625075Y-34187500D01*
X53480125Y-34187500D01*
X53418390Y-34204041D01*
X53340110Y-34225017D01*
X53214589Y-34297487D01*
X53112087Y-34399989D01*
X53039617Y-34525510D01*
X53039616Y-34525515D01*
X53002100Y-34665525D01*
X39267500Y-34665525D01*
X39267500Y-32598542D01*
X47733300Y-32598542D01*
X47733300Y-32821457D01*
X47762395Y-33042455D01*
X47762395Y-33042460D01*
X47820090Y-33257782D01*
X47905392Y-33463722D01*
X47905395Y-33463727D01*
X48016850Y-33656771D01*
X48016852Y-33656774D01*
X48152553Y-33833624D01*
X48310176Y-33991247D01*
X48487026Y-34126948D01*
X48487028Y-34126949D01*
X48680072Y-34238404D01*
X48680077Y-34238407D01*
X48829181Y-34300167D01*
X48886019Y-34323710D01*
X49101337Y-34381404D01*
X49322343Y-34410500D01*
X49322344Y-34410500D01*
X49545256Y-34410500D01*
X49545257Y-34410500D01*
X49766263Y-34381404D01*
X49981581Y-34323710D01*
X50111447Y-34269917D01*
X50187522Y-34238407D01*
X50187523Y-34238405D01*
X50187526Y-34238405D01*
X50380574Y-34126948D01*
X50557424Y-33991247D01*
X50715047Y-33833624D01*
X50850748Y-33656774D01*
X50962205Y-33463726D01*
X51047510Y-33257781D01*
X51105204Y-33042463D01*
X51118960Y-32937978D01*
X51145301Y-32882753D01*
X51199072Y-32853558D01*
X51217113Y-32851900D01*
X52361564Y-32851900D01*
X52411062Y-32865163D01*
X52496315Y-32914384D01*
X52636325Y-32951900D01*
X52636326Y-32951900D01*
X52781274Y-32951900D01*
X52781275Y-32951900D01*
X52921285Y-32914384D01*
X52921287Y-32914382D01*
X52921289Y-32914382D01*
X53046810Y-32841912D01*
X53046810Y-32841911D01*
X53046815Y-32841909D01*
X53149309Y-32739415D01*
X53221784Y-32613885D01*
X53259300Y-32473875D01*
X53259300Y-32328925D01*
X53221784Y-32188915D01*
X53221782Y-32188912D01*
X53221782Y-32188910D01*
X53149312Y-32063389D01*
X53149310Y-32063387D01*
X53149309Y-32063385D01*
X53046815Y-31960891D01*
X53046812Y-31960889D01*
X53046810Y-31960887D01*
X52921288Y-31888417D01*
X52921289Y-31888417D01*
X52891696Y-31880487D01*
X52781275Y-31850900D01*
X52636325Y-31850900D01*
X52496315Y-31888416D01*
X52496314Y-31888416D01*
X52496312Y-31888417D01*
X52473826Y-31901400D01*
X52411062Y-31937636D01*
X52361564Y-31950900D01*
X51016259Y-31950900D01*
X50958068Y-31931993D01*
X50930524Y-31901403D01*
X50850748Y-31763226D01*
X50715047Y-31586376D01*
X50557424Y-31428753D01*
X50380574Y-31293052D01*
X50380571Y-31293050D01*
X50187527Y-31181595D01*
X50187522Y-31181592D01*
X49981582Y-31096290D01*
X49886639Y-31070850D01*
X49766263Y-31038596D01*
X49766260Y-31038595D01*
X49766258Y-31038595D01*
X49545257Y-31009500D01*
X49322343Y-31009500D01*
X49322342Y-31009500D01*
X49101344Y-31038595D01*
X49101339Y-31038595D01*
X48886017Y-31096290D01*
X48680077Y-31181592D01*
X48680072Y-31181595D01*
X48487028Y-31293050D01*
X48310179Y-31428750D01*
X48152550Y-31586379D01*
X48016850Y-31763228D01*
X47905395Y-31956272D01*
X47905392Y-31956277D01*
X47820090Y-32162217D01*
X47762395Y-32377539D01*
X47762395Y-32377544D01*
X47733300Y-32598542D01*
X39267500Y-32598542D01*
X39267500Y-28424128D01*
X44363800Y-28424128D01*
X44363800Y-28597999D01*
X44363801Y-28598000D01*
X44863799Y-28598000D01*
X44863800Y-28597999D01*
X44863800Y-29098001D01*
X44863799Y-29098000D01*
X44363801Y-29098000D01*
X44363800Y-29098001D01*
X44363800Y-29271871D01*
X44392621Y-29416764D01*
X44392623Y-29416770D01*
X44449158Y-29553257D01*
X44531234Y-29676093D01*
X44635706Y-29780565D01*
X44758544Y-29862642D01*
X44863799Y-29906240D01*
X44863800Y-29906239D01*
X44863800Y-29247728D01*
X44901860Y-29339614D01*
X44972186Y-29409940D01*
X45064072Y-29448000D01*
X45163528Y-29448000D01*
X45255414Y-29409940D01*
X45325740Y-29339614D01*
X45363800Y-29247728D01*
X45363800Y-29906240D01*
X45469055Y-29862642D01*
X45591893Y-29780565D01*
X45696365Y-29676093D01*
X45778441Y-29553257D01*
X45834976Y-29416770D01*
X45834978Y-29416764D01*
X45863799Y-29271871D01*
X45863800Y-29271867D01*
X45863800Y-29098001D01*
X45863799Y-29098000D01*
X45363801Y-29098000D01*
X45363800Y-29098001D01*
X45363800Y-28597999D01*
X45363801Y-28598000D01*
X45863799Y-28598000D01*
X45863800Y-28597999D01*
X45863800Y-28424132D01*
X45863799Y-28424128D01*
X53003800Y-28424128D01*
X53003800Y-28597999D01*
X53003801Y-28598000D01*
X53503799Y-28598000D01*
X53503800Y-28597999D01*
X53503800Y-29098001D01*
X53503799Y-29098000D01*
X53003801Y-29098000D01*
X53003800Y-29098001D01*
X53003800Y-29271871D01*
X53032621Y-29416764D01*
X53032623Y-29416770D01*
X53089158Y-29553257D01*
X53171234Y-29676093D01*
X53275706Y-29780565D01*
X53398544Y-29862642D01*
X53503799Y-29906240D01*
X53503800Y-29906239D01*
X53503800Y-29247728D01*
X53541860Y-29339614D01*
X53612186Y-29409940D01*
X53704072Y-29448000D01*
X53803528Y-29448000D01*
X53895414Y-29409940D01*
X53965740Y-29339614D01*
X54003800Y-29247728D01*
X54003800Y-29906240D01*
X54109055Y-29862642D01*
X54231893Y-29780565D01*
X54336365Y-29676093D01*
X54418441Y-29553257D01*
X54474976Y-29416770D01*
X54474978Y-29416764D01*
X54503799Y-29271871D01*
X54503800Y-29271867D01*
X54503800Y-29098001D01*
X54503799Y-29098000D01*
X54003801Y-29098000D01*
X54003800Y-29098001D01*
X54003800Y-28597999D01*
X54003801Y-28598000D01*
X54503799Y-28598000D01*
X54503800Y-28597999D01*
X54503800Y-28424132D01*
X54503799Y-28424128D01*
X54474978Y-28279235D01*
X54474976Y-28279229D01*
X54418441Y-28142742D01*
X54336365Y-28019906D01*
X54231890Y-27915431D01*
X54109070Y-27833365D01*
X54109056Y-27833358D01*
X54003800Y-27789758D01*
X54003800Y-28448272D01*
X53965740Y-28356386D01*
X53895414Y-28286060D01*
X53803528Y-28248000D01*
X53704072Y-28248000D01*
X53612186Y-28286060D01*
X53541860Y-28356386D01*
X53503800Y-28448272D01*
X53503800Y-27789759D01*
X53503799Y-27789758D01*
X53398543Y-27833358D01*
X53398529Y-27833365D01*
X53275709Y-27915431D01*
X53171234Y-28019906D01*
X53089158Y-28142742D01*
X53032623Y-28279229D01*
X53032621Y-28279235D01*
X53003800Y-28424128D01*
X45863799Y-28424128D01*
X45834978Y-28279235D01*
X45834976Y-28279229D01*
X45778441Y-28142742D01*
X45696365Y-28019906D01*
X45591890Y-27915431D01*
X45469070Y-27833365D01*
X45469056Y-27833358D01*
X45379479Y-27796253D01*
X45363800Y-27802797D01*
X45363800Y-28448272D01*
X45325740Y-28356386D01*
X45255414Y-28286060D01*
X45163528Y-28248000D01*
X45064072Y-28248000D01*
X44972186Y-28286060D01*
X44901860Y-28356386D01*
X44863800Y-28448272D01*
X44863800Y-27789759D01*
X44863799Y-27789758D01*
X44758543Y-27833358D01*
X44758529Y-27833365D01*
X44635709Y-27915431D01*
X44531234Y-28019906D01*
X44449158Y-28142742D01*
X44392623Y-28279229D01*
X44392621Y-28279235D01*
X44363800Y-28424128D01*
X39267500Y-28424128D01*
X39267500Y-27695525D01*
X47312500Y-27695525D01*
X47312500Y-27840474D01*
X47350017Y-27980489D01*
X47422487Y-28106010D01*
X47422489Y-28106012D01*
X47422491Y-28106015D01*
X47524985Y-28208509D01*
X47524987Y-28208510D01*
X47524989Y-28208512D01*
X47650511Y-28280982D01*
X47650512Y-28280982D01*
X47650515Y-28280984D01*
X47790525Y-28318500D01*
X47790526Y-28318500D01*
X47935474Y-28318500D01*
X47935475Y-28318500D01*
X48075485Y-28280984D01*
X48075487Y-28280982D01*
X48075489Y-28280982D01*
X48201010Y-28208512D01*
X48201010Y-28208511D01*
X48201015Y-28208509D01*
X48266782Y-28142742D01*
X48304029Y-28105496D01*
X48358545Y-28077719D01*
X48374032Y-28076500D01*
X50442768Y-28076500D01*
X50500959Y-28095407D01*
X50512771Y-28105496D01*
X50615784Y-28208508D01*
X50615789Y-28208512D01*
X50741311Y-28280982D01*
X50741312Y-28280982D01*
X50741315Y-28280984D01*
X50881325Y-28318500D01*
X50881326Y-28318500D01*
X51026274Y-28318500D01*
X51026275Y-28318500D01*
X51166285Y-28280984D01*
X51166287Y-28280982D01*
X51166289Y-28280982D01*
X51291810Y-28208512D01*
X51291810Y-28208511D01*
X51291815Y-28208509D01*
X51394309Y-28106015D01*
X51466784Y-27980485D01*
X51504300Y-27840475D01*
X51504300Y-27695525D01*
X51466784Y-27555515D01*
X51466782Y-27555512D01*
X51466782Y-27555510D01*
X51394312Y-27429989D01*
X51394310Y-27429987D01*
X51394309Y-27429985D01*
X51291815Y-27327491D01*
X51291812Y-27327489D01*
X51291810Y-27327487D01*
X51166288Y-27255017D01*
X51166289Y-27255017D01*
X51026272Y-27217499D01*
X51019842Y-27216653D01*
X51020141Y-27214379D01*
X50992404Y-27206947D01*
X50991685Y-27208685D01*
X50985686Y-27206200D01*
X50961473Y-27199712D01*
X50961473Y-27199713D01*
X50871109Y-27175500D01*
X47945691Y-27175500D01*
X47875567Y-27194289D01*
X47831109Y-27206202D01*
X47825116Y-27208685D01*
X47824396Y-27206947D01*
X47796658Y-27214380D01*
X47796958Y-27216653D01*
X47790527Y-27217499D01*
X47650510Y-27255017D01*
X47524989Y-27327487D01*
X47422487Y-27429989D01*
X47350017Y-27555510D01*
X47312500Y-27695525D01*
X39267500Y-27695525D01*
X39267500Y-26564984D01*
X39267681Y-26559007D01*
X39285362Y-26266696D01*
X39285363Y-26266695D01*
X39285362Y-26266688D01*
X39286801Y-26254837D01*
X39339052Y-25969714D01*
X39341912Y-25958113D01*
X39428148Y-25681370D01*
X39432378Y-25670218D01*
X39551350Y-25405873D01*
X39556899Y-25395302D01*
X39706861Y-25147233D01*
X39713632Y-25137423D01*
X39892406Y-24909235D01*
X39900318Y-24900303D01*
X40105303Y-24695318D01*
X40114235Y-24687406D01*
X40342423Y-24508632D01*
X40352233Y-24501861D01*
X40600302Y-24351899D01*
X40610873Y-24346350D01*
X40875218Y-24227378D01*
X40886370Y-24223148D01*
X41163120Y-24136910D01*
X41174714Y-24134052D01*
X41459837Y-24081801D01*
X41471688Y-24080362D01*
X41764008Y-24062681D01*
X41769985Y-24062500D01*
X41832892Y-24062500D01*
X44451194Y-24062500D01*
X44509385Y-24081407D01*
G37*
%TD.AperFunction*%
%TD*%
M02*
