%TF.GenerationSoftware,KiCad,Pcbnew,9.0.6*%
%TF.CreationDate,2026-01-18T22:32:41-05:00*%
%TF.ProjectId,Photon,50686f74-6f6e-42e6-9b69-6361645f7063,1.3*%
%TF.SameCoordinates,Original*%
%TF.FileFunction,Copper,L2,Bot*%
%TF.FilePolarity,Positive*%
%FSLAX46Y46*%
G04 Gerber Fmt 4.6, Leading zero omitted, Abs format (unit mm)*
G04 Created by KiCad (PCBNEW 9.0.6) date 2026-01-18 22:32:41*
%MOMM*%
%LPD*%
G01*
G04 APERTURE LIST*
%TA.AperFunction,ComponentPad*%
%ADD10R,1.700000X1.700000*%
%TD*%
%TA.AperFunction,ComponentPad*%
%ADD11C,1.700000*%
%TD*%
%TA.AperFunction,HeatsinkPad*%
%ADD12O,1.700000X1.000000*%
%TD*%
%TA.AperFunction,ComponentPad*%
%ADD13C,3.000000*%
%TD*%
%TA.AperFunction,ViaPad*%
%ADD14C,0.700000*%
%TD*%
%TA.AperFunction,Conductor*%
%ADD15C,0.200000*%
%TD*%
%TA.AperFunction,Conductor*%
%ADD16C,0.300000*%
%TD*%
%TA.AperFunction,Conductor*%
%ADD17C,0.500000*%
%TD*%
%TA.AperFunction,Conductor*%
%ADD18C,0.600000*%
%TD*%
%TA.AperFunction,Conductor*%
%ADD19C,0.700000*%
%TD*%
G04 APERTURE END LIST*
D10*
%TO.P,J2,1,Pin_1*%
%TO.N,GND*%
X90187000Y-49761000D03*
D11*
%TO.P,J2,2,Pin_2*%
%TO.N,/SWC*%
X92727000Y-50161000D03*
%TO.P,J2,3,Pin_3*%
%TO.N,/SWD*%
X95267000Y-49761000D03*
%TO.P,J2,4,Pin_4*%
%TO.N,/NRST*%
X97807000Y-50161000D03*
%TO.P,J2,5,Pin_5*%
%TO.N,+3V3*%
X100347000Y-49761000D03*
%TD*%
D12*
%TO.P,J1,S1,SHIELD*%
%TO.N,GND*%
X133669000Y-62709800D03*
X137469000Y-62709800D03*
X133669000Y-54069800D03*
X137469000Y-54069800D03*
%TD*%
D13*
%TO.P,BT1,1,+*%
%TO.N,+BATT*%
X129807000Y-58389800D03*
X122207000Y-60889800D03*
X122207000Y-55889800D03*
%TO.P,BT1,2,-*%
%TO.N,/Bat-*%
X76207000Y-60889800D03*
X76207000Y-55889800D03*
X68607000Y-58389800D03*
%TD*%
D14*
%TO.N,GND*%
X126509000Y-48945000D03*
X104792000Y-54660000D03*
X134749000Y-61137000D03*
X105935000Y-67995000D03*
X100347000Y-59359000D03*
X107459000Y-57327000D03*
X131843000Y-62661000D03*
X76725000Y-65201000D03*
X99331000Y-63169000D03*
X97045000Y-62153000D03*
X107459000Y-56057000D03*
X124731000Y-66217000D03*
X78503000Y-50723000D03*
X80027000Y-53403500D03*
X115587000Y-67995000D03*
X136161000Y-49199000D03*
X92981000Y-67995000D03*
X74693000Y-49453000D03*
X94378000Y-53009000D03*
X134749000Y-55639800D03*
X125493000Y-53517000D03*
X92727000Y-60883000D03*
X70883000Y-67487000D03*
X134637000Y-49199000D03*
X126360600Y-58389800D03*
X120403000Y-52755000D03*
X79265000Y-67995000D03*
X131843000Y-54025000D03*
X85361000Y-63169000D03*
X137431000Y-58343000D03*
X76979000Y-58389800D03*
X128033000Y-48945000D03*
X85361000Y-65963000D03*
X81551000Y-58089000D03*
X108983000Y-57835000D03*
X96029000Y-66471000D03*
X103395000Y-54660000D03*
X66565000Y-53771000D03*
X113284000Y-53086000D03*
X107967000Y-60375000D03*
X88409000Y-49961000D03*
X108729000Y-52501000D03*
X119397000Y-49961000D03*
X106951000Y-49453000D03*
X66819000Y-63931000D03*
X103141000Y-60883000D03*
X108983000Y-56311000D03*
X107459000Y-58597000D03*
X79265000Y-61899000D03*
X73588200Y-62274500D03*
X108983000Y-59359000D03*
%TO.N,/NRST*%
X97470000Y-52672000D03*
%TO.N,/LED2_EN*%
X84218000Y-53150116D03*
X84218000Y-51347000D03*
%TO.N,/LED1_EN*%
X105427000Y-52639000D03*
X106952397Y-51483603D03*
%TO.N,/SWC*%
X92727000Y-52755000D03*
%TO.N,+3V3*%
X98681020Y-52639000D03*
X94949461Y-58152539D03*
X96155232Y-56946766D03*
%TO.N,/SWD*%
X96112000Y-52672000D03*
%TO.N,5V*%
X134749000Y-59909800D03*
X134749000Y-56819000D03*
%TO.N,+BATT*%
X127779000Y-62508600D03*
X130115600Y-61664800D03*
X124731000Y-62508600D03*
%TO.N,/VBAT_SYS*%
X103395000Y-57073000D03*
X107309380Y-55048620D03*
X110001794Y-54533000D03*
X101363000Y-59359000D03*
%TO.N,/VM*%
X73461000Y-58389800D03*
X71861000Y-58389800D03*
%TO.N,/CHRG*%
X128004343Y-64290350D03*
X128004343Y-65680343D03*
%TO.N,/BTN*%
X95190781Y-55879219D03*
X94183935Y-57394065D03*
%TD*%
D15*
%TO.N,/NRST*%
X97470000Y-52672000D02*
X97553000Y-52589000D01*
X97553000Y-52589000D02*
X97553000Y-51993000D01*
X97553000Y-51993000D02*
X97807000Y-51739000D01*
X97807000Y-51739000D02*
X97807000Y-50161000D01*
%TO.N,/LED2_EN*%
X84345000Y-53150116D02*
X84469000Y-53150116D01*
X84218000Y-53150116D02*
X84218000Y-51347000D01*
%TO.N,/LED1_EN*%
X106952397Y-51483603D02*
X105797000Y-52639000D01*
X105797000Y-52639000D02*
X105427000Y-52639000D01*
%TO.N,/SWC*%
X92727000Y-52755000D02*
X92727000Y-50161000D01*
D16*
%TO.N,+3V3*%
X98681020Y-52639000D02*
X98681020Y-51626980D01*
X94949461Y-58152537D02*
X96155232Y-56946766D01*
X98681020Y-51626980D02*
X100347000Y-49961000D01*
X94949461Y-58152539D02*
X94949461Y-58152537D01*
D15*
%TO.N,/SWD*%
X95267000Y-51827000D02*
X95267000Y-49961000D01*
X96112000Y-52672000D02*
X95267000Y-51827000D01*
D17*
%TO.N,5V*%
X134891000Y-56961000D02*
X134749000Y-56819000D01*
X134749000Y-59909800D02*
X134891000Y-59767800D01*
X134891000Y-59767800D02*
X134891000Y-56961000D01*
D18*
%TO.N,+BATT*%
X130115600Y-59081200D02*
X130807000Y-58389800D01*
D17*
X130115600Y-61664800D02*
X130115600Y-58698400D01*
D19*
X122207000Y-55889800D02*
X122207000Y-60889800D01*
D17*
X130115600Y-58698400D02*
X129807000Y-58389800D01*
X124731000Y-62508600D02*
X127779000Y-62508600D01*
D18*
%TO.N,/VBAT_SYS*%
X107317000Y-55041000D02*
X107309380Y-55048620D01*
D15*
X101363000Y-59105000D02*
X103395000Y-57073000D01*
D18*
X108236000Y-55041000D02*
X107317000Y-55041000D01*
D15*
X101363000Y-59359000D02*
X101363000Y-59105000D01*
D18*
X108744000Y-54533000D02*
X108236000Y-55041000D01*
X110001794Y-54533000D02*
X108744000Y-54533000D01*
D15*
%TO.N,/VM*%
X73461000Y-58389800D02*
X71861000Y-58389800D01*
%TO.N,/CHRG*%
X128004343Y-65680343D02*
X128004343Y-64290350D01*
%TO.N,/BTN*%
X95190781Y-55879219D02*
X94759000Y-56311000D01*
X94759000Y-56311000D02*
X94759000Y-56819000D01*
X94759000Y-56819000D02*
X94183935Y-57394065D01*
%TD*%
%TA.AperFunction,Conductor*%
%TO.N,GND*%
G36*
X135957992Y-48223681D02*
G01*
X136250309Y-48241362D01*
X136262164Y-48242802D01*
X136547281Y-48295051D01*
X136558883Y-48297911D01*
X136835623Y-48384147D01*
X136846786Y-48388380D01*
X137111119Y-48507347D01*
X137121704Y-48512903D01*
X137369752Y-48662853D01*
X137379583Y-48669638D01*
X137584344Y-48830058D01*
X137607755Y-48848399D01*
X137616704Y-48856326D01*
X137821673Y-49061295D01*
X137829600Y-49070244D01*
X138008358Y-49298413D01*
X138015145Y-49308245D01*
X138037376Y-49345020D01*
X138165096Y-49556295D01*
X138170652Y-49566880D01*
X138289616Y-49831206D01*
X138293855Y-49842384D01*
X138380087Y-50119113D01*
X138382948Y-50130721D01*
X138435196Y-50415828D01*
X138436637Y-50427695D01*
X138454319Y-50720006D01*
X138454500Y-50725984D01*
X138454500Y-53407194D01*
X138435593Y-53465385D01*
X138386093Y-53501349D01*
X138324907Y-53501349D01*
X138300499Y-53489510D01*
X138174257Y-53405158D01*
X138037770Y-53348623D01*
X138037764Y-53348621D01*
X137892871Y-53319800D01*
X137719001Y-53319800D01*
X137719000Y-53319801D01*
X137719000Y-53819800D01*
X137218999Y-53819800D01*
X137219000Y-53819799D01*
X137219000Y-53319801D01*
X137218999Y-53319800D01*
X137045128Y-53319800D01*
X136900235Y-53348621D01*
X136900229Y-53348623D01*
X136763742Y-53405158D01*
X136640906Y-53487234D01*
X136536431Y-53591709D01*
X136454365Y-53714529D01*
X136454358Y-53714543D01*
X136410758Y-53819799D01*
X136410759Y-53819800D01*
X137069272Y-53819800D01*
X136977386Y-53857860D01*
X136907060Y-53928186D01*
X136869000Y-54020072D01*
X136869000Y-54119528D01*
X136907060Y-54211414D01*
X136977386Y-54281740D01*
X137069272Y-54319800D01*
X136410759Y-54319800D01*
X136454358Y-54425056D01*
X136454365Y-54425070D01*
X136536431Y-54547890D01*
X136640906Y-54652365D01*
X136763742Y-54734441D01*
X136900229Y-54790976D01*
X136900235Y-54790978D01*
X137045128Y-54819799D01*
X137045132Y-54819800D01*
X137218999Y-54819800D01*
X137219000Y-54819799D01*
X137219000Y-54319801D01*
X137218999Y-54319800D01*
X137719000Y-54319800D01*
X137719000Y-54819799D01*
X137719001Y-54819800D01*
X137892868Y-54819800D01*
X137892871Y-54819799D01*
X138037764Y-54790978D01*
X138037770Y-54790976D01*
X138174258Y-54734440D01*
X138300498Y-54650090D01*
X138359387Y-54633481D01*
X138416790Y-54654659D01*
X138450783Y-54705532D01*
X138454500Y-54732405D01*
X138454500Y-62047194D01*
X138435593Y-62105385D01*
X138386093Y-62141349D01*
X138324907Y-62141349D01*
X138300499Y-62129510D01*
X138174257Y-62045158D01*
X138037770Y-61988623D01*
X138037764Y-61988621D01*
X137892871Y-61959800D01*
X137719001Y-61959800D01*
X137719000Y-61959801D01*
X137719000Y-62459800D01*
X137218999Y-62459800D01*
X137219000Y-62459799D01*
X137219000Y-61959801D01*
X137218999Y-61959800D01*
X137045128Y-61959800D01*
X136900235Y-61988621D01*
X136900229Y-61988623D01*
X136763742Y-62045158D01*
X136640906Y-62127234D01*
X136536431Y-62231709D01*
X136454365Y-62354529D01*
X136454358Y-62354543D01*
X136410758Y-62459799D01*
X136410759Y-62459800D01*
X137069272Y-62459800D01*
X136977386Y-62497860D01*
X136907060Y-62568186D01*
X136869000Y-62660072D01*
X136869000Y-62759528D01*
X136907060Y-62851414D01*
X136977386Y-62921740D01*
X137069272Y-62959800D01*
X136410759Y-62959800D01*
X136454358Y-63065056D01*
X136454365Y-63065070D01*
X136536431Y-63187890D01*
X136640906Y-63292365D01*
X136763742Y-63374441D01*
X136900229Y-63430976D01*
X136900235Y-63430978D01*
X137045128Y-63459799D01*
X137045132Y-63459800D01*
X137218999Y-63459800D01*
X137219000Y-63459799D01*
X137219000Y-62959801D01*
X137218999Y-62959800D01*
X137719000Y-62959800D01*
X137719000Y-63459799D01*
X137719001Y-63459800D01*
X137892868Y-63459800D01*
X137892871Y-63459799D01*
X138037764Y-63430978D01*
X138037770Y-63430976D01*
X138174258Y-63374440D01*
X138300498Y-63290090D01*
X138359387Y-63273481D01*
X138416790Y-63294659D01*
X138450783Y-63345532D01*
X138454500Y-63372405D01*
X138454500Y-65960015D01*
X138454319Y-65965993D01*
X138436637Y-66258304D01*
X138435196Y-66270171D01*
X138382948Y-66555278D01*
X138380087Y-66566886D01*
X138293855Y-66843615D01*
X138289616Y-66854793D01*
X138170652Y-67119119D01*
X138165096Y-67129704D01*
X138015147Y-67377751D01*
X138008356Y-67387590D01*
X137829600Y-67615755D01*
X137821673Y-67624704D01*
X137616704Y-67829673D01*
X137607755Y-67837600D01*
X137379590Y-68016356D01*
X137369751Y-68023147D01*
X137121704Y-68173096D01*
X137111119Y-68178652D01*
X136846793Y-68297616D01*
X136835615Y-68301855D01*
X136558886Y-68388087D01*
X136547278Y-68390948D01*
X136262171Y-68443196D01*
X136250304Y-68444637D01*
X135978993Y-68461048D01*
X135957991Y-68462319D01*
X135952015Y-68462500D01*
X67535985Y-68462500D01*
X67530008Y-68462319D01*
X67506564Y-68460900D01*
X67237695Y-68444637D01*
X67225828Y-68443196D01*
X66940721Y-68390948D01*
X66929113Y-68388087D01*
X66652384Y-68301855D01*
X66641206Y-68297616D01*
X66376880Y-68178652D01*
X66366295Y-68173096D01*
X66118248Y-68023147D01*
X66108413Y-68016358D01*
X65880244Y-67837600D01*
X65871295Y-67829673D01*
X65666326Y-67624704D01*
X65658399Y-67615755D01*
X65479638Y-67387583D01*
X65472856Y-67377758D01*
X65322903Y-67129704D01*
X65317347Y-67119119D01*
X65198383Y-66854793D01*
X65194147Y-66843623D01*
X65107911Y-66566883D01*
X65105051Y-66555278D01*
X65052803Y-66270171D01*
X65051362Y-66258303D01*
X65036848Y-66018358D01*
X65033682Y-65966008D01*
X65033501Y-65960031D01*
X65033501Y-64217875D01*
X127453843Y-64217875D01*
X127453843Y-64362827D01*
X127470478Y-64424914D01*
X127471596Y-64429089D01*
X127474609Y-64446135D01*
X127479602Y-64458964D01*
X127481003Y-64464192D01*
X127481006Y-64464202D01*
X127491357Y-64502831D01*
X127491358Y-64502833D01*
X127503910Y-64524573D01*
X127510430Y-64538162D01*
X127670515Y-64949434D01*
X127674004Y-65010520D01*
X127670515Y-65021255D01*
X127510430Y-65432529D01*
X127507687Y-65439577D01*
X127491359Y-65467858D01*
X127479607Y-65511709D01*
X127477644Y-65516755D01*
X127477644Y-65516757D01*
X127474603Y-65524571D01*
X127468934Y-65541216D01*
X127468930Y-65541227D01*
X127468926Y-65541241D01*
X127468818Y-65541610D01*
X127468351Y-65543199D01*
X127466701Y-65549154D01*
X127466682Y-65549797D01*
X127463356Y-65572360D01*
X127453843Y-65607864D01*
X127453843Y-65752817D01*
X127491360Y-65892832D01*
X127563830Y-66018353D01*
X127563832Y-66018355D01*
X127563834Y-66018358D01*
X127666328Y-66120852D01*
X127666330Y-66120853D01*
X127666332Y-66120855D01*
X127791854Y-66193325D01*
X127791855Y-66193325D01*
X127791858Y-66193327D01*
X127931868Y-66230843D01*
X127931869Y-66230843D01*
X128076817Y-66230843D01*
X128076818Y-66230843D01*
X128216828Y-66193327D01*
X128216830Y-66193325D01*
X128216832Y-66193325D01*
X128342353Y-66120855D01*
X128342353Y-66120854D01*
X128342358Y-66120852D01*
X128444852Y-66018358D01*
X128444855Y-66018353D01*
X128517325Y-65892832D01*
X128517325Y-65892830D01*
X128517327Y-65892828D01*
X128554843Y-65752818D01*
X128554843Y-65607868D01*
X128537089Y-65541610D01*
X128534076Y-65524557D01*
X128529081Y-65511725D01*
X128527678Y-65506488D01*
X128527678Y-65506486D01*
X128517327Y-65467859D01*
X128517327Y-65467858D01*
X128504770Y-65446109D01*
X128498255Y-65432531D01*
X128338169Y-65021256D01*
X128334680Y-64960170D01*
X128338166Y-64949442D01*
X128500995Y-64531122D01*
X128517327Y-64502835D01*
X128529082Y-64458964D01*
X128534076Y-64446135D01*
X128539759Y-64429451D01*
X128540325Y-64427522D01*
X128541983Y-64421539D01*
X128542002Y-64420908D01*
X128545328Y-64398334D01*
X128554843Y-64362824D01*
X128554843Y-64217875D01*
X128517327Y-64077865D01*
X128517325Y-64077862D01*
X128517325Y-64077860D01*
X128444855Y-63952339D01*
X128444853Y-63952337D01*
X128444852Y-63952335D01*
X128342358Y-63849841D01*
X128342355Y-63849839D01*
X128342353Y-63849837D01*
X128216831Y-63777367D01*
X128216832Y-63777367D01*
X128187239Y-63769437D01*
X128076818Y-63739850D01*
X127931868Y-63739850D01*
X127870133Y-63756391D01*
X127791853Y-63777367D01*
X127666332Y-63849837D01*
X127563830Y-63952339D01*
X127491360Y-64077860D01*
X127453843Y-64217875D01*
X65033501Y-64217875D01*
X65033501Y-60778342D01*
X74506500Y-60778342D01*
X74506500Y-61001257D01*
X74535595Y-61222255D01*
X74535595Y-61222260D01*
X74593290Y-61437582D01*
X74678592Y-61643522D01*
X74678595Y-61643527D01*
X74732721Y-61737275D01*
X74790052Y-61836574D01*
X74925753Y-62013424D01*
X75083376Y-62171047D01*
X75260226Y-62306748D01*
X75260228Y-62306749D01*
X75453272Y-62418204D01*
X75453277Y-62418207D01*
X75553693Y-62459800D01*
X75659219Y-62503510D01*
X75874537Y-62561204D01*
X76095543Y-62590300D01*
X76095544Y-62590300D01*
X76318456Y-62590300D01*
X76318457Y-62590300D01*
X76539463Y-62561204D01*
X76754781Y-62503510D01*
X76884647Y-62449717D01*
X76960722Y-62418207D01*
X76960723Y-62418205D01*
X76960726Y-62418205D01*
X77153774Y-62306748D01*
X77330624Y-62171047D01*
X77488247Y-62013424D01*
X77623948Y-61836574D01*
X77735405Y-61643526D01*
X77756617Y-61592317D01*
X77771996Y-61555188D01*
X77820710Y-61437581D01*
X77878404Y-61222263D01*
X77907500Y-61001257D01*
X77907500Y-60778343D01*
X77878404Y-60557337D01*
X77820710Y-60342019D01*
X77781690Y-60247815D01*
X77735407Y-60136077D01*
X77735404Y-60136072D01*
X77658868Y-60003509D01*
X77623948Y-59943026D01*
X77488247Y-59766176D01*
X77330624Y-59608553D01*
X77153774Y-59472852D01*
X77153771Y-59472850D01*
X76968310Y-59365773D01*
X76968309Y-59365773D01*
X76960722Y-59361392D01*
X76779975Y-59286525D01*
X100812500Y-59286525D01*
X100812500Y-59431474D01*
X100850017Y-59571489D01*
X100922487Y-59697010D01*
X100922489Y-59697012D01*
X100922491Y-59697015D01*
X101024985Y-59799509D01*
X101024987Y-59799510D01*
X101024989Y-59799512D01*
X101150511Y-59871982D01*
X101150512Y-59871982D01*
X101150515Y-59871984D01*
X101290525Y-59909500D01*
X101290526Y-59909500D01*
X101435474Y-59909500D01*
X101435475Y-59909500D01*
X101575485Y-59871984D01*
X101575487Y-59871982D01*
X101575489Y-59871982D01*
X101701010Y-59799512D01*
X101701010Y-59799511D01*
X101701015Y-59799509D01*
X101803509Y-59697015D01*
X101854583Y-59608553D01*
X101875982Y-59571489D01*
X101875982Y-59571487D01*
X101875984Y-59571485D01*
X101913500Y-59431475D01*
X101913500Y-59425125D01*
X101913988Y-59415303D01*
X101928912Y-59265624D01*
X101958803Y-58965839D01*
X101983391Y-58909812D01*
X101987294Y-58905675D01*
X103067759Y-57825210D01*
X103097913Y-57804591D01*
X103575933Y-57594438D01*
X103607485Y-57585984D01*
X103646817Y-57563275D01*
X103659422Y-57557734D01*
X103675343Y-57549897D01*
X103677107Y-57548932D01*
X103682384Y-57545943D01*
X103682845Y-57545509D01*
X103701152Y-57531904D01*
X103733015Y-57513509D01*
X103835509Y-57411015D01*
X103849315Y-57387103D01*
X103907982Y-57285489D01*
X103907982Y-57285487D01*
X103907984Y-57285485D01*
X103945500Y-57145475D01*
X103945500Y-57000525D01*
X103907984Y-56860515D01*
X103907982Y-56860512D01*
X103907982Y-56860510D01*
X103835512Y-56734989D01*
X103835510Y-56734987D01*
X103835509Y-56734985D01*
X103733015Y-56632491D01*
X103733012Y-56632489D01*
X103733010Y-56632487D01*
X103607488Y-56560017D01*
X103607489Y-56560017D01*
X103529441Y-56539104D01*
X103467475Y-56522500D01*
X103322525Y-56522500D01*
X103260790Y-56539041D01*
X103182510Y-56560017D01*
X103056989Y-56632487D01*
X103056984Y-56632491D01*
X102954494Y-56734980D01*
X102954491Y-56734984D01*
X102922348Y-56790653D01*
X102922349Y-56790654D01*
X102920194Y-56794387D01*
X102910266Y-56808576D01*
X102904720Y-56821187D01*
X102902015Y-56825874D01*
X102902012Y-56825880D01*
X102882015Y-56860517D01*
X102875518Y-56884763D01*
X102870520Y-56898981D01*
X102663407Y-57370083D01*
X102642783Y-57400244D01*
X101511440Y-58531587D01*
X101490185Y-58547165D01*
X101490242Y-58547253D01*
X101488654Y-58548287D01*
X101487122Y-58549411D01*
X101486177Y-58549902D01*
X101486168Y-58549908D01*
X101048342Y-58900968D01*
X101046267Y-58902952D01*
X101027376Y-58917110D01*
X101024988Y-58918488D01*
X101024987Y-58918489D01*
X101024985Y-58918490D01*
X101024985Y-58918491D01*
X100922491Y-59020985D01*
X100922490Y-59020987D01*
X100922487Y-59020989D01*
X100850017Y-59146510D01*
X100812500Y-59286525D01*
X76779975Y-59286525D01*
X76754782Y-59276090D01*
X76631895Y-59243163D01*
X76539463Y-59218396D01*
X76539460Y-59218395D01*
X76539458Y-59218395D01*
X76318457Y-59189300D01*
X76095543Y-59189300D01*
X76095542Y-59189300D01*
X75874544Y-59218395D01*
X75874539Y-59218395D01*
X75659217Y-59276090D01*
X75453277Y-59361392D01*
X75453272Y-59361395D01*
X75260228Y-59472850D01*
X75083379Y-59608550D01*
X74925750Y-59766179D01*
X74790050Y-59943028D01*
X74678595Y-60136072D01*
X74678592Y-60136077D01*
X74593290Y-60342017D01*
X74535595Y-60557339D01*
X74535595Y-60557344D01*
X74506500Y-60778342D01*
X65033501Y-60778342D01*
X65033501Y-58278343D01*
X66906500Y-58278343D01*
X66906500Y-58501257D01*
X66912555Y-58547253D01*
X66935595Y-58722255D01*
X66935595Y-58722260D01*
X66993290Y-58937582D01*
X67078592Y-59143522D01*
X67078595Y-59143527D01*
X67185627Y-59328910D01*
X67190052Y-59336574D01*
X67325753Y-59513424D01*
X67483376Y-59671047D01*
X67660226Y-59806748D01*
X67713187Y-59837325D01*
X67853272Y-59918204D01*
X67853277Y-59918207D01*
X68007953Y-59982275D01*
X68059219Y-60003510D01*
X68274537Y-60061204D01*
X68495543Y-60090300D01*
X68495544Y-60090300D01*
X68718456Y-60090300D01*
X68718457Y-60090300D01*
X68939463Y-60061204D01*
X69154781Y-60003510D01*
X69304038Y-59941686D01*
X69360722Y-59918207D01*
X69360723Y-59918205D01*
X69360726Y-59918205D01*
X69553774Y-59806748D01*
X69730624Y-59671047D01*
X69888247Y-59513424D01*
X70023948Y-59336574D01*
X70135405Y-59143526D01*
X70220710Y-58937581D01*
X70278404Y-58722263D01*
X70307500Y-58501257D01*
X70307500Y-58317325D01*
X71310500Y-58317325D01*
X71310500Y-58462275D01*
X71340087Y-58572696D01*
X71348017Y-58602289D01*
X71420487Y-58727810D01*
X71420489Y-58727812D01*
X71420491Y-58727815D01*
X71522985Y-58830309D01*
X71522987Y-58830310D01*
X71522989Y-58830312D01*
X71648511Y-58902782D01*
X71648512Y-58902782D01*
X71648515Y-58902784D01*
X71788525Y-58940300D01*
X71788526Y-58940300D01*
X71933474Y-58940300D01*
X71933475Y-58940300D01*
X71999734Y-58922545D01*
X72016785Y-58919533D01*
X72029614Y-58914539D01*
X72073485Y-58902784D01*
X72095235Y-58890225D01*
X72108813Y-58883711D01*
X72523610Y-58722255D01*
X72588382Y-58697043D01*
X72624292Y-58690300D01*
X72697707Y-58690300D01*
X72733617Y-58697043D01*
X73213185Y-58883711D01*
X73226766Y-58890227D01*
X73248515Y-58902784D01*
X73292382Y-58914538D01*
X73305214Y-58919533D01*
X73321898Y-58925216D01*
X73323827Y-58925782D01*
X73329810Y-58927440D01*
X73341923Y-58927812D01*
X73353011Y-58930784D01*
X73353015Y-58930785D01*
X73388525Y-58940300D01*
X73388526Y-58940300D01*
X73533474Y-58940300D01*
X73533475Y-58940300D01*
X73673485Y-58902784D01*
X73673487Y-58902782D01*
X73673489Y-58902782D01*
X73799010Y-58830312D01*
X73799010Y-58830311D01*
X73799015Y-58830309D01*
X73901509Y-58727815D01*
X73901512Y-58727810D01*
X73973982Y-58602289D01*
X73973982Y-58602287D01*
X73973984Y-58602285D01*
X74011500Y-58462275D01*
X74011500Y-58317325D01*
X73973984Y-58177315D01*
X73973982Y-58177312D01*
X73973982Y-58177310D01*
X73901512Y-58051789D01*
X73901510Y-58051787D01*
X73901509Y-58051785D01*
X73799015Y-57949291D01*
X73799012Y-57949289D01*
X73799010Y-57949287D01*
X73673488Y-57876817D01*
X73673489Y-57876817D01*
X73610974Y-57860066D01*
X73533475Y-57839300D01*
X73388525Y-57839300D01*
X73326431Y-57855936D01*
X73326432Y-57855937D01*
X73322267Y-57857052D01*
X73305214Y-57860066D01*
X73292372Y-57865063D01*
X73287137Y-57866466D01*
X73287136Y-57866465D01*
X73248515Y-57876815D01*
X73248514Y-57876816D01*
X73226777Y-57889365D01*
X73213191Y-57895884D01*
X72733614Y-58082557D01*
X72697703Y-58089300D01*
X72624294Y-58089300D01*
X72588383Y-58082557D01*
X72108810Y-57895885D01*
X72095223Y-57889366D01*
X72095221Y-57889365D01*
X72073485Y-57876816D01*
X72073482Y-57876815D01*
X72034857Y-57866464D01*
X72029622Y-57865062D01*
X72016785Y-57860066D01*
X72000101Y-57854383D01*
X71998172Y-57853817D01*
X71992189Y-57852159D01*
X71980071Y-57851785D01*
X71968977Y-57848812D01*
X71943615Y-57842017D01*
X71933475Y-57839300D01*
X71788525Y-57839300D01*
X71732235Y-57854383D01*
X71648510Y-57876817D01*
X71522989Y-57949287D01*
X71420487Y-58051789D01*
X71348017Y-58177310D01*
X71320945Y-58278343D01*
X71310500Y-58317325D01*
X70307500Y-58317325D01*
X70307500Y-58278343D01*
X70278404Y-58057337D01*
X70220710Y-57842019D01*
X70173808Y-57728787D01*
X70135407Y-57636077D01*
X70135404Y-57636072D01*
X70023949Y-57443028D01*
X70023948Y-57443026D01*
X69888247Y-57266176D01*
X69730624Y-57108553D01*
X69553774Y-56972852D01*
X69532091Y-56960333D01*
X69360727Y-56861395D01*
X69360722Y-56861392D01*
X69154782Y-56776090D01*
X69044442Y-56746525D01*
X68939463Y-56718396D01*
X68939460Y-56718395D01*
X68939458Y-56718395D01*
X68718457Y-56689300D01*
X68495543Y-56689300D01*
X68495542Y-56689300D01*
X68274544Y-56718395D01*
X68274539Y-56718395D01*
X68059217Y-56776090D01*
X67853277Y-56861392D01*
X67853272Y-56861395D01*
X67660228Y-56972850D01*
X67483379Y-57108550D01*
X67325750Y-57266179D01*
X67190050Y-57443028D01*
X67078595Y-57636072D01*
X67078592Y-57636077D01*
X66993290Y-57842017D01*
X66935595Y-58057339D01*
X66935595Y-58057344D01*
X66919801Y-58177315D01*
X66906500Y-58278343D01*
X65033501Y-58278343D01*
X65033501Y-55778342D01*
X74506500Y-55778342D01*
X74506500Y-56001257D01*
X74535595Y-56222255D01*
X74535595Y-56222260D01*
X74593290Y-56437582D01*
X74678592Y-56643522D01*
X74678595Y-56643527D01*
X74790050Y-56836571D01*
X74790052Y-56836574D01*
X74925753Y-57013424D01*
X75083376Y-57171047D01*
X75260226Y-57306748D01*
X75260228Y-57306749D01*
X75453272Y-57418204D01*
X75453277Y-57418207D01*
X75612219Y-57484042D01*
X75659219Y-57503510D01*
X75874537Y-57561204D01*
X76095543Y-57590300D01*
X76095544Y-57590300D01*
X76318456Y-57590300D01*
X76318457Y-57590300D01*
X76539463Y-57561204D01*
X76754781Y-57503510D01*
X76900803Y-57443026D01*
X76960722Y-57418207D01*
X76960723Y-57418205D01*
X76960726Y-57418205D01*
X77128067Y-57321590D01*
X93633435Y-57321590D01*
X93633435Y-57466540D01*
X93655040Y-57547169D01*
X93670952Y-57606554D01*
X93743422Y-57732075D01*
X93743424Y-57732077D01*
X93743426Y-57732080D01*
X93845920Y-57834574D01*
X93845922Y-57834575D01*
X93845924Y-57834577D01*
X93971446Y-57907047D01*
X93971447Y-57907047D01*
X93971450Y-57907049D01*
X94111460Y-57944565D01*
X94111461Y-57944565D01*
X94256411Y-57944565D01*
X94256411Y-57944564D01*
X94283471Y-57937314D01*
X94344572Y-57940515D01*
X94392123Y-57979020D01*
X94407959Y-58038120D01*
X94404722Y-58058562D01*
X94398961Y-58080063D01*
X94398961Y-58225013D01*
X94436478Y-58365028D01*
X94508948Y-58490549D01*
X94508950Y-58490551D01*
X94508952Y-58490554D01*
X94611446Y-58593048D01*
X94611448Y-58593049D01*
X94611450Y-58593051D01*
X94736972Y-58665521D01*
X94736973Y-58665521D01*
X94736976Y-58665523D01*
X94876986Y-58703039D01*
X94876987Y-58703039D01*
X95021935Y-58703039D01*
X95021936Y-58703039D01*
X95161946Y-58665523D01*
X95161948Y-58665521D01*
X95161950Y-58665521D01*
X95287471Y-58593051D01*
X95287471Y-58593050D01*
X95287476Y-58593048D01*
X95389970Y-58490554D01*
X95409914Y-58456008D01*
X95418784Y-58443120D01*
X95428269Y-58431435D01*
X95713928Y-57889998D01*
X95731479Y-57866199D01*
X95868894Y-57728784D01*
X95892693Y-57711233D01*
X96434129Y-57425573D01*
X96443219Y-57420478D01*
X96444232Y-57419876D01*
X96447453Y-57416828D01*
X96465980Y-57403016D01*
X96493247Y-57387275D01*
X96595741Y-57284781D01*
X96639321Y-57209298D01*
X96668214Y-57159255D01*
X96668214Y-57159253D01*
X96668216Y-57159251D01*
X96705732Y-57019241D01*
X96705732Y-56874291D01*
X96668216Y-56734281D01*
X96668214Y-56734278D01*
X96668214Y-56734276D01*
X96595744Y-56608755D01*
X96595742Y-56608753D01*
X96595741Y-56608751D01*
X96493247Y-56506257D01*
X96493244Y-56506255D01*
X96493242Y-56506253D01*
X96367720Y-56433783D01*
X96367721Y-56433783D01*
X96338128Y-56425853D01*
X96227707Y-56396266D01*
X96082757Y-56396266D01*
X96021022Y-56412807D01*
X95942742Y-56433783D01*
X95817221Y-56506253D01*
X95817216Y-56506257D01*
X95714723Y-56608749D01*
X95694781Y-56643290D01*
X95690652Y-56647007D01*
X95685911Y-56656180D01*
X95676423Y-56667868D01*
X95676422Y-56667869D01*
X95390765Y-57209298D01*
X95373209Y-57233105D01*
X95235801Y-57370513D01*
X95211994Y-57388069D01*
X94910442Y-57547169D01*
X94850153Y-57557601D01*
X94795246Y-57530603D01*
X94766694Y-57476487D01*
X94773616Y-57419769D01*
X94915527Y-57096976D01*
X94936145Y-57066824D01*
X94999460Y-57003511D01*
X95028302Y-56953556D01*
X95039020Y-56934992D01*
X95039020Y-56934990D01*
X95039022Y-56934988D01*
X95059500Y-56858562D01*
X95059500Y-56779438D01*
X95059500Y-56597295D01*
X95078407Y-56539104D01*
X95119808Y-56506169D01*
X95362556Y-56403111D01*
X95403266Y-56392203D01*
X95444987Y-56368114D01*
X95450556Y-56365750D01*
X95450560Y-56365750D01*
X95450578Y-56365740D01*
X95452553Y-56364903D01*
X95469813Y-56356606D01*
X95471726Y-56355574D01*
X95478276Y-56351885D01*
X95478283Y-56351878D01*
X95483122Y-56348319D01*
X95483123Y-56348320D01*
X95483456Y-56348072D01*
X95484472Y-56346544D01*
X95486548Y-56345771D01*
X95496461Y-56338397D01*
X95510474Y-56330305D01*
X95528796Y-56319728D01*
X95631290Y-56217234D01*
X95644120Y-56195012D01*
X95703763Y-56091708D01*
X95703763Y-56091706D01*
X95703765Y-56091704D01*
X95741281Y-55951694D01*
X95741281Y-55806744D01*
X95733671Y-55778342D01*
X120506500Y-55778342D01*
X120506500Y-56001257D01*
X120535595Y-56222255D01*
X120535595Y-56222260D01*
X120593290Y-56437582D01*
X120678592Y-56643522D01*
X120678595Y-56643527D01*
X120790050Y-56836571D01*
X120790052Y-56836574D01*
X120925753Y-57013424D01*
X121083376Y-57171047D01*
X121260226Y-57306748D01*
X121260228Y-57306749D01*
X121450897Y-57416833D01*
X121453274Y-57418205D01*
X121595386Y-57477069D01*
X121641911Y-57516804D01*
X121656500Y-57568532D01*
X121656500Y-59211066D01*
X121637593Y-59269257D01*
X121595386Y-59302530D01*
X121453272Y-59361395D01*
X121260228Y-59472850D01*
X121083379Y-59608550D01*
X120925750Y-59766179D01*
X120790050Y-59943028D01*
X120678595Y-60136072D01*
X120678592Y-60136077D01*
X120593290Y-60342017D01*
X120535595Y-60557339D01*
X120535595Y-60557344D01*
X120506500Y-60778342D01*
X120506500Y-61001257D01*
X120535595Y-61222255D01*
X120535595Y-61222260D01*
X120593290Y-61437582D01*
X120678592Y-61643522D01*
X120678595Y-61643527D01*
X120732721Y-61737275D01*
X120790052Y-61836574D01*
X120925753Y-62013424D01*
X121083376Y-62171047D01*
X121260226Y-62306748D01*
X121260228Y-62306749D01*
X121453272Y-62418204D01*
X121453277Y-62418207D01*
X121553693Y-62459800D01*
X121659219Y-62503510D01*
X121874537Y-62561204D01*
X122095543Y-62590300D01*
X122095544Y-62590300D01*
X122318456Y-62590300D01*
X122318457Y-62590300D01*
X122539463Y-62561204D01*
X122754781Y-62503510D01*
X122884647Y-62449717D01*
X122917462Y-62436125D01*
X124180500Y-62436125D01*
X124180500Y-62581075D01*
X124210087Y-62691496D01*
X124218017Y-62721089D01*
X124290487Y-62846610D01*
X124290489Y-62846612D01*
X124290491Y-62846615D01*
X124392985Y-62949109D01*
X124392987Y-62949110D01*
X124392989Y-62949112D01*
X124518511Y-63021582D01*
X124518512Y-63021582D01*
X124518515Y-63021584D01*
X124658525Y-63059100D01*
X124658526Y-63059100D01*
X124803473Y-63059100D01*
X124803475Y-63059100D01*
X124811970Y-63056823D01*
X124835780Y-63054271D01*
X124835753Y-63053725D01*
X124840602Y-63053482D01*
X124840604Y-63053481D01*
X124840611Y-63053482D01*
X125444635Y-62963337D01*
X125444639Y-62963335D01*
X125444643Y-62963335D01*
X125448484Y-62962445D01*
X125448596Y-62962932D01*
X125473320Y-62959100D01*
X127036334Y-62959100D01*
X127060374Y-62963277D01*
X127060657Y-62962153D01*
X127065362Y-62963336D01*
X127065365Y-62963337D01*
X127669388Y-63053482D01*
X127669390Y-63053481D01*
X127669391Y-63053482D01*
X127673928Y-63053738D01*
X127673908Y-63054077D01*
X127697987Y-63056812D01*
X127706525Y-63059100D01*
X127706526Y-63059100D01*
X127851474Y-63059100D01*
X127851475Y-63059100D01*
X127991485Y-63021584D01*
X127991487Y-63021582D01*
X127991489Y-63021582D01*
X128117010Y-62949112D01*
X128117010Y-62949111D01*
X128117015Y-62949109D01*
X128219509Y-62846615D01*
X128291984Y-62721085D01*
X128329500Y-62581075D01*
X128329500Y-62459799D01*
X132610758Y-62459799D01*
X132610759Y-62459800D01*
X133269272Y-62459800D01*
X133177386Y-62497860D01*
X133107060Y-62568186D01*
X133069000Y-62660072D01*
X133069000Y-62759528D01*
X133107060Y-62851414D01*
X133177386Y-62921740D01*
X133269272Y-62959800D01*
X132610759Y-62959800D01*
X132654358Y-63065056D01*
X132654365Y-63065070D01*
X132736431Y-63187890D01*
X132840906Y-63292365D01*
X132963742Y-63374441D01*
X133100229Y-63430976D01*
X133100235Y-63430978D01*
X133245128Y-63459799D01*
X133245132Y-63459800D01*
X133418999Y-63459800D01*
X133419000Y-63459799D01*
X133419000Y-62959801D01*
X133418999Y-62959800D01*
X133919001Y-62959800D01*
X133919000Y-62959801D01*
X133919000Y-63459799D01*
X133919001Y-63459800D01*
X134092868Y-63459800D01*
X134092871Y-63459799D01*
X134237764Y-63430978D01*
X134237770Y-63430976D01*
X134374257Y-63374441D01*
X134497093Y-63292365D01*
X134601568Y-63187890D01*
X134683634Y-63065070D01*
X134683641Y-63065056D01*
X134727241Y-62959800D01*
X134068728Y-62959800D01*
X134160614Y-62921740D01*
X134230940Y-62851414D01*
X134269000Y-62759528D01*
X134269000Y-62660072D01*
X134230940Y-62568186D01*
X134160614Y-62497860D01*
X134068728Y-62459800D01*
X134727241Y-62459800D01*
X134727241Y-62459799D01*
X134683641Y-62354543D01*
X134683634Y-62354529D01*
X134601568Y-62231709D01*
X134497093Y-62127234D01*
X134374257Y-62045158D01*
X134237770Y-61988623D01*
X134237764Y-61988621D01*
X134092871Y-61959800D01*
X133919001Y-61959800D01*
X133919000Y-61959801D01*
X133919000Y-62459799D01*
X133919001Y-62459800D01*
X133418999Y-62459800D01*
X133419000Y-62459799D01*
X133419000Y-61959801D01*
X133418999Y-61959800D01*
X133245128Y-61959800D01*
X133100235Y-61988621D01*
X133100229Y-61988623D01*
X132963742Y-62045158D01*
X132840906Y-62127234D01*
X132736431Y-62231709D01*
X132654365Y-62354529D01*
X132654358Y-62354543D01*
X132610758Y-62459799D01*
X128329500Y-62459799D01*
X128329500Y-62436125D01*
X128291984Y-62296115D01*
X128291982Y-62296112D01*
X128291982Y-62296110D01*
X128219512Y-62170589D01*
X128219510Y-62170587D01*
X128219509Y-62170585D01*
X128117015Y-62068091D01*
X128117012Y-62068089D01*
X128117010Y-62068087D01*
X127991488Y-61995617D01*
X127991489Y-61995617D01*
X127961896Y-61987687D01*
X127851475Y-61958100D01*
X127706525Y-61958100D01*
X127698030Y-61960376D01*
X127674218Y-61962928D01*
X127674246Y-61963474D01*
X127669395Y-61963716D01*
X127669388Y-61963717D01*
X127664959Y-61964378D01*
X127065361Y-62053862D01*
X127061517Y-62054754D01*
X127061404Y-62054267D01*
X127036675Y-62058100D01*
X125473672Y-62058100D01*
X125449632Y-62053926D01*
X125449351Y-62055047D01*
X125444643Y-62053863D01*
X124840608Y-61963716D01*
X124836074Y-61963461D01*
X124836092Y-61963125D01*
X124812016Y-61960388D01*
X124803475Y-61958100D01*
X124658525Y-61958100D01*
X124596790Y-61974641D01*
X124518510Y-61995617D01*
X124392989Y-62068087D01*
X124290487Y-62170589D01*
X124218017Y-62296110D01*
X124205212Y-62343900D01*
X124180500Y-62436125D01*
X122917462Y-62436125D01*
X122960722Y-62418207D01*
X122960723Y-62418205D01*
X122960726Y-62418205D01*
X123024040Y-62381649D01*
X123089426Y-62343900D01*
X123113460Y-62330023D01*
X123153774Y-62306748D01*
X123330624Y-62171047D01*
X123488247Y-62013424D01*
X123623948Y-61836574D01*
X123735405Y-61643526D01*
X123756617Y-61592317D01*
X123771996Y-61555188D01*
X123820710Y-61437581D01*
X123878404Y-61222263D01*
X123907500Y-61001257D01*
X123907500Y-60778343D01*
X123878404Y-60557337D01*
X123820710Y-60342019D01*
X123781690Y-60247815D01*
X123735407Y-60136077D01*
X123735404Y-60136072D01*
X123658868Y-60003509D01*
X123623948Y-59943026D01*
X123488247Y-59766176D01*
X123330624Y-59608553D01*
X123153774Y-59472852D01*
X123153771Y-59472850D01*
X122960727Y-59361395D01*
X122818614Y-59302530D01*
X122772089Y-59262793D01*
X122757500Y-59211066D01*
X122757500Y-58278343D01*
X128106500Y-58278343D01*
X128106500Y-58501257D01*
X128112555Y-58547253D01*
X128135595Y-58722255D01*
X128135595Y-58722260D01*
X128193290Y-58937582D01*
X128278592Y-59143522D01*
X128278595Y-59143527D01*
X128385627Y-59328910D01*
X128390052Y-59336574D01*
X128525753Y-59513424D01*
X128683376Y-59671047D01*
X128860226Y-59806748D01*
X128913187Y-59837325D01*
X129053272Y-59918204D01*
X129053277Y-59918207D01*
X129207953Y-59982275D01*
X129259219Y-60003510D01*
X129474537Y-60061204D01*
X129474543Y-60061204D01*
X129474544Y-60061205D01*
X129488067Y-60062985D01*
X129579022Y-60074959D01*
X129634247Y-60101299D01*
X129663442Y-60155070D01*
X129665100Y-60173112D01*
X129665100Y-60922134D01*
X129660922Y-60946174D01*
X129662047Y-60946457D01*
X129660863Y-60951162D01*
X129570716Y-61555190D01*
X129570461Y-61559724D01*
X129570124Y-61559705D01*
X129567388Y-61583781D01*
X129565101Y-61592317D01*
X129565100Y-61592326D01*
X129565100Y-61737274D01*
X129602617Y-61877289D01*
X129675087Y-62002810D01*
X129675089Y-62002812D01*
X129675091Y-62002815D01*
X129777585Y-62105309D01*
X129777587Y-62105310D01*
X129777589Y-62105312D01*
X129903111Y-62177782D01*
X129903112Y-62177782D01*
X129903115Y-62177784D01*
X130043125Y-62215300D01*
X130043126Y-62215300D01*
X130188074Y-62215300D01*
X130188075Y-62215300D01*
X130328085Y-62177784D01*
X130328087Y-62177782D01*
X130328089Y-62177782D01*
X130453610Y-62105312D01*
X130453610Y-62105311D01*
X130453615Y-62105309D01*
X130556109Y-62002815D01*
X130628584Y-61877285D01*
X130666100Y-61737275D01*
X130666100Y-61592325D01*
X130666098Y-61592317D01*
X130663824Y-61583828D01*
X130661271Y-61560018D01*
X130660725Y-61560046D01*
X130660482Y-61555196D01*
X130660481Y-61555194D01*
X130660482Y-61555188D01*
X130570337Y-60951165D01*
X130570335Y-60951158D01*
X130570334Y-60951152D01*
X130569446Y-60947320D01*
X130569930Y-60947207D01*
X130566100Y-60922481D01*
X130566100Y-59972259D01*
X130585007Y-59914068D01*
X130615596Y-59886524D01*
X130753774Y-59806748D01*
X130930624Y-59671047D01*
X131088247Y-59513424D01*
X131223948Y-59336574D01*
X131335405Y-59143526D01*
X131420710Y-58937581D01*
X131478404Y-58722263D01*
X131507500Y-58501257D01*
X131507500Y-58278343D01*
X131478404Y-58057337D01*
X131420710Y-57842019D01*
X131373808Y-57728787D01*
X131335407Y-57636077D01*
X131335404Y-57636072D01*
X131223949Y-57443028D01*
X131223948Y-57443026D01*
X131088247Y-57266176D01*
X130930624Y-57108553D01*
X130753774Y-56972852D01*
X130732091Y-56960333D01*
X130560727Y-56861395D01*
X130560722Y-56861392D01*
X130488554Y-56831500D01*
X130354782Y-56776090D01*
X130244442Y-56746525D01*
X134198500Y-56746525D01*
X134198500Y-56891477D01*
X134215907Y-56956446D01*
X134216953Y-56960350D01*
X134219794Y-56975914D01*
X134223912Y-56986322D01*
X134225387Y-56991825D01*
X134225390Y-56991834D01*
X134232735Y-57019241D01*
X134236016Y-57031485D01*
X134250736Y-57056981D01*
X134257046Y-57070038D01*
X134432564Y-57513509D01*
X134433552Y-57516004D01*
X134440500Y-57552437D01*
X134440500Y-59176361D01*
X134433552Y-59212794D01*
X134257044Y-59658763D01*
X134254364Y-59665533D01*
X134236016Y-59697315D01*
X134223919Y-59742456D01*
X134221825Y-59747748D01*
X134219797Y-59752873D01*
X134213844Y-59770114D01*
X134213246Y-59772133D01*
X134211438Y-59778625D01*
X134211437Y-59778627D01*
X134211429Y-59778916D01*
X134208103Y-59801483D01*
X134198500Y-59837322D01*
X134198500Y-59837325D01*
X134198500Y-59982275D01*
X134223335Y-60074959D01*
X134236017Y-60122289D01*
X134308487Y-60247810D01*
X134308489Y-60247812D01*
X134308491Y-60247815D01*
X134410985Y-60350309D01*
X134410987Y-60350310D01*
X134410989Y-60350312D01*
X134536511Y-60422782D01*
X134536512Y-60422782D01*
X134536515Y-60422784D01*
X134676525Y-60460300D01*
X134676526Y-60460300D01*
X134821474Y-60460300D01*
X134821475Y-60460300D01*
X134961485Y-60422784D01*
X134961487Y-60422782D01*
X134961489Y-60422782D01*
X135087010Y-60350312D01*
X135087010Y-60350311D01*
X135087015Y-60350309D01*
X135189509Y-60247815D01*
X135261984Y-60122285D01*
X135299500Y-59982275D01*
X135299500Y-59982272D01*
X135300347Y-59975842D01*
X135302620Y-59976141D01*
X135310055Y-59948404D01*
X135308315Y-59947684D01*
X135310797Y-59941690D01*
X135310797Y-59941688D01*
X135310799Y-59941686D01*
X135341500Y-59827109D01*
X135341500Y-59328910D01*
X135345213Y-59273205D01*
X135345553Y-59266402D01*
X135345579Y-59265624D01*
X135341500Y-59243163D01*
X135341500Y-57490473D01*
X135342333Y-57477658D01*
X135343784Y-57466540D01*
X135345213Y-57455595D01*
X135341719Y-57403174D01*
X135341500Y-57396591D01*
X135341500Y-56901692D01*
X135341336Y-56901079D01*
X135310799Y-56787114D01*
X135310798Y-56787112D01*
X135308316Y-56781120D01*
X135309171Y-56780765D01*
X135301133Y-56758925D01*
X135299500Y-56750047D01*
X135299500Y-56746525D01*
X135297433Y-56738815D01*
X135296835Y-56735561D01*
X135296526Y-56734344D01*
X135296526Y-56734338D01*
X135296523Y-56734331D01*
X135296113Y-56732711D01*
X135294248Y-56726926D01*
X135261984Y-56606515D01*
X135261982Y-56606512D01*
X135261982Y-56606510D01*
X135189512Y-56480989D01*
X135189510Y-56480987D01*
X135189509Y-56480985D01*
X135087015Y-56378491D01*
X135087012Y-56378489D01*
X135087010Y-56378487D01*
X134961488Y-56306017D01*
X134961489Y-56306017D01*
X134931896Y-56298087D01*
X134821475Y-56268500D01*
X134676525Y-56268500D01*
X134614790Y-56285041D01*
X134536510Y-56306017D01*
X134410989Y-56378487D01*
X134308487Y-56480989D01*
X134236017Y-56606510D01*
X134198500Y-56746525D01*
X130244442Y-56746525D01*
X130139463Y-56718396D01*
X130139460Y-56718395D01*
X130139458Y-56718395D01*
X129918457Y-56689300D01*
X129695543Y-56689300D01*
X129695542Y-56689300D01*
X129474544Y-56718395D01*
X129474539Y-56718395D01*
X129259217Y-56776090D01*
X129053277Y-56861392D01*
X129053272Y-56861395D01*
X128860228Y-56972850D01*
X128683379Y-57108550D01*
X128525750Y-57266179D01*
X128390050Y-57443028D01*
X128278595Y-57636072D01*
X128278592Y-57636077D01*
X128193290Y-57842017D01*
X128135595Y-58057339D01*
X128135595Y-58057344D01*
X128119801Y-58177315D01*
X128106500Y-58278343D01*
X122757500Y-58278343D01*
X122757500Y-57568532D01*
X122776407Y-57510341D01*
X122818613Y-57477069D01*
X122960726Y-57418205D01*
X123153774Y-57306748D01*
X123330624Y-57171047D01*
X123488247Y-57013424D01*
X123623948Y-56836574D01*
X123735405Y-56643526D01*
X123739978Y-56632487D01*
X123785535Y-56522500D01*
X123820710Y-56437581D01*
X123878404Y-56222263D01*
X123907500Y-56001257D01*
X123907500Y-55778343D01*
X123878404Y-55557337D01*
X123820710Y-55342019D01*
X123787196Y-55261109D01*
X123735407Y-55136077D01*
X123735404Y-55136072D01*
X123676887Y-55034719D01*
X123623948Y-54943026D01*
X123488247Y-54766176D01*
X123330624Y-54608553D01*
X123153774Y-54472852D01*
X123153771Y-54472850D01*
X123018125Y-54394534D01*
X122960727Y-54361395D01*
X122960722Y-54361392D01*
X122754782Y-54276090D01*
X122659839Y-54250650D01*
X122539463Y-54218396D01*
X122539460Y-54218395D01*
X122539458Y-54218395D01*
X122318457Y-54189300D01*
X122095543Y-54189300D01*
X122095542Y-54189300D01*
X121874544Y-54218395D01*
X121874539Y-54218395D01*
X121659217Y-54276090D01*
X121453277Y-54361392D01*
X121453272Y-54361395D01*
X121260228Y-54472850D01*
X121083379Y-54608550D01*
X120925750Y-54766179D01*
X120790050Y-54943028D01*
X120678595Y-55136072D01*
X120678592Y-55136077D01*
X120593290Y-55342017D01*
X120535595Y-55557339D01*
X120535595Y-55557344D01*
X120506500Y-55778342D01*
X95733671Y-55778342D01*
X95703765Y-55666734D01*
X95703762Y-55666728D01*
X95631293Y-55541208D01*
X95631291Y-55541206D01*
X95631290Y-55541204D01*
X95528796Y-55438710D01*
X95528793Y-55438708D01*
X95528791Y-55438706D01*
X95403269Y-55366236D01*
X95403270Y-55366236D01*
X95373677Y-55358306D01*
X95263256Y-55328719D01*
X95118306Y-55328719D01*
X95068678Y-55342017D01*
X94978291Y-55366236D01*
X94852770Y-55438706D01*
X94750268Y-55541208D01*
X94677798Y-55666730D01*
X94677796Y-55666734D01*
X94660957Y-55729577D01*
X94651772Y-55752212D01*
X94648790Y-55757552D01*
X94648785Y-55757562D01*
X94541985Y-56087703D01*
X94521746Y-56120781D01*
X94522485Y-56121349D01*
X94518538Y-56126491D01*
X94478978Y-56195012D01*
X94458500Y-56271435D01*
X94458500Y-56271438D01*
X94458500Y-56367660D01*
X94458205Y-56370426D01*
X94458500Y-56372162D01*
X94458500Y-56607751D01*
X94439593Y-56665942D01*
X94399343Y-56698379D01*
X94009914Y-56869585D01*
X93995697Y-56874583D01*
X93971453Y-56881079D01*
X93936809Y-56901079D01*
X93936808Y-56901078D01*
X93932108Y-56903791D01*
X93919506Y-56909333D01*
X93903563Y-56917182D01*
X93901805Y-56918144D01*
X93896550Y-56921121D01*
X93887722Y-56929418D01*
X93877786Y-56935155D01*
X93877781Y-56935159D01*
X93845917Y-56953557D01*
X93743426Y-57056049D01*
X93743422Y-57056054D01*
X93670952Y-57181575D01*
X93643299Y-57284776D01*
X93633435Y-57321590D01*
X77128067Y-57321590D01*
X77153774Y-57306748D01*
X77330624Y-57171047D01*
X77488247Y-57013424D01*
X77623948Y-56836574D01*
X77735405Y-56643526D01*
X77739978Y-56632487D01*
X77785535Y-56522500D01*
X77820710Y-56437581D01*
X77878404Y-56222263D01*
X77907500Y-56001257D01*
X77907500Y-55778343D01*
X77878404Y-55557337D01*
X77820710Y-55342019D01*
X77787196Y-55261109D01*
X77735407Y-55136077D01*
X77735404Y-55136073D01*
X77643069Y-54976145D01*
X106758880Y-54976145D01*
X106758880Y-55121095D01*
X106788467Y-55231516D01*
X106796397Y-55261109D01*
X106868867Y-55386630D01*
X106868869Y-55386632D01*
X106868871Y-55386635D01*
X106971365Y-55489129D01*
X106971367Y-55489130D01*
X106971369Y-55489132D01*
X107096891Y-55561602D01*
X107096892Y-55561602D01*
X107096895Y-55561604D01*
X107236905Y-55599120D01*
X107236906Y-55599120D01*
X107381859Y-55599120D01*
X107388294Y-55598273D01*
X107388314Y-55598425D01*
X107399914Y-55597001D01*
X107399855Y-55596268D01*
X108008577Y-55546698D01*
X108008579Y-55546698D01*
X108008582Y-55546697D01*
X108008584Y-55546697D01*
X108015951Y-55544758D01*
X108041142Y-55541500D01*
X108301890Y-55541500D01*
X108301892Y-55541500D01*
X108429186Y-55507392D01*
X108429188Y-55507390D01*
X108429190Y-55507390D01*
X108543309Y-55441503D01*
X108543309Y-55441502D01*
X108543314Y-55441500D01*
X108732816Y-55251997D01*
X108922319Y-55062496D01*
X108976835Y-55034719D01*
X108992322Y-55033500D01*
X109272641Y-55033500D01*
X109298612Y-55036967D01*
X109305216Y-55038763D01*
X109909071Y-55080574D01*
X109909077Y-55080573D01*
X109912106Y-55080783D01*
X109924827Y-55082908D01*
X109929319Y-55083500D01*
X110074268Y-55083500D01*
X110074269Y-55083500D01*
X110214279Y-55045984D01*
X110214281Y-55045982D01*
X110214283Y-55045982D01*
X110339804Y-54973512D01*
X110339804Y-54973511D01*
X110339809Y-54973509D01*
X110442303Y-54871015D01*
X110488514Y-54790976D01*
X110514776Y-54745489D01*
X110514776Y-54745487D01*
X110514778Y-54745485D01*
X110552294Y-54605475D01*
X110552294Y-54460525D01*
X110514778Y-54320515D01*
X110514776Y-54320512D01*
X110514776Y-54320510D01*
X110442306Y-54194989D01*
X110442304Y-54194987D01*
X110442303Y-54194985D01*
X110339809Y-54092491D01*
X110339806Y-54092489D01*
X110339804Y-54092487D01*
X110214282Y-54020017D01*
X110214283Y-54020017D01*
X110184690Y-54012087D01*
X110074269Y-53982500D01*
X109929319Y-53982500D01*
X109929316Y-53982500D01*
X109924862Y-53983086D01*
X109912109Y-53985215D01*
X109909073Y-53985425D01*
X109909072Y-53985425D01*
X109563217Y-54009371D01*
X109305210Y-54027236D01*
X109296425Y-54029464D01*
X109272095Y-54032500D01*
X108809892Y-54032500D01*
X108678107Y-54032500D01*
X108600200Y-54053374D01*
X108550809Y-54066609D01*
X108436690Y-54132496D01*
X108436681Y-54132503D01*
X108436677Y-54132508D01*
X108063687Y-54505497D01*
X108009171Y-54533274D01*
X107988045Y-54534332D01*
X107399739Y-54500769D01*
X107388290Y-54498930D01*
X107388286Y-54498967D01*
X107381856Y-54498120D01*
X107381855Y-54498120D01*
X107236905Y-54498120D01*
X107175170Y-54514661D01*
X107096890Y-54535637D01*
X106971369Y-54608107D01*
X106868867Y-54710609D01*
X106796397Y-54836130D01*
X106796396Y-54836135D01*
X106758880Y-54976145D01*
X77643069Y-54976145D01*
X77623948Y-54943026D01*
X77488247Y-54766176D01*
X77330624Y-54608553D01*
X77153774Y-54472852D01*
X77153771Y-54472850D01*
X76960727Y-54361395D01*
X76960722Y-54361392D01*
X76754782Y-54276090D01*
X76659839Y-54250650D01*
X76539463Y-54218396D01*
X76539460Y-54218395D01*
X76539458Y-54218395D01*
X76318457Y-54189300D01*
X76095543Y-54189300D01*
X76095542Y-54189300D01*
X75874544Y-54218395D01*
X75874539Y-54218395D01*
X75659217Y-54276090D01*
X75453277Y-54361392D01*
X75453272Y-54361395D01*
X75260228Y-54472850D01*
X75083379Y-54608550D01*
X74925750Y-54766179D01*
X74790050Y-54943028D01*
X74678595Y-55136072D01*
X74678592Y-55136077D01*
X74593290Y-55342017D01*
X74535595Y-55557339D01*
X74535595Y-55557344D01*
X74506500Y-55778342D01*
X65033501Y-55778342D01*
X65033501Y-53819799D01*
X132610758Y-53819799D01*
X132610759Y-53819800D01*
X133269272Y-53819800D01*
X133177386Y-53857860D01*
X133107060Y-53928186D01*
X133069000Y-54020072D01*
X133069000Y-54119528D01*
X133107060Y-54211414D01*
X133177386Y-54281740D01*
X133269272Y-54319800D01*
X132610759Y-54319800D01*
X132654358Y-54425056D01*
X132654365Y-54425070D01*
X132736431Y-54547890D01*
X132840906Y-54652365D01*
X132963742Y-54734441D01*
X133100229Y-54790976D01*
X133100235Y-54790978D01*
X133245128Y-54819799D01*
X133245132Y-54819800D01*
X133418999Y-54819800D01*
X133419000Y-54819799D01*
X133419000Y-54319801D01*
X133418999Y-54319800D01*
X133919001Y-54319800D01*
X133919000Y-54319801D01*
X133919000Y-54819799D01*
X133919001Y-54819800D01*
X134092868Y-54819800D01*
X134092871Y-54819799D01*
X134237764Y-54790978D01*
X134237770Y-54790976D01*
X134374257Y-54734441D01*
X134497093Y-54652365D01*
X134601568Y-54547890D01*
X134683634Y-54425070D01*
X134683641Y-54425056D01*
X134727241Y-54319800D01*
X134068728Y-54319800D01*
X134160614Y-54281740D01*
X134230940Y-54211414D01*
X134269000Y-54119528D01*
X134269000Y-54020072D01*
X134230940Y-53928186D01*
X134160614Y-53857860D01*
X134068728Y-53819800D01*
X134727241Y-53819800D01*
X134727241Y-53819799D01*
X134683641Y-53714543D01*
X134683634Y-53714529D01*
X134601568Y-53591709D01*
X134497093Y-53487234D01*
X134374257Y-53405158D01*
X134237770Y-53348623D01*
X134237764Y-53348621D01*
X134092871Y-53319800D01*
X133919001Y-53319800D01*
X133919000Y-53319801D01*
X133919000Y-53819799D01*
X133919001Y-53819800D01*
X133418999Y-53819800D01*
X133419000Y-53819799D01*
X133419000Y-53319801D01*
X133418999Y-53319800D01*
X133245128Y-53319800D01*
X133100235Y-53348621D01*
X133100229Y-53348623D01*
X132963742Y-53405158D01*
X132840906Y-53487234D01*
X132736431Y-53591709D01*
X132654365Y-53714529D01*
X132654358Y-53714543D01*
X132610758Y-53819799D01*
X65033501Y-53819799D01*
X65033501Y-51274525D01*
X83667500Y-51274525D01*
X83667500Y-51419477D01*
X83684135Y-51481564D01*
X83685253Y-51485739D01*
X83688266Y-51502785D01*
X83693259Y-51515614D01*
X83694660Y-51520842D01*
X83694663Y-51520852D01*
X83705014Y-51559481D01*
X83705015Y-51559483D01*
X83705016Y-51559485D01*
X83717343Y-51580836D01*
X83717567Y-51581223D01*
X83724087Y-51594812D01*
X83763508Y-51696088D01*
X83878576Y-51991707D01*
X83910757Y-52074381D01*
X83917500Y-52110292D01*
X83917500Y-52386822D01*
X83910757Y-52422733D01*
X83783088Y-52750725D01*
X83721344Y-52909350D01*
X83705016Y-52937631D01*
X83693264Y-52981482D01*
X83691301Y-52986528D01*
X83691301Y-52986530D01*
X83688260Y-52994344D01*
X83682591Y-53010989D01*
X83682587Y-53011000D01*
X83682583Y-53011014D01*
X83682475Y-53011383D01*
X83682008Y-53012972D01*
X83680358Y-53018927D01*
X83680339Y-53019570D01*
X83677013Y-53042133D01*
X83667500Y-53077637D01*
X83667500Y-53222590D01*
X83705017Y-53362605D01*
X83777487Y-53488126D01*
X83777489Y-53488128D01*
X83777491Y-53488131D01*
X83879985Y-53590625D01*
X83879987Y-53590626D01*
X83879989Y-53590628D01*
X84005511Y-53663098D01*
X84005512Y-53663098D01*
X84005515Y-53663100D01*
X84145525Y-53700616D01*
X84145526Y-53700616D01*
X84290474Y-53700616D01*
X84290475Y-53700616D01*
X84430485Y-53663100D01*
X84430487Y-53663098D01*
X84430489Y-53663098D01*
X84556010Y-53590628D01*
X84556010Y-53590627D01*
X84556015Y-53590625D01*
X84658509Y-53488131D01*
X84659027Y-53487234D01*
X84730982Y-53362605D01*
X84730982Y-53362603D01*
X84730984Y-53362601D01*
X84768500Y-53222591D01*
X84768500Y-53193409D01*
X84769500Y-53189678D01*
X84769500Y-53110554D01*
X84768500Y-53106822D01*
X84768500Y-53077641D01*
X84750746Y-53011383D01*
X84747733Y-52994330D01*
X84742738Y-52981498D01*
X84741335Y-52976261D01*
X84741335Y-52976259D01*
X84730984Y-52937632D01*
X84730984Y-52937631D01*
X84718427Y-52915882D01*
X84711911Y-52902301D01*
X84704977Y-52884488D01*
X84650478Y-52744474D01*
X84525243Y-52422733D01*
X84518500Y-52386823D01*
X84518500Y-52110291D01*
X84525243Y-52074381D01*
X84602068Y-51877011D01*
X84714652Y-51587772D01*
X84730984Y-51559485D01*
X84742739Y-51515614D01*
X84747733Y-51502785D01*
X84753416Y-51486101D01*
X84753982Y-51484172D01*
X84755640Y-51478189D01*
X84755659Y-51477558D01*
X84758985Y-51454984D01*
X84768500Y-51419474D01*
X84768500Y-51274525D01*
X84759177Y-51239731D01*
X84730984Y-51134515D01*
X84730982Y-51134512D01*
X84730982Y-51134510D01*
X84658512Y-51008989D01*
X84658510Y-51008987D01*
X84658509Y-51008985D01*
X84556015Y-50906491D01*
X84556012Y-50906489D01*
X84556010Y-50906487D01*
X84430488Y-50834017D01*
X84430489Y-50834017D01*
X84330463Y-50807215D01*
X84290475Y-50796500D01*
X84145525Y-50796500D01*
X84105537Y-50807215D01*
X84005510Y-50834017D01*
X83879989Y-50906487D01*
X83777487Y-51008989D01*
X83705017Y-51134510D01*
X83667500Y-51274525D01*
X65033501Y-51274525D01*
X65033501Y-50725984D01*
X65033682Y-50720007D01*
X65035380Y-50691941D01*
X65051363Y-50427688D01*
X65052802Y-50415837D01*
X65105053Y-50130715D01*
X65107913Y-50119114D01*
X65107914Y-50119113D01*
X65194152Y-49842361D01*
X65198379Y-49831218D01*
X65317351Y-49566875D01*
X65322900Y-49556303D01*
X65472862Y-49308234D01*
X65479633Y-49298424D01*
X65658407Y-49070236D01*
X65666319Y-49061304D01*
X65841248Y-48886375D01*
X89087000Y-48886375D01*
X89087000Y-49510999D01*
X89087001Y-49511000D01*
X89753988Y-49511000D01*
X89721075Y-49568007D01*
X89687000Y-49695174D01*
X89687000Y-49826826D01*
X89721075Y-49953993D01*
X89753988Y-50011000D01*
X89087001Y-50011000D01*
X89087000Y-50011001D01*
X89087000Y-50635624D01*
X89101506Y-50708546D01*
X89101507Y-50708548D01*
X89156758Y-50791237D01*
X89156762Y-50791241D01*
X89239451Y-50846492D01*
X89239453Y-50846493D01*
X89312375Y-50860999D01*
X89312377Y-50861000D01*
X89936999Y-50861000D01*
X89937000Y-50860999D01*
X89937000Y-50194012D01*
X89994007Y-50226925D01*
X90121174Y-50261000D01*
X90252826Y-50261000D01*
X90379993Y-50226925D01*
X90437000Y-50194012D01*
X90437000Y-50860999D01*
X90437001Y-50861000D01*
X91061623Y-50861000D01*
X91061624Y-50860999D01*
X91134546Y-50846493D01*
X91134548Y-50846492D01*
X91217237Y-50791241D01*
X91217241Y-50791237D01*
X91272492Y-50708548D01*
X91272493Y-50708546D01*
X91286999Y-50635624D01*
X91287000Y-50635622D01*
X91287000Y-50057532D01*
X91676500Y-50057532D01*
X91676500Y-50264467D01*
X91716869Y-50467418D01*
X91796058Y-50658597D01*
X91895361Y-50807215D01*
X91911023Y-50830655D01*
X92057345Y-50976977D01*
X92229402Y-51091941D01*
X92365385Y-51148267D01*
X92411911Y-51188003D01*
X92426500Y-51239731D01*
X92426500Y-51991706D01*
X92419757Y-52027617D01*
X92253955Y-52453576D01*
X92230344Y-52514234D01*
X92214016Y-52542515D01*
X92202264Y-52586366D01*
X92200301Y-52591412D01*
X92200301Y-52591414D01*
X92197260Y-52599228D01*
X92191591Y-52615873D01*
X92191587Y-52615884D01*
X92191583Y-52615898D01*
X92191475Y-52616267D01*
X92191008Y-52617856D01*
X92189358Y-52623811D01*
X92189339Y-52624454D01*
X92186013Y-52647017D01*
X92176500Y-52682521D01*
X92176500Y-52682525D01*
X92176500Y-52827475D01*
X92191777Y-52884488D01*
X92214017Y-52967489D01*
X92286487Y-53093010D01*
X92286489Y-53093012D01*
X92286491Y-53093015D01*
X92388985Y-53195509D01*
X92388987Y-53195510D01*
X92388989Y-53195512D01*
X92514511Y-53267982D01*
X92514512Y-53267982D01*
X92514515Y-53267984D01*
X92654525Y-53305500D01*
X92654526Y-53305500D01*
X92799474Y-53305500D01*
X92799475Y-53305500D01*
X92939485Y-53267984D01*
X92939487Y-53267982D01*
X92939489Y-53267982D01*
X93065010Y-53195512D01*
X93065010Y-53195511D01*
X93065015Y-53195509D01*
X93167509Y-53093015D01*
X93200927Y-53035133D01*
X93239982Y-52967489D01*
X93239982Y-52967487D01*
X93239984Y-52967485D01*
X93277500Y-52827475D01*
X93277500Y-52682525D01*
X93259746Y-52616267D01*
X93256733Y-52599214D01*
X93251738Y-52586382D01*
X93250335Y-52581145D01*
X93250335Y-52581143D01*
X93239984Y-52542516D01*
X93239984Y-52542515D01*
X93227427Y-52520766D01*
X93220911Y-52507185D01*
X93202355Y-52459514D01*
X93113599Y-52231491D01*
X93034243Y-52027617D01*
X93027500Y-51991707D01*
X93027500Y-51239731D01*
X93046407Y-51181540D01*
X93088614Y-51148267D01*
X93224598Y-51091941D01*
X93396655Y-50976977D01*
X93542977Y-50830655D01*
X93657941Y-50658598D01*
X93737130Y-50467420D01*
X93777500Y-50264465D01*
X93777500Y-50057535D01*
X93737130Y-49854580D01*
X93657941Y-49663402D01*
X93654019Y-49657532D01*
X94216500Y-49657532D01*
X94216500Y-49864467D01*
X94256869Y-50067418D01*
X94336058Y-50258597D01*
X94385407Y-50332453D01*
X94451023Y-50430655D01*
X94597345Y-50576977D01*
X94769402Y-50691941D01*
X94905385Y-50748267D01*
X94951911Y-50788003D01*
X94966500Y-50839731D01*
X94966500Y-51866564D01*
X94986287Y-51940408D01*
X94986979Y-51942989D01*
X95012627Y-51987413D01*
X95012628Y-51987415D01*
X95012629Y-51987415D01*
X95017924Y-51996587D01*
X95026539Y-52011510D01*
X95359784Y-52344756D01*
X95380408Y-52374916D01*
X95587520Y-52846019D01*
X95587521Y-52846019D01*
X95590563Y-52852939D01*
X95599016Y-52884485D01*
X95621716Y-52923803D01*
X95623894Y-52928756D01*
X95627271Y-52936436D01*
X95635092Y-52952325D01*
X95636065Y-52954104D01*
X95639057Y-52959386D01*
X95639494Y-52959851D01*
X95653097Y-52978157D01*
X95662435Y-52994330D01*
X95671491Y-53010015D01*
X95773985Y-53112509D01*
X95773987Y-53112510D01*
X95773989Y-53112512D01*
X95899511Y-53184982D01*
X95899512Y-53184982D01*
X95899515Y-53184984D01*
X96039525Y-53222500D01*
X96039526Y-53222500D01*
X96184474Y-53222500D01*
X96184475Y-53222500D01*
X96324485Y-53184984D01*
X96324487Y-53184982D01*
X96324489Y-53184982D01*
X96450010Y-53112512D01*
X96450010Y-53112511D01*
X96450015Y-53112509D01*
X96552509Y-53010015D01*
X96566069Y-52986528D01*
X96624982Y-52884489D01*
X96624982Y-52884487D01*
X96624984Y-52884485D01*
X96662500Y-52744475D01*
X96662500Y-52599525D01*
X96624984Y-52459515D01*
X96624982Y-52459512D01*
X96624982Y-52459510D01*
X96552512Y-52333989D01*
X96552510Y-52333987D01*
X96552509Y-52333985D01*
X96450015Y-52231491D01*
X96390608Y-52197192D01*
X96376422Y-52187265D01*
X96363809Y-52181720D01*
X96336613Y-52166018D01*
X96324486Y-52159016D01*
X96300237Y-52152518D01*
X96286019Y-52147520D01*
X95814916Y-51940408D01*
X95784755Y-51919784D01*
X95596496Y-51731525D01*
X95568719Y-51677008D01*
X95567500Y-51661521D01*
X95567500Y-50839731D01*
X95586407Y-50781540D01*
X95628614Y-50748267D01*
X95764598Y-50691941D01*
X95936655Y-50576977D01*
X96082977Y-50430655D01*
X96197941Y-50258598D01*
X96277130Y-50067420D01*
X96279097Y-50057532D01*
X96756500Y-50057532D01*
X96756500Y-50264467D01*
X96796869Y-50467418D01*
X96876058Y-50658597D01*
X96975361Y-50807215D01*
X96991023Y-50830655D01*
X97137345Y-50976977D01*
X97309402Y-51091941D01*
X97445385Y-51148267D01*
X97491911Y-51188003D01*
X97506500Y-51239731D01*
X97506500Y-51573521D01*
X97487593Y-51631712D01*
X97477504Y-51643525D01*
X97368489Y-51752540D01*
X97368488Y-51752539D01*
X97312539Y-51808489D01*
X97272979Y-51877009D01*
X97270495Y-51883006D01*
X97270126Y-51882853D01*
X97265066Y-51895418D01*
X97004157Y-52369012D01*
X96999866Y-52381569D01*
X96991925Y-52399048D01*
X96957016Y-52459514D01*
X96944019Y-52508019D01*
X96919500Y-52599525D01*
X96919500Y-52744475D01*
X96934552Y-52800649D01*
X96957017Y-52884489D01*
X97029487Y-53010010D01*
X97029489Y-53010012D01*
X97029491Y-53010015D01*
X97131985Y-53112509D01*
X97131987Y-53112510D01*
X97131989Y-53112512D01*
X97257511Y-53184982D01*
X97257512Y-53184982D01*
X97257515Y-53184984D01*
X97397525Y-53222500D01*
X97397526Y-53222500D01*
X97542474Y-53222500D01*
X97542475Y-53222500D01*
X97682485Y-53184984D01*
X97682487Y-53184982D01*
X97682489Y-53184982D01*
X97808010Y-53112512D01*
X97808010Y-53112511D01*
X97808015Y-53112509D01*
X97910509Y-53010015D01*
X97982984Y-52884485D01*
X97985822Y-52873890D01*
X98019144Y-52822577D01*
X98076265Y-52800649D01*
X98135366Y-52816483D01*
X98167185Y-52850013D01*
X98240507Y-52977010D01*
X98240509Y-52977012D01*
X98240511Y-52977015D01*
X98343005Y-53079509D01*
X98343007Y-53079510D01*
X98343009Y-53079512D01*
X98468531Y-53151982D01*
X98468532Y-53151982D01*
X98468535Y-53151984D01*
X98608545Y-53189500D01*
X98608546Y-53189500D01*
X98753494Y-53189500D01*
X98753495Y-53189500D01*
X98893505Y-53151984D01*
X98893507Y-53151982D01*
X98893509Y-53151982D01*
X99019030Y-53079512D01*
X99019030Y-53079511D01*
X99019035Y-53079509D01*
X99121529Y-52977015D01*
X99121964Y-52976262D01*
X99194002Y-52851489D01*
X99194002Y-52851487D01*
X99194004Y-52851485D01*
X99231520Y-52711475D01*
X99231520Y-52566525D01*
X104876500Y-52566525D01*
X104876500Y-52711475D01*
X104886762Y-52749773D01*
X104914017Y-52851489D01*
X104986487Y-52977010D01*
X104986489Y-52977012D01*
X104986491Y-52977015D01*
X105088985Y-53079509D01*
X105088987Y-53079510D01*
X105088989Y-53079512D01*
X105214511Y-53151982D01*
X105214512Y-53151982D01*
X105214515Y-53151984D01*
X105354525Y-53189500D01*
X105354526Y-53189500D01*
X105499474Y-53189500D01*
X105499475Y-53189500D01*
X105639485Y-53151984D01*
X105639487Y-53151982D01*
X105639489Y-53151982D01*
X105765011Y-53079512D01*
X105765012Y-53079510D01*
X105765015Y-53079509D01*
X105808455Y-53036067D01*
X105810340Y-53034234D01*
X105953945Y-52898480D01*
X105972444Y-52884694D01*
X105981511Y-52879460D01*
X106037460Y-52823511D01*
X106109326Y-52751643D01*
X106111213Y-52749809D01*
X106228726Y-52638722D01*
X106230662Y-52636868D01*
X106230898Y-52636639D01*
X106239530Y-52623927D01*
X106251418Y-52609551D01*
X106625156Y-52235813D01*
X106655310Y-52215194D01*
X107133330Y-52005041D01*
X107164882Y-51996587D01*
X107204214Y-51973878D01*
X107216819Y-51968337D01*
X107232740Y-51960500D01*
X107234504Y-51959535D01*
X107239781Y-51956546D01*
X107240242Y-51956112D01*
X107258549Y-51942507D01*
X107290412Y-51924112D01*
X107392906Y-51821618D01*
X107417763Y-51778564D01*
X107465379Y-51696092D01*
X107465379Y-51696090D01*
X107465381Y-51696088D01*
X107502897Y-51556078D01*
X107502897Y-51411128D01*
X107465381Y-51271118D01*
X107465379Y-51271115D01*
X107465379Y-51271113D01*
X107392909Y-51145592D01*
X107392907Y-51145590D01*
X107392906Y-51145588D01*
X107290412Y-51043094D01*
X107290409Y-51043092D01*
X107290407Y-51043090D01*
X107164885Y-50970620D01*
X107164886Y-50970620D01*
X107135293Y-50962690D01*
X107024872Y-50933103D01*
X106879922Y-50933103D01*
X106818187Y-50949644D01*
X106739907Y-50970620D01*
X106614386Y-51043090D01*
X106614381Y-51043094D01*
X106511891Y-51145583D01*
X106511888Y-51145587D01*
X106479745Y-51201256D01*
X106479746Y-51201257D01*
X106477591Y-51204990D01*
X106467663Y-51219179D01*
X106462117Y-51231790D01*
X106459412Y-51236477D01*
X106459409Y-51236483D01*
X106439412Y-51271120D01*
X106432915Y-51295366D01*
X106427917Y-51309584D01*
X106220804Y-51780686D01*
X106200180Y-51810847D01*
X105917491Y-52093536D01*
X105862974Y-52121313D01*
X105838058Y-52122082D01*
X105525361Y-52092163D01*
X105525204Y-52092162D01*
X105524875Y-52092117D01*
X105521154Y-52091761D01*
X105521168Y-52091610D01*
X105500580Y-52088795D01*
X105499482Y-52088501D01*
X105499475Y-52088500D01*
X105354525Y-52088500D01*
X105338168Y-52092883D01*
X105214510Y-52126017D01*
X105088989Y-52198487D01*
X104986487Y-52300989D01*
X104914017Y-52426510D01*
X104882933Y-52542516D01*
X104876500Y-52566525D01*
X99231520Y-52566525D01*
X99220828Y-52526623D01*
X99220503Y-52525254D01*
X99220559Y-52524553D01*
X99218353Y-52512606D01*
X99217968Y-52508901D01*
X99216798Y-52497639D01*
X99035938Y-51912795D01*
X99031520Y-51883547D01*
X99031520Y-51813169D01*
X99050427Y-51754978D01*
X99060510Y-51743171D01*
X99996467Y-50807213D01*
X100050982Y-50779438D01*
X100085780Y-50780120D01*
X100243535Y-50811500D01*
X100243536Y-50811500D01*
X100450464Y-50811500D01*
X100450465Y-50811500D01*
X100653420Y-50771130D01*
X100844598Y-50691941D01*
X101016655Y-50576977D01*
X101162977Y-50430655D01*
X101277941Y-50258598D01*
X101357130Y-50067420D01*
X101397500Y-49864465D01*
X101397500Y-49657535D01*
X101357130Y-49454580D01*
X101277941Y-49263402D01*
X101162977Y-49091345D01*
X101016655Y-48945023D01*
X100981021Y-48921213D01*
X100844597Y-48830058D01*
X100653418Y-48750869D01*
X100450467Y-48710500D01*
X100450465Y-48710500D01*
X100243535Y-48710500D01*
X100243532Y-48710500D01*
X100040581Y-48750869D01*
X99849402Y-48830058D01*
X99677348Y-48945020D01*
X99531020Y-49091348D01*
X99416058Y-49263402D01*
X99336869Y-49454581D01*
X99296500Y-49657532D01*
X99296500Y-49864467D01*
X99336869Y-50067418D01*
X99416059Y-50258598D01*
X99416059Y-50258599D01*
X99426059Y-50273565D01*
X99442667Y-50332453D01*
X99421488Y-50389856D01*
X99413747Y-50398568D01*
X98400550Y-51411767D01*
X98373292Y-51458978D01*
X98373293Y-51458979D01*
X98354406Y-51491690D01*
X98330520Y-51580837D01*
X98330520Y-51883546D01*
X98326101Y-51912795D01*
X98163598Y-52438278D01*
X98128343Y-52488285D01*
X98070427Y-52508019D01*
X98011973Y-52489942D01*
X97975308Y-52440960D01*
X97975193Y-52440622D01*
X97961194Y-52399048D01*
X97882726Y-52166015D01*
X97882076Y-52104836D01*
X97906546Y-52064424D01*
X98047460Y-51923511D01*
X98067398Y-51888977D01*
X98087021Y-51854989D01*
X98107500Y-51778562D01*
X98107500Y-51239731D01*
X98126407Y-51181540D01*
X98168614Y-51148267D01*
X98304598Y-51091941D01*
X98476655Y-50976977D01*
X98622977Y-50830655D01*
X98737941Y-50658598D01*
X98817130Y-50467420D01*
X98857500Y-50264465D01*
X98857500Y-50057535D01*
X98817130Y-49854580D01*
X98737941Y-49663402D01*
X98622977Y-49491345D01*
X98476655Y-49345023D01*
X98476651Y-49345020D01*
X98304597Y-49230058D01*
X98113418Y-49150869D01*
X97910467Y-49110500D01*
X97910465Y-49110500D01*
X97703535Y-49110500D01*
X97703532Y-49110500D01*
X97500581Y-49150869D01*
X97309402Y-49230058D01*
X97137348Y-49345020D01*
X96991020Y-49491348D01*
X96876058Y-49663402D01*
X96796869Y-49854581D01*
X96756500Y-50057532D01*
X96279097Y-50057532D01*
X96317500Y-49864465D01*
X96317500Y-49657535D01*
X96277130Y-49454580D01*
X96197941Y-49263402D01*
X96082977Y-49091345D01*
X95936655Y-48945023D01*
X95901021Y-48921213D01*
X95764597Y-48830058D01*
X95573418Y-48750869D01*
X95370467Y-48710500D01*
X95370465Y-48710500D01*
X95163535Y-48710500D01*
X95163532Y-48710500D01*
X94960581Y-48750869D01*
X94769402Y-48830058D01*
X94597348Y-48945020D01*
X94451020Y-49091348D01*
X94336058Y-49263402D01*
X94256869Y-49454581D01*
X94216500Y-49657532D01*
X93654019Y-49657532D01*
X93542977Y-49491345D01*
X93396655Y-49345023D01*
X93396651Y-49345020D01*
X93224597Y-49230058D01*
X93033418Y-49150869D01*
X92830467Y-49110500D01*
X92830465Y-49110500D01*
X92623535Y-49110500D01*
X92623532Y-49110500D01*
X92420581Y-49150869D01*
X92229402Y-49230058D01*
X92057348Y-49345020D01*
X91911020Y-49491348D01*
X91796058Y-49663402D01*
X91716869Y-49854581D01*
X91676500Y-50057532D01*
X91287000Y-50057532D01*
X91287000Y-50011001D01*
X91286999Y-50011000D01*
X90620012Y-50011000D01*
X90652925Y-49953993D01*
X90687000Y-49826826D01*
X90687000Y-49695174D01*
X90652925Y-49568007D01*
X90620012Y-49511000D01*
X91286999Y-49511000D01*
X91287000Y-49510999D01*
X91287000Y-48886377D01*
X91286999Y-48886375D01*
X91272493Y-48813453D01*
X91272492Y-48813451D01*
X91217241Y-48730762D01*
X91217237Y-48730758D01*
X91134548Y-48675507D01*
X91134546Y-48675506D01*
X91061624Y-48661000D01*
X90437001Y-48661000D01*
X90437000Y-48661001D01*
X90437000Y-49327988D01*
X90379993Y-49295075D01*
X90252826Y-49261000D01*
X90121174Y-49261000D01*
X89994007Y-49295075D01*
X89937000Y-49327988D01*
X89937000Y-48661001D01*
X89936999Y-48661000D01*
X89312375Y-48661000D01*
X89239453Y-48675506D01*
X89239451Y-48675507D01*
X89156762Y-48730758D01*
X89156758Y-48730762D01*
X89101507Y-48813451D01*
X89101506Y-48813453D01*
X89087000Y-48886375D01*
X65841248Y-48886375D01*
X65871304Y-48856319D01*
X65880236Y-48848407D01*
X66108424Y-48669633D01*
X66118234Y-48662862D01*
X66366303Y-48512900D01*
X66376875Y-48507351D01*
X66641218Y-48388379D01*
X66652370Y-48384149D01*
X66929121Y-48297911D01*
X66940715Y-48295053D01*
X67225837Y-48242802D01*
X67237688Y-48241363D01*
X67352537Y-48234416D01*
X67530036Y-48223681D01*
X67536013Y-48223500D01*
X67598892Y-48223500D01*
X135889108Y-48223500D01*
X135952015Y-48223500D01*
X135957992Y-48223681D01*
G37*
%TD.AperFunction*%
%TD*%
%TA.AperFunction,Conductor*%
%TO.N,/NRST*%
G36*
X97496454Y-51925539D02*
G01*
X97499081Y-51927514D01*
X97627554Y-52055987D01*
X97630369Y-52060526D01*
X97809034Y-52591124D01*
X97808427Y-52600058D01*
X97801680Y-52605946D01*
X97800247Y-52606330D01*
X97474073Y-52671748D01*
X97465287Y-52670014D01*
X97465245Y-52669986D01*
X97361223Y-52600058D01*
X97187873Y-52483524D01*
X97182919Y-52476065D01*
X97184152Y-52468171D01*
X97480562Y-51930139D01*
X97487554Y-51924549D01*
X97496454Y-51925539D01*
G37*
%TD.AperFunction*%
%TD*%
%TA.AperFunction,Conductor*%
%TO.N,/LED2_EN*%
G36*
X84547641Y-51412530D02*
G01*
X84555072Y-51417526D01*
X84556795Y-51426314D01*
X84556229Y-51428243D01*
X84320902Y-52032819D01*
X84314708Y-52039286D01*
X84309999Y-52040275D01*
X84126001Y-52040275D01*
X84117728Y-52036848D01*
X84115098Y-52032819D01*
X83879770Y-51428243D01*
X83879962Y-51419290D01*
X83886429Y-51413096D01*
X83888352Y-51412531D01*
X84215686Y-51346467D01*
X84220314Y-51346467D01*
X84547641Y-51412530D01*
G37*
%TD.AperFunction*%
%TD*%
%TA.AperFunction,Conductor*%
%TO.N,/LED2_EN*%
G36*
X84318272Y-52460268D02*
G01*
X84320902Y-52464297D01*
X84556229Y-53068872D01*
X84556037Y-53077825D01*
X84549570Y-53084019D01*
X84547641Y-53084585D01*
X84220315Y-53150648D01*
X84215685Y-53150648D01*
X83888358Y-53084585D01*
X83880927Y-53079589D01*
X83879204Y-53070801D01*
X83879770Y-53068872D01*
X84115098Y-52464297D01*
X84121292Y-52457830D01*
X84126001Y-52456841D01*
X84309999Y-52456841D01*
X84318272Y-52460268D01*
G37*
%TD.AperFunction*%
%TD*%
%TA.AperFunction,Conductor*%
%TO.N,/LED1_EN*%
G36*
X106671205Y-51295883D02*
G01*
X106672969Y-51296848D01*
X106761125Y-51355395D01*
X106951138Y-51481590D01*
X106954410Y-51484862D01*
X107139151Y-51763030D01*
X107140874Y-51771818D01*
X107135878Y-51779249D01*
X107134114Y-51780214D01*
X106540213Y-52041313D01*
X106531260Y-52041505D01*
X106527231Y-52038875D01*
X106397124Y-51908768D01*
X106393697Y-51900495D01*
X106394684Y-51895791D01*
X106655786Y-51301884D01*
X106662252Y-51295691D01*
X106671205Y-51295883D01*
G37*
%TD.AperFunction*%
%TD*%
%TA.AperFunction,Conductor*%
%TO.N,/LED1_EN*%
G36*
X105950694Y-52339299D02*
G01*
X105957852Y-52342673D01*
X106087791Y-52472612D01*
X106091218Y-52480885D01*
X106087791Y-52489158D01*
X106087555Y-52489387D01*
X105631488Y-52920522D01*
X105623122Y-52923715D01*
X105614949Y-52920057D01*
X105613741Y-52918547D01*
X105429012Y-52643752D01*
X105427241Y-52634978D01*
X105493206Y-52306073D01*
X105498192Y-52298639D01*
X105505789Y-52296730D01*
X105950694Y-52339299D01*
G37*
%TD.AperFunction*%
%TD*%
%TA.AperFunction,Conductor*%
%TO.N,/SWC*%
G36*
X92827272Y-52065152D02*
G01*
X92829902Y-52069181D01*
X93065229Y-52673756D01*
X93065037Y-52682709D01*
X93058570Y-52688903D01*
X93056641Y-52689469D01*
X92729315Y-52755532D01*
X92724685Y-52755532D01*
X92397358Y-52689469D01*
X92389927Y-52684473D01*
X92388204Y-52675685D01*
X92388770Y-52673756D01*
X92624098Y-52069181D01*
X92630292Y-52062714D01*
X92635001Y-52061725D01*
X92818999Y-52061725D01*
X92827272Y-52065152D01*
G37*
%TD.AperFunction*%
%TD*%
%TA.AperFunction,Conductor*%
%TO.N,+3V3*%
G36*
X98830664Y-51949152D02*
G01*
X98833569Y-51953968D01*
X99020471Y-52558352D01*
X99019641Y-52567269D01*
X99012750Y-52572987D01*
X99011608Y-52573278D01*
X98683335Y-52639532D01*
X98678705Y-52639532D01*
X98350431Y-52573278D01*
X98343000Y-52568282D01*
X98341277Y-52559494D01*
X98341562Y-52558372D01*
X98528471Y-51953968D01*
X98534189Y-51947077D01*
X98539649Y-51945725D01*
X98822391Y-51945725D01*
X98830664Y-51949152D01*
G37*
%TD.AperFunction*%
%TD*%
%TA.AperFunction,Conductor*%
%TO.N,+3V3*%
G36*
X95873986Y-56758874D02*
G01*
X95874997Y-56759475D01*
X96153973Y-56944753D01*
X96157245Y-56948025D01*
X96342521Y-57226998D01*
X96344244Y-57235786D01*
X96339248Y-57243217D01*
X96338235Y-57243819D01*
X95778710Y-57539024D01*
X95769793Y-57539854D01*
X95764977Y-57536949D01*
X95565048Y-57337020D01*
X95561621Y-57328747D01*
X95562972Y-57323289D01*
X95858179Y-56763760D01*
X95865069Y-56758044D01*
X95873986Y-56758874D01*
G37*
%TD.AperFunction*%
%TD*%
%TA.AperFunction,Conductor*%
%TO.N,+3V3*%
G36*
X95339714Y-57562354D02*
G01*
X95539643Y-57762283D01*
X95543070Y-57770556D01*
X95541718Y-57776016D01*
X95246514Y-58335542D01*
X95239623Y-58341260D01*
X95230706Y-58340430D01*
X95229693Y-58339828D01*
X94950720Y-58154552D01*
X94947448Y-58151280D01*
X94762170Y-57872305D01*
X94760448Y-57863518D01*
X94765444Y-57856087D01*
X94766441Y-57855494D01*
X95325982Y-57560278D01*
X95334898Y-57559449D01*
X95339714Y-57562354D01*
G37*
%TD.AperFunction*%
%TD*%
%TA.AperFunction,Conductor*%
%TO.N,/SWD*%
G36*
X95699812Y-52114288D02*
G01*
X96293717Y-52375388D01*
X96299911Y-52381855D01*
X96299719Y-52390808D01*
X96298754Y-52392572D01*
X96114013Y-52670740D01*
X96110740Y-52674013D01*
X95832572Y-52858754D01*
X95823784Y-52860477D01*
X95816353Y-52855481D01*
X95815388Y-52853717D01*
X95734945Y-52670740D01*
X95554288Y-52259813D01*
X95554097Y-52250863D01*
X95556725Y-52246836D01*
X95686835Y-52116726D01*
X95695107Y-52113300D01*
X95699812Y-52114288D01*
G37*
%TD.AperFunction*%
%TD*%
%TA.AperFunction,Conductor*%
%TO.N,5V*%
G36*
X135136767Y-59250487D02*
G01*
X135140194Y-59258760D01*
X135140168Y-59259538D01*
X135093158Y-59964822D01*
X135089189Y-59972849D01*
X135080706Y-59975718D01*
X135079234Y-59975526D01*
X134749020Y-59910803D01*
X134748955Y-59910790D01*
X134419437Y-59844285D01*
X134412006Y-59839289D01*
X134410283Y-59830501D01*
X134410873Y-59828510D01*
X134638074Y-59254454D01*
X134644305Y-59248023D01*
X134648953Y-59247060D01*
X135128494Y-59247060D01*
X135136767Y-59250487D01*
G37*
%TD.AperFunction*%
%TD*%
%TA.AperFunction,Conductor*%
%TO.N,5V*%
G36*
X135088011Y-56755045D02*
G01*
X135092966Y-56762505D01*
X135093158Y-56763977D01*
X135140168Y-57469262D01*
X135137299Y-57477745D01*
X135129272Y-57481714D01*
X135128494Y-57481740D01*
X134648953Y-57481740D01*
X134640680Y-57478313D01*
X134638074Y-57474346D01*
X134410873Y-56900289D01*
X134411015Y-56891335D01*
X134417446Y-56885104D01*
X134419431Y-56884515D01*
X134749000Y-56818000D01*
X135079236Y-56753273D01*
X135088011Y-56755045D01*
G37*
%TD.AperFunction*%
%TD*%
%TA.AperFunction,Conductor*%
%TO.N,+BATT*%
G36*
X130363789Y-60974952D02*
G01*
X130367088Y-60981498D01*
X130457233Y-61585521D01*
X130455065Y-61594209D01*
X130447976Y-61598717D01*
X130117915Y-61665332D01*
X130113285Y-61665332D01*
X129783223Y-61598717D01*
X129775792Y-61593721D01*
X129773966Y-61585521D01*
X129864112Y-60981498D01*
X129868723Y-60973821D01*
X129875684Y-60971525D01*
X130355516Y-60971525D01*
X130363789Y-60974952D01*
G37*
%TD.AperFunction*%
%TD*%
%TA.AperFunction,Conductor*%
%TO.N,+BATT*%
G36*
X127708409Y-62169134D02*
G01*
X127712917Y-62176223D01*
X127779532Y-62506285D01*
X127779532Y-62510915D01*
X127712917Y-62840976D01*
X127707921Y-62848407D01*
X127699721Y-62850233D01*
X127095698Y-62760088D01*
X127088021Y-62755477D01*
X127085725Y-62748516D01*
X127085725Y-62268683D01*
X127089152Y-62260410D01*
X127095696Y-62257111D01*
X127699721Y-62166966D01*
X127708409Y-62169134D01*
G37*
%TD.AperFunction*%
%TD*%
%TA.AperFunction,Conductor*%
%TO.N,+BATT*%
G36*
X125414303Y-62257111D02*
G01*
X125421979Y-62261722D01*
X125424275Y-62268683D01*
X125424275Y-62748516D01*
X125420848Y-62756789D01*
X125414302Y-62760088D01*
X124810278Y-62850233D01*
X124801590Y-62848065D01*
X124797082Y-62840976D01*
X124780456Y-62758600D01*
X124730467Y-62510913D01*
X124730467Y-62506285D01*
X124797082Y-62176221D01*
X124802078Y-62168792D01*
X124810278Y-62166966D01*
X125414303Y-62257111D01*
G37*
%TD.AperFunction*%
%TD*%
%TA.AperFunction,Conductor*%
%TO.N,/VBAT_SYS*%
G36*
X103113808Y-56885280D02*
G01*
X103115572Y-56886245D01*
X103203728Y-56944792D01*
X103393741Y-57070987D01*
X103397013Y-57074259D01*
X103581754Y-57352427D01*
X103583477Y-57361215D01*
X103578481Y-57368646D01*
X103576717Y-57369611D01*
X102982816Y-57630710D01*
X102973863Y-57630902D01*
X102969834Y-57628272D01*
X102839727Y-57498165D01*
X102836300Y-57489892D01*
X102837287Y-57485188D01*
X103098389Y-56891281D01*
X103104855Y-56885088D01*
X103113808Y-56885280D01*
G37*
%TD.AperFunction*%
%TD*%
%TA.AperFunction,Conductor*%
%TO.N,/VBAT_SYS*%
G36*
X101630315Y-58711089D02*
G01*
X101760405Y-58841179D01*
X101763832Y-58849452D01*
X101763774Y-58850613D01*
X101707551Y-59414482D01*
X101703320Y-59422374D01*
X101694748Y-59424963D01*
X101693654Y-59424802D01*
X101367082Y-59360647D01*
X101359624Y-59355689D01*
X101359591Y-59355639D01*
X101174467Y-59076896D01*
X101172744Y-59068108D01*
X101176893Y-59061296D01*
X101614723Y-58710233D01*
X101623321Y-58707732D01*
X101630315Y-58711089D01*
G37*
%TD.AperFunction*%
%TD*%
%TA.AperFunction,Conductor*%
%TO.N,/VBAT_SYS*%
G36*
X107991622Y-54740370D02*
G01*
X107999686Y-54744262D01*
X108002655Y-54752051D01*
X108002655Y-55330214D01*
X107999228Y-55338487D01*
X107991905Y-55341875D01*
X107388024Y-55391051D01*
X107379500Y-55388307D01*
X107375605Y-55381705D01*
X107367566Y-55341875D01*
X107308847Y-55050933D01*
X107308847Y-55046305D01*
X107368235Y-54752051D01*
X107375655Y-54715287D01*
X107380651Y-54707857D01*
X107387787Y-54705922D01*
X107991622Y-54740370D01*
G37*
%TD.AperFunction*%
%TD*%
%TA.AperFunction,Conductor*%
%TO.N,/VBAT_SYS*%
G36*
X109931756Y-54193281D02*
G01*
X109935543Y-54199791D01*
X110002326Y-54530685D01*
X110002326Y-54535315D01*
X109935543Y-54866208D01*
X109930547Y-54873639D01*
X109923266Y-54875565D01*
X109319411Y-54833754D01*
X109311394Y-54829764D01*
X109308519Y-54822082D01*
X109308519Y-54243917D01*
X109311946Y-54235644D01*
X109319408Y-54232245D01*
X109923267Y-54190434D01*
X109931756Y-54193281D01*
G37*
%TD.AperFunction*%
%TD*%
%TA.AperFunction,Conductor*%
%TO.N,/VM*%
G36*
X71942243Y-58051570D02*
G01*
X72546820Y-58286898D01*
X72553286Y-58293091D01*
X72554275Y-58297800D01*
X72554275Y-58481799D01*
X72550848Y-58490072D01*
X72546819Y-58492702D01*
X71942243Y-58728029D01*
X71933290Y-58727837D01*
X71927096Y-58721370D01*
X71926530Y-58719441D01*
X71880237Y-58490072D01*
X71860467Y-58392113D01*
X71860467Y-58387485D01*
X71879518Y-58293091D01*
X71926530Y-58060156D01*
X71931526Y-58052727D01*
X71940314Y-58051004D01*
X71942243Y-58051570D01*
G37*
%TD.AperFunction*%
%TD*%
%TA.AperFunction,Conductor*%
%TO.N,/VM*%
G36*
X73388709Y-58051762D02*
G01*
X73394903Y-58058229D01*
X73395469Y-58060158D01*
X73461532Y-58387485D01*
X73461532Y-58392115D01*
X73395469Y-58719441D01*
X73390473Y-58726872D01*
X73381685Y-58728595D01*
X73379756Y-58728029D01*
X72775181Y-58492702D01*
X72768714Y-58486508D01*
X72767725Y-58481799D01*
X72767725Y-58297800D01*
X72771152Y-58289527D01*
X72775177Y-58286898D01*
X73379756Y-58051570D01*
X73388709Y-58051762D01*
G37*
%TD.AperFunction*%
%TD*%
%TA.AperFunction,Conductor*%
%TO.N,/CHRG*%
G36*
X128333984Y-64355880D02*
G01*
X128341415Y-64360876D01*
X128343138Y-64369664D01*
X128342572Y-64371593D01*
X128107245Y-64976169D01*
X128101051Y-64982636D01*
X128096342Y-64983625D01*
X127912344Y-64983625D01*
X127904071Y-64980198D01*
X127901441Y-64976169D01*
X127666113Y-64371593D01*
X127666305Y-64362640D01*
X127672772Y-64356446D01*
X127674695Y-64355881D01*
X128002029Y-64289817D01*
X128006657Y-64289817D01*
X128333984Y-64355880D01*
G37*
%TD.AperFunction*%
%TD*%
%TA.AperFunction,Conductor*%
%TO.N,/CHRG*%
G36*
X128104615Y-64990495D02*
G01*
X128107245Y-64994524D01*
X128342572Y-65599099D01*
X128342380Y-65608052D01*
X128335913Y-65614246D01*
X128333984Y-65614812D01*
X128006658Y-65680875D01*
X128002028Y-65680875D01*
X127674701Y-65614812D01*
X127667270Y-65609816D01*
X127665547Y-65601028D01*
X127666113Y-65599099D01*
X127901441Y-64994524D01*
X127907635Y-64988057D01*
X127912344Y-64987068D01*
X128096342Y-64987068D01*
X128104615Y-64990495D01*
G37*
%TD.AperFunction*%
%TD*%
%TA.AperFunction,Conductor*%
%TO.N,/BTN*%
G36*
X95149503Y-55870128D02*
G01*
X95185995Y-55877281D01*
X95193455Y-55882236D01*
X95193483Y-55882278D01*
X95377411Y-56158490D01*
X95379145Y-56167276D01*
X95374158Y-56174713D01*
X95372245Y-56175745D01*
X94861191Y-56392714D01*
X94856619Y-56393644D01*
X94675082Y-56393644D01*
X94666809Y-56390217D01*
X94663382Y-56381944D01*
X94663950Y-56378343D01*
X94729824Y-56174713D01*
X94844311Y-55820812D01*
X94850117Y-55813997D01*
X94857690Y-55812933D01*
X95149503Y-55870128D01*
G37*
%TD.AperFunction*%
%TD*%
%TA.AperFunction,Conductor*%
%TO.N,/BTN*%
G36*
X94609100Y-56838792D02*
G01*
X94739207Y-56968899D01*
X94742634Y-56977172D01*
X94741645Y-56981881D01*
X94480546Y-57575782D01*
X94474079Y-57581976D01*
X94465126Y-57581784D01*
X94463362Y-57580819D01*
X94185194Y-57396078D01*
X94181922Y-57392806D01*
X93997180Y-57114637D01*
X93995457Y-57105849D01*
X94000453Y-57098418D01*
X94002211Y-57097456D01*
X94596121Y-56836353D01*
X94605071Y-56836162D01*
X94609100Y-56838792D01*
G37*
%TD.AperFunction*%
%TD*%
M02*
