%TF.GenerationSoftware,KiCad,Pcbnew,9.0.6*%
%TF.CreationDate,2026-01-18T22:32:43-05:00*%
%TF.ProjectId,Photon,50686f74-6f6e-42e6-9b69-6361645f7063,1.3*%
%TF.SameCoordinates,Original*%
%TF.FileFunction,Drillmap*%
%TF.FilePolarity,Positive*%
%FSLAX45Y45*%
G04 Gerber Fmt 4.5, Leading zero omitted, Abs format (unit mm)*
G04 Created by KiCad (PCBNEW 9.0.6) date 2026-01-18 22:32:43*
%MOMM*%
%LPD*%
G01*
G04 APERTURE LIST*
%ADD10C,0.200000*%
G04 APERTURE END LIST*
D10*
X6753300Y-4772300D02*
X13595500Y-4772300D01*
X13895500Y-6596300D02*
G75*
G02*
X13595500Y-6896300I-300000J0D01*
G01*
X6753300Y-6896300D02*
G75*
G02*
X6453300Y-6596300I0J300000D01*
G01*
X13895500Y-5072300D02*
X13895500Y-6596300D01*
X6453300Y-5072300D02*
G75*
G02*
X6753300Y-4772300I300000J0D01*
G01*
X13595500Y-6896300D02*
X6753300Y-6896300D01*
X13595500Y-4772300D02*
G75*
G02*
X13895500Y-5072300I0J-300000D01*
G01*
X6453300Y-6596300D02*
X6453300Y-5072300D01*
X6704077Y-7217784D02*
X6704077Y-7017784D01*
X6704077Y-7017784D02*
X6751696Y-7017784D01*
X6751696Y-7017784D02*
X6780267Y-7027308D01*
X6780267Y-7027308D02*
X6799315Y-7046355D01*
X6799315Y-7046355D02*
X6808839Y-7065403D01*
X6808839Y-7065403D02*
X6818363Y-7103498D01*
X6818363Y-7103498D02*
X6818363Y-7132069D01*
X6818363Y-7132069D02*
X6808839Y-7170165D01*
X6808839Y-7170165D02*
X6799315Y-7189212D01*
X6799315Y-7189212D02*
X6780267Y-7208260D01*
X6780267Y-7208260D02*
X6751696Y-7217784D01*
X6751696Y-7217784D02*
X6704077Y-7217784D01*
X6904077Y-7217784D02*
X6904077Y-7084450D01*
X6904077Y-7122546D02*
X6913601Y-7103498D01*
X6913601Y-7103498D02*
X6923124Y-7093974D01*
X6923124Y-7093974D02*
X6942172Y-7084450D01*
X6942172Y-7084450D02*
X6961220Y-7084450D01*
X7027886Y-7217784D02*
X7027886Y-7084450D01*
X7027886Y-7017784D02*
X7018363Y-7027308D01*
X7018363Y-7027308D02*
X7027886Y-7036831D01*
X7027886Y-7036831D02*
X7037410Y-7027308D01*
X7037410Y-7027308D02*
X7027886Y-7017784D01*
X7027886Y-7017784D02*
X7027886Y-7036831D01*
X7151696Y-7217784D02*
X7132648Y-7208260D01*
X7132648Y-7208260D02*
X7123124Y-7189212D01*
X7123124Y-7189212D02*
X7123124Y-7017784D01*
X7256458Y-7217784D02*
X7237410Y-7208260D01*
X7237410Y-7208260D02*
X7227886Y-7189212D01*
X7227886Y-7189212D02*
X7227886Y-7017784D01*
X7485029Y-7217784D02*
X7485029Y-7017784D01*
X7485029Y-7017784D02*
X7551696Y-7160641D01*
X7551696Y-7160641D02*
X7618363Y-7017784D01*
X7618363Y-7017784D02*
X7618363Y-7217784D01*
X7799315Y-7217784D02*
X7799315Y-7113022D01*
X7799315Y-7113022D02*
X7789791Y-7093974D01*
X7789791Y-7093974D02*
X7770744Y-7084450D01*
X7770744Y-7084450D02*
X7732648Y-7084450D01*
X7732648Y-7084450D02*
X7713601Y-7093974D01*
X7799315Y-7208260D02*
X7780267Y-7217784D01*
X7780267Y-7217784D02*
X7732648Y-7217784D01*
X7732648Y-7217784D02*
X7713601Y-7208260D01*
X7713601Y-7208260D02*
X7704077Y-7189212D01*
X7704077Y-7189212D02*
X7704077Y-7170165D01*
X7704077Y-7170165D02*
X7713601Y-7151117D01*
X7713601Y-7151117D02*
X7732648Y-7141593D01*
X7732648Y-7141593D02*
X7780267Y-7141593D01*
X7780267Y-7141593D02*
X7799315Y-7132069D01*
X7894553Y-7084450D02*
X7894553Y-7284450D01*
X7894553Y-7093974D02*
X7913601Y-7084450D01*
X7913601Y-7084450D02*
X7951696Y-7084450D01*
X7951696Y-7084450D02*
X7970744Y-7093974D01*
X7970744Y-7093974D02*
X7980267Y-7103498D01*
X7980267Y-7103498D02*
X7989791Y-7122546D01*
X7989791Y-7122546D02*
X7989791Y-7179688D01*
X7989791Y-7179688D02*
X7980267Y-7198736D01*
X7980267Y-7198736D02*
X7970744Y-7208260D01*
X7970744Y-7208260D02*
X7951696Y-7217784D01*
X7951696Y-7217784D02*
X7913601Y-7217784D01*
X7913601Y-7217784D02*
X7894553Y-7208260D01*
X8075505Y-7198736D02*
X8085029Y-7208260D01*
X8085029Y-7208260D02*
X8075505Y-7217784D01*
X8075505Y-7217784D02*
X8065982Y-7208260D01*
X8065982Y-7208260D02*
X8075505Y-7198736D01*
X8075505Y-7198736D02*
X8075505Y-7217784D01*
X8075505Y-7093974D02*
X8085029Y-7103498D01*
X8085029Y-7103498D02*
X8075505Y-7113022D01*
X8075505Y-7113022D02*
X8065982Y-7103498D01*
X8065982Y-7103498D02*
X8075505Y-7093974D01*
X8075505Y-7093974D02*
X8075505Y-7113022D01*
M02*
