%TF.GenerationSoftware,KiCad,Pcbnew,9.0.6*%
%TF.CreationDate,2026-01-18T22:32:43-05:00*%
%TF.ProjectId,Photon,50686f74-6f6e-42e6-9b69-6361645f7063,1.3*%
%TF.SameCoordinates,Original*%
%TF.FileFunction,Drillmap*%
%TF.FilePolarity,Positive*%
%FSLAX45Y45*%
G04 Gerber Fmt 4.5, Leading zero omitted, Abs format (unit mm)*
G04 Created by KiCad (PCBNEW 9.0.6) date 2026-01-18 22:32:43*
%MOMM*%
%LPD*%
G01*
G04 APERTURE LIST*
%ADD10C,0.200000*%
%ADD11C,0.100000*%
%ADD12C,0.180000*%
G04 APERTURE END LIST*
D10*
X6753300Y-4772300D02*
X13595500Y-4772300D01*
X13895500Y-6596300D02*
G75*
G02*
X13595500Y-6896300I-300000J0D01*
G01*
X6753300Y-6896300D02*
G75*
G02*
X6453300Y-6596300I0J300000D01*
G01*
X13895500Y-5072300D02*
X13895500Y-6596300D01*
X6453300Y-5072300D02*
G75*
G02*
X6753300Y-4772300I300000J0D01*
G01*
X13595500Y-6896300D02*
X6753300Y-6896300D01*
X13595500Y-4772300D02*
G75*
G02*
X13895500Y-5072300I0J-300000D01*
G01*
X6453300Y-6596300D02*
X6453300Y-5072300D01*
D11*
X6641500Y-5362100D02*
X6671500Y-5392100D01*
X6671500Y-5362100D02*
X6641500Y-5392100D01*
X6666900Y-6378100D02*
X6696900Y-6408100D01*
X6696900Y-6378100D02*
X6666900Y-6408100D01*
X7073300Y-6733700D02*
X7103300Y-6763700D01*
X7103300Y-6733700D02*
X7073300Y-6763700D01*
X7171100Y-5823980D02*
X7201100Y-5853980D01*
X7201100Y-5823980D02*
X7171100Y-5853980D01*
X7331100Y-5823980D02*
X7361100Y-5853980D01*
X7361100Y-5823980D02*
X7331100Y-5853980D01*
X7343820Y-6212450D02*
X7373820Y-6242450D01*
X7373820Y-6212450D02*
X7343820Y-6242450D01*
X7454300Y-4930300D02*
X7484300Y-4960300D01*
X7484300Y-4930300D02*
X7454300Y-4960300D01*
X7657500Y-6505100D02*
X7687500Y-6535100D01*
X7687500Y-6505100D02*
X7657500Y-6535100D01*
X7682900Y-5823980D02*
X7712900Y-5853980D01*
X7712900Y-5823980D02*
X7682900Y-5853980D01*
X7835300Y-5057300D02*
X7865300Y-5087300D01*
X7865300Y-5057300D02*
X7835300Y-5087300D01*
X7911500Y-6174900D02*
X7941500Y-6204900D01*
X7941500Y-6174900D02*
X7911500Y-6204900D01*
X7911500Y-6784500D02*
X7941500Y-6814500D01*
X7941500Y-6784500D02*
X7911500Y-6814500D01*
X7987700Y-5325350D02*
X8017700Y-5355350D01*
X8017700Y-5325350D02*
X7987700Y-5355350D01*
X8140100Y-5793900D02*
X8170100Y-5823900D01*
X8170100Y-5793900D02*
X8140100Y-5823900D01*
X8406800Y-5119700D02*
X8436800Y-5149700D01*
X8436800Y-5119700D02*
X8406800Y-5149700D01*
X8406800Y-5300012D02*
X8436800Y-5330012D01*
X8436800Y-5300012D02*
X8406800Y-5330012D01*
X8521100Y-6301900D02*
X8551100Y-6331900D01*
X8551100Y-6301900D02*
X8521100Y-6331900D01*
X8521100Y-6581300D02*
X8551100Y-6611300D01*
X8551100Y-6581300D02*
X8521100Y-6611300D01*
X8825900Y-4981100D02*
X8855900Y-5011100D01*
X8855900Y-4981100D02*
X8825900Y-5011100D01*
X9257700Y-5260500D02*
X9287700Y-5290500D01*
X9287700Y-5260500D02*
X9257700Y-5290500D01*
X9257700Y-6073300D02*
X9287700Y-6103300D01*
X9287700Y-6073300D02*
X9257700Y-6103300D01*
X9283100Y-6784500D02*
X9313100Y-6814500D01*
X9313100Y-6784500D02*
X9283100Y-6814500D01*
X9403394Y-5724406D02*
X9433394Y-5754406D01*
X9433394Y-5724406D02*
X9403394Y-5754406D01*
X9422800Y-5285900D02*
X9452800Y-5315900D01*
X9452800Y-5285900D02*
X9422800Y-5315900D01*
X9479946Y-5800254D02*
X9509946Y-5830254D01*
X9509946Y-5800254D02*
X9479946Y-5830254D01*
X9504078Y-5572922D02*
X9534078Y-5602922D01*
X9534078Y-5572922D02*
X9504078Y-5602922D01*
X9587900Y-6632100D02*
X9617900Y-6662100D01*
X9617900Y-6632100D02*
X9587900Y-6662100D01*
X9596200Y-5252200D02*
X9626200Y-5282200D01*
X9626200Y-5252200D02*
X9596200Y-5282200D01*
X9600523Y-5679677D02*
X9630523Y-5709677D01*
X9630523Y-5679677D02*
X9600523Y-5709677D01*
X9689500Y-6200300D02*
X9719500Y-6230300D01*
X9719500Y-6200300D02*
X9689500Y-6230300D01*
X9732000Y-5252200D02*
X9762000Y-5282200D01*
X9762000Y-5252200D02*
X9732000Y-5282200D01*
X9853102Y-5248900D02*
X9883102Y-5278900D01*
X9883102Y-5248900D02*
X9853102Y-5278900D01*
X9918100Y-6301900D02*
X9948100Y-6331900D01*
X9948100Y-6301900D02*
X9918100Y-6331900D01*
X10019700Y-5920900D02*
X10049700Y-5950900D01*
X10049700Y-5920900D02*
X10019700Y-5950900D01*
X10121300Y-5920900D02*
X10151300Y-5950900D01*
X10151300Y-5920900D02*
X10121300Y-5950900D01*
X10299100Y-6073300D02*
X10329100Y-6103300D01*
X10329100Y-6073300D02*
X10299100Y-6103300D01*
X10324500Y-5451000D02*
X10354500Y-5481000D01*
X10354500Y-5451000D02*
X10324500Y-5481000D01*
X10324500Y-5692300D02*
X10354500Y-5722300D01*
X10354500Y-5692300D02*
X10324500Y-5722300D01*
X10464200Y-5451000D02*
X10494200Y-5481000D01*
X10494200Y-5451000D02*
X10464200Y-5481000D01*
X10527700Y-5248900D02*
X10557700Y-5278900D01*
X10557700Y-5248900D02*
X10527700Y-5278900D01*
X10578500Y-6784500D02*
X10608500Y-6814500D01*
X10608500Y-6784500D02*
X10578500Y-6814500D01*
X10680100Y-4930300D02*
X10710100Y-4960300D01*
X10710100Y-4930300D02*
X10680100Y-4960300D01*
X10680240Y-5133360D02*
X10710240Y-5163360D01*
X10710240Y-5133360D02*
X10680240Y-5163360D01*
X10715938Y-5489862D02*
X10745938Y-5519862D01*
X10745938Y-5489862D02*
X10715938Y-5519862D01*
X10730900Y-5590700D02*
X10760900Y-5620700D01*
X10760900Y-5590700D02*
X10730900Y-5620700D01*
X10730900Y-5717700D02*
X10760900Y-5747700D01*
X10760900Y-5717700D02*
X10730900Y-5747700D01*
X10730900Y-5844700D02*
X10760900Y-5874700D01*
X10760900Y-5844700D02*
X10730900Y-5874700D01*
X10781700Y-6022500D02*
X10811700Y-6052500D01*
X10811700Y-6022500D02*
X10781700Y-6052500D01*
X10857900Y-5235100D02*
X10887900Y-5265100D01*
X10887900Y-5235100D02*
X10857900Y-5265100D01*
X10883300Y-5616100D02*
X10913300Y-5646100D01*
X10913300Y-5616100D02*
X10883300Y-5646100D01*
X10883300Y-5768500D02*
X10913300Y-5798500D01*
X10913300Y-5768500D02*
X10883300Y-5798500D01*
X10883300Y-5920900D02*
X10913300Y-5950900D01*
X10913300Y-5920900D02*
X10883300Y-5950900D01*
X10985179Y-5438300D02*
X11015179Y-5468300D01*
X11015179Y-5438300D02*
X10985179Y-5468300D01*
X11313400Y-5293600D02*
X11343400Y-5323600D01*
X11343400Y-5293600D02*
X11313400Y-5323600D01*
X11543700Y-6784500D02*
X11573700Y-6814500D01*
X11573700Y-6784500D02*
X11543700Y-6814500D01*
X11924700Y-4981100D02*
X11954700Y-5011100D01*
X11954700Y-4981100D02*
X11924700Y-5011100D01*
X12025300Y-5260500D02*
X12055300Y-5290500D01*
X12055300Y-5260500D02*
X12025300Y-5290500D01*
X12458100Y-6235860D02*
X12488100Y-6265860D01*
X12488100Y-6235860D02*
X12458100Y-6265860D01*
X12458100Y-6606700D02*
X12488100Y-6636700D01*
X12488100Y-6606700D02*
X12458100Y-6636700D01*
X12534300Y-5336700D02*
X12564300Y-5366700D01*
X12564300Y-5336700D02*
X12534300Y-5366700D01*
X12621060Y-5823980D02*
X12651060Y-5853980D01*
X12651060Y-5823980D02*
X12621060Y-5853980D01*
X12635900Y-4879500D02*
X12665900Y-4909500D01*
X12665900Y-4879500D02*
X12635900Y-4909500D01*
X12762900Y-6235860D02*
X12792900Y-6265860D01*
X12792900Y-6235860D02*
X12762900Y-6265860D01*
X12785434Y-6414035D02*
X12815434Y-6444035D01*
X12815434Y-6414035D02*
X12785434Y-6444035D01*
X12785434Y-6553034D02*
X12815434Y-6583034D01*
X12815434Y-6553034D02*
X12785434Y-6583034D01*
X12788300Y-4879500D02*
X12818300Y-4909500D01*
X12818300Y-4879500D02*
X12788300Y-4909500D01*
X12996560Y-6151480D02*
X13026560Y-6181480D01*
X13026560Y-6151480D02*
X12996560Y-6181480D01*
X13169300Y-5387500D02*
X13199300Y-5417500D01*
X13199300Y-5387500D02*
X13169300Y-5417500D01*
X13169300Y-6251100D02*
X13199300Y-6281100D01*
X13199300Y-6251100D02*
X13169300Y-6281100D01*
X13448700Y-4904900D02*
X13478700Y-4934900D01*
X13478700Y-4904900D02*
X13448700Y-4934900D01*
X13459900Y-5548980D02*
X13489900Y-5578980D01*
X13489900Y-5548980D02*
X13459900Y-5578980D01*
X13459900Y-5666900D02*
X13489900Y-5696900D01*
X13489900Y-5666900D02*
X13459900Y-5696900D01*
X13459900Y-5975980D02*
X13489900Y-6005980D01*
X13489900Y-5975980D02*
X13459900Y-6005980D01*
X13459900Y-6098700D02*
X13489900Y-6128700D01*
X13489900Y-6098700D02*
X13459900Y-6128700D01*
X13601100Y-4904900D02*
X13631100Y-4934900D01*
X13631100Y-4904900D02*
X13601100Y-4934900D01*
X13728100Y-5819300D02*
X13758100Y-5849300D01*
X13758100Y-5819300D02*
X13728100Y-5849300D01*
X13391900Y-5406980D02*
G75*
G02*
X13341900Y-5406980I-25000J0D01*
G01*
X13341900Y-5406980D02*
G75*
G02*
X13391900Y-5406980I25000J0D01*
G01*
X13331900Y-5431980D02*
X13401900Y-5431980D01*
X13401900Y-5381980D02*
G75*
G02*
X13401900Y-5431980I0J-25000D01*
G01*
X13401900Y-5381980D02*
X13331900Y-5381980D01*
X13331900Y-5381980D02*
G75*
G03*
X13331900Y-5431980I0J-25000D01*
G01*
X13391900Y-6270980D02*
G75*
G02*
X13341900Y-6270980I-25000J0D01*
G01*
X13341900Y-6270980D02*
G75*
G02*
X13391900Y-6270980I25000J0D01*
G01*
X13331900Y-6295980D02*
X13401900Y-6295980D01*
X13401900Y-6245980D02*
G75*
G02*
X13401900Y-6295980I0J-25000D01*
G01*
X13401900Y-6245980D02*
X13331900Y-6245980D01*
X13331900Y-6245980D02*
G75*
G03*
X13331900Y-6295980I0J-25000D01*
G01*
X13771900Y-5406980D02*
G75*
G02*
X13721900Y-5406980I-25000J0D01*
G01*
X13721900Y-5406980D02*
G75*
G02*
X13771900Y-5406980I25000J0D01*
G01*
X13711900Y-5431980D02*
X13781900Y-5431980D01*
X13781900Y-5381980D02*
G75*
G02*
X13781900Y-5431980I0J-25000D01*
G01*
X13781900Y-5381980D02*
X13711900Y-5381980D01*
X13711900Y-5381980D02*
G75*
G03*
X13711900Y-5431980I0J-25000D01*
G01*
X13771900Y-6270980D02*
G75*
G02*
X13721900Y-6270980I-25000J0D01*
G01*
X13721900Y-6270980D02*
G75*
G02*
X13771900Y-6270980I25000J0D01*
G01*
X13711900Y-6295980D02*
X13781900Y-6295980D01*
X13781900Y-6245980D02*
G75*
G02*
X13781900Y-6295980I0J-25000D01*
G01*
X13781900Y-6245980D02*
X13711900Y-6245980D01*
X13711900Y-6245980D02*
G75*
G03*
X13711900Y-6295980I0J-25000D01*
G01*
X9018700Y-4926100D02*
X9018700Y-5026100D01*
X8968700Y-4976100D02*
X9068700Y-4976100D01*
X9272700Y-4966100D02*
X9272700Y-5066100D01*
X9222700Y-5016100D02*
X9322700Y-5016100D01*
X9526700Y-4926100D02*
X9526700Y-5026100D01*
X9476700Y-4976100D02*
X9576700Y-4976100D01*
X9780700Y-4966100D02*
X9780700Y-5066100D01*
X9730700Y-5016100D02*
X9830700Y-5016100D01*
X10034700Y-4926100D02*
X10034700Y-5026100D01*
X9984700Y-4976100D02*
X10084700Y-4976100D01*
D12*
X6924340Y-5902620D02*
X6924340Y-5775340D01*
X6797060Y-5775340D01*
X6797060Y-5902620D01*
X6924340Y-5902620D01*
X7684340Y-5652620D02*
X7684340Y-5525340D01*
X7557060Y-5525340D01*
X7557060Y-5652620D01*
X7684340Y-5652620D01*
X7684340Y-6152620D02*
X7684340Y-6025340D01*
X7557060Y-6025340D01*
X7557060Y-6152620D01*
X7684340Y-6152620D01*
X12284340Y-5652620D02*
X12284340Y-5525340D01*
X12157060Y-5525340D01*
X12157060Y-5652620D01*
X12284340Y-5652620D01*
X12284340Y-6152620D02*
X12284340Y-6025340D01*
X12157060Y-6025340D01*
X12157060Y-6152620D01*
X12284340Y-6152620D01*
X13044340Y-5902620D02*
X13044340Y-5775340D01*
X12917060Y-5775340D01*
X12917060Y-5902620D01*
X13044340Y-5902620D01*
D10*
X6704077Y-7217784D02*
X6704077Y-7017784D01*
X6704077Y-7017784D02*
X6751696Y-7017784D01*
X6751696Y-7017784D02*
X6780267Y-7027308D01*
X6780267Y-7027308D02*
X6799315Y-7046355D01*
X6799315Y-7046355D02*
X6808839Y-7065403D01*
X6808839Y-7065403D02*
X6818363Y-7103498D01*
X6818363Y-7103498D02*
X6818363Y-7132069D01*
X6818363Y-7132069D02*
X6808839Y-7170165D01*
X6808839Y-7170165D02*
X6799315Y-7189212D01*
X6799315Y-7189212D02*
X6780267Y-7208260D01*
X6780267Y-7208260D02*
X6751696Y-7217784D01*
X6751696Y-7217784D02*
X6704077Y-7217784D01*
X6904077Y-7217784D02*
X6904077Y-7084450D01*
X6904077Y-7122546D02*
X6913601Y-7103498D01*
X6913601Y-7103498D02*
X6923124Y-7093974D01*
X6923124Y-7093974D02*
X6942172Y-7084450D01*
X6942172Y-7084450D02*
X6961220Y-7084450D01*
X7027886Y-7217784D02*
X7027886Y-7084450D01*
X7027886Y-7017784D02*
X7018363Y-7027308D01*
X7018363Y-7027308D02*
X7027886Y-7036831D01*
X7027886Y-7036831D02*
X7037410Y-7027308D01*
X7037410Y-7027308D02*
X7027886Y-7017784D01*
X7027886Y-7017784D02*
X7027886Y-7036831D01*
X7151696Y-7217784D02*
X7132648Y-7208260D01*
X7132648Y-7208260D02*
X7123124Y-7189212D01*
X7123124Y-7189212D02*
X7123124Y-7017784D01*
X7256458Y-7217784D02*
X7237410Y-7208260D01*
X7237410Y-7208260D02*
X7227886Y-7189212D01*
X7227886Y-7189212D02*
X7227886Y-7017784D01*
X7485029Y-7217784D02*
X7485029Y-7017784D01*
X7485029Y-7017784D02*
X7551696Y-7160641D01*
X7551696Y-7160641D02*
X7618363Y-7017784D01*
X7618363Y-7017784D02*
X7618363Y-7217784D01*
X7799315Y-7217784D02*
X7799315Y-7113022D01*
X7799315Y-7113022D02*
X7789791Y-7093974D01*
X7789791Y-7093974D02*
X7770744Y-7084450D01*
X7770744Y-7084450D02*
X7732648Y-7084450D01*
X7732648Y-7084450D02*
X7713601Y-7093974D01*
X7799315Y-7208260D02*
X7780267Y-7217784D01*
X7780267Y-7217784D02*
X7732648Y-7217784D01*
X7732648Y-7217784D02*
X7713601Y-7208260D01*
X7713601Y-7208260D02*
X7704077Y-7189212D01*
X7704077Y-7189212D02*
X7704077Y-7170165D01*
X7704077Y-7170165D02*
X7713601Y-7151117D01*
X7713601Y-7151117D02*
X7732648Y-7141593D01*
X7732648Y-7141593D02*
X7780267Y-7141593D01*
X7780267Y-7141593D02*
X7799315Y-7132069D01*
X7894553Y-7084450D02*
X7894553Y-7284450D01*
X7894553Y-7093974D02*
X7913601Y-7084450D01*
X7913601Y-7084450D02*
X7951696Y-7084450D01*
X7951696Y-7084450D02*
X7970744Y-7093974D01*
X7970744Y-7093974D02*
X7980267Y-7103498D01*
X7980267Y-7103498D02*
X7989791Y-7122546D01*
X7989791Y-7122546D02*
X7989791Y-7179688D01*
X7989791Y-7179688D02*
X7980267Y-7198736D01*
X7980267Y-7198736D02*
X7970744Y-7208260D01*
X7970744Y-7208260D02*
X7951696Y-7217784D01*
X7951696Y-7217784D02*
X7913601Y-7217784D01*
X7913601Y-7217784D02*
X7894553Y-7208260D01*
X8075505Y-7198736D02*
X8085029Y-7208260D01*
X8085029Y-7208260D02*
X8075505Y-7217784D01*
X8075505Y-7217784D02*
X8065982Y-7208260D01*
X8065982Y-7208260D02*
X8075505Y-7198736D01*
X8075505Y-7198736D02*
X8075505Y-7217784D01*
X8075505Y-7093974D02*
X8085029Y-7103498D01*
X8085029Y-7103498D02*
X8075505Y-7113022D01*
X8075505Y-7113022D02*
X8065982Y-7103498D01*
X8065982Y-7103498D02*
X8075505Y-7093974D01*
X8075505Y-7093974D02*
X8075505Y-7113022D01*
D11*
X6413300Y-7531300D02*
X6443300Y-7561300D01*
X6443300Y-7531300D02*
X6413300Y-7561300D01*
D10*
X6742172Y-7437784D02*
X6761220Y-7437784D01*
X6761220Y-7437784D02*
X6780267Y-7447308D01*
X6780267Y-7447308D02*
X6789791Y-7456831D01*
X6789791Y-7456831D02*
X6799315Y-7475879D01*
X6799315Y-7475879D02*
X6808839Y-7513974D01*
X6808839Y-7513974D02*
X6808839Y-7561593D01*
X6808839Y-7561593D02*
X6799315Y-7599688D01*
X6799315Y-7599688D02*
X6789791Y-7618736D01*
X6789791Y-7618736D02*
X6780267Y-7628260D01*
X6780267Y-7628260D02*
X6761220Y-7637784D01*
X6761220Y-7637784D02*
X6742172Y-7637784D01*
X6742172Y-7637784D02*
X6723124Y-7628260D01*
X6723124Y-7628260D02*
X6713601Y-7618736D01*
X6713601Y-7618736D02*
X6704077Y-7599688D01*
X6704077Y-7599688D02*
X6694553Y-7561593D01*
X6694553Y-7561593D02*
X6694553Y-7513974D01*
X6694553Y-7513974D02*
X6704077Y-7475879D01*
X6704077Y-7475879D02*
X6713601Y-7456831D01*
X6713601Y-7456831D02*
X6723124Y-7447308D01*
X6723124Y-7447308D02*
X6742172Y-7437784D01*
X6894553Y-7618736D02*
X6904077Y-7628260D01*
X6904077Y-7628260D02*
X6894553Y-7637784D01*
X6894553Y-7637784D02*
X6885029Y-7628260D01*
X6885029Y-7628260D02*
X6894553Y-7618736D01*
X6894553Y-7618736D02*
X6894553Y-7637784D01*
X6970744Y-7437784D02*
X7094553Y-7437784D01*
X7094553Y-7437784D02*
X7027886Y-7513974D01*
X7027886Y-7513974D02*
X7056458Y-7513974D01*
X7056458Y-7513974D02*
X7075505Y-7523498D01*
X7075505Y-7523498D02*
X7085029Y-7533022D01*
X7085029Y-7533022D02*
X7094553Y-7552069D01*
X7094553Y-7552069D02*
X7094553Y-7599688D01*
X7094553Y-7599688D02*
X7085029Y-7618736D01*
X7085029Y-7618736D02*
X7075505Y-7628260D01*
X7075505Y-7628260D02*
X7056458Y-7637784D01*
X7056458Y-7637784D02*
X6999315Y-7637784D01*
X6999315Y-7637784D02*
X6980267Y-7628260D01*
X6980267Y-7628260D02*
X6970744Y-7618736D01*
X7218363Y-7437784D02*
X7237410Y-7437784D01*
X7237410Y-7437784D02*
X7256458Y-7447308D01*
X7256458Y-7447308D02*
X7265982Y-7456831D01*
X7265982Y-7456831D02*
X7275505Y-7475879D01*
X7275505Y-7475879D02*
X7285029Y-7513974D01*
X7285029Y-7513974D02*
X7285029Y-7561593D01*
X7285029Y-7561593D02*
X7275505Y-7599688D01*
X7275505Y-7599688D02*
X7265982Y-7618736D01*
X7265982Y-7618736D02*
X7256458Y-7628260D01*
X7256458Y-7628260D02*
X7237410Y-7637784D01*
X7237410Y-7637784D02*
X7218363Y-7637784D01*
X7218363Y-7637784D02*
X7199315Y-7628260D01*
X7199315Y-7628260D02*
X7189791Y-7618736D01*
X7189791Y-7618736D02*
X7180267Y-7599688D01*
X7180267Y-7599688D02*
X7170744Y-7561593D01*
X7170744Y-7561593D02*
X7170744Y-7513974D01*
X7170744Y-7513974D02*
X7180267Y-7475879D01*
X7180267Y-7475879D02*
X7189791Y-7456831D01*
X7189791Y-7456831D02*
X7199315Y-7447308D01*
X7199315Y-7447308D02*
X7218363Y-7437784D01*
X7408839Y-7437784D02*
X7427886Y-7437784D01*
X7427886Y-7437784D02*
X7446934Y-7447308D01*
X7446934Y-7447308D02*
X7456458Y-7456831D01*
X7456458Y-7456831D02*
X7465982Y-7475879D01*
X7465982Y-7475879D02*
X7475505Y-7513974D01*
X7475505Y-7513974D02*
X7475505Y-7561593D01*
X7475505Y-7561593D02*
X7465982Y-7599688D01*
X7465982Y-7599688D02*
X7456458Y-7618736D01*
X7456458Y-7618736D02*
X7446934Y-7628260D01*
X7446934Y-7628260D02*
X7427886Y-7637784D01*
X7427886Y-7637784D02*
X7408839Y-7637784D01*
X7408839Y-7637784D02*
X7389791Y-7628260D01*
X7389791Y-7628260D02*
X7380267Y-7618736D01*
X7380267Y-7618736D02*
X7370744Y-7599688D01*
X7370744Y-7599688D02*
X7361220Y-7561593D01*
X7361220Y-7561593D02*
X7361220Y-7513974D01*
X7361220Y-7513974D02*
X7370744Y-7475879D01*
X7370744Y-7475879D02*
X7380267Y-7456831D01*
X7380267Y-7456831D02*
X7389791Y-7447308D01*
X7389791Y-7447308D02*
X7408839Y-7437784D01*
X7561220Y-7637784D02*
X7561220Y-7504450D01*
X7561220Y-7523498D02*
X7570744Y-7513974D01*
X7570744Y-7513974D02*
X7589791Y-7504450D01*
X7589791Y-7504450D02*
X7618363Y-7504450D01*
X7618363Y-7504450D02*
X7637410Y-7513974D01*
X7637410Y-7513974D02*
X7646934Y-7533022D01*
X7646934Y-7533022D02*
X7646934Y-7637784D01*
X7646934Y-7533022D02*
X7656458Y-7513974D01*
X7656458Y-7513974D02*
X7675505Y-7504450D01*
X7675505Y-7504450D02*
X7704077Y-7504450D01*
X7704077Y-7504450D02*
X7723125Y-7513974D01*
X7723125Y-7513974D02*
X7732648Y-7533022D01*
X7732648Y-7533022D02*
X7732648Y-7637784D01*
X7827886Y-7637784D02*
X7827886Y-7504450D01*
X7827886Y-7523498D02*
X7837410Y-7513974D01*
X7837410Y-7513974D02*
X7856458Y-7504450D01*
X7856458Y-7504450D02*
X7885029Y-7504450D01*
X7885029Y-7504450D02*
X7904077Y-7513974D01*
X7904077Y-7513974D02*
X7913601Y-7533022D01*
X7913601Y-7533022D02*
X7913601Y-7637784D01*
X7913601Y-7533022D02*
X7923125Y-7513974D01*
X7923125Y-7513974D02*
X7942172Y-7504450D01*
X7942172Y-7504450D02*
X7970744Y-7504450D01*
X7970744Y-7504450D02*
X7989791Y-7513974D01*
X7989791Y-7513974D02*
X7999315Y-7533022D01*
X7999315Y-7533022D02*
X7999315Y-7637784D01*
X8389791Y-7428260D02*
X8218363Y-7685403D01*
X8646934Y-7437784D02*
X8665982Y-7437784D01*
X8665982Y-7437784D02*
X8685030Y-7447308D01*
X8685030Y-7447308D02*
X8694553Y-7456831D01*
X8694553Y-7456831D02*
X8704077Y-7475879D01*
X8704077Y-7475879D02*
X8713601Y-7513974D01*
X8713601Y-7513974D02*
X8713601Y-7561593D01*
X8713601Y-7561593D02*
X8704077Y-7599688D01*
X8704077Y-7599688D02*
X8694553Y-7618736D01*
X8694553Y-7618736D02*
X8685030Y-7628260D01*
X8685030Y-7628260D02*
X8665982Y-7637784D01*
X8665982Y-7637784D02*
X8646934Y-7637784D01*
X8646934Y-7637784D02*
X8627887Y-7628260D01*
X8627887Y-7628260D02*
X8618363Y-7618736D01*
X8618363Y-7618736D02*
X8608839Y-7599688D01*
X8608839Y-7599688D02*
X8599315Y-7561593D01*
X8599315Y-7561593D02*
X8599315Y-7513974D01*
X8599315Y-7513974D02*
X8608839Y-7475879D01*
X8608839Y-7475879D02*
X8618363Y-7456831D01*
X8618363Y-7456831D02*
X8627887Y-7447308D01*
X8627887Y-7447308D02*
X8646934Y-7437784D01*
X8799315Y-7618736D02*
X8808839Y-7628260D01*
X8808839Y-7628260D02*
X8799315Y-7637784D01*
X8799315Y-7637784D02*
X8789791Y-7628260D01*
X8789791Y-7628260D02*
X8799315Y-7618736D01*
X8799315Y-7618736D02*
X8799315Y-7637784D01*
X8932649Y-7437784D02*
X8951696Y-7437784D01*
X8951696Y-7437784D02*
X8970744Y-7447308D01*
X8970744Y-7447308D02*
X8980268Y-7456831D01*
X8980268Y-7456831D02*
X8989791Y-7475879D01*
X8989791Y-7475879D02*
X8999315Y-7513974D01*
X8999315Y-7513974D02*
X8999315Y-7561593D01*
X8999315Y-7561593D02*
X8989791Y-7599688D01*
X8989791Y-7599688D02*
X8980268Y-7618736D01*
X8980268Y-7618736D02*
X8970744Y-7628260D01*
X8970744Y-7628260D02*
X8951696Y-7637784D01*
X8951696Y-7637784D02*
X8932649Y-7637784D01*
X8932649Y-7637784D02*
X8913601Y-7628260D01*
X8913601Y-7628260D02*
X8904077Y-7618736D01*
X8904077Y-7618736D02*
X8894553Y-7599688D01*
X8894553Y-7599688D02*
X8885030Y-7561593D01*
X8885030Y-7561593D02*
X8885030Y-7513974D01*
X8885030Y-7513974D02*
X8894553Y-7475879D01*
X8894553Y-7475879D02*
X8904077Y-7456831D01*
X8904077Y-7456831D02*
X8913601Y-7447308D01*
X8913601Y-7447308D02*
X8932649Y-7437784D01*
X9189791Y-7637784D02*
X9075506Y-7637784D01*
X9132649Y-7637784D02*
X9132649Y-7437784D01*
X9132649Y-7437784D02*
X9113601Y-7466355D01*
X9113601Y-7466355D02*
X9094553Y-7485403D01*
X9094553Y-7485403D02*
X9075506Y-7494927D01*
X9380268Y-7637784D02*
X9265982Y-7637784D01*
X9323125Y-7637784D02*
X9323125Y-7437784D01*
X9323125Y-7437784D02*
X9304077Y-7466355D01*
X9304077Y-7466355D02*
X9285030Y-7485403D01*
X9285030Y-7485403D02*
X9265982Y-7494927D01*
X9494553Y-7523498D02*
X9475506Y-7513974D01*
X9475506Y-7513974D02*
X9465982Y-7504450D01*
X9465982Y-7504450D02*
X9456458Y-7485403D01*
X9456458Y-7485403D02*
X9456458Y-7475879D01*
X9456458Y-7475879D02*
X9465982Y-7456831D01*
X9465982Y-7456831D02*
X9475506Y-7447308D01*
X9475506Y-7447308D02*
X9494553Y-7437784D01*
X9494553Y-7437784D02*
X9532649Y-7437784D01*
X9532649Y-7437784D02*
X9551696Y-7447308D01*
X9551696Y-7447308D02*
X9561220Y-7456831D01*
X9561220Y-7456831D02*
X9570744Y-7475879D01*
X9570744Y-7475879D02*
X9570744Y-7485403D01*
X9570744Y-7485403D02*
X9561220Y-7504450D01*
X9561220Y-7504450D02*
X9551696Y-7513974D01*
X9551696Y-7513974D02*
X9532649Y-7523498D01*
X9532649Y-7523498D02*
X9494553Y-7523498D01*
X9494553Y-7523498D02*
X9475506Y-7533022D01*
X9475506Y-7533022D02*
X9465982Y-7542546D01*
X9465982Y-7542546D02*
X9456458Y-7561593D01*
X9456458Y-7561593D02*
X9456458Y-7599688D01*
X9456458Y-7599688D02*
X9465982Y-7618736D01*
X9465982Y-7618736D02*
X9475506Y-7628260D01*
X9475506Y-7628260D02*
X9494553Y-7637784D01*
X9494553Y-7637784D02*
X9532649Y-7637784D01*
X9532649Y-7637784D02*
X9551696Y-7628260D01*
X9551696Y-7628260D02*
X9561220Y-7618736D01*
X9561220Y-7618736D02*
X9570744Y-7599688D01*
X9570744Y-7599688D02*
X9570744Y-7561593D01*
X9570744Y-7561593D02*
X9561220Y-7542546D01*
X9561220Y-7542546D02*
X9551696Y-7533022D01*
X9551696Y-7533022D02*
X9532649Y-7523498D01*
X9646934Y-7437784D02*
X9646934Y-7475879D01*
X9723125Y-7437784D02*
X9723125Y-7475879D01*
X10018363Y-7713974D02*
X10008839Y-7704450D01*
X10008839Y-7704450D02*
X9989792Y-7675879D01*
X9989792Y-7675879D02*
X9980268Y-7656831D01*
X9980268Y-7656831D02*
X9970744Y-7628260D01*
X9970744Y-7628260D02*
X9961220Y-7580641D01*
X9961220Y-7580641D02*
X9961220Y-7542546D01*
X9961220Y-7542546D02*
X9970744Y-7494927D01*
X9970744Y-7494927D02*
X9980268Y-7466355D01*
X9980268Y-7466355D02*
X9989792Y-7447308D01*
X9989792Y-7447308D02*
X10008839Y-7418736D01*
X10008839Y-7418736D02*
X10018363Y-7409212D01*
X10075506Y-7437784D02*
X10208839Y-7437784D01*
X10208839Y-7437784D02*
X10123125Y-7637784D01*
X10370744Y-7437784D02*
X10332649Y-7437784D01*
X10332649Y-7437784D02*
X10313601Y-7447308D01*
X10313601Y-7447308D02*
X10304077Y-7456831D01*
X10304077Y-7456831D02*
X10285030Y-7485403D01*
X10285030Y-7485403D02*
X10275506Y-7523498D01*
X10275506Y-7523498D02*
X10275506Y-7599688D01*
X10275506Y-7599688D02*
X10285030Y-7618736D01*
X10285030Y-7618736D02*
X10294553Y-7628260D01*
X10294553Y-7628260D02*
X10313601Y-7637784D01*
X10313601Y-7637784D02*
X10351696Y-7637784D01*
X10351696Y-7637784D02*
X10370744Y-7628260D01*
X10370744Y-7628260D02*
X10380268Y-7618736D01*
X10380268Y-7618736D02*
X10389792Y-7599688D01*
X10389792Y-7599688D02*
X10389792Y-7552069D01*
X10389792Y-7552069D02*
X10380268Y-7533022D01*
X10380268Y-7533022D02*
X10370744Y-7523498D01*
X10370744Y-7523498D02*
X10351696Y-7513974D01*
X10351696Y-7513974D02*
X10313601Y-7513974D01*
X10313601Y-7513974D02*
X10294553Y-7523498D01*
X10294553Y-7523498D02*
X10285030Y-7533022D01*
X10285030Y-7533022D02*
X10275506Y-7552069D01*
X10627887Y-7637784D02*
X10627887Y-7437784D01*
X10713601Y-7637784D02*
X10713601Y-7533022D01*
X10713601Y-7533022D02*
X10704077Y-7513974D01*
X10704077Y-7513974D02*
X10685030Y-7504450D01*
X10685030Y-7504450D02*
X10656458Y-7504450D01*
X10656458Y-7504450D02*
X10637411Y-7513974D01*
X10637411Y-7513974D02*
X10627887Y-7523498D01*
X10837411Y-7637784D02*
X10818363Y-7628260D01*
X10818363Y-7628260D02*
X10808839Y-7618736D01*
X10808839Y-7618736D02*
X10799315Y-7599688D01*
X10799315Y-7599688D02*
X10799315Y-7542546D01*
X10799315Y-7542546D02*
X10808839Y-7523498D01*
X10808839Y-7523498D02*
X10818363Y-7513974D01*
X10818363Y-7513974D02*
X10837411Y-7504450D01*
X10837411Y-7504450D02*
X10865982Y-7504450D01*
X10865982Y-7504450D02*
X10885030Y-7513974D01*
X10885030Y-7513974D02*
X10894554Y-7523498D01*
X10894554Y-7523498D02*
X10904077Y-7542546D01*
X10904077Y-7542546D02*
X10904077Y-7599688D01*
X10904077Y-7599688D02*
X10894554Y-7618736D01*
X10894554Y-7618736D02*
X10885030Y-7628260D01*
X10885030Y-7628260D02*
X10865982Y-7637784D01*
X10865982Y-7637784D02*
X10837411Y-7637784D01*
X11018363Y-7637784D02*
X10999315Y-7628260D01*
X10999315Y-7628260D02*
X10989792Y-7609212D01*
X10989792Y-7609212D02*
X10989792Y-7437784D01*
X11170744Y-7628260D02*
X11151696Y-7637784D01*
X11151696Y-7637784D02*
X11113601Y-7637784D01*
X11113601Y-7637784D02*
X11094554Y-7628260D01*
X11094554Y-7628260D02*
X11085030Y-7609212D01*
X11085030Y-7609212D02*
X11085030Y-7533022D01*
X11085030Y-7533022D02*
X11094554Y-7513974D01*
X11094554Y-7513974D02*
X11113601Y-7504450D01*
X11113601Y-7504450D02*
X11151696Y-7504450D01*
X11151696Y-7504450D02*
X11170744Y-7513974D01*
X11170744Y-7513974D02*
X11180268Y-7533022D01*
X11180268Y-7533022D02*
X11180268Y-7552069D01*
X11180268Y-7552069D02*
X11085030Y-7571117D01*
X11256458Y-7628260D02*
X11275506Y-7637784D01*
X11275506Y-7637784D02*
X11313601Y-7637784D01*
X11313601Y-7637784D02*
X11332649Y-7628260D01*
X11332649Y-7628260D02*
X11342173Y-7609212D01*
X11342173Y-7609212D02*
X11342173Y-7599688D01*
X11342173Y-7599688D02*
X11332649Y-7580641D01*
X11332649Y-7580641D02*
X11313601Y-7571117D01*
X11313601Y-7571117D02*
X11285030Y-7571117D01*
X11285030Y-7571117D02*
X11265982Y-7561593D01*
X11265982Y-7561593D02*
X11256458Y-7542546D01*
X11256458Y-7542546D02*
X11256458Y-7533022D01*
X11256458Y-7533022D02*
X11265982Y-7513974D01*
X11265982Y-7513974D02*
X11285030Y-7504450D01*
X11285030Y-7504450D02*
X11313601Y-7504450D01*
X11313601Y-7504450D02*
X11332649Y-7513974D01*
X11408839Y-7713974D02*
X11418363Y-7704450D01*
X11418363Y-7704450D02*
X11437411Y-7675879D01*
X11437411Y-7675879D02*
X11446934Y-7656831D01*
X11446934Y-7656831D02*
X11456458Y-7628260D01*
X11456458Y-7628260D02*
X11465982Y-7580641D01*
X11465982Y-7580641D02*
X11465982Y-7542546D01*
X11465982Y-7542546D02*
X11456458Y-7494927D01*
X11456458Y-7494927D02*
X11446934Y-7466355D01*
X11446934Y-7466355D02*
X11437411Y-7447308D01*
X11437411Y-7447308D02*
X11418363Y-7418736D01*
X11418363Y-7418736D02*
X11408839Y-7409212D01*
D11*
X6443300Y-7810300D02*
G75*
G02*
X6393300Y-7810300I-25000J0D01*
G01*
X6393300Y-7810300D02*
G75*
G02*
X6443300Y-7810300I25000J0D01*
G01*
D10*
X6742172Y-7701784D02*
X6761220Y-7701784D01*
X6761220Y-7701784D02*
X6780267Y-7711308D01*
X6780267Y-7711308D02*
X6789791Y-7720831D01*
X6789791Y-7720831D02*
X6799315Y-7739879D01*
X6799315Y-7739879D02*
X6808839Y-7777974D01*
X6808839Y-7777974D02*
X6808839Y-7825593D01*
X6808839Y-7825593D02*
X6799315Y-7863688D01*
X6799315Y-7863688D02*
X6789791Y-7882736D01*
X6789791Y-7882736D02*
X6780267Y-7892260D01*
X6780267Y-7892260D02*
X6761220Y-7901784D01*
X6761220Y-7901784D02*
X6742172Y-7901784D01*
X6742172Y-7901784D02*
X6723124Y-7892260D01*
X6723124Y-7892260D02*
X6713601Y-7882736D01*
X6713601Y-7882736D02*
X6704077Y-7863688D01*
X6704077Y-7863688D02*
X6694553Y-7825593D01*
X6694553Y-7825593D02*
X6694553Y-7777974D01*
X6694553Y-7777974D02*
X6704077Y-7739879D01*
X6704077Y-7739879D02*
X6713601Y-7720831D01*
X6713601Y-7720831D02*
X6723124Y-7711308D01*
X6723124Y-7711308D02*
X6742172Y-7701784D01*
X6894553Y-7882736D02*
X6904077Y-7892260D01*
X6904077Y-7892260D02*
X6894553Y-7901784D01*
X6894553Y-7901784D02*
X6885029Y-7892260D01*
X6885029Y-7892260D02*
X6894553Y-7882736D01*
X6894553Y-7882736D02*
X6894553Y-7901784D01*
X7085029Y-7701784D02*
X6989791Y-7701784D01*
X6989791Y-7701784D02*
X6980267Y-7797022D01*
X6980267Y-7797022D02*
X6989791Y-7787498D01*
X6989791Y-7787498D02*
X7008839Y-7777974D01*
X7008839Y-7777974D02*
X7056458Y-7777974D01*
X7056458Y-7777974D02*
X7075505Y-7787498D01*
X7075505Y-7787498D02*
X7085029Y-7797022D01*
X7085029Y-7797022D02*
X7094553Y-7816069D01*
X7094553Y-7816069D02*
X7094553Y-7863688D01*
X7094553Y-7863688D02*
X7085029Y-7882736D01*
X7085029Y-7882736D02*
X7075505Y-7892260D01*
X7075505Y-7892260D02*
X7056458Y-7901784D01*
X7056458Y-7901784D02*
X7008839Y-7901784D01*
X7008839Y-7901784D02*
X6989791Y-7892260D01*
X6989791Y-7892260D02*
X6980267Y-7882736D01*
X7218363Y-7701784D02*
X7237410Y-7701784D01*
X7237410Y-7701784D02*
X7256458Y-7711308D01*
X7256458Y-7711308D02*
X7265982Y-7720831D01*
X7265982Y-7720831D02*
X7275505Y-7739879D01*
X7275505Y-7739879D02*
X7285029Y-7777974D01*
X7285029Y-7777974D02*
X7285029Y-7825593D01*
X7285029Y-7825593D02*
X7275505Y-7863688D01*
X7275505Y-7863688D02*
X7265982Y-7882736D01*
X7265982Y-7882736D02*
X7256458Y-7892260D01*
X7256458Y-7892260D02*
X7237410Y-7901784D01*
X7237410Y-7901784D02*
X7218363Y-7901784D01*
X7218363Y-7901784D02*
X7199315Y-7892260D01*
X7199315Y-7892260D02*
X7189791Y-7882736D01*
X7189791Y-7882736D02*
X7180267Y-7863688D01*
X7180267Y-7863688D02*
X7170744Y-7825593D01*
X7170744Y-7825593D02*
X7170744Y-7777974D01*
X7170744Y-7777974D02*
X7180267Y-7739879D01*
X7180267Y-7739879D02*
X7189791Y-7720831D01*
X7189791Y-7720831D02*
X7199315Y-7711308D01*
X7199315Y-7711308D02*
X7218363Y-7701784D01*
X7408839Y-7701784D02*
X7427886Y-7701784D01*
X7427886Y-7701784D02*
X7446934Y-7711308D01*
X7446934Y-7711308D02*
X7456458Y-7720831D01*
X7456458Y-7720831D02*
X7465982Y-7739879D01*
X7465982Y-7739879D02*
X7475505Y-7777974D01*
X7475505Y-7777974D02*
X7475505Y-7825593D01*
X7475505Y-7825593D02*
X7465982Y-7863688D01*
X7465982Y-7863688D02*
X7456458Y-7882736D01*
X7456458Y-7882736D02*
X7446934Y-7892260D01*
X7446934Y-7892260D02*
X7427886Y-7901784D01*
X7427886Y-7901784D02*
X7408839Y-7901784D01*
X7408839Y-7901784D02*
X7389791Y-7892260D01*
X7389791Y-7892260D02*
X7380267Y-7882736D01*
X7380267Y-7882736D02*
X7370744Y-7863688D01*
X7370744Y-7863688D02*
X7361220Y-7825593D01*
X7361220Y-7825593D02*
X7361220Y-7777974D01*
X7361220Y-7777974D02*
X7370744Y-7739879D01*
X7370744Y-7739879D02*
X7380267Y-7720831D01*
X7380267Y-7720831D02*
X7389791Y-7711308D01*
X7389791Y-7711308D02*
X7408839Y-7701784D01*
X7561220Y-7901784D02*
X7561220Y-7768450D01*
X7561220Y-7787498D02*
X7570744Y-7777974D01*
X7570744Y-7777974D02*
X7589791Y-7768450D01*
X7589791Y-7768450D02*
X7618363Y-7768450D01*
X7618363Y-7768450D02*
X7637410Y-7777974D01*
X7637410Y-7777974D02*
X7646934Y-7797022D01*
X7646934Y-7797022D02*
X7646934Y-7901784D01*
X7646934Y-7797022D02*
X7656458Y-7777974D01*
X7656458Y-7777974D02*
X7675505Y-7768450D01*
X7675505Y-7768450D02*
X7704077Y-7768450D01*
X7704077Y-7768450D02*
X7723125Y-7777974D01*
X7723125Y-7777974D02*
X7732648Y-7797022D01*
X7732648Y-7797022D02*
X7732648Y-7901784D01*
X7827886Y-7901784D02*
X7827886Y-7768450D01*
X7827886Y-7787498D02*
X7837410Y-7777974D01*
X7837410Y-7777974D02*
X7856458Y-7768450D01*
X7856458Y-7768450D02*
X7885029Y-7768450D01*
X7885029Y-7768450D02*
X7904077Y-7777974D01*
X7904077Y-7777974D02*
X7913601Y-7797022D01*
X7913601Y-7797022D02*
X7913601Y-7901784D01*
X7913601Y-7797022D02*
X7923125Y-7777974D01*
X7923125Y-7777974D02*
X7942172Y-7768450D01*
X7942172Y-7768450D02*
X7970744Y-7768450D01*
X7970744Y-7768450D02*
X7989791Y-7777974D01*
X7989791Y-7777974D02*
X7999315Y-7797022D01*
X7999315Y-7797022D02*
X7999315Y-7901784D01*
X8389791Y-7692260D02*
X8218363Y-7949403D01*
X8646934Y-7701784D02*
X8665982Y-7701784D01*
X8665982Y-7701784D02*
X8685030Y-7711308D01*
X8685030Y-7711308D02*
X8694553Y-7720831D01*
X8694553Y-7720831D02*
X8704077Y-7739879D01*
X8704077Y-7739879D02*
X8713601Y-7777974D01*
X8713601Y-7777974D02*
X8713601Y-7825593D01*
X8713601Y-7825593D02*
X8704077Y-7863688D01*
X8704077Y-7863688D02*
X8694553Y-7882736D01*
X8694553Y-7882736D02*
X8685030Y-7892260D01*
X8685030Y-7892260D02*
X8665982Y-7901784D01*
X8665982Y-7901784D02*
X8646934Y-7901784D01*
X8646934Y-7901784D02*
X8627887Y-7892260D01*
X8627887Y-7892260D02*
X8618363Y-7882736D01*
X8618363Y-7882736D02*
X8608839Y-7863688D01*
X8608839Y-7863688D02*
X8599315Y-7825593D01*
X8599315Y-7825593D02*
X8599315Y-7777974D01*
X8599315Y-7777974D02*
X8608839Y-7739879D01*
X8608839Y-7739879D02*
X8618363Y-7720831D01*
X8618363Y-7720831D02*
X8627887Y-7711308D01*
X8627887Y-7711308D02*
X8646934Y-7701784D01*
X8799315Y-7882736D02*
X8808839Y-7892260D01*
X8808839Y-7892260D02*
X8799315Y-7901784D01*
X8799315Y-7901784D02*
X8789791Y-7892260D01*
X8789791Y-7892260D02*
X8799315Y-7882736D01*
X8799315Y-7882736D02*
X8799315Y-7901784D01*
X8932649Y-7701784D02*
X8951696Y-7701784D01*
X8951696Y-7701784D02*
X8970744Y-7711308D01*
X8970744Y-7711308D02*
X8980268Y-7720831D01*
X8980268Y-7720831D02*
X8989791Y-7739879D01*
X8989791Y-7739879D02*
X8999315Y-7777974D01*
X8999315Y-7777974D02*
X8999315Y-7825593D01*
X8999315Y-7825593D02*
X8989791Y-7863688D01*
X8989791Y-7863688D02*
X8980268Y-7882736D01*
X8980268Y-7882736D02*
X8970744Y-7892260D01*
X8970744Y-7892260D02*
X8951696Y-7901784D01*
X8951696Y-7901784D02*
X8932649Y-7901784D01*
X8932649Y-7901784D02*
X8913601Y-7892260D01*
X8913601Y-7892260D02*
X8904077Y-7882736D01*
X8904077Y-7882736D02*
X8894553Y-7863688D01*
X8894553Y-7863688D02*
X8885030Y-7825593D01*
X8885030Y-7825593D02*
X8885030Y-7777974D01*
X8885030Y-7777974D02*
X8894553Y-7739879D01*
X8894553Y-7739879D02*
X8904077Y-7720831D01*
X8904077Y-7720831D02*
X8913601Y-7711308D01*
X8913601Y-7711308D02*
X8932649Y-7701784D01*
X9189791Y-7901784D02*
X9075506Y-7901784D01*
X9132649Y-7901784D02*
X9132649Y-7701784D01*
X9132649Y-7701784D02*
X9113601Y-7730355D01*
X9113601Y-7730355D02*
X9094553Y-7749403D01*
X9094553Y-7749403D02*
X9075506Y-7758927D01*
X9285030Y-7901784D02*
X9323125Y-7901784D01*
X9323125Y-7901784D02*
X9342172Y-7892260D01*
X9342172Y-7892260D02*
X9351696Y-7882736D01*
X9351696Y-7882736D02*
X9370744Y-7854165D01*
X9370744Y-7854165D02*
X9380268Y-7816069D01*
X9380268Y-7816069D02*
X9380268Y-7739879D01*
X9380268Y-7739879D02*
X9370744Y-7720831D01*
X9370744Y-7720831D02*
X9361220Y-7711308D01*
X9361220Y-7711308D02*
X9342172Y-7701784D01*
X9342172Y-7701784D02*
X9304077Y-7701784D01*
X9304077Y-7701784D02*
X9285030Y-7711308D01*
X9285030Y-7711308D02*
X9275506Y-7720831D01*
X9275506Y-7720831D02*
X9265982Y-7739879D01*
X9265982Y-7739879D02*
X9265982Y-7787498D01*
X9265982Y-7787498D02*
X9275506Y-7806546D01*
X9275506Y-7806546D02*
X9285030Y-7816069D01*
X9285030Y-7816069D02*
X9304077Y-7825593D01*
X9304077Y-7825593D02*
X9342172Y-7825593D01*
X9342172Y-7825593D02*
X9361220Y-7816069D01*
X9361220Y-7816069D02*
X9370744Y-7806546D01*
X9370744Y-7806546D02*
X9380268Y-7787498D01*
X9446934Y-7701784D02*
X9580268Y-7701784D01*
X9580268Y-7701784D02*
X9494553Y-7901784D01*
X9646934Y-7701784D02*
X9646934Y-7739879D01*
X9723125Y-7701784D02*
X9723125Y-7739879D01*
X10018363Y-7977974D02*
X10008839Y-7968450D01*
X10008839Y-7968450D02*
X9989792Y-7939879D01*
X9989792Y-7939879D02*
X9980268Y-7920831D01*
X9980268Y-7920831D02*
X9970744Y-7892260D01*
X9970744Y-7892260D02*
X9961220Y-7844641D01*
X9961220Y-7844641D02*
X9961220Y-7806546D01*
X9961220Y-7806546D02*
X9970744Y-7758927D01*
X9970744Y-7758927D02*
X9980268Y-7730355D01*
X9980268Y-7730355D02*
X9989792Y-7711308D01*
X9989792Y-7711308D02*
X10008839Y-7682736D01*
X10008839Y-7682736D02*
X10018363Y-7673212D01*
X10132649Y-7701784D02*
X10151696Y-7701784D01*
X10151696Y-7701784D02*
X10170744Y-7711308D01*
X10170744Y-7711308D02*
X10180268Y-7720831D01*
X10180268Y-7720831D02*
X10189792Y-7739879D01*
X10189792Y-7739879D02*
X10199315Y-7777974D01*
X10199315Y-7777974D02*
X10199315Y-7825593D01*
X10199315Y-7825593D02*
X10189792Y-7863688D01*
X10189792Y-7863688D02*
X10180268Y-7882736D01*
X10180268Y-7882736D02*
X10170744Y-7892260D01*
X10170744Y-7892260D02*
X10151696Y-7901784D01*
X10151696Y-7901784D02*
X10132649Y-7901784D01*
X10132649Y-7901784D02*
X10113601Y-7892260D01*
X10113601Y-7892260D02*
X10104077Y-7882736D01*
X10104077Y-7882736D02*
X10094553Y-7863688D01*
X10094553Y-7863688D02*
X10085030Y-7825593D01*
X10085030Y-7825593D02*
X10085030Y-7777974D01*
X10085030Y-7777974D02*
X10094553Y-7739879D01*
X10094553Y-7739879D02*
X10104077Y-7720831D01*
X10104077Y-7720831D02*
X10113601Y-7711308D01*
X10113601Y-7711308D02*
X10132649Y-7701784D01*
X10437411Y-7901784D02*
X10437411Y-7701784D01*
X10523125Y-7901784D02*
X10523125Y-7797022D01*
X10523125Y-7797022D02*
X10513601Y-7777974D01*
X10513601Y-7777974D02*
X10494554Y-7768450D01*
X10494554Y-7768450D02*
X10465982Y-7768450D01*
X10465982Y-7768450D02*
X10446934Y-7777974D01*
X10446934Y-7777974D02*
X10437411Y-7787498D01*
X10646934Y-7901784D02*
X10627887Y-7892260D01*
X10627887Y-7892260D02*
X10618363Y-7882736D01*
X10618363Y-7882736D02*
X10608839Y-7863688D01*
X10608839Y-7863688D02*
X10608839Y-7806546D01*
X10608839Y-7806546D02*
X10618363Y-7787498D01*
X10618363Y-7787498D02*
X10627887Y-7777974D01*
X10627887Y-7777974D02*
X10646934Y-7768450D01*
X10646934Y-7768450D02*
X10675506Y-7768450D01*
X10675506Y-7768450D02*
X10694554Y-7777974D01*
X10694554Y-7777974D02*
X10704077Y-7787498D01*
X10704077Y-7787498D02*
X10713601Y-7806546D01*
X10713601Y-7806546D02*
X10713601Y-7863688D01*
X10713601Y-7863688D02*
X10704077Y-7882736D01*
X10704077Y-7882736D02*
X10694554Y-7892260D01*
X10694554Y-7892260D02*
X10675506Y-7901784D01*
X10675506Y-7901784D02*
X10646934Y-7901784D01*
X10827887Y-7901784D02*
X10808839Y-7892260D01*
X10808839Y-7892260D02*
X10799315Y-7873212D01*
X10799315Y-7873212D02*
X10799315Y-7701784D01*
X10980268Y-7892260D02*
X10961220Y-7901784D01*
X10961220Y-7901784D02*
X10923125Y-7901784D01*
X10923125Y-7901784D02*
X10904077Y-7892260D01*
X10904077Y-7892260D02*
X10894554Y-7873212D01*
X10894554Y-7873212D02*
X10894554Y-7797022D01*
X10894554Y-7797022D02*
X10904077Y-7777974D01*
X10904077Y-7777974D02*
X10923125Y-7768450D01*
X10923125Y-7768450D02*
X10961220Y-7768450D01*
X10961220Y-7768450D02*
X10980268Y-7777974D01*
X10980268Y-7777974D02*
X10989792Y-7797022D01*
X10989792Y-7797022D02*
X10989792Y-7816069D01*
X10989792Y-7816069D02*
X10894554Y-7835117D01*
X11065982Y-7892260D02*
X11085030Y-7901784D01*
X11085030Y-7901784D02*
X11123125Y-7901784D01*
X11123125Y-7901784D02*
X11142173Y-7892260D01*
X11142173Y-7892260D02*
X11151696Y-7873212D01*
X11151696Y-7873212D02*
X11151696Y-7863688D01*
X11151696Y-7863688D02*
X11142173Y-7844641D01*
X11142173Y-7844641D02*
X11123125Y-7835117D01*
X11123125Y-7835117D02*
X11094554Y-7835117D01*
X11094554Y-7835117D02*
X11075506Y-7825593D01*
X11075506Y-7825593D02*
X11065982Y-7806546D01*
X11065982Y-7806546D02*
X11065982Y-7797022D01*
X11065982Y-7797022D02*
X11075506Y-7777974D01*
X11075506Y-7777974D02*
X11094554Y-7768450D01*
X11094554Y-7768450D02*
X11123125Y-7768450D01*
X11123125Y-7768450D02*
X11142173Y-7777974D01*
X11389792Y-7825593D02*
X11542173Y-7825593D01*
X11465982Y-7901784D02*
X11465982Y-7749403D01*
X11875506Y-7768450D02*
X11875506Y-7901784D01*
X11827887Y-7692260D02*
X11780268Y-7835117D01*
X11780268Y-7835117D02*
X11904077Y-7835117D01*
X12123125Y-7892260D02*
X12142173Y-7901784D01*
X12142173Y-7901784D02*
X12180268Y-7901784D01*
X12180268Y-7901784D02*
X12199316Y-7892260D01*
X12199316Y-7892260D02*
X12208839Y-7873212D01*
X12208839Y-7873212D02*
X12208839Y-7863688D01*
X12208839Y-7863688D02*
X12199316Y-7844641D01*
X12199316Y-7844641D02*
X12180268Y-7835117D01*
X12180268Y-7835117D02*
X12151696Y-7835117D01*
X12151696Y-7835117D02*
X12132649Y-7825593D01*
X12132649Y-7825593D02*
X12123125Y-7806546D01*
X12123125Y-7806546D02*
X12123125Y-7797022D01*
X12123125Y-7797022D02*
X12132649Y-7777974D01*
X12132649Y-7777974D02*
X12151696Y-7768450D01*
X12151696Y-7768450D02*
X12180268Y-7768450D01*
X12180268Y-7768450D02*
X12199316Y-7777974D01*
X12323125Y-7901784D02*
X12304077Y-7892260D01*
X12304077Y-7892260D02*
X12294554Y-7873212D01*
X12294554Y-7873212D02*
X12294554Y-7701784D01*
X12427887Y-7901784D02*
X12408839Y-7892260D01*
X12408839Y-7892260D02*
X12399316Y-7882736D01*
X12399316Y-7882736D02*
X12389792Y-7863688D01*
X12389792Y-7863688D02*
X12389792Y-7806546D01*
X12389792Y-7806546D02*
X12399316Y-7787498D01*
X12399316Y-7787498D02*
X12408839Y-7777974D01*
X12408839Y-7777974D02*
X12427887Y-7768450D01*
X12427887Y-7768450D02*
X12456458Y-7768450D01*
X12456458Y-7768450D02*
X12475506Y-7777974D01*
X12475506Y-7777974D02*
X12485030Y-7787498D01*
X12485030Y-7787498D02*
X12494554Y-7806546D01*
X12494554Y-7806546D02*
X12494554Y-7863688D01*
X12494554Y-7863688D02*
X12485030Y-7882736D01*
X12485030Y-7882736D02*
X12475506Y-7892260D01*
X12475506Y-7892260D02*
X12456458Y-7901784D01*
X12456458Y-7901784D02*
X12427887Y-7901784D01*
X12551697Y-7768450D02*
X12627887Y-7768450D01*
X12580268Y-7701784D02*
X12580268Y-7873212D01*
X12580268Y-7873212D02*
X12589792Y-7892260D01*
X12589792Y-7892260D02*
X12608839Y-7901784D01*
X12608839Y-7901784D02*
X12627887Y-7901784D01*
X12685030Y-7892260D02*
X12704077Y-7901784D01*
X12704077Y-7901784D02*
X12742173Y-7901784D01*
X12742173Y-7901784D02*
X12761220Y-7892260D01*
X12761220Y-7892260D02*
X12770744Y-7873212D01*
X12770744Y-7873212D02*
X12770744Y-7863688D01*
X12770744Y-7863688D02*
X12761220Y-7844641D01*
X12761220Y-7844641D02*
X12742173Y-7835117D01*
X12742173Y-7835117D02*
X12713601Y-7835117D01*
X12713601Y-7835117D02*
X12694554Y-7825593D01*
X12694554Y-7825593D02*
X12685030Y-7806546D01*
X12685030Y-7806546D02*
X12685030Y-7797022D01*
X12685030Y-7797022D02*
X12694554Y-7777974D01*
X12694554Y-7777974D02*
X12713601Y-7768450D01*
X12713601Y-7768450D02*
X12742173Y-7768450D01*
X12742173Y-7768450D02*
X12761220Y-7777974D01*
X12837411Y-7977974D02*
X12846935Y-7968450D01*
X12846935Y-7968450D02*
X12865982Y-7939879D01*
X12865982Y-7939879D02*
X12875506Y-7920831D01*
X12875506Y-7920831D02*
X12885030Y-7892260D01*
X12885030Y-7892260D02*
X12894554Y-7844641D01*
X12894554Y-7844641D02*
X12894554Y-7806546D01*
X12894554Y-7806546D02*
X12885030Y-7758927D01*
X12885030Y-7758927D02*
X12875506Y-7730355D01*
X12875506Y-7730355D02*
X12865982Y-7711308D01*
X12865982Y-7711308D02*
X12846935Y-7682736D01*
X12846935Y-7682736D02*
X12837411Y-7673212D01*
D11*
X6393300Y-8024300D02*
X6393300Y-8124300D01*
X6343300Y-8074300D02*
X6443300Y-8074300D01*
D10*
X6808839Y-8165784D02*
X6694553Y-8165784D01*
X6751696Y-8165784D02*
X6751696Y-7965784D01*
X6751696Y-7965784D02*
X6732648Y-7994355D01*
X6732648Y-7994355D02*
X6713601Y-8013403D01*
X6713601Y-8013403D02*
X6694553Y-8022927D01*
X6894553Y-8146736D02*
X6904077Y-8156260D01*
X6904077Y-8156260D02*
X6894553Y-8165784D01*
X6894553Y-8165784D02*
X6885029Y-8156260D01*
X6885029Y-8156260D02*
X6894553Y-8146736D01*
X6894553Y-8146736D02*
X6894553Y-8165784D01*
X7027886Y-7965784D02*
X7046934Y-7965784D01*
X7046934Y-7965784D02*
X7065982Y-7975308D01*
X7065982Y-7975308D02*
X7075505Y-7984831D01*
X7075505Y-7984831D02*
X7085029Y-8003879D01*
X7085029Y-8003879D02*
X7094553Y-8041974D01*
X7094553Y-8041974D02*
X7094553Y-8089593D01*
X7094553Y-8089593D02*
X7085029Y-8127688D01*
X7085029Y-8127688D02*
X7075505Y-8146736D01*
X7075505Y-8146736D02*
X7065982Y-8156260D01*
X7065982Y-8156260D02*
X7046934Y-8165784D01*
X7046934Y-8165784D02*
X7027886Y-8165784D01*
X7027886Y-8165784D02*
X7008839Y-8156260D01*
X7008839Y-8156260D02*
X6999315Y-8146736D01*
X6999315Y-8146736D02*
X6989791Y-8127688D01*
X6989791Y-8127688D02*
X6980267Y-8089593D01*
X6980267Y-8089593D02*
X6980267Y-8041974D01*
X6980267Y-8041974D02*
X6989791Y-8003879D01*
X6989791Y-8003879D02*
X6999315Y-7984831D01*
X6999315Y-7984831D02*
X7008839Y-7975308D01*
X7008839Y-7975308D02*
X7027886Y-7965784D01*
X7218363Y-7965784D02*
X7237410Y-7965784D01*
X7237410Y-7965784D02*
X7256458Y-7975308D01*
X7256458Y-7975308D02*
X7265982Y-7984831D01*
X7265982Y-7984831D02*
X7275505Y-8003879D01*
X7275505Y-8003879D02*
X7285029Y-8041974D01*
X7285029Y-8041974D02*
X7285029Y-8089593D01*
X7285029Y-8089593D02*
X7275505Y-8127688D01*
X7275505Y-8127688D02*
X7265982Y-8146736D01*
X7265982Y-8146736D02*
X7256458Y-8156260D01*
X7256458Y-8156260D02*
X7237410Y-8165784D01*
X7237410Y-8165784D02*
X7218363Y-8165784D01*
X7218363Y-8165784D02*
X7199315Y-8156260D01*
X7199315Y-8156260D02*
X7189791Y-8146736D01*
X7189791Y-8146736D02*
X7180267Y-8127688D01*
X7180267Y-8127688D02*
X7170744Y-8089593D01*
X7170744Y-8089593D02*
X7170744Y-8041974D01*
X7170744Y-8041974D02*
X7180267Y-8003879D01*
X7180267Y-8003879D02*
X7189791Y-7984831D01*
X7189791Y-7984831D02*
X7199315Y-7975308D01*
X7199315Y-7975308D02*
X7218363Y-7965784D01*
X7408839Y-7965784D02*
X7427886Y-7965784D01*
X7427886Y-7965784D02*
X7446934Y-7975308D01*
X7446934Y-7975308D02*
X7456458Y-7984831D01*
X7456458Y-7984831D02*
X7465982Y-8003879D01*
X7465982Y-8003879D02*
X7475505Y-8041974D01*
X7475505Y-8041974D02*
X7475505Y-8089593D01*
X7475505Y-8089593D02*
X7465982Y-8127688D01*
X7465982Y-8127688D02*
X7456458Y-8146736D01*
X7456458Y-8146736D02*
X7446934Y-8156260D01*
X7446934Y-8156260D02*
X7427886Y-8165784D01*
X7427886Y-8165784D02*
X7408839Y-8165784D01*
X7408839Y-8165784D02*
X7389791Y-8156260D01*
X7389791Y-8156260D02*
X7380267Y-8146736D01*
X7380267Y-8146736D02*
X7370744Y-8127688D01*
X7370744Y-8127688D02*
X7361220Y-8089593D01*
X7361220Y-8089593D02*
X7361220Y-8041974D01*
X7361220Y-8041974D02*
X7370744Y-8003879D01*
X7370744Y-8003879D02*
X7380267Y-7984831D01*
X7380267Y-7984831D02*
X7389791Y-7975308D01*
X7389791Y-7975308D02*
X7408839Y-7965784D01*
X7561220Y-8165784D02*
X7561220Y-8032450D01*
X7561220Y-8051498D02*
X7570744Y-8041974D01*
X7570744Y-8041974D02*
X7589791Y-8032450D01*
X7589791Y-8032450D02*
X7618363Y-8032450D01*
X7618363Y-8032450D02*
X7637410Y-8041974D01*
X7637410Y-8041974D02*
X7646934Y-8061022D01*
X7646934Y-8061022D02*
X7646934Y-8165784D01*
X7646934Y-8061022D02*
X7656458Y-8041974D01*
X7656458Y-8041974D02*
X7675505Y-8032450D01*
X7675505Y-8032450D02*
X7704077Y-8032450D01*
X7704077Y-8032450D02*
X7723125Y-8041974D01*
X7723125Y-8041974D02*
X7732648Y-8061022D01*
X7732648Y-8061022D02*
X7732648Y-8165784D01*
X7827886Y-8165784D02*
X7827886Y-8032450D01*
X7827886Y-8051498D02*
X7837410Y-8041974D01*
X7837410Y-8041974D02*
X7856458Y-8032450D01*
X7856458Y-8032450D02*
X7885029Y-8032450D01*
X7885029Y-8032450D02*
X7904077Y-8041974D01*
X7904077Y-8041974D02*
X7913601Y-8061022D01*
X7913601Y-8061022D02*
X7913601Y-8165784D01*
X7913601Y-8061022D02*
X7923125Y-8041974D01*
X7923125Y-8041974D02*
X7942172Y-8032450D01*
X7942172Y-8032450D02*
X7970744Y-8032450D01*
X7970744Y-8032450D02*
X7989791Y-8041974D01*
X7989791Y-8041974D02*
X7999315Y-8061022D01*
X7999315Y-8061022D02*
X7999315Y-8165784D01*
X8389791Y-7956260D02*
X8218363Y-8213403D01*
X8646934Y-7965784D02*
X8665982Y-7965784D01*
X8665982Y-7965784D02*
X8685030Y-7975308D01*
X8685030Y-7975308D02*
X8694553Y-7984831D01*
X8694553Y-7984831D02*
X8704077Y-8003879D01*
X8704077Y-8003879D02*
X8713601Y-8041974D01*
X8713601Y-8041974D02*
X8713601Y-8089593D01*
X8713601Y-8089593D02*
X8704077Y-8127688D01*
X8704077Y-8127688D02*
X8694553Y-8146736D01*
X8694553Y-8146736D02*
X8685030Y-8156260D01*
X8685030Y-8156260D02*
X8665982Y-8165784D01*
X8665982Y-8165784D02*
X8646934Y-8165784D01*
X8646934Y-8165784D02*
X8627887Y-8156260D01*
X8627887Y-8156260D02*
X8618363Y-8146736D01*
X8618363Y-8146736D02*
X8608839Y-8127688D01*
X8608839Y-8127688D02*
X8599315Y-8089593D01*
X8599315Y-8089593D02*
X8599315Y-8041974D01*
X8599315Y-8041974D02*
X8608839Y-8003879D01*
X8608839Y-8003879D02*
X8618363Y-7984831D01*
X8618363Y-7984831D02*
X8627887Y-7975308D01*
X8627887Y-7975308D02*
X8646934Y-7965784D01*
X8799315Y-8146736D02*
X8808839Y-8156260D01*
X8808839Y-8156260D02*
X8799315Y-8165784D01*
X8799315Y-8165784D02*
X8789791Y-8156260D01*
X8789791Y-8156260D02*
X8799315Y-8146736D01*
X8799315Y-8146736D02*
X8799315Y-8165784D01*
X8932649Y-7965784D02*
X8951696Y-7965784D01*
X8951696Y-7965784D02*
X8970744Y-7975308D01*
X8970744Y-7975308D02*
X8980268Y-7984831D01*
X8980268Y-7984831D02*
X8989791Y-8003879D01*
X8989791Y-8003879D02*
X8999315Y-8041974D01*
X8999315Y-8041974D02*
X8999315Y-8089593D01*
X8999315Y-8089593D02*
X8989791Y-8127688D01*
X8989791Y-8127688D02*
X8980268Y-8146736D01*
X8980268Y-8146736D02*
X8970744Y-8156260D01*
X8970744Y-8156260D02*
X8951696Y-8165784D01*
X8951696Y-8165784D02*
X8932649Y-8165784D01*
X8932649Y-8165784D02*
X8913601Y-8156260D01*
X8913601Y-8156260D02*
X8904077Y-8146736D01*
X8904077Y-8146736D02*
X8894553Y-8127688D01*
X8894553Y-8127688D02*
X8885030Y-8089593D01*
X8885030Y-8089593D02*
X8885030Y-8041974D01*
X8885030Y-8041974D02*
X8894553Y-8003879D01*
X8894553Y-8003879D02*
X8904077Y-7984831D01*
X8904077Y-7984831D02*
X8913601Y-7975308D01*
X8913601Y-7975308D02*
X8932649Y-7965784D01*
X9065982Y-7965784D02*
X9189791Y-7965784D01*
X9189791Y-7965784D02*
X9123125Y-8041974D01*
X9123125Y-8041974D02*
X9151696Y-8041974D01*
X9151696Y-8041974D02*
X9170744Y-8051498D01*
X9170744Y-8051498D02*
X9180268Y-8061022D01*
X9180268Y-8061022D02*
X9189791Y-8080069D01*
X9189791Y-8080069D02*
X9189791Y-8127688D01*
X9189791Y-8127688D02*
X9180268Y-8146736D01*
X9180268Y-8146736D02*
X9170744Y-8156260D01*
X9170744Y-8156260D02*
X9151696Y-8165784D01*
X9151696Y-8165784D02*
X9094553Y-8165784D01*
X9094553Y-8165784D02*
X9075506Y-8156260D01*
X9075506Y-8156260D02*
X9065982Y-8146736D01*
X9285030Y-8165784D02*
X9323125Y-8165784D01*
X9323125Y-8165784D02*
X9342172Y-8156260D01*
X9342172Y-8156260D02*
X9351696Y-8146736D01*
X9351696Y-8146736D02*
X9370744Y-8118165D01*
X9370744Y-8118165D02*
X9380268Y-8080069D01*
X9380268Y-8080069D02*
X9380268Y-8003879D01*
X9380268Y-8003879D02*
X9370744Y-7984831D01*
X9370744Y-7984831D02*
X9361220Y-7975308D01*
X9361220Y-7975308D02*
X9342172Y-7965784D01*
X9342172Y-7965784D02*
X9304077Y-7965784D01*
X9304077Y-7965784D02*
X9285030Y-7975308D01*
X9285030Y-7975308D02*
X9275506Y-7984831D01*
X9275506Y-7984831D02*
X9265982Y-8003879D01*
X9265982Y-8003879D02*
X9265982Y-8051498D01*
X9265982Y-8051498D02*
X9275506Y-8070546D01*
X9275506Y-8070546D02*
X9285030Y-8080069D01*
X9285030Y-8080069D02*
X9304077Y-8089593D01*
X9304077Y-8089593D02*
X9342172Y-8089593D01*
X9342172Y-8089593D02*
X9361220Y-8080069D01*
X9361220Y-8080069D02*
X9370744Y-8070546D01*
X9370744Y-8070546D02*
X9380268Y-8051498D01*
X9551696Y-8032450D02*
X9551696Y-8165784D01*
X9504077Y-7956260D02*
X9456458Y-8099117D01*
X9456458Y-8099117D02*
X9580268Y-8099117D01*
X9646934Y-7965784D02*
X9646934Y-8003879D01*
X9723125Y-7965784D02*
X9723125Y-8003879D01*
X10018363Y-8241974D02*
X10008839Y-8232450D01*
X10008839Y-8232450D02*
X9989792Y-8203879D01*
X9989792Y-8203879D02*
X9980268Y-8184831D01*
X9980268Y-8184831D02*
X9970744Y-8156260D01*
X9970744Y-8156260D02*
X9961220Y-8108641D01*
X9961220Y-8108641D02*
X9961220Y-8070546D01*
X9961220Y-8070546D02*
X9970744Y-8022927D01*
X9970744Y-8022927D02*
X9980268Y-7994355D01*
X9980268Y-7994355D02*
X9989792Y-7975308D01*
X9989792Y-7975308D02*
X10008839Y-7946736D01*
X10008839Y-7946736D02*
X10018363Y-7937212D01*
X10189792Y-7965784D02*
X10094553Y-7965784D01*
X10094553Y-7965784D02*
X10085030Y-8061022D01*
X10085030Y-8061022D02*
X10094553Y-8051498D01*
X10094553Y-8051498D02*
X10113601Y-8041974D01*
X10113601Y-8041974D02*
X10161220Y-8041974D01*
X10161220Y-8041974D02*
X10180268Y-8051498D01*
X10180268Y-8051498D02*
X10189792Y-8061022D01*
X10189792Y-8061022D02*
X10199315Y-8080069D01*
X10199315Y-8080069D02*
X10199315Y-8127688D01*
X10199315Y-8127688D02*
X10189792Y-8146736D01*
X10189792Y-8146736D02*
X10180268Y-8156260D01*
X10180268Y-8156260D02*
X10161220Y-8165784D01*
X10161220Y-8165784D02*
X10113601Y-8165784D01*
X10113601Y-8165784D02*
X10094553Y-8156260D01*
X10094553Y-8156260D02*
X10085030Y-8146736D01*
X10437411Y-8165784D02*
X10437411Y-7965784D01*
X10523125Y-8165784D02*
X10523125Y-8061022D01*
X10523125Y-8061022D02*
X10513601Y-8041974D01*
X10513601Y-8041974D02*
X10494554Y-8032450D01*
X10494554Y-8032450D02*
X10465982Y-8032450D01*
X10465982Y-8032450D02*
X10446934Y-8041974D01*
X10446934Y-8041974D02*
X10437411Y-8051498D01*
X10646934Y-8165784D02*
X10627887Y-8156260D01*
X10627887Y-8156260D02*
X10618363Y-8146736D01*
X10618363Y-8146736D02*
X10608839Y-8127688D01*
X10608839Y-8127688D02*
X10608839Y-8070546D01*
X10608839Y-8070546D02*
X10618363Y-8051498D01*
X10618363Y-8051498D02*
X10627887Y-8041974D01*
X10627887Y-8041974D02*
X10646934Y-8032450D01*
X10646934Y-8032450D02*
X10675506Y-8032450D01*
X10675506Y-8032450D02*
X10694554Y-8041974D01*
X10694554Y-8041974D02*
X10704077Y-8051498D01*
X10704077Y-8051498D02*
X10713601Y-8070546D01*
X10713601Y-8070546D02*
X10713601Y-8127688D01*
X10713601Y-8127688D02*
X10704077Y-8146736D01*
X10704077Y-8146736D02*
X10694554Y-8156260D01*
X10694554Y-8156260D02*
X10675506Y-8165784D01*
X10675506Y-8165784D02*
X10646934Y-8165784D01*
X10827887Y-8165784D02*
X10808839Y-8156260D01*
X10808839Y-8156260D02*
X10799315Y-8137212D01*
X10799315Y-8137212D02*
X10799315Y-7965784D01*
X10980268Y-8156260D02*
X10961220Y-8165784D01*
X10961220Y-8165784D02*
X10923125Y-8165784D01*
X10923125Y-8165784D02*
X10904077Y-8156260D01*
X10904077Y-8156260D02*
X10894554Y-8137212D01*
X10894554Y-8137212D02*
X10894554Y-8061022D01*
X10894554Y-8061022D02*
X10904077Y-8041974D01*
X10904077Y-8041974D02*
X10923125Y-8032450D01*
X10923125Y-8032450D02*
X10961220Y-8032450D01*
X10961220Y-8032450D02*
X10980268Y-8041974D01*
X10980268Y-8041974D02*
X10989792Y-8061022D01*
X10989792Y-8061022D02*
X10989792Y-8080069D01*
X10989792Y-8080069D02*
X10894554Y-8099117D01*
X11065982Y-8156260D02*
X11085030Y-8165784D01*
X11085030Y-8165784D02*
X11123125Y-8165784D01*
X11123125Y-8165784D02*
X11142173Y-8156260D01*
X11142173Y-8156260D02*
X11151696Y-8137212D01*
X11151696Y-8137212D02*
X11151696Y-8127688D01*
X11151696Y-8127688D02*
X11142173Y-8108641D01*
X11142173Y-8108641D02*
X11123125Y-8099117D01*
X11123125Y-8099117D02*
X11094554Y-8099117D01*
X11094554Y-8099117D02*
X11075506Y-8089593D01*
X11075506Y-8089593D02*
X11065982Y-8070546D01*
X11065982Y-8070546D02*
X11065982Y-8061022D01*
X11065982Y-8061022D02*
X11075506Y-8041974D01*
X11075506Y-8041974D02*
X11094554Y-8032450D01*
X11094554Y-8032450D02*
X11123125Y-8032450D01*
X11123125Y-8032450D02*
X11142173Y-8041974D01*
X11218363Y-8241974D02*
X11227887Y-8232450D01*
X11227887Y-8232450D02*
X11246934Y-8203879D01*
X11246934Y-8203879D02*
X11256458Y-8184831D01*
X11256458Y-8184831D02*
X11265982Y-8156260D01*
X11265982Y-8156260D02*
X11275506Y-8108641D01*
X11275506Y-8108641D02*
X11275506Y-8070546D01*
X11275506Y-8070546D02*
X11265982Y-8022927D01*
X11265982Y-8022927D02*
X11256458Y-7994355D01*
X11256458Y-7994355D02*
X11246934Y-7975308D01*
X11246934Y-7975308D02*
X11227887Y-7946736D01*
X11227887Y-7946736D02*
X11218363Y-7937212D01*
D12*
X6416940Y-8401940D02*
X6416940Y-8274660D01*
X6289660Y-8274660D01*
X6289660Y-8401940D01*
X6416940Y-8401940D01*
D10*
X6808839Y-8429784D02*
X6694553Y-8429784D01*
X6751696Y-8429784D02*
X6751696Y-8229784D01*
X6751696Y-8229784D02*
X6732648Y-8258355D01*
X6732648Y-8258355D02*
X6713601Y-8277403D01*
X6713601Y-8277403D02*
X6694553Y-8286927D01*
X6894553Y-8410736D02*
X6904077Y-8420260D01*
X6904077Y-8420260D02*
X6894553Y-8429784D01*
X6894553Y-8429784D02*
X6885029Y-8420260D01*
X6885029Y-8420260D02*
X6894553Y-8410736D01*
X6894553Y-8410736D02*
X6894553Y-8429784D01*
X7018363Y-8315498D02*
X6999315Y-8305974D01*
X6999315Y-8305974D02*
X6989791Y-8296450D01*
X6989791Y-8296450D02*
X6980267Y-8277403D01*
X6980267Y-8277403D02*
X6980267Y-8267879D01*
X6980267Y-8267879D02*
X6989791Y-8248831D01*
X6989791Y-8248831D02*
X6999315Y-8239308D01*
X6999315Y-8239308D02*
X7018363Y-8229784D01*
X7018363Y-8229784D02*
X7056458Y-8229784D01*
X7056458Y-8229784D02*
X7075505Y-8239308D01*
X7075505Y-8239308D02*
X7085029Y-8248831D01*
X7085029Y-8248831D02*
X7094553Y-8267879D01*
X7094553Y-8267879D02*
X7094553Y-8277403D01*
X7094553Y-8277403D02*
X7085029Y-8296450D01*
X7085029Y-8296450D02*
X7075505Y-8305974D01*
X7075505Y-8305974D02*
X7056458Y-8315498D01*
X7056458Y-8315498D02*
X7018363Y-8315498D01*
X7018363Y-8315498D02*
X6999315Y-8325022D01*
X6999315Y-8325022D02*
X6989791Y-8334546D01*
X6989791Y-8334546D02*
X6980267Y-8353593D01*
X6980267Y-8353593D02*
X6980267Y-8391689D01*
X6980267Y-8391689D02*
X6989791Y-8410736D01*
X6989791Y-8410736D02*
X6999315Y-8420260D01*
X6999315Y-8420260D02*
X7018363Y-8429784D01*
X7018363Y-8429784D02*
X7056458Y-8429784D01*
X7056458Y-8429784D02*
X7075505Y-8420260D01*
X7075505Y-8420260D02*
X7085029Y-8410736D01*
X7085029Y-8410736D02*
X7094553Y-8391689D01*
X7094553Y-8391689D02*
X7094553Y-8353593D01*
X7094553Y-8353593D02*
X7085029Y-8334546D01*
X7085029Y-8334546D02*
X7075505Y-8325022D01*
X7075505Y-8325022D02*
X7056458Y-8315498D01*
X7218363Y-8229784D02*
X7237410Y-8229784D01*
X7237410Y-8229784D02*
X7256458Y-8239308D01*
X7256458Y-8239308D02*
X7265982Y-8248831D01*
X7265982Y-8248831D02*
X7275505Y-8267879D01*
X7275505Y-8267879D02*
X7285029Y-8305974D01*
X7285029Y-8305974D02*
X7285029Y-8353593D01*
X7285029Y-8353593D02*
X7275505Y-8391689D01*
X7275505Y-8391689D02*
X7265982Y-8410736D01*
X7265982Y-8410736D02*
X7256458Y-8420260D01*
X7256458Y-8420260D02*
X7237410Y-8429784D01*
X7237410Y-8429784D02*
X7218363Y-8429784D01*
X7218363Y-8429784D02*
X7199315Y-8420260D01*
X7199315Y-8420260D02*
X7189791Y-8410736D01*
X7189791Y-8410736D02*
X7180267Y-8391689D01*
X7180267Y-8391689D02*
X7170744Y-8353593D01*
X7170744Y-8353593D02*
X7170744Y-8305974D01*
X7170744Y-8305974D02*
X7180267Y-8267879D01*
X7180267Y-8267879D02*
X7189791Y-8248831D01*
X7189791Y-8248831D02*
X7199315Y-8239308D01*
X7199315Y-8239308D02*
X7218363Y-8229784D01*
X7408839Y-8229784D02*
X7427886Y-8229784D01*
X7427886Y-8229784D02*
X7446934Y-8239308D01*
X7446934Y-8239308D02*
X7456458Y-8248831D01*
X7456458Y-8248831D02*
X7465982Y-8267879D01*
X7465982Y-8267879D02*
X7475505Y-8305974D01*
X7475505Y-8305974D02*
X7475505Y-8353593D01*
X7475505Y-8353593D02*
X7465982Y-8391689D01*
X7465982Y-8391689D02*
X7456458Y-8410736D01*
X7456458Y-8410736D02*
X7446934Y-8420260D01*
X7446934Y-8420260D02*
X7427886Y-8429784D01*
X7427886Y-8429784D02*
X7408839Y-8429784D01*
X7408839Y-8429784D02*
X7389791Y-8420260D01*
X7389791Y-8420260D02*
X7380267Y-8410736D01*
X7380267Y-8410736D02*
X7370744Y-8391689D01*
X7370744Y-8391689D02*
X7361220Y-8353593D01*
X7361220Y-8353593D02*
X7361220Y-8305974D01*
X7361220Y-8305974D02*
X7370744Y-8267879D01*
X7370744Y-8267879D02*
X7380267Y-8248831D01*
X7380267Y-8248831D02*
X7389791Y-8239308D01*
X7389791Y-8239308D02*
X7408839Y-8229784D01*
X7561220Y-8429784D02*
X7561220Y-8296450D01*
X7561220Y-8315498D02*
X7570744Y-8305974D01*
X7570744Y-8305974D02*
X7589791Y-8296450D01*
X7589791Y-8296450D02*
X7618363Y-8296450D01*
X7618363Y-8296450D02*
X7637410Y-8305974D01*
X7637410Y-8305974D02*
X7646934Y-8325022D01*
X7646934Y-8325022D02*
X7646934Y-8429784D01*
X7646934Y-8325022D02*
X7656458Y-8305974D01*
X7656458Y-8305974D02*
X7675505Y-8296450D01*
X7675505Y-8296450D02*
X7704077Y-8296450D01*
X7704077Y-8296450D02*
X7723125Y-8305974D01*
X7723125Y-8305974D02*
X7732648Y-8325022D01*
X7732648Y-8325022D02*
X7732648Y-8429784D01*
X7827886Y-8429784D02*
X7827886Y-8296450D01*
X7827886Y-8315498D02*
X7837410Y-8305974D01*
X7837410Y-8305974D02*
X7856458Y-8296450D01*
X7856458Y-8296450D02*
X7885029Y-8296450D01*
X7885029Y-8296450D02*
X7904077Y-8305974D01*
X7904077Y-8305974D02*
X7913601Y-8325022D01*
X7913601Y-8325022D02*
X7913601Y-8429784D01*
X7913601Y-8325022D02*
X7923125Y-8305974D01*
X7923125Y-8305974D02*
X7942172Y-8296450D01*
X7942172Y-8296450D02*
X7970744Y-8296450D01*
X7970744Y-8296450D02*
X7989791Y-8305974D01*
X7989791Y-8305974D02*
X7999315Y-8325022D01*
X7999315Y-8325022D02*
X7999315Y-8429784D01*
X8389791Y-8220260D02*
X8218363Y-8477403D01*
X8646934Y-8229784D02*
X8665982Y-8229784D01*
X8665982Y-8229784D02*
X8685030Y-8239308D01*
X8685030Y-8239308D02*
X8694553Y-8248831D01*
X8694553Y-8248831D02*
X8704077Y-8267879D01*
X8704077Y-8267879D02*
X8713601Y-8305974D01*
X8713601Y-8305974D02*
X8713601Y-8353593D01*
X8713601Y-8353593D02*
X8704077Y-8391689D01*
X8704077Y-8391689D02*
X8694553Y-8410736D01*
X8694553Y-8410736D02*
X8685030Y-8420260D01*
X8685030Y-8420260D02*
X8665982Y-8429784D01*
X8665982Y-8429784D02*
X8646934Y-8429784D01*
X8646934Y-8429784D02*
X8627887Y-8420260D01*
X8627887Y-8420260D02*
X8618363Y-8410736D01*
X8618363Y-8410736D02*
X8608839Y-8391689D01*
X8608839Y-8391689D02*
X8599315Y-8353593D01*
X8599315Y-8353593D02*
X8599315Y-8305974D01*
X8599315Y-8305974D02*
X8608839Y-8267879D01*
X8608839Y-8267879D02*
X8618363Y-8248831D01*
X8618363Y-8248831D02*
X8627887Y-8239308D01*
X8627887Y-8239308D02*
X8646934Y-8229784D01*
X8799315Y-8410736D02*
X8808839Y-8420260D01*
X8808839Y-8420260D02*
X8799315Y-8429784D01*
X8799315Y-8429784D02*
X8789791Y-8420260D01*
X8789791Y-8420260D02*
X8799315Y-8410736D01*
X8799315Y-8410736D02*
X8799315Y-8429784D01*
X8932649Y-8229784D02*
X8951696Y-8229784D01*
X8951696Y-8229784D02*
X8970744Y-8239308D01*
X8970744Y-8239308D02*
X8980268Y-8248831D01*
X8980268Y-8248831D02*
X8989791Y-8267879D01*
X8989791Y-8267879D02*
X8999315Y-8305974D01*
X8999315Y-8305974D02*
X8999315Y-8353593D01*
X8999315Y-8353593D02*
X8989791Y-8391689D01*
X8989791Y-8391689D02*
X8980268Y-8410736D01*
X8980268Y-8410736D02*
X8970744Y-8420260D01*
X8970744Y-8420260D02*
X8951696Y-8429784D01*
X8951696Y-8429784D02*
X8932649Y-8429784D01*
X8932649Y-8429784D02*
X8913601Y-8420260D01*
X8913601Y-8420260D02*
X8904077Y-8410736D01*
X8904077Y-8410736D02*
X8894553Y-8391689D01*
X8894553Y-8391689D02*
X8885030Y-8353593D01*
X8885030Y-8353593D02*
X8885030Y-8305974D01*
X8885030Y-8305974D02*
X8894553Y-8267879D01*
X8894553Y-8267879D02*
X8904077Y-8248831D01*
X8904077Y-8248831D02*
X8913601Y-8239308D01*
X8913601Y-8239308D02*
X8932649Y-8229784D01*
X9065982Y-8229784D02*
X9199315Y-8229784D01*
X9199315Y-8229784D02*
X9113601Y-8429784D01*
X9313601Y-8229784D02*
X9332649Y-8229784D01*
X9332649Y-8229784D02*
X9351696Y-8239308D01*
X9351696Y-8239308D02*
X9361220Y-8248831D01*
X9361220Y-8248831D02*
X9370744Y-8267879D01*
X9370744Y-8267879D02*
X9380268Y-8305974D01*
X9380268Y-8305974D02*
X9380268Y-8353593D01*
X9380268Y-8353593D02*
X9370744Y-8391689D01*
X9370744Y-8391689D02*
X9361220Y-8410736D01*
X9361220Y-8410736D02*
X9351696Y-8420260D01*
X9351696Y-8420260D02*
X9332649Y-8429784D01*
X9332649Y-8429784D02*
X9313601Y-8429784D01*
X9313601Y-8429784D02*
X9294553Y-8420260D01*
X9294553Y-8420260D02*
X9285030Y-8410736D01*
X9285030Y-8410736D02*
X9275506Y-8391689D01*
X9275506Y-8391689D02*
X9265982Y-8353593D01*
X9265982Y-8353593D02*
X9265982Y-8305974D01*
X9265982Y-8305974D02*
X9275506Y-8267879D01*
X9275506Y-8267879D02*
X9285030Y-8248831D01*
X9285030Y-8248831D02*
X9294553Y-8239308D01*
X9294553Y-8239308D02*
X9313601Y-8229784D01*
X9475506Y-8429784D02*
X9513601Y-8429784D01*
X9513601Y-8429784D02*
X9532649Y-8420260D01*
X9532649Y-8420260D02*
X9542172Y-8410736D01*
X9542172Y-8410736D02*
X9561220Y-8382165D01*
X9561220Y-8382165D02*
X9570744Y-8344069D01*
X9570744Y-8344069D02*
X9570744Y-8267879D01*
X9570744Y-8267879D02*
X9561220Y-8248831D01*
X9561220Y-8248831D02*
X9551696Y-8239308D01*
X9551696Y-8239308D02*
X9532649Y-8229784D01*
X9532649Y-8229784D02*
X9494553Y-8229784D01*
X9494553Y-8229784D02*
X9475506Y-8239308D01*
X9475506Y-8239308D02*
X9465982Y-8248831D01*
X9465982Y-8248831D02*
X9456458Y-8267879D01*
X9456458Y-8267879D02*
X9456458Y-8315498D01*
X9456458Y-8315498D02*
X9465982Y-8334546D01*
X9465982Y-8334546D02*
X9475506Y-8344069D01*
X9475506Y-8344069D02*
X9494553Y-8353593D01*
X9494553Y-8353593D02*
X9532649Y-8353593D01*
X9532649Y-8353593D02*
X9551696Y-8344069D01*
X9551696Y-8344069D02*
X9561220Y-8334546D01*
X9561220Y-8334546D02*
X9570744Y-8315498D01*
X9646934Y-8229784D02*
X9646934Y-8267879D01*
X9723125Y-8229784D02*
X9723125Y-8267879D01*
X10018363Y-8505974D02*
X10008839Y-8496450D01*
X10008839Y-8496450D02*
X9989792Y-8467879D01*
X9989792Y-8467879D02*
X9980268Y-8448831D01*
X9980268Y-8448831D02*
X9970744Y-8420260D01*
X9970744Y-8420260D02*
X9961220Y-8372641D01*
X9961220Y-8372641D02*
X9961220Y-8334546D01*
X9961220Y-8334546D02*
X9970744Y-8286927D01*
X9970744Y-8286927D02*
X9980268Y-8258355D01*
X9980268Y-8258355D02*
X9989792Y-8239308D01*
X9989792Y-8239308D02*
X10008839Y-8210736D01*
X10008839Y-8210736D02*
X10018363Y-8201212D01*
X10180268Y-8229784D02*
X10142172Y-8229784D01*
X10142172Y-8229784D02*
X10123125Y-8239308D01*
X10123125Y-8239308D02*
X10113601Y-8248831D01*
X10113601Y-8248831D02*
X10094553Y-8277403D01*
X10094553Y-8277403D02*
X10085030Y-8315498D01*
X10085030Y-8315498D02*
X10085030Y-8391689D01*
X10085030Y-8391689D02*
X10094553Y-8410736D01*
X10094553Y-8410736D02*
X10104077Y-8420260D01*
X10104077Y-8420260D02*
X10123125Y-8429784D01*
X10123125Y-8429784D02*
X10161220Y-8429784D01*
X10161220Y-8429784D02*
X10180268Y-8420260D01*
X10180268Y-8420260D02*
X10189792Y-8410736D01*
X10189792Y-8410736D02*
X10199315Y-8391689D01*
X10199315Y-8391689D02*
X10199315Y-8344069D01*
X10199315Y-8344069D02*
X10189792Y-8325022D01*
X10189792Y-8325022D02*
X10180268Y-8315498D01*
X10180268Y-8315498D02*
X10161220Y-8305974D01*
X10161220Y-8305974D02*
X10123125Y-8305974D01*
X10123125Y-8305974D02*
X10104077Y-8315498D01*
X10104077Y-8315498D02*
X10094553Y-8325022D01*
X10094553Y-8325022D02*
X10085030Y-8344069D01*
X10437411Y-8429784D02*
X10437411Y-8229784D01*
X10523125Y-8429784D02*
X10523125Y-8325022D01*
X10523125Y-8325022D02*
X10513601Y-8305974D01*
X10513601Y-8305974D02*
X10494554Y-8296450D01*
X10494554Y-8296450D02*
X10465982Y-8296450D01*
X10465982Y-8296450D02*
X10446934Y-8305974D01*
X10446934Y-8305974D02*
X10437411Y-8315498D01*
X10646934Y-8429784D02*
X10627887Y-8420260D01*
X10627887Y-8420260D02*
X10618363Y-8410736D01*
X10618363Y-8410736D02*
X10608839Y-8391689D01*
X10608839Y-8391689D02*
X10608839Y-8334546D01*
X10608839Y-8334546D02*
X10618363Y-8315498D01*
X10618363Y-8315498D02*
X10627887Y-8305974D01*
X10627887Y-8305974D02*
X10646934Y-8296450D01*
X10646934Y-8296450D02*
X10675506Y-8296450D01*
X10675506Y-8296450D02*
X10694554Y-8305974D01*
X10694554Y-8305974D02*
X10704077Y-8315498D01*
X10704077Y-8315498D02*
X10713601Y-8334546D01*
X10713601Y-8334546D02*
X10713601Y-8391689D01*
X10713601Y-8391689D02*
X10704077Y-8410736D01*
X10704077Y-8410736D02*
X10694554Y-8420260D01*
X10694554Y-8420260D02*
X10675506Y-8429784D01*
X10675506Y-8429784D02*
X10646934Y-8429784D01*
X10827887Y-8429784D02*
X10808839Y-8420260D01*
X10808839Y-8420260D02*
X10799315Y-8401212D01*
X10799315Y-8401212D02*
X10799315Y-8229784D01*
X10980268Y-8420260D02*
X10961220Y-8429784D01*
X10961220Y-8429784D02*
X10923125Y-8429784D01*
X10923125Y-8429784D02*
X10904077Y-8420260D01*
X10904077Y-8420260D02*
X10894554Y-8401212D01*
X10894554Y-8401212D02*
X10894554Y-8325022D01*
X10894554Y-8325022D02*
X10904077Y-8305974D01*
X10904077Y-8305974D02*
X10923125Y-8296450D01*
X10923125Y-8296450D02*
X10961220Y-8296450D01*
X10961220Y-8296450D02*
X10980268Y-8305974D01*
X10980268Y-8305974D02*
X10989792Y-8325022D01*
X10989792Y-8325022D02*
X10989792Y-8344069D01*
X10989792Y-8344069D02*
X10894554Y-8363117D01*
X11065982Y-8420260D02*
X11085030Y-8429784D01*
X11085030Y-8429784D02*
X11123125Y-8429784D01*
X11123125Y-8429784D02*
X11142173Y-8420260D01*
X11142173Y-8420260D02*
X11151696Y-8401212D01*
X11151696Y-8401212D02*
X11151696Y-8391689D01*
X11151696Y-8391689D02*
X11142173Y-8372641D01*
X11142173Y-8372641D02*
X11123125Y-8363117D01*
X11123125Y-8363117D02*
X11094554Y-8363117D01*
X11094554Y-8363117D02*
X11075506Y-8353593D01*
X11075506Y-8353593D02*
X11065982Y-8334546D01*
X11065982Y-8334546D02*
X11065982Y-8325022D01*
X11065982Y-8325022D02*
X11075506Y-8305974D01*
X11075506Y-8305974D02*
X11094554Y-8296450D01*
X11094554Y-8296450D02*
X11123125Y-8296450D01*
X11123125Y-8296450D02*
X11142173Y-8305974D01*
X11218363Y-8505974D02*
X11227887Y-8496450D01*
X11227887Y-8496450D02*
X11246934Y-8467879D01*
X11246934Y-8467879D02*
X11256458Y-8448831D01*
X11256458Y-8448831D02*
X11265982Y-8420260D01*
X11265982Y-8420260D02*
X11275506Y-8372641D01*
X11275506Y-8372641D02*
X11275506Y-8334546D01*
X11275506Y-8334546D02*
X11265982Y-8286927D01*
X11265982Y-8286927D02*
X11256458Y-8258355D01*
X11256458Y-8258355D02*
X11246934Y-8239308D01*
X11246934Y-8239308D02*
X11227887Y-8210736D01*
X11227887Y-8210736D02*
X11218363Y-8201212D01*
M02*
