%TF.GenerationSoftware,KiCad,Pcbnew,9.0.6*%
%TF.CreationDate,2026-01-18T22:32:41-05:00*%
%TF.ProjectId,Photon,50686f74-6f6e-42e6-9b69-6361645f7063,1.3*%
%TF.SameCoordinates,Original*%
%TF.FileFunction,Soldermask,Top*%
%TF.FilePolarity,Negative*%
%FSLAX46Y46*%
G04 Gerber Fmt 4.6, Leading zero omitted, Abs format (unit mm)*
G04 Created by KiCad (PCBNEW 9.0.6) date 2026-01-18 22:32:41*
%MOMM*%
%LPD*%
G01*
G04 APERTURE LIST*
G04 APERTURE END LIST*
G36*
X126837176Y-67053699D02*
G01*
X126865725Y-67072775D01*
X126884801Y-67101324D01*
X126891500Y-67135000D01*
X126891500Y-67839000D01*
X126884801Y-67872676D01*
X126865725Y-67901225D01*
X126837176Y-67920301D01*
X126803500Y-67927000D01*
X125979500Y-67927000D01*
X125945824Y-67920301D01*
X125917275Y-67901225D01*
X125898199Y-67872676D01*
X125891500Y-67839000D01*
X125891500Y-67135000D01*
X125898199Y-67101324D01*
X125917275Y-67072775D01*
X125945824Y-67053699D01*
X125979500Y-67047000D01*
X126803500Y-67047000D01*
X126837176Y-67053699D01*
G37*
G36*
X129737176Y-67053699D02*
G01*
X129765725Y-67072775D01*
X129784801Y-67101324D01*
X129791500Y-67135000D01*
X129791500Y-67839000D01*
X129784801Y-67872676D01*
X129765725Y-67901225D01*
X129737176Y-67920301D01*
X129703500Y-67927000D01*
X128879500Y-67927000D01*
X128845824Y-67920301D01*
X128817275Y-67901225D01*
X128798199Y-67872676D01*
X128791500Y-67839000D01*
X128791500Y-67135000D01*
X128798199Y-67101324D01*
X128817275Y-67072775D01*
X128845824Y-67053699D01*
X128879500Y-67047000D01*
X129703500Y-67047000D01*
X129737176Y-67053699D01*
G37*
G36*
X132314714Y-66261295D02*
G01*
X132450548Y-66317559D01*
X132572795Y-66399242D01*
X132676758Y-66503205D01*
X132758441Y-66625452D01*
X132814705Y-66761286D01*
X132843389Y-66905487D01*
X132843389Y-67052513D01*
X132814705Y-67196714D01*
X132758441Y-67332548D01*
X132676758Y-67454795D01*
X132572795Y-67558758D01*
X132450548Y-67640441D01*
X132314714Y-67696705D01*
X132170513Y-67725389D01*
X132023487Y-67725389D01*
X131879286Y-67696705D01*
X131743452Y-67640441D01*
X131621205Y-67558758D01*
X131517242Y-67454795D01*
X131435559Y-67332548D01*
X131379295Y-67196714D01*
X131350611Y-67052513D01*
X131350611Y-66905487D01*
X131379295Y-66761286D01*
X131435559Y-66625452D01*
X131517242Y-66503205D01*
X131621205Y-66399242D01*
X131743452Y-66317559D01*
X131879286Y-66261295D01*
X132023487Y-66232611D01*
X132170513Y-66232611D01*
X132314714Y-66261295D01*
G37*
G36*
X127684338Y-67270349D02*
G01*
X127698613Y-67279887D01*
X127708151Y-67294162D01*
X127711500Y-67311000D01*
X127711500Y-67663000D01*
X127708151Y-67679838D01*
X127698613Y-67694113D01*
X127684338Y-67703651D01*
X127667500Y-67707000D01*
X127225500Y-67707000D01*
X127208662Y-67703651D01*
X127194387Y-67694113D01*
X127184849Y-67679838D01*
X127181500Y-67663000D01*
X127181500Y-67311000D01*
X127184849Y-67294162D01*
X127194387Y-67279887D01*
X127208662Y-67270349D01*
X127225500Y-67267000D01*
X127667500Y-67267000D01*
X127684338Y-67270349D01*
G37*
G36*
X128464338Y-67270349D02*
G01*
X128478613Y-67279887D01*
X128488151Y-67294162D01*
X128491500Y-67311000D01*
X128491500Y-67663000D01*
X128488151Y-67679838D01*
X128478613Y-67694113D01*
X128464338Y-67703651D01*
X128447500Y-67707000D01*
X128005500Y-67707000D01*
X127988662Y-67703651D01*
X127974387Y-67694113D01*
X127964849Y-67679838D01*
X127961500Y-67663000D01*
X127961500Y-67311000D01*
X127964849Y-67294162D01*
X127974387Y-67279887D01*
X127988662Y-67270349D01*
X128005500Y-67267000D01*
X128447500Y-67267000D01*
X128464338Y-67270349D01*
G37*
G36*
X87992046Y-63620804D02*
G01*
X88044553Y-63626896D01*
X88062494Y-63634818D01*
X88085584Y-63639411D01*
X88110304Y-63655928D01*
X88131619Y-63665340D01*
X88146176Y-63679897D01*
X88168312Y-63694688D01*
X88183102Y-63716823D01*
X88197659Y-63731380D01*
X88207069Y-63752693D01*
X88223589Y-63777416D01*
X88228182Y-63800507D01*
X88236103Y-63818446D01*
X88242192Y-63870942D01*
X88243000Y-63875000D01*
X88243000Y-65765000D01*
X88242192Y-65769058D01*
X88236103Y-65821553D01*
X88228182Y-65839490D01*
X88223589Y-65862584D01*
X88207068Y-65887308D01*
X88197659Y-65908619D01*
X88183104Y-65923173D01*
X88168312Y-65945312D01*
X88146173Y-65960104D01*
X88131619Y-65974659D01*
X88110308Y-65984068D01*
X88085584Y-66000589D01*
X88062490Y-66005182D01*
X88044553Y-66013103D01*
X87992058Y-66019192D01*
X87988000Y-66020000D01*
X86798000Y-66020000D01*
X86793942Y-66019192D01*
X86741446Y-66013103D01*
X86723507Y-66005182D01*
X86700416Y-66000589D01*
X86675693Y-65984069D01*
X86654380Y-65974659D01*
X86639823Y-65960102D01*
X86617688Y-65945312D01*
X86602897Y-65923176D01*
X86588340Y-65908619D01*
X86578928Y-65887304D01*
X86562411Y-65862584D01*
X86557818Y-65839494D01*
X86549896Y-65821553D01*
X86543804Y-65769046D01*
X86543000Y-65765000D01*
X86543000Y-63875000D01*
X86543804Y-63870954D01*
X86549896Y-63818446D01*
X86557818Y-63800503D01*
X86562411Y-63777416D01*
X86578927Y-63752697D01*
X86588340Y-63731380D01*
X86602899Y-63716820D01*
X86617688Y-63694688D01*
X86639820Y-63679899D01*
X86654380Y-63665340D01*
X86675697Y-63655927D01*
X86700416Y-63639411D01*
X86723503Y-63634818D01*
X86741446Y-63626896D01*
X86793954Y-63620804D01*
X86798000Y-63620000D01*
X87988000Y-63620000D01*
X87992046Y-63620804D01*
G37*
G36*
X113619046Y-63620804D02*
G01*
X113671553Y-63626896D01*
X113689494Y-63634818D01*
X113712584Y-63639411D01*
X113737304Y-63655928D01*
X113758619Y-63665340D01*
X113773176Y-63679897D01*
X113795312Y-63694688D01*
X113810102Y-63716823D01*
X113824659Y-63731380D01*
X113834069Y-63752693D01*
X113850589Y-63777416D01*
X113855182Y-63800507D01*
X113863103Y-63818446D01*
X113869192Y-63870942D01*
X113870000Y-63875000D01*
X113870000Y-65765000D01*
X113869192Y-65769058D01*
X113863103Y-65821553D01*
X113855182Y-65839490D01*
X113850589Y-65862584D01*
X113834068Y-65887308D01*
X113824659Y-65908619D01*
X113810104Y-65923173D01*
X113795312Y-65945312D01*
X113773173Y-65960104D01*
X113758619Y-65974659D01*
X113737308Y-65984068D01*
X113712584Y-66000589D01*
X113689490Y-66005182D01*
X113671553Y-66013103D01*
X113619058Y-66019192D01*
X113615000Y-66020000D01*
X112425000Y-66020000D01*
X112420942Y-66019192D01*
X112368446Y-66013103D01*
X112350507Y-66005182D01*
X112327416Y-66000589D01*
X112302693Y-65984069D01*
X112281380Y-65974659D01*
X112266823Y-65960102D01*
X112244688Y-65945312D01*
X112229897Y-65923176D01*
X112215340Y-65908619D01*
X112205928Y-65887304D01*
X112189411Y-65862584D01*
X112184818Y-65839494D01*
X112176896Y-65821553D01*
X112170804Y-65769046D01*
X112170000Y-65765000D01*
X112170000Y-63875000D01*
X112170804Y-63870954D01*
X112176896Y-63818446D01*
X112184818Y-63800503D01*
X112189411Y-63777416D01*
X112205927Y-63752697D01*
X112215340Y-63731380D01*
X112229899Y-63716820D01*
X112244688Y-63694688D01*
X112266820Y-63679899D01*
X112281380Y-63665340D01*
X112302697Y-63655927D01*
X112327416Y-63639411D01*
X112350503Y-63634818D01*
X112368446Y-63626896D01*
X112420954Y-63620804D01*
X112425000Y-63620000D01*
X113615000Y-63620000D01*
X113619046Y-63620804D01*
G37*
G36*
X124981504Y-64679527D02*
G01*
X125054499Y-64728301D01*
X125103273Y-64801296D01*
X125120400Y-64887400D01*
X125120400Y-65337400D01*
X125103273Y-65423504D01*
X125054499Y-65496499D01*
X124981504Y-65545273D01*
X124895400Y-65562400D01*
X124395400Y-65562400D01*
X124309296Y-65545273D01*
X124236301Y-65496499D01*
X124187527Y-65423504D01*
X124170400Y-65337400D01*
X124170400Y-64887400D01*
X124187527Y-64801296D01*
X124236301Y-64728301D01*
X124309296Y-64679527D01*
X124395400Y-64662400D01*
X124895400Y-64662400D01*
X124981504Y-64679527D01*
G37*
G36*
X130670537Y-64757624D02*
G01*
X130735421Y-64800979D01*
X130778776Y-64865863D01*
X130794000Y-64942400D01*
X130794000Y-65342400D01*
X130778776Y-65418937D01*
X130735421Y-65483821D01*
X130670537Y-65527176D01*
X130594000Y-65542400D01*
X130044000Y-65542400D01*
X129967463Y-65527176D01*
X129902579Y-65483821D01*
X129859224Y-65418937D01*
X129844000Y-65342400D01*
X129844000Y-64942400D01*
X129859224Y-64865863D01*
X129902579Y-64800979D01*
X129967463Y-64757624D01*
X130044000Y-64742400D01*
X130594000Y-64742400D01*
X130670537Y-64757624D01*
G37*
G36*
X71261737Y-63979224D02*
G01*
X71326621Y-64022579D01*
X71369976Y-64087463D01*
X71385200Y-64164000D01*
X71385200Y-64714000D01*
X71369976Y-64790537D01*
X71326621Y-64855421D01*
X71261737Y-64898776D01*
X71185200Y-64914000D01*
X70785200Y-64914000D01*
X70708663Y-64898776D01*
X70643779Y-64855421D01*
X70600424Y-64790537D01*
X70585200Y-64714000D01*
X70585200Y-64164000D01*
X70600424Y-64087463D01*
X70643779Y-64022579D01*
X70708663Y-63979224D01*
X70785200Y-63964000D01*
X71185200Y-63964000D01*
X71261737Y-63979224D01*
G37*
G36*
X72911737Y-63979224D02*
G01*
X72976621Y-64022579D01*
X73019976Y-64087463D01*
X73035200Y-64164000D01*
X73035200Y-64714000D01*
X73019976Y-64790537D01*
X72976621Y-64855421D01*
X72911737Y-64898776D01*
X72835200Y-64914000D01*
X72435200Y-64914000D01*
X72358663Y-64898776D01*
X72293779Y-64855421D01*
X72250424Y-64790537D01*
X72235200Y-64714000D01*
X72235200Y-64164000D01*
X72250424Y-64087463D01*
X72293779Y-64022579D01*
X72358663Y-63979224D01*
X72435200Y-63964000D01*
X72835200Y-63964000D01*
X72911737Y-63979224D01*
G37*
G36*
X124981504Y-63129527D02*
G01*
X125054499Y-63178301D01*
X125103273Y-63251296D01*
X125120400Y-63337400D01*
X125120400Y-63787400D01*
X125103273Y-63873504D01*
X125054499Y-63946499D01*
X124981504Y-63995273D01*
X124895400Y-64012400D01*
X124395400Y-64012400D01*
X124309296Y-63995273D01*
X124236301Y-63946499D01*
X124187527Y-63873504D01*
X124170400Y-63787400D01*
X124170400Y-63337400D01*
X124187527Y-63251296D01*
X124236301Y-63178301D01*
X124309296Y-63129527D01*
X124395400Y-63112400D01*
X124895400Y-63112400D01*
X124981504Y-63129527D01*
G37*
G36*
X104457522Y-61208520D02*
G01*
X104496453Y-61234533D01*
X104522466Y-61273464D01*
X104531600Y-61319386D01*
X104531600Y-63779386D01*
X104522466Y-63825308D01*
X104496453Y-63864239D01*
X104457522Y-63890252D01*
X104411600Y-63899386D01*
X103851600Y-63899386D01*
X103805678Y-63890252D01*
X103766747Y-63864239D01*
X103740734Y-63825308D01*
X103731600Y-63779386D01*
X103731600Y-61319386D01*
X103740734Y-61273464D01*
X103766747Y-61234533D01*
X103805678Y-61208520D01*
X103851600Y-61199386D01*
X104411600Y-61199386D01*
X104457522Y-61208520D01*
G37*
G36*
X106768922Y-61208520D02*
G01*
X106807853Y-61234533D01*
X106833866Y-61273464D01*
X106843000Y-61319386D01*
X106843000Y-63779386D01*
X106833866Y-63825308D01*
X106807853Y-63864239D01*
X106768922Y-63890252D01*
X106723000Y-63899386D01*
X106163000Y-63899386D01*
X106117078Y-63890252D01*
X106078147Y-63864239D01*
X106052134Y-63825308D01*
X106043000Y-63779386D01*
X106043000Y-61319386D01*
X106052134Y-61273464D01*
X106078147Y-61234533D01*
X106117078Y-61208520D01*
X106163000Y-61199386D01*
X106723000Y-61199386D01*
X106768922Y-61208520D01*
G37*
G36*
X130670537Y-63107624D02*
G01*
X130735421Y-63150979D01*
X130778776Y-63215863D01*
X130794000Y-63292400D01*
X130794000Y-63692400D01*
X130778776Y-63768937D01*
X130735421Y-63833821D01*
X130670537Y-63877176D01*
X130594000Y-63892400D01*
X130044000Y-63892400D01*
X129967463Y-63877176D01*
X129902579Y-63833821D01*
X129859224Y-63768937D01*
X129844000Y-63692400D01*
X129844000Y-63292400D01*
X129859224Y-63215863D01*
X129902579Y-63150979D01*
X129967463Y-63107624D01*
X130044000Y-63092400D01*
X130594000Y-63092400D01*
X130670537Y-63107624D01*
G37*
G36*
X100814537Y-62709224D02*
G01*
X100879421Y-62752579D01*
X100922776Y-62817463D01*
X100938000Y-62894000D01*
X100938000Y-63444000D01*
X100922776Y-63520537D01*
X100879421Y-63585421D01*
X100814537Y-63628776D01*
X100738000Y-63644000D01*
X100338000Y-63644000D01*
X100261463Y-63628776D01*
X100196579Y-63585421D01*
X100153224Y-63520537D01*
X100138000Y-63444000D01*
X100138000Y-62894000D01*
X100153224Y-62817463D01*
X100196579Y-62752579D01*
X100261463Y-62709224D01*
X100338000Y-62694000D01*
X100738000Y-62694000D01*
X100814537Y-62709224D01*
G37*
G36*
X102464537Y-62709224D02*
G01*
X102529421Y-62752579D01*
X102572776Y-62817463D01*
X102588000Y-62894000D01*
X102588000Y-63444000D01*
X102572776Y-63520537D01*
X102529421Y-63585421D01*
X102464537Y-63628776D01*
X102388000Y-63644000D01*
X101988000Y-63644000D01*
X101911463Y-63628776D01*
X101846579Y-63585421D01*
X101803224Y-63520537D01*
X101788000Y-63444000D01*
X101788000Y-62894000D01*
X101803224Y-62817463D01*
X101846579Y-62752579D01*
X101911463Y-62709224D01*
X101988000Y-62694000D01*
X102388000Y-62694000D01*
X102464537Y-62709224D01*
G37*
G36*
X134084263Y-62214078D02*
G01*
X134210342Y-62247860D01*
X134323381Y-62313123D01*
X134415677Y-62405419D01*
X134480940Y-62518458D01*
X134514722Y-62644537D01*
X134514722Y-62775063D01*
X134480940Y-62901142D01*
X134415677Y-63014181D01*
X134323381Y-63106477D01*
X134210342Y-63171740D01*
X134084263Y-63205522D01*
X134019000Y-63209800D01*
X134017363Y-63209800D01*
X133320637Y-63209800D01*
X133319000Y-63209800D01*
X133253737Y-63205522D01*
X133127658Y-63171740D01*
X133014619Y-63106477D01*
X132922323Y-63014181D01*
X132857060Y-62901142D01*
X132823278Y-62775063D01*
X132823278Y-62644537D01*
X132857060Y-62518458D01*
X132922323Y-62405419D01*
X133014619Y-62313123D01*
X133127658Y-62247860D01*
X133253737Y-62214078D01*
X133319000Y-62209800D01*
X134019000Y-62209800D01*
X134084263Y-62214078D01*
G37*
G36*
X137884263Y-62214078D02*
G01*
X138010342Y-62247860D01*
X138123381Y-62313123D01*
X138215677Y-62405419D01*
X138280940Y-62518458D01*
X138314722Y-62644537D01*
X138314722Y-62775063D01*
X138280940Y-62901142D01*
X138215677Y-63014181D01*
X138123381Y-63106477D01*
X138010342Y-63171740D01*
X137884263Y-63205522D01*
X137819000Y-63209800D01*
X137817363Y-63209800D01*
X137120637Y-63209800D01*
X137119000Y-63209800D01*
X137053737Y-63205522D01*
X136927658Y-63171740D01*
X136814619Y-63106477D01*
X136722323Y-63014181D01*
X136657060Y-62901142D01*
X136623278Y-62775063D01*
X136623278Y-62644537D01*
X136657060Y-62518458D01*
X136722323Y-62405419D01*
X136814619Y-62313123D01*
X136927658Y-62247860D01*
X137053737Y-62214078D01*
X137119000Y-62209800D01*
X137819000Y-62209800D01*
X137884263Y-62214078D01*
G37*
G36*
X71118403Y-61623418D02*
G01*
X71167066Y-61655934D01*
X71199582Y-61704597D01*
X71211000Y-61762000D01*
X71211000Y-62787000D01*
X71199582Y-62844403D01*
X71167066Y-62893066D01*
X71118403Y-62925582D01*
X71061000Y-62937000D01*
X70761000Y-62937000D01*
X70703597Y-62925582D01*
X70654934Y-62893066D01*
X70622418Y-62844403D01*
X70611000Y-62787000D01*
X70611000Y-61762000D01*
X70622418Y-61704597D01*
X70654934Y-61655934D01*
X70703597Y-61623418D01*
X70761000Y-61612000D01*
X71061000Y-61612000D01*
X71118403Y-61623418D01*
G37*
G36*
X72068403Y-61623418D02*
G01*
X72117066Y-61655934D01*
X72149582Y-61704597D01*
X72161000Y-61762000D01*
X72161000Y-62787000D01*
X72149582Y-62844403D01*
X72117066Y-62893066D01*
X72068403Y-62925582D01*
X72011000Y-62937000D01*
X71711000Y-62937000D01*
X71653597Y-62925582D01*
X71604934Y-62893066D01*
X71572418Y-62844403D01*
X71561000Y-62787000D01*
X71561000Y-61762000D01*
X71572418Y-61704597D01*
X71604934Y-61655934D01*
X71653597Y-61623418D01*
X71711000Y-61612000D01*
X72011000Y-61612000D01*
X72068403Y-61623418D01*
G37*
G36*
X73018403Y-61623418D02*
G01*
X73067066Y-61655934D01*
X73099582Y-61704597D01*
X73111000Y-61762000D01*
X73111000Y-62787000D01*
X73099582Y-62844403D01*
X73067066Y-62893066D01*
X73018403Y-62925582D01*
X72961000Y-62937000D01*
X72661000Y-62937000D01*
X72603597Y-62925582D01*
X72554934Y-62893066D01*
X72522418Y-62844403D01*
X72511000Y-62787000D01*
X72511000Y-61762000D01*
X72522418Y-61704597D01*
X72554934Y-61655934D01*
X72603597Y-61623418D01*
X72661000Y-61612000D01*
X72961000Y-61612000D01*
X73018403Y-61623418D01*
G37*
G36*
X94549104Y-61695127D02*
G01*
X94622099Y-61743901D01*
X94670873Y-61816896D01*
X94688000Y-61903000D01*
X94688000Y-62403000D01*
X94670873Y-62489104D01*
X94622099Y-62562099D01*
X94549104Y-62610873D01*
X94463000Y-62628000D01*
X94013000Y-62628000D01*
X93926896Y-62610873D01*
X93853901Y-62562099D01*
X93805127Y-62489104D01*
X93788000Y-62403000D01*
X93788000Y-61903000D01*
X93805127Y-61816896D01*
X93853901Y-61743901D01*
X93926896Y-61695127D01*
X94013000Y-61678000D01*
X94463000Y-61678000D01*
X94549104Y-61695127D01*
G37*
G36*
X96099104Y-61695127D02*
G01*
X96172099Y-61743901D01*
X96220873Y-61816896D01*
X96238000Y-61903000D01*
X96238000Y-62403000D01*
X96220873Y-62489104D01*
X96172099Y-62562099D01*
X96099104Y-62610873D01*
X96013000Y-62628000D01*
X95563000Y-62628000D01*
X95476896Y-62610873D01*
X95403901Y-62562099D01*
X95355127Y-62489104D01*
X95338000Y-62403000D01*
X95338000Y-61903000D01*
X95355127Y-61816896D01*
X95403901Y-61743901D01*
X95476896Y-61695127D01*
X95563000Y-61678000D01*
X96013000Y-61678000D01*
X96099104Y-61695127D01*
G37*
G36*
X76557168Y-59431245D02*
G01*
X76781025Y-59503981D01*
X76990748Y-59610840D01*
X77181172Y-59749191D01*
X77347609Y-59915628D01*
X77485960Y-60106052D01*
X77592819Y-60315775D01*
X77665555Y-60539632D01*
X77702376Y-60772111D01*
X77702376Y-61007489D01*
X77665555Y-61239968D01*
X77592819Y-61463825D01*
X77485960Y-61673548D01*
X77347609Y-61863972D01*
X77181172Y-62030409D01*
X76990748Y-62168760D01*
X76781025Y-62275619D01*
X76557168Y-62348355D01*
X76324689Y-62385176D01*
X76089311Y-62385176D01*
X75856832Y-62348355D01*
X75632975Y-62275619D01*
X75423252Y-62168760D01*
X75232828Y-62030409D01*
X75066391Y-61863972D01*
X74928040Y-61673548D01*
X74821181Y-61463825D01*
X74748445Y-61239968D01*
X74711624Y-61007489D01*
X74711624Y-60772111D01*
X74748445Y-60539632D01*
X74821181Y-60315775D01*
X74928040Y-60106052D01*
X75066391Y-59915628D01*
X75232828Y-59749191D01*
X75423252Y-59610840D01*
X75632975Y-59503981D01*
X75856832Y-59431245D01*
X76089311Y-59394424D01*
X76324689Y-59394424D01*
X76557168Y-59431245D01*
G37*
G36*
X122557168Y-59431245D02*
G01*
X122781025Y-59503981D01*
X122990748Y-59610840D01*
X123181172Y-59749191D01*
X123347609Y-59915628D01*
X123485960Y-60106052D01*
X123592819Y-60315775D01*
X123665555Y-60539632D01*
X123702376Y-60772111D01*
X123702376Y-61007489D01*
X123665555Y-61239968D01*
X123592819Y-61463825D01*
X123485960Y-61673548D01*
X123347609Y-61863972D01*
X123181172Y-62030409D01*
X122990748Y-62168760D01*
X122781025Y-62275619D01*
X122557168Y-62348355D01*
X122324689Y-62385176D01*
X122089311Y-62385176D01*
X121856832Y-62348355D01*
X121632975Y-62275619D01*
X121423252Y-62168760D01*
X121232828Y-62030409D01*
X121066391Y-61863972D01*
X120928040Y-61673548D01*
X120821181Y-61463825D01*
X120748445Y-61239968D01*
X120711624Y-61007489D01*
X120711624Y-60772111D01*
X120748445Y-60539632D01*
X120821181Y-60315775D01*
X120928040Y-60106052D01*
X121066391Y-59915628D01*
X121232828Y-59749191D01*
X121423252Y-59610840D01*
X121632975Y-59503981D01*
X121856832Y-59431245D01*
X122089311Y-59394424D01*
X122324689Y-59394424D01*
X122557168Y-59431245D01*
G37*
G36*
X100814537Y-60931224D02*
G01*
X100879421Y-60974579D01*
X100922776Y-61039463D01*
X100938000Y-61116000D01*
X100938000Y-61666000D01*
X100922776Y-61742537D01*
X100879421Y-61807421D01*
X100814537Y-61850776D01*
X100738000Y-61866000D01*
X100338000Y-61866000D01*
X100261463Y-61850776D01*
X100196579Y-61807421D01*
X100153224Y-61742537D01*
X100138000Y-61666000D01*
X100138000Y-61116000D01*
X100153224Y-61039463D01*
X100196579Y-60974579D01*
X100261463Y-60931224D01*
X100338000Y-60916000D01*
X100738000Y-60916000D01*
X100814537Y-60931224D01*
G37*
G36*
X102464537Y-60931224D02*
G01*
X102529421Y-60974579D01*
X102572776Y-61039463D01*
X102588000Y-61116000D01*
X102588000Y-61666000D01*
X102572776Y-61742537D01*
X102529421Y-61807421D01*
X102464537Y-61850776D01*
X102388000Y-61866000D01*
X101988000Y-61866000D01*
X101911463Y-61850776D01*
X101846579Y-61807421D01*
X101803224Y-61742537D01*
X101788000Y-61666000D01*
X101788000Y-61116000D01*
X101803224Y-61039463D01*
X101846579Y-60974579D01*
X101911463Y-60931224D01*
X101988000Y-60916000D01*
X102388000Y-60916000D01*
X102464537Y-60931224D01*
G37*
G36*
X124663003Y-59901218D02*
G01*
X124711666Y-59933734D01*
X124744182Y-59982397D01*
X124755600Y-60039800D01*
X124755600Y-61689800D01*
X124744182Y-61747203D01*
X124711666Y-61795866D01*
X124663003Y-61828382D01*
X124605600Y-61839800D01*
X124305600Y-61839800D01*
X124248197Y-61828382D01*
X124199534Y-61795866D01*
X124167018Y-61747203D01*
X124155600Y-61689800D01*
X124155600Y-60039800D01*
X124167018Y-59982397D01*
X124199534Y-59933734D01*
X124248197Y-59901218D01*
X124305600Y-59889800D01*
X124605600Y-59889800D01*
X124663003Y-59901218D01*
G37*
G36*
X125933003Y-59901218D02*
G01*
X125981666Y-59933734D01*
X126014182Y-59982397D01*
X126025600Y-60039800D01*
X126025600Y-61689800D01*
X126014182Y-61747203D01*
X125981666Y-61795866D01*
X125933003Y-61828382D01*
X125875600Y-61839800D01*
X125575600Y-61839800D01*
X125518197Y-61828382D01*
X125469534Y-61795866D01*
X125437018Y-61747203D01*
X125425600Y-61689800D01*
X125425600Y-60039800D01*
X125437018Y-59982397D01*
X125469534Y-59933734D01*
X125518197Y-59901218D01*
X125575600Y-59889800D01*
X125875600Y-59889800D01*
X125933003Y-59901218D01*
G37*
G36*
X127203003Y-59901218D02*
G01*
X127251666Y-59933734D01*
X127284182Y-59982397D01*
X127295600Y-60039800D01*
X127295600Y-61689800D01*
X127284182Y-61747203D01*
X127251666Y-61795866D01*
X127203003Y-61828382D01*
X127145600Y-61839800D01*
X126845600Y-61839800D01*
X126788197Y-61828382D01*
X126739534Y-61795866D01*
X126707018Y-61747203D01*
X126695600Y-61689800D01*
X126695600Y-60039800D01*
X126707018Y-59982397D01*
X126739534Y-59933734D01*
X126788197Y-59901218D01*
X126845600Y-59889800D01*
X127145600Y-59889800D01*
X127203003Y-59901218D01*
G37*
G36*
X128473003Y-59901218D02*
G01*
X128521666Y-59933734D01*
X128554182Y-59982397D01*
X128565600Y-60039800D01*
X128565600Y-61689800D01*
X128554182Y-61747203D01*
X128521666Y-61795866D01*
X128473003Y-61828382D01*
X128415600Y-61839800D01*
X128115600Y-61839800D01*
X128058197Y-61828382D01*
X128009534Y-61795866D01*
X127977018Y-61747203D01*
X127965600Y-61689800D01*
X127965600Y-60039800D01*
X127977018Y-59982397D01*
X128009534Y-59933734D01*
X128058197Y-59901218D01*
X128115600Y-59889800D01*
X128415600Y-59889800D01*
X128473003Y-59901218D01*
G37*
G36*
X134150104Y-60706927D02*
G01*
X134223099Y-60755701D01*
X134271873Y-60828696D01*
X134289000Y-60914800D01*
X134289000Y-61364800D01*
X134271873Y-61450904D01*
X134223099Y-61523899D01*
X134150104Y-61572673D01*
X134064000Y-61589800D01*
X132914000Y-61589800D01*
X132827896Y-61572673D01*
X132754901Y-61523899D01*
X132706127Y-61450904D01*
X132689000Y-61364800D01*
X132689000Y-60914800D01*
X132706127Y-60828696D01*
X132754901Y-60755701D01*
X132827896Y-60706927D01*
X132914000Y-60689800D01*
X134064000Y-60689800D01*
X134150104Y-60706927D01*
G37*
G36*
X120090403Y-60833218D02*
G01*
X120139066Y-60865734D01*
X120171582Y-60914397D01*
X120183000Y-60971800D01*
X120183000Y-61271800D01*
X120171582Y-61329203D01*
X120139066Y-61377866D01*
X120090403Y-61410382D01*
X120033000Y-61421800D01*
X118858000Y-61421800D01*
X118800597Y-61410382D01*
X118751934Y-61377866D01*
X118719418Y-61329203D01*
X118708000Y-61271800D01*
X118708000Y-60971800D01*
X118719418Y-60914397D01*
X118751934Y-60865734D01*
X118800597Y-60833218D01*
X118858000Y-60821800D01*
X120033000Y-60821800D01*
X120090403Y-60833218D01*
G37*
G36*
X80200182Y-59984993D02*
G01*
X80234246Y-60007754D01*
X80257007Y-60041818D01*
X80265000Y-60082000D01*
X80265000Y-60922000D01*
X80257007Y-60962182D01*
X80234246Y-60996246D01*
X80200182Y-61019007D01*
X80160000Y-61027000D01*
X78370000Y-61027000D01*
X78329818Y-61019007D01*
X78295754Y-60996246D01*
X78272993Y-60962182D01*
X78265000Y-60922000D01*
X78265000Y-60082000D01*
X78272993Y-60041818D01*
X78295754Y-60007754D01*
X78329818Y-59984993D01*
X78370000Y-59977000D01*
X80160000Y-59977000D01*
X80200182Y-59984993D01*
G37*
G36*
X87071709Y-56254406D02*
G01*
X87357132Y-56330885D01*
X87630130Y-56443964D01*
X87886033Y-56591710D01*
X88120462Y-56771594D01*
X88329406Y-56980538D01*
X88509290Y-57214967D01*
X88657036Y-57470870D01*
X88770115Y-57743868D01*
X88846594Y-58029291D01*
X88885163Y-58322254D01*
X88885163Y-58617746D01*
X88846594Y-58910709D01*
X88770115Y-59196132D01*
X88657036Y-59469130D01*
X88509290Y-59725033D01*
X88329406Y-59959462D01*
X88120462Y-60168406D01*
X87886033Y-60348290D01*
X87630130Y-60496036D01*
X87357132Y-60609115D01*
X87071709Y-60685594D01*
X86778746Y-60724163D01*
X86483254Y-60724163D01*
X86190291Y-60685594D01*
X85904868Y-60609115D01*
X85631870Y-60496036D01*
X85375967Y-60348290D01*
X85141538Y-60168406D01*
X84932594Y-59959462D01*
X84752710Y-59725033D01*
X84604964Y-59469130D01*
X84491885Y-59196132D01*
X84415406Y-58910709D01*
X84376837Y-58617746D01*
X84376837Y-58322254D01*
X84415406Y-58029291D01*
X84491885Y-57743868D01*
X84604964Y-57470870D01*
X84752710Y-57214967D01*
X84932594Y-56980538D01*
X85141538Y-56771594D01*
X85375967Y-56591710D01*
X85631870Y-56443964D01*
X85904868Y-56330885D01*
X86190291Y-56254406D01*
X86483254Y-56215837D01*
X86778746Y-56215837D01*
X87071709Y-56254406D01*
G37*
G36*
X112698709Y-56254406D02*
G01*
X112984132Y-56330885D01*
X113257130Y-56443964D01*
X113513033Y-56591710D01*
X113747462Y-56771594D01*
X113956406Y-56980538D01*
X114136290Y-57214967D01*
X114284036Y-57470870D01*
X114397115Y-57743868D01*
X114473594Y-58029291D01*
X114512163Y-58322254D01*
X114512163Y-58617746D01*
X114473594Y-58910709D01*
X114397115Y-59196132D01*
X114284036Y-59469130D01*
X114136290Y-59725033D01*
X113956406Y-59959462D01*
X113747462Y-60168406D01*
X113513033Y-60348290D01*
X113257130Y-60496036D01*
X112984132Y-60609115D01*
X112698709Y-60685594D01*
X112405746Y-60724163D01*
X112110254Y-60724163D01*
X111817291Y-60685594D01*
X111531868Y-60609115D01*
X111258870Y-60496036D01*
X111002967Y-60348290D01*
X110768538Y-60168406D01*
X110559594Y-59959462D01*
X110379710Y-59725033D01*
X110231964Y-59469130D01*
X110118885Y-59196132D01*
X110042406Y-58910709D01*
X110003837Y-58617746D01*
X110003837Y-58322254D01*
X110042406Y-58029291D01*
X110118885Y-57743868D01*
X110231964Y-57470870D01*
X110379710Y-57214967D01*
X110559594Y-56980538D01*
X110768538Y-56771594D01*
X111002967Y-56591710D01*
X111258870Y-56443964D01*
X111531868Y-56330885D01*
X111817291Y-56254406D01*
X112110254Y-56215837D01*
X112405746Y-56215837D01*
X112698709Y-56254406D01*
G37*
G36*
X71118403Y-59348418D02*
G01*
X71167066Y-59380934D01*
X71199582Y-59429597D01*
X71211000Y-59487000D01*
X71211000Y-60512000D01*
X71199582Y-60569403D01*
X71167066Y-60618066D01*
X71118403Y-60650582D01*
X71061000Y-60662000D01*
X70761000Y-60662000D01*
X70703597Y-60650582D01*
X70654934Y-60618066D01*
X70622418Y-60569403D01*
X70611000Y-60512000D01*
X70611000Y-59487000D01*
X70622418Y-59429597D01*
X70654934Y-59380934D01*
X70703597Y-59348418D01*
X70761000Y-59337000D01*
X71061000Y-59337000D01*
X71118403Y-59348418D01*
G37*
G36*
X72068403Y-59348418D02*
G01*
X72117066Y-59380934D01*
X72149582Y-59429597D01*
X72161000Y-59487000D01*
X72161000Y-60512000D01*
X72149582Y-60569403D01*
X72117066Y-60618066D01*
X72068403Y-60650582D01*
X72011000Y-60662000D01*
X71711000Y-60662000D01*
X71653597Y-60650582D01*
X71604934Y-60618066D01*
X71572418Y-60569403D01*
X71561000Y-60512000D01*
X71561000Y-59487000D01*
X71572418Y-59429597D01*
X71604934Y-59380934D01*
X71653597Y-59348418D01*
X71711000Y-59337000D01*
X72011000Y-59337000D01*
X72068403Y-59348418D01*
G37*
G36*
X73018403Y-59348418D02*
G01*
X73067066Y-59380934D01*
X73099582Y-59429597D01*
X73111000Y-59487000D01*
X73111000Y-60512000D01*
X73099582Y-60569403D01*
X73067066Y-60618066D01*
X73018403Y-60650582D01*
X72961000Y-60662000D01*
X72661000Y-60662000D01*
X72603597Y-60650582D01*
X72554934Y-60618066D01*
X72522418Y-60569403D01*
X72511000Y-60512000D01*
X72511000Y-59487000D01*
X72522418Y-59429597D01*
X72554934Y-59380934D01*
X72603597Y-59348418D01*
X72661000Y-59337000D01*
X72961000Y-59337000D01*
X73018403Y-59348418D01*
G37*
G36*
X94585403Y-58884418D02*
G01*
X94634066Y-58916934D01*
X94666582Y-58965597D01*
X94678000Y-59023000D01*
X94678000Y-60373000D01*
X94666582Y-60430403D01*
X94634066Y-60479066D01*
X94585403Y-60511582D01*
X94528000Y-60523000D01*
X94228000Y-60523000D01*
X94170597Y-60511582D01*
X94121934Y-60479066D01*
X94089418Y-60430403D01*
X94078000Y-60373000D01*
X94078000Y-59023000D01*
X94089418Y-58965597D01*
X94121934Y-58916934D01*
X94170597Y-58884418D01*
X94228000Y-58873000D01*
X94528000Y-58873000D01*
X94585403Y-58884418D01*
G37*
G36*
X95855403Y-58884418D02*
G01*
X95904066Y-58916934D01*
X95936582Y-58965597D01*
X95948000Y-59023000D01*
X95948000Y-60373000D01*
X95936582Y-60430403D01*
X95904066Y-60479066D01*
X95855403Y-60511582D01*
X95798000Y-60523000D01*
X95498000Y-60523000D01*
X95440597Y-60511582D01*
X95391934Y-60479066D01*
X95359418Y-60430403D01*
X95348000Y-60373000D01*
X95348000Y-59023000D01*
X95359418Y-58965597D01*
X95391934Y-58916934D01*
X95440597Y-58884418D01*
X95498000Y-58873000D01*
X95798000Y-58873000D01*
X95855403Y-58884418D01*
G37*
G36*
X97125403Y-58884418D02*
G01*
X97174066Y-58916934D01*
X97206582Y-58965597D01*
X97218000Y-59023000D01*
X97218000Y-60373000D01*
X97206582Y-60430403D01*
X97174066Y-60479066D01*
X97125403Y-60511582D01*
X97068000Y-60523000D01*
X96768000Y-60523000D01*
X96710597Y-60511582D01*
X96661934Y-60479066D01*
X96629418Y-60430403D01*
X96618000Y-60373000D01*
X96618000Y-59023000D01*
X96629418Y-58965597D01*
X96661934Y-58916934D01*
X96710597Y-58884418D01*
X96768000Y-58873000D01*
X97068000Y-58873000D01*
X97125403Y-58884418D01*
G37*
G36*
X98395403Y-58884418D02*
G01*
X98444066Y-58916934D01*
X98476582Y-58965597D01*
X98488000Y-59023000D01*
X98488000Y-60373000D01*
X98476582Y-60430403D01*
X98444066Y-60479066D01*
X98395403Y-60511582D01*
X98338000Y-60523000D01*
X98038000Y-60523000D01*
X97980597Y-60511582D01*
X97931934Y-60479066D01*
X97899418Y-60430403D01*
X97888000Y-60373000D01*
X97888000Y-59023000D01*
X97899418Y-58965597D01*
X97931934Y-58916934D01*
X97980597Y-58884418D01*
X98038000Y-58873000D01*
X98338000Y-58873000D01*
X98395403Y-58884418D01*
G37*
G36*
X118215403Y-59883218D02*
G01*
X118264066Y-59915734D01*
X118296582Y-59964397D01*
X118308000Y-60021800D01*
X118308000Y-60321800D01*
X118296582Y-60379203D01*
X118264066Y-60427866D01*
X118215403Y-60460382D01*
X118158000Y-60471800D01*
X116983000Y-60471800D01*
X116925597Y-60460382D01*
X116876934Y-60427866D01*
X116844418Y-60379203D01*
X116833000Y-60321800D01*
X116833000Y-60021800D01*
X116844418Y-59964397D01*
X116876934Y-59915734D01*
X116925597Y-59883218D01*
X116983000Y-59871800D01*
X118158000Y-59871800D01*
X118215403Y-59883218D01*
G37*
G36*
X106652104Y-59460127D02*
G01*
X106725099Y-59508901D01*
X106773873Y-59581896D01*
X106791000Y-59668000D01*
X106791000Y-60118000D01*
X106773873Y-60204104D01*
X106725099Y-60277099D01*
X106652104Y-60325873D01*
X106566000Y-60343000D01*
X106066000Y-60343000D01*
X105979896Y-60325873D01*
X105906901Y-60277099D01*
X105858127Y-60204104D01*
X105841000Y-60118000D01*
X105841000Y-59668000D01*
X105858127Y-59581896D01*
X105906901Y-59508901D01*
X105979896Y-59460127D01*
X106066000Y-59443000D01*
X106566000Y-59443000D01*
X106652104Y-59460127D01*
G37*
G36*
X134165537Y-59525024D02*
G01*
X134230421Y-59568379D01*
X134273776Y-59633263D01*
X134289000Y-59709800D01*
X134289000Y-60109800D01*
X134273776Y-60186337D01*
X134230421Y-60251221D01*
X134165537Y-60294576D01*
X134089000Y-60309800D01*
X132889000Y-60309800D01*
X132812463Y-60294576D01*
X132747579Y-60251221D01*
X132704224Y-60186337D01*
X132689000Y-60109800D01*
X132689000Y-59709800D01*
X132704224Y-59633263D01*
X132747579Y-59568379D01*
X132812463Y-59525024D01*
X132889000Y-59509800D01*
X134089000Y-59509800D01*
X134165537Y-59525024D01*
G37*
G36*
X102591403Y-58749418D02*
G01*
X102640066Y-58781934D01*
X102672582Y-58830597D01*
X102684000Y-58888000D01*
X102684000Y-59913000D01*
X102672582Y-59970403D01*
X102640066Y-60019066D01*
X102591403Y-60051582D01*
X102534000Y-60063000D01*
X102234000Y-60063000D01*
X102176597Y-60051582D01*
X102127934Y-60019066D01*
X102095418Y-59970403D01*
X102084000Y-59913000D01*
X102084000Y-58888000D01*
X102095418Y-58830597D01*
X102127934Y-58781934D01*
X102176597Y-58749418D01*
X102234000Y-58738000D01*
X102534000Y-58738000D01*
X102591403Y-58749418D01*
G37*
G36*
X103541403Y-58749418D02*
G01*
X103590066Y-58781934D01*
X103622582Y-58830597D01*
X103634000Y-58888000D01*
X103634000Y-59913000D01*
X103622582Y-59970403D01*
X103590066Y-60019066D01*
X103541403Y-60051582D01*
X103484000Y-60063000D01*
X103184000Y-60063000D01*
X103126597Y-60051582D01*
X103077934Y-60019066D01*
X103045418Y-59970403D01*
X103034000Y-59913000D01*
X103034000Y-58888000D01*
X103045418Y-58830597D01*
X103077934Y-58781934D01*
X103126597Y-58749418D01*
X103184000Y-58738000D01*
X103484000Y-58738000D01*
X103541403Y-58749418D01*
G37*
G36*
X104491403Y-58749418D02*
G01*
X104540066Y-58781934D01*
X104572582Y-58830597D01*
X104584000Y-58888000D01*
X104584000Y-59913000D01*
X104572582Y-59970403D01*
X104540066Y-60019066D01*
X104491403Y-60051582D01*
X104434000Y-60063000D01*
X104134000Y-60063000D01*
X104076597Y-60051582D01*
X104027934Y-60019066D01*
X103995418Y-59970403D01*
X103984000Y-59913000D01*
X103984000Y-58888000D01*
X103995418Y-58830597D01*
X104027934Y-58781934D01*
X104076597Y-58749418D01*
X104134000Y-58738000D01*
X104434000Y-58738000D01*
X104491403Y-58749418D01*
G37*
G36*
X68957168Y-56931245D02*
G01*
X69181025Y-57003981D01*
X69390748Y-57110840D01*
X69581172Y-57249191D01*
X69747609Y-57415628D01*
X69885960Y-57606052D01*
X69992819Y-57815775D01*
X70065555Y-58039632D01*
X70102376Y-58272111D01*
X70102376Y-58507489D01*
X70065555Y-58739968D01*
X69992819Y-58963825D01*
X69885960Y-59173548D01*
X69747609Y-59363972D01*
X69581172Y-59530409D01*
X69390748Y-59668760D01*
X69181025Y-59775619D01*
X68957168Y-59848355D01*
X68724689Y-59885176D01*
X68489311Y-59885176D01*
X68256832Y-59848355D01*
X68032975Y-59775619D01*
X67823252Y-59668760D01*
X67632828Y-59530409D01*
X67466391Y-59363972D01*
X67328040Y-59173548D01*
X67221181Y-58963825D01*
X67148445Y-58739968D01*
X67111624Y-58507489D01*
X67111624Y-58272111D01*
X67148445Y-58039632D01*
X67221181Y-57815775D01*
X67328040Y-57606052D01*
X67466391Y-57415628D01*
X67632828Y-57249191D01*
X67823252Y-57110840D01*
X68032975Y-57003981D01*
X68256832Y-56931245D01*
X68489311Y-56894424D01*
X68724689Y-56894424D01*
X68957168Y-56931245D01*
G37*
G36*
X130157168Y-56931245D02*
G01*
X130381025Y-57003981D01*
X130590748Y-57110840D01*
X130781172Y-57249191D01*
X130947609Y-57415628D01*
X131085960Y-57606052D01*
X131192819Y-57815775D01*
X131265555Y-58039632D01*
X131302376Y-58272111D01*
X131302376Y-58507489D01*
X131265555Y-58739968D01*
X131192819Y-58963825D01*
X131085960Y-59173548D01*
X130947609Y-59363972D01*
X130781172Y-59530409D01*
X130590748Y-59668760D01*
X130381025Y-59775619D01*
X130157168Y-59848355D01*
X129924689Y-59885176D01*
X129689311Y-59885176D01*
X129456832Y-59848355D01*
X129232975Y-59775619D01*
X129023252Y-59668760D01*
X128832828Y-59530409D01*
X128666391Y-59363972D01*
X128528040Y-59173548D01*
X128421181Y-58963825D01*
X128348445Y-58739968D01*
X128311624Y-58507489D01*
X128311624Y-58272111D01*
X128348445Y-58039632D01*
X128421181Y-57815775D01*
X128528040Y-57606052D01*
X128666391Y-57415628D01*
X128832828Y-57249191D01*
X129023252Y-57110840D01*
X129232975Y-57003981D01*
X129456832Y-56931245D01*
X129689311Y-56894424D01*
X129924689Y-56894424D01*
X130157168Y-56931245D01*
G37*
G36*
X128010600Y-59594800D02*
G01*
X124710600Y-59594800D01*
X124710600Y-57184800D01*
X128010600Y-57184800D01*
X128010600Y-59594800D01*
G37*
G36*
X120090403Y-58933218D02*
G01*
X120139066Y-58965734D01*
X120171582Y-59014397D01*
X120183000Y-59071800D01*
X120183000Y-59371800D01*
X120171582Y-59429203D01*
X120139066Y-59477866D01*
X120090403Y-59510382D01*
X120033000Y-59521800D01*
X118858000Y-59521800D01*
X118800597Y-59510382D01*
X118751934Y-59477866D01*
X118719418Y-59429203D01*
X118708000Y-59371800D01*
X118708000Y-59071800D01*
X118719418Y-59014397D01*
X118751934Y-58965734D01*
X118800597Y-58933218D01*
X118858000Y-58921800D01*
X120033000Y-58921800D01*
X120090403Y-58933218D01*
G37*
G36*
X134180970Y-58553121D02*
G01*
X134237744Y-58591056D01*
X134275679Y-58647830D01*
X134289000Y-58714800D01*
X134289000Y-59064800D01*
X134275679Y-59131770D01*
X134237744Y-59188544D01*
X134180970Y-59226479D01*
X134114000Y-59239800D01*
X132864000Y-59239800D01*
X132797030Y-59226479D01*
X132740256Y-59188544D01*
X132702321Y-59131770D01*
X132689000Y-59064800D01*
X132689000Y-58714800D01*
X132702321Y-58647830D01*
X132740256Y-58591056D01*
X132797030Y-58553121D01*
X132864000Y-58539800D01*
X134114000Y-58539800D01*
X134180970Y-58553121D01*
G37*
G36*
X74652537Y-57930024D02*
G01*
X74717421Y-57973379D01*
X74760776Y-58038263D01*
X74776000Y-58114800D01*
X74776000Y-58664800D01*
X74760776Y-58741337D01*
X74717421Y-58806221D01*
X74652537Y-58849576D01*
X74576000Y-58864800D01*
X74176000Y-58864800D01*
X74099463Y-58849576D01*
X74034579Y-58806221D01*
X73991224Y-58741337D01*
X73976000Y-58664800D01*
X73976000Y-58114800D01*
X73991224Y-58038263D01*
X74034579Y-57973379D01*
X74099463Y-57930024D01*
X74176000Y-57914800D01*
X74576000Y-57914800D01*
X74652537Y-57930024D01*
G37*
G36*
X76302537Y-57930024D02*
G01*
X76367421Y-57973379D01*
X76410776Y-58038263D01*
X76426000Y-58114800D01*
X76426000Y-58664800D01*
X76410776Y-58741337D01*
X76367421Y-58806221D01*
X76302537Y-58849576D01*
X76226000Y-58864800D01*
X75826000Y-58864800D01*
X75749463Y-58849576D01*
X75684579Y-58806221D01*
X75641224Y-58741337D01*
X75626000Y-58664800D01*
X75626000Y-58114800D01*
X75641224Y-58038263D01*
X75684579Y-57973379D01*
X75749463Y-57930024D01*
X75826000Y-57914800D01*
X76226000Y-57914800D01*
X76302537Y-57930024D01*
G37*
G36*
X106652104Y-57910127D02*
G01*
X106725099Y-57958901D01*
X106773873Y-58031896D01*
X106791000Y-58118000D01*
X106791000Y-58568000D01*
X106773873Y-58654104D01*
X106725099Y-58727099D01*
X106652104Y-58775873D01*
X106566000Y-58793000D01*
X106066000Y-58793000D01*
X105979896Y-58775873D01*
X105906901Y-58727099D01*
X105858127Y-58654104D01*
X105841000Y-58568000D01*
X105841000Y-58118000D01*
X105858127Y-58031896D01*
X105906901Y-57958901D01*
X105979896Y-57910127D01*
X106066000Y-57893000D01*
X106566000Y-57893000D01*
X106652104Y-57910127D01*
G37*
G36*
X100698537Y-57780224D02*
G01*
X100763421Y-57823579D01*
X100806776Y-57888463D01*
X100822000Y-57965000D01*
X100822000Y-58365000D01*
X100806776Y-58441537D01*
X100763421Y-58506421D01*
X100698537Y-58549776D01*
X100622000Y-58565000D01*
X100072000Y-58565000D01*
X99995463Y-58549776D01*
X99930579Y-58506421D01*
X99887224Y-58441537D01*
X99872000Y-58365000D01*
X99872000Y-57965000D01*
X99887224Y-57888463D01*
X99930579Y-57823579D01*
X99995463Y-57780224D01*
X100072000Y-57765000D01*
X100622000Y-57765000D01*
X100698537Y-57780224D01*
G37*
G36*
X134180970Y-57553121D02*
G01*
X134237744Y-57591056D01*
X134275679Y-57647830D01*
X134289000Y-57714800D01*
X134289000Y-58064800D01*
X134275679Y-58131770D01*
X134237744Y-58188544D01*
X134180970Y-58226479D01*
X134114000Y-58239800D01*
X132864000Y-58239800D01*
X132797030Y-58226479D01*
X132740256Y-58188544D01*
X132702321Y-58131770D01*
X132689000Y-58064800D01*
X132689000Y-57714800D01*
X132702321Y-57647830D01*
X132740256Y-57591056D01*
X132797030Y-57553121D01*
X132864000Y-57539800D01*
X134114000Y-57539800D01*
X134180970Y-57553121D01*
G37*
G36*
X102591403Y-56474418D02*
G01*
X102640066Y-56506934D01*
X102672582Y-56555597D01*
X102684000Y-56613000D01*
X102684000Y-57638000D01*
X102672582Y-57695403D01*
X102640066Y-57744066D01*
X102591403Y-57776582D01*
X102534000Y-57788000D01*
X102234000Y-57788000D01*
X102176597Y-57776582D01*
X102127934Y-57744066D01*
X102095418Y-57695403D01*
X102084000Y-57638000D01*
X102084000Y-56613000D01*
X102095418Y-56555597D01*
X102127934Y-56506934D01*
X102176597Y-56474418D01*
X102234000Y-56463000D01*
X102534000Y-56463000D01*
X102591403Y-56474418D01*
G37*
G36*
X104491403Y-56474418D02*
G01*
X104540066Y-56506934D01*
X104572582Y-56555597D01*
X104584000Y-56613000D01*
X104584000Y-57638000D01*
X104572582Y-57695403D01*
X104540066Y-57744066D01*
X104491403Y-57776582D01*
X104434000Y-57788000D01*
X104134000Y-57788000D01*
X104076597Y-57776582D01*
X104027934Y-57744066D01*
X103995418Y-57695403D01*
X103984000Y-57638000D01*
X103984000Y-56613000D01*
X103995418Y-56555597D01*
X104027934Y-56506934D01*
X104076597Y-56474418D01*
X104134000Y-56463000D01*
X104434000Y-56463000D01*
X104491403Y-56474418D01*
G37*
G36*
X71118403Y-56289418D02*
G01*
X71167066Y-56321934D01*
X71199582Y-56370597D01*
X71211000Y-56428000D01*
X71211000Y-57453000D01*
X71199582Y-57510403D01*
X71167066Y-57559066D01*
X71118403Y-57591582D01*
X71061000Y-57603000D01*
X70761000Y-57603000D01*
X70703597Y-57591582D01*
X70654934Y-57559066D01*
X70622418Y-57510403D01*
X70611000Y-57453000D01*
X70611000Y-56428000D01*
X70622418Y-56370597D01*
X70654934Y-56321934D01*
X70703597Y-56289418D01*
X70761000Y-56278000D01*
X71061000Y-56278000D01*
X71118403Y-56289418D01*
G37*
G36*
X72068403Y-56289418D02*
G01*
X72117066Y-56321934D01*
X72149582Y-56370597D01*
X72161000Y-56428000D01*
X72161000Y-57453000D01*
X72149582Y-57510403D01*
X72117066Y-57559066D01*
X72068403Y-57591582D01*
X72011000Y-57603000D01*
X71711000Y-57603000D01*
X71653597Y-57591582D01*
X71604934Y-57559066D01*
X71572418Y-57510403D01*
X71561000Y-57453000D01*
X71561000Y-56428000D01*
X71572418Y-56370597D01*
X71604934Y-56321934D01*
X71653597Y-56289418D01*
X71711000Y-56278000D01*
X72011000Y-56278000D01*
X72068403Y-56289418D01*
G37*
G36*
X73018403Y-56289418D02*
G01*
X73067066Y-56321934D01*
X73099582Y-56370597D01*
X73111000Y-56428000D01*
X73111000Y-57453000D01*
X73099582Y-57510403D01*
X73067066Y-57559066D01*
X73018403Y-57591582D01*
X72961000Y-57603000D01*
X72661000Y-57603000D01*
X72603597Y-57591582D01*
X72554934Y-57559066D01*
X72522418Y-57510403D01*
X72511000Y-57453000D01*
X72511000Y-56428000D01*
X72522418Y-56370597D01*
X72554934Y-56321934D01*
X72603597Y-56289418D01*
X72661000Y-56278000D01*
X72961000Y-56278000D01*
X73018403Y-56289418D01*
G37*
G36*
X76557168Y-54431245D02*
G01*
X76781025Y-54503981D01*
X76990748Y-54610840D01*
X77181172Y-54749191D01*
X77347609Y-54915628D01*
X77485960Y-55106052D01*
X77592819Y-55315775D01*
X77665555Y-55539632D01*
X77702376Y-55772111D01*
X77702376Y-56007489D01*
X77665555Y-56239968D01*
X77592819Y-56463825D01*
X77485960Y-56673548D01*
X77347609Y-56863972D01*
X77181172Y-57030409D01*
X76990748Y-57168760D01*
X76781025Y-57275619D01*
X76557168Y-57348355D01*
X76324689Y-57385176D01*
X76089311Y-57385176D01*
X75856832Y-57348355D01*
X75632975Y-57275619D01*
X75423252Y-57168760D01*
X75232828Y-57030409D01*
X75066391Y-56863972D01*
X74928040Y-56673548D01*
X74821181Y-56463825D01*
X74748445Y-56239968D01*
X74711624Y-56007489D01*
X74711624Y-55772111D01*
X74748445Y-55539632D01*
X74821181Y-55315775D01*
X74928040Y-55106052D01*
X75066391Y-54915628D01*
X75232828Y-54749191D01*
X75423252Y-54610840D01*
X75632975Y-54503981D01*
X75856832Y-54431245D01*
X76089311Y-54394424D01*
X76324689Y-54394424D01*
X76557168Y-54431245D01*
G37*
G36*
X122557168Y-54431245D02*
G01*
X122781025Y-54503981D01*
X122990748Y-54610840D01*
X123181172Y-54749191D01*
X123347609Y-54915628D01*
X123485960Y-55106052D01*
X123592819Y-55315775D01*
X123665555Y-55539632D01*
X123702376Y-55772111D01*
X123702376Y-56007489D01*
X123665555Y-56239968D01*
X123592819Y-56463825D01*
X123485960Y-56673548D01*
X123347609Y-56863972D01*
X123181172Y-57030409D01*
X122990748Y-57168760D01*
X122781025Y-57275619D01*
X122557168Y-57348355D01*
X122324689Y-57385176D01*
X122089311Y-57385176D01*
X121856832Y-57348355D01*
X121632975Y-57275619D01*
X121423252Y-57168760D01*
X121232828Y-57030409D01*
X121066391Y-56863972D01*
X120928040Y-56673548D01*
X120821181Y-56463825D01*
X120748445Y-56239968D01*
X120711624Y-56007489D01*
X120711624Y-55772111D01*
X120748445Y-55539632D01*
X120821181Y-55315775D01*
X120928040Y-55106052D01*
X121066391Y-54915628D01*
X121232828Y-54749191D01*
X121423252Y-54610840D01*
X121632975Y-54503981D01*
X121856832Y-54431245D01*
X122089311Y-54394424D01*
X122324689Y-54394424D01*
X122557168Y-54431245D01*
G37*
G36*
X81902537Y-56497224D02*
G01*
X81967421Y-56540579D01*
X82010776Y-56605463D01*
X82026000Y-56682000D01*
X82026000Y-57082000D01*
X82010776Y-57158537D01*
X81967421Y-57223421D01*
X81902537Y-57266776D01*
X81826000Y-57282000D01*
X81276000Y-57282000D01*
X81199463Y-57266776D01*
X81134579Y-57223421D01*
X81091224Y-57158537D01*
X81076000Y-57082000D01*
X81076000Y-56682000D01*
X81091224Y-56605463D01*
X81134579Y-56540579D01*
X81199463Y-56497224D01*
X81276000Y-56482000D01*
X81826000Y-56482000D01*
X81902537Y-56497224D01*
G37*
G36*
X134165537Y-56485024D02*
G01*
X134230421Y-56528379D01*
X134273776Y-56593263D01*
X134289000Y-56669800D01*
X134289000Y-57069800D01*
X134273776Y-57146337D01*
X134230421Y-57211221D01*
X134165537Y-57254576D01*
X134089000Y-57269800D01*
X132889000Y-57269800D01*
X132812463Y-57254576D01*
X132747579Y-57211221D01*
X132704224Y-57146337D01*
X132689000Y-57069800D01*
X132689000Y-56669800D01*
X132704224Y-56593263D01*
X132747579Y-56528379D01*
X132812463Y-56485024D01*
X132889000Y-56469800D01*
X134089000Y-56469800D01*
X134165537Y-56485024D01*
G37*
G36*
X106652104Y-56158127D02*
G01*
X106725099Y-56206901D01*
X106773873Y-56279896D01*
X106791000Y-56366000D01*
X106791000Y-56816000D01*
X106773873Y-56902104D01*
X106725099Y-56975099D01*
X106652104Y-57023873D01*
X106566000Y-57041000D01*
X106066000Y-57041000D01*
X105979896Y-57023873D01*
X105906901Y-56975099D01*
X105858127Y-56902104D01*
X105841000Y-56816000D01*
X105841000Y-56366000D01*
X105858127Y-56279896D01*
X105906901Y-56206901D01*
X105979896Y-56158127D01*
X106066000Y-56141000D01*
X106566000Y-56141000D01*
X106652104Y-56158127D01*
G37*
G36*
X100698537Y-56130224D02*
G01*
X100763421Y-56173579D01*
X100806776Y-56238463D01*
X100822000Y-56315000D01*
X100822000Y-56715000D01*
X100806776Y-56791537D01*
X100763421Y-56856421D01*
X100698537Y-56899776D01*
X100622000Y-56915000D01*
X100072000Y-56915000D01*
X99995463Y-56899776D01*
X99930579Y-56856421D01*
X99887224Y-56791537D01*
X99872000Y-56715000D01*
X99872000Y-56315000D01*
X99887224Y-56238463D01*
X99930579Y-56173579D01*
X99995463Y-56130224D01*
X100072000Y-56115000D01*
X100622000Y-56115000D01*
X100698537Y-56130224D01*
G37*
G36*
X124663003Y-54951218D02*
G01*
X124711666Y-54983734D01*
X124744182Y-55032397D01*
X124755600Y-55089800D01*
X124755600Y-56739800D01*
X124744182Y-56797203D01*
X124711666Y-56845866D01*
X124663003Y-56878382D01*
X124605600Y-56889800D01*
X124305600Y-56889800D01*
X124248197Y-56878382D01*
X124199534Y-56845866D01*
X124167018Y-56797203D01*
X124155600Y-56739800D01*
X124155600Y-55089800D01*
X124167018Y-55032397D01*
X124199534Y-54983734D01*
X124248197Y-54951218D01*
X124305600Y-54939800D01*
X124605600Y-54939800D01*
X124663003Y-54951218D01*
G37*
G36*
X125933003Y-54951218D02*
G01*
X125981666Y-54983734D01*
X126014182Y-55032397D01*
X126025600Y-55089800D01*
X126025600Y-56739800D01*
X126014182Y-56797203D01*
X125981666Y-56845866D01*
X125933003Y-56878382D01*
X125875600Y-56889800D01*
X125575600Y-56889800D01*
X125518197Y-56878382D01*
X125469534Y-56845866D01*
X125437018Y-56797203D01*
X125425600Y-56739800D01*
X125425600Y-55089800D01*
X125437018Y-55032397D01*
X125469534Y-54983734D01*
X125518197Y-54951218D01*
X125575600Y-54939800D01*
X125875600Y-54939800D01*
X125933003Y-54951218D01*
G37*
G36*
X127203003Y-54951218D02*
G01*
X127251666Y-54983734D01*
X127284182Y-55032397D01*
X127295600Y-55089800D01*
X127295600Y-56739800D01*
X127284182Y-56797203D01*
X127251666Y-56845866D01*
X127203003Y-56878382D01*
X127145600Y-56889800D01*
X126845600Y-56889800D01*
X126788197Y-56878382D01*
X126739534Y-56845866D01*
X126707018Y-56797203D01*
X126695600Y-56739800D01*
X126695600Y-55089800D01*
X126707018Y-55032397D01*
X126739534Y-54983734D01*
X126788197Y-54951218D01*
X126845600Y-54939800D01*
X127145600Y-54939800D01*
X127203003Y-54951218D01*
G37*
G36*
X128473003Y-54951218D02*
G01*
X128521666Y-54983734D01*
X128554182Y-55032397D01*
X128565600Y-55089800D01*
X128565600Y-56739800D01*
X128554182Y-56797203D01*
X128521666Y-56845866D01*
X128473003Y-56878382D01*
X128415600Y-56889800D01*
X128115600Y-56889800D01*
X128058197Y-56878382D01*
X128009534Y-56845866D01*
X127977018Y-56797203D01*
X127965600Y-56739800D01*
X127965600Y-55089800D01*
X127977018Y-55032397D01*
X128009534Y-54983734D01*
X128058197Y-54951218D01*
X128115600Y-54939800D01*
X128415600Y-54939800D01*
X128473003Y-54951218D01*
G37*
G36*
X118215403Y-56210418D02*
G01*
X118264066Y-56242934D01*
X118296582Y-56291597D01*
X118308000Y-56349000D01*
X118308000Y-56649000D01*
X118296582Y-56706403D01*
X118264066Y-56755066D01*
X118215403Y-56787582D01*
X118158000Y-56799000D01*
X116983000Y-56799000D01*
X116925597Y-56787582D01*
X116876934Y-56755066D01*
X116844418Y-56706403D01*
X116833000Y-56649000D01*
X116833000Y-56349000D01*
X116844418Y-56291597D01*
X116876934Y-56242934D01*
X116925597Y-56210418D01*
X116983000Y-56199000D01*
X118158000Y-56199000D01*
X118215403Y-56210418D01*
G37*
G36*
X80200182Y-55539993D02*
G01*
X80234246Y-55562754D01*
X80257007Y-55596818D01*
X80265000Y-55637000D01*
X80265000Y-56477000D01*
X80257007Y-56517182D01*
X80234246Y-56551246D01*
X80200182Y-56574007D01*
X80160000Y-56582000D01*
X78370000Y-56582000D01*
X78329818Y-56574007D01*
X78295754Y-56551246D01*
X78272993Y-56517182D01*
X78265000Y-56477000D01*
X78265000Y-55637000D01*
X78272993Y-55596818D01*
X78295754Y-55562754D01*
X78329818Y-55539993D01*
X78370000Y-55532000D01*
X80160000Y-55532000D01*
X80200182Y-55539993D01*
G37*
G36*
X134150104Y-55206927D02*
G01*
X134223099Y-55255701D01*
X134271873Y-55328696D01*
X134289000Y-55414800D01*
X134289000Y-55864800D01*
X134271873Y-55950904D01*
X134223099Y-56023899D01*
X134150104Y-56072673D01*
X134064000Y-56089800D01*
X132914000Y-56089800D01*
X132827896Y-56072673D01*
X132754901Y-56023899D01*
X132706127Y-55950904D01*
X132689000Y-55864800D01*
X132689000Y-55414800D01*
X132706127Y-55328696D01*
X132754901Y-55255701D01*
X132827896Y-55206927D01*
X132914000Y-55189800D01*
X134064000Y-55189800D01*
X134150104Y-55206927D01*
G37*
G36*
X120090403Y-55260418D02*
G01*
X120139066Y-55292934D01*
X120171582Y-55341597D01*
X120183000Y-55399000D01*
X120183000Y-55699000D01*
X120171582Y-55756403D01*
X120139066Y-55805066D01*
X120090403Y-55837582D01*
X120033000Y-55849000D01*
X118858000Y-55849000D01*
X118800597Y-55837582D01*
X118751934Y-55805066D01*
X118719418Y-55756403D01*
X118708000Y-55699000D01*
X118708000Y-55399000D01*
X118719418Y-55341597D01*
X118751934Y-55292934D01*
X118800597Y-55260418D01*
X118858000Y-55249000D01*
X120033000Y-55249000D01*
X120090403Y-55260418D01*
G37*
G36*
X81902537Y-54847224D02*
G01*
X81967421Y-54890579D01*
X82010776Y-54955463D01*
X82026000Y-55032000D01*
X82026000Y-55432000D01*
X82010776Y-55508537D01*
X81967421Y-55573421D01*
X81902537Y-55616776D01*
X81826000Y-55632000D01*
X81276000Y-55632000D01*
X81199463Y-55616776D01*
X81134579Y-55573421D01*
X81091224Y-55508537D01*
X81076000Y-55432000D01*
X81076000Y-55032000D01*
X81091224Y-54955463D01*
X81134579Y-54890579D01*
X81199463Y-54847224D01*
X81276000Y-54832000D01*
X81826000Y-54832000D01*
X81902537Y-54847224D01*
G37*
G36*
X106652104Y-54608127D02*
G01*
X106725099Y-54656901D01*
X106773873Y-54729896D01*
X106791000Y-54816000D01*
X106791000Y-55266000D01*
X106773873Y-55352104D01*
X106725099Y-55425099D01*
X106652104Y-55473873D01*
X106566000Y-55491000D01*
X106066000Y-55491000D01*
X105979896Y-55473873D01*
X105906901Y-55425099D01*
X105858127Y-55352104D01*
X105841000Y-55266000D01*
X105841000Y-54816000D01*
X105858127Y-54729896D01*
X105906901Y-54656901D01*
X105979896Y-54608127D01*
X106066000Y-54591000D01*
X106566000Y-54591000D01*
X106652104Y-54608127D01*
G37*
G36*
X71118403Y-54014418D02*
G01*
X71167066Y-54046934D01*
X71199582Y-54095597D01*
X71211000Y-54153000D01*
X71211000Y-55178000D01*
X71199582Y-55235403D01*
X71167066Y-55284066D01*
X71118403Y-55316582D01*
X71061000Y-55328000D01*
X70761000Y-55328000D01*
X70703597Y-55316582D01*
X70654934Y-55284066D01*
X70622418Y-55235403D01*
X70611000Y-55178000D01*
X70611000Y-54153000D01*
X70622418Y-54095597D01*
X70654934Y-54046934D01*
X70703597Y-54014418D01*
X70761000Y-54003000D01*
X71061000Y-54003000D01*
X71118403Y-54014418D01*
G37*
G36*
X72068403Y-54014418D02*
G01*
X72117066Y-54046934D01*
X72149582Y-54095597D01*
X72161000Y-54153000D01*
X72161000Y-55178000D01*
X72149582Y-55235403D01*
X72117066Y-55284066D01*
X72068403Y-55316582D01*
X72011000Y-55328000D01*
X71711000Y-55328000D01*
X71653597Y-55316582D01*
X71604934Y-55284066D01*
X71572418Y-55235403D01*
X71561000Y-55178000D01*
X71561000Y-54153000D01*
X71572418Y-54095597D01*
X71604934Y-54046934D01*
X71653597Y-54014418D01*
X71711000Y-54003000D01*
X72011000Y-54003000D01*
X72068403Y-54014418D01*
G37*
G36*
X73018403Y-54014418D02*
G01*
X73067066Y-54046934D01*
X73099582Y-54095597D01*
X73111000Y-54153000D01*
X73111000Y-55178000D01*
X73099582Y-55235403D01*
X73067066Y-55284066D01*
X73018403Y-55316582D01*
X72961000Y-55328000D01*
X72661000Y-55328000D01*
X72603597Y-55316582D01*
X72554934Y-55284066D01*
X72522418Y-55235403D01*
X72511000Y-55178000D01*
X72511000Y-54153000D01*
X72522418Y-54095597D01*
X72554934Y-54046934D01*
X72603597Y-54014418D01*
X72661000Y-54003000D01*
X72961000Y-54003000D01*
X73018403Y-54014418D01*
G37*
G36*
X94585403Y-53634418D02*
G01*
X94634066Y-53666934D01*
X94666582Y-53715597D01*
X94678000Y-53773000D01*
X94678000Y-55123000D01*
X94666582Y-55180403D01*
X94634066Y-55229066D01*
X94585403Y-55261582D01*
X94528000Y-55273000D01*
X94228000Y-55273000D01*
X94170597Y-55261582D01*
X94121934Y-55229066D01*
X94089418Y-55180403D01*
X94078000Y-55123000D01*
X94078000Y-53773000D01*
X94089418Y-53715597D01*
X94121934Y-53666934D01*
X94170597Y-53634418D01*
X94228000Y-53623000D01*
X94528000Y-53623000D01*
X94585403Y-53634418D01*
G37*
G36*
X95855403Y-53634418D02*
G01*
X95904066Y-53666934D01*
X95936582Y-53715597D01*
X95948000Y-53773000D01*
X95948000Y-55123000D01*
X95936582Y-55180403D01*
X95904066Y-55229066D01*
X95855403Y-55261582D01*
X95798000Y-55273000D01*
X95498000Y-55273000D01*
X95440597Y-55261582D01*
X95391934Y-55229066D01*
X95359418Y-55180403D01*
X95348000Y-55123000D01*
X95348000Y-53773000D01*
X95359418Y-53715597D01*
X95391934Y-53666934D01*
X95440597Y-53634418D01*
X95498000Y-53623000D01*
X95798000Y-53623000D01*
X95855403Y-53634418D01*
G37*
G36*
X97125403Y-53634418D02*
G01*
X97174066Y-53666934D01*
X97206582Y-53715597D01*
X97218000Y-53773000D01*
X97218000Y-55123000D01*
X97206582Y-55180403D01*
X97174066Y-55229066D01*
X97125403Y-55261582D01*
X97068000Y-55273000D01*
X96768000Y-55273000D01*
X96710597Y-55261582D01*
X96661934Y-55229066D01*
X96629418Y-55180403D01*
X96618000Y-55123000D01*
X96618000Y-53773000D01*
X96629418Y-53715597D01*
X96661934Y-53666934D01*
X96710597Y-53634418D01*
X96768000Y-53623000D01*
X97068000Y-53623000D01*
X97125403Y-53634418D01*
G37*
G36*
X98395403Y-53634418D02*
G01*
X98444066Y-53666934D01*
X98476582Y-53715597D01*
X98488000Y-53773000D01*
X98488000Y-55123000D01*
X98476582Y-55180403D01*
X98444066Y-55229066D01*
X98395403Y-55261582D01*
X98338000Y-55273000D01*
X98038000Y-55273000D01*
X97980597Y-55261582D01*
X97931934Y-55229066D01*
X97899418Y-55180403D01*
X97888000Y-55123000D01*
X97888000Y-53773000D01*
X97899418Y-53715597D01*
X97931934Y-53666934D01*
X97980597Y-53634418D01*
X98038000Y-53623000D01*
X98338000Y-53623000D01*
X98395403Y-53634418D01*
G37*
G36*
X100698537Y-54478224D02*
G01*
X100763421Y-54521579D01*
X100806776Y-54586463D01*
X100822000Y-54663000D01*
X100822000Y-55063000D01*
X100806776Y-55139537D01*
X100763421Y-55204421D01*
X100698537Y-55247776D01*
X100622000Y-55263000D01*
X100072000Y-55263000D01*
X99995463Y-55247776D01*
X99930579Y-55204421D01*
X99887224Y-55139537D01*
X99872000Y-55063000D01*
X99872000Y-54663000D01*
X99887224Y-54586463D01*
X99930579Y-54521579D01*
X99995463Y-54478224D01*
X100072000Y-54463000D01*
X100622000Y-54463000D01*
X100698537Y-54478224D01*
G37*
G36*
X102461104Y-54380127D02*
G01*
X102534099Y-54428901D01*
X102582873Y-54501896D01*
X102600000Y-54588000D01*
X102600000Y-55038000D01*
X102582873Y-55124104D01*
X102534099Y-55197099D01*
X102461104Y-55245873D01*
X102375000Y-55263000D01*
X101875000Y-55263000D01*
X101788896Y-55245873D01*
X101715901Y-55197099D01*
X101667127Y-55124104D01*
X101650000Y-55038000D01*
X101650000Y-54588000D01*
X101667127Y-54501896D01*
X101715901Y-54428901D01*
X101788896Y-54380127D01*
X101875000Y-54363000D01*
X102375000Y-54363000D01*
X102461104Y-54380127D01*
G37*
G36*
X118215403Y-54310418D02*
G01*
X118264066Y-54342934D01*
X118296582Y-54391597D01*
X118308000Y-54449000D01*
X118308000Y-54749000D01*
X118296582Y-54806403D01*
X118264066Y-54855066D01*
X118215403Y-54887582D01*
X118158000Y-54899000D01*
X116983000Y-54899000D01*
X116925597Y-54887582D01*
X116876934Y-54855066D01*
X116844418Y-54806403D01*
X116833000Y-54749000D01*
X116833000Y-54449000D01*
X116844418Y-54391597D01*
X116876934Y-54342934D01*
X116925597Y-54310418D01*
X116983000Y-54299000D01*
X118158000Y-54299000D01*
X118215403Y-54310418D01*
G37*
G36*
X134084263Y-53574078D02*
G01*
X134210342Y-53607860D01*
X134323381Y-53673123D01*
X134415677Y-53765419D01*
X134480940Y-53878458D01*
X134514722Y-54004537D01*
X134514722Y-54135063D01*
X134480940Y-54261142D01*
X134415677Y-54374181D01*
X134323381Y-54466477D01*
X134210342Y-54531740D01*
X134084263Y-54565522D01*
X134019000Y-54569800D01*
X134017363Y-54569800D01*
X133320637Y-54569800D01*
X133319000Y-54569800D01*
X133253737Y-54565522D01*
X133127658Y-54531740D01*
X133014619Y-54466477D01*
X132922323Y-54374181D01*
X132857060Y-54261142D01*
X132823278Y-54135063D01*
X132823278Y-54004537D01*
X132857060Y-53878458D01*
X132922323Y-53765419D01*
X133014619Y-53673123D01*
X133127658Y-53607860D01*
X133253737Y-53574078D01*
X133319000Y-53569800D01*
X134019000Y-53569800D01*
X134084263Y-53574078D01*
G37*
G36*
X137884263Y-53574078D02*
G01*
X138010342Y-53607860D01*
X138123381Y-53673123D01*
X138215677Y-53765419D01*
X138280940Y-53878458D01*
X138314722Y-54004537D01*
X138314722Y-54135063D01*
X138280940Y-54261142D01*
X138215677Y-54374181D01*
X138123381Y-54466477D01*
X138010342Y-54531740D01*
X137884263Y-54565522D01*
X137819000Y-54569800D01*
X137817363Y-54569800D01*
X137120637Y-54569800D01*
X137119000Y-54569800D01*
X137053737Y-54565522D01*
X136927658Y-54531740D01*
X136814619Y-54466477D01*
X136722323Y-54374181D01*
X136657060Y-54261142D01*
X136623278Y-54135063D01*
X136623278Y-54004537D01*
X136657060Y-53878458D01*
X136722323Y-53765419D01*
X136814619Y-53673123D01*
X136927658Y-53607860D01*
X137053737Y-53574078D01*
X137119000Y-53569800D01*
X137819000Y-53569800D01*
X137884263Y-53574078D01*
G37*
G36*
X81335403Y-52752418D02*
G01*
X81384066Y-52784934D01*
X81416582Y-52833597D01*
X81428000Y-52891000D01*
X81428000Y-53916000D01*
X81416582Y-53973403D01*
X81384066Y-54022066D01*
X81335403Y-54054582D01*
X81278000Y-54066000D01*
X80978000Y-54066000D01*
X80920597Y-54054582D01*
X80871934Y-54022066D01*
X80839418Y-53973403D01*
X80828000Y-53916000D01*
X80828000Y-52891000D01*
X80839418Y-52833597D01*
X80871934Y-52784934D01*
X80920597Y-52752418D01*
X80978000Y-52741000D01*
X81278000Y-52741000D01*
X81335403Y-52752418D01*
G37*
G36*
X82285403Y-52752418D02*
G01*
X82334066Y-52784934D01*
X82366582Y-52833597D01*
X82378000Y-52891000D01*
X82378000Y-53916000D01*
X82366582Y-53973403D01*
X82334066Y-54022066D01*
X82285403Y-54054582D01*
X82228000Y-54066000D01*
X81928000Y-54066000D01*
X81870597Y-54054582D01*
X81821934Y-54022066D01*
X81789418Y-53973403D01*
X81778000Y-53916000D01*
X81778000Y-52891000D01*
X81789418Y-52833597D01*
X81821934Y-52784934D01*
X81870597Y-52752418D01*
X81928000Y-52741000D01*
X82228000Y-52741000D01*
X82285403Y-52752418D01*
G37*
G36*
X83235403Y-52752418D02*
G01*
X83284066Y-52784934D01*
X83316582Y-52833597D01*
X83328000Y-52891000D01*
X83328000Y-53916000D01*
X83316582Y-53973403D01*
X83284066Y-54022066D01*
X83235403Y-54054582D01*
X83178000Y-54066000D01*
X82878000Y-54066000D01*
X82820597Y-54054582D01*
X82771934Y-54022066D01*
X82739418Y-53973403D01*
X82728000Y-53916000D01*
X82728000Y-52891000D01*
X82739418Y-52833597D01*
X82771934Y-52784934D01*
X82820597Y-52752418D01*
X82878000Y-52741000D01*
X83178000Y-52741000D01*
X83235403Y-52752418D01*
G37*
G36*
X126738537Y-53057224D02*
G01*
X126803421Y-53100579D01*
X126846776Y-53165463D01*
X126862000Y-53242000D01*
X126862000Y-53792000D01*
X126846776Y-53868537D01*
X126803421Y-53933421D01*
X126738537Y-53976776D01*
X126662000Y-53992000D01*
X126262000Y-53992000D01*
X126185463Y-53976776D01*
X126120579Y-53933421D01*
X126077224Y-53868537D01*
X126062000Y-53792000D01*
X126062000Y-53242000D01*
X126077224Y-53165463D01*
X126120579Y-53100579D01*
X126185463Y-53057224D01*
X126262000Y-53042000D01*
X126662000Y-53042000D01*
X126738537Y-53057224D01*
G37*
G36*
X128388537Y-53057224D02*
G01*
X128453421Y-53100579D01*
X128496776Y-53165463D01*
X128512000Y-53242000D01*
X128512000Y-53792000D01*
X128496776Y-53868537D01*
X128453421Y-53933421D01*
X128388537Y-53976776D01*
X128312000Y-53992000D01*
X127912000Y-53992000D01*
X127835463Y-53976776D01*
X127770579Y-53933421D01*
X127727224Y-53868537D01*
X127712000Y-53792000D01*
X127712000Y-53242000D01*
X127727224Y-53165463D01*
X127770579Y-53100579D01*
X127835463Y-53057224D01*
X127912000Y-53042000D01*
X128312000Y-53042000D01*
X128388537Y-53057224D01*
G37*
G36*
X102461104Y-52830127D02*
G01*
X102534099Y-52878901D01*
X102582873Y-52951896D01*
X102600000Y-53038000D01*
X102600000Y-53488000D01*
X102582873Y-53574104D01*
X102534099Y-53647099D01*
X102461104Y-53695873D01*
X102375000Y-53713000D01*
X101875000Y-53713000D01*
X101788896Y-53695873D01*
X101715901Y-53647099D01*
X101667127Y-53574104D01*
X101650000Y-53488000D01*
X101650000Y-53038000D01*
X101667127Y-52951896D01*
X101715901Y-52878901D01*
X101788896Y-52830127D01*
X101875000Y-52813000D01*
X102375000Y-52813000D01*
X102461104Y-52830127D01*
G37*
G36*
X100698537Y-52828224D02*
G01*
X100763421Y-52871579D01*
X100806776Y-52936463D01*
X100822000Y-53013000D01*
X100822000Y-53413000D01*
X100806776Y-53489537D01*
X100763421Y-53554421D01*
X100698537Y-53597776D01*
X100622000Y-53613000D01*
X100072000Y-53613000D01*
X99995463Y-53597776D01*
X99930579Y-53554421D01*
X99887224Y-53489537D01*
X99872000Y-53413000D01*
X99872000Y-53013000D01*
X99887224Y-52936463D01*
X99930579Y-52871579D01*
X99995463Y-52828224D01*
X100072000Y-52813000D01*
X100622000Y-52813000D01*
X100698537Y-52828224D01*
G37*
G36*
X86468046Y-50920804D02*
G01*
X86520553Y-50926896D01*
X86538494Y-50934818D01*
X86561584Y-50939411D01*
X86586304Y-50955928D01*
X86607619Y-50965340D01*
X86622176Y-50979897D01*
X86644312Y-50994688D01*
X86659102Y-51016823D01*
X86673659Y-51031380D01*
X86683069Y-51052693D01*
X86699589Y-51077416D01*
X86704182Y-51100507D01*
X86712103Y-51118446D01*
X86718192Y-51170942D01*
X86719000Y-51175000D01*
X86719000Y-53065000D01*
X86718192Y-53069058D01*
X86712103Y-53121553D01*
X86704182Y-53139490D01*
X86699589Y-53162584D01*
X86683068Y-53187308D01*
X86673659Y-53208619D01*
X86659104Y-53223173D01*
X86644312Y-53245312D01*
X86622173Y-53260104D01*
X86607619Y-53274659D01*
X86586308Y-53284068D01*
X86561584Y-53300589D01*
X86538490Y-53305182D01*
X86520553Y-53313103D01*
X86468058Y-53319192D01*
X86464000Y-53320000D01*
X85274000Y-53320000D01*
X85269942Y-53319192D01*
X85217446Y-53313103D01*
X85199507Y-53305182D01*
X85176416Y-53300589D01*
X85151693Y-53284069D01*
X85130380Y-53274659D01*
X85115823Y-53260102D01*
X85093688Y-53245312D01*
X85078897Y-53223176D01*
X85064340Y-53208619D01*
X85054928Y-53187304D01*
X85038411Y-53162584D01*
X85033818Y-53139494D01*
X85025896Y-53121553D01*
X85019804Y-53069046D01*
X85019000Y-53065000D01*
X85019000Y-51175000D01*
X85019804Y-51170954D01*
X85025896Y-51118446D01*
X85033818Y-51100503D01*
X85038411Y-51077416D01*
X85054927Y-51052697D01*
X85064340Y-51031380D01*
X85078899Y-51016820D01*
X85093688Y-50994688D01*
X85115820Y-50979899D01*
X85130380Y-50965340D01*
X85151697Y-50955927D01*
X85176416Y-50939411D01*
X85199503Y-50934818D01*
X85217446Y-50926896D01*
X85269954Y-50920804D01*
X85274000Y-50920000D01*
X86464000Y-50920000D01*
X86468046Y-50920804D01*
G37*
G36*
X112095046Y-50920804D02*
G01*
X112147553Y-50926896D01*
X112165494Y-50934818D01*
X112188584Y-50939411D01*
X112213304Y-50955928D01*
X112234619Y-50965340D01*
X112249176Y-50979897D01*
X112271312Y-50994688D01*
X112286102Y-51016823D01*
X112300659Y-51031380D01*
X112310069Y-51052693D01*
X112326589Y-51077416D01*
X112331182Y-51100507D01*
X112339103Y-51118446D01*
X112345192Y-51170942D01*
X112346000Y-51175000D01*
X112346000Y-53065000D01*
X112345192Y-53069058D01*
X112339103Y-53121553D01*
X112331182Y-53139490D01*
X112326589Y-53162584D01*
X112310068Y-53187308D01*
X112300659Y-53208619D01*
X112286104Y-53223173D01*
X112271312Y-53245312D01*
X112249173Y-53260104D01*
X112234619Y-53274659D01*
X112213308Y-53284068D01*
X112188584Y-53300589D01*
X112165490Y-53305182D01*
X112147553Y-53313103D01*
X112095058Y-53319192D01*
X112091000Y-53320000D01*
X110901000Y-53320000D01*
X110896942Y-53319192D01*
X110844446Y-53313103D01*
X110826507Y-53305182D01*
X110803416Y-53300589D01*
X110778693Y-53284069D01*
X110757380Y-53274659D01*
X110742823Y-53260102D01*
X110720688Y-53245312D01*
X110705897Y-53223176D01*
X110691340Y-53208619D01*
X110681928Y-53187304D01*
X110665411Y-53162584D01*
X110660818Y-53139494D01*
X110652896Y-53121553D01*
X110646804Y-53069046D01*
X110646000Y-53065000D01*
X110646000Y-51175000D01*
X110646804Y-51170954D01*
X110652896Y-51118446D01*
X110660818Y-51100503D01*
X110665411Y-51077416D01*
X110681927Y-51052697D01*
X110691340Y-51031380D01*
X110705899Y-51016820D01*
X110720688Y-50994688D01*
X110742820Y-50979899D01*
X110757380Y-50965340D01*
X110778697Y-50955927D01*
X110803416Y-50939411D01*
X110826503Y-50934818D01*
X110844446Y-50926896D01*
X110896954Y-50920804D01*
X110901000Y-50920000D01*
X112091000Y-50920000D01*
X112095046Y-50920804D01*
G37*
G36*
X114399679Y-51922346D02*
G01*
X114448342Y-51954862D01*
X114480858Y-52003525D01*
X114492276Y-52060928D01*
X114492276Y-53085928D01*
X114480858Y-53143331D01*
X114448342Y-53191994D01*
X114399679Y-53224510D01*
X114342276Y-53235928D01*
X114042276Y-53235928D01*
X113984873Y-53224510D01*
X113936210Y-53191994D01*
X113903694Y-53143331D01*
X113892276Y-53085928D01*
X113892276Y-52060928D01*
X113903694Y-52003525D01*
X113936210Y-51954862D01*
X113984873Y-51922346D01*
X114042276Y-51910928D01*
X114342276Y-51910928D01*
X114399679Y-51922346D01*
G37*
G36*
X115349679Y-51922346D02*
G01*
X115398342Y-51954862D01*
X115430858Y-52003525D01*
X115442276Y-52060928D01*
X115442276Y-53085928D01*
X115430858Y-53143331D01*
X115398342Y-53191994D01*
X115349679Y-53224510D01*
X115292276Y-53235928D01*
X114992276Y-53235928D01*
X114934873Y-53224510D01*
X114886210Y-53191994D01*
X114853694Y-53143331D01*
X114842276Y-53085928D01*
X114842276Y-52060928D01*
X114853694Y-52003525D01*
X114886210Y-51954862D01*
X114934873Y-51922346D01*
X114992276Y-51910928D01*
X115292276Y-51910928D01*
X115349679Y-51922346D01*
G37*
G36*
X116299679Y-51922346D02*
G01*
X116348342Y-51954862D01*
X116380858Y-52003525D01*
X116392276Y-52060928D01*
X116392276Y-53085928D01*
X116380858Y-53143331D01*
X116348342Y-53191994D01*
X116299679Y-53224510D01*
X116242276Y-53235928D01*
X115942276Y-53235928D01*
X115884873Y-53224510D01*
X115836210Y-53191994D01*
X115803694Y-53143331D01*
X115792276Y-53085928D01*
X115792276Y-52060928D01*
X115803694Y-52003525D01*
X115836210Y-51954862D01*
X115884873Y-51922346D01*
X115942276Y-51910928D01*
X116242276Y-51910928D01*
X116299679Y-51922346D01*
G37*
G36*
X118086537Y-52295224D02*
G01*
X118151421Y-52338579D01*
X118194776Y-52403463D01*
X118210000Y-52480000D01*
X118210000Y-53030000D01*
X118194776Y-53106537D01*
X118151421Y-53171421D01*
X118086537Y-53214776D01*
X118010000Y-53230000D01*
X117610000Y-53230000D01*
X117533463Y-53214776D01*
X117468579Y-53171421D01*
X117425224Y-53106537D01*
X117410000Y-53030000D01*
X117410000Y-52480000D01*
X117425224Y-52403463D01*
X117468579Y-52338579D01*
X117533463Y-52295224D01*
X117610000Y-52280000D01*
X118010000Y-52280000D01*
X118086537Y-52295224D01*
G37*
G36*
X119736537Y-52295224D02*
G01*
X119801421Y-52338579D01*
X119844776Y-52403463D01*
X119860000Y-52480000D01*
X119860000Y-53030000D01*
X119844776Y-53106537D01*
X119801421Y-53171421D01*
X119736537Y-53214776D01*
X119660000Y-53230000D01*
X119260000Y-53230000D01*
X119183463Y-53214776D01*
X119118579Y-53171421D01*
X119075224Y-53106537D01*
X119060000Y-53030000D01*
X119060000Y-52480000D01*
X119075224Y-52403463D01*
X119118579Y-52338579D01*
X119183463Y-52295224D01*
X119260000Y-52280000D01*
X119660000Y-52280000D01*
X119736537Y-52295224D01*
G37*
G36*
X71346304Y-51941527D02*
G01*
X71419299Y-51990301D01*
X71468073Y-52063296D01*
X71485200Y-52149400D01*
X71485200Y-52649400D01*
X71468073Y-52735504D01*
X71419299Y-52808499D01*
X71346304Y-52857273D01*
X71260200Y-52874400D01*
X70810200Y-52874400D01*
X70724096Y-52857273D01*
X70651101Y-52808499D01*
X70602327Y-52735504D01*
X70585200Y-52649400D01*
X70585200Y-52149400D01*
X70602327Y-52063296D01*
X70651101Y-51990301D01*
X70724096Y-51941527D01*
X70810200Y-51924400D01*
X71260200Y-51924400D01*
X71346304Y-51941527D01*
G37*
G36*
X72896304Y-51941527D02*
G01*
X72969299Y-51990301D01*
X73018073Y-52063296D01*
X73035200Y-52149400D01*
X73035200Y-52649400D01*
X73018073Y-52735504D01*
X72969299Y-52808499D01*
X72896304Y-52857273D01*
X72810200Y-52874400D01*
X72360200Y-52874400D01*
X72274096Y-52857273D01*
X72201101Y-52808499D01*
X72152327Y-52735504D01*
X72135200Y-52649400D01*
X72135200Y-52149400D01*
X72152327Y-52063296D01*
X72201101Y-51990301D01*
X72274096Y-51941527D01*
X72360200Y-51924400D01*
X72810200Y-51924400D01*
X72896304Y-51941527D01*
G37*
G36*
X74652537Y-51939624D02*
G01*
X74717421Y-51982979D01*
X74760776Y-52047863D01*
X74776000Y-52124400D01*
X74776000Y-52674400D01*
X74760776Y-52750937D01*
X74717421Y-52815821D01*
X74652537Y-52859176D01*
X74576000Y-52874400D01*
X74176000Y-52874400D01*
X74099463Y-52859176D01*
X74034579Y-52815821D01*
X73991224Y-52750937D01*
X73976000Y-52674400D01*
X73976000Y-52124400D01*
X73991224Y-52047863D01*
X74034579Y-51982979D01*
X74099463Y-51939624D01*
X74176000Y-51924400D01*
X74576000Y-51924400D01*
X74652537Y-51939624D01*
G37*
G36*
X76302537Y-51939624D02*
G01*
X76367421Y-51982979D01*
X76410776Y-52047863D01*
X76426000Y-52124400D01*
X76426000Y-52674400D01*
X76410776Y-52750937D01*
X76367421Y-52815821D01*
X76302537Y-52859176D01*
X76226000Y-52874400D01*
X75826000Y-52874400D01*
X75749463Y-52859176D01*
X75684579Y-52815821D01*
X75641224Y-52750937D01*
X75626000Y-52674400D01*
X75626000Y-52124400D01*
X75641224Y-52047863D01*
X75684579Y-51982979D01*
X75749463Y-51939624D01*
X75826000Y-51924400D01*
X76226000Y-51924400D01*
X76302537Y-51939624D01*
G37*
G36*
X134988537Y-51417224D02*
G01*
X135053421Y-51460579D01*
X135096776Y-51525463D01*
X135112000Y-51602000D01*
X135112000Y-52002000D01*
X135096776Y-52078537D01*
X135053421Y-52143421D01*
X134988537Y-52186776D01*
X134912000Y-52202000D01*
X134362000Y-52202000D01*
X134285463Y-52186776D01*
X134220579Y-52143421D01*
X134177224Y-52078537D01*
X134162000Y-52002000D01*
X134162000Y-51602000D01*
X134177224Y-51525463D01*
X134220579Y-51460579D01*
X134285463Y-51417224D01*
X134362000Y-51402000D01*
X134912000Y-51402000D01*
X134988537Y-51417224D01*
G37*
G36*
X136512537Y-51417224D02*
G01*
X136577421Y-51460579D01*
X136620776Y-51525463D01*
X136636000Y-51602000D01*
X136636000Y-52002000D01*
X136620776Y-52078537D01*
X136577421Y-52143421D01*
X136512537Y-52186776D01*
X136436000Y-52202000D01*
X135886000Y-52202000D01*
X135809463Y-52186776D01*
X135744579Y-52143421D01*
X135701224Y-52078537D01*
X135686000Y-52002000D01*
X135686000Y-51602000D01*
X135701224Y-51525463D01*
X135744579Y-51460579D01*
X135809463Y-51417224D01*
X135886000Y-51402000D01*
X136436000Y-51402000D01*
X136512537Y-51417224D01*
G37*
G36*
X125336537Y-51354224D02*
G01*
X125401421Y-51397579D01*
X125444776Y-51462463D01*
X125460000Y-51539000D01*
X125460000Y-51939000D01*
X125444776Y-52015537D01*
X125401421Y-52080421D01*
X125336537Y-52123776D01*
X125260000Y-52139000D01*
X124710000Y-52139000D01*
X124633463Y-52123776D01*
X124568579Y-52080421D01*
X124525224Y-52015537D01*
X124510000Y-51939000D01*
X124510000Y-51539000D01*
X124525224Y-51462463D01*
X124568579Y-51397579D01*
X124633463Y-51354224D01*
X124710000Y-51339000D01*
X125260000Y-51339000D01*
X125336537Y-51354224D01*
G37*
G36*
X126860537Y-51354224D02*
G01*
X126925421Y-51397579D01*
X126968776Y-51462463D01*
X126984000Y-51539000D01*
X126984000Y-51939000D01*
X126968776Y-52015537D01*
X126925421Y-52080421D01*
X126860537Y-52123776D01*
X126784000Y-52139000D01*
X126234000Y-52139000D01*
X126157463Y-52123776D01*
X126092579Y-52080421D01*
X126049224Y-52015537D01*
X126034000Y-51939000D01*
X126034000Y-51539000D01*
X126049224Y-51462463D01*
X126092579Y-51397579D01*
X126157463Y-51354224D01*
X126234000Y-51339000D01*
X126784000Y-51339000D01*
X126860537Y-51354224D01*
G37*
G36*
X128385104Y-51256127D02*
G01*
X128458099Y-51304901D01*
X128506873Y-51377896D01*
X128524000Y-51464000D01*
X128524000Y-51914000D01*
X128506873Y-52000104D01*
X128458099Y-52073099D01*
X128385104Y-52121873D01*
X128299000Y-52139000D01*
X127799000Y-52139000D01*
X127712896Y-52121873D01*
X127639901Y-52073099D01*
X127591127Y-52000104D01*
X127574000Y-51914000D01*
X127574000Y-51464000D01*
X127591127Y-51377896D01*
X127639901Y-51304901D01*
X127712896Y-51256127D01*
X127799000Y-51239000D01*
X128299000Y-51239000D01*
X128385104Y-51256127D01*
G37*
G36*
X81335403Y-50477418D02*
G01*
X81384066Y-50509934D01*
X81416582Y-50558597D01*
X81428000Y-50616000D01*
X81428000Y-51641000D01*
X81416582Y-51698403D01*
X81384066Y-51747066D01*
X81335403Y-51779582D01*
X81278000Y-51791000D01*
X80978000Y-51791000D01*
X80920597Y-51779582D01*
X80871934Y-51747066D01*
X80839418Y-51698403D01*
X80828000Y-51641000D01*
X80828000Y-50616000D01*
X80839418Y-50558597D01*
X80871934Y-50509934D01*
X80920597Y-50477418D01*
X80978000Y-50466000D01*
X81278000Y-50466000D01*
X81335403Y-50477418D01*
G37*
G36*
X82285403Y-50477418D02*
G01*
X82334066Y-50509934D01*
X82366582Y-50558597D01*
X82378000Y-50616000D01*
X82378000Y-51641000D01*
X82366582Y-51698403D01*
X82334066Y-51747066D01*
X82285403Y-51779582D01*
X82228000Y-51791000D01*
X81928000Y-51791000D01*
X81870597Y-51779582D01*
X81821934Y-51747066D01*
X81789418Y-51698403D01*
X81778000Y-51641000D01*
X81778000Y-50616000D01*
X81789418Y-50558597D01*
X81821934Y-50509934D01*
X81870597Y-50477418D01*
X81928000Y-50466000D01*
X82228000Y-50466000D01*
X82285403Y-50477418D01*
G37*
G36*
X83235403Y-50477418D02*
G01*
X83284066Y-50509934D01*
X83316582Y-50558597D01*
X83328000Y-50616000D01*
X83328000Y-51641000D01*
X83316582Y-51698403D01*
X83284066Y-51747066D01*
X83235403Y-51779582D01*
X83178000Y-51791000D01*
X82878000Y-51791000D01*
X82820597Y-51779582D01*
X82771934Y-51747066D01*
X82739418Y-51698403D01*
X82728000Y-51641000D01*
X82728000Y-50616000D01*
X82739418Y-50558597D01*
X82771934Y-50509934D01*
X82820597Y-50477418D01*
X82878000Y-50466000D01*
X83178000Y-50466000D01*
X83235403Y-50477418D01*
G37*
G36*
X92973742Y-49347601D02*
G01*
X93127687Y-49411367D01*
X93266234Y-49503941D01*
X93384059Y-49621766D01*
X93476633Y-49760313D01*
X93540399Y-49914258D01*
X93572907Y-50077685D01*
X93572907Y-50244315D01*
X93540399Y-50407742D01*
X93476633Y-50561687D01*
X93384059Y-50700234D01*
X93266234Y-50818059D01*
X93127687Y-50910633D01*
X92973742Y-50974399D01*
X92810315Y-51006907D01*
X92643685Y-51006907D01*
X92480258Y-50974399D01*
X92326313Y-50910633D01*
X92187766Y-50818059D01*
X92069941Y-50700234D01*
X91977367Y-50561687D01*
X91913601Y-50407742D01*
X91881093Y-50244315D01*
X91881093Y-50077685D01*
X91913601Y-49914258D01*
X91977367Y-49760313D01*
X92069941Y-49621766D01*
X92187766Y-49503941D01*
X92326313Y-49411367D01*
X92480258Y-49347601D01*
X92643685Y-49315093D01*
X92810315Y-49315093D01*
X92973742Y-49347601D01*
G37*
G36*
X98053742Y-49347601D02*
G01*
X98207687Y-49411367D01*
X98346234Y-49503941D01*
X98464059Y-49621766D01*
X98556633Y-49760313D01*
X98620399Y-49914258D01*
X98652907Y-50077685D01*
X98652907Y-50244315D01*
X98620399Y-50407742D01*
X98556633Y-50561687D01*
X98464059Y-50700234D01*
X98346234Y-50818059D01*
X98207687Y-50910633D01*
X98053742Y-50974399D01*
X97890315Y-51006907D01*
X97723685Y-51006907D01*
X97560258Y-50974399D01*
X97406313Y-50910633D01*
X97267766Y-50818059D01*
X97149941Y-50700234D01*
X97057367Y-50561687D01*
X96993601Y-50407742D01*
X96961093Y-50244315D01*
X96961093Y-50077685D01*
X96993601Y-49914258D01*
X97057367Y-49760313D01*
X97149941Y-49621766D01*
X97267766Y-49503941D01*
X97406313Y-49411367D01*
X97560258Y-49347601D01*
X97723685Y-49315093D01*
X97890315Y-49315093D01*
X98053742Y-49347601D01*
G37*
G36*
X114399679Y-49647346D02*
G01*
X114448342Y-49679862D01*
X114480858Y-49728525D01*
X114492276Y-49785928D01*
X114492276Y-50810928D01*
X114480858Y-50868331D01*
X114448342Y-50916994D01*
X114399679Y-50949510D01*
X114342276Y-50960928D01*
X114042276Y-50960928D01*
X113984873Y-50949510D01*
X113936210Y-50916994D01*
X113903694Y-50868331D01*
X113892276Y-50810928D01*
X113892276Y-49785928D01*
X113903694Y-49728525D01*
X113936210Y-49679862D01*
X113984873Y-49647346D01*
X114042276Y-49635928D01*
X114342276Y-49635928D01*
X114399679Y-49647346D01*
G37*
G36*
X115349679Y-49647346D02*
G01*
X115398342Y-49679862D01*
X115430858Y-49728525D01*
X115442276Y-49785928D01*
X115442276Y-50810928D01*
X115430858Y-50868331D01*
X115398342Y-50916994D01*
X115349679Y-50949510D01*
X115292276Y-50960928D01*
X114992276Y-50960928D01*
X114934873Y-50949510D01*
X114886210Y-50916994D01*
X114853694Y-50868331D01*
X114842276Y-50810928D01*
X114842276Y-49785928D01*
X114853694Y-49728525D01*
X114886210Y-49679862D01*
X114934873Y-49647346D01*
X114992276Y-49635928D01*
X115292276Y-49635928D01*
X115349679Y-49647346D01*
G37*
G36*
X116299679Y-49647346D02*
G01*
X116348342Y-49679862D01*
X116380858Y-49728525D01*
X116392276Y-49785928D01*
X116392276Y-50810928D01*
X116380858Y-50868331D01*
X116348342Y-50916994D01*
X116299679Y-50949510D01*
X116242276Y-50960928D01*
X115942276Y-50960928D01*
X115884873Y-50949510D01*
X115836210Y-50916994D01*
X115803694Y-50868331D01*
X115792276Y-50810928D01*
X115792276Y-49785928D01*
X115803694Y-49728525D01*
X115836210Y-49679862D01*
X115884873Y-49647346D01*
X115942276Y-49635928D01*
X116242276Y-49635928D01*
X116299679Y-49647346D01*
G37*
G36*
X91037000Y-50611000D02*
G01*
X89337000Y-50611000D01*
X89337000Y-48911000D01*
X91037000Y-48911000D01*
X91037000Y-50611000D01*
G37*
G36*
X95513742Y-48947601D02*
G01*
X95667687Y-49011367D01*
X95806234Y-49103941D01*
X95924059Y-49221766D01*
X96016633Y-49360313D01*
X96080399Y-49514258D01*
X96112907Y-49677685D01*
X96112907Y-49844315D01*
X96080399Y-50007742D01*
X96016633Y-50161687D01*
X95924059Y-50300234D01*
X95806234Y-50418059D01*
X95667687Y-50510633D01*
X95513742Y-50574399D01*
X95350315Y-50606907D01*
X95183685Y-50606907D01*
X95020258Y-50574399D01*
X94866313Y-50510633D01*
X94727766Y-50418059D01*
X94609941Y-50300234D01*
X94517367Y-50161687D01*
X94453601Y-50007742D01*
X94421093Y-49844315D01*
X94421093Y-49677685D01*
X94453601Y-49514258D01*
X94517367Y-49360313D01*
X94609941Y-49221766D01*
X94727766Y-49103941D01*
X94866313Y-49011367D01*
X95020258Y-48947601D01*
X95183685Y-48915093D01*
X95350315Y-48915093D01*
X95513742Y-48947601D01*
G37*
G36*
X100593742Y-48947601D02*
G01*
X100747687Y-49011367D01*
X100886234Y-49103941D01*
X101004059Y-49221766D01*
X101096633Y-49360313D01*
X101160399Y-49514258D01*
X101192907Y-49677685D01*
X101192907Y-49844315D01*
X101160399Y-50007742D01*
X101096633Y-50161687D01*
X101004059Y-50300234D01*
X100886234Y-50418059D01*
X100747687Y-50510633D01*
X100593742Y-50574399D01*
X100430315Y-50606907D01*
X100263685Y-50606907D01*
X100100258Y-50574399D01*
X99946313Y-50510633D01*
X99807766Y-50418059D01*
X99689941Y-50300234D01*
X99597367Y-50161687D01*
X99533601Y-50007742D01*
X99501093Y-49844315D01*
X99501093Y-49677685D01*
X99533601Y-49514258D01*
X99597367Y-49360313D01*
X99689941Y-49221766D01*
X99807766Y-49103941D01*
X99946313Y-49011367D01*
X100100258Y-48947601D01*
X100263685Y-48915093D01*
X100430315Y-48915093D01*
X100593742Y-48947601D01*
G37*
G36*
X128385104Y-49706127D02*
G01*
X128458099Y-49754901D01*
X128506873Y-49827896D01*
X128524000Y-49914000D01*
X128524000Y-50364000D01*
X128506873Y-50450104D01*
X128458099Y-50523099D01*
X128385104Y-50571873D01*
X128299000Y-50589000D01*
X127799000Y-50589000D01*
X127712896Y-50571873D01*
X127639901Y-50523099D01*
X127591127Y-50450104D01*
X127574000Y-50364000D01*
X127574000Y-49914000D01*
X127591127Y-49827896D01*
X127639901Y-49754901D01*
X127712896Y-49706127D01*
X127799000Y-49689000D01*
X128299000Y-49689000D01*
X128385104Y-49706127D01*
G37*
G36*
X134988537Y-49767224D02*
G01*
X135053421Y-49810579D01*
X135096776Y-49875463D01*
X135112000Y-49952000D01*
X135112000Y-50352000D01*
X135096776Y-50428537D01*
X135053421Y-50493421D01*
X134988537Y-50536776D01*
X134912000Y-50552000D01*
X134362000Y-50552000D01*
X134285463Y-50536776D01*
X134220579Y-50493421D01*
X134177224Y-50428537D01*
X134162000Y-50352000D01*
X134162000Y-49952000D01*
X134177224Y-49875463D01*
X134220579Y-49810579D01*
X134285463Y-49767224D01*
X134362000Y-49752000D01*
X134912000Y-49752000D01*
X134988537Y-49767224D01*
G37*
G36*
X136512537Y-49767224D02*
G01*
X136577421Y-49810579D01*
X136620776Y-49875463D01*
X136636000Y-49952000D01*
X136636000Y-50352000D01*
X136620776Y-50428537D01*
X136577421Y-50493421D01*
X136512537Y-50536776D01*
X136436000Y-50552000D01*
X135886000Y-50552000D01*
X135809463Y-50536776D01*
X135744579Y-50493421D01*
X135701224Y-50428537D01*
X135686000Y-50352000D01*
X135686000Y-49952000D01*
X135701224Y-49875463D01*
X135744579Y-49810579D01*
X135809463Y-49767224D01*
X135886000Y-49752000D01*
X136436000Y-49752000D01*
X136512537Y-49767224D01*
G37*
G36*
X125336537Y-49704224D02*
G01*
X125401421Y-49747579D01*
X125444776Y-49812463D01*
X125460000Y-49889000D01*
X125460000Y-50289000D01*
X125444776Y-50365537D01*
X125401421Y-50430421D01*
X125336537Y-50473776D01*
X125260000Y-50489000D01*
X124710000Y-50489000D01*
X124633463Y-50473776D01*
X124568579Y-50430421D01*
X124525224Y-50365537D01*
X124510000Y-50289000D01*
X124510000Y-49889000D01*
X124525224Y-49812463D01*
X124568579Y-49747579D01*
X124633463Y-49704224D01*
X124710000Y-49689000D01*
X125260000Y-49689000D01*
X125336537Y-49704224D01*
G37*
G36*
X126860537Y-49704224D02*
G01*
X126925421Y-49747579D01*
X126968776Y-49812463D01*
X126984000Y-49889000D01*
X126984000Y-50289000D01*
X126968776Y-50365537D01*
X126925421Y-50430421D01*
X126860537Y-50473776D01*
X126784000Y-50489000D01*
X126234000Y-50489000D01*
X126157463Y-50473776D01*
X126092579Y-50430421D01*
X126049224Y-50365537D01*
X126034000Y-50289000D01*
X126034000Y-49889000D01*
X126049224Y-49812463D01*
X126092579Y-49747579D01*
X126157463Y-49704224D01*
X126234000Y-49689000D01*
X126784000Y-49689000D01*
X126860537Y-49704224D01*
G37*
G36*
X69068714Y-48989295D02*
G01*
X69204548Y-49045559D01*
X69326795Y-49127242D01*
X69430758Y-49231205D01*
X69512441Y-49353452D01*
X69568705Y-49489286D01*
X69597389Y-49633487D01*
X69597389Y-49780513D01*
X69568705Y-49924714D01*
X69512441Y-50060548D01*
X69430758Y-50182795D01*
X69326795Y-50286758D01*
X69204548Y-50368441D01*
X69068714Y-50424705D01*
X68924513Y-50453389D01*
X68777487Y-50453389D01*
X68633286Y-50424705D01*
X68497452Y-50368441D01*
X68375205Y-50286758D01*
X68271242Y-50182795D01*
X68189559Y-50060548D01*
X68133295Y-49924714D01*
X68104611Y-49780513D01*
X68104611Y-49633487D01*
X68133295Y-49489286D01*
X68189559Y-49353452D01*
X68271242Y-49231205D01*
X68375205Y-49127242D01*
X68497452Y-49045559D01*
X68633286Y-48989295D01*
X68777487Y-48960611D01*
X68924513Y-48960611D01*
X69068714Y-48989295D01*
G37*
G36*
X132314714Y-48989295D02*
G01*
X132450548Y-49045559D01*
X132572795Y-49127242D01*
X132676758Y-49231205D01*
X132758441Y-49353452D01*
X132814705Y-49489286D01*
X132843389Y-49633487D01*
X132843389Y-49780513D01*
X132814705Y-49924714D01*
X132758441Y-50060548D01*
X132676758Y-50182795D01*
X132572795Y-50286758D01*
X132450548Y-50368441D01*
X132314714Y-50424705D01*
X132170513Y-50453389D01*
X132023487Y-50453389D01*
X131879286Y-50424705D01*
X131743452Y-50368441D01*
X131621205Y-50286758D01*
X131517242Y-50182795D01*
X131435559Y-50060548D01*
X131379295Y-49924714D01*
X131350611Y-49780513D01*
X131350611Y-49633487D01*
X131379295Y-49489286D01*
X131435559Y-49353452D01*
X131517242Y-49231205D01*
X131621205Y-49127242D01*
X131743452Y-49045559D01*
X131879286Y-48989295D01*
X132023487Y-48960611D01*
X132170513Y-48960611D01*
X132314714Y-48989295D01*
G37*
M02*
