M48
INCH
T1C0.0118
T2C0.0197
T3C0.0394
T4C0.0709
%
G90
G05
T1
X2.6207Y-2.117
X2.6307Y-2.517
X2.7907Y-2.657
X2.8292Y-2.2988
X2.8922Y-2.2988
X2.8972Y-2.4518
X2.9407Y-1.947
X3.0207Y-2.567
X3.0307Y-2.2988
X3.0907Y-1.997
X3.1207Y-2.437
X3.1207Y-2.677
X3.1507Y-2.1025
X3.2107Y-2.287
X3.3157Y-2.0215
X3.3157Y-2.0925
X3.3607Y-2.487
X3.3607Y-2.597
X3.4807Y-1.967
X3.6507Y-2.077
X3.6507Y-2.397
X3.6607Y-2.677
X3.708Y-2.2596
X3.7157Y-2.087
X3.7382Y-2.2895
X3.7477Y-2.2
X3.7807Y-2.617
X3.7839Y-2.0737
X3.7856Y-2.242
X3.8207Y-2.447
X3.8374Y-2.0737
X3.8851Y-2.0724
X3.9107Y-2.487
X3.9507Y-2.337
X3.9907Y-2.337
X4.0607Y-2.397
X4.0707Y-2.152
X4.0707Y-2.247
X4.1257Y-2.152
X4.1507Y-2.0724
X4.1707Y-2.677
X4.2107Y-1.947
X4.2107Y-2.0269
X4.2248Y-2.1673
X4.2307Y-2.207
X4.2307Y-2.257
X4.2307Y-2.307
X4.2507Y-2.377
X4.2807Y-2.067
X4.2907Y-2.217
X4.2907Y-2.277
X4.2907Y-2.337
X4.3308Y-2.147
X4.46Y-2.09
X4.5507Y-2.677
X4.7007Y-1.967
X4.7403Y-2.077
X4.9107Y-2.461
X4.9107Y-2.607
X4.9407Y-2.107
X4.9748Y-2.2988
X4.9807Y-1.927
X5.0307Y-2.461
X5.0395Y-2.5311
X5.0395Y-2.5858
X5.0407Y-1.927
X5.1227Y-2.4277
X5.1907Y-2.127
X5.1907Y-2.467
X5.3007Y-1.937
X5.3051Y-2.1905
X5.3051Y-2.237
X5.3051Y-2.3587
X5.3051Y-2.407
X5.3607Y-1.937
X5.4107Y-2.297
T3
X3.5507Y-1.9591
X3.6507Y-1.9748
X3.7507Y-1.9591
X3.8507Y-1.9748
X3.9507Y-1.9591
T4
X2.7011Y-2.2988
X3.0003Y-2.2004
X3.0003Y-2.3972
X4.8113Y-2.2004
X4.8113Y-2.3972
X5.1105Y-2.2988
T2
G00X5.2488Y-2.1287
M15
G01X5.2763Y-2.1287
M16
G05
G00X5.2488Y-2.4689
M15
G01X5.2763Y-2.4689
M16
G05
G00X5.3984Y-2.1287
M15
G01X5.4259Y-2.1287
M16
G05
G00X5.3984Y-2.4689
M15
G01X5.4259Y-2.4689
M16
G05
M30
